G04 #@! TF.GenerationSoftware,KiCad,Pcbnew,5.1.10-88a1d61d58~90~ubuntu20.04.1*
G04 #@! TF.CreationDate,2021-08-15T15:07:41+03:00*
G04 #@! TF.ProjectId,DepremSanat,44657072-656d-4536-916e-61742e6b6963,rev?*
G04 #@! TF.SameCoordinates,Original*
G04 #@! TF.FileFunction,Copper,L3,Inr*
G04 #@! TF.FilePolarity,Positive*
%FSLAX46Y46*%
G04 Gerber Fmt 4.6, Leading zero omitted, Abs format (unit mm)*
G04 Created by KiCad (PCBNEW 5.1.10-88a1d61d58~90~ubuntu20.04.1) date 2021-08-15 15:07:41*
%MOMM*%
%LPD*%
G01*
G04 APERTURE LIST*
G04 #@! TA.AperFunction,ComponentPad*
%ADD10C,1.800000*%
G04 #@! TD*
G04 #@! TA.AperFunction,ComponentPad*
%ADD11C,2.000000*%
G04 #@! TD*
G04 #@! TA.AperFunction,ComponentPad*
%ADD12R,1.800000X1.800000*%
G04 #@! TD*
G04 #@! TA.AperFunction,ComponentPad*
%ADD13O,1.700000X1.700000*%
G04 #@! TD*
G04 #@! TA.AperFunction,ComponentPad*
%ADD14R,1.700000X1.700000*%
G04 #@! TD*
G04 #@! TA.AperFunction,ComponentPad*
%ADD15R,2.000000X2.000000*%
G04 #@! TD*
G04 #@! TA.AperFunction,ViaPad*
%ADD16C,0.800000*%
G04 #@! TD*
G04 #@! TA.AperFunction,ViaPad*
%ADD17C,1.400000*%
G04 #@! TD*
G04 #@! TA.AperFunction,ViaPad*
%ADD18C,1.000000*%
G04 #@! TD*
G04 #@! TA.AperFunction,Conductor*
%ADD19C,0.350000*%
G04 #@! TD*
G04 #@! TA.AperFunction,Conductor*
%ADD20C,0.254000*%
G04 #@! TD*
G04 #@! TA.AperFunction,Conductor*
%ADD21C,0.100000*%
G04 #@! TD*
G04 APERTURE END LIST*
D10*
X132990000Y-119825000D03*
X151490000Y-119825000D03*
X144990000Y-119825000D03*
X132990000Y-115125000D03*
D11*
X155488000Y-114554000D03*
X160488000Y-114554000D03*
X118785000Y-114427000D03*
X123785000Y-114427000D03*
D12*
X111150000Y-69390000D03*
X111150000Y-65890000D03*
X117450000Y-69390000D03*
X117450000Y-65890000D03*
X111150000Y-62690000D03*
X117450000Y-62690000D03*
D11*
X183515000Y-119340000D03*
X183515000Y-114340000D03*
X183515000Y-108545000D03*
X183515000Y-103545000D03*
X183515000Y-97750000D03*
X183515000Y-92750000D03*
X183515000Y-86955000D03*
X183515000Y-81955000D03*
X183515000Y-76160000D03*
X183515000Y-71160000D03*
X183515000Y-65365000D03*
X183515000Y-60365000D03*
D13*
X131445000Y-71755000D03*
X131445000Y-69215000D03*
X131445000Y-66675000D03*
D14*
X131445000Y-64135000D03*
D11*
X134540000Y-107315000D03*
D15*
X129540000Y-107315000D03*
D16*
X132080000Y-91440000D03*
X134620000Y-88900000D03*
X118110000Y-78105000D03*
X118110000Y-92710000D03*
X116205000Y-88900000D03*
X111760000Y-99695000D03*
X121285000Y-100330000D03*
X147320000Y-104140000D03*
X150495000Y-100330000D03*
X136525000Y-102235000D03*
X136652000Y-99568000D03*
X134620000Y-83820000D03*
X139700000Y-81280000D03*
X150876000Y-83820000D03*
X153416000Y-83820000D03*
X108712000Y-86868000D03*
X136144000Y-79248000D03*
D17*
X167005000Y-118745000D03*
X167005000Y-107950000D03*
X167005000Y-97155000D03*
X167005000Y-86360000D03*
X167005000Y-75565000D03*
X167005000Y-64770000D03*
D16*
X110929437Y-108725010D03*
X142240000Y-59690000D03*
X156210000Y-59055000D03*
X153670000Y-70485000D03*
X147955000Y-70485000D03*
X152400000Y-59055000D03*
X158750000Y-66675000D03*
X115570000Y-117475000D03*
X111760000Y-113030000D03*
X143510000Y-110490000D03*
X132080000Y-88900000D03*
X130175000Y-88265000D03*
X129540000Y-84455000D03*
X127000000Y-81915000D03*
X122555000Y-81915000D03*
X121285000Y-86995000D03*
X121285000Y-92075000D03*
X121285000Y-95885000D03*
X124460000Y-97155000D03*
X127635000Y-97155000D03*
X129540000Y-92710000D03*
X134620000Y-91440000D03*
X130810000Y-93980000D03*
X116205000Y-100330000D03*
X141224000Y-100076000D03*
X141224000Y-102108000D03*
X147828000Y-101092000D03*
X136144000Y-86360000D03*
X137160000Y-81280000D03*
X132080000Y-83820000D03*
X162015010Y-73025000D03*
X159385000Y-73025000D03*
X155575000Y-73660000D03*
X150495000Y-73025000D03*
X137160000Y-74295000D03*
X141980925Y-75553377D03*
X149860000Y-59055000D03*
X158750000Y-61595000D03*
X152400000Y-86360000D03*
X108585000Y-81915000D03*
X107950000Y-97790000D03*
X132080000Y-96520000D03*
D18*
X115824000Y-111252000D03*
D16*
X165608000Y-58928000D03*
X165100000Y-70104000D03*
X165100000Y-80264000D03*
X165100000Y-91440000D03*
X165100000Y-102235000D03*
X165100000Y-112395000D03*
X121920000Y-106045000D03*
X109220000Y-109220000D03*
X109220000Y-105410000D03*
X133604000Y-86360000D03*
X138839303Y-90776496D03*
X150359255Y-88885141D03*
X147955000Y-80645000D03*
X165100000Y-61976000D03*
X165100000Y-72644000D03*
X164560552Y-74536226D03*
X165100000Y-83820000D03*
X158403563Y-90068244D03*
X165100000Y-93980000D03*
X157040160Y-89730160D03*
X165100000Y-104648000D03*
X162560000Y-101092000D03*
X153670000Y-92710000D03*
X158750000Y-86360000D03*
X156845000Y-86360000D03*
X150950467Y-92201828D03*
X146050000Y-82550000D03*
X144145000Y-79375000D03*
X146050000Y-83820000D03*
X142875000Y-80645000D03*
X120015000Y-97155000D03*
X118110000Y-76200000D03*
D19*
X109220000Y-105410000D02*
X109220000Y-109220000D01*
X165608000Y-58928000D02*
X175133000Y-58928000D01*
X175133000Y-58928000D02*
X177165000Y-60960000D01*
X175895000Y-102235000D02*
X177165000Y-103505000D01*
X165100000Y-102235000D02*
X175895000Y-102235000D01*
X175895000Y-91440000D02*
X177165000Y-92710000D01*
X165100000Y-91440000D02*
X175895000Y-91440000D01*
X177165000Y-92710000D02*
X177165000Y-103505000D01*
X165100000Y-80264000D02*
X176149000Y-80264000D01*
X177165000Y-81280000D02*
X177165000Y-92710000D01*
X176149000Y-80264000D02*
X177165000Y-81280000D01*
X176149000Y-70104000D02*
X177165000Y-71120000D01*
X165100000Y-70104000D02*
X176149000Y-70104000D01*
X177165000Y-71120000D02*
X177165000Y-81280000D01*
X177165000Y-60960000D02*
X177165000Y-71120000D01*
X120015000Y-107950000D02*
X121920000Y-106045000D01*
X109220000Y-109220000D02*
X110490000Y-107950000D01*
X110490000Y-107950000D02*
X120015000Y-107950000D01*
X177165000Y-103505000D02*
X177165000Y-106045000D01*
X177165000Y-106045000D02*
X173990000Y-109220000D01*
X135255000Y-104140000D02*
X123825000Y-104140000D01*
X140335000Y-109220000D02*
X135255000Y-104140000D01*
X123825000Y-104140000D02*
X122319999Y-105645001D01*
X122319999Y-105645001D02*
X121920000Y-106045000D01*
X165100000Y-112395000D02*
X165100000Y-109220000D01*
X165100000Y-109220000D02*
X140335000Y-109220000D01*
X173990000Y-109220000D02*
X165100000Y-109220000D01*
D20*
X189259659Y-57688625D02*
X189509429Y-57764035D01*
X189739792Y-57886522D01*
X189941980Y-58051422D01*
X190108286Y-58252450D01*
X190232378Y-58481954D01*
X190309531Y-58731195D01*
X190340000Y-59021088D01*
X190340001Y-119967711D01*
X190311375Y-120259660D01*
X190235965Y-120509429D01*
X190113477Y-120739794D01*
X189948579Y-120941979D01*
X189747546Y-121108288D01*
X189518046Y-121232378D01*
X189268805Y-121309531D01*
X188978911Y-121340000D01*
X151741731Y-121340000D01*
X151937743Y-121301011D01*
X152217095Y-121185299D01*
X152468505Y-121017312D01*
X152682312Y-120803505D01*
X152850299Y-120552095D01*
X152966011Y-120272743D01*
X153025000Y-119976184D01*
X153025000Y-119673816D01*
X152966011Y-119377257D01*
X152850299Y-119097905D01*
X152682312Y-118846495D01*
X152468505Y-118632688D01*
X152439810Y-118613514D01*
X165670000Y-118613514D01*
X165670000Y-118876486D01*
X165721304Y-119134405D01*
X165821939Y-119377359D01*
X165968038Y-119596013D01*
X166153987Y-119781962D01*
X166372641Y-119928061D01*
X166615595Y-120028696D01*
X166873514Y-120080000D01*
X167136486Y-120080000D01*
X167394405Y-120028696D01*
X167637359Y-119928061D01*
X167856013Y-119781962D01*
X168041962Y-119596013D01*
X168188061Y-119377359D01*
X168270237Y-119178967D01*
X181880000Y-119178967D01*
X181880000Y-119501033D01*
X181942832Y-119816912D01*
X182066082Y-120114463D01*
X182245013Y-120382252D01*
X182472748Y-120609987D01*
X182740537Y-120788918D01*
X183038088Y-120912168D01*
X183353967Y-120975000D01*
X183676033Y-120975000D01*
X183991912Y-120912168D01*
X184289463Y-120788918D01*
X184557252Y-120609987D01*
X184784987Y-120382252D01*
X184963918Y-120114463D01*
X185087168Y-119816912D01*
X185150000Y-119501033D01*
X185150000Y-119178967D01*
X185087168Y-118863088D01*
X184963918Y-118565537D01*
X184784987Y-118297748D01*
X184557252Y-118070013D01*
X184289463Y-117891082D01*
X183991912Y-117767832D01*
X183676033Y-117705000D01*
X183353967Y-117705000D01*
X183038088Y-117767832D01*
X182740537Y-117891082D01*
X182472748Y-118070013D01*
X182245013Y-118297748D01*
X182066082Y-118565537D01*
X181942832Y-118863088D01*
X181880000Y-119178967D01*
X168270237Y-119178967D01*
X168288696Y-119134405D01*
X168340000Y-118876486D01*
X168340000Y-118613514D01*
X168288696Y-118355595D01*
X168188061Y-118112641D01*
X168041962Y-117893987D01*
X167856013Y-117708038D01*
X167637359Y-117561939D01*
X167394405Y-117461304D01*
X167136486Y-117410000D01*
X166873514Y-117410000D01*
X166615595Y-117461304D01*
X166372641Y-117561939D01*
X166153987Y-117708038D01*
X165968038Y-117893987D01*
X165821939Y-118112641D01*
X165721304Y-118355595D01*
X165670000Y-118613514D01*
X152439810Y-118613514D01*
X152217095Y-118464701D01*
X151937743Y-118348989D01*
X151641184Y-118290000D01*
X151338816Y-118290000D01*
X151042257Y-118348989D01*
X150762905Y-118464701D01*
X150511495Y-118632688D01*
X150297688Y-118846495D01*
X150129701Y-119097905D01*
X150013989Y-119377257D01*
X149955000Y-119673816D01*
X149955000Y-119976184D01*
X150013989Y-120272743D01*
X150129701Y-120552095D01*
X150297688Y-120803505D01*
X150511495Y-121017312D01*
X150762905Y-121185299D01*
X151042257Y-121301011D01*
X151238269Y-121340000D01*
X145241731Y-121340000D01*
X145437743Y-121301011D01*
X145717095Y-121185299D01*
X145968505Y-121017312D01*
X146182312Y-120803505D01*
X146350299Y-120552095D01*
X146466011Y-120272743D01*
X146525000Y-119976184D01*
X146525000Y-119673816D01*
X146466011Y-119377257D01*
X146350299Y-119097905D01*
X146182312Y-118846495D01*
X145968505Y-118632688D01*
X145717095Y-118464701D01*
X145437743Y-118348989D01*
X145141184Y-118290000D01*
X144838816Y-118290000D01*
X144542257Y-118348989D01*
X144262905Y-118464701D01*
X144011495Y-118632688D01*
X143797688Y-118846495D01*
X143629701Y-119097905D01*
X143513989Y-119377257D01*
X143455000Y-119673816D01*
X143455000Y-119976184D01*
X143513989Y-120272743D01*
X143629701Y-120552095D01*
X143797688Y-120803505D01*
X144011495Y-121017312D01*
X144262905Y-121185299D01*
X144542257Y-121301011D01*
X144738269Y-121340000D01*
X133241731Y-121340000D01*
X133437743Y-121301011D01*
X133717095Y-121185299D01*
X133968505Y-121017312D01*
X134182312Y-120803505D01*
X134350299Y-120552095D01*
X134466011Y-120272743D01*
X134525000Y-119976184D01*
X134525000Y-119673816D01*
X134466011Y-119377257D01*
X134350299Y-119097905D01*
X134182312Y-118846495D01*
X133968505Y-118632688D01*
X133717095Y-118464701D01*
X133437743Y-118348989D01*
X133141184Y-118290000D01*
X132838816Y-118290000D01*
X132542257Y-118348989D01*
X132262905Y-118464701D01*
X132011495Y-118632688D01*
X131797688Y-118846495D01*
X131629701Y-119097905D01*
X131513989Y-119377257D01*
X131455000Y-119673816D01*
X131455000Y-119976184D01*
X131513989Y-120272743D01*
X131629701Y-120552095D01*
X131797688Y-120803505D01*
X132011495Y-121017312D01*
X132262905Y-121185299D01*
X132542257Y-121301011D01*
X132738269Y-121340000D01*
X111887000Y-121340000D01*
X111887000Y-117373061D01*
X114535000Y-117373061D01*
X114535000Y-117576939D01*
X114574774Y-117776898D01*
X114652795Y-117965256D01*
X114766063Y-118134774D01*
X114910226Y-118278937D01*
X115079744Y-118392205D01*
X115268102Y-118470226D01*
X115468061Y-118510000D01*
X115671939Y-118510000D01*
X115871898Y-118470226D01*
X116060256Y-118392205D01*
X116229774Y-118278937D01*
X116373937Y-118134774D01*
X116487205Y-117965256D01*
X116565226Y-117776898D01*
X116605000Y-117576939D01*
X116605000Y-117373061D01*
X116565226Y-117173102D01*
X116487205Y-116984744D01*
X116373937Y-116815226D01*
X116229774Y-116671063D01*
X116060256Y-116557795D01*
X115871898Y-116479774D01*
X115671939Y-116440000D01*
X115468061Y-116440000D01*
X115268102Y-116479774D01*
X115079744Y-116557795D01*
X114910226Y-116671063D01*
X114766063Y-116815226D01*
X114652795Y-116984744D01*
X114574774Y-117173102D01*
X114535000Y-117373061D01*
X111887000Y-117373061D01*
X111887000Y-116189080D01*
X132105525Y-116189080D01*
X132189208Y-116443261D01*
X132461775Y-116574158D01*
X132754642Y-116649365D01*
X133056553Y-116665991D01*
X133355907Y-116623397D01*
X133641199Y-116523222D01*
X133790792Y-116443261D01*
X133874475Y-116189080D01*
X132990000Y-115304605D01*
X132105525Y-116189080D01*
X111887000Y-116189080D01*
X111887000Y-114265967D01*
X117150000Y-114265967D01*
X117150000Y-114588033D01*
X117212832Y-114903912D01*
X117336082Y-115201463D01*
X117515013Y-115469252D01*
X117742748Y-115696987D01*
X118010537Y-115875918D01*
X118308088Y-115999168D01*
X118623967Y-116062000D01*
X118946033Y-116062000D01*
X119261912Y-115999168D01*
X119559463Y-115875918D01*
X119827252Y-115696987D01*
X119961826Y-115562413D01*
X122829192Y-115562413D01*
X122924956Y-115826814D01*
X123214571Y-115967704D01*
X123526108Y-116049384D01*
X123847595Y-116068718D01*
X124166675Y-116024961D01*
X124471088Y-115919795D01*
X124645044Y-115826814D01*
X124740808Y-115562413D01*
X123785000Y-114606605D01*
X122829192Y-115562413D01*
X119961826Y-115562413D01*
X120054987Y-115469252D01*
X120233918Y-115201463D01*
X120357168Y-114903912D01*
X120420000Y-114588033D01*
X120420000Y-114489595D01*
X122143282Y-114489595D01*
X122187039Y-114808675D01*
X122292205Y-115113088D01*
X122385186Y-115287044D01*
X122649587Y-115382808D01*
X123605395Y-114427000D01*
X123964605Y-114427000D01*
X124920413Y-115382808D01*
X125184814Y-115287044D01*
X125231267Y-115191553D01*
X131449009Y-115191553D01*
X131491603Y-115490907D01*
X131591778Y-115776199D01*
X131671739Y-115925792D01*
X131925920Y-116009475D01*
X132810395Y-115125000D01*
X133169605Y-115125000D01*
X134054080Y-116009475D01*
X134308261Y-115925792D01*
X134439158Y-115653225D01*
X134514365Y-115360358D01*
X134530991Y-115058447D01*
X134488397Y-114759093D01*
X134388222Y-114473801D01*
X134308261Y-114324208D01*
X134054080Y-114240525D01*
X133169605Y-115125000D01*
X132810395Y-115125000D01*
X131925920Y-114240525D01*
X131671739Y-114324208D01*
X131540842Y-114596775D01*
X131465635Y-114889642D01*
X131449009Y-115191553D01*
X125231267Y-115191553D01*
X125325704Y-114997429D01*
X125407384Y-114685892D01*
X125426718Y-114364405D01*
X125385100Y-114060920D01*
X132105525Y-114060920D01*
X132990000Y-114945395D01*
X133874475Y-114060920D01*
X133790792Y-113806739D01*
X133518225Y-113675842D01*
X133225358Y-113600635D01*
X132923447Y-113584009D01*
X132624093Y-113626603D01*
X132338801Y-113726778D01*
X132189208Y-113806739D01*
X132105525Y-114060920D01*
X125385100Y-114060920D01*
X125382961Y-114045325D01*
X125277795Y-113740912D01*
X125184814Y-113566956D01*
X124920413Y-113471192D01*
X123964605Y-114427000D01*
X123605395Y-114427000D01*
X122649587Y-113471192D01*
X122385186Y-113566956D01*
X122244296Y-113856571D01*
X122162616Y-114168108D01*
X122143282Y-114489595D01*
X120420000Y-114489595D01*
X120420000Y-114265967D01*
X120357168Y-113950088D01*
X120233918Y-113652537D01*
X120054987Y-113384748D01*
X119961826Y-113291587D01*
X122829192Y-113291587D01*
X123785000Y-114247395D01*
X124740808Y-113291587D01*
X124645044Y-113027186D01*
X124355429Y-112886296D01*
X124043892Y-112804616D01*
X123722405Y-112785282D01*
X123403325Y-112829039D01*
X123098912Y-112934205D01*
X122924956Y-113027186D01*
X122829192Y-113291587D01*
X119961826Y-113291587D01*
X119827252Y-113157013D01*
X119559463Y-112978082D01*
X119261912Y-112854832D01*
X118946033Y-112792000D01*
X118623967Y-112792000D01*
X118308088Y-112854832D01*
X118010537Y-112978082D01*
X117742748Y-113157013D01*
X117515013Y-113384748D01*
X117336082Y-113652537D01*
X117212832Y-113950088D01*
X117150000Y-114265967D01*
X111887000Y-114265967D01*
X111887000Y-114060015D01*
X112061898Y-114025226D01*
X112250256Y-113947205D01*
X112419774Y-113833937D01*
X112563937Y-113689774D01*
X112677205Y-113520256D01*
X112755226Y-113331898D01*
X112795000Y-113131939D01*
X112795000Y-112928061D01*
X112755226Y-112728102D01*
X112677205Y-112539744D01*
X112563937Y-112370226D01*
X112419774Y-112226063D01*
X112250256Y-112112795D01*
X112061898Y-112034774D01*
X111887000Y-111999985D01*
X111887000Y-109982000D01*
X127000000Y-109982000D01*
X127024776Y-109979560D01*
X127048601Y-109972333D01*
X127070557Y-109960597D01*
X127089803Y-109944803D01*
X127105597Y-109925557D01*
X127117333Y-109903601D01*
X127124560Y-109879776D01*
X127127000Y-109855000D01*
X127127000Y-108315000D01*
X127901928Y-108315000D01*
X127914188Y-108439482D01*
X127950498Y-108559180D01*
X128009463Y-108669494D01*
X128088815Y-108766185D01*
X128185506Y-108845537D01*
X128295820Y-108904502D01*
X128415518Y-108940812D01*
X128540000Y-108953072D01*
X129254250Y-108950000D01*
X129413000Y-108791250D01*
X129413000Y-107442000D01*
X129667000Y-107442000D01*
X129667000Y-108791250D01*
X129825750Y-108950000D01*
X130540000Y-108953072D01*
X130664482Y-108940812D01*
X130784180Y-108904502D01*
X130894494Y-108845537D01*
X130991185Y-108766185D01*
X131070537Y-108669494D01*
X131129502Y-108559180D01*
X131165812Y-108439482D01*
X131178072Y-108315000D01*
X131175000Y-107600750D01*
X131016250Y-107442000D01*
X129667000Y-107442000D01*
X129413000Y-107442000D01*
X128063750Y-107442000D01*
X127905000Y-107600750D01*
X127901928Y-108315000D01*
X127127000Y-108315000D01*
X127127000Y-106315000D01*
X127901928Y-106315000D01*
X127905000Y-107029250D01*
X128063750Y-107188000D01*
X129413000Y-107188000D01*
X129413000Y-105838750D01*
X129667000Y-105838750D01*
X129667000Y-107188000D01*
X131016250Y-107188000D01*
X131175000Y-107029250D01*
X131178072Y-106315000D01*
X131165812Y-106190518D01*
X131129502Y-106070820D01*
X131070537Y-105960506D01*
X130991185Y-105863815D01*
X130894494Y-105784463D01*
X130784180Y-105725498D01*
X130664482Y-105689188D01*
X130540000Y-105676928D01*
X129825750Y-105680000D01*
X129667000Y-105838750D01*
X129413000Y-105838750D01*
X129254250Y-105680000D01*
X128540000Y-105676928D01*
X128415518Y-105689188D01*
X128295820Y-105725498D01*
X128185506Y-105784463D01*
X128088815Y-105863815D01*
X128009463Y-105960506D01*
X127950498Y-106070820D01*
X127914188Y-106190518D01*
X127901928Y-106315000D01*
X127127000Y-106315000D01*
X127127000Y-105537000D01*
X131953000Y-105537000D01*
X131953000Y-113030000D01*
X131955440Y-113054776D01*
X131962667Y-113078601D01*
X131974403Y-113100557D01*
X131990197Y-113119803D01*
X132009443Y-113135597D01*
X132031399Y-113147333D01*
X132055224Y-113154560D01*
X132080000Y-113157000D01*
X154635836Y-113157000D01*
X154445748Y-113284013D01*
X154218013Y-113511748D01*
X154039082Y-113779537D01*
X153915832Y-114077088D01*
X153853000Y-114392967D01*
X153853000Y-114715033D01*
X153915832Y-115030912D01*
X154039082Y-115328463D01*
X154218013Y-115596252D01*
X154445748Y-115823987D01*
X154713537Y-116002918D01*
X155011088Y-116126168D01*
X155326967Y-116189000D01*
X155649033Y-116189000D01*
X155964912Y-116126168D01*
X156262463Y-116002918D01*
X156530252Y-115823987D01*
X156757987Y-115596252D01*
X156936918Y-115328463D01*
X157060168Y-115030912D01*
X157123000Y-114715033D01*
X157123000Y-114392967D01*
X157060168Y-114077088D01*
X156936918Y-113779537D01*
X156757987Y-113511748D01*
X156530252Y-113284013D01*
X156340164Y-113157000D01*
X159635836Y-113157000D01*
X159445748Y-113284013D01*
X159218013Y-113511748D01*
X159039082Y-113779537D01*
X158915832Y-114077088D01*
X158853000Y-114392967D01*
X158853000Y-114715033D01*
X158915832Y-115030912D01*
X159039082Y-115328463D01*
X159218013Y-115596252D01*
X159445748Y-115823987D01*
X159713537Y-116002918D01*
X160011088Y-116126168D01*
X160326967Y-116189000D01*
X160649033Y-116189000D01*
X160964912Y-116126168D01*
X161262463Y-116002918D01*
X161530252Y-115823987D01*
X161757987Y-115596252D01*
X161936918Y-115328463D01*
X162060168Y-115030912D01*
X162123000Y-114715033D01*
X162123000Y-114392967D01*
X162060168Y-114077088D01*
X161936918Y-113779537D01*
X161757987Y-113511748D01*
X161530252Y-113284013D01*
X161340164Y-113157000D01*
X162433000Y-113157000D01*
X162433000Y-115570000D01*
X162435440Y-115594776D01*
X162442667Y-115618601D01*
X162454403Y-115640557D01*
X162470197Y-115659803D01*
X162489443Y-115675597D01*
X162511399Y-115687333D01*
X162535224Y-115694560D01*
X162560000Y-115697000D01*
X179070000Y-115697000D01*
X179094776Y-115694560D01*
X179118601Y-115687333D01*
X179140557Y-115675597D01*
X179159803Y-115659803D01*
X179175597Y-115640557D01*
X179187333Y-115618601D01*
X179194560Y-115594776D01*
X179197000Y-115570000D01*
X179197000Y-115475413D01*
X182559192Y-115475413D01*
X182654956Y-115739814D01*
X182944571Y-115880704D01*
X183256108Y-115962384D01*
X183577595Y-115981718D01*
X183896675Y-115937961D01*
X184201088Y-115832795D01*
X184375044Y-115739814D01*
X184470808Y-115475413D01*
X183515000Y-114519605D01*
X182559192Y-115475413D01*
X179197000Y-115475413D01*
X179197000Y-114402595D01*
X181873282Y-114402595D01*
X181917039Y-114721675D01*
X182022205Y-115026088D01*
X182115186Y-115200044D01*
X182379587Y-115295808D01*
X183335395Y-114340000D01*
X183694605Y-114340000D01*
X184650413Y-115295808D01*
X184914814Y-115200044D01*
X185055704Y-114910429D01*
X185137384Y-114598892D01*
X185156718Y-114277405D01*
X185112961Y-113958325D01*
X185007795Y-113653912D01*
X184914814Y-113479956D01*
X184650413Y-113384192D01*
X183694605Y-114340000D01*
X183335395Y-114340000D01*
X182379587Y-113384192D01*
X182115186Y-113479956D01*
X181974296Y-113769571D01*
X181892616Y-114081108D01*
X181873282Y-114402595D01*
X179197000Y-114402595D01*
X179197000Y-113204587D01*
X182559192Y-113204587D01*
X183515000Y-114160395D01*
X184470808Y-113204587D01*
X184375044Y-112940186D01*
X184085429Y-112799296D01*
X183773892Y-112717616D01*
X183452405Y-112698282D01*
X183133325Y-112742039D01*
X182828912Y-112847205D01*
X182654956Y-112940186D01*
X182559192Y-113204587D01*
X179197000Y-113204587D01*
X179197000Y-108383967D01*
X181880000Y-108383967D01*
X181880000Y-108706033D01*
X181942832Y-109021912D01*
X182066082Y-109319463D01*
X182245013Y-109587252D01*
X182472748Y-109814987D01*
X182740537Y-109993918D01*
X183038088Y-110117168D01*
X183353967Y-110180000D01*
X183676033Y-110180000D01*
X183991912Y-110117168D01*
X184289463Y-109993918D01*
X184557252Y-109814987D01*
X184784987Y-109587252D01*
X184963918Y-109319463D01*
X185087168Y-109021912D01*
X185150000Y-108706033D01*
X185150000Y-108383967D01*
X185087168Y-108068088D01*
X184963918Y-107770537D01*
X184784987Y-107502748D01*
X184557252Y-107275013D01*
X184289463Y-107096082D01*
X183991912Y-106972832D01*
X183676033Y-106910000D01*
X183353967Y-106910000D01*
X183038088Y-106972832D01*
X182740537Y-107096082D01*
X182472748Y-107275013D01*
X182245013Y-107502748D01*
X182066082Y-107770537D01*
X181942832Y-108068088D01*
X181880000Y-108383967D01*
X179197000Y-108383967D01*
X179197000Y-104680413D01*
X182559192Y-104680413D01*
X182654956Y-104944814D01*
X182944571Y-105085704D01*
X183256108Y-105167384D01*
X183577595Y-105186718D01*
X183896675Y-105142961D01*
X184201088Y-105037795D01*
X184375044Y-104944814D01*
X184470808Y-104680413D01*
X183515000Y-103724605D01*
X182559192Y-104680413D01*
X179197000Y-104680413D01*
X179197000Y-103607595D01*
X181873282Y-103607595D01*
X181917039Y-103926675D01*
X182022205Y-104231088D01*
X182115186Y-104405044D01*
X182379587Y-104500808D01*
X183335395Y-103545000D01*
X183694605Y-103545000D01*
X184650413Y-104500808D01*
X184914814Y-104405044D01*
X185055704Y-104115429D01*
X185137384Y-103803892D01*
X185156718Y-103482405D01*
X185112961Y-103163325D01*
X185007795Y-102858912D01*
X184914814Y-102684956D01*
X184650413Y-102589192D01*
X183694605Y-103545000D01*
X183335395Y-103545000D01*
X182379587Y-102589192D01*
X182115186Y-102684956D01*
X181974296Y-102974571D01*
X181892616Y-103286108D01*
X181873282Y-103607595D01*
X179197000Y-103607595D01*
X179197000Y-102409587D01*
X182559192Y-102409587D01*
X183515000Y-103365395D01*
X184470808Y-102409587D01*
X184375044Y-102145186D01*
X184085429Y-102004296D01*
X183773892Y-101922616D01*
X183452405Y-101903282D01*
X183133325Y-101947039D01*
X182828912Y-102052205D01*
X182654956Y-102145186D01*
X182559192Y-102409587D01*
X179197000Y-102409587D01*
X179197000Y-97588967D01*
X181880000Y-97588967D01*
X181880000Y-97911033D01*
X181942832Y-98226912D01*
X182066082Y-98524463D01*
X182245013Y-98792252D01*
X182472748Y-99019987D01*
X182740537Y-99198918D01*
X183038088Y-99322168D01*
X183353967Y-99385000D01*
X183676033Y-99385000D01*
X183991912Y-99322168D01*
X184289463Y-99198918D01*
X184557252Y-99019987D01*
X184784987Y-98792252D01*
X184963918Y-98524463D01*
X185087168Y-98226912D01*
X185150000Y-97911033D01*
X185150000Y-97588967D01*
X185087168Y-97273088D01*
X184963918Y-96975537D01*
X184784987Y-96707748D01*
X184557252Y-96480013D01*
X184289463Y-96301082D01*
X183991912Y-96177832D01*
X183676033Y-96115000D01*
X183353967Y-96115000D01*
X183038088Y-96177832D01*
X182740537Y-96301082D01*
X182472748Y-96480013D01*
X182245013Y-96707748D01*
X182066082Y-96975537D01*
X181942832Y-97273088D01*
X181880000Y-97588967D01*
X179197000Y-97588967D01*
X179197000Y-93885413D01*
X182559192Y-93885413D01*
X182654956Y-94149814D01*
X182944571Y-94290704D01*
X183256108Y-94372384D01*
X183577595Y-94391718D01*
X183896675Y-94347961D01*
X184201088Y-94242795D01*
X184375044Y-94149814D01*
X184470808Y-93885413D01*
X183515000Y-92929605D01*
X182559192Y-93885413D01*
X179197000Y-93885413D01*
X179197000Y-92812595D01*
X181873282Y-92812595D01*
X181917039Y-93131675D01*
X182022205Y-93436088D01*
X182115186Y-93610044D01*
X182379587Y-93705808D01*
X183335395Y-92750000D01*
X183694605Y-92750000D01*
X184650413Y-93705808D01*
X184914814Y-93610044D01*
X185055704Y-93320429D01*
X185137384Y-93008892D01*
X185156718Y-92687405D01*
X185112961Y-92368325D01*
X185007795Y-92063912D01*
X184914814Y-91889956D01*
X184650413Y-91794192D01*
X183694605Y-92750000D01*
X183335395Y-92750000D01*
X182379587Y-91794192D01*
X182115186Y-91889956D01*
X181974296Y-92179571D01*
X181892616Y-92491108D01*
X181873282Y-92812595D01*
X179197000Y-92812595D01*
X179197000Y-91614587D01*
X182559192Y-91614587D01*
X183515000Y-92570395D01*
X184470808Y-91614587D01*
X184375044Y-91350186D01*
X184085429Y-91209296D01*
X183773892Y-91127616D01*
X183452405Y-91108282D01*
X183133325Y-91152039D01*
X182828912Y-91257205D01*
X182654956Y-91350186D01*
X182559192Y-91614587D01*
X179197000Y-91614587D01*
X179197000Y-86793967D01*
X181880000Y-86793967D01*
X181880000Y-87116033D01*
X181942832Y-87431912D01*
X182066082Y-87729463D01*
X182245013Y-87997252D01*
X182472748Y-88224987D01*
X182740537Y-88403918D01*
X183038088Y-88527168D01*
X183353967Y-88590000D01*
X183676033Y-88590000D01*
X183991912Y-88527168D01*
X184289463Y-88403918D01*
X184557252Y-88224987D01*
X184784987Y-87997252D01*
X184963918Y-87729463D01*
X185087168Y-87431912D01*
X185150000Y-87116033D01*
X185150000Y-86793967D01*
X185087168Y-86478088D01*
X184963918Y-86180537D01*
X184784987Y-85912748D01*
X184557252Y-85685013D01*
X184289463Y-85506082D01*
X183991912Y-85382832D01*
X183676033Y-85320000D01*
X183353967Y-85320000D01*
X183038088Y-85382832D01*
X182740537Y-85506082D01*
X182472748Y-85685013D01*
X182245013Y-85912748D01*
X182066082Y-86180537D01*
X181942832Y-86478088D01*
X181880000Y-86793967D01*
X179197000Y-86793967D01*
X179197000Y-83090413D01*
X182559192Y-83090413D01*
X182654956Y-83354814D01*
X182944571Y-83495704D01*
X183256108Y-83577384D01*
X183577595Y-83596718D01*
X183896675Y-83552961D01*
X184201088Y-83447795D01*
X184375044Y-83354814D01*
X184470808Y-83090413D01*
X183515000Y-82134605D01*
X182559192Y-83090413D01*
X179197000Y-83090413D01*
X179197000Y-82017595D01*
X181873282Y-82017595D01*
X181917039Y-82336675D01*
X182022205Y-82641088D01*
X182115186Y-82815044D01*
X182379587Y-82910808D01*
X183335395Y-81955000D01*
X183694605Y-81955000D01*
X184650413Y-82910808D01*
X184914814Y-82815044D01*
X185055704Y-82525429D01*
X185137384Y-82213892D01*
X185156718Y-81892405D01*
X185112961Y-81573325D01*
X185007795Y-81268912D01*
X184914814Y-81094956D01*
X184650413Y-80999192D01*
X183694605Y-81955000D01*
X183335395Y-81955000D01*
X182379587Y-80999192D01*
X182115186Y-81094956D01*
X181974296Y-81384571D01*
X181892616Y-81696108D01*
X181873282Y-82017595D01*
X179197000Y-82017595D01*
X179197000Y-80819587D01*
X182559192Y-80819587D01*
X183515000Y-81775395D01*
X184470808Y-80819587D01*
X184375044Y-80555186D01*
X184085429Y-80414296D01*
X183773892Y-80332616D01*
X183452405Y-80313282D01*
X183133325Y-80357039D01*
X182828912Y-80462205D01*
X182654956Y-80555186D01*
X182559192Y-80819587D01*
X179197000Y-80819587D01*
X179197000Y-75998967D01*
X181880000Y-75998967D01*
X181880000Y-76321033D01*
X181942832Y-76636912D01*
X182066082Y-76934463D01*
X182245013Y-77202252D01*
X182472748Y-77429987D01*
X182740537Y-77608918D01*
X183038088Y-77732168D01*
X183353967Y-77795000D01*
X183676033Y-77795000D01*
X183991912Y-77732168D01*
X184289463Y-77608918D01*
X184557252Y-77429987D01*
X184784987Y-77202252D01*
X184963918Y-76934463D01*
X185087168Y-76636912D01*
X185150000Y-76321033D01*
X185150000Y-75998967D01*
X185087168Y-75683088D01*
X184963918Y-75385537D01*
X184784987Y-75117748D01*
X184557252Y-74890013D01*
X184289463Y-74711082D01*
X183991912Y-74587832D01*
X183676033Y-74525000D01*
X183353967Y-74525000D01*
X183038088Y-74587832D01*
X182740537Y-74711082D01*
X182472748Y-74890013D01*
X182245013Y-75117748D01*
X182066082Y-75385537D01*
X181942832Y-75683088D01*
X181880000Y-75998967D01*
X179197000Y-75998967D01*
X179197000Y-72295413D01*
X182559192Y-72295413D01*
X182654956Y-72559814D01*
X182944571Y-72700704D01*
X183256108Y-72782384D01*
X183577595Y-72801718D01*
X183896675Y-72757961D01*
X184201088Y-72652795D01*
X184375044Y-72559814D01*
X184470808Y-72295413D01*
X183515000Y-71339605D01*
X182559192Y-72295413D01*
X179197000Y-72295413D01*
X179197000Y-71222595D01*
X181873282Y-71222595D01*
X181917039Y-71541675D01*
X182022205Y-71846088D01*
X182115186Y-72020044D01*
X182379587Y-72115808D01*
X183335395Y-71160000D01*
X183694605Y-71160000D01*
X184650413Y-72115808D01*
X184914814Y-72020044D01*
X185055704Y-71730429D01*
X185137384Y-71418892D01*
X185156718Y-71097405D01*
X185112961Y-70778325D01*
X185007795Y-70473912D01*
X184914814Y-70299956D01*
X184650413Y-70204192D01*
X183694605Y-71160000D01*
X183335395Y-71160000D01*
X182379587Y-70204192D01*
X182115186Y-70299956D01*
X181974296Y-70589571D01*
X181892616Y-70901108D01*
X181873282Y-71222595D01*
X179197000Y-71222595D01*
X179197000Y-70024587D01*
X182559192Y-70024587D01*
X183515000Y-70980395D01*
X184470808Y-70024587D01*
X184375044Y-69760186D01*
X184085429Y-69619296D01*
X183773892Y-69537616D01*
X183452405Y-69518282D01*
X183133325Y-69562039D01*
X182828912Y-69667205D01*
X182654956Y-69760186D01*
X182559192Y-70024587D01*
X179197000Y-70024587D01*
X179197000Y-65203967D01*
X181880000Y-65203967D01*
X181880000Y-65526033D01*
X181942832Y-65841912D01*
X182066082Y-66139463D01*
X182245013Y-66407252D01*
X182472748Y-66634987D01*
X182740537Y-66813918D01*
X183038088Y-66937168D01*
X183353967Y-67000000D01*
X183676033Y-67000000D01*
X183991912Y-66937168D01*
X184289463Y-66813918D01*
X184557252Y-66634987D01*
X184784987Y-66407252D01*
X184963918Y-66139463D01*
X185087168Y-65841912D01*
X185150000Y-65526033D01*
X185150000Y-65203967D01*
X185087168Y-64888088D01*
X184963918Y-64590537D01*
X184784987Y-64322748D01*
X184557252Y-64095013D01*
X184289463Y-63916082D01*
X183991912Y-63792832D01*
X183676033Y-63730000D01*
X183353967Y-63730000D01*
X183038088Y-63792832D01*
X182740537Y-63916082D01*
X182472748Y-64095013D01*
X182245013Y-64322748D01*
X182066082Y-64590537D01*
X181942832Y-64888088D01*
X181880000Y-65203967D01*
X179197000Y-65203967D01*
X179197000Y-61500413D01*
X182559192Y-61500413D01*
X182654956Y-61764814D01*
X182944571Y-61905704D01*
X183256108Y-61987384D01*
X183577595Y-62006718D01*
X183896675Y-61962961D01*
X184201088Y-61857795D01*
X184375044Y-61764814D01*
X184470808Y-61500413D01*
X183515000Y-60544605D01*
X182559192Y-61500413D01*
X179197000Y-61500413D01*
X179197000Y-60427595D01*
X181873282Y-60427595D01*
X181917039Y-60746675D01*
X182022205Y-61051088D01*
X182115186Y-61225044D01*
X182379587Y-61320808D01*
X183335395Y-60365000D01*
X183694605Y-60365000D01*
X184650413Y-61320808D01*
X184914814Y-61225044D01*
X185055704Y-60935429D01*
X185137384Y-60623892D01*
X185156718Y-60302405D01*
X185112961Y-59983325D01*
X185007795Y-59678912D01*
X184914814Y-59504956D01*
X184650413Y-59409192D01*
X183694605Y-60365000D01*
X183335395Y-60365000D01*
X182379587Y-59409192D01*
X182115186Y-59504956D01*
X181974296Y-59794571D01*
X181892616Y-60106108D01*
X181873282Y-60427595D01*
X179197000Y-60427595D01*
X179197000Y-59229587D01*
X182559192Y-59229587D01*
X183515000Y-60185395D01*
X184470808Y-59229587D01*
X184375044Y-58965186D01*
X184085429Y-58824296D01*
X183773892Y-58742616D01*
X183452405Y-58723282D01*
X183133325Y-58767039D01*
X182828912Y-58872205D01*
X182654956Y-58965186D01*
X182559192Y-59229587D01*
X179197000Y-59229587D01*
X179197000Y-57660000D01*
X188967721Y-57660000D01*
X189259659Y-57688625D01*
G04 #@! TA.AperFunction,Conductor*
D21*
G36*
X189259659Y-57688625D02*
G01*
X189509429Y-57764035D01*
X189739792Y-57886522D01*
X189941980Y-58051422D01*
X190108286Y-58252450D01*
X190232378Y-58481954D01*
X190309531Y-58731195D01*
X190340000Y-59021088D01*
X190340001Y-119967711D01*
X190311375Y-120259660D01*
X190235965Y-120509429D01*
X190113477Y-120739794D01*
X189948579Y-120941979D01*
X189747546Y-121108288D01*
X189518046Y-121232378D01*
X189268805Y-121309531D01*
X188978911Y-121340000D01*
X151741731Y-121340000D01*
X151937743Y-121301011D01*
X152217095Y-121185299D01*
X152468505Y-121017312D01*
X152682312Y-120803505D01*
X152850299Y-120552095D01*
X152966011Y-120272743D01*
X153025000Y-119976184D01*
X153025000Y-119673816D01*
X152966011Y-119377257D01*
X152850299Y-119097905D01*
X152682312Y-118846495D01*
X152468505Y-118632688D01*
X152439810Y-118613514D01*
X165670000Y-118613514D01*
X165670000Y-118876486D01*
X165721304Y-119134405D01*
X165821939Y-119377359D01*
X165968038Y-119596013D01*
X166153987Y-119781962D01*
X166372641Y-119928061D01*
X166615595Y-120028696D01*
X166873514Y-120080000D01*
X167136486Y-120080000D01*
X167394405Y-120028696D01*
X167637359Y-119928061D01*
X167856013Y-119781962D01*
X168041962Y-119596013D01*
X168188061Y-119377359D01*
X168270237Y-119178967D01*
X181880000Y-119178967D01*
X181880000Y-119501033D01*
X181942832Y-119816912D01*
X182066082Y-120114463D01*
X182245013Y-120382252D01*
X182472748Y-120609987D01*
X182740537Y-120788918D01*
X183038088Y-120912168D01*
X183353967Y-120975000D01*
X183676033Y-120975000D01*
X183991912Y-120912168D01*
X184289463Y-120788918D01*
X184557252Y-120609987D01*
X184784987Y-120382252D01*
X184963918Y-120114463D01*
X185087168Y-119816912D01*
X185150000Y-119501033D01*
X185150000Y-119178967D01*
X185087168Y-118863088D01*
X184963918Y-118565537D01*
X184784987Y-118297748D01*
X184557252Y-118070013D01*
X184289463Y-117891082D01*
X183991912Y-117767832D01*
X183676033Y-117705000D01*
X183353967Y-117705000D01*
X183038088Y-117767832D01*
X182740537Y-117891082D01*
X182472748Y-118070013D01*
X182245013Y-118297748D01*
X182066082Y-118565537D01*
X181942832Y-118863088D01*
X181880000Y-119178967D01*
X168270237Y-119178967D01*
X168288696Y-119134405D01*
X168340000Y-118876486D01*
X168340000Y-118613514D01*
X168288696Y-118355595D01*
X168188061Y-118112641D01*
X168041962Y-117893987D01*
X167856013Y-117708038D01*
X167637359Y-117561939D01*
X167394405Y-117461304D01*
X167136486Y-117410000D01*
X166873514Y-117410000D01*
X166615595Y-117461304D01*
X166372641Y-117561939D01*
X166153987Y-117708038D01*
X165968038Y-117893987D01*
X165821939Y-118112641D01*
X165721304Y-118355595D01*
X165670000Y-118613514D01*
X152439810Y-118613514D01*
X152217095Y-118464701D01*
X151937743Y-118348989D01*
X151641184Y-118290000D01*
X151338816Y-118290000D01*
X151042257Y-118348989D01*
X150762905Y-118464701D01*
X150511495Y-118632688D01*
X150297688Y-118846495D01*
X150129701Y-119097905D01*
X150013989Y-119377257D01*
X149955000Y-119673816D01*
X149955000Y-119976184D01*
X150013989Y-120272743D01*
X150129701Y-120552095D01*
X150297688Y-120803505D01*
X150511495Y-121017312D01*
X150762905Y-121185299D01*
X151042257Y-121301011D01*
X151238269Y-121340000D01*
X145241731Y-121340000D01*
X145437743Y-121301011D01*
X145717095Y-121185299D01*
X145968505Y-121017312D01*
X146182312Y-120803505D01*
X146350299Y-120552095D01*
X146466011Y-120272743D01*
X146525000Y-119976184D01*
X146525000Y-119673816D01*
X146466011Y-119377257D01*
X146350299Y-119097905D01*
X146182312Y-118846495D01*
X145968505Y-118632688D01*
X145717095Y-118464701D01*
X145437743Y-118348989D01*
X145141184Y-118290000D01*
X144838816Y-118290000D01*
X144542257Y-118348989D01*
X144262905Y-118464701D01*
X144011495Y-118632688D01*
X143797688Y-118846495D01*
X143629701Y-119097905D01*
X143513989Y-119377257D01*
X143455000Y-119673816D01*
X143455000Y-119976184D01*
X143513989Y-120272743D01*
X143629701Y-120552095D01*
X143797688Y-120803505D01*
X144011495Y-121017312D01*
X144262905Y-121185299D01*
X144542257Y-121301011D01*
X144738269Y-121340000D01*
X133241731Y-121340000D01*
X133437743Y-121301011D01*
X133717095Y-121185299D01*
X133968505Y-121017312D01*
X134182312Y-120803505D01*
X134350299Y-120552095D01*
X134466011Y-120272743D01*
X134525000Y-119976184D01*
X134525000Y-119673816D01*
X134466011Y-119377257D01*
X134350299Y-119097905D01*
X134182312Y-118846495D01*
X133968505Y-118632688D01*
X133717095Y-118464701D01*
X133437743Y-118348989D01*
X133141184Y-118290000D01*
X132838816Y-118290000D01*
X132542257Y-118348989D01*
X132262905Y-118464701D01*
X132011495Y-118632688D01*
X131797688Y-118846495D01*
X131629701Y-119097905D01*
X131513989Y-119377257D01*
X131455000Y-119673816D01*
X131455000Y-119976184D01*
X131513989Y-120272743D01*
X131629701Y-120552095D01*
X131797688Y-120803505D01*
X132011495Y-121017312D01*
X132262905Y-121185299D01*
X132542257Y-121301011D01*
X132738269Y-121340000D01*
X111887000Y-121340000D01*
X111887000Y-117373061D01*
X114535000Y-117373061D01*
X114535000Y-117576939D01*
X114574774Y-117776898D01*
X114652795Y-117965256D01*
X114766063Y-118134774D01*
X114910226Y-118278937D01*
X115079744Y-118392205D01*
X115268102Y-118470226D01*
X115468061Y-118510000D01*
X115671939Y-118510000D01*
X115871898Y-118470226D01*
X116060256Y-118392205D01*
X116229774Y-118278937D01*
X116373937Y-118134774D01*
X116487205Y-117965256D01*
X116565226Y-117776898D01*
X116605000Y-117576939D01*
X116605000Y-117373061D01*
X116565226Y-117173102D01*
X116487205Y-116984744D01*
X116373937Y-116815226D01*
X116229774Y-116671063D01*
X116060256Y-116557795D01*
X115871898Y-116479774D01*
X115671939Y-116440000D01*
X115468061Y-116440000D01*
X115268102Y-116479774D01*
X115079744Y-116557795D01*
X114910226Y-116671063D01*
X114766063Y-116815226D01*
X114652795Y-116984744D01*
X114574774Y-117173102D01*
X114535000Y-117373061D01*
X111887000Y-117373061D01*
X111887000Y-116189080D01*
X132105525Y-116189080D01*
X132189208Y-116443261D01*
X132461775Y-116574158D01*
X132754642Y-116649365D01*
X133056553Y-116665991D01*
X133355907Y-116623397D01*
X133641199Y-116523222D01*
X133790792Y-116443261D01*
X133874475Y-116189080D01*
X132990000Y-115304605D01*
X132105525Y-116189080D01*
X111887000Y-116189080D01*
X111887000Y-114265967D01*
X117150000Y-114265967D01*
X117150000Y-114588033D01*
X117212832Y-114903912D01*
X117336082Y-115201463D01*
X117515013Y-115469252D01*
X117742748Y-115696987D01*
X118010537Y-115875918D01*
X118308088Y-115999168D01*
X118623967Y-116062000D01*
X118946033Y-116062000D01*
X119261912Y-115999168D01*
X119559463Y-115875918D01*
X119827252Y-115696987D01*
X119961826Y-115562413D01*
X122829192Y-115562413D01*
X122924956Y-115826814D01*
X123214571Y-115967704D01*
X123526108Y-116049384D01*
X123847595Y-116068718D01*
X124166675Y-116024961D01*
X124471088Y-115919795D01*
X124645044Y-115826814D01*
X124740808Y-115562413D01*
X123785000Y-114606605D01*
X122829192Y-115562413D01*
X119961826Y-115562413D01*
X120054987Y-115469252D01*
X120233918Y-115201463D01*
X120357168Y-114903912D01*
X120420000Y-114588033D01*
X120420000Y-114489595D01*
X122143282Y-114489595D01*
X122187039Y-114808675D01*
X122292205Y-115113088D01*
X122385186Y-115287044D01*
X122649587Y-115382808D01*
X123605395Y-114427000D01*
X123964605Y-114427000D01*
X124920413Y-115382808D01*
X125184814Y-115287044D01*
X125231267Y-115191553D01*
X131449009Y-115191553D01*
X131491603Y-115490907D01*
X131591778Y-115776199D01*
X131671739Y-115925792D01*
X131925920Y-116009475D01*
X132810395Y-115125000D01*
X133169605Y-115125000D01*
X134054080Y-116009475D01*
X134308261Y-115925792D01*
X134439158Y-115653225D01*
X134514365Y-115360358D01*
X134530991Y-115058447D01*
X134488397Y-114759093D01*
X134388222Y-114473801D01*
X134308261Y-114324208D01*
X134054080Y-114240525D01*
X133169605Y-115125000D01*
X132810395Y-115125000D01*
X131925920Y-114240525D01*
X131671739Y-114324208D01*
X131540842Y-114596775D01*
X131465635Y-114889642D01*
X131449009Y-115191553D01*
X125231267Y-115191553D01*
X125325704Y-114997429D01*
X125407384Y-114685892D01*
X125426718Y-114364405D01*
X125385100Y-114060920D01*
X132105525Y-114060920D01*
X132990000Y-114945395D01*
X133874475Y-114060920D01*
X133790792Y-113806739D01*
X133518225Y-113675842D01*
X133225358Y-113600635D01*
X132923447Y-113584009D01*
X132624093Y-113626603D01*
X132338801Y-113726778D01*
X132189208Y-113806739D01*
X132105525Y-114060920D01*
X125385100Y-114060920D01*
X125382961Y-114045325D01*
X125277795Y-113740912D01*
X125184814Y-113566956D01*
X124920413Y-113471192D01*
X123964605Y-114427000D01*
X123605395Y-114427000D01*
X122649587Y-113471192D01*
X122385186Y-113566956D01*
X122244296Y-113856571D01*
X122162616Y-114168108D01*
X122143282Y-114489595D01*
X120420000Y-114489595D01*
X120420000Y-114265967D01*
X120357168Y-113950088D01*
X120233918Y-113652537D01*
X120054987Y-113384748D01*
X119961826Y-113291587D01*
X122829192Y-113291587D01*
X123785000Y-114247395D01*
X124740808Y-113291587D01*
X124645044Y-113027186D01*
X124355429Y-112886296D01*
X124043892Y-112804616D01*
X123722405Y-112785282D01*
X123403325Y-112829039D01*
X123098912Y-112934205D01*
X122924956Y-113027186D01*
X122829192Y-113291587D01*
X119961826Y-113291587D01*
X119827252Y-113157013D01*
X119559463Y-112978082D01*
X119261912Y-112854832D01*
X118946033Y-112792000D01*
X118623967Y-112792000D01*
X118308088Y-112854832D01*
X118010537Y-112978082D01*
X117742748Y-113157013D01*
X117515013Y-113384748D01*
X117336082Y-113652537D01*
X117212832Y-113950088D01*
X117150000Y-114265967D01*
X111887000Y-114265967D01*
X111887000Y-114060015D01*
X112061898Y-114025226D01*
X112250256Y-113947205D01*
X112419774Y-113833937D01*
X112563937Y-113689774D01*
X112677205Y-113520256D01*
X112755226Y-113331898D01*
X112795000Y-113131939D01*
X112795000Y-112928061D01*
X112755226Y-112728102D01*
X112677205Y-112539744D01*
X112563937Y-112370226D01*
X112419774Y-112226063D01*
X112250256Y-112112795D01*
X112061898Y-112034774D01*
X111887000Y-111999985D01*
X111887000Y-109982000D01*
X127000000Y-109982000D01*
X127024776Y-109979560D01*
X127048601Y-109972333D01*
X127070557Y-109960597D01*
X127089803Y-109944803D01*
X127105597Y-109925557D01*
X127117333Y-109903601D01*
X127124560Y-109879776D01*
X127127000Y-109855000D01*
X127127000Y-108315000D01*
X127901928Y-108315000D01*
X127914188Y-108439482D01*
X127950498Y-108559180D01*
X128009463Y-108669494D01*
X128088815Y-108766185D01*
X128185506Y-108845537D01*
X128295820Y-108904502D01*
X128415518Y-108940812D01*
X128540000Y-108953072D01*
X129254250Y-108950000D01*
X129413000Y-108791250D01*
X129413000Y-107442000D01*
X129667000Y-107442000D01*
X129667000Y-108791250D01*
X129825750Y-108950000D01*
X130540000Y-108953072D01*
X130664482Y-108940812D01*
X130784180Y-108904502D01*
X130894494Y-108845537D01*
X130991185Y-108766185D01*
X131070537Y-108669494D01*
X131129502Y-108559180D01*
X131165812Y-108439482D01*
X131178072Y-108315000D01*
X131175000Y-107600750D01*
X131016250Y-107442000D01*
X129667000Y-107442000D01*
X129413000Y-107442000D01*
X128063750Y-107442000D01*
X127905000Y-107600750D01*
X127901928Y-108315000D01*
X127127000Y-108315000D01*
X127127000Y-106315000D01*
X127901928Y-106315000D01*
X127905000Y-107029250D01*
X128063750Y-107188000D01*
X129413000Y-107188000D01*
X129413000Y-105838750D01*
X129667000Y-105838750D01*
X129667000Y-107188000D01*
X131016250Y-107188000D01*
X131175000Y-107029250D01*
X131178072Y-106315000D01*
X131165812Y-106190518D01*
X131129502Y-106070820D01*
X131070537Y-105960506D01*
X130991185Y-105863815D01*
X130894494Y-105784463D01*
X130784180Y-105725498D01*
X130664482Y-105689188D01*
X130540000Y-105676928D01*
X129825750Y-105680000D01*
X129667000Y-105838750D01*
X129413000Y-105838750D01*
X129254250Y-105680000D01*
X128540000Y-105676928D01*
X128415518Y-105689188D01*
X128295820Y-105725498D01*
X128185506Y-105784463D01*
X128088815Y-105863815D01*
X128009463Y-105960506D01*
X127950498Y-106070820D01*
X127914188Y-106190518D01*
X127901928Y-106315000D01*
X127127000Y-106315000D01*
X127127000Y-105537000D01*
X131953000Y-105537000D01*
X131953000Y-113030000D01*
X131955440Y-113054776D01*
X131962667Y-113078601D01*
X131974403Y-113100557D01*
X131990197Y-113119803D01*
X132009443Y-113135597D01*
X132031399Y-113147333D01*
X132055224Y-113154560D01*
X132080000Y-113157000D01*
X154635836Y-113157000D01*
X154445748Y-113284013D01*
X154218013Y-113511748D01*
X154039082Y-113779537D01*
X153915832Y-114077088D01*
X153853000Y-114392967D01*
X153853000Y-114715033D01*
X153915832Y-115030912D01*
X154039082Y-115328463D01*
X154218013Y-115596252D01*
X154445748Y-115823987D01*
X154713537Y-116002918D01*
X155011088Y-116126168D01*
X155326967Y-116189000D01*
X155649033Y-116189000D01*
X155964912Y-116126168D01*
X156262463Y-116002918D01*
X156530252Y-115823987D01*
X156757987Y-115596252D01*
X156936918Y-115328463D01*
X157060168Y-115030912D01*
X157123000Y-114715033D01*
X157123000Y-114392967D01*
X157060168Y-114077088D01*
X156936918Y-113779537D01*
X156757987Y-113511748D01*
X156530252Y-113284013D01*
X156340164Y-113157000D01*
X159635836Y-113157000D01*
X159445748Y-113284013D01*
X159218013Y-113511748D01*
X159039082Y-113779537D01*
X158915832Y-114077088D01*
X158853000Y-114392967D01*
X158853000Y-114715033D01*
X158915832Y-115030912D01*
X159039082Y-115328463D01*
X159218013Y-115596252D01*
X159445748Y-115823987D01*
X159713537Y-116002918D01*
X160011088Y-116126168D01*
X160326967Y-116189000D01*
X160649033Y-116189000D01*
X160964912Y-116126168D01*
X161262463Y-116002918D01*
X161530252Y-115823987D01*
X161757987Y-115596252D01*
X161936918Y-115328463D01*
X162060168Y-115030912D01*
X162123000Y-114715033D01*
X162123000Y-114392967D01*
X162060168Y-114077088D01*
X161936918Y-113779537D01*
X161757987Y-113511748D01*
X161530252Y-113284013D01*
X161340164Y-113157000D01*
X162433000Y-113157000D01*
X162433000Y-115570000D01*
X162435440Y-115594776D01*
X162442667Y-115618601D01*
X162454403Y-115640557D01*
X162470197Y-115659803D01*
X162489443Y-115675597D01*
X162511399Y-115687333D01*
X162535224Y-115694560D01*
X162560000Y-115697000D01*
X179070000Y-115697000D01*
X179094776Y-115694560D01*
X179118601Y-115687333D01*
X179140557Y-115675597D01*
X179159803Y-115659803D01*
X179175597Y-115640557D01*
X179187333Y-115618601D01*
X179194560Y-115594776D01*
X179197000Y-115570000D01*
X179197000Y-115475413D01*
X182559192Y-115475413D01*
X182654956Y-115739814D01*
X182944571Y-115880704D01*
X183256108Y-115962384D01*
X183577595Y-115981718D01*
X183896675Y-115937961D01*
X184201088Y-115832795D01*
X184375044Y-115739814D01*
X184470808Y-115475413D01*
X183515000Y-114519605D01*
X182559192Y-115475413D01*
X179197000Y-115475413D01*
X179197000Y-114402595D01*
X181873282Y-114402595D01*
X181917039Y-114721675D01*
X182022205Y-115026088D01*
X182115186Y-115200044D01*
X182379587Y-115295808D01*
X183335395Y-114340000D01*
X183694605Y-114340000D01*
X184650413Y-115295808D01*
X184914814Y-115200044D01*
X185055704Y-114910429D01*
X185137384Y-114598892D01*
X185156718Y-114277405D01*
X185112961Y-113958325D01*
X185007795Y-113653912D01*
X184914814Y-113479956D01*
X184650413Y-113384192D01*
X183694605Y-114340000D01*
X183335395Y-114340000D01*
X182379587Y-113384192D01*
X182115186Y-113479956D01*
X181974296Y-113769571D01*
X181892616Y-114081108D01*
X181873282Y-114402595D01*
X179197000Y-114402595D01*
X179197000Y-113204587D01*
X182559192Y-113204587D01*
X183515000Y-114160395D01*
X184470808Y-113204587D01*
X184375044Y-112940186D01*
X184085429Y-112799296D01*
X183773892Y-112717616D01*
X183452405Y-112698282D01*
X183133325Y-112742039D01*
X182828912Y-112847205D01*
X182654956Y-112940186D01*
X182559192Y-113204587D01*
X179197000Y-113204587D01*
X179197000Y-108383967D01*
X181880000Y-108383967D01*
X181880000Y-108706033D01*
X181942832Y-109021912D01*
X182066082Y-109319463D01*
X182245013Y-109587252D01*
X182472748Y-109814987D01*
X182740537Y-109993918D01*
X183038088Y-110117168D01*
X183353967Y-110180000D01*
X183676033Y-110180000D01*
X183991912Y-110117168D01*
X184289463Y-109993918D01*
X184557252Y-109814987D01*
X184784987Y-109587252D01*
X184963918Y-109319463D01*
X185087168Y-109021912D01*
X185150000Y-108706033D01*
X185150000Y-108383967D01*
X185087168Y-108068088D01*
X184963918Y-107770537D01*
X184784987Y-107502748D01*
X184557252Y-107275013D01*
X184289463Y-107096082D01*
X183991912Y-106972832D01*
X183676033Y-106910000D01*
X183353967Y-106910000D01*
X183038088Y-106972832D01*
X182740537Y-107096082D01*
X182472748Y-107275013D01*
X182245013Y-107502748D01*
X182066082Y-107770537D01*
X181942832Y-108068088D01*
X181880000Y-108383967D01*
X179197000Y-108383967D01*
X179197000Y-104680413D01*
X182559192Y-104680413D01*
X182654956Y-104944814D01*
X182944571Y-105085704D01*
X183256108Y-105167384D01*
X183577595Y-105186718D01*
X183896675Y-105142961D01*
X184201088Y-105037795D01*
X184375044Y-104944814D01*
X184470808Y-104680413D01*
X183515000Y-103724605D01*
X182559192Y-104680413D01*
X179197000Y-104680413D01*
X179197000Y-103607595D01*
X181873282Y-103607595D01*
X181917039Y-103926675D01*
X182022205Y-104231088D01*
X182115186Y-104405044D01*
X182379587Y-104500808D01*
X183335395Y-103545000D01*
X183694605Y-103545000D01*
X184650413Y-104500808D01*
X184914814Y-104405044D01*
X185055704Y-104115429D01*
X185137384Y-103803892D01*
X185156718Y-103482405D01*
X185112961Y-103163325D01*
X185007795Y-102858912D01*
X184914814Y-102684956D01*
X184650413Y-102589192D01*
X183694605Y-103545000D01*
X183335395Y-103545000D01*
X182379587Y-102589192D01*
X182115186Y-102684956D01*
X181974296Y-102974571D01*
X181892616Y-103286108D01*
X181873282Y-103607595D01*
X179197000Y-103607595D01*
X179197000Y-102409587D01*
X182559192Y-102409587D01*
X183515000Y-103365395D01*
X184470808Y-102409587D01*
X184375044Y-102145186D01*
X184085429Y-102004296D01*
X183773892Y-101922616D01*
X183452405Y-101903282D01*
X183133325Y-101947039D01*
X182828912Y-102052205D01*
X182654956Y-102145186D01*
X182559192Y-102409587D01*
X179197000Y-102409587D01*
X179197000Y-97588967D01*
X181880000Y-97588967D01*
X181880000Y-97911033D01*
X181942832Y-98226912D01*
X182066082Y-98524463D01*
X182245013Y-98792252D01*
X182472748Y-99019987D01*
X182740537Y-99198918D01*
X183038088Y-99322168D01*
X183353967Y-99385000D01*
X183676033Y-99385000D01*
X183991912Y-99322168D01*
X184289463Y-99198918D01*
X184557252Y-99019987D01*
X184784987Y-98792252D01*
X184963918Y-98524463D01*
X185087168Y-98226912D01*
X185150000Y-97911033D01*
X185150000Y-97588967D01*
X185087168Y-97273088D01*
X184963918Y-96975537D01*
X184784987Y-96707748D01*
X184557252Y-96480013D01*
X184289463Y-96301082D01*
X183991912Y-96177832D01*
X183676033Y-96115000D01*
X183353967Y-96115000D01*
X183038088Y-96177832D01*
X182740537Y-96301082D01*
X182472748Y-96480013D01*
X182245013Y-96707748D01*
X182066082Y-96975537D01*
X181942832Y-97273088D01*
X181880000Y-97588967D01*
X179197000Y-97588967D01*
X179197000Y-93885413D01*
X182559192Y-93885413D01*
X182654956Y-94149814D01*
X182944571Y-94290704D01*
X183256108Y-94372384D01*
X183577595Y-94391718D01*
X183896675Y-94347961D01*
X184201088Y-94242795D01*
X184375044Y-94149814D01*
X184470808Y-93885413D01*
X183515000Y-92929605D01*
X182559192Y-93885413D01*
X179197000Y-93885413D01*
X179197000Y-92812595D01*
X181873282Y-92812595D01*
X181917039Y-93131675D01*
X182022205Y-93436088D01*
X182115186Y-93610044D01*
X182379587Y-93705808D01*
X183335395Y-92750000D01*
X183694605Y-92750000D01*
X184650413Y-93705808D01*
X184914814Y-93610044D01*
X185055704Y-93320429D01*
X185137384Y-93008892D01*
X185156718Y-92687405D01*
X185112961Y-92368325D01*
X185007795Y-92063912D01*
X184914814Y-91889956D01*
X184650413Y-91794192D01*
X183694605Y-92750000D01*
X183335395Y-92750000D01*
X182379587Y-91794192D01*
X182115186Y-91889956D01*
X181974296Y-92179571D01*
X181892616Y-92491108D01*
X181873282Y-92812595D01*
X179197000Y-92812595D01*
X179197000Y-91614587D01*
X182559192Y-91614587D01*
X183515000Y-92570395D01*
X184470808Y-91614587D01*
X184375044Y-91350186D01*
X184085429Y-91209296D01*
X183773892Y-91127616D01*
X183452405Y-91108282D01*
X183133325Y-91152039D01*
X182828912Y-91257205D01*
X182654956Y-91350186D01*
X182559192Y-91614587D01*
X179197000Y-91614587D01*
X179197000Y-86793967D01*
X181880000Y-86793967D01*
X181880000Y-87116033D01*
X181942832Y-87431912D01*
X182066082Y-87729463D01*
X182245013Y-87997252D01*
X182472748Y-88224987D01*
X182740537Y-88403918D01*
X183038088Y-88527168D01*
X183353967Y-88590000D01*
X183676033Y-88590000D01*
X183991912Y-88527168D01*
X184289463Y-88403918D01*
X184557252Y-88224987D01*
X184784987Y-87997252D01*
X184963918Y-87729463D01*
X185087168Y-87431912D01*
X185150000Y-87116033D01*
X185150000Y-86793967D01*
X185087168Y-86478088D01*
X184963918Y-86180537D01*
X184784987Y-85912748D01*
X184557252Y-85685013D01*
X184289463Y-85506082D01*
X183991912Y-85382832D01*
X183676033Y-85320000D01*
X183353967Y-85320000D01*
X183038088Y-85382832D01*
X182740537Y-85506082D01*
X182472748Y-85685013D01*
X182245013Y-85912748D01*
X182066082Y-86180537D01*
X181942832Y-86478088D01*
X181880000Y-86793967D01*
X179197000Y-86793967D01*
X179197000Y-83090413D01*
X182559192Y-83090413D01*
X182654956Y-83354814D01*
X182944571Y-83495704D01*
X183256108Y-83577384D01*
X183577595Y-83596718D01*
X183896675Y-83552961D01*
X184201088Y-83447795D01*
X184375044Y-83354814D01*
X184470808Y-83090413D01*
X183515000Y-82134605D01*
X182559192Y-83090413D01*
X179197000Y-83090413D01*
X179197000Y-82017595D01*
X181873282Y-82017595D01*
X181917039Y-82336675D01*
X182022205Y-82641088D01*
X182115186Y-82815044D01*
X182379587Y-82910808D01*
X183335395Y-81955000D01*
X183694605Y-81955000D01*
X184650413Y-82910808D01*
X184914814Y-82815044D01*
X185055704Y-82525429D01*
X185137384Y-82213892D01*
X185156718Y-81892405D01*
X185112961Y-81573325D01*
X185007795Y-81268912D01*
X184914814Y-81094956D01*
X184650413Y-80999192D01*
X183694605Y-81955000D01*
X183335395Y-81955000D01*
X182379587Y-80999192D01*
X182115186Y-81094956D01*
X181974296Y-81384571D01*
X181892616Y-81696108D01*
X181873282Y-82017595D01*
X179197000Y-82017595D01*
X179197000Y-80819587D01*
X182559192Y-80819587D01*
X183515000Y-81775395D01*
X184470808Y-80819587D01*
X184375044Y-80555186D01*
X184085429Y-80414296D01*
X183773892Y-80332616D01*
X183452405Y-80313282D01*
X183133325Y-80357039D01*
X182828912Y-80462205D01*
X182654956Y-80555186D01*
X182559192Y-80819587D01*
X179197000Y-80819587D01*
X179197000Y-75998967D01*
X181880000Y-75998967D01*
X181880000Y-76321033D01*
X181942832Y-76636912D01*
X182066082Y-76934463D01*
X182245013Y-77202252D01*
X182472748Y-77429987D01*
X182740537Y-77608918D01*
X183038088Y-77732168D01*
X183353967Y-77795000D01*
X183676033Y-77795000D01*
X183991912Y-77732168D01*
X184289463Y-77608918D01*
X184557252Y-77429987D01*
X184784987Y-77202252D01*
X184963918Y-76934463D01*
X185087168Y-76636912D01*
X185150000Y-76321033D01*
X185150000Y-75998967D01*
X185087168Y-75683088D01*
X184963918Y-75385537D01*
X184784987Y-75117748D01*
X184557252Y-74890013D01*
X184289463Y-74711082D01*
X183991912Y-74587832D01*
X183676033Y-74525000D01*
X183353967Y-74525000D01*
X183038088Y-74587832D01*
X182740537Y-74711082D01*
X182472748Y-74890013D01*
X182245013Y-75117748D01*
X182066082Y-75385537D01*
X181942832Y-75683088D01*
X181880000Y-75998967D01*
X179197000Y-75998967D01*
X179197000Y-72295413D01*
X182559192Y-72295413D01*
X182654956Y-72559814D01*
X182944571Y-72700704D01*
X183256108Y-72782384D01*
X183577595Y-72801718D01*
X183896675Y-72757961D01*
X184201088Y-72652795D01*
X184375044Y-72559814D01*
X184470808Y-72295413D01*
X183515000Y-71339605D01*
X182559192Y-72295413D01*
X179197000Y-72295413D01*
X179197000Y-71222595D01*
X181873282Y-71222595D01*
X181917039Y-71541675D01*
X182022205Y-71846088D01*
X182115186Y-72020044D01*
X182379587Y-72115808D01*
X183335395Y-71160000D01*
X183694605Y-71160000D01*
X184650413Y-72115808D01*
X184914814Y-72020044D01*
X185055704Y-71730429D01*
X185137384Y-71418892D01*
X185156718Y-71097405D01*
X185112961Y-70778325D01*
X185007795Y-70473912D01*
X184914814Y-70299956D01*
X184650413Y-70204192D01*
X183694605Y-71160000D01*
X183335395Y-71160000D01*
X182379587Y-70204192D01*
X182115186Y-70299956D01*
X181974296Y-70589571D01*
X181892616Y-70901108D01*
X181873282Y-71222595D01*
X179197000Y-71222595D01*
X179197000Y-70024587D01*
X182559192Y-70024587D01*
X183515000Y-70980395D01*
X184470808Y-70024587D01*
X184375044Y-69760186D01*
X184085429Y-69619296D01*
X183773892Y-69537616D01*
X183452405Y-69518282D01*
X183133325Y-69562039D01*
X182828912Y-69667205D01*
X182654956Y-69760186D01*
X182559192Y-70024587D01*
X179197000Y-70024587D01*
X179197000Y-65203967D01*
X181880000Y-65203967D01*
X181880000Y-65526033D01*
X181942832Y-65841912D01*
X182066082Y-66139463D01*
X182245013Y-66407252D01*
X182472748Y-66634987D01*
X182740537Y-66813918D01*
X183038088Y-66937168D01*
X183353967Y-67000000D01*
X183676033Y-67000000D01*
X183991912Y-66937168D01*
X184289463Y-66813918D01*
X184557252Y-66634987D01*
X184784987Y-66407252D01*
X184963918Y-66139463D01*
X185087168Y-65841912D01*
X185150000Y-65526033D01*
X185150000Y-65203967D01*
X185087168Y-64888088D01*
X184963918Y-64590537D01*
X184784987Y-64322748D01*
X184557252Y-64095013D01*
X184289463Y-63916082D01*
X183991912Y-63792832D01*
X183676033Y-63730000D01*
X183353967Y-63730000D01*
X183038088Y-63792832D01*
X182740537Y-63916082D01*
X182472748Y-64095013D01*
X182245013Y-64322748D01*
X182066082Y-64590537D01*
X181942832Y-64888088D01*
X181880000Y-65203967D01*
X179197000Y-65203967D01*
X179197000Y-61500413D01*
X182559192Y-61500413D01*
X182654956Y-61764814D01*
X182944571Y-61905704D01*
X183256108Y-61987384D01*
X183577595Y-62006718D01*
X183896675Y-61962961D01*
X184201088Y-61857795D01*
X184375044Y-61764814D01*
X184470808Y-61500413D01*
X183515000Y-60544605D01*
X182559192Y-61500413D01*
X179197000Y-61500413D01*
X179197000Y-60427595D01*
X181873282Y-60427595D01*
X181917039Y-60746675D01*
X182022205Y-61051088D01*
X182115186Y-61225044D01*
X182379587Y-61320808D01*
X183335395Y-60365000D01*
X183694605Y-60365000D01*
X184650413Y-61320808D01*
X184914814Y-61225044D01*
X185055704Y-60935429D01*
X185137384Y-60623892D01*
X185156718Y-60302405D01*
X185112961Y-59983325D01*
X185007795Y-59678912D01*
X184914814Y-59504956D01*
X184650413Y-59409192D01*
X183694605Y-60365000D01*
X183335395Y-60365000D01*
X182379587Y-59409192D01*
X182115186Y-59504956D01*
X181974296Y-59794571D01*
X181892616Y-60106108D01*
X181873282Y-60427595D01*
X179197000Y-60427595D01*
X179197000Y-59229587D01*
X182559192Y-59229587D01*
X183515000Y-60185395D01*
X184470808Y-59229587D01*
X184375044Y-58965186D01*
X184085429Y-58824296D01*
X183773892Y-58742616D01*
X183452405Y-58723282D01*
X183133325Y-58767039D01*
X182828912Y-58872205D01*
X182654956Y-58965186D01*
X182559192Y-59229587D01*
X179197000Y-59229587D01*
X179197000Y-57660000D01*
X188967721Y-57660000D01*
X189259659Y-57688625D01*
G37*
G04 #@! TD.AperFunction*
D20*
X110363000Y-93980000D02*
X110365440Y-94004776D01*
X110372667Y-94028601D01*
X110384403Y-94050557D01*
X110400197Y-94069803D01*
X110419443Y-94085597D01*
X110441399Y-94097333D01*
X110465224Y-94104560D01*
X110490000Y-94107000D01*
X129779985Y-94107000D01*
X129814774Y-94281898D01*
X129892795Y-94470256D01*
X130006063Y-94639774D01*
X130150226Y-94783937D01*
X130319744Y-94897205D01*
X130508102Y-94975226D01*
X130708061Y-95015000D01*
X130911939Y-95015000D01*
X131111898Y-94975226D01*
X131300256Y-94897205D01*
X131469774Y-94783937D01*
X131613937Y-94639774D01*
X131727205Y-94470256D01*
X131805226Y-94281898D01*
X131840015Y-94107000D01*
X134493000Y-94107000D01*
X134493000Y-98298000D01*
X109220000Y-98298000D01*
X109195224Y-98300440D01*
X109171399Y-98307667D01*
X109149443Y-98319403D01*
X109130197Y-98335197D01*
X109114403Y-98354443D01*
X109102667Y-98376399D01*
X109095440Y-98400224D01*
X109093000Y-98425000D01*
X109093000Y-102108000D01*
X106660000Y-102108000D01*
X106660000Y-97053061D01*
X118980000Y-97053061D01*
X118980000Y-97256939D01*
X119019774Y-97456898D01*
X119097795Y-97645256D01*
X119211063Y-97814774D01*
X119355226Y-97958937D01*
X119524744Y-98072205D01*
X119713102Y-98150226D01*
X119913061Y-98190000D01*
X120116939Y-98190000D01*
X120316898Y-98150226D01*
X120505256Y-98072205D01*
X120674774Y-97958937D01*
X120818937Y-97814774D01*
X120932205Y-97645256D01*
X121010226Y-97456898D01*
X121050000Y-97256939D01*
X121050000Y-97053061D01*
X123425000Y-97053061D01*
X123425000Y-97256939D01*
X123464774Y-97456898D01*
X123542795Y-97645256D01*
X123656063Y-97814774D01*
X123800226Y-97958937D01*
X123969744Y-98072205D01*
X124158102Y-98150226D01*
X124358061Y-98190000D01*
X124561939Y-98190000D01*
X124761898Y-98150226D01*
X124950256Y-98072205D01*
X125119774Y-97958937D01*
X125263937Y-97814774D01*
X125377205Y-97645256D01*
X125455226Y-97456898D01*
X125495000Y-97256939D01*
X125495000Y-97053061D01*
X126600000Y-97053061D01*
X126600000Y-97256939D01*
X126639774Y-97456898D01*
X126717795Y-97645256D01*
X126831063Y-97814774D01*
X126975226Y-97958937D01*
X127144744Y-98072205D01*
X127333102Y-98150226D01*
X127533061Y-98190000D01*
X127736939Y-98190000D01*
X127936898Y-98150226D01*
X128125256Y-98072205D01*
X128294774Y-97958937D01*
X128438937Y-97814774D01*
X128552205Y-97645256D01*
X128630226Y-97456898D01*
X128670000Y-97256939D01*
X128670000Y-97053061D01*
X128630226Y-96853102D01*
X128552205Y-96664744D01*
X128438937Y-96495226D01*
X128294774Y-96351063D01*
X128125256Y-96237795D01*
X127936898Y-96159774D01*
X127736939Y-96120000D01*
X127533061Y-96120000D01*
X127333102Y-96159774D01*
X127144744Y-96237795D01*
X126975226Y-96351063D01*
X126831063Y-96495226D01*
X126717795Y-96664744D01*
X126639774Y-96853102D01*
X126600000Y-97053061D01*
X125495000Y-97053061D01*
X125455226Y-96853102D01*
X125377205Y-96664744D01*
X125263937Y-96495226D01*
X125119774Y-96351063D01*
X124950256Y-96237795D01*
X124761898Y-96159774D01*
X124561939Y-96120000D01*
X124358061Y-96120000D01*
X124158102Y-96159774D01*
X123969744Y-96237795D01*
X123800226Y-96351063D01*
X123656063Y-96495226D01*
X123542795Y-96664744D01*
X123464774Y-96853102D01*
X123425000Y-97053061D01*
X121050000Y-97053061D01*
X121016961Y-96886961D01*
X121183061Y-96920000D01*
X121386939Y-96920000D01*
X121586898Y-96880226D01*
X121775256Y-96802205D01*
X121944774Y-96688937D01*
X122088937Y-96544774D01*
X122202205Y-96375256D01*
X122280226Y-96186898D01*
X122320000Y-95986939D01*
X122320000Y-95783061D01*
X122280226Y-95583102D01*
X122202205Y-95394744D01*
X122088937Y-95225226D01*
X121944774Y-95081063D01*
X121775256Y-94967795D01*
X121586898Y-94889774D01*
X121386939Y-94850000D01*
X121183061Y-94850000D01*
X120983102Y-94889774D01*
X120794744Y-94967795D01*
X120625226Y-95081063D01*
X120481063Y-95225226D01*
X120367795Y-95394744D01*
X120289774Y-95583102D01*
X120250000Y-95783061D01*
X120250000Y-95986939D01*
X120283039Y-96153039D01*
X120116939Y-96120000D01*
X119913061Y-96120000D01*
X119713102Y-96159774D01*
X119524744Y-96237795D01*
X119355226Y-96351063D01*
X119211063Y-96495226D01*
X119097795Y-96664744D01*
X119019774Y-96853102D01*
X118980000Y-97053061D01*
X106660000Y-97053061D01*
X106660000Y-86766061D01*
X107677000Y-86766061D01*
X107677000Y-86969939D01*
X107716774Y-87169898D01*
X107794795Y-87358256D01*
X107908063Y-87527774D01*
X108052226Y-87671937D01*
X108221744Y-87785205D01*
X108410102Y-87863226D01*
X108610061Y-87903000D01*
X108813939Y-87903000D01*
X109013898Y-87863226D01*
X109202256Y-87785205D01*
X109371774Y-87671937D01*
X109515937Y-87527774D01*
X109629205Y-87358256D01*
X109707226Y-87169898D01*
X109747000Y-86969939D01*
X109747000Y-86766061D01*
X109707226Y-86566102D01*
X109629205Y-86377744D01*
X109515937Y-86208226D01*
X109371774Y-86064063D01*
X109202256Y-85950795D01*
X109013898Y-85872774D01*
X108813939Y-85833000D01*
X108610061Y-85833000D01*
X108410102Y-85872774D01*
X108221744Y-85950795D01*
X108052226Y-86064063D01*
X107908063Y-86208226D01*
X107794795Y-86377744D01*
X107716774Y-86566102D01*
X107677000Y-86766061D01*
X106660000Y-86766061D01*
X106660000Y-81407000D01*
X110363000Y-81407000D01*
X110363000Y-93980000D01*
G04 #@! TA.AperFunction,Conductor*
D21*
G36*
X110363000Y-93980000D02*
G01*
X110365440Y-94004776D01*
X110372667Y-94028601D01*
X110384403Y-94050557D01*
X110400197Y-94069803D01*
X110419443Y-94085597D01*
X110441399Y-94097333D01*
X110465224Y-94104560D01*
X110490000Y-94107000D01*
X129779985Y-94107000D01*
X129814774Y-94281898D01*
X129892795Y-94470256D01*
X130006063Y-94639774D01*
X130150226Y-94783937D01*
X130319744Y-94897205D01*
X130508102Y-94975226D01*
X130708061Y-95015000D01*
X130911939Y-95015000D01*
X131111898Y-94975226D01*
X131300256Y-94897205D01*
X131469774Y-94783937D01*
X131613937Y-94639774D01*
X131727205Y-94470256D01*
X131805226Y-94281898D01*
X131840015Y-94107000D01*
X134493000Y-94107000D01*
X134493000Y-98298000D01*
X109220000Y-98298000D01*
X109195224Y-98300440D01*
X109171399Y-98307667D01*
X109149443Y-98319403D01*
X109130197Y-98335197D01*
X109114403Y-98354443D01*
X109102667Y-98376399D01*
X109095440Y-98400224D01*
X109093000Y-98425000D01*
X109093000Y-102108000D01*
X106660000Y-102108000D01*
X106660000Y-97053061D01*
X118980000Y-97053061D01*
X118980000Y-97256939D01*
X119019774Y-97456898D01*
X119097795Y-97645256D01*
X119211063Y-97814774D01*
X119355226Y-97958937D01*
X119524744Y-98072205D01*
X119713102Y-98150226D01*
X119913061Y-98190000D01*
X120116939Y-98190000D01*
X120316898Y-98150226D01*
X120505256Y-98072205D01*
X120674774Y-97958937D01*
X120818937Y-97814774D01*
X120932205Y-97645256D01*
X121010226Y-97456898D01*
X121050000Y-97256939D01*
X121050000Y-97053061D01*
X123425000Y-97053061D01*
X123425000Y-97256939D01*
X123464774Y-97456898D01*
X123542795Y-97645256D01*
X123656063Y-97814774D01*
X123800226Y-97958937D01*
X123969744Y-98072205D01*
X124158102Y-98150226D01*
X124358061Y-98190000D01*
X124561939Y-98190000D01*
X124761898Y-98150226D01*
X124950256Y-98072205D01*
X125119774Y-97958937D01*
X125263937Y-97814774D01*
X125377205Y-97645256D01*
X125455226Y-97456898D01*
X125495000Y-97256939D01*
X125495000Y-97053061D01*
X126600000Y-97053061D01*
X126600000Y-97256939D01*
X126639774Y-97456898D01*
X126717795Y-97645256D01*
X126831063Y-97814774D01*
X126975226Y-97958937D01*
X127144744Y-98072205D01*
X127333102Y-98150226D01*
X127533061Y-98190000D01*
X127736939Y-98190000D01*
X127936898Y-98150226D01*
X128125256Y-98072205D01*
X128294774Y-97958937D01*
X128438937Y-97814774D01*
X128552205Y-97645256D01*
X128630226Y-97456898D01*
X128670000Y-97256939D01*
X128670000Y-97053061D01*
X128630226Y-96853102D01*
X128552205Y-96664744D01*
X128438937Y-96495226D01*
X128294774Y-96351063D01*
X128125256Y-96237795D01*
X127936898Y-96159774D01*
X127736939Y-96120000D01*
X127533061Y-96120000D01*
X127333102Y-96159774D01*
X127144744Y-96237795D01*
X126975226Y-96351063D01*
X126831063Y-96495226D01*
X126717795Y-96664744D01*
X126639774Y-96853102D01*
X126600000Y-97053061D01*
X125495000Y-97053061D01*
X125455226Y-96853102D01*
X125377205Y-96664744D01*
X125263937Y-96495226D01*
X125119774Y-96351063D01*
X124950256Y-96237795D01*
X124761898Y-96159774D01*
X124561939Y-96120000D01*
X124358061Y-96120000D01*
X124158102Y-96159774D01*
X123969744Y-96237795D01*
X123800226Y-96351063D01*
X123656063Y-96495226D01*
X123542795Y-96664744D01*
X123464774Y-96853102D01*
X123425000Y-97053061D01*
X121050000Y-97053061D01*
X121016961Y-96886961D01*
X121183061Y-96920000D01*
X121386939Y-96920000D01*
X121586898Y-96880226D01*
X121775256Y-96802205D01*
X121944774Y-96688937D01*
X122088937Y-96544774D01*
X122202205Y-96375256D01*
X122280226Y-96186898D01*
X122320000Y-95986939D01*
X122320000Y-95783061D01*
X122280226Y-95583102D01*
X122202205Y-95394744D01*
X122088937Y-95225226D01*
X121944774Y-95081063D01*
X121775256Y-94967795D01*
X121586898Y-94889774D01*
X121386939Y-94850000D01*
X121183061Y-94850000D01*
X120983102Y-94889774D01*
X120794744Y-94967795D01*
X120625226Y-95081063D01*
X120481063Y-95225226D01*
X120367795Y-95394744D01*
X120289774Y-95583102D01*
X120250000Y-95783061D01*
X120250000Y-95986939D01*
X120283039Y-96153039D01*
X120116939Y-96120000D01*
X119913061Y-96120000D01*
X119713102Y-96159774D01*
X119524744Y-96237795D01*
X119355226Y-96351063D01*
X119211063Y-96495226D01*
X119097795Y-96664744D01*
X119019774Y-96853102D01*
X118980000Y-97053061D01*
X106660000Y-97053061D01*
X106660000Y-86766061D01*
X107677000Y-86766061D01*
X107677000Y-86969939D01*
X107716774Y-87169898D01*
X107794795Y-87358256D01*
X107908063Y-87527774D01*
X108052226Y-87671937D01*
X108221744Y-87785205D01*
X108410102Y-87863226D01*
X108610061Y-87903000D01*
X108813939Y-87903000D01*
X109013898Y-87863226D01*
X109202256Y-87785205D01*
X109371774Y-87671937D01*
X109515937Y-87527774D01*
X109629205Y-87358256D01*
X109707226Y-87169898D01*
X109747000Y-86969939D01*
X109747000Y-86766061D01*
X109707226Y-86566102D01*
X109629205Y-86377744D01*
X109515937Y-86208226D01*
X109371774Y-86064063D01*
X109202256Y-85950795D01*
X109013898Y-85872774D01*
X108813939Y-85833000D01*
X108610061Y-85833000D01*
X108410102Y-85872774D01*
X108221744Y-85950795D01*
X108052226Y-86064063D01*
X107908063Y-86208226D01*
X107794795Y-86377744D01*
X107716774Y-86566102D01*
X107677000Y-86766061D01*
X106660000Y-86766061D01*
X106660000Y-81407000D01*
X110363000Y-81407000D01*
X110363000Y-93980000D01*
G37*
G04 #@! TD.AperFunction*
D20*
X164338000Y-61274289D02*
X164296063Y-61316226D01*
X164182795Y-61485744D01*
X164104774Y-61674102D01*
X164065000Y-61874061D01*
X164065000Y-62077939D01*
X164104774Y-62277898D01*
X164182795Y-62466256D01*
X164296063Y-62635774D01*
X164338000Y-62677711D01*
X164338000Y-69402289D01*
X164296063Y-69444226D01*
X164182795Y-69613744D01*
X164104774Y-69802102D01*
X164065000Y-70002061D01*
X164065000Y-70205939D01*
X164104774Y-70405898D01*
X164182795Y-70594256D01*
X164296063Y-70763774D01*
X164338000Y-70805711D01*
X164338000Y-71942289D01*
X164296063Y-71984226D01*
X164182795Y-72153744D01*
X164104774Y-72342102D01*
X164065000Y-72542061D01*
X164065000Y-72745939D01*
X164104774Y-72945898D01*
X164182795Y-73134256D01*
X164296063Y-73303774D01*
X164338000Y-73345711D01*
X164338000Y-73525217D01*
X164258654Y-73541000D01*
X164070296Y-73619021D01*
X163900778Y-73732289D01*
X163756615Y-73876452D01*
X163643347Y-74045970D01*
X163565326Y-74234328D01*
X163525552Y-74434287D01*
X163525552Y-74638165D01*
X163565326Y-74838124D01*
X163643347Y-75026482D01*
X163756615Y-75196000D01*
X163900778Y-75340163D01*
X164070296Y-75453431D01*
X164258654Y-75531452D01*
X164338000Y-75547235D01*
X164338000Y-79562289D01*
X164296063Y-79604226D01*
X164182795Y-79773744D01*
X164104774Y-79962102D01*
X164065000Y-80162061D01*
X164065000Y-80365939D01*
X164104774Y-80565898D01*
X164182795Y-80754256D01*
X164296063Y-80923774D01*
X164338000Y-80965711D01*
X164338000Y-83118289D01*
X164296063Y-83160226D01*
X164182795Y-83329744D01*
X164104774Y-83518102D01*
X164065000Y-83718061D01*
X164065000Y-83921939D01*
X164104774Y-84121898D01*
X164182795Y-84310256D01*
X164296063Y-84479774D01*
X164338000Y-84521711D01*
X164338000Y-90738289D01*
X164296063Y-90780226D01*
X164182795Y-90949744D01*
X164104774Y-91138102D01*
X164065000Y-91338061D01*
X164065000Y-91541939D01*
X164104774Y-91741898D01*
X164182795Y-91930256D01*
X164296063Y-92099774D01*
X164338000Y-92141711D01*
X164338000Y-93278289D01*
X164296063Y-93320226D01*
X164182795Y-93489744D01*
X164104774Y-93678102D01*
X164065000Y-93878061D01*
X164065000Y-94081939D01*
X164104774Y-94281898D01*
X164182795Y-94470256D01*
X164296063Y-94639774D01*
X164338000Y-94681711D01*
X164338000Y-101533289D01*
X164296063Y-101575226D01*
X164182795Y-101744744D01*
X164104774Y-101933102D01*
X164069985Y-102108000D01*
X162757459Y-102108000D01*
X162861898Y-102087226D01*
X163050256Y-102009205D01*
X163219774Y-101895937D01*
X163363937Y-101751774D01*
X163477205Y-101582256D01*
X163555226Y-101393898D01*
X163595000Y-101193939D01*
X163595000Y-100990061D01*
X163555226Y-100790102D01*
X163477205Y-100601744D01*
X163363937Y-100432226D01*
X163219774Y-100288063D01*
X163050256Y-100174795D01*
X162861898Y-100096774D01*
X162661939Y-100057000D01*
X162458061Y-100057000D01*
X162258102Y-100096774D01*
X162069744Y-100174795D01*
X161900226Y-100288063D01*
X161756063Y-100432226D01*
X161642795Y-100601744D01*
X161564774Y-100790102D01*
X161525000Y-100990061D01*
X161525000Y-101193939D01*
X161564774Y-101393898D01*
X161642795Y-101582256D01*
X161756063Y-101751774D01*
X161900226Y-101895937D01*
X162069744Y-102009205D01*
X162258102Y-102087226D01*
X162362541Y-102108000D01*
X159073423Y-102108000D01*
X159027645Y-102077412D01*
X158632821Y-101913870D01*
X158213677Y-101830497D01*
X157786323Y-101830497D01*
X157367179Y-101913870D01*
X156972355Y-102077412D01*
X156926577Y-102108000D01*
X137555015Y-102108000D01*
X137520226Y-101933102D01*
X137442205Y-101744744D01*
X137328937Y-101575226D01*
X137184774Y-101431063D01*
X137015256Y-101317795D01*
X136826898Y-101239774D01*
X136626939Y-101200000D01*
X136423061Y-101200000D01*
X136223102Y-101239774D01*
X136034744Y-101317795D01*
X135865226Y-101431063D01*
X135721063Y-101575226D01*
X135607795Y-101744744D01*
X135529774Y-101933102D01*
X135494985Y-102108000D01*
X109982000Y-102108000D01*
X109982000Y-99187000D01*
X110854651Y-99187000D01*
X110842795Y-99204744D01*
X110764774Y-99393102D01*
X110725000Y-99593061D01*
X110725000Y-99796939D01*
X110764774Y-99996898D01*
X110842795Y-100185256D01*
X110956063Y-100354774D01*
X111100226Y-100498937D01*
X111269744Y-100612205D01*
X111458102Y-100690226D01*
X111658061Y-100730000D01*
X111861939Y-100730000D01*
X112061898Y-100690226D01*
X112250256Y-100612205D01*
X112419774Y-100498937D01*
X112563937Y-100354774D01*
X112648603Y-100228061D01*
X120250000Y-100228061D01*
X120250000Y-100431939D01*
X120289774Y-100631898D01*
X120367795Y-100820256D01*
X120481063Y-100989774D01*
X120625226Y-101133937D01*
X120794744Y-101247205D01*
X120983102Y-101325226D01*
X121183061Y-101365000D01*
X121386939Y-101365000D01*
X121586898Y-101325226D01*
X121775256Y-101247205D01*
X121944774Y-101133937D01*
X122088937Y-100989774D01*
X122202205Y-100820256D01*
X122280226Y-100631898D01*
X122320000Y-100431939D01*
X122320000Y-100228061D01*
X122280226Y-100028102D01*
X122202205Y-99839744D01*
X122088937Y-99670226D01*
X121944774Y-99526063D01*
X121775256Y-99412795D01*
X121586898Y-99334774D01*
X121386939Y-99295000D01*
X121183061Y-99295000D01*
X120983102Y-99334774D01*
X120794744Y-99412795D01*
X120625226Y-99526063D01*
X120481063Y-99670226D01*
X120367795Y-99839744D01*
X120289774Y-100028102D01*
X120250000Y-100228061D01*
X112648603Y-100228061D01*
X112677205Y-100185256D01*
X112755226Y-99996898D01*
X112795000Y-99796939D01*
X112795000Y-99593061D01*
X112755226Y-99393102D01*
X112677205Y-99204744D01*
X112665349Y-99187000D01*
X135689539Y-99187000D01*
X135656774Y-99266102D01*
X135617000Y-99466061D01*
X135617000Y-99669939D01*
X135656774Y-99869898D01*
X135734795Y-100058256D01*
X135848063Y-100227774D01*
X135992226Y-100371937D01*
X136161744Y-100485205D01*
X136350102Y-100563226D01*
X136550061Y-100603000D01*
X136753939Y-100603000D01*
X136953898Y-100563226D01*
X137142256Y-100485205D01*
X137311774Y-100371937D01*
X137455650Y-100228061D01*
X149460000Y-100228061D01*
X149460000Y-100431939D01*
X149499774Y-100631898D01*
X149577795Y-100820256D01*
X149691063Y-100989774D01*
X149835226Y-101133937D01*
X150004744Y-101247205D01*
X150193102Y-101325226D01*
X150393061Y-101365000D01*
X150596939Y-101365000D01*
X150796898Y-101325226D01*
X150985256Y-101247205D01*
X151154774Y-101133937D01*
X151298937Y-100989774D01*
X151412205Y-100820256D01*
X151490226Y-100631898D01*
X151530000Y-100431939D01*
X151530000Y-100228061D01*
X151490226Y-100028102D01*
X151412205Y-99839744D01*
X151298937Y-99670226D01*
X151154774Y-99526063D01*
X150985256Y-99412795D01*
X150796898Y-99334774D01*
X150596939Y-99295000D01*
X150393061Y-99295000D01*
X150193102Y-99334774D01*
X150004744Y-99412795D01*
X149835226Y-99526063D01*
X149691063Y-99670226D01*
X149577795Y-99839744D01*
X149499774Y-100028102D01*
X149460000Y-100228061D01*
X137455650Y-100228061D01*
X137455937Y-100227774D01*
X137569205Y-100058256D01*
X137647226Y-99869898D01*
X137687000Y-99669939D01*
X137687000Y-99466061D01*
X137647226Y-99266102D01*
X137569205Y-99077744D01*
X137455937Y-98908226D01*
X137311774Y-98764063D01*
X137142256Y-98650795D01*
X136953898Y-98572774D01*
X136753939Y-98533000D01*
X136550061Y-98533000D01*
X136350102Y-98572774D01*
X136161744Y-98650795D01*
X136017000Y-98747510D01*
X136017000Y-92710000D01*
X136014560Y-92685224D01*
X136007333Y-92661399D01*
X135995597Y-92639443D01*
X135979803Y-92620197D01*
X135960557Y-92604403D01*
X135938601Y-92592667D01*
X135914776Y-92585440D01*
X135890000Y-92583000D01*
X130570015Y-92583000D01*
X130535226Y-92408102D01*
X130457205Y-92219744D01*
X130343937Y-92050226D01*
X130199774Y-91906063D01*
X130030256Y-91792795D01*
X129841898Y-91714774D01*
X129667000Y-91679985D01*
X129667000Y-91338061D01*
X131045000Y-91338061D01*
X131045000Y-91541939D01*
X131084774Y-91741898D01*
X131162795Y-91930256D01*
X131276063Y-92099774D01*
X131420226Y-92243937D01*
X131589744Y-92357205D01*
X131778102Y-92435226D01*
X131978061Y-92475000D01*
X132181939Y-92475000D01*
X132381898Y-92435226D01*
X132570256Y-92357205D01*
X132739774Y-92243937D01*
X132883937Y-92099774D01*
X132997205Y-91930256D01*
X133075226Y-91741898D01*
X133115000Y-91541939D01*
X133115000Y-91338061D01*
X133585000Y-91338061D01*
X133585000Y-91541939D01*
X133624774Y-91741898D01*
X133702795Y-91930256D01*
X133816063Y-92099774D01*
X133960226Y-92243937D01*
X134129744Y-92357205D01*
X134318102Y-92435226D01*
X134518061Y-92475000D01*
X134721939Y-92475000D01*
X134921898Y-92435226D01*
X135110256Y-92357205D01*
X135279774Y-92243937D01*
X135423822Y-92099889D01*
X149915467Y-92099889D01*
X149915467Y-92303767D01*
X149955241Y-92503726D01*
X150033262Y-92692084D01*
X150146530Y-92861602D01*
X150290693Y-93005765D01*
X150460211Y-93119033D01*
X150648569Y-93197054D01*
X150848528Y-93236828D01*
X151052406Y-93236828D01*
X151252365Y-93197054D01*
X151440723Y-93119033D01*
X151610241Y-93005765D01*
X151754404Y-92861602D01*
X151867672Y-92692084D01*
X151902475Y-92608061D01*
X152635000Y-92608061D01*
X152635000Y-92811939D01*
X152674774Y-93011898D01*
X152752795Y-93200256D01*
X152866063Y-93369774D01*
X153010226Y-93513937D01*
X153179744Y-93627205D01*
X153368102Y-93705226D01*
X153568061Y-93745000D01*
X153771939Y-93745000D01*
X153971898Y-93705226D01*
X154160256Y-93627205D01*
X154329774Y-93513937D01*
X154473937Y-93369774D01*
X154587205Y-93200256D01*
X154665226Y-93011898D01*
X154705000Y-92811939D01*
X154705000Y-92608061D01*
X154665226Y-92408102D01*
X154587205Y-92219744D01*
X154473937Y-92050226D01*
X154329774Y-91906063D01*
X154160256Y-91792795D01*
X153971898Y-91714774D01*
X153771939Y-91675000D01*
X153568061Y-91675000D01*
X153368102Y-91714774D01*
X153179744Y-91792795D01*
X153010226Y-91906063D01*
X152866063Y-92050226D01*
X152752795Y-92219744D01*
X152674774Y-92408102D01*
X152635000Y-92608061D01*
X151902475Y-92608061D01*
X151945693Y-92503726D01*
X151985467Y-92303767D01*
X151985467Y-92099889D01*
X151945693Y-91899930D01*
X151867672Y-91711572D01*
X151754404Y-91542054D01*
X151610241Y-91397891D01*
X151440723Y-91284623D01*
X151252365Y-91206602D01*
X151052406Y-91166828D01*
X150848528Y-91166828D01*
X150648569Y-91206602D01*
X150460211Y-91284623D01*
X150290693Y-91397891D01*
X150146530Y-91542054D01*
X150033262Y-91711572D01*
X149955241Y-91899930D01*
X149915467Y-92099889D01*
X135423822Y-92099889D01*
X135423937Y-92099774D01*
X135537205Y-91930256D01*
X135615226Y-91741898D01*
X135655000Y-91541939D01*
X135655000Y-91338061D01*
X135615226Y-91138102D01*
X135537205Y-90949744D01*
X135423937Y-90780226D01*
X135318268Y-90674557D01*
X137804303Y-90674557D01*
X137804303Y-90878435D01*
X137844077Y-91078394D01*
X137922098Y-91266752D01*
X138035366Y-91436270D01*
X138179529Y-91580433D01*
X138349047Y-91693701D01*
X138537405Y-91771722D01*
X138737364Y-91811496D01*
X138941242Y-91811496D01*
X139141201Y-91771722D01*
X139329559Y-91693701D01*
X139499077Y-91580433D01*
X139643240Y-91436270D01*
X139756508Y-91266752D01*
X139834529Y-91078394D01*
X139874303Y-90878435D01*
X139874303Y-90674557D01*
X139834529Y-90474598D01*
X139756508Y-90286240D01*
X139643240Y-90116722D01*
X139499077Y-89972559D01*
X139329559Y-89859291D01*
X139141201Y-89781270D01*
X138941242Y-89741496D01*
X138737364Y-89741496D01*
X138537405Y-89781270D01*
X138349047Y-89859291D01*
X138179529Y-89972559D01*
X138035366Y-90116722D01*
X137922098Y-90286240D01*
X137844077Y-90474598D01*
X137804303Y-90674557D01*
X135318268Y-90674557D01*
X135279774Y-90636063D01*
X135110256Y-90522795D01*
X134921898Y-90444774D01*
X134721939Y-90405000D01*
X134518061Y-90405000D01*
X134318102Y-90444774D01*
X134129744Y-90522795D01*
X133960226Y-90636063D01*
X133816063Y-90780226D01*
X133702795Y-90949744D01*
X133624774Y-91138102D01*
X133585000Y-91338061D01*
X133115000Y-91338061D01*
X133075226Y-91138102D01*
X132997205Y-90949744D01*
X132883937Y-90780226D01*
X132739774Y-90636063D01*
X132570256Y-90522795D01*
X132381898Y-90444774D01*
X132181939Y-90405000D01*
X131978061Y-90405000D01*
X131778102Y-90444774D01*
X131589744Y-90522795D01*
X131420226Y-90636063D01*
X131276063Y-90780226D01*
X131162795Y-90949744D01*
X131084774Y-91138102D01*
X131045000Y-91338061D01*
X129667000Y-91338061D01*
X129667000Y-89170349D01*
X129684744Y-89182205D01*
X129873102Y-89260226D01*
X130073061Y-89300000D01*
X130276939Y-89300000D01*
X130476898Y-89260226D01*
X130665256Y-89182205D01*
X130834774Y-89068937D01*
X130978937Y-88924774D01*
X131045000Y-88825903D01*
X131045000Y-89001939D01*
X131084774Y-89201898D01*
X131162795Y-89390256D01*
X131276063Y-89559774D01*
X131420226Y-89703937D01*
X131589744Y-89817205D01*
X131778102Y-89895226D01*
X131978061Y-89935000D01*
X132181939Y-89935000D01*
X132381898Y-89895226D01*
X132570256Y-89817205D01*
X132739774Y-89703937D01*
X132883937Y-89559774D01*
X132997205Y-89390256D01*
X133075226Y-89201898D01*
X133115000Y-89001939D01*
X133115000Y-88798061D01*
X133585000Y-88798061D01*
X133585000Y-89001939D01*
X133624774Y-89201898D01*
X133702795Y-89390256D01*
X133816063Y-89559774D01*
X133960226Y-89703937D01*
X134129744Y-89817205D01*
X134318102Y-89895226D01*
X134518061Y-89935000D01*
X134721939Y-89935000D01*
X134921898Y-89895226D01*
X135110256Y-89817205D01*
X135279774Y-89703937D01*
X135423937Y-89559774D01*
X135537205Y-89390256D01*
X135615226Y-89201898D01*
X135655000Y-89001939D01*
X135655000Y-88798061D01*
X135652045Y-88783202D01*
X149324255Y-88783202D01*
X149324255Y-88987080D01*
X149364029Y-89187039D01*
X149442050Y-89375397D01*
X149555318Y-89544915D01*
X149699481Y-89689078D01*
X149868999Y-89802346D01*
X150057357Y-89880367D01*
X150257316Y-89920141D01*
X150461194Y-89920141D01*
X150661153Y-89880367D01*
X150849511Y-89802346D01*
X151019029Y-89689078D01*
X151079886Y-89628221D01*
X156005160Y-89628221D01*
X156005160Y-89832099D01*
X156044934Y-90032058D01*
X156122955Y-90220416D01*
X156236223Y-90389934D01*
X156380386Y-90534097D01*
X156549904Y-90647365D01*
X156738262Y-90725386D01*
X156938221Y-90765160D01*
X157142099Y-90765160D01*
X157342058Y-90725386D01*
X157530416Y-90647365D01*
X157541007Y-90640288D01*
X157599626Y-90728018D01*
X157743789Y-90872181D01*
X157913307Y-90985449D01*
X158101665Y-91063470D01*
X158301624Y-91103244D01*
X158505502Y-91103244D01*
X158705461Y-91063470D01*
X158893819Y-90985449D01*
X159063337Y-90872181D01*
X159207500Y-90728018D01*
X159320768Y-90558500D01*
X159398789Y-90370142D01*
X159438563Y-90170183D01*
X159438563Y-89966305D01*
X159398789Y-89766346D01*
X159320768Y-89577988D01*
X159207500Y-89408470D01*
X159063337Y-89264307D01*
X158893819Y-89151039D01*
X158705461Y-89073018D01*
X158505502Y-89033244D01*
X158301624Y-89033244D01*
X158101665Y-89073018D01*
X157913307Y-89151039D01*
X157902716Y-89158116D01*
X157844097Y-89070386D01*
X157699934Y-88926223D01*
X157530416Y-88812955D01*
X157342058Y-88734934D01*
X157142099Y-88695160D01*
X156938221Y-88695160D01*
X156738262Y-88734934D01*
X156549904Y-88812955D01*
X156380386Y-88926223D01*
X156236223Y-89070386D01*
X156122955Y-89239904D01*
X156044934Y-89428262D01*
X156005160Y-89628221D01*
X151079886Y-89628221D01*
X151163192Y-89544915D01*
X151276460Y-89375397D01*
X151354481Y-89187039D01*
X151394255Y-88987080D01*
X151394255Y-88783202D01*
X151354481Y-88583243D01*
X151276460Y-88394885D01*
X151163192Y-88225367D01*
X151019029Y-88081204D01*
X150849511Y-87967936D01*
X150661153Y-87889915D01*
X150461194Y-87850141D01*
X150257316Y-87850141D01*
X150057357Y-87889915D01*
X149868999Y-87967936D01*
X149699481Y-88081204D01*
X149555318Y-88225367D01*
X149442050Y-88394885D01*
X149364029Y-88583243D01*
X149324255Y-88783202D01*
X135652045Y-88783202D01*
X135615226Y-88598102D01*
X135537205Y-88409744D01*
X135423937Y-88240226D01*
X135279774Y-88096063D01*
X135110256Y-87982795D01*
X134921898Y-87904774D01*
X134721939Y-87865000D01*
X134518061Y-87865000D01*
X134318102Y-87904774D01*
X134129744Y-87982795D01*
X133960226Y-88096063D01*
X133816063Y-88240226D01*
X133702795Y-88409744D01*
X133624774Y-88598102D01*
X133585000Y-88798061D01*
X133115000Y-88798061D01*
X133075226Y-88598102D01*
X132997205Y-88409744D01*
X132883937Y-88240226D01*
X132739774Y-88096063D01*
X132570256Y-87982795D01*
X132381898Y-87904774D01*
X132181939Y-87865000D01*
X131978061Y-87865000D01*
X131778102Y-87904774D01*
X131589744Y-87982795D01*
X131420226Y-88096063D01*
X131276063Y-88240226D01*
X131210000Y-88339097D01*
X131210000Y-88163061D01*
X131170226Y-87963102D01*
X131092205Y-87774744D01*
X130978937Y-87605226D01*
X130834774Y-87461063D01*
X130665256Y-87347795D01*
X130476898Y-87269774D01*
X130276939Y-87230000D01*
X130073061Y-87230000D01*
X129873102Y-87269774D01*
X129684744Y-87347795D01*
X129515226Y-87461063D01*
X129371063Y-87605226D01*
X129257795Y-87774744D01*
X129179774Y-87963102D01*
X129140000Y-88163061D01*
X129140000Y-88366939D01*
X129179774Y-88566898D01*
X129257795Y-88755256D01*
X129269651Y-88773000D01*
X124587000Y-88773000D01*
X124587000Y-86258061D01*
X132569000Y-86258061D01*
X132569000Y-86461939D01*
X132608774Y-86661898D01*
X132686795Y-86850256D01*
X132800063Y-87019774D01*
X132944226Y-87163937D01*
X133113744Y-87277205D01*
X133302102Y-87355226D01*
X133502061Y-87395000D01*
X133705939Y-87395000D01*
X133905898Y-87355226D01*
X134094256Y-87277205D01*
X134263774Y-87163937D01*
X134407937Y-87019774D01*
X134521205Y-86850256D01*
X134599226Y-86661898D01*
X134639000Y-86461939D01*
X134639000Y-86258061D01*
X155810000Y-86258061D01*
X155810000Y-86461939D01*
X155849774Y-86661898D01*
X155927795Y-86850256D01*
X156041063Y-87019774D01*
X156185226Y-87163937D01*
X156354744Y-87277205D01*
X156543102Y-87355226D01*
X156743061Y-87395000D01*
X156946939Y-87395000D01*
X157146898Y-87355226D01*
X157335256Y-87277205D01*
X157504774Y-87163937D01*
X157648937Y-87019774D01*
X157762205Y-86850256D01*
X157797500Y-86765047D01*
X157832795Y-86850256D01*
X157946063Y-87019774D01*
X158090226Y-87163937D01*
X158259744Y-87277205D01*
X158448102Y-87355226D01*
X158648061Y-87395000D01*
X158851939Y-87395000D01*
X159051898Y-87355226D01*
X159240256Y-87277205D01*
X159409774Y-87163937D01*
X159553937Y-87019774D01*
X159667205Y-86850256D01*
X159745226Y-86661898D01*
X159785000Y-86461939D01*
X159785000Y-86258061D01*
X159745226Y-86058102D01*
X159667205Y-85869744D01*
X159553937Y-85700226D01*
X159409774Y-85556063D01*
X159240256Y-85442795D01*
X159051898Y-85364774D01*
X158851939Y-85325000D01*
X158648061Y-85325000D01*
X158448102Y-85364774D01*
X158259744Y-85442795D01*
X158090226Y-85556063D01*
X157946063Y-85700226D01*
X157832795Y-85869744D01*
X157797500Y-85954953D01*
X157762205Y-85869744D01*
X157648937Y-85700226D01*
X157504774Y-85556063D01*
X157335256Y-85442795D01*
X157146898Y-85364774D01*
X156946939Y-85325000D01*
X156743061Y-85325000D01*
X156543102Y-85364774D01*
X156354744Y-85442795D01*
X156185226Y-85556063D01*
X156041063Y-85700226D01*
X155927795Y-85869744D01*
X155849774Y-86058102D01*
X155810000Y-86258061D01*
X134639000Y-86258061D01*
X134599226Y-86058102D01*
X134521205Y-85869744D01*
X134407937Y-85700226D01*
X134263774Y-85556063D01*
X134094256Y-85442795D01*
X133905898Y-85364774D01*
X133705939Y-85325000D01*
X133502061Y-85325000D01*
X133302102Y-85364774D01*
X133113744Y-85442795D01*
X132944226Y-85556063D01*
X132800063Y-85700226D01*
X132686795Y-85869744D01*
X132608774Y-86058102D01*
X132569000Y-86258061D01*
X124587000Y-86258061D01*
X124587000Y-84353061D01*
X128505000Y-84353061D01*
X128505000Y-84556939D01*
X128544774Y-84756898D01*
X128622795Y-84945256D01*
X128736063Y-85114774D01*
X128880226Y-85258937D01*
X129049744Y-85372205D01*
X129238102Y-85450226D01*
X129438061Y-85490000D01*
X129641939Y-85490000D01*
X129841898Y-85450226D01*
X130030256Y-85372205D01*
X130199774Y-85258937D01*
X130343937Y-85114774D01*
X130457205Y-84945256D01*
X130535226Y-84756898D01*
X130575000Y-84556939D01*
X130575000Y-84353061D01*
X130535226Y-84153102D01*
X130457205Y-83964744D01*
X130343937Y-83795226D01*
X130266772Y-83718061D01*
X133585000Y-83718061D01*
X133585000Y-83921939D01*
X133624774Y-84121898D01*
X133702795Y-84310256D01*
X133816063Y-84479774D01*
X133960226Y-84623937D01*
X134129744Y-84737205D01*
X134318102Y-84815226D01*
X134518061Y-84855000D01*
X134721939Y-84855000D01*
X134921898Y-84815226D01*
X135110256Y-84737205D01*
X135279774Y-84623937D01*
X135423937Y-84479774D01*
X135537205Y-84310256D01*
X135615226Y-84121898D01*
X135655000Y-83921939D01*
X135655000Y-83718061D01*
X135615226Y-83518102D01*
X135537205Y-83329744D01*
X135423937Y-83160226D01*
X135279774Y-83016063D01*
X135110256Y-82902795D01*
X134921898Y-82824774D01*
X134721939Y-82785000D01*
X134518061Y-82785000D01*
X134318102Y-82824774D01*
X134129744Y-82902795D01*
X133960226Y-83016063D01*
X133816063Y-83160226D01*
X133702795Y-83329744D01*
X133624774Y-83518102D01*
X133585000Y-83718061D01*
X130266772Y-83718061D01*
X130199774Y-83651063D01*
X130030256Y-83537795D01*
X129841898Y-83459774D01*
X129641939Y-83420000D01*
X129438061Y-83420000D01*
X129238102Y-83459774D01*
X129049744Y-83537795D01*
X128880226Y-83651063D01*
X128736063Y-83795226D01*
X128622795Y-83964744D01*
X128544774Y-84153102D01*
X128505000Y-84353061D01*
X124587000Y-84353061D01*
X124587000Y-81813061D01*
X125965000Y-81813061D01*
X125965000Y-82016939D01*
X126004774Y-82216898D01*
X126082795Y-82405256D01*
X126196063Y-82574774D01*
X126340226Y-82718937D01*
X126509744Y-82832205D01*
X126698102Y-82910226D01*
X126898061Y-82950000D01*
X127101939Y-82950000D01*
X127301898Y-82910226D01*
X127490256Y-82832205D01*
X127659774Y-82718937D01*
X127803937Y-82574774D01*
X127888603Y-82448061D01*
X145015000Y-82448061D01*
X145015000Y-82651939D01*
X145054774Y-82851898D01*
X145132795Y-83040256D01*
X145229510Y-83185000D01*
X145132795Y-83329744D01*
X145054774Y-83518102D01*
X145015000Y-83718061D01*
X145015000Y-83921939D01*
X145054774Y-84121898D01*
X145132795Y-84310256D01*
X145246063Y-84479774D01*
X145390226Y-84623937D01*
X145559744Y-84737205D01*
X145748102Y-84815226D01*
X145948061Y-84855000D01*
X146151939Y-84855000D01*
X146351898Y-84815226D01*
X146540256Y-84737205D01*
X146709774Y-84623937D01*
X146853937Y-84479774D01*
X146967205Y-84310256D01*
X147045226Y-84121898D01*
X147085000Y-83921939D01*
X147085000Y-83718061D01*
X149841000Y-83718061D01*
X149841000Y-83921939D01*
X149880774Y-84121898D01*
X149958795Y-84310256D01*
X150072063Y-84479774D01*
X150216226Y-84623937D01*
X150385744Y-84737205D01*
X150574102Y-84815226D01*
X150774061Y-84855000D01*
X150977939Y-84855000D01*
X151177898Y-84815226D01*
X151366256Y-84737205D01*
X151535774Y-84623937D01*
X151679937Y-84479774D01*
X151793205Y-84310256D01*
X151871226Y-84121898D01*
X151911000Y-83921939D01*
X151911000Y-83718061D01*
X152381000Y-83718061D01*
X152381000Y-83921939D01*
X152420774Y-84121898D01*
X152498795Y-84310256D01*
X152612063Y-84479774D01*
X152756226Y-84623937D01*
X152925744Y-84737205D01*
X153114102Y-84815226D01*
X153314061Y-84855000D01*
X153517939Y-84855000D01*
X153717898Y-84815226D01*
X153906256Y-84737205D01*
X154075774Y-84623937D01*
X154219937Y-84479774D01*
X154333205Y-84310256D01*
X154411226Y-84121898D01*
X154451000Y-83921939D01*
X154451000Y-83718061D01*
X154411226Y-83518102D01*
X154333205Y-83329744D01*
X154219937Y-83160226D01*
X154075774Y-83016063D01*
X153906256Y-82902795D01*
X153717898Y-82824774D01*
X153517939Y-82785000D01*
X153314061Y-82785000D01*
X153114102Y-82824774D01*
X152925744Y-82902795D01*
X152756226Y-83016063D01*
X152612063Y-83160226D01*
X152498795Y-83329744D01*
X152420774Y-83518102D01*
X152381000Y-83718061D01*
X151911000Y-83718061D01*
X151871226Y-83518102D01*
X151793205Y-83329744D01*
X151679937Y-83160226D01*
X151535774Y-83016063D01*
X151366256Y-82902795D01*
X151177898Y-82824774D01*
X150977939Y-82785000D01*
X150774061Y-82785000D01*
X150574102Y-82824774D01*
X150385744Y-82902795D01*
X150216226Y-83016063D01*
X150072063Y-83160226D01*
X149958795Y-83329744D01*
X149880774Y-83518102D01*
X149841000Y-83718061D01*
X147085000Y-83718061D01*
X147045226Y-83518102D01*
X146967205Y-83329744D01*
X146870490Y-83185000D01*
X146967205Y-83040256D01*
X147045226Y-82851898D01*
X147085000Y-82651939D01*
X147085000Y-82448061D01*
X147045226Y-82248102D01*
X146967205Y-82059744D01*
X146853937Y-81890226D01*
X146709774Y-81746063D01*
X146540256Y-81632795D01*
X146351898Y-81554774D01*
X146151939Y-81515000D01*
X145948061Y-81515000D01*
X145748102Y-81554774D01*
X145559744Y-81632795D01*
X145390226Y-81746063D01*
X145246063Y-81890226D01*
X145132795Y-82059744D01*
X145054774Y-82248102D01*
X145015000Y-82448061D01*
X127888603Y-82448061D01*
X127917205Y-82405256D01*
X127995226Y-82216898D01*
X128035000Y-82016939D01*
X128035000Y-81813061D01*
X127995226Y-81613102D01*
X127917205Y-81424744D01*
X127803937Y-81255226D01*
X127726772Y-81178061D01*
X138665000Y-81178061D01*
X138665000Y-81381939D01*
X138704774Y-81581898D01*
X138782795Y-81770256D01*
X138896063Y-81939774D01*
X139040226Y-82083937D01*
X139209744Y-82197205D01*
X139398102Y-82275226D01*
X139598061Y-82315000D01*
X139801939Y-82315000D01*
X140001898Y-82275226D01*
X140190256Y-82197205D01*
X140359774Y-82083937D01*
X140503937Y-81939774D01*
X140617205Y-81770256D01*
X140695226Y-81581898D01*
X140735000Y-81381939D01*
X140735000Y-81178061D01*
X140695226Y-80978102D01*
X140617205Y-80789744D01*
X140503937Y-80620226D01*
X140426772Y-80543061D01*
X141840000Y-80543061D01*
X141840000Y-80746939D01*
X141879774Y-80946898D01*
X141957795Y-81135256D01*
X142071063Y-81304774D01*
X142215226Y-81448937D01*
X142384744Y-81562205D01*
X142573102Y-81640226D01*
X142773061Y-81680000D01*
X142976939Y-81680000D01*
X143176898Y-81640226D01*
X143365256Y-81562205D01*
X143534774Y-81448937D01*
X143678937Y-81304774D01*
X143792205Y-81135256D01*
X143870226Y-80946898D01*
X143910000Y-80746939D01*
X143910000Y-80543061D01*
X146920000Y-80543061D01*
X146920000Y-80746939D01*
X146959774Y-80946898D01*
X147037795Y-81135256D01*
X147151063Y-81304774D01*
X147295226Y-81448937D01*
X147464744Y-81562205D01*
X147653102Y-81640226D01*
X147853061Y-81680000D01*
X148056939Y-81680000D01*
X148256898Y-81640226D01*
X148445256Y-81562205D01*
X148614774Y-81448937D01*
X148758937Y-81304774D01*
X148872205Y-81135256D01*
X148950226Y-80946898D01*
X148990000Y-80746939D01*
X148990000Y-80543061D01*
X148950226Y-80343102D01*
X148872205Y-80154744D01*
X148758937Y-79985226D01*
X148614774Y-79841063D01*
X148445256Y-79727795D01*
X148256898Y-79649774D01*
X148056939Y-79610000D01*
X147853061Y-79610000D01*
X147653102Y-79649774D01*
X147464744Y-79727795D01*
X147295226Y-79841063D01*
X147151063Y-79985226D01*
X147037795Y-80154744D01*
X146959774Y-80343102D01*
X146920000Y-80543061D01*
X143910000Y-80543061D01*
X143876961Y-80376961D01*
X144043061Y-80410000D01*
X144246939Y-80410000D01*
X144446898Y-80370226D01*
X144635256Y-80292205D01*
X144804774Y-80178937D01*
X144948937Y-80034774D01*
X145062205Y-79865256D01*
X145140226Y-79676898D01*
X145180000Y-79476939D01*
X145180000Y-79273061D01*
X145140226Y-79073102D01*
X145062205Y-78884744D01*
X144948937Y-78715226D01*
X144804774Y-78571063D01*
X144635256Y-78457795D01*
X144446898Y-78379774D01*
X144246939Y-78340000D01*
X144043061Y-78340000D01*
X143843102Y-78379774D01*
X143654744Y-78457795D01*
X143485226Y-78571063D01*
X143341063Y-78715226D01*
X143227795Y-78884744D01*
X143149774Y-79073102D01*
X143110000Y-79273061D01*
X143110000Y-79476939D01*
X143143039Y-79643039D01*
X142976939Y-79610000D01*
X142773061Y-79610000D01*
X142573102Y-79649774D01*
X142384744Y-79727795D01*
X142215226Y-79841063D01*
X142071063Y-79985226D01*
X141957795Y-80154744D01*
X141879774Y-80343102D01*
X141840000Y-80543061D01*
X140426772Y-80543061D01*
X140359774Y-80476063D01*
X140190256Y-80362795D01*
X140001898Y-80284774D01*
X139801939Y-80245000D01*
X139598061Y-80245000D01*
X139398102Y-80284774D01*
X139209744Y-80362795D01*
X139040226Y-80476063D01*
X138896063Y-80620226D01*
X138782795Y-80789744D01*
X138704774Y-80978102D01*
X138665000Y-81178061D01*
X127726772Y-81178061D01*
X127659774Y-81111063D01*
X127490256Y-80997795D01*
X127301898Y-80919774D01*
X127101939Y-80880000D01*
X126898061Y-80880000D01*
X126698102Y-80919774D01*
X126509744Y-80997795D01*
X126340226Y-81111063D01*
X126196063Y-81255226D01*
X126082795Y-81424744D01*
X126004774Y-81613102D01*
X125965000Y-81813061D01*
X124587000Y-81813061D01*
X124587000Y-81280000D01*
X124584560Y-81255224D01*
X124577333Y-81231399D01*
X124565597Y-81209443D01*
X124549803Y-81190197D01*
X124530557Y-81174403D01*
X124508601Y-81162667D01*
X124484776Y-81155440D01*
X124460000Y-81153000D01*
X123256711Y-81153000D01*
X123214774Y-81111063D01*
X123045256Y-80997795D01*
X122856898Y-80919774D01*
X122656939Y-80880000D01*
X122453061Y-80880000D01*
X122253102Y-80919774D01*
X122064744Y-80997795D01*
X121895226Y-81111063D01*
X121853289Y-81153000D01*
X120777000Y-81153000D01*
X120777000Y-79146061D01*
X135109000Y-79146061D01*
X135109000Y-79349939D01*
X135148774Y-79549898D01*
X135226795Y-79738256D01*
X135340063Y-79907774D01*
X135484226Y-80051937D01*
X135653744Y-80165205D01*
X135842102Y-80243226D01*
X136042061Y-80283000D01*
X136245939Y-80283000D01*
X136445898Y-80243226D01*
X136634256Y-80165205D01*
X136803774Y-80051937D01*
X136947937Y-79907774D01*
X137061205Y-79738256D01*
X137139226Y-79549898D01*
X137179000Y-79349939D01*
X137179000Y-79146061D01*
X137139226Y-78946102D01*
X137061205Y-78757744D01*
X136947937Y-78588226D01*
X136803774Y-78444063D01*
X136634256Y-78330795D01*
X136445898Y-78252774D01*
X136245939Y-78213000D01*
X136042061Y-78213000D01*
X135842102Y-78252774D01*
X135653744Y-78330795D01*
X135484226Y-78444063D01*
X135340063Y-78588226D01*
X135226795Y-78757744D01*
X135148774Y-78946102D01*
X135109000Y-79146061D01*
X120777000Y-79146061D01*
X120777000Y-63286323D01*
X121830497Y-63286323D01*
X121830497Y-63713677D01*
X121913870Y-64132821D01*
X122077412Y-64527645D01*
X122314837Y-64882977D01*
X122617023Y-65185163D01*
X122972355Y-65422588D01*
X123367179Y-65586130D01*
X123786323Y-65669503D01*
X124213677Y-65669503D01*
X124632821Y-65586130D01*
X125027645Y-65422588D01*
X125382977Y-65185163D01*
X125685163Y-64882977D01*
X125922588Y-64527645D01*
X126086130Y-64132821D01*
X126169503Y-63713677D01*
X126169503Y-63286323D01*
X126169240Y-63285000D01*
X129956928Y-63285000D01*
X129956928Y-64985000D01*
X129969188Y-65109482D01*
X130005498Y-65229180D01*
X130064463Y-65339494D01*
X130143815Y-65436185D01*
X130240506Y-65515537D01*
X130350820Y-65574502D01*
X130423380Y-65596513D01*
X130291525Y-65728368D01*
X130129010Y-65971589D01*
X130017068Y-66241842D01*
X129960000Y-66528740D01*
X129960000Y-66821260D01*
X130017068Y-67108158D01*
X130129010Y-67378411D01*
X130291525Y-67621632D01*
X130498368Y-67828475D01*
X130672760Y-67945000D01*
X130498368Y-68061525D01*
X130291525Y-68268368D01*
X130129010Y-68511589D01*
X130017068Y-68781842D01*
X129960000Y-69068740D01*
X129960000Y-69361260D01*
X130017068Y-69648158D01*
X130129010Y-69918411D01*
X130291525Y-70161632D01*
X130498368Y-70368475D01*
X130672760Y-70485000D01*
X130498368Y-70601525D01*
X130291525Y-70808368D01*
X130129010Y-71051589D01*
X130017068Y-71321842D01*
X129960000Y-71608740D01*
X129960000Y-71901260D01*
X130017068Y-72188158D01*
X130129010Y-72458411D01*
X130291525Y-72701632D01*
X130498368Y-72908475D01*
X130741589Y-73070990D01*
X131011842Y-73182932D01*
X131298740Y-73240000D01*
X131591260Y-73240000D01*
X131878158Y-73182932D01*
X132148411Y-73070990D01*
X132391632Y-72908475D01*
X132598475Y-72701632D01*
X132760990Y-72458411D01*
X132872932Y-72188158D01*
X132930000Y-71901260D01*
X132930000Y-71608740D01*
X132872932Y-71321842D01*
X132760990Y-71051589D01*
X132598475Y-70808368D01*
X132391632Y-70601525D01*
X132217240Y-70485000D01*
X132369802Y-70383061D01*
X146920000Y-70383061D01*
X146920000Y-70586939D01*
X146959774Y-70786898D01*
X147037795Y-70975256D01*
X147151063Y-71144774D01*
X147295226Y-71288937D01*
X147464744Y-71402205D01*
X147653102Y-71480226D01*
X147853061Y-71520000D01*
X148056939Y-71520000D01*
X148256898Y-71480226D01*
X148445256Y-71402205D01*
X148614774Y-71288937D01*
X148758937Y-71144774D01*
X148872205Y-70975256D01*
X148950226Y-70786898D01*
X148990000Y-70586939D01*
X148990000Y-70383061D01*
X152635000Y-70383061D01*
X152635000Y-70586939D01*
X152674774Y-70786898D01*
X152752795Y-70975256D01*
X152866063Y-71144774D01*
X153010226Y-71288937D01*
X153179744Y-71402205D01*
X153368102Y-71480226D01*
X153568061Y-71520000D01*
X153771939Y-71520000D01*
X153971898Y-71480226D01*
X154160256Y-71402205D01*
X154329774Y-71288937D01*
X154473937Y-71144774D01*
X154587205Y-70975256D01*
X154665226Y-70786898D01*
X154705000Y-70586939D01*
X154705000Y-70383061D01*
X154665226Y-70183102D01*
X154587205Y-69994744D01*
X154473937Y-69825226D01*
X154329774Y-69681063D01*
X154160256Y-69567795D01*
X153971898Y-69489774D01*
X153771939Y-69450000D01*
X153568061Y-69450000D01*
X153368102Y-69489774D01*
X153179744Y-69567795D01*
X153010226Y-69681063D01*
X152866063Y-69825226D01*
X152752795Y-69994744D01*
X152674774Y-70183102D01*
X152635000Y-70383061D01*
X148990000Y-70383061D01*
X148950226Y-70183102D01*
X148872205Y-69994744D01*
X148758937Y-69825226D01*
X148614774Y-69681063D01*
X148445256Y-69567795D01*
X148256898Y-69489774D01*
X148056939Y-69450000D01*
X147853061Y-69450000D01*
X147653102Y-69489774D01*
X147464744Y-69567795D01*
X147295226Y-69681063D01*
X147151063Y-69825226D01*
X147037795Y-69994744D01*
X146959774Y-70183102D01*
X146920000Y-70383061D01*
X132369802Y-70383061D01*
X132391632Y-70368475D01*
X132598475Y-70161632D01*
X132760990Y-69918411D01*
X132872932Y-69648158D01*
X132930000Y-69361260D01*
X132930000Y-69068740D01*
X132872932Y-68781842D01*
X132760990Y-68511589D01*
X132598475Y-68268368D01*
X132391632Y-68061525D01*
X132217240Y-67945000D01*
X132391632Y-67828475D01*
X132598475Y-67621632D01*
X132760990Y-67378411D01*
X132872932Y-67108158D01*
X132930000Y-66821260D01*
X132930000Y-66573061D01*
X157715000Y-66573061D01*
X157715000Y-66776939D01*
X157754774Y-66976898D01*
X157832795Y-67165256D01*
X157946063Y-67334774D01*
X158090226Y-67478937D01*
X158259744Y-67592205D01*
X158448102Y-67670226D01*
X158648061Y-67710000D01*
X158851939Y-67710000D01*
X159051898Y-67670226D01*
X159240256Y-67592205D01*
X159409774Y-67478937D01*
X159553937Y-67334774D01*
X159667205Y-67165256D01*
X159745226Y-66976898D01*
X159785000Y-66776939D01*
X159785000Y-66573061D01*
X159745226Y-66373102D01*
X159667205Y-66184744D01*
X159553937Y-66015226D01*
X159409774Y-65871063D01*
X159240256Y-65757795D01*
X159051898Y-65679774D01*
X158851939Y-65640000D01*
X158648061Y-65640000D01*
X158448102Y-65679774D01*
X158259744Y-65757795D01*
X158090226Y-65871063D01*
X157946063Y-66015226D01*
X157832795Y-66184744D01*
X157754774Y-66373102D01*
X157715000Y-66573061D01*
X132930000Y-66573061D01*
X132930000Y-66528740D01*
X132872932Y-66241842D01*
X132760990Y-65971589D01*
X132598475Y-65728368D01*
X132466620Y-65596513D01*
X132539180Y-65574502D01*
X132649494Y-65515537D01*
X132746185Y-65436185D01*
X132825537Y-65339494D01*
X132884502Y-65229180D01*
X132920812Y-65109482D01*
X132933072Y-64985000D01*
X132933072Y-63285000D01*
X132920812Y-63160518D01*
X132884502Y-63040820D01*
X132825537Y-62930506D01*
X132746185Y-62833815D01*
X132649494Y-62754463D01*
X132539180Y-62695498D01*
X132419482Y-62659188D01*
X132295000Y-62646928D01*
X130595000Y-62646928D01*
X130470518Y-62659188D01*
X130350820Y-62695498D01*
X130240506Y-62754463D01*
X130143815Y-62833815D01*
X130064463Y-62930506D01*
X130005498Y-63040820D01*
X129969188Y-63160518D01*
X129956928Y-63285000D01*
X126169240Y-63285000D01*
X126086130Y-62867179D01*
X125922588Y-62472355D01*
X125685163Y-62117023D01*
X125382977Y-61814837D01*
X125027645Y-61577412D01*
X124632821Y-61413870D01*
X124213677Y-61330497D01*
X123786323Y-61330497D01*
X123367179Y-61413870D01*
X122972355Y-61577412D01*
X122617023Y-61814837D01*
X122314837Y-62117023D01*
X122077412Y-62472355D01*
X121913870Y-62867179D01*
X121830497Y-63286323D01*
X120777000Y-63286323D01*
X120777000Y-59588061D01*
X141205000Y-59588061D01*
X141205000Y-59791939D01*
X141244774Y-59991898D01*
X141322795Y-60180256D01*
X141436063Y-60349774D01*
X141580226Y-60493937D01*
X141749744Y-60607205D01*
X141938102Y-60685226D01*
X142138061Y-60725000D01*
X142341939Y-60725000D01*
X142541898Y-60685226D01*
X142730256Y-60607205D01*
X142899774Y-60493937D01*
X143043937Y-60349774D01*
X143157205Y-60180256D01*
X143235226Y-59991898D01*
X143275000Y-59791939D01*
X143275000Y-59588061D01*
X143235226Y-59388102D01*
X143157205Y-59199744D01*
X143043937Y-59030226D01*
X142966772Y-58953061D01*
X151365000Y-58953061D01*
X151365000Y-59156939D01*
X151404774Y-59356898D01*
X151482795Y-59545256D01*
X151596063Y-59714774D01*
X151740226Y-59858937D01*
X151909744Y-59972205D01*
X152098102Y-60050226D01*
X152298061Y-60090000D01*
X152501939Y-60090000D01*
X152701898Y-60050226D01*
X152890256Y-59972205D01*
X153059774Y-59858937D01*
X153203937Y-59714774D01*
X153317205Y-59545256D01*
X153395226Y-59356898D01*
X153435000Y-59156939D01*
X153435000Y-58953061D01*
X155175000Y-58953061D01*
X155175000Y-59156939D01*
X155214774Y-59356898D01*
X155292795Y-59545256D01*
X155406063Y-59714774D01*
X155550226Y-59858937D01*
X155719744Y-59972205D01*
X155908102Y-60050226D01*
X156108061Y-60090000D01*
X156311939Y-60090000D01*
X156511898Y-60050226D01*
X156700256Y-59972205D01*
X156869774Y-59858937D01*
X157013937Y-59714774D01*
X157127205Y-59545256D01*
X157205226Y-59356898D01*
X157245000Y-59156939D01*
X157245000Y-58953061D01*
X157205226Y-58753102D01*
X157127205Y-58564744D01*
X157013937Y-58395226D01*
X156869774Y-58251063D01*
X156700256Y-58137795D01*
X156511898Y-58059774D01*
X156311939Y-58020000D01*
X156108061Y-58020000D01*
X155908102Y-58059774D01*
X155719744Y-58137795D01*
X155550226Y-58251063D01*
X155406063Y-58395226D01*
X155292795Y-58564744D01*
X155214774Y-58753102D01*
X155175000Y-58953061D01*
X153435000Y-58953061D01*
X153395226Y-58753102D01*
X153317205Y-58564744D01*
X153203937Y-58395226D01*
X153059774Y-58251063D01*
X152890256Y-58137795D01*
X152701898Y-58059774D01*
X152501939Y-58020000D01*
X152298061Y-58020000D01*
X152098102Y-58059774D01*
X151909744Y-58137795D01*
X151740226Y-58251063D01*
X151596063Y-58395226D01*
X151482795Y-58564744D01*
X151404774Y-58753102D01*
X151365000Y-58953061D01*
X142966772Y-58953061D01*
X142899774Y-58886063D01*
X142730256Y-58772795D01*
X142541898Y-58694774D01*
X142341939Y-58655000D01*
X142138061Y-58655000D01*
X141938102Y-58694774D01*
X141749744Y-58772795D01*
X141580226Y-58886063D01*
X141436063Y-59030226D01*
X141322795Y-59199744D01*
X141244774Y-59388102D01*
X141205000Y-59588061D01*
X120777000Y-59588061D01*
X120777000Y-57660000D01*
X164338000Y-57660000D01*
X164338000Y-61274289D01*
G04 #@! TA.AperFunction,Conductor*
D21*
G36*
X164338000Y-61274289D02*
G01*
X164296063Y-61316226D01*
X164182795Y-61485744D01*
X164104774Y-61674102D01*
X164065000Y-61874061D01*
X164065000Y-62077939D01*
X164104774Y-62277898D01*
X164182795Y-62466256D01*
X164296063Y-62635774D01*
X164338000Y-62677711D01*
X164338000Y-69402289D01*
X164296063Y-69444226D01*
X164182795Y-69613744D01*
X164104774Y-69802102D01*
X164065000Y-70002061D01*
X164065000Y-70205939D01*
X164104774Y-70405898D01*
X164182795Y-70594256D01*
X164296063Y-70763774D01*
X164338000Y-70805711D01*
X164338000Y-71942289D01*
X164296063Y-71984226D01*
X164182795Y-72153744D01*
X164104774Y-72342102D01*
X164065000Y-72542061D01*
X164065000Y-72745939D01*
X164104774Y-72945898D01*
X164182795Y-73134256D01*
X164296063Y-73303774D01*
X164338000Y-73345711D01*
X164338000Y-73525217D01*
X164258654Y-73541000D01*
X164070296Y-73619021D01*
X163900778Y-73732289D01*
X163756615Y-73876452D01*
X163643347Y-74045970D01*
X163565326Y-74234328D01*
X163525552Y-74434287D01*
X163525552Y-74638165D01*
X163565326Y-74838124D01*
X163643347Y-75026482D01*
X163756615Y-75196000D01*
X163900778Y-75340163D01*
X164070296Y-75453431D01*
X164258654Y-75531452D01*
X164338000Y-75547235D01*
X164338000Y-79562289D01*
X164296063Y-79604226D01*
X164182795Y-79773744D01*
X164104774Y-79962102D01*
X164065000Y-80162061D01*
X164065000Y-80365939D01*
X164104774Y-80565898D01*
X164182795Y-80754256D01*
X164296063Y-80923774D01*
X164338000Y-80965711D01*
X164338000Y-83118289D01*
X164296063Y-83160226D01*
X164182795Y-83329744D01*
X164104774Y-83518102D01*
X164065000Y-83718061D01*
X164065000Y-83921939D01*
X164104774Y-84121898D01*
X164182795Y-84310256D01*
X164296063Y-84479774D01*
X164338000Y-84521711D01*
X164338000Y-90738289D01*
X164296063Y-90780226D01*
X164182795Y-90949744D01*
X164104774Y-91138102D01*
X164065000Y-91338061D01*
X164065000Y-91541939D01*
X164104774Y-91741898D01*
X164182795Y-91930256D01*
X164296063Y-92099774D01*
X164338000Y-92141711D01*
X164338000Y-93278289D01*
X164296063Y-93320226D01*
X164182795Y-93489744D01*
X164104774Y-93678102D01*
X164065000Y-93878061D01*
X164065000Y-94081939D01*
X164104774Y-94281898D01*
X164182795Y-94470256D01*
X164296063Y-94639774D01*
X164338000Y-94681711D01*
X164338000Y-101533289D01*
X164296063Y-101575226D01*
X164182795Y-101744744D01*
X164104774Y-101933102D01*
X164069985Y-102108000D01*
X162757459Y-102108000D01*
X162861898Y-102087226D01*
X163050256Y-102009205D01*
X163219774Y-101895937D01*
X163363937Y-101751774D01*
X163477205Y-101582256D01*
X163555226Y-101393898D01*
X163595000Y-101193939D01*
X163595000Y-100990061D01*
X163555226Y-100790102D01*
X163477205Y-100601744D01*
X163363937Y-100432226D01*
X163219774Y-100288063D01*
X163050256Y-100174795D01*
X162861898Y-100096774D01*
X162661939Y-100057000D01*
X162458061Y-100057000D01*
X162258102Y-100096774D01*
X162069744Y-100174795D01*
X161900226Y-100288063D01*
X161756063Y-100432226D01*
X161642795Y-100601744D01*
X161564774Y-100790102D01*
X161525000Y-100990061D01*
X161525000Y-101193939D01*
X161564774Y-101393898D01*
X161642795Y-101582256D01*
X161756063Y-101751774D01*
X161900226Y-101895937D01*
X162069744Y-102009205D01*
X162258102Y-102087226D01*
X162362541Y-102108000D01*
X159073423Y-102108000D01*
X159027645Y-102077412D01*
X158632821Y-101913870D01*
X158213677Y-101830497D01*
X157786323Y-101830497D01*
X157367179Y-101913870D01*
X156972355Y-102077412D01*
X156926577Y-102108000D01*
X137555015Y-102108000D01*
X137520226Y-101933102D01*
X137442205Y-101744744D01*
X137328937Y-101575226D01*
X137184774Y-101431063D01*
X137015256Y-101317795D01*
X136826898Y-101239774D01*
X136626939Y-101200000D01*
X136423061Y-101200000D01*
X136223102Y-101239774D01*
X136034744Y-101317795D01*
X135865226Y-101431063D01*
X135721063Y-101575226D01*
X135607795Y-101744744D01*
X135529774Y-101933102D01*
X135494985Y-102108000D01*
X109982000Y-102108000D01*
X109982000Y-99187000D01*
X110854651Y-99187000D01*
X110842795Y-99204744D01*
X110764774Y-99393102D01*
X110725000Y-99593061D01*
X110725000Y-99796939D01*
X110764774Y-99996898D01*
X110842795Y-100185256D01*
X110956063Y-100354774D01*
X111100226Y-100498937D01*
X111269744Y-100612205D01*
X111458102Y-100690226D01*
X111658061Y-100730000D01*
X111861939Y-100730000D01*
X112061898Y-100690226D01*
X112250256Y-100612205D01*
X112419774Y-100498937D01*
X112563937Y-100354774D01*
X112648603Y-100228061D01*
X120250000Y-100228061D01*
X120250000Y-100431939D01*
X120289774Y-100631898D01*
X120367795Y-100820256D01*
X120481063Y-100989774D01*
X120625226Y-101133937D01*
X120794744Y-101247205D01*
X120983102Y-101325226D01*
X121183061Y-101365000D01*
X121386939Y-101365000D01*
X121586898Y-101325226D01*
X121775256Y-101247205D01*
X121944774Y-101133937D01*
X122088937Y-100989774D01*
X122202205Y-100820256D01*
X122280226Y-100631898D01*
X122320000Y-100431939D01*
X122320000Y-100228061D01*
X122280226Y-100028102D01*
X122202205Y-99839744D01*
X122088937Y-99670226D01*
X121944774Y-99526063D01*
X121775256Y-99412795D01*
X121586898Y-99334774D01*
X121386939Y-99295000D01*
X121183061Y-99295000D01*
X120983102Y-99334774D01*
X120794744Y-99412795D01*
X120625226Y-99526063D01*
X120481063Y-99670226D01*
X120367795Y-99839744D01*
X120289774Y-100028102D01*
X120250000Y-100228061D01*
X112648603Y-100228061D01*
X112677205Y-100185256D01*
X112755226Y-99996898D01*
X112795000Y-99796939D01*
X112795000Y-99593061D01*
X112755226Y-99393102D01*
X112677205Y-99204744D01*
X112665349Y-99187000D01*
X135689539Y-99187000D01*
X135656774Y-99266102D01*
X135617000Y-99466061D01*
X135617000Y-99669939D01*
X135656774Y-99869898D01*
X135734795Y-100058256D01*
X135848063Y-100227774D01*
X135992226Y-100371937D01*
X136161744Y-100485205D01*
X136350102Y-100563226D01*
X136550061Y-100603000D01*
X136753939Y-100603000D01*
X136953898Y-100563226D01*
X137142256Y-100485205D01*
X137311774Y-100371937D01*
X137455650Y-100228061D01*
X149460000Y-100228061D01*
X149460000Y-100431939D01*
X149499774Y-100631898D01*
X149577795Y-100820256D01*
X149691063Y-100989774D01*
X149835226Y-101133937D01*
X150004744Y-101247205D01*
X150193102Y-101325226D01*
X150393061Y-101365000D01*
X150596939Y-101365000D01*
X150796898Y-101325226D01*
X150985256Y-101247205D01*
X151154774Y-101133937D01*
X151298937Y-100989774D01*
X151412205Y-100820256D01*
X151490226Y-100631898D01*
X151530000Y-100431939D01*
X151530000Y-100228061D01*
X151490226Y-100028102D01*
X151412205Y-99839744D01*
X151298937Y-99670226D01*
X151154774Y-99526063D01*
X150985256Y-99412795D01*
X150796898Y-99334774D01*
X150596939Y-99295000D01*
X150393061Y-99295000D01*
X150193102Y-99334774D01*
X150004744Y-99412795D01*
X149835226Y-99526063D01*
X149691063Y-99670226D01*
X149577795Y-99839744D01*
X149499774Y-100028102D01*
X149460000Y-100228061D01*
X137455650Y-100228061D01*
X137455937Y-100227774D01*
X137569205Y-100058256D01*
X137647226Y-99869898D01*
X137687000Y-99669939D01*
X137687000Y-99466061D01*
X137647226Y-99266102D01*
X137569205Y-99077744D01*
X137455937Y-98908226D01*
X137311774Y-98764063D01*
X137142256Y-98650795D01*
X136953898Y-98572774D01*
X136753939Y-98533000D01*
X136550061Y-98533000D01*
X136350102Y-98572774D01*
X136161744Y-98650795D01*
X136017000Y-98747510D01*
X136017000Y-92710000D01*
X136014560Y-92685224D01*
X136007333Y-92661399D01*
X135995597Y-92639443D01*
X135979803Y-92620197D01*
X135960557Y-92604403D01*
X135938601Y-92592667D01*
X135914776Y-92585440D01*
X135890000Y-92583000D01*
X130570015Y-92583000D01*
X130535226Y-92408102D01*
X130457205Y-92219744D01*
X130343937Y-92050226D01*
X130199774Y-91906063D01*
X130030256Y-91792795D01*
X129841898Y-91714774D01*
X129667000Y-91679985D01*
X129667000Y-91338061D01*
X131045000Y-91338061D01*
X131045000Y-91541939D01*
X131084774Y-91741898D01*
X131162795Y-91930256D01*
X131276063Y-92099774D01*
X131420226Y-92243937D01*
X131589744Y-92357205D01*
X131778102Y-92435226D01*
X131978061Y-92475000D01*
X132181939Y-92475000D01*
X132381898Y-92435226D01*
X132570256Y-92357205D01*
X132739774Y-92243937D01*
X132883937Y-92099774D01*
X132997205Y-91930256D01*
X133075226Y-91741898D01*
X133115000Y-91541939D01*
X133115000Y-91338061D01*
X133585000Y-91338061D01*
X133585000Y-91541939D01*
X133624774Y-91741898D01*
X133702795Y-91930256D01*
X133816063Y-92099774D01*
X133960226Y-92243937D01*
X134129744Y-92357205D01*
X134318102Y-92435226D01*
X134518061Y-92475000D01*
X134721939Y-92475000D01*
X134921898Y-92435226D01*
X135110256Y-92357205D01*
X135279774Y-92243937D01*
X135423822Y-92099889D01*
X149915467Y-92099889D01*
X149915467Y-92303767D01*
X149955241Y-92503726D01*
X150033262Y-92692084D01*
X150146530Y-92861602D01*
X150290693Y-93005765D01*
X150460211Y-93119033D01*
X150648569Y-93197054D01*
X150848528Y-93236828D01*
X151052406Y-93236828D01*
X151252365Y-93197054D01*
X151440723Y-93119033D01*
X151610241Y-93005765D01*
X151754404Y-92861602D01*
X151867672Y-92692084D01*
X151902475Y-92608061D01*
X152635000Y-92608061D01*
X152635000Y-92811939D01*
X152674774Y-93011898D01*
X152752795Y-93200256D01*
X152866063Y-93369774D01*
X153010226Y-93513937D01*
X153179744Y-93627205D01*
X153368102Y-93705226D01*
X153568061Y-93745000D01*
X153771939Y-93745000D01*
X153971898Y-93705226D01*
X154160256Y-93627205D01*
X154329774Y-93513937D01*
X154473937Y-93369774D01*
X154587205Y-93200256D01*
X154665226Y-93011898D01*
X154705000Y-92811939D01*
X154705000Y-92608061D01*
X154665226Y-92408102D01*
X154587205Y-92219744D01*
X154473937Y-92050226D01*
X154329774Y-91906063D01*
X154160256Y-91792795D01*
X153971898Y-91714774D01*
X153771939Y-91675000D01*
X153568061Y-91675000D01*
X153368102Y-91714774D01*
X153179744Y-91792795D01*
X153010226Y-91906063D01*
X152866063Y-92050226D01*
X152752795Y-92219744D01*
X152674774Y-92408102D01*
X152635000Y-92608061D01*
X151902475Y-92608061D01*
X151945693Y-92503726D01*
X151985467Y-92303767D01*
X151985467Y-92099889D01*
X151945693Y-91899930D01*
X151867672Y-91711572D01*
X151754404Y-91542054D01*
X151610241Y-91397891D01*
X151440723Y-91284623D01*
X151252365Y-91206602D01*
X151052406Y-91166828D01*
X150848528Y-91166828D01*
X150648569Y-91206602D01*
X150460211Y-91284623D01*
X150290693Y-91397891D01*
X150146530Y-91542054D01*
X150033262Y-91711572D01*
X149955241Y-91899930D01*
X149915467Y-92099889D01*
X135423822Y-92099889D01*
X135423937Y-92099774D01*
X135537205Y-91930256D01*
X135615226Y-91741898D01*
X135655000Y-91541939D01*
X135655000Y-91338061D01*
X135615226Y-91138102D01*
X135537205Y-90949744D01*
X135423937Y-90780226D01*
X135318268Y-90674557D01*
X137804303Y-90674557D01*
X137804303Y-90878435D01*
X137844077Y-91078394D01*
X137922098Y-91266752D01*
X138035366Y-91436270D01*
X138179529Y-91580433D01*
X138349047Y-91693701D01*
X138537405Y-91771722D01*
X138737364Y-91811496D01*
X138941242Y-91811496D01*
X139141201Y-91771722D01*
X139329559Y-91693701D01*
X139499077Y-91580433D01*
X139643240Y-91436270D01*
X139756508Y-91266752D01*
X139834529Y-91078394D01*
X139874303Y-90878435D01*
X139874303Y-90674557D01*
X139834529Y-90474598D01*
X139756508Y-90286240D01*
X139643240Y-90116722D01*
X139499077Y-89972559D01*
X139329559Y-89859291D01*
X139141201Y-89781270D01*
X138941242Y-89741496D01*
X138737364Y-89741496D01*
X138537405Y-89781270D01*
X138349047Y-89859291D01*
X138179529Y-89972559D01*
X138035366Y-90116722D01*
X137922098Y-90286240D01*
X137844077Y-90474598D01*
X137804303Y-90674557D01*
X135318268Y-90674557D01*
X135279774Y-90636063D01*
X135110256Y-90522795D01*
X134921898Y-90444774D01*
X134721939Y-90405000D01*
X134518061Y-90405000D01*
X134318102Y-90444774D01*
X134129744Y-90522795D01*
X133960226Y-90636063D01*
X133816063Y-90780226D01*
X133702795Y-90949744D01*
X133624774Y-91138102D01*
X133585000Y-91338061D01*
X133115000Y-91338061D01*
X133075226Y-91138102D01*
X132997205Y-90949744D01*
X132883937Y-90780226D01*
X132739774Y-90636063D01*
X132570256Y-90522795D01*
X132381898Y-90444774D01*
X132181939Y-90405000D01*
X131978061Y-90405000D01*
X131778102Y-90444774D01*
X131589744Y-90522795D01*
X131420226Y-90636063D01*
X131276063Y-90780226D01*
X131162795Y-90949744D01*
X131084774Y-91138102D01*
X131045000Y-91338061D01*
X129667000Y-91338061D01*
X129667000Y-89170349D01*
X129684744Y-89182205D01*
X129873102Y-89260226D01*
X130073061Y-89300000D01*
X130276939Y-89300000D01*
X130476898Y-89260226D01*
X130665256Y-89182205D01*
X130834774Y-89068937D01*
X130978937Y-88924774D01*
X131045000Y-88825903D01*
X131045000Y-89001939D01*
X131084774Y-89201898D01*
X131162795Y-89390256D01*
X131276063Y-89559774D01*
X131420226Y-89703937D01*
X131589744Y-89817205D01*
X131778102Y-89895226D01*
X131978061Y-89935000D01*
X132181939Y-89935000D01*
X132381898Y-89895226D01*
X132570256Y-89817205D01*
X132739774Y-89703937D01*
X132883937Y-89559774D01*
X132997205Y-89390256D01*
X133075226Y-89201898D01*
X133115000Y-89001939D01*
X133115000Y-88798061D01*
X133585000Y-88798061D01*
X133585000Y-89001939D01*
X133624774Y-89201898D01*
X133702795Y-89390256D01*
X133816063Y-89559774D01*
X133960226Y-89703937D01*
X134129744Y-89817205D01*
X134318102Y-89895226D01*
X134518061Y-89935000D01*
X134721939Y-89935000D01*
X134921898Y-89895226D01*
X135110256Y-89817205D01*
X135279774Y-89703937D01*
X135423937Y-89559774D01*
X135537205Y-89390256D01*
X135615226Y-89201898D01*
X135655000Y-89001939D01*
X135655000Y-88798061D01*
X135652045Y-88783202D01*
X149324255Y-88783202D01*
X149324255Y-88987080D01*
X149364029Y-89187039D01*
X149442050Y-89375397D01*
X149555318Y-89544915D01*
X149699481Y-89689078D01*
X149868999Y-89802346D01*
X150057357Y-89880367D01*
X150257316Y-89920141D01*
X150461194Y-89920141D01*
X150661153Y-89880367D01*
X150849511Y-89802346D01*
X151019029Y-89689078D01*
X151079886Y-89628221D01*
X156005160Y-89628221D01*
X156005160Y-89832099D01*
X156044934Y-90032058D01*
X156122955Y-90220416D01*
X156236223Y-90389934D01*
X156380386Y-90534097D01*
X156549904Y-90647365D01*
X156738262Y-90725386D01*
X156938221Y-90765160D01*
X157142099Y-90765160D01*
X157342058Y-90725386D01*
X157530416Y-90647365D01*
X157541007Y-90640288D01*
X157599626Y-90728018D01*
X157743789Y-90872181D01*
X157913307Y-90985449D01*
X158101665Y-91063470D01*
X158301624Y-91103244D01*
X158505502Y-91103244D01*
X158705461Y-91063470D01*
X158893819Y-90985449D01*
X159063337Y-90872181D01*
X159207500Y-90728018D01*
X159320768Y-90558500D01*
X159398789Y-90370142D01*
X159438563Y-90170183D01*
X159438563Y-89966305D01*
X159398789Y-89766346D01*
X159320768Y-89577988D01*
X159207500Y-89408470D01*
X159063337Y-89264307D01*
X158893819Y-89151039D01*
X158705461Y-89073018D01*
X158505502Y-89033244D01*
X158301624Y-89033244D01*
X158101665Y-89073018D01*
X157913307Y-89151039D01*
X157902716Y-89158116D01*
X157844097Y-89070386D01*
X157699934Y-88926223D01*
X157530416Y-88812955D01*
X157342058Y-88734934D01*
X157142099Y-88695160D01*
X156938221Y-88695160D01*
X156738262Y-88734934D01*
X156549904Y-88812955D01*
X156380386Y-88926223D01*
X156236223Y-89070386D01*
X156122955Y-89239904D01*
X156044934Y-89428262D01*
X156005160Y-89628221D01*
X151079886Y-89628221D01*
X151163192Y-89544915D01*
X151276460Y-89375397D01*
X151354481Y-89187039D01*
X151394255Y-88987080D01*
X151394255Y-88783202D01*
X151354481Y-88583243D01*
X151276460Y-88394885D01*
X151163192Y-88225367D01*
X151019029Y-88081204D01*
X150849511Y-87967936D01*
X150661153Y-87889915D01*
X150461194Y-87850141D01*
X150257316Y-87850141D01*
X150057357Y-87889915D01*
X149868999Y-87967936D01*
X149699481Y-88081204D01*
X149555318Y-88225367D01*
X149442050Y-88394885D01*
X149364029Y-88583243D01*
X149324255Y-88783202D01*
X135652045Y-88783202D01*
X135615226Y-88598102D01*
X135537205Y-88409744D01*
X135423937Y-88240226D01*
X135279774Y-88096063D01*
X135110256Y-87982795D01*
X134921898Y-87904774D01*
X134721939Y-87865000D01*
X134518061Y-87865000D01*
X134318102Y-87904774D01*
X134129744Y-87982795D01*
X133960226Y-88096063D01*
X133816063Y-88240226D01*
X133702795Y-88409744D01*
X133624774Y-88598102D01*
X133585000Y-88798061D01*
X133115000Y-88798061D01*
X133075226Y-88598102D01*
X132997205Y-88409744D01*
X132883937Y-88240226D01*
X132739774Y-88096063D01*
X132570256Y-87982795D01*
X132381898Y-87904774D01*
X132181939Y-87865000D01*
X131978061Y-87865000D01*
X131778102Y-87904774D01*
X131589744Y-87982795D01*
X131420226Y-88096063D01*
X131276063Y-88240226D01*
X131210000Y-88339097D01*
X131210000Y-88163061D01*
X131170226Y-87963102D01*
X131092205Y-87774744D01*
X130978937Y-87605226D01*
X130834774Y-87461063D01*
X130665256Y-87347795D01*
X130476898Y-87269774D01*
X130276939Y-87230000D01*
X130073061Y-87230000D01*
X129873102Y-87269774D01*
X129684744Y-87347795D01*
X129515226Y-87461063D01*
X129371063Y-87605226D01*
X129257795Y-87774744D01*
X129179774Y-87963102D01*
X129140000Y-88163061D01*
X129140000Y-88366939D01*
X129179774Y-88566898D01*
X129257795Y-88755256D01*
X129269651Y-88773000D01*
X124587000Y-88773000D01*
X124587000Y-86258061D01*
X132569000Y-86258061D01*
X132569000Y-86461939D01*
X132608774Y-86661898D01*
X132686795Y-86850256D01*
X132800063Y-87019774D01*
X132944226Y-87163937D01*
X133113744Y-87277205D01*
X133302102Y-87355226D01*
X133502061Y-87395000D01*
X133705939Y-87395000D01*
X133905898Y-87355226D01*
X134094256Y-87277205D01*
X134263774Y-87163937D01*
X134407937Y-87019774D01*
X134521205Y-86850256D01*
X134599226Y-86661898D01*
X134639000Y-86461939D01*
X134639000Y-86258061D01*
X155810000Y-86258061D01*
X155810000Y-86461939D01*
X155849774Y-86661898D01*
X155927795Y-86850256D01*
X156041063Y-87019774D01*
X156185226Y-87163937D01*
X156354744Y-87277205D01*
X156543102Y-87355226D01*
X156743061Y-87395000D01*
X156946939Y-87395000D01*
X157146898Y-87355226D01*
X157335256Y-87277205D01*
X157504774Y-87163937D01*
X157648937Y-87019774D01*
X157762205Y-86850256D01*
X157797500Y-86765047D01*
X157832795Y-86850256D01*
X157946063Y-87019774D01*
X158090226Y-87163937D01*
X158259744Y-87277205D01*
X158448102Y-87355226D01*
X158648061Y-87395000D01*
X158851939Y-87395000D01*
X159051898Y-87355226D01*
X159240256Y-87277205D01*
X159409774Y-87163937D01*
X159553937Y-87019774D01*
X159667205Y-86850256D01*
X159745226Y-86661898D01*
X159785000Y-86461939D01*
X159785000Y-86258061D01*
X159745226Y-86058102D01*
X159667205Y-85869744D01*
X159553937Y-85700226D01*
X159409774Y-85556063D01*
X159240256Y-85442795D01*
X159051898Y-85364774D01*
X158851939Y-85325000D01*
X158648061Y-85325000D01*
X158448102Y-85364774D01*
X158259744Y-85442795D01*
X158090226Y-85556063D01*
X157946063Y-85700226D01*
X157832795Y-85869744D01*
X157797500Y-85954953D01*
X157762205Y-85869744D01*
X157648937Y-85700226D01*
X157504774Y-85556063D01*
X157335256Y-85442795D01*
X157146898Y-85364774D01*
X156946939Y-85325000D01*
X156743061Y-85325000D01*
X156543102Y-85364774D01*
X156354744Y-85442795D01*
X156185226Y-85556063D01*
X156041063Y-85700226D01*
X155927795Y-85869744D01*
X155849774Y-86058102D01*
X155810000Y-86258061D01*
X134639000Y-86258061D01*
X134599226Y-86058102D01*
X134521205Y-85869744D01*
X134407937Y-85700226D01*
X134263774Y-85556063D01*
X134094256Y-85442795D01*
X133905898Y-85364774D01*
X133705939Y-85325000D01*
X133502061Y-85325000D01*
X133302102Y-85364774D01*
X133113744Y-85442795D01*
X132944226Y-85556063D01*
X132800063Y-85700226D01*
X132686795Y-85869744D01*
X132608774Y-86058102D01*
X132569000Y-86258061D01*
X124587000Y-86258061D01*
X124587000Y-84353061D01*
X128505000Y-84353061D01*
X128505000Y-84556939D01*
X128544774Y-84756898D01*
X128622795Y-84945256D01*
X128736063Y-85114774D01*
X128880226Y-85258937D01*
X129049744Y-85372205D01*
X129238102Y-85450226D01*
X129438061Y-85490000D01*
X129641939Y-85490000D01*
X129841898Y-85450226D01*
X130030256Y-85372205D01*
X130199774Y-85258937D01*
X130343937Y-85114774D01*
X130457205Y-84945256D01*
X130535226Y-84756898D01*
X130575000Y-84556939D01*
X130575000Y-84353061D01*
X130535226Y-84153102D01*
X130457205Y-83964744D01*
X130343937Y-83795226D01*
X130266772Y-83718061D01*
X133585000Y-83718061D01*
X133585000Y-83921939D01*
X133624774Y-84121898D01*
X133702795Y-84310256D01*
X133816063Y-84479774D01*
X133960226Y-84623937D01*
X134129744Y-84737205D01*
X134318102Y-84815226D01*
X134518061Y-84855000D01*
X134721939Y-84855000D01*
X134921898Y-84815226D01*
X135110256Y-84737205D01*
X135279774Y-84623937D01*
X135423937Y-84479774D01*
X135537205Y-84310256D01*
X135615226Y-84121898D01*
X135655000Y-83921939D01*
X135655000Y-83718061D01*
X135615226Y-83518102D01*
X135537205Y-83329744D01*
X135423937Y-83160226D01*
X135279774Y-83016063D01*
X135110256Y-82902795D01*
X134921898Y-82824774D01*
X134721939Y-82785000D01*
X134518061Y-82785000D01*
X134318102Y-82824774D01*
X134129744Y-82902795D01*
X133960226Y-83016063D01*
X133816063Y-83160226D01*
X133702795Y-83329744D01*
X133624774Y-83518102D01*
X133585000Y-83718061D01*
X130266772Y-83718061D01*
X130199774Y-83651063D01*
X130030256Y-83537795D01*
X129841898Y-83459774D01*
X129641939Y-83420000D01*
X129438061Y-83420000D01*
X129238102Y-83459774D01*
X129049744Y-83537795D01*
X128880226Y-83651063D01*
X128736063Y-83795226D01*
X128622795Y-83964744D01*
X128544774Y-84153102D01*
X128505000Y-84353061D01*
X124587000Y-84353061D01*
X124587000Y-81813061D01*
X125965000Y-81813061D01*
X125965000Y-82016939D01*
X126004774Y-82216898D01*
X126082795Y-82405256D01*
X126196063Y-82574774D01*
X126340226Y-82718937D01*
X126509744Y-82832205D01*
X126698102Y-82910226D01*
X126898061Y-82950000D01*
X127101939Y-82950000D01*
X127301898Y-82910226D01*
X127490256Y-82832205D01*
X127659774Y-82718937D01*
X127803937Y-82574774D01*
X127888603Y-82448061D01*
X145015000Y-82448061D01*
X145015000Y-82651939D01*
X145054774Y-82851898D01*
X145132795Y-83040256D01*
X145229510Y-83185000D01*
X145132795Y-83329744D01*
X145054774Y-83518102D01*
X145015000Y-83718061D01*
X145015000Y-83921939D01*
X145054774Y-84121898D01*
X145132795Y-84310256D01*
X145246063Y-84479774D01*
X145390226Y-84623937D01*
X145559744Y-84737205D01*
X145748102Y-84815226D01*
X145948061Y-84855000D01*
X146151939Y-84855000D01*
X146351898Y-84815226D01*
X146540256Y-84737205D01*
X146709774Y-84623937D01*
X146853937Y-84479774D01*
X146967205Y-84310256D01*
X147045226Y-84121898D01*
X147085000Y-83921939D01*
X147085000Y-83718061D01*
X149841000Y-83718061D01*
X149841000Y-83921939D01*
X149880774Y-84121898D01*
X149958795Y-84310256D01*
X150072063Y-84479774D01*
X150216226Y-84623937D01*
X150385744Y-84737205D01*
X150574102Y-84815226D01*
X150774061Y-84855000D01*
X150977939Y-84855000D01*
X151177898Y-84815226D01*
X151366256Y-84737205D01*
X151535774Y-84623937D01*
X151679937Y-84479774D01*
X151793205Y-84310256D01*
X151871226Y-84121898D01*
X151911000Y-83921939D01*
X151911000Y-83718061D01*
X152381000Y-83718061D01*
X152381000Y-83921939D01*
X152420774Y-84121898D01*
X152498795Y-84310256D01*
X152612063Y-84479774D01*
X152756226Y-84623937D01*
X152925744Y-84737205D01*
X153114102Y-84815226D01*
X153314061Y-84855000D01*
X153517939Y-84855000D01*
X153717898Y-84815226D01*
X153906256Y-84737205D01*
X154075774Y-84623937D01*
X154219937Y-84479774D01*
X154333205Y-84310256D01*
X154411226Y-84121898D01*
X154451000Y-83921939D01*
X154451000Y-83718061D01*
X154411226Y-83518102D01*
X154333205Y-83329744D01*
X154219937Y-83160226D01*
X154075774Y-83016063D01*
X153906256Y-82902795D01*
X153717898Y-82824774D01*
X153517939Y-82785000D01*
X153314061Y-82785000D01*
X153114102Y-82824774D01*
X152925744Y-82902795D01*
X152756226Y-83016063D01*
X152612063Y-83160226D01*
X152498795Y-83329744D01*
X152420774Y-83518102D01*
X152381000Y-83718061D01*
X151911000Y-83718061D01*
X151871226Y-83518102D01*
X151793205Y-83329744D01*
X151679937Y-83160226D01*
X151535774Y-83016063D01*
X151366256Y-82902795D01*
X151177898Y-82824774D01*
X150977939Y-82785000D01*
X150774061Y-82785000D01*
X150574102Y-82824774D01*
X150385744Y-82902795D01*
X150216226Y-83016063D01*
X150072063Y-83160226D01*
X149958795Y-83329744D01*
X149880774Y-83518102D01*
X149841000Y-83718061D01*
X147085000Y-83718061D01*
X147045226Y-83518102D01*
X146967205Y-83329744D01*
X146870490Y-83185000D01*
X146967205Y-83040256D01*
X147045226Y-82851898D01*
X147085000Y-82651939D01*
X147085000Y-82448061D01*
X147045226Y-82248102D01*
X146967205Y-82059744D01*
X146853937Y-81890226D01*
X146709774Y-81746063D01*
X146540256Y-81632795D01*
X146351898Y-81554774D01*
X146151939Y-81515000D01*
X145948061Y-81515000D01*
X145748102Y-81554774D01*
X145559744Y-81632795D01*
X145390226Y-81746063D01*
X145246063Y-81890226D01*
X145132795Y-82059744D01*
X145054774Y-82248102D01*
X145015000Y-82448061D01*
X127888603Y-82448061D01*
X127917205Y-82405256D01*
X127995226Y-82216898D01*
X128035000Y-82016939D01*
X128035000Y-81813061D01*
X127995226Y-81613102D01*
X127917205Y-81424744D01*
X127803937Y-81255226D01*
X127726772Y-81178061D01*
X138665000Y-81178061D01*
X138665000Y-81381939D01*
X138704774Y-81581898D01*
X138782795Y-81770256D01*
X138896063Y-81939774D01*
X139040226Y-82083937D01*
X139209744Y-82197205D01*
X139398102Y-82275226D01*
X139598061Y-82315000D01*
X139801939Y-82315000D01*
X140001898Y-82275226D01*
X140190256Y-82197205D01*
X140359774Y-82083937D01*
X140503937Y-81939774D01*
X140617205Y-81770256D01*
X140695226Y-81581898D01*
X140735000Y-81381939D01*
X140735000Y-81178061D01*
X140695226Y-80978102D01*
X140617205Y-80789744D01*
X140503937Y-80620226D01*
X140426772Y-80543061D01*
X141840000Y-80543061D01*
X141840000Y-80746939D01*
X141879774Y-80946898D01*
X141957795Y-81135256D01*
X142071063Y-81304774D01*
X142215226Y-81448937D01*
X142384744Y-81562205D01*
X142573102Y-81640226D01*
X142773061Y-81680000D01*
X142976939Y-81680000D01*
X143176898Y-81640226D01*
X143365256Y-81562205D01*
X143534774Y-81448937D01*
X143678937Y-81304774D01*
X143792205Y-81135256D01*
X143870226Y-80946898D01*
X143910000Y-80746939D01*
X143910000Y-80543061D01*
X146920000Y-80543061D01*
X146920000Y-80746939D01*
X146959774Y-80946898D01*
X147037795Y-81135256D01*
X147151063Y-81304774D01*
X147295226Y-81448937D01*
X147464744Y-81562205D01*
X147653102Y-81640226D01*
X147853061Y-81680000D01*
X148056939Y-81680000D01*
X148256898Y-81640226D01*
X148445256Y-81562205D01*
X148614774Y-81448937D01*
X148758937Y-81304774D01*
X148872205Y-81135256D01*
X148950226Y-80946898D01*
X148990000Y-80746939D01*
X148990000Y-80543061D01*
X148950226Y-80343102D01*
X148872205Y-80154744D01*
X148758937Y-79985226D01*
X148614774Y-79841063D01*
X148445256Y-79727795D01*
X148256898Y-79649774D01*
X148056939Y-79610000D01*
X147853061Y-79610000D01*
X147653102Y-79649774D01*
X147464744Y-79727795D01*
X147295226Y-79841063D01*
X147151063Y-79985226D01*
X147037795Y-80154744D01*
X146959774Y-80343102D01*
X146920000Y-80543061D01*
X143910000Y-80543061D01*
X143876961Y-80376961D01*
X144043061Y-80410000D01*
X144246939Y-80410000D01*
X144446898Y-80370226D01*
X144635256Y-80292205D01*
X144804774Y-80178937D01*
X144948937Y-80034774D01*
X145062205Y-79865256D01*
X145140226Y-79676898D01*
X145180000Y-79476939D01*
X145180000Y-79273061D01*
X145140226Y-79073102D01*
X145062205Y-78884744D01*
X144948937Y-78715226D01*
X144804774Y-78571063D01*
X144635256Y-78457795D01*
X144446898Y-78379774D01*
X144246939Y-78340000D01*
X144043061Y-78340000D01*
X143843102Y-78379774D01*
X143654744Y-78457795D01*
X143485226Y-78571063D01*
X143341063Y-78715226D01*
X143227795Y-78884744D01*
X143149774Y-79073102D01*
X143110000Y-79273061D01*
X143110000Y-79476939D01*
X143143039Y-79643039D01*
X142976939Y-79610000D01*
X142773061Y-79610000D01*
X142573102Y-79649774D01*
X142384744Y-79727795D01*
X142215226Y-79841063D01*
X142071063Y-79985226D01*
X141957795Y-80154744D01*
X141879774Y-80343102D01*
X141840000Y-80543061D01*
X140426772Y-80543061D01*
X140359774Y-80476063D01*
X140190256Y-80362795D01*
X140001898Y-80284774D01*
X139801939Y-80245000D01*
X139598061Y-80245000D01*
X139398102Y-80284774D01*
X139209744Y-80362795D01*
X139040226Y-80476063D01*
X138896063Y-80620226D01*
X138782795Y-80789744D01*
X138704774Y-80978102D01*
X138665000Y-81178061D01*
X127726772Y-81178061D01*
X127659774Y-81111063D01*
X127490256Y-80997795D01*
X127301898Y-80919774D01*
X127101939Y-80880000D01*
X126898061Y-80880000D01*
X126698102Y-80919774D01*
X126509744Y-80997795D01*
X126340226Y-81111063D01*
X126196063Y-81255226D01*
X126082795Y-81424744D01*
X126004774Y-81613102D01*
X125965000Y-81813061D01*
X124587000Y-81813061D01*
X124587000Y-81280000D01*
X124584560Y-81255224D01*
X124577333Y-81231399D01*
X124565597Y-81209443D01*
X124549803Y-81190197D01*
X124530557Y-81174403D01*
X124508601Y-81162667D01*
X124484776Y-81155440D01*
X124460000Y-81153000D01*
X123256711Y-81153000D01*
X123214774Y-81111063D01*
X123045256Y-80997795D01*
X122856898Y-80919774D01*
X122656939Y-80880000D01*
X122453061Y-80880000D01*
X122253102Y-80919774D01*
X122064744Y-80997795D01*
X121895226Y-81111063D01*
X121853289Y-81153000D01*
X120777000Y-81153000D01*
X120777000Y-79146061D01*
X135109000Y-79146061D01*
X135109000Y-79349939D01*
X135148774Y-79549898D01*
X135226795Y-79738256D01*
X135340063Y-79907774D01*
X135484226Y-80051937D01*
X135653744Y-80165205D01*
X135842102Y-80243226D01*
X136042061Y-80283000D01*
X136245939Y-80283000D01*
X136445898Y-80243226D01*
X136634256Y-80165205D01*
X136803774Y-80051937D01*
X136947937Y-79907774D01*
X137061205Y-79738256D01*
X137139226Y-79549898D01*
X137179000Y-79349939D01*
X137179000Y-79146061D01*
X137139226Y-78946102D01*
X137061205Y-78757744D01*
X136947937Y-78588226D01*
X136803774Y-78444063D01*
X136634256Y-78330795D01*
X136445898Y-78252774D01*
X136245939Y-78213000D01*
X136042061Y-78213000D01*
X135842102Y-78252774D01*
X135653744Y-78330795D01*
X135484226Y-78444063D01*
X135340063Y-78588226D01*
X135226795Y-78757744D01*
X135148774Y-78946102D01*
X135109000Y-79146061D01*
X120777000Y-79146061D01*
X120777000Y-63286323D01*
X121830497Y-63286323D01*
X121830497Y-63713677D01*
X121913870Y-64132821D01*
X122077412Y-64527645D01*
X122314837Y-64882977D01*
X122617023Y-65185163D01*
X122972355Y-65422588D01*
X123367179Y-65586130D01*
X123786323Y-65669503D01*
X124213677Y-65669503D01*
X124632821Y-65586130D01*
X125027645Y-65422588D01*
X125382977Y-65185163D01*
X125685163Y-64882977D01*
X125922588Y-64527645D01*
X126086130Y-64132821D01*
X126169503Y-63713677D01*
X126169503Y-63286323D01*
X126169240Y-63285000D01*
X129956928Y-63285000D01*
X129956928Y-64985000D01*
X129969188Y-65109482D01*
X130005498Y-65229180D01*
X130064463Y-65339494D01*
X130143815Y-65436185D01*
X130240506Y-65515537D01*
X130350820Y-65574502D01*
X130423380Y-65596513D01*
X130291525Y-65728368D01*
X130129010Y-65971589D01*
X130017068Y-66241842D01*
X129960000Y-66528740D01*
X129960000Y-66821260D01*
X130017068Y-67108158D01*
X130129010Y-67378411D01*
X130291525Y-67621632D01*
X130498368Y-67828475D01*
X130672760Y-67945000D01*
X130498368Y-68061525D01*
X130291525Y-68268368D01*
X130129010Y-68511589D01*
X130017068Y-68781842D01*
X129960000Y-69068740D01*
X129960000Y-69361260D01*
X130017068Y-69648158D01*
X130129010Y-69918411D01*
X130291525Y-70161632D01*
X130498368Y-70368475D01*
X130672760Y-70485000D01*
X130498368Y-70601525D01*
X130291525Y-70808368D01*
X130129010Y-71051589D01*
X130017068Y-71321842D01*
X129960000Y-71608740D01*
X129960000Y-71901260D01*
X130017068Y-72188158D01*
X130129010Y-72458411D01*
X130291525Y-72701632D01*
X130498368Y-72908475D01*
X130741589Y-73070990D01*
X131011842Y-73182932D01*
X131298740Y-73240000D01*
X131591260Y-73240000D01*
X131878158Y-73182932D01*
X132148411Y-73070990D01*
X132391632Y-72908475D01*
X132598475Y-72701632D01*
X132760990Y-72458411D01*
X132872932Y-72188158D01*
X132930000Y-71901260D01*
X132930000Y-71608740D01*
X132872932Y-71321842D01*
X132760990Y-71051589D01*
X132598475Y-70808368D01*
X132391632Y-70601525D01*
X132217240Y-70485000D01*
X132369802Y-70383061D01*
X146920000Y-70383061D01*
X146920000Y-70586939D01*
X146959774Y-70786898D01*
X147037795Y-70975256D01*
X147151063Y-71144774D01*
X147295226Y-71288937D01*
X147464744Y-71402205D01*
X147653102Y-71480226D01*
X147853061Y-71520000D01*
X148056939Y-71520000D01*
X148256898Y-71480226D01*
X148445256Y-71402205D01*
X148614774Y-71288937D01*
X148758937Y-71144774D01*
X148872205Y-70975256D01*
X148950226Y-70786898D01*
X148990000Y-70586939D01*
X148990000Y-70383061D01*
X152635000Y-70383061D01*
X152635000Y-70586939D01*
X152674774Y-70786898D01*
X152752795Y-70975256D01*
X152866063Y-71144774D01*
X153010226Y-71288937D01*
X153179744Y-71402205D01*
X153368102Y-71480226D01*
X153568061Y-71520000D01*
X153771939Y-71520000D01*
X153971898Y-71480226D01*
X154160256Y-71402205D01*
X154329774Y-71288937D01*
X154473937Y-71144774D01*
X154587205Y-70975256D01*
X154665226Y-70786898D01*
X154705000Y-70586939D01*
X154705000Y-70383061D01*
X154665226Y-70183102D01*
X154587205Y-69994744D01*
X154473937Y-69825226D01*
X154329774Y-69681063D01*
X154160256Y-69567795D01*
X153971898Y-69489774D01*
X153771939Y-69450000D01*
X153568061Y-69450000D01*
X153368102Y-69489774D01*
X153179744Y-69567795D01*
X153010226Y-69681063D01*
X152866063Y-69825226D01*
X152752795Y-69994744D01*
X152674774Y-70183102D01*
X152635000Y-70383061D01*
X148990000Y-70383061D01*
X148950226Y-70183102D01*
X148872205Y-69994744D01*
X148758937Y-69825226D01*
X148614774Y-69681063D01*
X148445256Y-69567795D01*
X148256898Y-69489774D01*
X148056939Y-69450000D01*
X147853061Y-69450000D01*
X147653102Y-69489774D01*
X147464744Y-69567795D01*
X147295226Y-69681063D01*
X147151063Y-69825226D01*
X147037795Y-69994744D01*
X146959774Y-70183102D01*
X146920000Y-70383061D01*
X132369802Y-70383061D01*
X132391632Y-70368475D01*
X132598475Y-70161632D01*
X132760990Y-69918411D01*
X132872932Y-69648158D01*
X132930000Y-69361260D01*
X132930000Y-69068740D01*
X132872932Y-68781842D01*
X132760990Y-68511589D01*
X132598475Y-68268368D01*
X132391632Y-68061525D01*
X132217240Y-67945000D01*
X132391632Y-67828475D01*
X132598475Y-67621632D01*
X132760990Y-67378411D01*
X132872932Y-67108158D01*
X132930000Y-66821260D01*
X132930000Y-66573061D01*
X157715000Y-66573061D01*
X157715000Y-66776939D01*
X157754774Y-66976898D01*
X157832795Y-67165256D01*
X157946063Y-67334774D01*
X158090226Y-67478937D01*
X158259744Y-67592205D01*
X158448102Y-67670226D01*
X158648061Y-67710000D01*
X158851939Y-67710000D01*
X159051898Y-67670226D01*
X159240256Y-67592205D01*
X159409774Y-67478937D01*
X159553937Y-67334774D01*
X159667205Y-67165256D01*
X159745226Y-66976898D01*
X159785000Y-66776939D01*
X159785000Y-66573061D01*
X159745226Y-66373102D01*
X159667205Y-66184744D01*
X159553937Y-66015226D01*
X159409774Y-65871063D01*
X159240256Y-65757795D01*
X159051898Y-65679774D01*
X158851939Y-65640000D01*
X158648061Y-65640000D01*
X158448102Y-65679774D01*
X158259744Y-65757795D01*
X158090226Y-65871063D01*
X157946063Y-66015226D01*
X157832795Y-66184744D01*
X157754774Y-66373102D01*
X157715000Y-66573061D01*
X132930000Y-66573061D01*
X132930000Y-66528740D01*
X132872932Y-66241842D01*
X132760990Y-65971589D01*
X132598475Y-65728368D01*
X132466620Y-65596513D01*
X132539180Y-65574502D01*
X132649494Y-65515537D01*
X132746185Y-65436185D01*
X132825537Y-65339494D01*
X132884502Y-65229180D01*
X132920812Y-65109482D01*
X132933072Y-64985000D01*
X132933072Y-63285000D01*
X132920812Y-63160518D01*
X132884502Y-63040820D01*
X132825537Y-62930506D01*
X132746185Y-62833815D01*
X132649494Y-62754463D01*
X132539180Y-62695498D01*
X132419482Y-62659188D01*
X132295000Y-62646928D01*
X130595000Y-62646928D01*
X130470518Y-62659188D01*
X130350820Y-62695498D01*
X130240506Y-62754463D01*
X130143815Y-62833815D01*
X130064463Y-62930506D01*
X130005498Y-63040820D01*
X129969188Y-63160518D01*
X129956928Y-63285000D01*
X126169240Y-63285000D01*
X126086130Y-62867179D01*
X125922588Y-62472355D01*
X125685163Y-62117023D01*
X125382977Y-61814837D01*
X125027645Y-61577412D01*
X124632821Y-61413870D01*
X124213677Y-61330497D01*
X123786323Y-61330497D01*
X123367179Y-61413870D01*
X122972355Y-61577412D01*
X122617023Y-61814837D01*
X122314837Y-62117023D01*
X122077412Y-62472355D01*
X121913870Y-62867179D01*
X121830497Y-63286323D01*
X120777000Y-63286323D01*
X120777000Y-59588061D01*
X141205000Y-59588061D01*
X141205000Y-59791939D01*
X141244774Y-59991898D01*
X141322795Y-60180256D01*
X141436063Y-60349774D01*
X141580226Y-60493937D01*
X141749744Y-60607205D01*
X141938102Y-60685226D01*
X142138061Y-60725000D01*
X142341939Y-60725000D01*
X142541898Y-60685226D01*
X142730256Y-60607205D01*
X142899774Y-60493937D01*
X143043937Y-60349774D01*
X143157205Y-60180256D01*
X143235226Y-59991898D01*
X143275000Y-59791939D01*
X143275000Y-59588061D01*
X143235226Y-59388102D01*
X143157205Y-59199744D01*
X143043937Y-59030226D01*
X142966772Y-58953061D01*
X151365000Y-58953061D01*
X151365000Y-59156939D01*
X151404774Y-59356898D01*
X151482795Y-59545256D01*
X151596063Y-59714774D01*
X151740226Y-59858937D01*
X151909744Y-59972205D01*
X152098102Y-60050226D01*
X152298061Y-60090000D01*
X152501939Y-60090000D01*
X152701898Y-60050226D01*
X152890256Y-59972205D01*
X153059774Y-59858937D01*
X153203937Y-59714774D01*
X153317205Y-59545256D01*
X153395226Y-59356898D01*
X153435000Y-59156939D01*
X153435000Y-58953061D01*
X155175000Y-58953061D01*
X155175000Y-59156939D01*
X155214774Y-59356898D01*
X155292795Y-59545256D01*
X155406063Y-59714774D01*
X155550226Y-59858937D01*
X155719744Y-59972205D01*
X155908102Y-60050226D01*
X156108061Y-60090000D01*
X156311939Y-60090000D01*
X156511898Y-60050226D01*
X156700256Y-59972205D01*
X156869774Y-59858937D01*
X157013937Y-59714774D01*
X157127205Y-59545256D01*
X157205226Y-59356898D01*
X157245000Y-59156939D01*
X157245000Y-58953061D01*
X157205226Y-58753102D01*
X157127205Y-58564744D01*
X157013937Y-58395226D01*
X156869774Y-58251063D01*
X156700256Y-58137795D01*
X156511898Y-58059774D01*
X156311939Y-58020000D01*
X156108061Y-58020000D01*
X155908102Y-58059774D01*
X155719744Y-58137795D01*
X155550226Y-58251063D01*
X155406063Y-58395226D01*
X155292795Y-58564744D01*
X155214774Y-58753102D01*
X155175000Y-58953061D01*
X153435000Y-58953061D01*
X153395226Y-58753102D01*
X153317205Y-58564744D01*
X153203937Y-58395226D01*
X153059774Y-58251063D01*
X152890256Y-58137795D01*
X152701898Y-58059774D01*
X152501939Y-58020000D01*
X152298061Y-58020000D01*
X152098102Y-58059774D01*
X151909744Y-58137795D01*
X151740226Y-58251063D01*
X151596063Y-58395226D01*
X151482795Y-58564744D01*
X151404774Y-58753102D01*
X151365000Y-58953061D01*
X142966772Y-58953061D01*
X142899774Y-58886063D01*
X142730256Y-58772795D01*
X142541898Y-58694774D01*
X142341939Y-58655000D01*
X142138061Y-58655000D01*
X141938102Y-58694774D01*
X141749744Y-58772795D01*
X141580226Y-58886063D01*
X141436063Y-59030226D01*
X141322795Y-59199744D01*
X141244774Y-59388102D01*
X141205000Y-59588061D01*
X120777000Y-59588061D01*
X120777000Y-57660000D01*
X164338000Y-57660000D01*
X164338000Y-61274289D01*
G37*
G04 #@! TD.AperFunction*
M02*
