G04 #@! TF.GenerationSoftware,KiCad,Pcbnew,5.1.10-88a1d61d58~90~ubuntu20.04.1*
G04 #@! TF.CreationDate,2021-08-15T15:07:41+03:00*
G04 #@! TF.ProjectId,DepremSanat,44657072-656d-4536-916e-61742e6b6963,rev?*
G04 #@! TF.SameCoordinates,Original*
G04 #@! TF.FileFunction,Copper,L1,Top*
G04 #@! TF.FilePolarity,Positive*
%FSLAX46Y46*%
G04 Gerber Fmt 4.6, Leading zero omitted, Abs format (unit mm)*
G04 Created by KiCad (PCBNEW 5.1.10-88a1d61d58~90~ubuntu20.04.1) date 2021-08-15 15:07:41*
%MOMM*%
%LPD*%
G01*
G04 APERTURE LIST*
G04 #@! TA.AperFunction,SMDPad,CuDef*
%ADD10R,1.800000X1.400000*%
G04 #@! TD*
G04 #@! TA.AperFunction,SMDPad,CuDef*
%ADD11R,1.400000X1.900000*%
G04 #@! TD*
G04 #@! TA.AperFunction,SMDPad,CuDef*
%ADD12R,0.800000X1.500000*%
G04 #@! TD*
G04 #@! TA.AperFunction,SMDPad,CuDef*
%ADD13R,2.000000X4.500000*%
G04 #@! TD*
G04 #@! TA.AperFunction,ComponentPad*
%ADD14C,1.800000*%
G04 #@! TD*
G04 #@! TA.AperFunction,SMDPad,CuDef*
%ADD15R,0.800000X0.900000*%
G04 #@! TD*
G04 #@! TA.AperFunction,SMDPad,CuDef*
%ADD16R,5.800000X6.400000*%
G04 #@! TD*
G04 #@! TA.AperFunction,SMDPad,CuDef*
%ADD17R,1.200000X2.200000*%
G04 #@! TD*
G04 #@! TA.AperFunction,SMDPad,CuDef*
%ADD18R,0.900000X0.800000*%
G04 #@! TD*
G04 #@! TA.AperFunction,SMDPad,CuDef*
%ADD19R,6.400000X5.800000*%
G04 #@! TD*
G04 #@! TA.AperFunction,SMDPad,CuDef*
%ADD20R,2.200000X1.200000*%
G04 #@! TD*
G04 #@! TA.AperFunction,ComponentPad*
%ADD21C,2.000000*%
G04 #@! TD*
G04 #@! TA.AperFunction,ComponentPad*
%ADD22R,1.800000X1.800000*%
G04 #@! TD*
G04 #@! TA.AperFunction,ComponentPad*
%ADD23O,1.700000X1.700000*%
G04 #@! TD*
G04 #@! TA.AperFunction,ComponentPad*
%ADD24R,1.700000X1.700000*%
G04 #@! TD*
G04 #@! TA.AperFunction,SMDPad,CuDef*
%ADD25R,0.900000X1.200000*%
G04 #@! TD*
G04 #@! TA.AperFunction,ComponentPad*
%ADD26R,2.000000X2.000000*%
G04 #@! TD*
G04 #@! TA.AperFunction,ViaPad*
%ADD27C,0.800000*%
G04 #@! TD*
G04 #@! TA.AperFunction,ViaPad*
%ADD28C,1.400000*%
G04 #@! TD*
G04 #@! TA.AperFunction,ViaPad*
%ADD29C,1.000000*%
G04 #@! TD*
G04 #@! TA.AperFunction,Conductor*
%ADD30C,0.350000*%
G04 #@! TD*
G04 #@! TA.AperFunction,Conductor*
%ADD31C,0.750000*%
G04 #@! TD*
G04 #@! TA.AperFunction,Conductor*
%ADD32C,0.250000*%
G04 #@! TD*
G04 #@! TA.AperFunction,Conductor*
%ADD33C,0.500000*%
G04 #@! TD*
G04 #@! TA.AperFunction,Conductor*
%ADD34C,0.800000*%
G04 #@! TD*
G04 #@! TA.AperFunction,Conductor*
%ADD35C,0.254000*%
G04 #@! TD*
G04 #@! TA.AperFunction,Conductor*
%ADD36C,0.100000*%
G04 #@! TD*
G04 APERTURE END LIST*
D10*
X147865000Y-71970000D03*
X153565000Y-71970000D03*
D11*
X142015000Y-57820000D03*
X155165000Y-57820000D03*
D12*
X154375000Y-60870000D03*
X153275000Y-60870000D03*
X152175000Y-60670000D03*
X151075000Y-60870000D03*
X149975000Y-60670000D03*
X148875000Y-60870000D03*
X147775000Y-61270000D03*
X146675000Y-60870000D03*
D13*
X127000000Y-93785000D03*
X127000000Y-85285000D03*
D14*
X132990000Y-119825000D03*
X151490000Y-119825000D03*
X144990000Y-119825000D03*
X132990000Y-115125000D03*
D15*
X109220000Y-103870000D03*
X108270000Y-101870000D03*
X110170000Y-101870000D03*
X118745000Y-104505000D03*
X117795000Y-102505000D03*
X119695000Y-102505000D03*
D16*
X111760000Y-117416000D03*
D17*
X109480000Y-111116000D03*
X114040000Y-111116000D03*
G04 #@! TA.AperFunction,SMDPad,CuDef*
G36*
G01*
X111275000Y-84860000D02*
X110975000Y-84860000D01*
G75*
G02*
X110825000Y-84710000I0J150000D01*
G01*
X110825000Y-83060000D01*
G75*
G02*
X110975000Y-82910000I150000J0D01*
G01*
X111275000Y-82910000D01*
G75*
G02*
X111425000Y-83060000I0J-150000D01*
G01*
X111425000Y-84710000D01*
G75*
G02*
X111275000Y-84860000I-150000J0D01*
G01*
G37*
G04 #@! TD.AperFunction*
G04 #@! TA.AperFunction,SMDPad,CuDef*
G36*
G01*
X112545000Y-84860000D02*
X112245000Y-84860000D01*
G75*
G02*
X112095000Y-84710000I0J150000D01*
G01*
X112095000Y-83060000D01*
G75*
G02*
X112245000Y-82910000I150000J0D01*
G01*
X112545000Y-82910000D01*
G75*
G02*
X112695000Y-83060000I0J-150000D01*
G01*
X112695000Y-84710000D01*
G75*
G02*
X112545000Y-84860000I-150000J0D01*
G01*
G37*
G04 #@! TD.AperFunction*
G04 #@! TA.AperFunction,SMDPad,CuDef*
G36*
G01*
X113815000Y-84860000D02*
X113515000Y-84860000D01*
G75*
G02*
X113365000Y-84710000I0J150000D01*
G01*
X113365000Y-83060000D01*
G75*
G02*
X113515000Y-82910000I150000J0D01*
G01*
X113815000Y-82910000D01*
G75*
G02*
X113965000Y-83060000I0J-150000D01*
G01*
X113965000Y-84710000D01*
G75*
G02*
X113815000Y-84860000I-150000J0D01*
G01*
G37*
G04 #@! TD.AperFunction*
G04 #@! TA.AperFunction,SMDPad,CuDef*
G36*
G01*
X115085000Y-84860000D02*
X114785000Y-84860000D01*
G75*
G02*
X114635000Y-84710000I0J150000D01*
G01*
X114635000Y-83060000D01*
G75*
G02*
X114785000Y-82910000I150000J0D01*
G01*
X115085000Y-82910000D01*
G75*
G02*
X115235000Y-83060000I0J-150000D01*
G01*
X115235000Y-84710000D01*
G75*
G02*
X115085000Y-84860000I-150000J0D01*
G01*
G37*
G04 #@! TD.AperFunction*
G04 #@! TA.AperFunction,SMDPad,CuDef*
G36*
G01*
X115085000Y-89810000D02*
X114785000Y-89810000D01*
G75*
G02*
X114635000Y-89660000I0J150000D01*
G01*
X114635000Y-88010000D01*
G75*
G02*
X114785000Y-87860000I150000J0D01*
G01*
X115085000Y-87860000D01*
G75*
G02*
X115235000Y-88010000I0J-150000D01*
G01*
X115235000Y-89660000D01*
G75*
G02*
X115085000Y-89810000I-150000J0D01*
G01*
G37*
G04 #@! TD.AperFunction*
G04 #@! TA.AperFunction,SMDPad,CuDef*
G36*
G01*
X113815000Y-89810000D02*
X113515000Y-89810000D01*
G75*
G02*
X113365000Y-89660000I0J150000D01*
G01*
X113365000Y-88010000D01*
G75*
G02*
X113515000Y-87860000I150000J0D01*
G01*
X113815000Y-87860000D01*
G75*
G02*
X113965000Y-88010000I0J-150000D01*
G01*
X113965000Y-89660000D01*
G75*
G02*
X113815000Y-89810000I-150000J0D01*
G01*
G37*
G04 #@! TD.AperFunction*
G04 #@! TA.AperFunction,SMDPad,CuDef*
G36*
G01*
X112545000Y-89810000D02*
X112245000Y-89810000D01*
G75*
G02*
X112095000Y-89660000I0J150000D01*
G01*
X112095000Y-88010000D01*
G75*
G02*
X112245000Y-87860000I150000J0D01*
G01*
X112545000Y-87860000D01*
G75*
G02*
X112695000Y-88010000I0J-150000D01*
G01*
X112695000Y-89660000D01*
G75*
G02*
X112545000Y-89810000I-150000J0D01*
G01*
G37*
G04 #@! TD.AperFunction*
G04 #@! TA.AperFunction,SMDPad,CuDef*
G36*
G01*
X111275000Y-89810000D02*
X110975000Y-89810000D01*
G75*
G02*
X110825000Y-89660000I0J150000D01*
G01*
X110825000Y-88010000D01*
G75*
G02*
X110975000Y-87860000I150000J0D01*
G01*
X111275000Y-87860000D01*
G75*
G02*
X111425000Y-88010000I0J-150000D01*
G01*
X111425000Y-89660000D01*
G75*
G02*
X111275000Y-89810000I-150000J0D01*
G01*
G37*
G04 #@! TD.AperFunction*
G04 #@! TA.AperFunction,SMDPad,CuDef*
G36*
G01*
X139050000Y-86635000D02*
X139050000Y-85235000D01*
G75*
G02*
X139125000Y-85160000I75000J0D01*
G01*
X139275000Y-85160000D01*
G75*
G02*
X139350000Y-85235000I0J-75000D01*
G01*
X139350000Y-86635000D01*
G75*
G02*
X139275000Y-86710000I-75000J0D01*
G01*
X139125000Y-86710000D01*
G75*
G02*
X139050000Y-86635000I0J75000D01*
G01*
G37*
G04 #@! TD.AperFunction*
G04 #@! TA.AperFunction,SMDPad,CuDef*
G36*
G01*
X139550000Y-86635000D02*
X139550000Y-85235000D01*
G75*
G02*
X139625000Y-85160000I75000J0D01*
G01*
X139775000Y-85160000D01*
G75*
G02*
X139850000Y-85235000I0J-75000D01*
G01*
X139850000Y-86635000D01*
G75*
G02*
X139775000Y-86710000I-75000J0D01*
G01*
X139625000Y-86710000D01*
G75*
G02*
X139550000Y-86635000I0J75000D01*
G01*
G37*
G04 #@! TD.AperFunction*
G04 #@! TA.AperFunction,SMDPad,CuDef*
G36*
G01*
X140050000Y-86635000D02*
X140050000Y-85235000D01*
G75*
G02*
X140125000Y-85160000I75000J0D01*
G01*
X140275000Y-85160000D01*
G75*
G02*
X140350000Y-85235000I0J-75000D01*
G01*
X140350000Y-86635000D01*
G75*
G02*
X140275000Y-86710000I-75000J0D01*
G01*
X140125000Y-86710000D01*
G75*
G02*
X140050000Y-86635000I0J75000D01*
G01*
G37*
G04 #@! TD.AperFunction*
G04 #@! TA.AperFunction,SMDPad,CuDef*
G36*
G01*
X140550000Y-86635000D02*
X140550000Y-85235000D01*
G75*
G02*
X140625000Y-85160000I75000J0D01*
G01*
X140775000Y-85160000D01*
G75*
G02*
X140850000Y-85235000I0J-75000D01*
G01*
X140850000Y-86635000D01*
G75*
G02*
X140775000Y-86710000I-75000J0D01*
G01*
X140625000Y-86710000D01*
G75*
G02*
X140550000Y-86635000I0J75000D01*
G01*
G37*
G04 #@! TD.AperFunction*
G04 #@! TA.AperFunction,SMDPad,CuDef*
G36*
G01*
X141050000Y-86635000D02*
X141050000Y-85235000D01*
G75*
G02*
X141125000Y-85160000I75000J0D01*
G01*
X141275000Y-85160000D01*
G75*
G02*
X141350000Y-85235000I0J-75000D01*
G01*
X141350000Y-86635000D01*
G75*
G02*
X141275000Y-86710000I-75000J0D01*
G01*
X141125000Y-86710000D01*
G75*
G02*
X141050000Y-86635000I0J75000D01*
G01*
G37*
G04 #@! TD.AperFunction*
G04 #@! TA.AperFunction,SMDPad,CuDef*
G36*
G01*
X141550000Y-86635000D02*
X141550000Y-85235000D01*
G75*
G02*
X141625000Y-85160000I75000J0D01*
G01*
X141775000Y-85160000D01*
G75*
G02*
X141850000Y-85235000I0J-75000D01*
G01*
X141850000Y-86635000D01*
G75*
G02*
X141775000Y-86710000I-75000J0D01*
G01*
X141625000Y-86710000D01*
G75*
G02*
X141550000Y-86635000I0J75000D01*
G01*
G37*
G04 #@! TD.AperFunction*
G04 #@! TA.AperFunction,SMDPad,CuDef*
G36*
G01*
X142050000Y-86635000D02*
X142050000Y-85235000D01*
G75*
G02*
X142125000Y-85160000I75000J0D01*
G01*
X142275000Y-85160000D01*
G75*
G02*
X142350000Y-85235000I0J-75000D01*
G01*
X142350000Y-86635000D01*
G75*
G02*
X142275000Y-86710000I-75000J0D01*
G01*
X142125000Y-86710000D01*
G75*
G02*
X142050000Y-86635000I0J75000D01*
G01*
G37*
G04 #@! TD.AperFunction*
G04 #@! TA.AperFunction,SMDPad,CuDef*
G36*
G01*
X142550000Y-86635000D02*
X142550000Y-85235000D01*
G75*
G02*
X142625000Y-85160000I75000J0D01*
G01*
X142775000Y-85160000D01*
G75*
G02*
X142850000Y-85235000I0J-75000D01*
G01*
X142850000Y-86635000D01*
G75*
G02*
X142775000Y-86710000I-75000J0D01*
G01*
X142625000Y-86710000D01*
G75*
G02*
X142550000Y-86635000I0J75000D01*
G01*
G37*
G04 #@! TD.AperFunction*
G04 #@! TA.AperFunction,SMDPad,CuDef*
G36*
G01*
X143050000Y-86635000D02*
X143050000Y-85235000D01*
G75*
G02*
X143125000Y-85160000I75000J0D01*
G01*
X143275000Y-85160000D01*
G75*
G02*
X143350000Y-85235000I0J-75000D01*
G01*
X143350000Y-86635000D01*
G75*
G02*
X143275000Y-86710000I-75000J0D01*
G01*
X143125000Y-86710000D01*
G75*
G02*
X143050000Y-86635000I0J75000D01*
G01*
G37*
G04 #@! TD.AperFunction*
G04 #@! TA.AperFunction,SMDPad,CuDef*
G36*
G01*
X143550000Y-86635000D02*
X143550000Y-85235000D01*
G75*
G02*
X143625000Y-85160000I75000J0D01*
G01*
X143775000Y-85160000D01*
G75*
G02*
X143850000Y-85235000I0J-75000D01*
G01*
X143850000Y-86635000D01*
G75*
G02*
X143775000Y-86710000I-75000J0D01*
G01*
X143625000Y-86710000D01*
G75*
G02*
X143550000Y-86635000I0J75000D01*
G01*
G37*
G04 #@! TD.AperFunction*
G04 #@! TA.AperFunction,SMDPad,CuDef*
G36*
G01*
X144050000Y-86635000D02*
X144050000Y-85235000D01*
G75*
G02*
X144125000Y-85160000I75000J0D01*
G01*
X144275000Y-85160000D01*
G75*
G02*
X144350000Y-85235000I0J-75000D01*
G01*
X144350000Y-86635000D01*
G75*
G02*
X144275000Y-86710000I-75000J0D01*
G01*
X144125000Y-86710000D01*
G75*
G02*
X144050000Y-86635000I0J75000D01*
G01*
G37*
G04 #@! TD.AperFunction*
G04 #@! TA.AperFunction,SMDPad,CuDef*
G36*
G01*
X144550000Y-86635000D02*
X144550000Y-85235000D01*
G75*
G02*
X144625000Y-85160000I75000J0D01*
G01*
X144775000Y-85160000D01*
G75*
G02*
X144850000Y-85235000I0J-75000D01*
G01*
X144850000Y-86635000D01*
G75*
G02*
X144775000Y-86710000I-75000J0D01*
G01*
X144625000Y-86710000D01*
G75*
G02*
X144550000Y-86635000I0J75000D01*
G01*
G37*
G04 #@! TD.AperFunction*
G04 #@! TA.AperFunction,SMDPad,CuDef*
G36*
G01*
X145050000Y-86635000D02*
X145050000Y-85235000D01*
G75*
G02*
X145125000Y-85160000I75000J0D01*
G01*
X145275000Y-85160000D01*
G75*
G02*
X145350000Y-85235000I0J-75000D01*
G01*
X145350000Y-86635000D01*
G75*
G02*
X145275000Y-86710000I-75000J0D01*
G01*
X145125000Y-86710000D01*
G75*
G02*
X145050000Y-86635000I0J75000D01*
G01*
G37*
G04 #@! TD.AperFunction*
G04 #@! TA.AperFunction,SMDPad,CuDef*
G36*
G01*
X145550000Y-86635000D02*
X145550000Y-85235000D01*
G75*
G02*
X145625000Y-85160000I75000J0D01*
G01*
X145775000Y-85160000D01*
G75*
G02*
X145850000Y-85235000I0J-75000D01*
G01*
X145850000Y-86635000D01*
G75*
G02*
X145775000Y-86710000I-75000J0D01*
G01*
X145625000Y-86710000D01*
G75*
G02*
X145550000Y-86635000I0J75000D01*
G01*
G37*
G04 #@! TD.AperFunction*
G04 #@! TA.AperFunction,SMDPad,CuDef*
G36*
G01*
X146050000Y-86635000D02*
X146050000Y-85235000D01*
G75*
G02*
X146125000Y-85160000I75000J0D01*
G01*
X146275000Y-85160000D01*
G75*
G02*
X146350000Y-85235000I0J-75000D01*
G01*
X146350000Y-86635000D01*
G75*
G02*
X146275000Y-86710000I-75000J0D01*
G01*
X146125000Y-86710000D01*
G75*
G02*
X146050000Y-86635000I0J75000D01*
G01*
G37*
G04 #@! TD.AperFunction*
G04 #@! TA.AperFunction,SMDPad,CuDef*
G36*
G01*
X146550000Y-86635000D02*
X146550000Y-85235000D01*
G75*
G02*
X146625000Y-85160000I75000J0D01*
G01*
X146775000Y-85160000D01*
G75*
G02*
X146850000Y-85235000I0J-75000D01*
G01*
X146850000Y-86635000D01*
G75*
G02*
X146775000Y-86710000I-75000J0D01*
G01*
X146625000Y-86710000D01*
G75*
G02*
X146550000Y-86635000I0J75000D01*
G01*
G37*
G04 #@! TD.AperFunction*
G04 #@! TA.AperFunction,SMDPad,CuDef*
G36*
G01*
X147850000Y-87935000D02*
X147850000Y-87785000D01*
G75*
G02*
X147925000Y-87710000I75000J0D01*
G01*
X149325000Y-87710000D01*
G75*
G02*
X149400000Y-87785000I0J-75000D01*
G01*
X149400000Y-87935000D01*
G75*
G02*
X149325000Y-88010000I-75000J0D01*
G01*
X147925000Y-88010000D01*
G75*
G02*
X147850000Y-87935000I0J75000D01*
G01*
G37*
G04 #@! TD.AperFunction*
G04 #@! TA.AperFunction,SMDPad,CuDef*
G36*
G01*
X147850000Y-88435000D02*
X147850000Y-88285000D01*
G75*
G02*
X147925000Y-88210000I75000J0D01*
G01*
X149325000Y-88210000D01*
G75*
G02*
X149400000Y-88285000I0J-75000D01*
G01*
X149400000Y-88435000D01*
G75*
G02*
X149325000Y-88510000I-75000J0D01*
G01*
X147925000Y-88510000D01*
G75*
G02*
X147850000Y-88435000I0J75000D01*
G01*
G37*
G04 #@! TD.AperFunction*
G04 #@! TA.AperFunction,SMDPad,CuDef*
G36*
G01*
X147850000Y-88935000D02*
X147850000Y-88785000D01*
G75*
G02*
X147925000Y-88710000I75000J0D01*
G01*
X149325000Y-88710000D01*
G75*
G02*
X149400000Y-88785000I0J-75000D01*
G01*
X149400000Y-88935000D01*
G75*
G02*
X149325000Y-89010000I-75000J0D01*
G01*
X147925000Y-89010000D01*
G75*
G02*
X147850000Y-88935000I0J75000D01*
G01*
G37*
G04 #@! TD.AperFunction*
G04 #@! TA.AperFunction,SMDPad,CuDef*
G36*
G01*
X147850000Y-89435000D02*
X147850000Y-89285000D01*
G75*
G02*
X147925000Y-89210000I75000J0D01*
G01*
X149325000Y-89210000D01*
G75*
G02*
X149400000Y-89285000I0J-75000D01*
G01*
X149400000Y-89435000D01*
G75*
G02*
X149325000Y-89510000I-75000J0D01*
G01*
X147925000Y-89510000D01*
G75*
G02*
X147850000Y-89435000I0J75000D01*
G01*
G37*
G04 #@! TD.AperFunction*
G04 #@! TA.AperFunction,SMDPad,CuDef*
G36*
G01*
X147850000Y-89935000D02*
X147850000Y-89785000D01*
G75*
G02*
X147925000Y-89710000I75000J0D01*
G01*
X149325000Y-89710000D01*
G75*
G02*
X149400000Y-89785000I0J-75000D01*
G01*
X149400000Y-89935000D01*
G75*
G02*
X149325000Y-90010000I-75000J0D01*
G01*
X147925000Y-90010000D01*
G75*
G02*
X147850000Y-89935000I0J75000D01*
G01*
G37*
G04 #@! TD.AperFunction*
G04 #@! TA.AperFunction,SMDPad,CuDef*
G36*
G01*
X147850000Y-90435000D02*
X147850000Y-90285000D01*
G75*
G02*
X147925000Y-90210000I75000J0D01*
G01*
X149325000Y-90210000D01*
G75*
G02*
X149400000Y-90285000I0J-75000D01*
G01*
X149400000Y-90435000D01*
G75*
G02*
X149325000Y-90510000I-75000J0D01*
G01*
X147925000Y-90510000D01*
G75*
G02*
X147850000Y-90435000I0J75000D01*
G01*
G37*
G04 #@! TD.AperFunction*
G04 #@! TA.AperFunction,SMDPad,CuDef*
G36*
G01*
X147850000Y-90935000D02*
X147850000Y-90785000D01*
G75*
G02*
X147925000Y-90710000I75000J0D01*
G01*
X149325000Y-90710000D01*
G75*
G02*
X149400000Y-90785000I0J-75000D01*
G01*
X149400000Y-90935000D01*
G75*
G02*
X149325000Y-91010000I-75000J0D01*
G01*
X147925000Y-91010000D01*
G75*
G02*
X147850000Y-90935000I0J75000D01*
G01*
G37*
G04 #@! TD.AperFunction*
G04 #@! TA.AperFunction,SMDPad,CuDef*
G36*
G01*
X147850000Y-91435000D02*
X147850000Y-91285000D01*
G75*
G02*
X147925000Y-91210000I75000J0D01*
G01*
X149325000Y-91210000D01*
G75*
G02*
X149400000Y-91285000I0J-75000D01*
G01*
X149400000Y-91435000D01*
G75*
G02*
X149325000Y-91510000I-75000J0D01*
G01*
X147925000Y-91510000D01*
G75*
G02*
X147850000Y-91435000I0J75000D01*
G01*
G37*
G04 #@! TD.AperFunction*
G04 #@! TA.AperFunction,SMDPad,CuDef*
G36*
G01*
X147850000Y-91935000D02*
X147850000Y-91785000D01*
G75*
G02*
X147925000Y-91710000I75000J0D01*
G01*
X149325000Y-91710000D01*
G75*
G02*
X149400000Y-91785000I0J-75000D01*
G01*
X149400000Y-91935000D01*
G75*
G02*
X149325000Y-92010000I-75000J0D01*
G01*
X147925000Y-92010000D01*
G75*
G02*
X147850000Y-91935000I0J75000D01*
G01*
G37*
G04 #@! TD.AperFunction*
G04 #@! TA.AperFunction,SMDPad,CuDef*
G36*
G01*
X147850000Y-92435000D02*
X147850000Y-92285000D01*
G75*
G02*
X147925000Y-92210000I75000J0D01*
G01*
X149325000Y-92210000D01*
G75*
G02*
X149400000Y-92285000I0J-75000D01*
G01*
X149400000Y-92435000D01*
G75*
G02*
X149325000Y-92510000I-75000J0D01*
G01*
X147925000Y-92510000D01*
G75*
G02*
X147850000Y-92435000I0J75000D01*
G01*
G37*
G04 #@! TD.AperFunction*
G04 #@! TA.AperFunction,SMDPad,CuDef*
G36*
G01*
X147850000Y-92935000D02*
X147850000Y-92785000D01*
G75*
G02*
X147925000Y-92710000I75000J0D01*
G01*
X149325000Y-92710000D01*
G75*
G02*
X149400000Y-92785000I0J-75000D01*
G01*
X149400000Y-92935000D01*
G75*
G02*
X149325000Y-93010000I-75000J0D01*
G01*
X147925000Y-93010000D01*
G75*
G02*
X147850000Y-92935000I0J75000D01*
G01*
G37*
G04 #@! TD.AperFunction*
G04 #@! TA.AperFunction,SMDPad,CuDef*
G36*
G01*
X147850000Y-93435000D02*
X147850000Y-93285000D01*
G75*
G02*
X147925000Y-93210000I75000J0D01*
G01*
X149325000Y-93210000D01*
G75*
G02*
X149400000Y-93285000I0J-75000D01*
G01*
X149400000Y-93435000D01*
G75*
G02*
X149325000Y-93510000I-75000J0D01*
G01*
X147925000Y-93510000D01*
G75*
G02*
X147850000Y-93435000I0J75000D01*
G01*
G37*
G04 #@! TD.AperFunction*
G04 #@! TA.AperFunction,SMDPad,CuDef*
G36*
G01*
X147850000Y-93935000D02*
X147850000Y-93785000D01*
G75*
G02*
X147925000Y-93710000I75000J0D01*
G01*
X149325000Y-93710000D01*
G75*
G02*
X149400000Y-93785000I0J-75000D01*
G01*
X149400000Y-93935000D01*
G75*
G02*
X149325000Y-94010000I-75000J0D01*
G01*
X147925000Y-94010000D01*
G75*
G02*
X147850000Y-93935000I0J75000D01*
G01*
G37*
G04 #@! TD.AperFunction*
G04 #@! TA.AperFunction,SMDPad,CuDef*
G36*
G01*
X147850000Y-94435000D02*
X147850000Y-94285000D01*
G75*
G02*
X147925000Y-94210000I75000J0D01*
G01*
X149325000Y-94210000D01*
G75*
G02*
X149400000Y-94285000I0J-75000D01*
G01*
X149400000Y-94435000D01*
G75*
G02*
X149325000Y-94510000I-75000J0D01*
G01*
X147925000Y-94510000D01*
G75*
G02*
X147850000Y-94435000I0J75000D01*
G01*
G37*
G04 #@! TD.AperFunction*
G04 #@! TA.AperFunction,SMDPad,CuDef*
G36*
G01*
X147850000Y-94935000D02*
X147850000Y-94785000D01*
G75*
G02*
X147925000Y-94710000I75000J0D01*
G01*
X149325000Y-94710000D01*
G75*
G02*
X149400000Y-94785000I0J-75000D01*
G01*
X149400000Y-94935000D01*
G75*
G02*
X149325000Y-95010000I-75000J0D01*
G01*
X147925000Y-95010000D01*
G75*
G02*
X147850000Y-94935000I0J75000D01*
G01*
G37*
G04 #@! TD.AperFunction*
G04 #@! TA.AperFunction,SMDPad,CuDef*
G36*
G01*
X147850000Y-95435000D02*
X147850000Y-95285000D01*
G75*
G02*
X147925000Y-95210000I75000J0D01*
G01*
X149325000Y-95210000D01*
G75*
G02*
X149400000Y-95285000I0J-75000D01*
G01*
X149400000Y-95435000D01*
G75*
G02*
X149325000Y-95510000I-75000J0D01*
G01*
X147925000Y-95510000D01*
G75*
G02*
X147850000Y-95435000I0J75000D01*
G01*
G37*
G04 #@! TD.AperFunction*
G04 #@! TA.AperFunction,SMDPad,CuDef*
G36*
G01*
X146550000Y-97985000D02*
X146550000Y-96585000D01*
G75*
G02*
X146625000Y-96510000I75000J0D01*
G01*
X146775000Y-96510000D01*
G75*
G02*
X146850000Y-96585000I0J-75000D01*
G01*
X146850000Y-97985000D01*
G75*
G02*
X146775000Y-98060000I-75000J0D01*
G01*
X146625000Y-98060000D01*
G75*
G02*
X146550000Y-97985000I0J75000D01*
G01*
G37*
G04 #@! TD.AperFunction*
G04 #@! TA.AperFunction,SMDPad,CuDef*
G36*
G01*
X146050000Y-97985000D02*
X146050000Y-96585000D01*
G75*
G02*
X146125000Y-96510000I75000J0D01*
G01*
X146275000Y-96510000D01*
G75*
G02*
X146350000Y-96585000I0J-75000D01*
G01*
X146350000Y-97985000D01*
G75*
G02*
X146275000Y-98060000I-75000J0D01*
G01*
X146125000Y-98060000D01*
G75*
G02*
X146050000Y-97985000I0J75000D01*
G01*
G37*
G04 #@! TD.AperFunction*
G04 #@! TA.AperFunction,SMDPad,CuDef*
G36*
G01*
X145550000Y-97985000D02*
X145550000Y-96585000D01*
G75*
G02*
X145625000Y-96510000I75000J0D01*
G01*
X145775000Y-96510000D01*
G75*
G02*
X145850000Y-96585000I0J-75000D01*
G01*
X145850000Y-97985000D01*
G75*
G02*
X145775000Y-98060000I-75000J0D01*
G01*
X145625000Y-98060000D01*
G75*
G02*
X145550000Y-97985000I0J75000D01*
G01*
G37*
G04 #@! TD.AperFunction*
G04 #@! TA.AperFunction,SMDPad,CuDef*
G36*
G01*
X145050000Y-97985000D02*
X145050000Y-96585000D01*
G75*
G02*
X145125000Y-96510000I75000J0D01*
G01*
X145275000Y-96510000D01*
G75*
G02*
X145350000Y-96585000I0J-75000D01*
G01*
X145350000Y-97985000D01*
G75*
G02*
X145275000Y-98060000I-75000J0D01*
G01*
X145125000Y-98060000D01*
G75*
G02*
X145050000Y-97985000I0J75000D01*
G01*
G37*
G04 #@! TD.AperFunction*
G04 #@! TA.AperFunction,SMDPad,CuDef*
G36*
G01*
X144550000Y-97985000D02*
X144550000Y-96585000D01*
G75*
G02*
X144625000Y-96510000I75000J0D01*
G01*
X144775000Y-96510000D01*
G75*
G02*
X144850000Y-96585000I0J-75000D01*
G01*
X144850000Y-97985000D01*
G75*
G02*
X144775000Y-98060000I-75000J0D01*
G01*
X144625000Y-98060000D01*
G75*
G02*
X144550000Y-97985000I0J75000D01*
G01*
G37*
G04 #@! TD.AperFunction*
G04 #@! TA.AperFunction,SMDPad,CuDef*
G36*
G01*
X144050000Y-97985000D02*
X144050000Y-96585000D01*
G75*
G02*
X144125000Y-96510000I75000J0D01*
G01*
X144275000Y-96510000D01*
G75*
G02*
X144350000Y-96585000I0J-75000D01*
G01*
X144350000Y-97985000D01*
G75*
G02*
X144275000Y-98060000I-75000J0D01*
G01*
X144125000Y-98060000D01*
G75*
G02*
X144050000Y-97985000I0J75000D01*
G01*
G37*
G04 #@! TD.AperFunction*
G04 #@! TA.AperFunction,SMDPad,CuDef*
G36*
G01*
X143550000Y-97985000D02*
X143550000Y-96585000D01*
G75*
G02*
X143625000Y-96510000I75000J0D01*
G01*
X143775000Y-96510000D01*
G75*
G02*
X143850000Y-96585000I0J-75000D01*
G01*
X143850000Y-97985000D01*
G75*
G02*
X143775000Y-98060000I-75000J0D01*
G01*
X143625000Y-98060000D01*
G75*
G02*
X143550000Y-97985000I0J75000D01*
G01*
G37*
G04 #@! TD.AperFunction*
G04 #@! TA.AperFunction,SMDPad,CuDef*
G36*
G01*
X143050000Y-97985000D02*
X143050000Y-96585000D01*
G75*
G02*
X143125000Y-96510000I75000J0D01*
G01*
X143275000Y-96510000D01*
G75*
G02*
X143350000Y-96585000I0J-75000D01*
G01*
X143350000Y-97985000D01*
G75*
G02*
X143275000Y-98060000I-75000J0D01*
G01*
X143125000Y-98060000D01*
G75*
G02*
X143050000Y-97985000I0J75000D01*
G01*
G37*
G04 #@! TD.AperFunction*
G04 #@! TA.AperFunction,SMDPad,CuDef*
G36*
G01*
X142550000Y-97985000D02*
X142550000Y-96585000D01*
G75*
G02*
X142625000Y-96510000I75000J0D01*
G01*
X142775000Y-96510000D01*
G75*
G02*
X142850000Y-96585000I0J-75000D01*
G01*
X142850000Y-97985000D01*
G75*
G02*
X142775000Y-98060000I-75000J0D01*
G01*
X142625000Y-98060000D01*
G75*
G02*
X142550000Y-97985000I0J75000D01*
G01*
G37*
G04 #@! TD.AperFunction*
G04 #@! TA.AperFunction,SMDPad,CuDef*
G36*
G01*
X142050000Y-97985000D02*
X142050000Y-96585000D01*
G75*
G02*
X142125000Y-96510000I75000J0D01*
G01*
X142275000Y-96510000D01*
G75*
G02*
X142350000Y-96585000I0J-75000D01*
G01*
X142350000Y-97985000D01*
G75*
G02*
X142275000Y-98060000I-75000J0D01*
G01*
X142125000Y-98060000D01*
G75*
G02*
X142050000Y-97985000I0J75000D01*
G01*
G37*
G04 #@! TD.AperFunction*
G04 #@! TA.AperFunction,SMDPad,CuDef*
G36*
G01*
X141550000Y-97985000D02*
X141550000Y-96585000D01*
G75*
G02*
X141625000Y-96510000I75000J0D01*
G01*
X141775000Y-96510000D01*
G75*
G02*
X141850000Y-96585000I0J-75000D01*
G01*
X141850000Y-97985000D01*
G75*
G02*
X141775000Y-98060000I-75000J0D01*
G01*
X141625000Y-98060000D01*
G75*
G02*
X141550000Y-97985000I0J75000D01*
G01*
G37*
G04 #@! TD.AperFunction*
G04 #@! TA.AperFunction,SMDPad,CuDef*
G36*
G01*
X141050000Y-97985000D02*
X141050000Y-96585000D01*
G75*
G02*
X141125000Y-96510000I75000J0D01*
G01*
X141275000Y-96510000D01*
G75*
G02*
X141350000Y-96585000I0J-75000D01*
G01*
X141350000Y-97985000D01*
G75*
G02*
X141275000Y-98060000I-75000J0D01*
G01*
X141125000Y-98060000D01*
G75*
G02*
X141050000Y-97985000I0J75000D01*
G01*
G37*
G04 #@! TD.AperFunction*
G04 #@! TA.AperFunction,SMDPad,CuDef*
G36*
G01*
X140550000Y-97985000D02*
X140550000Y-96585000D01*
G75*
G02*
X140625000Y-96510000I75000J0D01*
G01*
X140775000Y-96510000D01*
G75*
G02*
X140850000Y-96585000I0J-75000D01*
G01*
X140850000Y-97985000D01*
G75*
G02*
X140775000Y-98060000I-75000J0D01*
G01*
X140625000Y-98060000D01*
G75*
G02*
X140550000Y-97985000I0J75000D01*
G01*
G37*
G04 #@! TD.AperFunction*
G04 #@! TA.AperFunction,SMDPad,CuDef*
G36*
G01*
X140050000Y-97985000D02*
X140050000Y-96585000D01*
G75*
G02*
X140125000Y-96510000I75000J0D01*
G01*
X140275000Y-96510000D01*
G75*
G02*
X140350000Y-96585000I0J-75000D01*
G01*
X140350000Y-97985000D01*
G75*
G02*
X140275000Y-98060000I-75000J0D01*
G01*
X140125000Y-98060000D01*
G75*
G02*
X140050000Y-97985000I0J75000D01*
G01*
G37*
G04 #@! TD.AperFunction*
G04 #@! TA.AperFunction,SMDPad,CuDef*
G36*
G01*
X139550000Y-97985000D02*
X139550000Y-96585000D01*
G75*
G02*
X139625000Y-96510000I75000J0D01*
G01*
X139775000Y-96510000D01*
G75*
G02*
X139850000Y-96585000I0J-75000D01*
G01*
X139850000Y-97985000D01*
G75*
G02*
X139775000Y-98060000I-75000J0D01*
G01*
X139625000Y-98060000D01*
G75*
G02*
X139550000Y-97985000I0J75000D01*
G01*
G37*
G04 #@! TD.AperFunction*
G04 #@! TA.AperFunction,SMDPad,CuDef*
G36*
G01*
X139050000Y-97985000D02*
X139050000Y-96585000D01*
G75*
G02*
X139125000Y-96510000I75000J0D01*
G01*
X139275000Y-96510000D01*
G75*
G02*
X139350000Y-96585000I0J-75000D01*
G01*
X139350000Y-97985000D01*
G75*
G02*
X139275000Y-98060000I-75000J0D01*
G01*
X139125000Y-98060000D01*
G75*
G02*
X139050000Y-97985000I0J75000D01*
G01*
G37*
G04 #@! TD.AperFunction*
G04 #@! TA.AperFunction,SMDPad,CuDef*
G36*
G01*
X136500000Y-95435000D02*
X136500000Y-95285000D01*
G75*
G02*
X136575000Y-95210000I75000J0D01*
G01*
X137975000Y-95210000D01*
G75*
G02*
X138050000Y-95285000I0J-75000D01*
G01*
X138050000Y-95435000D01*
G75*
G02*
X137975000Y-95510000I-75000J0D01*
G01*
X136575000Y-95510000D01*
G75*
G02*
X136500000Y-95435000I0J75000D01*
G01*
G37*
G04 #@! TD.AperFunction*
G04 #@! TA.AperFunction,SMDPad,CuDef*
G36*
G01*
X136500000Y-94935000D02*
X136500000Y-94785000D01*
G75*
G02*
X136575000Y-94710000I75000J0D01*
G01*
X137975000Y-94710000D01*
G75*
G02*
X138050000Y-94785000I0J-75000D01*
G01*
X138050000Y-94935000D01*
G75*
G02*
X137975000Y-95010000I-75000J0D01*
G01*
X136575000Y-95010000D01*
G75*
G02*
X136500000Y-94935000I0J75000D01*
G01*
G37*
G04 #@! TD.AperFunction*
G04 #@! TA.AperFunction,SMDPad,CuDef*
G36*
G01*
X136500000Y-94435000D02*
X136500000Y-94285000D01*
G75*
G02*
X136575000Y-94210000I75000J0D01*
G01*
X137975000Y-94210000D01*
G75*
G02*
X138050000Y-94285000I0J-75000D01*
G01*
X138050000Y-94435000D01*
G75*
G02*
X137975000Y-94510000I-75000J0D01*
G01*
X136575000Y-94510000D01*
G75*
G02*
X136500000Y-94435000I0J75000D01*
G01*
G37*
G04 #@! TD.AperFunction*
G04 #@! TA.AperFunction,SMDPad,CuDef*
G36*
G01*
X136500000Y-93935000D02*
X136500000Y-93785000D01*
G75*
G02*
X136575000Y-93710000I75000J0D01*
G01*
X137975000Y-93710000D01*
G75*
G02*
X138050000Y-93785000I0J-75000D01*
G01*
X138050000Y-93935000D01*
G75*
G02*
X137975000Y-94010000I-75000J0D01*
G01*
X136575000Y-94010000D01*
G75*
G02*
X136500000Y-93935000I0J75000D01*
G01*
G37*
G04 #@! TD.AperFunction*
G04 #@! TA.AperFunction,SMDPad,CuDef*
G36*
G01*
X136500000Y-93435000D02*
X136500000Y-93285000D01*
G75*
G02*
X136575000Y-93210000I75000J0D01*
G01*
X137975000Y-93210000D01*
G75*
G02*
X138050000Y-93285000I0J-75000D01*
G01*
X138050000Y-93435000D01*
G75*
G02*
X137975000Y-93510000I-75000J0D01*
G01*
X136575000Y-93510000D01*
G75*
G02*
X136500000Y-93435000I0J75000D01*
G01*
G37*
G04 #@! TD.AperFunction*
G04 #@! TA.AperFunction,SMDPad,CuDef*
G36*
G01*
X136500000Y-92935000D02*
X136500000Y-92785000D01*
G75*
G02*
X136575000Y-92710000I75000J0D01*
G01*
X137975000Y-92710000D01*
G75*
G02*
X138050000Y-92785000I0J-75000D01*
G01*
X138050000Y-92935000D01*
G75*
G02*
X137975000Y-93010000I-75000J0D01*
G01*
X136575000Y-93010000D01*
G75*
G02*
X136500000Y-92935000I0J75000D01*
G01*
G37*
G04 #@! TD.AperFunction*
G04 #@! TA.AperFunction,SMDPad,CuDef*
G36*
G01*
X136500000Y-92435000D02*
X136500000Y-92285000D01*
G75*
G02*
X136575000Y-92210000I75000J0D01*
G01*
X137975000Y-92210000D01*
G75*
G02*
X138050000Y-92285000I0J-75000D01*
G01*
X138050000Y-92435000D01*
G75*
G02*
X137975000Y-92510000I-75000J0D01*
G01*
X136575000Y-92510000D01*
G75*
G02*
X136500000Y-92435000I0J75000D01*
G01*
G37*
G04 #@! TD.AperFunction*
G04 #@! TA.AperFunction,SMDPad,CuDef*
G36*
G01*
X136500000Y-91935000D02*
X136500000Y-91785000D01*
G75*
G02*
X136575000Y-91710000I75000J0D01*
G01*
X137975000Y-91710000D01*
G75*
G02*
X138050000Y-91785000I0J-75000D01*
G01*
X138050000Y-91935000D01*
G75*
G02*
X137975000Y-92010000I-75000J0D01*
G01*
X136575000Y-92010000D01*
G75*
G02*
X136500000Y-91935000I0J75000D01*
G01*
G37*
G04 #@! TD.AperFunction*
G04 #@! TA.AperFunction,SMDPad,CuDef*
G36*
G01*
X136500000Y-91435000D02*
X136500000Y-91285000D01*
G75*
G02*
X136575000Y-91210000I75000J0D01*
G01*
X137975000Y-91210000D01*
G75*
G02*
X138050000Y-91285000I0J-75000D01*
G01*
X138050000Y-91435000D01*
G75*
G02*
X137975000Y-91510000I-75000J0D01*
G01*
X136575000Y-91510000D01*
G75*
G02*
X136500000Y-91435000I0J75000D01*
G01*
G37*
G04 #@! TD.AperFunction*
G04 #@! TA.AperFunction,SMDPad,CuDef*
G36*
G01*
X136500000Y-90935000D02*
X136500000Y-90785000D01*
G75*
G02*
X136575000Y-90710000I75000J0D01*
G01*
X137975000Y-90710000D01*
G75*
G02*
X138050000Y-90785000I0J-75000D01*
G01*
X138050000Y-90935000D01*
G75*
G02*
X137975000Y-91010000I-75000J0D01*
G01*
X136575000Y-91010000D01*
G75*
G02*
X136500000Y-90935000I0J75000D01*
G01*
G37*
G04 #@! TD.AperFunction*
G04 #@! TA.AperFunction,SMDPad,CuDef*
G36*
G01*
X136500000Y-90435000D02*
X136500000Y-90285000D01*
G75*
G02*
X136575000Y-90210000I75000J0D01*
G01*
X137975000Y-90210000D01*
G75*
G02*
X138050000Y-90285000I0J-75000D01*
G01*
X138050000Y-90435000D01*
G75*
G02*
X137975000Y-90510000I-75000J0D01*
G01*
X136575000Y-90510000D01*
G75*
G02*
X136500000Y-90435000I0J75000D01*
G01*
G37*
G04 #@! TD.AperFunction*
G04 #@! TA.AperFunction,SMDPad,CuDef*
G36*
G01*
X136500000Y-89935000D02*
X136500000Y-89785000D01*
G75*
G02*
X136575000Y-89710000I75000J0D01*
G01*
X137975000Y-89710000D01*
G75*
G02*
X138050000Y-89785000I0J-75000D01*
G01*
X138050000Y-89935000D01*
G75*
G02*
X137975000Y-90010000I-75000J0D01*
G01*
X136575000Y-90010000D01*
G75*
G02*
X136500000Y-89935000I0J75000D01*
G01*
G37*
G04 #@! TD.AperFunction*
G04 #@! TA.AperFunction,SMDPad,CuDef*
G36*
G01*
X136500000Y-89435000D02*
X136500000Y-89285000D01*
G75*
G02*
X136575000Y-89210000I75000J0D01*
G01*
X137975000Y-89210000D01*
G75*
G02*
X138050000Y-89285000I0J-75000D01*
G01*
X138050000Y-89435000D01*
G75*
G02*
X137975000Y-89510000I-75000J0D01*
G01*
X136575000Y-89510000D01*
G75*
G02*
X136500000Y-89435000I0J75000D01*
G01*
G37*
G04 #@! TD.AperFunction*
G04 #@! TA.AperFunction,SMDPad,CuDef*
G36*
G01*
X136500000Y-88935000D02*
X136500000Y-88785000D01*
G75*
G02*
X136575000Y-88710000I75000J0D01*
G01*
X137975000Y-88710000D01*
G75*
G02*
X138050000Y-88785000I0J-75000D01*
G01*
X138050000Y-88935000D01*
G75*
G02*
X137975000Y-89010000I-75000J0D01*
G01*
X136575000Y-89010000D01*
G75*
G02*
X136500000Y-88935000I0J75000D01*
G01*
G37*
G04 #@! TD.AperFunction*
G04 #@! TA.AperFunction,SMDPad,CuDef*
G36*
G01*
X136500000Y-88435000D02*
X136500000Y-88285000D01*
G75*
G02*
X136575000Y-88210000I75000J0D01*
G01*
X137975000Y-88210000D01*
G75*
G02*
X138050000Y-88285000I0J-75000D01*
G01*
X138050000Y-88435000D01*
G75*
G02*
X137975000Y-88510000I-75000J0D01*
G01*
X136575000Y-88510000D01*
G75*
G02*
X136500000Y-88435000I0J75000D01*
G01*
G37*
G04 #@! TD.AperFunction*
G04 #@! TA.AperFunction,SMDPad,CuDef*
G36*
G01*
X136500000Y-87935000D02*
X136500000Y-87785000D01*
G75*
G02*
X136575000Y-87710000I75000J0D01*
G01*
X137975000Y-87710000D01*
G75*
G02*
X138050000Y-87785000I0J-75000D01*
G01*
X138050000Y-87935000D01*
G75*
G02*
X137975000Y-88010000I-75000J0D01*
G01*
X136575000Y-88010000D01*
G75*
G02*
X136500000Y-87935000I0J75000D01*
G01*
G37*
G04 #@! TD.AperFunction*
G04 #@! TA.AperFunction,SMDPad,CuDef*
G36*
G01*
X147770001Y-111360000D02*
X146869999Y-111360000D01*
G75*
G02*
X146620000Y-111110001I0J249999D01*
G01*
X146620000Y-110584999D01*
G75*
G02*
X146869999Y-110335000I249999J0D01*
G01*
X147770001Y-110335000D01*
G75*
G02*
X148020000Y-110584999I0J-249999D01*
G01*
X148020000Y-111110001D01*
G75*
G02*
X147770001Y-111360000I-249999J0D01*
G01*
G37*
G04 #@! TD.AperFunction*
G04 #@! TA.AperFunction,SMDPad,CuDef*
G36*
G01*
X147770001Y-113185000D02*
X146869999Y-113185000D01*
G75*
G02*
X146620000Y-112935001I0J249999D01*
G01*
X146620000Y-112409999D01*
G75*
G02*
X146869999Y-112160000I249999J0D01*
G01*
X147770001Y-112160000D01*
G75*
G02*
X148020000Y-112409999I0J-249999D01*
G01*
X148020000Y-112935001D01*
G75*
G02*
X147770001Y-113185000I-249999J0D01*
G01*
G37*
G04 #@! TD.AperFunction*
G04 #@! TA.AperFunction,SMDPad,CuDef*
G36*
G01*
X114115001Y-78975000D02*
X113214999Y-78975000D01*
G75*
G02*
X112965000Y-78725001I0J249999D01*
G01*
X112965000Y-78199999D01*
G75*
G02*
X113214999Y-77950000I249999J0D01*
G01*
X114115001Y-77950000D01*
G75*
G02*
X114365000Y-78199999I0J-249999D01*
G01*
X114365000Y-78725001D01*
G75*
G02*
X114115001Y-78975000I-249999J0D01*
G01*
G37*
G04 #@! TD.AperFunction*
G04 #@! TA.AperFunction,SMDPad,CuDef*
G36*
G01*
X114115001Y-80800000D02*
X113214999Y-80800000D01*
G75*
G02*
X112965000Y-80550001I0J249999D01*
G01*
X112965000Y-80024999D01*
G75*
G02*
X113214999Y-79775000I249999J0D01*
G01*
X114115001Y-79775000D01*
G75*
G02*
X114365000Y-80024999I0J-249999D01*
G01*
X114365000Y-80550001D01*
G75*
G02*
X114115001Y-80800000I-249999J0D01*
G01*
G37*
G04 #@! TD.AperFunction*
G04 #@! TA.AperFunction,SMDPad,CuDef*
G36*
G01*
X113214999Y-93745000D02*
X114115001Y-93745000D01*
G75*
G02*
X114365000Y-93994999I0J-249999D01*
G01*
X114365000Y-94520001D01*
G75*
G02*
X114115001Y-94770000I-249999J0D01*
G01*
X113214999Y-94770000D01*
G75*
G02*
X112965000Y-94520001I0J249999D01*
G01*
X112965000Y-93994999D01*
G75*
G02*
X113214999Y-93745000I249999J0D01*
G01*
G37*
G04 #@! TD.AperFunction*
G04 #@! TA.AperFunction,SMDPad,CuDef*
G36*
G01*
X113214999Y-91920000D02*
X114115001Y-91920000D01*
G75*
G02*
X114365000Y-92169999I0J-249999D01*
G01*
X114365000Y-92695001D01*
G75*
G02*
X114115001Y-92945000I-249999J0D01*
G01*
X113214999Y-92945000D01*
G75*
G02*
X112965000Y-92695001I0J249999D01*
G01*
X112965000Y-92169999D01*
G75*
G02*
X113214999Y-91920000I249999J0D01*
G01*
G37*
G04 #@! TD.AperFunction*
G04 #@! TA.AperFunction,SMDPad,CuDef*
G36*
G01*
X115335000Y-76015001D02*
X115335000Y-75114999D01*
G75*
G02*
X115584999Y-74865000I249999J0D01*
G01*
X116110001Y-74865000D01*
G75*
G02*
X116360000Y-75114999I0J-249999D01*
G01*
X116360000Y-76015001D01*
G75*
G02*
X116110001Y-76265000I-249999J0D01*
G01*
X115584999Y-76265000D01*
G75*
G02*
X115335000Y-76015001I0J249999D01*
G01*
G37*
G04 #@! TD.AperFunction*
G04 #@! TA.AperFunction,SMDPad,CuDef*
G36*
G01*
X113510000Y-76015001D02*
X113510000Y-75114999D01*
G75*
G02*
X113759999Y-74865000I249999J0D01*
G01*
X114285001Y-74865000D01*
G75*
G02*
X114535000Y-75114999I0J-249999D01*
G01*
X114535000Y-76015001D01*
G75*
G02*
X114285001Y-76265000I-249999J0D01*
G01*
X113759999Y-76265000D01*
G75*
G02*
X113510000Y-76015001I0J249999D01*
G01*
G37*
G04 #@! TD.AperFunction*
G04 #@! TA.AperFunction,SMDPad,CuDef*
G36*
G01*
X115057500Y-96970001D02*
X115057500Y-96069999D01*
G75*
G02*
X115307499Y-95820000I249999J0D01*
G01*
X115832501Y-95820000D01*
G75*
G02*
X116082500Y-96069999I0J-249999D01*
G01*
X116082500Y-96970001D01*
G75*
G02*
X115832501Y-97220000I-249999J0D01*
G01*
X115307499Y-97220000D01*
G75*
G02*
X115057500Y-96970001I0J249999D01*
G01*
G37*
G04 #@! TD.AperFunction*
G04 #@! TA.AperFunction,SMDPad,CuDef*
G36*
G01*
X113232500Y-96970001D02*
X113232500Y-96069999D01*
G75*
G02*
X113482499Y-95820000I249999J0D01*
G01*
X114007501Y-95820000D01*
G75*
G02*
X114257500Y-96069999I0J-249999D01*
G01*
X114257500Y-96970001D01*
G75*
G02*
X114007501Y-97220000I-249999J0D01*
G01*
X113482499Y-97220000D01*
G75*
G02*
X113232500Y-96970001I0J249999D01*
G01*
G37*
G04 #@! TD.AperFunction*
G04 #@! TA.AperFunction,SMDPad,CuDef*
G36*
G01*
X160839999Y-75965000D02*
X161740001Y-75965000D01*
G75*
G02*
X161990000Y-76214999I0J-249999D01*
G01*
X161990000Y-76740001D01*
G75*
G02*
X161740001Y-76990000I-249999J0D01*
G01*
X160839999Y-76990000D01*
G75*
G02*
X160590000Y-76740001I0J249999D01*
G01*
X160590000Y-76214999D01*
G75*
G02*
X160839999Y-75965000I249999J0D01*
G01*
G37*
G04 #@! TD.AperFunction*
G04 #@! TA.AperFunction,SMDPad,CuDef*
G36*
G01*
X160839999Y-74140000D02*
X161740001Y-74140000D01*
G75*
G02*
X161990000Y-74389999I0J-249999D01*
G01*
X161990000Y-74915001D01*
G75*
G02*
X161740001Y-75165000I-249999J0D01*
G01*
X160839999Y-75165000D01*
G75*
G02*
X160590000Y-74915001I0J249999D01*
G01*
X160590000Y-74389999D01*
G75*
G02*
X160839999Y-74140000I249999J0D01*
G01*
G37*
G04 #@! TD.AperFunction*
G04 #@! TA.AperFunction,SMDPad,CuDef*
G36*
G01*
X156394999Y-75965000D02*
X157295001Y-75965000D01*
G75*
G02*
X157545000Y-76214999I0J-249999D01*
G01*
X157545000Y-76740001D01*
G75*
G02*
X157295001Y-76990000I-249999J0D01*
G01*
X156394999Y-76990000D01*
G75*
G02*
X156145000Y-76740001I0J249999D01*
G01*
X156145000Y-76214999D01*
G75*
G02*
X156394999Y-75965000I249999J0D01*
G01*
G37*
G04 #@! TD.AperFunction*
G04 #@! TA.AperFunction,SMDPad,CuDef*
G36*
G01*
X156394999Y-74140000D02*
X157295001Y-74140000D01*
G75*
G02*
X157545000Y-74389999I0J-249999D01*
G01*
X157545000Y-74915001D01*
G75*
G02*
X157295001Y-75165000I-249999J0D01*
G01*
X156394999Y-75165000D01*
G75*
G02*
X156145000Y-74915001I0J249999D01*
G01*
X156145000Y-74389999D01*
G75*
G02*
X156394999Y-74140000I249999J0D01*
G01*
G37*
G04 #@! TD.AperFunction*
G04 #@! TA.AperFunction,SMDPad,CuDef*
G36*
G01*
X151949999Y-75965000D02*
X152850001Y-75965000D01*
G75*
G02*
X153100000Y-76214999I0J-249999D01*
G01*
X153100000Y-76740001D01*
G75*
G02*
X152850001Y-76990000I-249999J0D01*
G01*
X151949999Y-76990000D01*
G75*
G02*
X151700000Y-76740001I0J249999D01*
G01*
X151700000Y-76214999D01*
G75*
G02*
X151949999Y-75965000I249999J0D01*
G01*
G37*
G04 #@! TD.AperFunction*
G04 #@! TA.AperFunction,SMDPad,CuDef*
G36*
G01*
X151949999Y-74140000D02*
X152850001Y-74140000D01*
G75*
G02*
X153100000Y-74389999I0J-249999D01*
G01*
X153100000Y-74915001D01*
G75*
G02*
X152850001Y-75165000I-249999J0D01*
G01*
X151949999Y-75165000D01*
G75*
G02*
X151700000Y-74915001I0J249999D01*
G01*
X151700000Y-74389999D01*
G75*
G02*
X151949999Y-74140000I249999J0D01*
G01*
G37*
G04 #@! TD.AperFunction*
G04 #@! TA.AperFunction,SMDPad,CuDef*
G36*
G01*
X147504999Y-75965000D02*
X148405001Y-75965000D01*
G75*
G02*
X148655000Y-76214999I0J-249999D01*
G01*
X148655000Y-76740001D01*
G75*
G02*
X148405001Y-76990000I-249999J0D01*
G01*
X147504999Y-76990000D01*
G75*
G02*
X147255000Y-76740001I0J249999D01*
G01*
X147255000Y-76214999D01*
G75*
G02*
X147504999Y-75965000I249999J0D01*
G01*
G37*
G04 #@! TD.AperFunction*
G04 #@! TA.AperFunction,SMDPad,CuDef*
G36*
G01*
X147504999Y-74140000D02*
X148405001Y-74140000D01*
G75*
G02*
X148655000Y-74389999I0J-249999D01*
G01*
X148655000Y-74915001D01*
G75*
G02*
X148405001Y-75165000I-249999J0D01*
G01*
X147504999Y-75165000D01*
G75*
G02*
X147255000Y-74915001I0J249999D01*
G01*
X147255000Y-74389999D01*
G75*
G02*
X147504999Y-74140000I249999J0D01*
G01*
G37*
G04 #@! TD.AperFunction*
G04 #@! TA.AperFunction,SMDPad,CuDef*
G36*
G01*
X144964999Y-75965000D02*
X145865001Y-75965000D01*
G75*
G02*
X146115000Y-76214999I0J-249999D01*
G01*
X146115000Y-76740001D01*
G75*
G02*
X145865001Y-76990000I-249999J0D01*
G01*
X144964999Y-76990000D01*
G75*
G02*
X144715000Y-76740001I0J249999D01*
G01*
X144715000Y-76214999D01*
G75*
G02*
X144964999Y-75965000I249999J0D01*
G01*
G37*
G04 #@! TD.AperFunction*
G04 #@! TA.AperFunction,SMDPad,CuDef*
G36*
G01*
X144964999Y-74140000D02*
X145865001Y-74140000D01*
G75*
G02*
X146115000Y-74389999I0J-249999D01*
G01*
X146115000Y-74915001D01*
G75*
G02*
X145865001Y-75165000I-249999J0D01*
G01*
X144964999Y-75165000D01*
G75*
G02*
X144715000Y-74915001I0J249999D01*
G01*
X144715000Y-74389999D01*
G75*
G02*
X144964999Y-74140000I249999J0D01*
G01*
G37*
G04 #@! TD.AperFunction*
G04 #@! TA.AperFunction,SMDPad,CuDef*
G36*
G01*
X140519999Y-75965000D02*
X141420001Y-75965000D01*
G75*
G02*
X141670000Y-76214999I0J-249999D01*
G01*
X141670000Y-76740001D01*
G75*
G02*
X141420001Y-76990000I-249999J0D01*
G01*
X140519999Y-76990000D01*
G75*
G02*
X140270000Y-76740001I0J249999D01*
G01*
X140270000Y-76214999D01*
G75*
G02*
X140519999Y-75965000I249999J0D01*
G01*
G37*
G04 #@! TD.AperFunction*
G04 #@! TA.AperFunction,SMDPad,CuDef*
G36*
G01*
X140519999Y-74140000D02*
X141420001Y-74140000D01*
G75*
G02*
X141670000Y-74389999I0J-249999D01*
G01*
X141670000Y-74915001D01*
G75*
G02*
X141420001Y-75165000I-249999J0D01*
G01*
X140519999Y-75165000D01*
G75*
G02*
X140270000Y-74915001I0J249999D01*
G01*
X140270000Y-74389999D01*
G75*
G02*
X140519999Y-74140000I249999J0D01*
G01*
G37*
G04 #@! TD.AperFunction*
G04 #@! TA.AperFunction,SMDPad,CuDef*
G36*
G01*
X139515001Y-75165000D02*
X138614999Y-75165000D01*
G75*
G02*
X138365000Y-74915001I0J249999D01*
G01*
X138365000Y-74389999D01*
G75*
G02*
X138614999Y-74140000I249999J0D01*
G01*
X139515001Y-74140000D01*
G75*
G02*
X139765000Y-74389999I0J-249999D01*
G01*
X139765000Y-74915001D01*
G75*
G02*
X139515001Y-75165000I-249999J0D01*
G01*
G37*
G04 #@! TD.AperFunction*
G04 #@! TA.AperFunction,SMDPad,CuDef*
G36*
G01*
X139515001Y-76990000D02*
X138614999Y-76990000D01*
G75*
G02*
X138365000Y-76740001I0J249999D01*
G01*
X138365000Y-76214999D01*
G75*
G02*
X138614999Y-75965000I249999J0D01*
G01*
X139515001Y-75965000D01*
G75*
G02*
X139765000Y-76214999I0J-249999D01*
G01*
X139765000Y-76740001D01*
G75*
G02*
X139515001Y-76990000I-249999J0D01*
G01*
G37*
G04 #@! TD.AperFunction*
G04 #@! TA.AperFunction,SMDPad,CuDef*
G36*
G01*
X143960001Y-75165000D02*
X143059999Y-75165000D01*
G75*
G02*
X142810000Y-74915001I0J249999D01*
G01*
X142810000Y-74389999D01*
G75*
G02*
X143059999Y-74140000I249999J0D01*
G01*
X143960001Y-74140000D01*
G75*
G02*
X144210000Y-74389999I0J-249999D01*
G01*
X144210000Y-74915001D01*
G75*
G02*
X143960001Y-75165000I-249999J0D01*
G01*
G37*
G04 #@! TD.AperFunction*
G04 #@! TA.AperFunction,SMDPad,CuDef*
G36*
G01*
X143960001Y-76990000D02*
X143059999Y-76990000D01*
G75*
G02*
X142810000Y-76740001I0J249999D01*
G01*
X142810000Y-76214999D01*
G75*
G02*
X143059999Y-75965000I249999J0D01*
G01*
X143960001Y-75965000D01*
G75*
G02*
X144210000Y-76214999I0J-249999D01*
G01*
X144210000Y-76740001D01*
G75*
G02*
X143960001Y-76990000I-249999J0D01*
G01*
G37*
G04 #@! TD.AperFunction*
G04 #@! TA.AperFunction,SMDPad,CuDef*
G36*
G01*
X150310001Y-75165000D02*
X149409999Y-75165000D01*
G75*
G02*
X149160000Y-74915001I0J249999D01*
G01*
X149160000Y-74389999D01*
G75*
G02*
X149409999Y-74140000I249999J0D01*
G01*
X150310001Y-74140000D01*
G75*
G02*
X150560000Y-74389999I0J-249999D01*
G01*
X150560000Y-74915001D01*
G75*
G02*
X150310001Y-75165000I-249999J0D01*
G01*
G37*
G04 #@! TD.AperFunction*
G04 #@! TA.AperFunction,SMDPad,CuDef*
G36*
G01*
X150310001Y-76990000D02*
X149409999Y-76990000D01*
G75*
G02*
X149160000Y-76740001I0J249999D01*
G01*
X149160000Y-76214999D01*
G75*
G02*
X149409999Y-75965000I249999J0D01*
G01*
X150310001Y-75965000D01*
G75*
G02*
X150560000Y-76214999I0J-249999D01*
G01*
X150560000Y-76740001D01*
G75*
G02*
X150310001Y-76990000I-249999J0D01*
G01*
G37*
G04 #@! TD.AperFunction*
G04 #@! TA.AperFunction,SMDPad,CuDef*
G36*
G01*
X154755001Y-75165000D02*
X153854999Y-75165000D01*
G75*
G02*
X153605000Y-74915001I0J249999D01*
G01*
X153605000Y-74389999D01*
G75*
G02*
X153854999Y-74140000I249999J0D01*
G01*
X154755001Y-74140000D01*
G75*
G02*
X155005000Y-74389999I0J-249999D01*
G01*
X155005000Y-74915001D01*
G75*
G02*
X154755001Y-75165000I-249999J0D01*
G01*
G37*
G04 #@! TD.AperFunction*
G04 #@! TA.AperFunction,SMDPad,CuDef*
G36*
G01*
X154755001Y-76990000D02*
X153854999Y-76990000D01*
G75*
G02*
X153605000Y-76740001I0J249999D01*
G01*
X153605000Y-76214999D01*
G75*
G02*
X153854999Y-75965000I249999J0D01*
G01*
X154755001Y-75965000D01*
G75*
G02*
X155005000Y-76214999I0J-249999D01*
G01*
X155005000Y-76740001D01*
G75*
G02*
X154755001Y-76990000I-249999J0D01*
G01*
G37*
G04 #@! TD.AperFunction*
G04 #@! TA.AperFunction,SMDPad,CuDef*
G36*
G01*
X159200001Y-75165000D02*
X158299999Y-75165000D01*
G75*
G02*
X158050000Y-74915001I0J249999D01*
G01*
X158050000Y-74389999D01*
G75*
G02*
X158299999Y-74140000I249999J0D01*
G01*
X159200001Y-74140000D01*
G75*
G02*
X159450000Y-74389999I0J-249999D01*
G01*
X159450000Y-74915001D01*
G75*
G02*
X159200001Y-75165000I-249999J0D01*
G01*
G37*
G04 #@! TD.AperFunction*
G04 #@! TA.AperFunction,SMDPad,CuDef*
G36*
G01*
X159200001Y-76990000D02*
X158299999Y-76990000D01*
G75*
G02*
X158050000Y-76740001I0J249999D01*
G01*
X158050000Y-76214999D01*
G75*
G02*
X158299999Y-75965000I249999J0D01*
G01*
X159200001Y-75965000D01*
G75*
G02*
X159450000Y-76214999I0J-249999D01*
G01*
X159450000Y-76740001D01*
G75*
G02*
X159200001Y-76990000I-249999J0D01*
G01*
G37*
G04 #@! TD.AperFunction*
G04 #@! TA.AperFunction,SMDPad,CuDef*
G36*
G01*
X163645001Y-75165000D02*
X162744999Y-75165000D01*
G75*
G02*
X162495000Y-74915001I0J249999D01*
G01*
X162495000Y-74389999D01*
G75*
G02*
X162744999Y-74140000I249999J0D01*
G01*
X163645001Y-74140000D01*
G75*
G02*
X163895000Y-74389999I0J-249999D01*
G01*
X163895000Y-74915001D01*
G75*
G02*
X163645001Y-75165000I-249999J0D01*
G01*
G37*
G04 #@! TD.AperFunction*
G04 #@! TA.AperFunction,SMDPad,CuDef*
G36*
G01*
X163645001Y-76990000D02*
X162744999Y-76990000D01*
G75*
G02*
X162495000Y-76740001I0J249999D01*
G01*
X162495000Y-76214999D01*
G75*
G02*
X162744999Y-75965000I249999J0D01*
G01*
X163645001Y-75965000D01*
G75*
G02*
X163895000Y-76214999I0J-249999D01*
G01*
X163895000Y-76740001D01*
G75*
G02*
X163645001Y-76990000I-249999J0D01*
G01*
G37*
G04 #@! TD.AperFunction*
G04 #@! TA.AperFunction,SMDPad,CuDef*
G36*
G01*
X168040000Y-113480001D02*
X168040000Y-112579999D01*
G75*
G02*
X168289999Y-112330000I249999J0D01*
G01*
X168815001Y-112330000D01*
G75*
G02*
X169065000Y-112579999I0J-249999D01*
G01*
X169065000Y-113480001D01*
G75*
G02*
X168815001Y-113730000I-249999J0D01*
G01*
X168289999Y-113730000D01*
G75*
G02*
X168040000Y-113480001I0J249999D01*
G01*
G37*
G04 #@! TD.AperFunction*
G04 #@! TA.AperFunction,SMDPad,CuDef*
G36*
G01*
X166215000Y-113480001D02*
X166215000Y-112579999D01*
G75*
G02*
X166464999Y-112330000I249999J0D01*
G01*
X166990001Y-112330000D01*
G75*
G02*
X167240000Y-112579999I0J-249999D01*
G01*
X167240000Y-113480001D01*
G75*
G02*
X166990001Y-113730000I-249999J0D01*
G01*
X166464999Y-113730000D01*
G75*
G02*
X166215000Y-113480001I0J249999D01*
G01*
G37*
G04 #@! TD.AperFunction*
G04 #@! TA.AperFunction,SMDPad,CuDef*
G36*
G01*
X168040000Y-102685001D02*
X168040000Y-101784999D01*
G75*
G02*
X168289999Y-101535000I249999J0D01*
G01*
X168815001Y-101535000D01*
G75*
G02*
X169065000Y-101784999I0J-249999D01*
G01*
X169065000Y-102685001D01*
G75*
G02*
X168815001Y-102935000I-249999J0D01*
G01*
X168289999Y-102935000D01*
G75*
G02*
X168040000Y-102685001I0J249999D01*
G01*
G37*
G04 #@! TD.AperFunction*
G04 #@! TA.AperFunction,SMDPad,CuDef*
G36*
G01*
X166215000Y-102685001D02*
X166215000Y-101784999D01*
G75*
G02*
X166464999Y-101535000I249999J0D01*
G01*
X166990001Y-101535000D01*
G75*
G02*
X167240000Y-101784999I0J-249999D01*
G01*
X167240000Y-102685001D01*
G75*
G02*
X166990001Y-102935000I-249999J0D01*
G01*
X166464999Y-102935000D01*
G75*
G02*
X166215000Y-102685001I0J249999D01*
G01*
G37*
G04 #@! TD.AperFunction*
G04 #@! TA.AperFunction,SMDPad,CuDef*
G36*
G01*
X168040000Y-91890001D02*
X168040000Y-90989999D01*
G75*
G02*
X168289999Y-90740000I249999J0D01*
G01*
X168815001Y-90740000D01*
G75*
G02*
X169065000Y-90989999I0J-249999D01*
G01*
X169065000Y-91890001D01*
G75*
G02*
X168815001Y-92140000I-249999J0D01*
G01*
X168289999Y-92140000D01*
G75*
G02*
X168040000Y-91890001I0J249999D01*
G01*
G37*
G04 #@! TD.AperFunction*
G04 #@! TA.AperFunction,SMDPad,CuDef*
G36*
G01*
X166215000Y-91890001D02*
X166215000Y-90989999D01*
G75*
G02*
X166464999Y-90740000I249999J0D01*
G01*
X166990001Y-90740000D01*
G75*
G02*
X167240000Y-90989999I0J-249999D01*
G01*
X167240000Y-91890001D01*
G75*
G02*
X166990001Y-92140000I-249999J0D01*
G01*
X166464999Y-92140000D01*
G75*
G02*
X166215000Y-91890001I0J249999D01*
G01*
G37*
G04 #@! TD.AperFunction*
G04 #@! TA.AperFunction,SMDPad,CuDef*
G36*
G01*
X168040000Y-81095001D02*
X168040000Y-80194999D01*
G75*
G02*
X168289999Y-79945000I249999J0D01*
G01*
X168815001Y-79945000D01*
G75*
G02*
X169065000Y-80194999I0J-249999D01*
G01*
X169065000Y-81095001D01*
G75*
G02*
X168815001Y-81345000I-249999J0D01*
G01*
X168289999Y-81345000D01*
G75*
G02*
X168040000Y-81095001I0J249999D01*
G01*
G37*
G04 #@! TD.AperFunction*
G04 #@! TA.AperFunction,SMDPad,CuDef*
G36*
G01*
X166215000Y-81095001D02*
X166215000Y-80194999D01*
G75*
G02*
X166464999Y-79945000I249999J0D01*
G01*
X166990001Y-79945000D01*
G75*
G02*
X167240000Y-80194999I0J-249999D01*
G01*
X167240000Y-81095001D01*
G75*
G02*
X166990001Y-81345000I-249999J0D01*
G01*
X166464999Y-81345000D01*
G75*
G02*
X166215000Y-81095001I0J249999D01*
G01*
G37*
G04 #@! TD.AperFunction*
G04 #@! TA.AperFunction,SMDPad,CuDef*
G36*
G01*
X168040000Y-70300001D02*
X168040000Y-69399999D01*
G75*
G02*
X168289999Y-69150000I249999J0D01*
G01*
X168815001Y-69150000D01*
G75*
G02*
X169065000Y-69399999I0J-249999D01*
G01*
X169065000Y-70300001D01*
G75*
G02*
X168815001Y-70550000I-249999J0D01*
G01*
X168289999Y-70550000D01*
G75*
G02*
X168040000Y-70300001I0J249999D01*
G01*
G37*
G04 #@! TD.AperFunction*
G04 #@! TA.AperFunction,SMDPad,CuDef*
G36*
G01*
X166215000Y-70300001D02*
X166215000Y-69399999D01*
G75*
G02*
X166464999Y-69150000I249999J0D01*
G01*
X166990001Y-69150000D01*
G75*
G02*
X167240000Y-69399999I0J-249999D01*
G01*
X167240000Y-70300001D01*
G75*
G02*
X166990001Y-70550000I-249999J0D01*
G01*
X166464999Y-70550000D01*
G75*
G02*
X166215000Y-70300001I0J249999D01*
G01*
G37*
G04 #@! TD.AperFunction*
G04 #@! TA.AperFunction,SMDPad,CuDef*
G36*
G01*
X168040000Y-59505001D02*
X168040000Y-58604999D01*
G75*
G02*
X168289999Y-58355000I249999J0D01*
G01*
X168815001Y-58355000D01*
G75*
G02*
X169065000Y-58604999I0J-249999D01*
G01*
X169065000Y-59505001D01*
G75*
G02*
X168815001Y-59755000I-249999J0D01*
G01*
X168289999Y-59755000D01*
G75*
G02*
X168040000Y-59505001I0J249999D01*
G01*
G37*
G04 #@! TD.AperFunction*
G04 #@! TA.AperFunction,SMDPad,CuDef*
G36*
G01*
X166215000Y-59505001D02*
X166215000Y-58604999D01*
G75*
G02*
X166464999Y-58355000I249999J0D01*
G01*
X166990001Y-58355000D01*
G75*
G02*
X167240000Y-58604999I0J-249999D01*
G01*
X167240000Y-59505001D01*
G75*
G02*
X166990001Y-59755000I-249999J0D01*
G01*
X166464999Y-59755000D01*
G75*
G02*
X166215000Y-59505001I0J249999D01*
G01*
G37*
G04 #@! TD.AperFunction*
G04 #@! TA.AperFunction,SMDPad,CuDef*
G36*
G01*
X138284000Y-78797999D02*
X138284000Y-79698001D01*
G75*
G02*
X138034001Y-79948000I-249999J0D01*
G01*
X137508999Y-79948000D01*
G75*
G02*
X137259000Y-79698001I0J249999D01*
G01*
X137259000Y-78797999D01*
G75*
G02*
X137508999Y-78548000I249999J0D01*
G01*
X138034001Y-78548000D01*
G75*
G02*
X138284000Y-78797999I0J-249999D01*
G01*
G37*
G04 #@! TD.AperFunction*
G04 #@! TA.AperFunction,SMDPad,CuDef*
G36*
G01*
X140109000Y-78797999D02*
X140109000Y-79698001D01*
G75*
G02*
X139859001Y-79948000I-249999J0D01*
G01*
X139333999Y-79948000D01*
G75*
G02*
X139084000Y-79698001I0J249999D01*
G01*
X139084000Y-78797999D01*
G75*
G02*
X139333999Y-78548000I249999J0D01*
G01*
X139859001Y-78548000D01*
G75*
G02*
X140109000Y-78797999I0J-249999D01*
G01*
G37*
G04 #@! TD.AperFunction*
G04 #@! TA.AperFunction,SMDPad,CuDef*
G36*
G01*
X132530001Y-85960000D02*
X131629999Y-85960000D01*
G75*
G02*
X131380000Y-85710001I0J249999D01*
G01*
X131380000Y-85184999D01*
G75*
G02*
X131629999Y-84935000I249999J0D01*
G01*
X132530001Y-84935000D01*
G75*
G02*
X132780000Y-85184999I0J-249999D01*
G01*
X132780000Y-85710001D01*
G75*
G02*
X132530001Y-85960000I-249999J0D01*
G01*
G37*
G04 #@! TD.AperFunction*
G04 #@! TA.AperFunction,SMDPad,CuDef*
G36*
G01*
X132530001Y-87785000D02*
X131629999Y-87785000D01*
G75*
G02*
X131380000Y-87535001I0J249999D01*
G01*
X131380000Y-87009999D01*
G75*
G02*
X131629999Y-86760000I249999J0D01*
G01*
X132530001Y-86760000D01*
G75*
G02*
X132780000Y-87009999I0J-249999D01*
G01*
X132780000Y-87535001D01*
G75*
G02*
X132530001Y-87785000I-249999J0D01*
G01*
G37*
G04 #@! TD.AperFunction*
D18*
X143145000Y-111760000D03*
X145145000Y-110810000D03*
X145145000Y-112710000D03*
D19*
X173550000Y-118110000D03*
D20*
X167250000Y-120390000D03*
X167250000Y-115830000D03*
D19*
X173550000Y-107315000D03*
D20*
X167250000Y-109595000D03*
X167250000Y-105035000D03*
D19*
X173550000Y-96520000D03*
D20*
X167250000Y-98800000D03*
X167250000Y-94240000D03*
D19*
X173550000Y-85725000D03*
D20*
X167250000Y-88005000D03*
X167250000Y-83445000D03*
D19*
X173550000Y-74930000D03*
D20*
X167250000Y-77210000D03*
X167250000Y-72650000D03*
D19*
X173550000Y-64135000D03*
D20*
X167250000Y-66415000D03*
X167250000Y-61855000D03*
D21*
X155488000Y-114554000D03*
X160488000Y-114554000D03*
X118785000Y-114427000D03*
X123785000Y-114427000D03*
D22*
X111150000Y-69390000D03*
X111150000Y-65890000D03*
X117450000Y-69390000D03*
X117450000Y-65890000D03*
X111150000Y-62690000D03*
X117450000Y-62690000D03*
D21*
X183515000Y-119340000D03*
X183515000Y-114340000D03*
X183515000Y-108545000D03*
X183515000Y-103545000D03*
X183515000Y-97750000D03*
X183515000Y-92750000D03*
X183515000Y-86955000D03*
X183515000Y-81955000D03*
X183515000Y-76160000D03*
X183515000Y-71160000D03*
X183515000Y-65365000D03*
X183515000Y-60365000D03*
D23*
X131445000Y-71755000D03*
X131445000Y-69215000D03*
X131445000Y-66675000D03*
D24*
X131445000Y-64135000D03*
D25*
X140715000Y-112395000D03*
X137415000Y-112395000D03*
X172975000Y-113030000D03*
X176275000Y-113030000D03*
X172975000Y-102235000D03*
X176275000Y-102235000D03*
X172975000Y-91440000D03*
X176275000Y-91440000D03*
X172975000Y-80645000D03*
X176275000Y-80645000D03*
X172975000Y-69850000D03*
X176275000Y-69850000D03*
X172975000Y-59055000D03*
X176275000Y-59055000D03*
G04 #@! TA.AperFunction,SMDPad,CuDef*
G36*
G01*
X109670000Y-100170000D02*
X109670000Y-99220000D01*
G75*
G02*
X109920000Y-98970000I250000J0D01*
G01*
X110420000Y-98970000D01*
G75*
G02*
X110670000Y-99220000I0J-250000D01*
G01*
X110670000Y-100170000D01*
G75*
G02*
X110420000Y-100420000I-250000J0D01*
G01*
X109920000Y-100420000D01*
G75*
G02*
X109670000Y-100170000I0J250000D01*
G01*
G37*
G04 #@! TD.AperFunction*
G04 #@! TA.AperFunction,SMDPad,CuDef*
G36*
G01*
X107770000Y-100170000D02*
X107770000Y-99220000D01*
G75*
G02*
X108020000Y-98970000I250000J0D01*
G01*
X108520000Y-98970000D01*
G75*
G02*
X108770000Y-99220000I0J-250000D01*
G01*
X108770000Y-100170000D01*
G75*
G02*
X108520000Y-100420000I-250000J0D01*
G01*
X108020000Y-100420000D01*
G75*
G02*
X107770000Y-100170000I0J250000D01*
G01*
G37*
G04 #@! TD.AperFunction*
G04 #@! TA.AperFunction,SMDPad,CuDef*
G36*
G01*
X119195000Y-100805000D02*
X119195000Y-99855000D01*
G75*
G02*
X119445000Y-99605000I250000J0D01*
G01*
X119945000Y-99605000D01*
G75*
G02*
X120195000Y-99855000I0J-250000D01*
G01*
X120195000Y-100805000D01*
G75*
G02*
X119945000Y-101055000I-250000J0D01*
G01*
X119445000Y-101055000D01*
G75*
G02*
X119195000Y-100805000I0J250000D01*
G01*
G37*
G04 #@! TD.AperFunction*
G04 #@! TA.AperFunction,SMDPad,CuDef*
G36*
G01*
X117295000Y-100805000D02*
X117295000Y-99855000D01*
G75*
G02*
X117545000Y-99605000I250000J0D01*
G01*
X118045000Y-99605000D01*
G75*
G02*
X118295000Y-99855000I0J-250000D01*
G01*
X118295000Y-100805000D01*
G75*
G02*
X118045000Y-101055000I-250000J0D01*
G01*
X117545000Y-101055000D01*
G75*
G02*
X117295000Y-100805000I0J250000D01*
G01*
G37*
G04 #@! TD.AperFunction*
G04 #@! TA.AperFunction,SMDPad,CuDef*
G36*
G01*
X121445000Y-103955000D02*
X122395000Y-103955000D01*
G75*
G02*
X122645000Y-104205000I0J-250000D01*
G01*
X122645000Y-104705000D01*
G75*
G02*
X122395000Y-104955000I-250000J0D01*
G01*
X121445000Y-104955000D01*
G75*
G02*
X121195000Y-104705000I0J250000D01*
G01*
X121195000Y-104205000D01*
G75*
G02*
X121445000Y-103955000I250000J0D01*
G01*
G37*
G04 #@! TD.AperFunction*
G04 #@! TA.AperFunction,SMDPad,CuDef*
G36*
G01*
X121445000Y-102055000D02*
X122395000Y-102055000D01*
G75*
G02*
X122645000Y-102305000I0J-250000D01*
G01*
X122645000Y-102805000D01*
G75*
G02*
X122395000Y-103055000I-250000J0D01*
G01*
X121445000Y-103055000D01*
G75*
G02*
X121195000Y-102805000I0J250000D01*
G01*
X121195000Y-102305000D01*
G75*
G02*
X121445000Y-102055000I250000J0D01*
G01*
G37*
G04 #@! TD.AperFunction*
G04 #@! TA.AperFunction,SMDPad,CuDef*
G36*
G01*
X112453000Y-107856000D02*
X112453000Y-108806000D01*
G75*
G02*
X112203000Y-109056000I-250000J0D01*
G01*
X111703000Y-109056000D01*
G75*
G02*
X111453000Y-108806000I0J250000D01*
G01*
X111453000Y-107856000D01*
G75*
G02*
X111703000Y-107606000I250000J0D01*
G01*
X112203000Y-107606000D01*
G75*
G02*
X112453000Y-107856000I0J-250000D01*
G01*
G37*
G04 #@! TD.AperFunction*
G04 #@! TA.AperFunction,SMDPad,CuDef*
G36*
G01*
X114353000Y-107856000D02*
X114353000Y-108806000D01*
G75*
G02*
X114103000Y-109056000I-250000J0D01*
G01*
X113603000Y-109056000D01*
G75*
G02*
X113353000Y-108806000I0J250000D01*
G01*
X113353000Y-107856000D01*
G75*
G02*
X113603000Y-107606000I250000J0D01*
G01*
X114103000Y-107606000D01*
G75*
G02*
X114353000Y-107856000I0J-250000D01*
G01*
G37*
G04 #@! TD.AperFunction*
D21*
X134540000Y-107315000D03*
D26*
X129540000Y-107315000D03*
G04 #@! TA.AperFunction,SMDPad,CuDef*
G36*
G01*
X119540000Y-70935000D02*
X120490000Y-70935000D01*
G75*
G02*
X120740000Y-71185000I0J-250000D01*
G01*
X120740000Y-71685000D01*
G75*
G02*
X120490000Y-71935000I-250000J0D01*
G01*
X119540000Y-71935000D01*
G75*
G02*
X119290000Y-71685000I0J250000D01*
G01*
X119290000Y-71185000D01*
G75*
G02*
X119540000Y-70935000I250000J0D01*
G01*
G37*
G04 #@! TD.AperFunction*
G04 #@! TA.AperFunction,SMDPad,CuDef*
G36*
G01*
X119540000Y-69035000D02*
X120490000Y-69035000D01*
G75*
G02*
X120740000Y-69285000I0J-250000D01*
G01*
X120740000Y-69785000D01*
G75*
G02*
X120490000Y-70035000I-250000J0D01*
G01*
X119540000Y-70035000D01*
G75*
G02*
X119290000Y-69785000I0J250000D01*
G01*
X119290000Y-69285000D01*
G75*
G02*
X119540000Y-69035000I250000J0D01*
G01*
G37*
G04 #@! TD.AperFunction*
G04 #@! TA.AperFunction,SMDPad,CuDef*
G36*
G01*
X108110000Y-67125000D02*
X109060000Y-67125000D01*
G75*
G02*
X109310000Y-67375000I0J-250000D01*
G01*
X109310000Y-67875000D01*
G75*
G02*
X109060000Y-68125000I-250000J0D01*
G01*
X108110000Y-68125000D01*
G75*
G02*
X107860000Y-67875000I0J250000D01*
G01*
X107860000Y-67375000D01*
G75*
G02*
X108110000Y-67125000I250000J0D01*
G01*
G37*
G04 #@! TD.AperFunction*
G04 #@! TA.AperFunction,SMDPad,CuDef*
G36*
G01*
X108110000Y-65225000D02*
X109060000Y-65225000D01*
G75*
G02*
X109310000Y-65475000I0J-250000D01*
G01*
X109310000Y-65975000D01*
G75*
G02*
X109060000Y-66225000I-250000J0D01*
G01*
X108110000Y-66225000D01*
G75*
G02*
X107860000Y-65975000I0J250000D01*
G01*
X107860000Y-65475000D01*
G75*
G02*
X108110000Y-65225000I250000J0D01*
G01*
G37*
G04 #@! TD.AperFunction*
G04 #@! TA.AperFunction,SMDPad,CuDef*
G36*
G01*
X108110000Y-84905000D02*
X109060000Y-84905000D01*
G75*
G02*
X109310000Y-85155000I0J-250000D01*
G01*
X109310000Y-85655000D01*
G75*
G02*
X109060000Y-85905000I-250000J0D01*
G01*
X108110000Y-85905000D01*
G75*
G02*
X107860000Y-85655000I0J250000D01*
G01*
X107860000Y-85155000D01*
G75*
G02*
X108110000Y-84905000I250000J0D01*
G01*
G37*
G04 #@! TD.AperFunction*
G04 #@! TA.AperFunction,SMDPad,CuDef*
G36*
G01*
X108110000Y-83005000D02*
X109060000Y-83005000D01*
G75*
G02*
X109310000Y-83255000I0J-250000D01*
G01*
X109310000Y-83755000D01*
G75*
G02*
X109060000Y-84005000I-250000J0D01*
G01*
X108110000Y-84005000D01*
G75*
G02*
X107860000Y-83755000I0J250000D01*
G01*
X107860000Y-83255000D01*
G75*
G02*
X108110000Y-83005000I250000J0D01*
G01*
G37*
G04 #@! TD.AperFunction*
G04 #@! TA.AperFunction,SMDPad,CuDef*
G36*
G01*
X116680000Y-78925000D02*
X115730000Y-78925000D01*
G75*
G02*
X115480000Y-78675000I0J250000D01*
G01*
X115480000Y-78175000D01*
G75*
G02*
X115730000Y-77925000I250000J0D01*
G01*
X116680000Y-77925000D01*
G75*
G02*
X116930000Y-78175000I0J-250000D01*
G01*
X116930000Y-78675000D01*
G75*
G02*
X116680000Y-78925000I-250000J0D01*
G01*
G37*
G04 #@! TD.AperFunction*
G04 #@! TA.AperFunction,SMDPad,CuDef*
G36*
G01*
X116680000Y-80825000D02*
X115730000Y-80825000D01*
G75*
G02*
X115480000Y-80575000I0J250000D01*
G01*
X115480000Y-80075000D01*
G75*
G02*
X115730000Y-79825000I250000J0D01*
G01*
X116680000Y-79825000D01*
G75*
G02*
X116930000Y-80075000I0J-250000D01*
G01*
X116930000Y-80575000D01*
G75*
G02*
X116680000Y-80825000I-250000J0D01*
G01*
G37*
G04 #@! TD.AperFunction*
G04 #@! TA.AperFunction,SMDPad,CuDef*
G36*
G01*
X116680000Y-92895000D02*
X115730000Y-92895000D01*
G75*
G02*
X115480000Y-92645000I0J250000D01*
G01*
X115480000Y-92145000D01*
G75*
G02*
X115730000Y-91895000I250000J0D01*
G01*
X116680000Y-91895000D01*
G75*
G02*
X116930000Y-92145000I0J-250000D01*
G01*
X116930000Y-92645000D01*
G75*
G02*
X116680000Y-92895000I-250000J0D01*
G01*
G37*
G04 #@! TD.AperFunction*
G04 #@! TA.AperFunction,SMDPad,CuDef*
G36*
G01*
X116680000Y-94795000D02*
X115730000Y-94795000D01*
G75*
G02*
X115480000Y-94545000I0J250000D01*
G01*
X115480000Y-94045000D01*
G75*
G02*
X115730000Y-93795000I250000J0D01*
G01*
X116680000Y-93795000D01*
G75*
G02*
X116930000Y-94045000I0J-250000D01*
G01*
X116930000Y-94545000D01*
G75*
G02*
X116680000Y-94795000I-250000J0D01*
G01*
G37*
G04 #@! TD.AperFunction*
G04 #@! TA.AperFunction,SMDPad,CuDef*
G36*
G01*
X111600000Y-78925000D02*
X110650000Y-78925000D01*
G75*
G02*
X110400000Y-78675000I0J250000D01*
G01*
X110400000Y-78175000D01*
G75*
G02*
X110650000Y-77925000I250000J0D01*
G01*
X111600000Y-77925000D01*
G75*
G02*
X111850000Y-78175000I0J-250000D01*
G01*
X111850000Y-78675000D01*
G75*
G02*
X111600000Y-78925000I-250000J0D01*
G01*
G37*
G04 #@! TD.AperFunction*
G04 #@! TA.AperFunction,SMDPad,CuDef*
G36*
G01*
X111600000Y-80825000D02*
X110650000Y-80825000D01*
G75*
G02*
X110400000Y-80575000I0J250000D01*
G01*
X110400000Y-80075000D01*
G75*
G02*
X110650000Y-79825000I250000J0D01*
G01*
X111600000Y-79825000D01*
G75*
G02*
X111850000Y-80075000I0J-250000D01*
G01*
X111850000Y-80575000D01*
G75*
G02*
X111600000Y-80825000I-250000J0D01*
G01*
G37*
G04 #@! TD.AperFunction*
G04 #@! TA.AperFunction,SMDPad,CuDef*
G36*
G01*
X110650000Y-93795000D02*
X111600000Y-93795000D01*
G75*
G02*
X111850000Y-94045000I0J-250000D01*
G01*
X111850000Y-94545000D01*
G75*
G02*
X111600000Y-94795000I-250000J0D01*
G01*
X110650000Y-94795000D01*
G75*
G02*
X110400000Y-94545000I0J250000D01*
G01*
X110400000Y-94045000D01*
G75*
G02*
X110650000Y-93795000I250000J0D01*
G01*
G37*
G04 #@! TD.AperFunction*
G04 #@! TA.AperFunction,SMDPad,CuDef*
G36*
G01*
X110650000Y-91895000D02*
X111600000Y-91895000D01*
G75*
G02*
X111850000Y-92145000I0J-250000D01*
G01*
X111850000Y-92645000D01*
G75*
G02*
X111600000Y-92895000I-250000J0D01*
G01*
X110650000Y-92895000D01*
G75*
G02*
X110400000Y-92645000I0J250000D01*
G01*
X110400000Y-92145000D01*
G75*
G02*
X110650000Y-91895000I250000J0D01*
G01*
G37*
G04 #@! TD.AperFunction*
G04 #@! TA.AperFunction,SMDPad,CuDef*
G36*
G01*
X159225000Y-63685000D02*
X158275000Y-63685000D01*
G75*
G02*
X158025000Y-63435000I0J250000D01*
G01*
X158025000Y-62935000D01*
G75*
G02*
X158275000Y-62685000I250000J0D01*
G01*
X159225000Y-62685000D01*
G75*
G02*
X159475000Y-62935000I0J-250000D01*
G01*
X159475000Y-63435000D01*
G75*
G02*
X159225000Y-63685000I-250000J0D01*
G01*
G37*
G04 #@! TD.AperFunction*
G04 #@! TA.AperFunction,SMDPad,CuDef*
G36*
G01*
X159225000Y-65585000D02*
X158275000Y-65585000D01*
G75*
G02*
X158025000Y-65335000I0J250000D01*
G01*
X158025000Y-64835000D01*
G75*
G02*
X158275000Y-64585000I250000J0D01*
G01*
X159225000Y-64585000D01*
G75*
G02*
X159475000Y-64835000I0J-250000D01*
G01*
X159475000Y-65335000D01*
G75*
G02*
X159225000Y-65585000I-250000J0D01*
G01*
G37*
G04 #@! TD.AperFunction*
G04 #@! TA.AperFunction,SMDPad,CuDef*
G36*
G01*
X134145000Y-94430000D02*
X135095000Y-94430000D01*
G75*
G02*
X135345000Y-94680000I0J-250000D01*
G01*
X135345000Y-95180000D01*
G75*
G02*
X135095000Y-95430000I-250000J0D01*
G01*
X134145000Y-95430000D01*
G75*
G02*
X133895000Y-95180000I0J250000D01*
G01*
X133895000Y-94680000D01*
G75*
G02*
X134145000Y-94430000I250000J0D01*
G01*
G37*
G04 #@! TD.AperFunction*
G04 #@! TA.AperFunction,SMDPad,CuDef*
G36*
G01*
X134145000Y-92530000D02*
X135095000Y-92530000D01*
G75*
G02*
X135345000Y-92780000I0J-250000D01*
G01*
X135345000Y-93280000D01*
G75*
G02*
X135095000Y-93530000I-250000J0D01*
G01*
X134145000Y-93530000D01*
G75*
G02*
X133895000Y-93280000I0J250000D01*
G01*
X133895000Y-92780000D01*
G75*
G02*
X134145000Y-92530000I250000J0D01*
G01*
G37*
G04 #@! TD.AperFunction*
G04 #@! TA.AperFunction,SMDPad,CuDef*
G36*
G01*
X132555000Y-93530000D02*
X131605000Y-93530000D01*
G75*
G02*
X131355000Y-93280000I0J250000D01*
G01*
X131355000Y-92780000D01*
G75*
G02*
X131605000Y-92530000I250000J0D01*
G01*
X132555000Y-92530000D01*
G75*
G02*
X132805000Y-92780000I0J-250000D01*
G01*
X132805000Y-93280000D01*
G75*
G02*
X132555000Y-93530000I-250000J0D01*
G01*
G37*
G04 #@! TD.AperFunction*
G04 #@! TA.AperFunction,SMDPad,CuDef*
G36*
G01*
X132555000Y-95430000D02*
X131605000Y-95430000D01*
G75*
G02*
X131355000Y-95180000I0J250000D01*
G01*
X131355000Y-94680000D01*
G75*
G02*
X131605000Y-94430000I250000J0D01*
G01*
X132555000Y-94430000D01*
G75*
G02*
X132805000Y-94680000I0J-250000D01*
G01*
X132805000Y-95180000D01*
G75*
G02*
X132555000Y-95430000I-250000J0D01*
G01*
G37*
G04 #@! TD.AperFunction*
G04 #@! TA.AperFunction,SMDPad,CuDef*
G36*
G01*
X138615000Y-99220000D02*
X138615000Y-100170000D01*
G75*
G02*
X138365000Y-100420000I-250000J0D01*
G01*
X137865000Y-100420000D01*
G75*
G02*
X137615000Y-100170000I0J250000D01*
G01*
X137615000Y-99220000D01*
G75*
G02*
X137865000Y-98970000I250000J0D01*
G01*
X138365000Y-98970000D01*
G75*
G02*
X138615000Y-99220000I0J-250000D01*
G01*
G37*
G04 #@! TD.AperFunction*
G04 #@! TA.AperFunction,SMDPad,CuDef*
G36*
G01*
X140515000Y-99220000D02*
X140515000Y-100170000D01*
G75*
G02*
X140265000Y-100420000I-250000J0D01*
G01*
X139765000Y-100420000D01*
G75*
G02*
X139515000Y-100170000I0J250000D01*
G01*
X139515000Y-99220000D01*
G75*
G02*
X139765000Y-98970000I250000J0D01*
G01*
X140265000Y-98970000D01*
G75*
G02*
X140515000Y-99220000I0J-250000D01*
G01*
G37*
G04 #@! TD.AperFunction*
G04 #@! TA.AperFunction,SMDPad,CuDef*
G36*
G01*
X151605000Y-85910000D02*
X150655000Y-85910000D01*
G75*
G02*
X150405000Y-85660000I0J250000D01*
G01*
X150405000Y-85160000D01*
G75*
G02*
X150655000Y-84910000I250000J0D01*
G01*
X151605000Y-84910000D01*
G75*
G02*
X151855000Y-85160000I0J-250000D01*
G01*
X151855000Y-85660000D01*
G75*
G02*
X151605000Y-85910000I-250000J0D01*
G01*
G37*
G04 #@! TD.AperFunction*
G04 #@! TA.AperFunction,SMDPad,CuDef*
G36*
G01*
X151605000Y-87810000D02*
X150655000Y-87810000D01*
G75*
G02*
X150405000Y-87560000I0J250000D01*
G01*
X150405000Y-87060000D01*
G75*
G02*
X150655000Y-86810000I250000J0D01*
G01*
X151605000Y-86810000D01*
G75*
G02*
X151855000Y-87060000I0J-250000D01*
G01*
X151855000Y-87560000D01*
G75*
G02*
X151605000Y-87810000I-250000J0D01*
G01*
G37*
G04 #@! TD.AperFunction*
G04 #@! TA.AperFunction,SMDPad,CuDef*
G36*
G01*
X148405000Y-100170000D02*
X148405000Y-99220000D01*
G75*
G02*
X148655000Y-98970000I250000J0D01*
G01*
X149155000Y-98970000D01*
G75*
G02*
X149405000Y-99220000I0J-250000D01*
G01*
X149405000Y-100170000D01*
G75*
G02*
X149155000Y-100420000I-250000J0D01*
G01*
X148655000Y-100420000D01*
G75*
G02*
X148405000Y-100170000I0J250000D01*
G01*
G37*
G04 #@! TD.AperFunction*
G04 #@! TA.AperFunction,SMDPad,CuDef*
G36*
G01*
X146505000Y-100170000D02*
X146505000Y-99220000D01*
G75*
G02*
X146755000Y-98970000I250000J0D01*
G01*
X147255000Y-98970000D01*
G75*
G02*
X147505000Y-99220000I0J-250000D01*
G01*
X147505000Y-100170000D01*
G75*
G02*
X147255000Y-100420000I-250000J0D01*
G01*
X146755000Y-100420000D01*
G75*
G02*
X146505000Y-100170000I0J250000D01*
G01*
G37*
G04 #@! TD.AperFunction*
G04 #@! TA.AperFunction,SMDPad,CuDef*
G36*
G01*
X135095000Y-85910000D02*
X134145000Y-85910000D01*
G75*
G02*
X133895000Y-85660000I0J250000D01*
G01*
X133895000Y-85160000D01*
G75*
G02*
X134145000Y-84910000I250000J0D01*
G01*
X135095000Y-84910000D01*
G75*
G02*
X135345000Y-85160000I0J-250000D01*
G01*
X135345000Y-85660000D01*
G75*
G02*
X135095000Y-85910000I-250000J0D01*
G01*
G37*
G04 #@! TD.AperFunction*
G04 #@! TA.AperFunction,SMDPad,CuDef*
G36*
G01*
X135095000Y-87810000D02*
X134145000Y-87810000D01*
G75*
G02*
X133895000Y-87560000I0J250000D01*
G01*
X133895000Y-87060000D01*
G75*
G02*
X134145000Y-86810000I250000J0D01*
G01*
X135095000Y-86810000D01*
G75*
G02*
X135345000Y-87060000I0J-250000D01*
G01*
X135345000Y-87560000D01*
G75*
G02*
X135095000Y-87810000I-250000J0D01*
G01*
G37*
G04 #@! TD.AperFunction*
G04 #@! TA.AperFunction,SMDPad,CuDef*
G36*
G01*
X138880000Y-83025000D02*
X138880000Y-82075000D01*
G75*
G02*
X139130000Y-81825000I250000J0D01*
G01*
X139630000Y-81825000D01*
G75*
G02*
X139880000Y-82075000I0J-250000D01*
G01*
X139880000Y-83025000D01*
G75*
G02*
X139630000Y-83275000I-250000J0D01*
G01*
X139130000Y-83275000D01*
G75*
G02*
X138880000Y-83025000I0J250000D01*
G01*
G37*
G04 #@! TD.AperFunction*
G04 #@! TA.AperFunction,SMDPad,CuDef*
G36*
G01*
X136980000Y-83025000D02*
X136980000Y-82075000D01*
G75*
G02*
X137230000Y-81825000I250000J0D01*
G01*
X137730000Y-81825000D01*
G75*
G02*
X137980000Y-82075000I0J-250000D01*
G01*
X137980000Y-83025000D01*
G75*
G02*
X137730000Y-83275000I-250000J0D01*
G01*
X137230000Y-83275000D01*
G75*
G02*
X136980000Y-83025000I0J250000D01*
G01*
G37*
G04 #@! TD.AperFunction*
G04 #@! TA.AperFunction,SMDPad,CuDef*
G36*
G01*
X138615000Y-101760000D02*
X138615000Y-102710000D01*
G75*
G02*
X138365000Y-102960000I-250000J0D01*
G01*
X137865000Y-102960000D01*
G75*
G02*
X137615000Y-102710000I0J250000D01*
G01*
X137615000Y-101760000D01*
G75*
G02*
X137865000Y-101510000I250000J0D01*
G01*
X138365000Y-101510000D01*
G75*
G02*
X138615000Y-101760000I0J-250000D01*
G01*
G37*
G04 #@! TD.AperFunction*
G04 #@! TA.AperFunction,SMDPad,CuDef*
G36*
G01*
X140515000Y-101760000D02*
X140515000Y-102710000D01*
G75*
G02*
X140265000Y-102960000I-250000J0D01*
G01*
X139765000Y-102960000D01*
G75*
G02*
X139515000Y-102710000I0J250000D01*
G01*
X139515000Y-101760000D01*
G75*
G02*
X139765000Y-101510000I250000J0D01*
G01*
X140265000Y-101510000D01*
G75*
G02*
X140515000Y-101760000I0J-250000D01*
G01*
G37*
G04 #@! TD.AperFunction*
G04 #@! TA.AperFunction,SMDPad,CuDef*
G36*
G01*
X154145000Y-85910000D02*
X153195000Y-85910000D01*
G75*
G02*
X152945000Y-85660000I0J250000D01*
G01*
X152945000Y-85160000D01*
G75*
G02*
X153195000Y-84910000I250000J0D01*
G01*
X154145000Y-84910000D01*
G75*
G02*
X154395000Y-85160000I0J-250000D01*
G01*
X154395000Y-85660000D01*
G75*
G02*
X154145000Y-85910000I-250000J0D01*
G01*
G37*
G04 #@! TD.AperFunction*
G04 #@! TA.AperFunction,SMDPad,CuDef*
G36*
G01*
X154145000Y-87810000D02*
X153195000Y-87810000D01*
G75*
G02*
X152945000Y-87560000I0J250000D01*
G01*
X152945000Y-87060000D01*
G75*
G02*
X153195000Y-86810000I250000J0D01*
G01*
X154145000Y-86810000D01*
G75*
G02*
X154395000Y-87060000I0J-250000D01*
G01*
X154395000Y-87560000D01*
G75*
G02*
X154145000Y-87810000I-250000J0D01*
G01*
G37*
G04 #@! TD.AperFunction*
G04 #@! TA.AperFunction,SMDPad,CuDef*
G36*
G01*
X145575000Y-103320000D02*
X146525000Y-103320000D01*
G75*
G02*
X146775000Y-103570000I0J-250000D01*
G01*
X146775000Y-104070000D01*
G75*
G02*
X146525000Y-104320000I-250000J0D01*
G01*
X145575000Y-104320000D01*
G75*
G02*
X145325000Y-104070000I0J250000D01*
G01*
X145325000Y-103570000D01*
G75*
G02*
X145575000Y-103320000I250000J0D01*
G01*
G37*
G04 #@! TD.AperFunction*
G04 #@! TA.AperFunction,SMDPad,CuDef*
G36*
G01*
X145575000Y-101420000D02*
X146525000Y-101420000D01*
G75*
G02*
X146775000Y-101670000I0J-250000D01*
G01*
X146775000Y-102170000D01*
G75*
G02*
X146525000Y-102420000I-250000J0D01*
G01*
X145575000Y-102420000D01*
G75*
G02*
X145325000Y-102170000I0J250000D01*
G01*
X145325000Y-101670000D01*
G75*
G02*
X145575000Y-101420000I250000J0D01*
G01*
G37*
G04 #@! TD.AperFunction*
G04 #@! TA.AperFunction,SMDPad,CuDef*
G36*
G01*
X123411000Y-92260000D02*
X122461000Y-92260000D01*
G75*
G02*
X122211000Y-92010000I0J250000D01*
G01*
X122211000Y-91510000D01*
G75*
G02*
X122461000Y-91260000I250000J0D01*
G01*
X123411000Y-91260000D01*
G75*
G02*
X123661000Y-91510000I0J-250000D01*
G01*
X123661000Y-92010000D01*
G75*
G02*
X123411000Y-92260000I-250000J0D01*
G01*
G37*
G04 #@! TD.AperFunction*
G04 #@! TA.AperFunction,SMDPad,CuDef*
G36*
G01*
X123411000Y-94160000D02*
X122461000Y-94160000D01*
G75*
G02*
X122211000Y-93910000I0J250000D01*
G01*
X122211000Y-93410000D01*
G75*
G02*
X122461000Y-93160000I250000J0D01*
G01*
X123411000Y-93160000D01*
G75*
G02*
X123661000Y-93410000I0J-250000D01*
G01*
X123661000Y-93910000D01*
G75*
G02*
X123411000Y-94160000I-250000J0D01*
G01*
G37*
G04 #@! TD.AperFunction*
G04 #@! TA.AperFunction,SMDPad,CuDef*
G36*
G01*
X122461000Y-86810000D02*
X123411000Y-86810000D01*
G75*
G02*
X123661000Y-87060000I0J-250000D01*
G01*
X123661000Y-87560000D01*
G75*
G02*
X123411000Y-87810000I-250000J0D01*
G01*
X122461000Y-87810000D01*
G75*
G02*
X122211000Y-87560000I0J250000D01*
G01*
X122211000Y-87060000D01*
G75*
G02*
X122461000Y-86810000I250000J0D01*
G01*
G37*
G04 #@! TD.AperFunction*
G04 #@! TA.AperFunction,SMDPad,CuDef*
G36*
G01*
X122461000Y-84910000D02*
X123411000Y-84910000D01*
G75*
G02*
X123661000Y-85160000I0J-250000D01*
G01*
X123661000Y-85660000D01*
G75*
G02*
X123411000Y-85910000I-250000J0D01*
G01*
X122461000Y-85910000D01*
G75*
G02*
X122211000Y-85660000I0J250000D01*
G01*
X122211000Y-85160000D01*
G75*
G02*
X122461000Y-84910000I250000J0D01*
G01*
G37*
G04 #@! TD.AperFunction*
D27*
X132080000Y-91440000D03*
X134620000Y-88900000D03*
X118110000Y-78105000D03*
X118110000Y-92710000D03*
X116205000Y-88900000D03*
X111760000Y-99695000D03*
X121285000Y-100330000D03*
X147320000Y-104140000D03*
X150495000Y-100330000D03*
X136525000Y-102235000D03*
X136652000Y-99568000D03*
X134620000Y-83820000D03*
X139700000Y-81280000D03*
X150876000Y-83820000D03*
X153416000Y-83820000D03*
X108712000Y-86868000D03*
X136144000Y-79248000D03*
D28*
X167005000Y-118745000D03*
X167005000Y-107950000D03*
X167005000Y-97155000D03*
X167005000Y-86360000D03*
X167005000Y-75565000D03*
X167005000Y-64770000D03*
D27*
X110929437Y-108725010D03*
X142240000Y-59690000D03*
X156210000Y-59055000D03*
X153670000Y-70485000D03*
X147955000Y-70485000D03*
X152400000Y-59055000D03*
X158750000Y-66675000D03*
X115570000Y-117475000D03*
X111760000Y-113030000D03*
X143510000Y-110490000D03*
X132080000Y-88900000D03*
X130175000Y-88265000D03*
X129540000Y-84455000D03*
X127000000Y-81915000D03*
X122555000Y-81915000D03*
X121285000Y-86995000D03*
X121285000Y-92075000D03*
X121285000Y-95885000D03*
X124460000Y-97155000D03*
X127635000Y-97155000D03*
X129540000Y-92710000D03*
X134620000Y-91440000D03*
X130810000Y-93980000D03*
X116205000Y-100330000D03*
X141224000Y-100076000D03*
X141224000Y-102108000D03*
X147828000Y-101092000D03*
X136144000Y-86360000D03*
X137160000Y-81280000D03*
X132080000Y-83820000D03*
X162015010Y-73025000D03*
X159385000Y-73025000D03*
X155575000Y-73660000D03*
X150495000Y-73025000D03*
X137160000Y-74295000D03*
X141980925Y-75553377D03*
X149860000Y-59055000D03*
X158750000Y-61595000D03*
X152400000Y-86360000D03*
X108585000Y-81915000D03*
X107950000Y-97790000D03*
X132080000Y-96520000D03*
D29*
X115824000Y-111252000D03*
D27*
X165608000Y-58928000D03*
X165100000Y-70104000D03*
X165100000Y-80264000D03*
X165100000Y-91440000D03*
X165100000Y-102235000D03*
X165100000Y-112395000D03*
X121920000Y-106045000D03*
X109220000Y-109220000D03*
X109220000Y-105410000D03*
X133604000Y-86360000D03*
X138839303Y-90776496D03*
X150359255Y-88885141D03*
X147955000Y-80645000D03*
X165100000Y-61976000D03*
X165100000Y-72644000D03*
X164560552Y-74536226D03*
X165100000Y-83820000D03*
X158403563Y-90068244D03*
X165100000Y-93980000D03*
X157040160Y-89730160D03*
X165100000Y-104648000D03*
X162560000Y-101092000D03*
X153670000Y-92710000D03*
X158750000Y-86360000D03*
X156845000Y-86360000D03*
X150950467Y-92201828D03*
X146050000Y-82550000D03*
X144145000Y-79375000D03*
X146050000Y-83820000D03*
X142875000Y-80645000D03*
X120015000Y-97155000D03*
X118110000Y-76200000D03*
D30*
X117790000Y-78425000D02*
X118110000Y-78105000D01*
X116205000Y-78425000D02*
X117790000Y-78425000D01*
X117795000Y-92395000D02*
X118110000Y-92710000D01*
X116205000Y-92395000D02*
X117795000Y-92395000D01*
X116140000Y-88835000D02*
X116205000Y-88900000D01*
X114935000Y-88835000D02*
X116140000Y-88835000D01*
X110170000Y-99695000D02*
X111760000Y-99695000D01*
X110170000Y-99695000D02*
X110170000Y-101870000D01*
X119695000Y-102505000D02*
X119695000Y-100330000D01*
X119695000Y-100330000D02*
X121285000Y-100330000D01*
X119745000Y-102555000D02*
X119695000Y-102505000D01*
X121920000Y-102555000D02*
X119745000Y-102555000D01*
X139380000Y-82550000D02*
X139380000Y-84135000D01*
X139380000Y-84135000D02*
X139700000Y-84455000D01*
X132080000Y-93030000D02*
X134620000Y-93030000D01*
X134620000Y-93030000D02*
X135575000Y-93030000D01*
X138115000Y-99695000D02*
X138750000Y-99060000D01*
X147000000Y-103820000D02*
X147320000Y-104140000D01*
X146050000Y-103820000D02*
X147000000Y-103820000D01*
X149860000Y-99695000D02*
X150495000Y-100330000D01*
X148905000Y-99695000D02*
X149860000Y-99695000D01*
X138115000Y-102235000D02*
X136525000Y-102235000D01*
X136779000Y-99695000D02*
X136652000Y-99568000D01*
X138115000Y-99695000D02*
X136779000Y-99695000D01*
X134620000Y-85410000D02*
X134620000Y-83820000D01*
X139380000Y-81600000D02*
X139700000Y-81280000D01*
X139380000Y-82550000D02*
X139380000Y-81600000D01*
X151130000Y-84074000D02*
X150876000Y-83820000D01*
X151130000Y-85410000D02*
X151130000Y-84074000D01*
X153670000Y-84074000D02*
X153416000Y-83820000D01*
X153670000Y-85410000D02*
X153670000Y-84074000D01*
X108585000Y-86741000D02*
X108712000Y-86868000D01*
X108585000Y-85405000D02*
X108585000Y-86741000D01*
X137771500Y-79248000D02*
X136144000Y-79248000D01*
D31*
X167250000Y-118990000D02*
X167005000Y-118745000D01*
X167250000Y-120390000D02*
X167250000Y-118990000D01*
X167250000Y-108195000D02*
X167005000Y-107950000D01*
X167250000Y-109595000D02*
X167250000Y-108195000D01*
X167250000Y-97400000D02*
X167005000Y-97155000D01*
X167250000Y-98800000D02*
X167250000Y-97400000D01*
X167250000Y-86605000D02*
X167005000Y-86360000D01*
X167250000Y-88005000D02*
X167250000Y-86605000D01*
X167250000Y-75810000D02*
X167005000Y-75565000D01*
X167250000Y-77210000D02*
X167250000Y-75810000D01*
X167250000Y-65015000D02*
X167005000Y-64770000D01*
X167250000Y-66415000D02*
X167250000Y-65015000D01*
D30*
X111953000Y-108331000D02*
X111323447Y-108331000D01*
X111323447Y-108331000D02*
X110929437Y-108725010D01*
X142015000Y-59465000D02*
X142240000Y-59690000D01*
X142015000Y-57820000D02*
X142015000Y-59465000D01*
X155165000Y-58010000D02*
X156210000Y-59055000D01*
X155165000Y-57820000D02*
X155165000Y-58010000D01*
X153565000Y-70590000D02*
X153670000Y-70485000D01*
X153565000Y-71970000D02*
X153565000Y-70590000D01*
X147865000Y-71970000D02*
X147865000Y-70575000D01*
X147865000Y-70575000D02*
X147955000Y-70485000D01*
X152175000Y-59280000D02*
X152400000Y-59055000D01*
X152175000Y-60670000D02*
X152175000Y-59280000D01*
X158750000Y-65085000D02*
X158750000Y-66675000D01*
D32*
X139700000Y-84455000D02*
X139700000Y-85935000D01*
X137260000Y-93345000D02*
X137275000Y-93360000D01*
X135890000Y-93345000D02*
X137260000Y-93345000D01*
D30*
X135575000Y-93030000D02*
X135890000Y-93345000D01*
D32*
X139240702Y-98585000D02*
X139225000Y-98585000D01*
X139700000Y-98125702D02*
X139240702Y-98585000D01*
X139700000Y-97285000D02*
X139700000Y-98125702D01*
D30*
X139225000Y-98585000D02*
X139385000Y-98425000D01*
X138750000Y-99060000D02*
X139225000Y-98585000D01*
X115511000Y-117416000D02*
X115570000Y-117475000D01*
X111760000Y-117416000D02*
X115511000Y-117416000D01*
X111760000Y-117416000D02*
X111760000Y-113030000D01*
X145145000Y-110810000D02*
X143830000Y-110810000D01*
X143830000Y-110810000D02*
X143510000Y-110490000D01*
X131760000Y-93030000D02*
X130810000Y-93980000D01*
X132080000Y-93030000D02*
X131760000Y-93030000D01*
D32*
X129484000Y-89860000D02*
X137275000Y-89860000D01*
X126875000Y-85410000D02*
X127000000Y-85285000D01*
X122555000Y-85410000D02*
X126875000Y-85410000D01*
X127000000Y-85285000D02*
X127000000Y-88265000D01*
X128595000Y-89860000D02*
X129484000Y-89860000D01*
X127000000Y-88265000D02*
X128595000Y-89860000D01*
X129096000Y-90360000D02*
X137275000Y-90360000D01*
X126875000Y-93660000D02*
X127000000Y-93785000D01*
X122555000Y-93660000D02*
X126875000Y-93660000D01*
X127000000Y-93785000D02*
X127000000Y-92075000D01*
X128714500Y-90360500D02*
X129095500Y-90360500D01*
X127000000Y-92075000D02*
X128714500Y-90360500D01*
X129095500Y-90360500D02*
X129096000Y-90360000D01*
X146179990Y-101790010D02*
X146050000Y-101920000D01*
X146179990Y-97305010D02*
X146179990Y-101790010D01*
X146200000Y-97285000D02*
X146179990Y-97305010D01*
X148625000Y-88360000D02*
X149811394Y-88360000D01*
X149811394Y-88360000D02*
X150011254Y-88160140D01*
X150011254Y-88160140D02*
X152819860Y-88160140D01*
X152819860Y-88160140D02*
X153670000Y-87310000D01*
D30*
X117795000Y-102505000D02*
X117795000Y-100330000D01*
X117795000Y-100330000D02*
X116205000Y-100330000D01*
X149175000Y-87310000D02*
X148650010Y-87834990D01*
X151130000Y-87310000D02*
X149175000Y-87310000D01*
X136725000Y-87310000D02*
X137249990Y-87834990D01*
X134620000Y-87310000D02*
X136725000Y-87310000D01*
X137480000Y-82550000D02*
X137480000Y-84140000D01*
X137480000Y-84140000D02*
X139174990Y-85834990D01*
X140015000Y-99695000D02*
X140015000Y-98745000D01*
X147005000Y-97590000D02*
X146725010Y-97310010D01*
X147005000Y-99695000D02*
X147005000Y-97590000D01*
X140843000Y-99695000D02*
X141224000Y-100076000D01*
X140015000Y-99695000D02*
X140843000Y-99695000D01*
X141097000Y-102235000D02*
X141224000Y-102108000D01*
X140015000Y-102235000D02*
X141097000Y-102235000D01*
X147005000Y-100269000D02*
X147828000Y-101092000D01*
X147005000Y-99695000D02*
X147005000Y-100269000D01*
X135194000Y-87310000D02*
X136144000Y-86360000D01*
X134620000Y-87310000D02*
X135194000Y-87310000D01*
X137480000Y-81600000D02*
X137160000Y-81280000D01*
X137480000Y-82550000D02*
X137480000Y-81600000D01*
X132080000Y-85447500D02*
X132080000Y-83820000D01*
X163195000Y-74652500D02*
X163195000Y-74204990D01*
X163195000Y-74204990D02*
X162015010Y-73025000D01*
X158750000Y-73660000D02*
X159385000Y-73025000D01*
X158750000Y-74652500D02*
X158750000Y-73660000D01*
X154582500Y-74652500D02*
X155575000Y-73660000D01*
X154305000Y-74652500D02*
X154582500Y-74652500D01*
X149860000Y-73660000D02*
X150495000Y-73025000D01*
X149860000Y-74652500D02*
X149860000Y-73660000D01*
X137517500Y-74652500D02*
X137160000Y-74295000D01*
X139065000Y-74652500D02*
X137517500Y-74652500D01*
X142881802Y-74652500D02*
X141980925Y-75553377D01*
X143510000Y-74652500D02*
X142881802Y-74652500D01*
X149975000Y-59170000D02*
X149860000Y-59055000D01*
X149975000Y-60670000D02*
X149975000Y-59170000D01*
X158750000Y-63185000D02*
X158750000Y-61595000D01*
D32*
X140200000Y-98560000D02*
X140015000Y-98745000D01*
X140200000Y-97285000D02*
X140200000Y-98560000D01*
D30*
X151450000Y-87310000D02*
X152400000Y-86360000D01*
X151130000Y-87310000D02*
X151450000Y-87310000D01*
X108965000Y-83885000D02*
X108585000Y-83505000D01*
X111125000Y-83885000D02*
X108965000Y-83885000D01*
X108585000Y-81915000D02*
X108585000Y-83505000D01*
X108270000Y-101870000D02*
X108270000Y-99695000D01*
X108270000Y-98110000D02*
X107950000Y-97790000D01*
X108270000Y-99695000D02*
X108270000Y-98110000D01*
X132080000Y-94930000D02*
X134620000Y-94930000D01*
X134620000Y-94930000D02*
X135570000Y-93980000D01*
X132080000Y-94930000D02*
X132080000Y-96520000D01*
D32*
X135690000Y-93860000D02*
X135570000Y-93980000D01*
X137275000Y-93860000D02*
X135690000Y-93860000D01*
X113627500Y-94295000D02*
X113665000Y-94257500D01*
X111125000Y-94295000D02*
X113627500Y-94295000D01*
X113745000Y-94337500D02*
X113665000Y-94257500D01*
X113745000Y-96520000D02*
X113745000Y-94337500D01*
X112395000Y-88835000D02*
X111125000Y-88835000D01*
X111125000Y-92395000D02*
X111125000Y-88835000D01*
X108585000Y-67625000D02*
X108585000Y-79883000D01*
X108585000Y-79883000D02*
X106680000Y-81788000D01*
X106680000Y-81788000D02*
X106680000Y-87376000D01*
X108139000Y-88835000D02*
X111125000Y-88835000D01*
X106680000Y-87376000D02*
X108139000Y-88835000D01*
X113627500Y-78425000D02*
X113665000Y-78462500D01*
X111125000Y-78425000D02*
X113627500Y-78425000D01*
X114022500Y-78105000D02*
X113665000Y-78462500D01*
X114022500Y-75565000D02*
X114022500Y-78105000D01*
X112395000Y-83885000D02*
X113665000Y-83885000D01*
X112395000Y-81595000D02*
X112395000Y-83885000D01*
X111125000Y-80325000D02*
X112395000Y-81595000D01*
X111125000Y-80325000D02*
X109855000Y-79055000D01*
X109855000Y-79055000D02*
X109855000Y-76200000D01*
X109855000Y-76200000D02*
X112395000Y-73660000D01*
X112395000Y-73660000D02*
X119380000Y-73660000D01*
X120015000Y-73025000D02*
X119380000Y-73660000D01*
X120015000Y-71435000D02*
X120015000Y-73025000D01*
X113665000Y-88835000D02*
X113665000Y-92432500D01*
X114342500Y-92432500D02*
X113665000Y-92432500D01*
X116205000Y-94295000D02*
X114342500Y-92432500D01*
X114935000Y-81557500D02*
X113665000Y-80287500D01*
X114935000Y-83885000D02*
X114935000Y-81557500D01*
X113702500Y-80325000D02*
X113665000Y-80287500D01*
X116205000Y-80325000D02*
X113702500Y-80325000D01*
X110985000Y-65725000D02*
X111150000Y-65890000D01*
X108585000Y-65725000D02*
X110985000Y-65725000D01*
X117450000Y-65890000D02*
X111150000Y-65890000D01*
X117595000Y-69535000D02*
X117450000Y-69390000D01*
X120015000Y-69535000D02*
X117595000Y-69535000D01*
X111150000Y-69390000D02*
X117450000Y-69390000D01*
D33*
X114040000Y-108518000D02*
X113853000Y-108331000D01*
X114040000Y-111116000D02*
X114040000Y-108518000D01*
X115688000Y-111116000D02*
X115824000Y-111252000D01*
X114040000Y-111116000D02*
X115688000Y-111116000D01*
X182205000Y-69850000D02*
X183515000Y-71160000D01*
X176275000Y-69850000D02*
X182205000Y-69850000D01*
X182205000Y-59055000D02*
X183515000Y-60365000D01*
X176275000Y-59055000D02*
X182205000Y-59055000D01*
D34*
X134685000Y-115125000D02*
X137415000Y-112395000D01*
X132990000Y-115125000D02*
X134685000Y-115125000D01*
X182205000Y-113030000D02*
X183515000Y-114340000D01*
X176275000Y-113030000D02*
X182205000Y-113030000D01*
X182205000Y-102235000D02*
X183515000Y-103545000D01*
X176275000Y-102235000D02*
X182205000Y-102235000D01*
X182205000Y-91440000D02*
X183515000Y-92750000D01*
X176275000Y-91440000D02*
X182205000Y-91440000D01*
X182205000Y-80645000D02*
X183515000Y-81955000D01*
X176275000Y-80645000D02*
X182205000Y-80645000D01*
D30*
X165735000Y-59055000D02*
X165608000Y-58928000D01*
X166727500Y-59055000D02*
X165735000Y-59055000D01*
X165354000Y-69850000D02*
X165100000Y-70104000D01*
X166727500Y-69850000D02*
X165354000Y-69850000D01*
X165481000Y-80645000D02*
X165100000Y-80264000D01*
X166727500Y-80645000D02*
X165481000Y-80645000D01*
X166727500Y-91440000D02*
X165100000Y-91440000D01*
X166727500Y-102235000D02*
X165100000Y-102235000D01*
X165735000Y-113030000D02*
X165100000Y-112395000D01*
X166727500Y-113030000D02*
X165735000Y-113030000D01*
X118795000Y-104455000D02*
X118745000Y-104505000D01*
X121920000Y-104455000D02*
X118795000Y-104455000D01*
X121920000Y-104455000D02*
X121920000Y-106045000D01*
X109480000Y-109480000D02*
X109220000Y-109220000D01*
X109480000Y-111116000D02*
X109480000Y-109480000D01*
X109220000Y-103870000D02*
X109220000Y-105410000D01*
D34*
X182285000Y-64135000D02*
X183515000Y-65365000D01*
X173550000Y-64135000D02*
X182285000Y-64135000D01*
X172975000Y-63560000D02*
X173550000Y-64135000D01*
X172975000Y-59055000D02*
X172975000Y-63560000D01*
X182285000Y-74930000D02*
X183515000Y-76160000D01*
X173550000Y-74930000D02*
X182285000Y-74930000D01*
X172975000Y-74355000D02*
X173550000Y-74930000D01*
X172975000Y-69850000D02*
X172975000Y-74355000D01*
X172975000Y-85150000D02*
X173550000Y-85725000D01*
X172975000Y-80645000D02*
X172975000Y-85150000D01*
X182285000Y-85725000D02*
X183515000Y-86955000D01*
X173550000Y-85725000D02*
X182285000Y-85725000D01*
X172975000Y-95945000D02*
X173550000Y-96520000D01*
X172975000Y-91440000D02*
X172975000Y-95945000D01*
X174780000Y-97750000D02*
X173550000Y-96520000D01*
X183515000Y-97750000D02*
X174780000Y-97750000D01*
D30*
X172975000Y-106740000D02*
X173550000Y-107315000D01*
X172975000Y-102235000D02*
X172975000Y-106740000D01*
D34*
X174780000Y-108545000D02*
X173550000Y-107315000D01*
X183515000Y-108545000D02*
X174780000Y-108545000D01*
X172975000Y-117535000D02*
X173550000Y-118110000D01*
X172975000Y-113030000D02*
X172975000Y-117535000D01*
X174780000Y-119340000D02*
X173550000Y-118110000D01*
X183515000Y-119340000D02*
X174780000Y-119340000D01*
D32*
X140420000Y-112395000D02*
X140715000Y-112395000D01*
X132990000Y-119825000D02*
X140420000Y-112395000D01*
X141350000Y-111760000D02*
X140715000Y-112395000D01*
X143145000Y-111760000D02*
X141350000Y-111760000D01*
X132992500Y-86360000D02*
X132080000Y-87272500D01*
X133604000Y-86360000D02*
X132992500Y-86360000D01*
X133604000Y-86360000D02*
X133204001Y-85960001D01*
X131445000Y-73824998D02*
X133204001Y-75583999D01*
X131445000Y-71755000D02*
X131445000Y-73824998D01*
X133204001Y-85960001D02*
X133204001Y-75583999D01*
X138755799Y-90860000D02*
X138839303Y-90776496D01*
X137275000Y-90860000D02*
X138755799Y-90860000D01*
X148625000Y-88860000D02*
X150334114Y-88860000D01*
X150334114Y-88860000D02*
X150359255Y-88885141D01*
X146700000Y-85935000D02*
X146700000Y-84440000D01*
X147955000Y-83185000D02*
X147955000Y-80645000D01*
X146700000Y-84440000D02*
X147955000Y-83185000D01*
X161290000Y-74652500D02*
X161290000Y-63061996D01*
X161290000Y-63061996D02*
X159098004Y-60870000D01*
X159098004Y-60870000D02*
X154375000Y-60870000D01*
X156845000Y-74652500D02*
X156845000Y-63500000D01*
X156845000Y-63500000D02*
X155575000Y-62230000D01*
X153275000Y-61870000D02*
X153275000Y-60870000D01*
X153635000Y-62230000D02*
X153275000Y-61870000D01*
X155575000Y-62230000D02*
X153635000Y-62230000D01*
X154940000Y-62865000D02*
X152070000Y-62865000D01*
X151075000Y-61870000D02*
X151075000Y-60870000D01*
X152880000Y-73660000D02*
X154060002Y-73660000D01*
X152400000Y-74140000D02*
X152880000Y-73660000D01*
X152070000Y-62865000D02*
X151075000Y-61870000D01*
X155575000Y-63500000D02*
X154940000Y-62865000D01*
X155575000Y-72145002D02*
X155575000Y-63500000D01*
X154060002Y-73660000D02*
X155575000Y-72145002D01*
X152400000Y-74652500D02*
X152400000Y-74140000D01*
X149090001Y-61085001D02*
X148875000Y-60870000D01*
X147955000Y-62865000D02*
X148875000Y-61945000D01*
X146327500Y-73025000D02*
X141605000Y-73025000D01*
X148875000Y-61945000D02*
X148875000Y-60870000D01*
X147955000Y-74652500D02*
X146327500Y-73025000D01*
X141605000Y-62865000D02*
X140335000Y-64135000D01*
X141605000Y-62865000D02*
X147955000Y-62865000D01*
X140335000Y-64135000D02*
X140335000Y-71755000D01*
X141605000Y-73025000D02*
X140335000Y-71755000D01*
X145415000Y-74295000D02*
X145415000Y-74652500D01*
X140970000Y-73660000D02*
X144780000Y-73660000D01*
X144780000Y-73660000D02*
X145415000Y-74295000D01*
X139382500Y-72072500D02*
X140970000Y-73660000D01*
X139382500Y-63817500D02*
X139382500Y-72072500D01*
X147050002Y-62230000D02*
X140970000Y-62230000D01*
X147775000Y-61505002D02*
X147050002Y-62230000D01*
X140970000Y-62230000D02*
X139382500Y-63817500D01*
X147775000Y-61270000D02*
X147775000Y-61505002D01*
X140970000Y-74652500D02*
X140692500Y-74652500D01*
X140692500Y-74652500D02*
X138430000Y-72390000D01*
X138430000Y-72390000D02*
X138430000Y-63500000D01*
X141060000Y-60870000D02*
X146675000Y-60870000D01*
X138430000Y-63500000D02*
X141060000Y-60870000D01*
D34*
X155488000Y-114554000D02*
X150261000Y-114554000D01*
X150261000Y-114554000D02*
X147838000Y-116977000D01*
D31*
X147838000Y-116977000D02*
X149245000Y-115570000D01*
D34*
X144990000Y-119825000D02*
X147838000Y-116977000D01*
X155217000Y-119825000D02*
X160488000Y-114554000D01*
X151490000Y-119825000D02*
X155217000Y-119825000D01*
D32*
X167129000Y-61976000D02*
X167250000Y-61855000D01*
X165100000Y-61976000D02*
X167129000Y-61976000D01*
X168552500Y-60552500D02*
X167250000Y-61855000D01*
X168552500Y-59055000D02*
X168552500Y-60552500D01*
X165285554Y-78554446D02*
X164280011Y-79559989D01*
X164220010Y-62855990D02*
X164220010Y-73122680D01*
X164280011Y-79559989D02*
X164280011Y-86546399D01*
X152586400Y-90989989D02*
X150452894Y-90989989D01*
X164280011Y-86546399D02*
X159466410Y-91360000D01*
X165100000Y-61976000D02*
X164220010Y-62855990D01*
X165285554Y-74188224D02*
X165285554Y-78554446D01*
X164220010Y-73122680D02*
X165285554Y-74188224D01*
X150452894Y-90989989D02*
X150082883Y-91360000D01*
X152956411Y-91360000D02*
X152586400Y-90989989D01*
X150082883Y-91360000D02*
X148625000Y-91360000D01*
X159466410Y-91360000D02*
X152956411Y-91360000D01*
X167250000Y-71152500D02*
X168552500Y-69850000D01*
X167250000Y-72650000D02*
X167250000Y-71152500D01*
X167244000Y-72644000D02*
X167250000Y-72650000D01*
X165100000Y-72644000D02*
X167244000Y-72644000D01*
X150266493Y-90539978D02*
X152772800Y-90539978D01*
X158649828Y-90905172D02*
X163830000Y-85725000D01*
X164560552Y-78009448D02*
X164560552Y-74536226D01*
X152772800Y-90539978D02*
X152834554Y-90601732D01*
X163830000Y-78740000D02*
X164560552Y-78009448D01*
X163830000Y-85725000D02*
X163830000Y-78740000D01*
X156505759Y-90905172D02*
X158649828Y-90905172D01*
X152834554Y-90601732D02*
X156202319Y-90601732D01*
X156202319Y-90601732D02*
X156505759Y-90905172D01*
X149946471Y-90860000D02*
X150266493Y-90539978D01*
X148625000Y-90860000D02*
X149946471Y-90860000D01*
X167250000Y-81947500D02*
X168552500Y-80645000D01*
X167250000Y-83445000D02*
X167250000Y-81947500D01*
X166875000Y-83820000D02*
X167250000Y-83445000D01*
X165100000Y-83820000D02*
X166875000Y-83820000D01*
X149810060Y-90360000D02*
X150080093Y-90089967D01*
X148625000Y-90360000D02*
X149810060Y-90360000D01*
X158016646Y-90455161D02*
X158403563Y-90068244D01*
X152959200Y-90089967D02*
X153020954Y-90151721D01*
X156388719Y-90151721D02*
X156692159Y-90455161D01*
X150080093Y-90089967D02*
X152959200Y-90089967D01*
X153020954Y-90151721D02*
X156388719Y-90151721D01*
X156692159Y-90455161D02*
X158016646Y-90455161D01*
X167250000Y-92742500D02*
X168552500Y-91440000D01*
X167250000Y-94240000D02*
X167250000Y-92742500D01*
X166990000Y-93980000D02*
X167250000Y-94240000D01*
X165100000Y-93980000D02*
X166990000Y-93980000D01*
X156949956Y-89639956D02*
X157040160Y-89730160D01*
X149893693Y-89639956D02*
X156949956Y-89639956D01*
X149673649Y-89860000D02*
X149893693Y-89639956D01*
X148625000Y-89860000D02*
X149673649Y-89860000D01*
X167250000Y-103537500D02*
X168552500Y-102235000D01*
X167250000Y-105035000D02*
X167250000Y-103537500D01*
X165487000Y-105035000D02*
X165100000Y-104648000D01*
X167250000Y-105035000D02*
X165487000Y-105035000D01*
X148649990Y-93384990D02*
X148625000Y-93360000D01*
X148625000Y-93360000D02*
X150510000Y-93360000D01*
X158242000Y-101092000D02*
X162560000Y-101092000D01*
X150510000Y-93360000D02*
X158242000Y-101092000D01*
X167250000Y-115830000D02*
X167250000Y-114690000D01*
X168552500Y-113387500D02*
X167250000Y-114690000D01*
X168552500Y-113030000D02*
X168552500Y-113387500D01*
X163576000Y-100711000D02*
X163576000Y-112156000D01*
X163195000Y-100330000D02*
X163576000Y-100711000D01*
X158116410Y-100330000D02*
X163195000Y-100330000D01*
X150646411Y-92860000D02*
X158116410Y-100330000D01*
X148625000Y-92860000D02*
X150646411Y-92860000D01*
X163576000Y-112156000D02*
X167250000Y-115830000D01*
X145182500Y-112672500D02*
X145145000Y-112710000D01*
X147320000Y-112672500D02*
X145182500Y-112672500D01*
X141200000Y-80851500D02*
X139596500Y-79248000D01*
X141200000Y-85935000D02*
X141200000Y-80851500D01*
X163195000Y-76477500D02*
X161290000Y-76477500D01*
X158750000Y-79017500D02*
X161290000Y-76477500D01*
X158750000Y-86360000D02*
X158750000Y-79017500D01*
X150219293Y-91860000D02*
X148625000Y-91860000D01*
X150639293Y-91440000D02*
X150219293Y-91860000D01*
X152400000Y-91440000D02*
X150639293Y-91440000D01*
X153670000Y-92710000D02*
X152400000Y-91440000D01*
X156845000Y-76477500D02*
X158750000Y-76477500D01*
X156845000Y-86360000D02*
X156845000Y-76477500D01*
X148625000Y-92360000D02*
X150792295Y-92360000D01*
X150792295Y-92360000D02*
X150950467Y-92201828D01*
X144700000Y-85935000D02*
X144689998Y-85924998D01*
X154305000Y-76477500D02*
X152400000Y-76477500D01*
X144700000Y-85935000D02*
X144700000Y-81995000D01*
X144700000Y-81995000D02*
X147320000Y-79375000D01*
X152400000Y-76990000D02*
X152400000Y-76477500D01*
X147320000Y-79375000D02*
X150015000Y-79375000D01*
X150015000Y-79375000D02*
X152400000Y-76990000D01*
X149860000Y-76477500D02*
X147955000Y-76477500D01*
X144200000Y-85935000D02*
X144200000Y-80745000D01*
X144200000Y-80745000D02*
X147955000Y-76990000D01*
X147955000Y-76990000D02*
X147955000Y-76477500D01*
X145205000Y-85935000D02*
X145224990Y-85915010D01*
X145200000Y-85935000D02*
X145205000Y-85935000D01*
X143510000Y-76477500D02*
X145415000Y-76477500D01*
X145200000Y-83400000D02*
X146050000Y-82550000D01*
X145200000Y-85935000D02*
X145200000Y-83400000D01*
X144145000Y-77747500D02*
X145415000Y-76477500D01*
X144145000Y-79375000D02*
X144145000Y-77747500D01*
X139065000Y-76477500D02*
X140970000Y-76477500D01*
X145700000Y-84170000D02*
X146050000Y-83820000D01*
X145700000Y-85935000D02*
X145700000Y-84170000D01*
X142875000Y-80645000D02*
X142875000Y-78105000D01*
X141247500Y-76477500D02*
X142875000Y-78105000D01*
X140970000Y-76477500D02*
X141247500Y-76477500D01*
X135552112Y-99060000D02*
X117410000Y-99060000D01*
X140700000Y-97285000D02*
X140700000Y-96444298D01*
X140700000Y-96444298D02*
X140440692Y-96184990D01*
X140440692Y-96184990D02*
X138427122Y-96184990D01*
X138427122Y-96184990D02*
X135552112Y-99060000D01*
X117410000Y-99060000D02*
X115570000Y-97220000D01*
X115570000Y-97220000D02*
X115570000Y-96520000D01*
X140777113Y-95885000D02*
X140627092Y-95734979D01*
X140627092Y-95734979D02*
X138240723Y-95734979D01*
X138240723Y-95734979D02*
X135550702Y-98425000D01*
X135550702Y-98425000D02*
X121285000Y-98425000D01*
X121285000Y-98425000D02*
X120015000Y-97155000D01*
X117475000Y-75565000D02*
X115847500Y-75565000D01*
X118110000Y-76200000D02*
X117475000Y-75565000D01*
X141200000Y-96307887D02*
X140627092Y-95734979D01*
X141200000Y-97285000D02*
X141200000Y-96307887D01*
X147320000Y-110847500D02*
X147320000Y-108712000D01*
X147320000Y-108712000D02*
X144272000Y-105664000D01*
X144272000Y-105664000D02*
X144272000Y-100076000D01*
X145700000Y-98648000D02*
X145700000Y-97285000D01*
X144272000Y-100076000D02*
X145700000Y-98648000D01*
D35*
X127208688Y-81422752D02*
X127445070Y-81468961D01*
X127673568Y-81545127D01*
X127890395Y-81649986D01*
X128095406Y-81784055D01*
X129295428Y-82684071D01*
X129486677Y-82848368D01*
X129651728Y-83033324D01*
X129790907Y-83238466D01*
X129901770Y-83460191D01*
X129982378Y-83694624D01*
X130031312Y-83937641D01*
X130048000Y-84189215D01*
X130048000Y-87180987D01*
X130048612Y-87193435D01*
X130069441Y-87404916D01*
X130074298Y-87429334D01*
X130135985Y-87632687D01*
X130145512Y-87655688D01*
X130245685Y-87843099D01*
X130259517Y-87863800D01*
X130394328Y-88028068D01*
X130411932Y-88045672D01*
X130576200Y-88180483D01*
X130596901Y-88194315D01*
X130784312Y-88294488D01*
X130807313Y-88304015D01*
X131010666Y-88365702D01*
X131035084Y-88370559D01*
X131246565Y-88391388D01*
X131259013Y-88392000D01*
X135246672Y-88392000D01*
X135386197Y-88410369D01*
X135508454Y-88461010D01*
X135613436Y-88541564D01*
X135693990Y-88646546D01*
X135744631Y-88768803D01*
X135763000Y-88908328D01*
X135763000Y-89354000D01*
X128804592Y-89354000D01*
X127506000Y-88055409D01*
X127506000Y-87917843D01*
X128000000Y-87917843D01*
X128074689Y-87910487D01*
X128146508Y-87888701D01*
X128212696Y-87853322D01*
X128270711Y-87805711D01*
X128318322Y-87747696D01*
X128353701Y-87681508D01*
X128375487Y-87609689D01*
X128382843Y-87535000D01*
X128382843Y-83035000D01*
X128375487Y-82960311D01*
X128353701Y-82888492D01*
X128318322Y-82822304D01*
X128270711Y-82764289D01*
X128212696Y-82716678D01*
X128146508Y-82681299D01*
X128074689Y-82659513D01*
X128000000Y-82652157D01*
X126000000Y-82652157D01*
X125925311Y-82659513D01*
X125853492Y-82681299D01*
X125787304Y-82716678D01*
X125729289Y-82764289D01*
X125681678Y-82822304D01*
X125646299Y-82888492D01*
X125624513Y-82960311D01*
X125617157Y-83035000D01*
X125617157Y-84904000D01*
X123988284Y-84904000D01*
X123937190Y-84808411D01*
X123858488Y-84712512D01*
X123762589Y-84633810D01*
X123653179Y-84575329D01*
X123534462Y-84539317D01*
X123411000Y-84527157D01*
X122461000Y-84527157D01*
X122337538Y-84539317D01*
X122218821Y-84575329D01*
X122109411Y-84633810D01*
X122013512Y-84712512D01*
X121934810Y-84808411D01*
X121876329Y-84917821D01*
X121840317Y-85036538D01*
X121828157Y-85160000D01*
X121828157Y-85660000D01*
X121840317Y-85783462D01*
X121876329Y-85902179D01*
X121934810Y-86011589D01*
X122013512Y-86107488D01*
X122104780Y-86182389D01*
X122086518Y-86184188D01*
X121966820Y-86220498D01*
X121856506Y-86279463D01*
X121759815Y-86358815D01*
X121680463Y-86455506D01*
X121621498Y-86565820D01*
X121585188Y-86685518D01*
X121572928Y-86810000D01*
X121576000Y-87024250D01*
X121734750Y-87183000D01*
X122809000Y-87183000D01*
X122809000Y-87163000D01*
X123063000Y-87163000D01*
X123063000Y-87183000D01*
X124137250Y-87183000D01*
X124296000Y-87024250D01*
X124299072Y-86810000D01*
X124286812Y-86685518D01*
X124250502Y-86565820D01*
X124191537Y-86455506D01*
X124112185Y-86358815D01*
X124015494Y-86279463D01*
X123905180Y-86220498D01*
X123785482Y-86184188D01*
X123767220Y-86182389D01*
X123858488Y-86107488D01*
X123937190Y-86011589D01*
X123988284Y-85916000D01*
X125617157Y-85916000D01*
X125617157Y-87535000D01*
X125624513Y-87609689D01*
X125646299Y-87681508D01*
X125681678Y-87747696D01*
X125729289Y-87805711D01*
X125787304Y-87853322D01*
X125853492Y-87888701D01*
X125925311Y-87910487D01*
X126000000Y-87917843D01*
X126494001Y-87917843D01*
X126494001Y-88240144D01*
X126491553Y-88265000D01*
X126501322Y-88364192D01*
X126530255Y-88459574D01*
X126552127Y-88500492D01*
X126577242Y-88547479D01*
X126640474Y-88624527D01*
X126659780Y-88640372D01*
X128189408Y-90170000D01*
X127207252Y-91152157D01*
X126000000Y-91152157D01*
X125925311Y-91159513D01*
X125853492Y-91181299D01*
X125787304Y-91216678D01*
X125729289Y-91264289D01*
X125681678Y-91322304D01*
X125646299Y-91388492D01*
X125624513Y-91460311D01*
X125617157Y-91535000D01*
X125617157Y-93154000D01*
X123988284Y-93154000D01*
X123937190Y-93058411D01*
X123858488Y-92962512D01*
X123767220Y-92887611D01*
X123785482Y-92885812D01*
X123905180Y-92849502D01*
X124015494Y-92790537D01*
X124112185Y-92711185D01*
X124191537Y-92614494D01*
X124250502Y-92504180D01*
X124286812Y-92384482D01*
X124299072Y-92260000D01*
X124296000Y-92045750D01*
X124137250Y-91887000D01*
X123063000Y-91887000D01*
X123063000Y-91907000D01*
X122809000Y-91907000D01*
X122809000Y-91887000D01*
X121734750Y-91887000D01*
X121576000Y-92045750D01*
X121572928Y-92260000D01*
X121585188Y-92384482D01*
X121621498Y-92504180D01*
X121680463Y-92614494D01*
X121759815Y-92711185D01*
X121856506Y-92790537D01*
X121966820Y-92849502D01*
X122086518Y-92885812D01*
X122104780Y-92887611D01*
X122013512Y-92962512D01*
X121934810Y-93058411D01*
X121876329Y-93167821D01*
X121840317Y-93286538D01*
X121828157Y-93410000D01*
X121828157Y-93910000D01*
X121840317Y-94033462D01*
X121876329Y-94152179D01*
X121934810Y-94261589D01*
X122013512Y-94357488D01*
X122109411Y-94436190D01*
X122218821Y-94494671D01*
X122337538Y-94530683D01*
X122461000Y-94542843D01*
X123411000Y-94542843D01*
X123534462Y-94530683D01*
X123653179Y-94494671D01*
X123762589Y-94436190D01*
X123858488Y-94357488D01*
X123937190Y-94261589D01*
X123988284Y-94166000D01*
X125617157Y-94166000D01*
X125617157Y-96035000D01*
X125624513Y-96109689D01*
X125646299Y-96181508D01*
X125681678Y-96247696D01*
X125729289Y-96305711D01*
X125787304Y-96353322D01*
X125853492Y-96388701D01*
X125925311Y-96410487D01*
X126000000Y-96417843D01*
X128000000Y-96417843D01*
X128074689Y-96410487D01*
X128146508Y-96388701D01*
X128212696Y-96353322D01*
X128270711Y-96305711D01*
X128318322Y-96247696D01*
X128353701Y-96181508D01*
X128375487Y-96109689D01*
X128382843Y-96035000D01*
X128382843Y-91535000D01*
X128375487Y-91460311D01*
X128364965Y-91425626D01*
X128924092Y-90866500D01*
X129070654Y-90866500D01*
X129095500Y-90868947D01*
X129120346Y-90866500D01*
X129120354Y-90866500D01*
X129125430Y-90866000D01*
X135617872Y-90866000D01*
X135602029Y-90908476D01*
X135480476Y-91131084D01*
X135328480Y-91334127D01*
X135149127Y-91513480D01*
X134946084Y-91665476D01*
X134723476Y-91787029D01*
X134485829Y-91875667D01*
X134345454Y-91906204D01*
X134334250Y-91895000D01*
X133895000Y-91891928D01*
X133770518Y-91904188D01*
X133650820Y-91940498D01*
X133636785Y-91948000D01*
X133063215Y-91948000D01*
X133049180Y-91940498D01*
X132929482Y-91904188D01*
X132805000Y-91891928D01*
X132365750Y-91895000D01*
X132312750Y-91948000D01*
X131847250Y-91948000D01*
X131794250Y-91895000D01*
X131355000Y-91891928D01*
X131230518Y-91904188D01*
X131110820Y-91940498D01*
X131061549Y-91966834D01*
X131035084Y-91969441D01*
X131010666Y-91974298D01*
X130807313Y-92035985D01*
X130784312Y-92045512D01*
X130596901Y-92145685D01*
X130576200Y-92159517D01*
X130411932Y-92294328D01*
X130394328Y-92311932D01*
X130259517Y-92476200D01*
X130245685Y-92496901D01*
X130145512Y-92684312D01*
X130135985Y-92707313D01*
X130074298Y-92910666D01*
X130069441Y-92935084D01*
X130048612Y-93146565D01*
X130048000Y-93159013D01*
X130048000Y-95052417D01*
X130031707Y-95301011D01*
X129983916Y-95541272D01*
X129905175Y-95773232D01*
X129796829Y-95992938D01*
X129660736Y-96196616D01*
X129496475Y-96383919D01*
X128768919Y-97111475D01*
X128581616Y-97275736D01*
X128377938Y-97411829D01*
X128158232Y-97520175D01*
X127926272Y-97598916D01*
X127686011Y-97646707D01*
X127437417Y-97663000D01*
X123387583Y-97663000D01*
X123138989Y-97646707D01*
X122898728Y-97598916D01*
X122666768Y-97520175D01*
X122447062Y-97411829D01*
X122243384Y-97275736D01*
X122056081Y-97111475D01*
X121328525Y-96383919D01*
X121164264Y-96196616D01*
X121028171Y-95992938D01*
X120919825Y-95773232D01*
X120841084Y-95541272D01*
X120793293Y-95301011D01*
X120777000Y-95052417D01*
X120777000Y-91260000D01*
X121572928Y-91260000D01*
X121576000Y-91474250D01*
X121734750Y-91633000D01*
X122809000Y-91633000D01*
X122809000Y-90783750D01*
X123063000Y-90783750D01*
X123063000Y-91633000D01*
X124137250Y-91633000D01*
X124296000Y-91474250D01*
X124299072Y-91260000D01*
X124286812Y-91135518D01*
X124250502Y-91015820D01*
X124191537Y-90905506D01*
X124112185Y-90808815D01*
X124015494Y-90729463D01*
X123905180Y-90670498D01*
X123785482Y-90634188D01*
X123661000Y-90621928D01*
X123221750Y-90625000D01*
X123063000Y-90783750D01*
X122809000Y-90783750D01*
X122650250Y-90625000D01*
X122211000Y-90621928D01*
X122086518Y-90634188D01*
X121966820Y-90670498D01*
X121856506Y-90729463D01*
X121759815Y-90808815D01*
X121680463Y-90905506D01*
X121621498Y-91015820D01*
X121585188Y-91135518D01*
X121572928Y-91260000D01*
X120777000Y-91260000D01*
X120777000Y-87810000D01*
X121572928Y-87810000D01*
X121585188Y-87934482D01*
X121621498Y-88054180D01*
X121680463Y-88164494D01*
X121759815Y-88261185D01*
X121856506Y-88340537D01*
X121966820Y-88399502D01*
X122086518Y-88435812D01*
X122211000Y-88448072D01*
X122650250Y-88445000D01*
X122809000Y-88286250D01*
X122809000Y-87437000D01*
X123063000Y-87437000D01*
X123063000Y-88286250D01*
X123221750Y-88445000D01*
X123661000Y-88448072D01*
X123785482Y-88435812D01*
X123905180Y-88399502D01*
X124015494Y-88340537D01*
X124112185Y-88261185D01*
X124191537Y-88164494D01*
X124250502Y-88054180D01*
X124286812Y-87934482D01*
X124299072Y-87810000D01*
X124296000Y-87595750D01*
X124137250Y-87437000D01*
X123063000Y-87437000D01*
X122809000Y-87437000D01*
X121734750Y-87437000D01*
X121576000Y-87595750D01*
X121572928Y-87810000D01*
X120777000Y-87810000D01*
X120777000Y-84017583D01*
X120793293Y-83768989D01*
X120841084Y-83528728D01*
X120919825Y-83296768D01*
X121028171Y-83077062D01*
X121164264Y-82873384D01*
X121328525Y-82686081D01*
X122056081Y-81958525D01*
X122243384Y-81794264D01*
X122447062Y-81658171D01*
X122666768Y-81549825D01*
X122898728Y-81471084D01*
X123138989Y-81423293D01*
X123387583Y-81407000D01*
X126964247Y-81407000D01*
X127208688Y-81422752D01*
G04 #@! TA.AperFunction,Conductor*
D36*
G36*
X127208688Y-81422752D02*
G01*
X127445070Y-81468961D01*
X127673568Y-81545127D01*
X127890395Y-81649986D01*
X128095406Y-81784055D01*
X129295428Y-82684071D01*
X129486677Y-82848368D01*
X129651728Y-83033324D01*
X129790907Y-83238466D01*
X129901770Y-83460191D01*
X129982378Y-83694624D01*
X130031312Y-83937641D01*
X130048000Y-84189215D01*
X130048000Y-87180987D01*
X130048612Y-87193435D01*
X130069441Y-87404916D01*
X130074298Y-87429334D01*
X130135985Y-87632687D01*
X130145512Y-87655688D01*
X130245685Y-87843099D01*
X130259517Y-87863800D01*
X130394328Y-88028068D01*
X130411932Y-88045672D01*
X130576200Y-88180483D01*
X130596901Y-88194315D01*
X130784312Y-88294488D01*
X130807313Y-88304015D01*
X131010666Y-88365702D01*
X131035084Y-88370559D01*
X131246565Y-88391388D01*
X131259013Y-88392000D01*
X135246672Y-88392000D01*
X135386197Y-88410369D01*
X135508454Y-88461010D01*
X135613436Y-88541564D01*
X135693990Y-88646546D01*
X135744631Y-88768803D01*
X135763000Y-88908328D01*
X135763000Y-89354000D01*
X128804592Y-89354000D01*
X127506000Y-88055409D01*
X127506000Y-87917843D01*
X128000000Y-87917843D01*
X128074689Y-87910487D01*
X128146508Y-87888701D01*
X128212696Y-87853322D01*
X128270711Y-87805711D01*
X128318322Y-87747696D01*
X128353701Y-87681508D01*
X128375487Y-87609689D01*
X128382843Y-87535000D01*
X128382843Y-83035000D01*
X128375487Y-82960311D01*
X128353701Y-82888492D01*
X128318322Y-82822304D01*
X128270711Y-82764289D01*
X128212696Y-82716678D01*
X128146508Y-82681299D01*
X128074689Y-82659513D01*
X128000000Y-82652157D01*
X126000000Y-82652157D01*
X125925311Y-82659513D01*
X125853492Y-82681299D01*
X125787304Y-82716678D01*
X125729289Y-82764289D01*
X125681678Y-82822304D01*
X125646299Y-82888492D01*
X125624513Y-82960311D01*
X125617157Y-83035000D01*
X125617157Y-84904000D01*
X123988284Y-84904000D01*
X123937190Y-84808411D01*
X123858488Y-84712512D01*
X123762589Y-84633810D01*
X123653179Y-84575329D01*
X123534462Y-84539317D01*
X123411000Y-84527157D01*
X122461000Y-84527157D01*
X122337538Y-84539317D01*
X122218821Y-84575329D01*
X122109411Y-84633810D01*
X122013512Y-84712512D01*
X121934810Y-84808411D01*
X121876329Y-84917821D01*
X121840317Y-85036538D01*
X121828157Y-85160000D01*
X121828157Y-85660000D01*
X121840317Y-85783462D01*
X121876329Y-85902179D01*
X121934810Y-86011589D01*
X122013512Y-86107488D01*
X122104780Y-86182389D01*
X122086518Y-86184188D01*
X121966820Y-86220498D01*
X121856506Y-86279463D01*
X121759815Y-86358815D01*
X121680463Y-86455506D01*
X121621498Y-86565820D01*
X121585188Y-86685518D01*
X121572928Y-86810000D01*
X121576000Y-87024250D01*
X121734750Y-87183000D01*
X122809000Y-87183000D01*
X122809000Y-87163000D01*
X123063000Y-87163000D01*
X123063000Y-87183000D01*
X124137250Y-87183000D01*
X124296000Y-87024250D01*
X124299072Y-86810000D01*
X124286812Y-86685518D01*
X124250502Y-86565820D01*
X124191537Y-86455506D01*
X124112185Y-86358815D01*
X124015494Y-86279463D01*
X123905180Y-86220498D01*
X123785482Y-86184188D01*
X123767220Y-86182389D01*
X123858488Y-86107488D01*
X123937190Y-86011589D01*
X123988284Y-85916000D01*
X125617157Y-85916000D01*
X125617157Y-87535000D01*
X125624513Y-87609689D01*
X125646299Y-87681508D01*
X125681678Y-87747696D01*
X125729289Y-87805711D01*
X125787304Y-87853322D01*
X125853492Y-87888701D01*
X125925311Y-87910487D01*
X126000000Y-87917843D01*
X126494001Y-87917843D01*
X126494001Y-88240144D01*
X126491553Y-88265000D01*
X126501322Y-88364192D01*
X126530255Y-88459574D01*
X126552127Y-88500492D01*
X126577242Y-88547479D01*
X126640474Y-88624527D01*
X126659780Y-88640372D01*
X128189408Y-90170000D01*
X127207252Y-91152157D01*
X126000000Y-91152157D01*
X125925311Y-91159513D01*
X125853492Y-91181299D01*
X125787304Y-91216678D01*
X125729289Y-91264289D01*
X125681678Y-91322304D01*
X125646299Y-91388492D01*
X125624513Y-91460311D01*
X125617157Y-91535000D01*
X125617157Y-93154000D01*
X123988284Y-93154000D01*
X123937190Y-93058411D01*
X123858488Y-92962512D01*
X123767220Y-92887611D01*
X123785482Y-92885812D01*
X123905180Y-92849502D01*
X124015494Y-92790537D01*
X124112185Y-92711185D01*
X124191537Y-92614494D01*
X124250502Y-92504180D01*
X124286812Y-92384482D01*
X124299072Y-92260000D01*
X124296000Y-92045750D01*
X124137250Y-91887000D01*
X123063000Y-91887000D01*
X123063000Y-91907000D01*
X122809000Y-91907000D01*
X122809000Y-91887000D01*
X121734750Y-91887000D01*
X121576000Y-92045750D01*
X121572928Y-92260000D01*
X121585188Y-92384482D01*
X121621498Y-92504180D01*
X121680463Y-92614494D01*
X121759815Y-92711185D01*
X121856506Y-92790537D01*
X121966820Y-92849502D01*
X122086518Y-92885812D01*
X122104780Y-92887611D01*
X122013512Y-92962512D01*
X121934810Y-93058411D01*
X121876329Y-93167821D01*
X121840317Y-93286538D01*
X121828157Y-93410000D01*
X121828157Y-93910000D01*
X121840317Y-94033462D01*
X121876329Y-94152179D01*
X121934810Y-94261589D01*
X122013512Y-94357488D01*
X122109411Y-94436190D01*
X122218821Y-94494671D01*
X122337538Y-94530683D01*
X122461000Y-94542843D01*
X123411000Y-94542843D01*
X123534462Y-94530683D01*
X123653179Y-94494671D01*
X123762589Y-94436190D01*
X123858488Y-94357488D01*
X123937190Y-94261589D01*
X123988284Y-94166000D01*
X125617157Y-94166000D01*
X125617157Y-96035000D01*
X125624513Y-96109689D01*
X125646299Y-96181508D01*
X125681678Y-96247696D01*
X125729289Y-96305711D01*
X125787304Y-96353322D01*
X125853492Y-96388701D01*
X125925311Y-96410487D01*
X126000000Y-96417843D01*
X128000000Y-96417843D01*
X128074689Y-96410487D01*
X128146508Y-96388701D01*
X128212696Y-96353322D01*
X128270711Y-96305711D01*
X128318322Y-96247696D01*
X128353701Y-96181508D01*
X128375487Y-96109689D01*
X128382843Y-96035000D01*
X128382843Y-91535000D01*
X128375487Y-91460311D01*
X128364965Y-91425626D01*
X128924092Y-90866500D01*
X129070654Y-90866500D01*
X129095500Y-90868947D01*
X129120346Y-90866500D01*
X129120354Y-90866500D01*
X129125430Y-90866000D01*
X135617872Y-90866000D01*
X135602029Y-90908476D01*
X135480476Y-91131084D01*
X135328480Y-91334127D01*
X135149127Y-91513480D01*
X134946084Y-91665476D01*
X134723476Y-91787029D01*
X134485829Y-91875667D01*
X134345454Y-91906204D01*
X134334250Y-91895000D01*
X133895000Y-91891928D01*
X133770518Y-91904188D01*
X133650820Y-91940498D01*
X133636785Y-91948000D01*
X133063215Y-91948000D01*
X133049180Y-91940498D01*
X132929482Y-91904188D01*
X132805000Y-91891928D01*
X132365750Y-91895000D01*
X132312750Y-91948000D01*
X131847250Y-91948000D01*
X131794250Y-91895000D01*
X131355000Y-91891928D01*
X131230518Y-91904188D01*
X131110820Y-91940498D01*
X131061549Y-91966834D01*
X131035084Y-91969441D01*
X131010666Y-91974298D01*
X130807313Y-92035985D01*
X130784312Y-92045512D01*
X130596901Y-92145685D01*
X130576200Y-92159517D01*
X130411932Y-92294328D01*
X130394328Y-92311932D01*
X130259517Y-92476200D01*
X130245685Y-92496901D01*
X130145512Y-92684312D01*
X130135985Y-92707313D01*
X130074298Y-92910666D01*
X130069441Y-92935084D01*
X130048612Y-93146565D01*
X130048000Y-93159013D01*
X130048000Y-95052417D01*
X130031707Y-95301011D01*
X129983916Y-95541272D01*
X129905175Y-95773232D01*
X129796829Y-95992938D01*
X129660736Y-96196616D01*
X129496475Y-96383919D01*
X128768919Y-97111475D01*
X128581616Y-97275736D01*
X128377938Y-97411829D01*
X128158232Y-97520175D01*
X127926272Y-97598916D01*
X127686011Y-97646707D01*
X127437417Y-97663000D01*
X123387583Y-97663000D01*
X123138989Y-97646707D01*
X122898728Y-97598916D01*
X122666768Y-97520175D01*
X122447062Y-97411829D01*
X122243384Y-97275736D01*
X122056081Y-97111475D01*
X121328525Y-96383919D01*
X121164264Y-96196616D01*
X121028171Y-95992938D01*
X120919825Y-95773232D01*
X120841084Y-95541272D01*
X120793293Y-95301011D01*
X120777000Y-95052417D01*
X120777000Y-91260000D01*
X121572928Y-91260000D01*
X121576000Y-91474250D01*
X121734750Y-91633000D01*
X122809000Y-91633000D01*
X122809000Y-90783750D01*
X123063000Y-90783750D01*
X123063000Y-91633000D01*
X124137250Y-91633000D01*
X124296000Y-91474250D01*
X124299072Y-91260000D01*
X124286812Y-91135518D01*
X124250502Y-91015820D01*
X124191537Y-90905506D01*
X124112185Y-90808815D01*
X124015494Y-90729463D01*
X123905180Y-90670498D01*
X123785482Y-90634188D01*
X123661000Y-90621928D01*
X123221750Y-90625000D01*
X123063000Y-90783750D01*
X122809000Y-90783750D01*
X122650250Y-90625000D01*
X122211000Y-90621928D01*
X122086518Y-90634188D01*
X121966820Y-90670498D01*
X121856506Y-90729463D01*
X121759815Y-90808815D01*
X121680463Y-90905506D01*
X121621498Y-91015820D01*
X121585188Y-91135518D01*
X121572928Y-91260000D01*
X120777000Y-91260000D01*
X120777000Y-87810000D01*
X121572928Y-87810000D01*
X121585188Y-87934482D01*
X121621498Y-88054180D01*
X121680463Y-88164494D01*
X121759815Y-88261185D01*
X121856506Y-88340537D01*
X121966820Y-88399502D01*
X122086518Y-88435812D01*
X122211000Y-88448072D01*
X122650250Y-88445000D01*
X122809000Y-88286250D01*
X122809000Y-87437000D01*
X123063000Y-87437000D01*
X123063000Y-88286250D01*
X123221750Y-88445000D01*
X123661000Y-88448072D01*
X123785482Y-88435812D01*
X123905180Y-88399502D01*
X124015494Y-88340537D01*
X124112185Y-88261185D01*
X124191537Y-88164494D01*
X124250502Y-88054180D01*
X124286812Y-87934482D01*
X124299072Y-87810000D01*
X124296000Y-87595750D01*
X124137250Y-87437000D01*
X123063000Y-87437000D01*
X122809000Y-87437000D01*
X121734750Y-87437000D01*
X121576000Y-87595750D01*
X121572928Y-87810000D01*
X120777000Y-87810000D01*
X120777000Y-84017583D01*
X120793293Y-83768989D01*
X120841084Y-83528728D01*
X120919825Y-83296768D01*
X121028171Y-83077062D01*
X121164264Y-82873384D01*
X121328525Y-82686081D01*
X122056081Y-81958525D01*
X122243384Y-81794264D01*
X122447062Y-81658171D01*
X122666768Y-81549825D01*
X122898728Y-81471084D01*
X123138989Y-81423293D01*
X123387583Y-81407000D01*
X126964247Y-81407000D01*
X127208688Y-81422752D01*
G37*
G04 #@! TD.AperFunction*
M02*
