M48
; DRILL file {KiCad 5.1.10-88a1d61d58~90~ubuntu20.04.1} date Sun Aug 15 15:08:41 2021
; FORMAT={-:-/ absolute / metric / decimal}
; #@! TF.CreationDate,2021-08-15T15:08:41+03:00
; #@! TF.GenerationSoftware,Kicad,Pcbnew,5.1.10-88a1d61d58~90~ubuntu20.04.1
; #@! TF.FileFunction,Plated,1,4,PTH
FMAT,2
METRIC
T1C0.400
T2C0.500
T3C0.800
T4C1.000
T5C1.200
%
G90
G05
T1
X107.95Y-97.79
X108.585Y-81.915
X108.712Y-86.868
X109.22Y-105.41
X109.22Y-109.22
X110.929Y-108.725
X111.76Y-99.695
X111.76Y-113.03
X115.57Y-117.475
X116.205Y-88.9
X116.205Y-100.33
X118.11Y-76.2
X118.11Y-78.105
X118.11Y-92.71
X120.015Y-97.155
X121.285Y-86.995
X121.285Y-92.075
X121.285Y-95.885
X121.285Y-100.33
X121.92Y-106.045
X122.555Y-81.915
X124.46Y-97.155
X127.0Y-81.915
X127.635Y-97.155
X129.54Y-84.455
X129.54Y-92.71
X130.175Y-88.265
X130.81Y-93.98
X132.08Y-83.82
X132.08Y-88.9
X132.08Y-91.44
X132.08Y-96.52
X133.604Y-86.36
X134.62Y-83.82
X134.62Y-88.9
X134.62Y-91.44
X136.144Y-79.248
X136.144Y-86.36
X136.525Y-102.235
X136.652Y-99.568
X137.16Y-74.295
X137.16Y-81.28
X138.839Y-90.776
X139.7Y-81.28
X141.224Y-100.076
X141.224Y-102.108
X141.981Y-75.553
X142.24Y-59.69
X142.875Y-80.645
X143.51Y-110.49
X144.145Y-79.375
X146.05Y-82.55
X146.05Y-83.82
X147.32Y-104.14
X147.828Y-101.092
X147.955Y-70.485
X147.955Y-80.645
X149.86Y-59.055
X150.359Y-88.885
X150.495Y-73.025
X150.495Y-100.33
X150.876Y-83.82
X150.95Y-92.202
X152.4Y-59.055
X152.4Y-86.36
X153.416Y-83.82
X153.67Y-70.485
X153.67Y-92.71
X155.575Y-73.66
X156.21Y-59.055
X156.845Y-86.36
X157.04Y-89.73
X158.404Y-90.068
X158.75Y-61.595
X158.75Y-66.675
X158.75Y-86.36
X159.385Y-73.025
X162.015Y-73.025
X162.56Y-101.092
X164.561Y-74.536
X165.1Y-61.976
X165.1Y-70.104
X165.1Y-72.644
X165.1Y-80.264
X165.1Y-83.82
X165.1Y-91.44
X165.1Y-93.98
X165.1Y-102.235
X165.1Y-104.648
X165.1Y-112.395
X165.608Y-58.928
T2
X115.824Y-111.252
T3
X167.005Y-64.77
X167.005Y-75.565
X167.005Y-86.36
X167.005Y-97.155
X167.005Y-107.95
X167.005Y-118.745
T4
X129.54Y-107.315
X131.445Y-64.135
X131.445Y-66.675
X131.445Y-69.215
X131.445Y-71.755
X134.54Y-107.315
T5
X118.785Y-114.427
X123.785Y-114.427
X132.99Y-115.125
X132.99Y-119.825
X144.99Y-119.825
X151.49Y-119.825
X155.488Y-114.554
X160.488Y-114.554
X183.515Y-60.365
X183.515Y-65.365
X183.515Y-71.16
X183.515Y-76.16
X183.515Y-81.955
X183.515Y-86.955
X183.515Y-92.75
X183.515Y-97.75
X183.515Y-103.545
X183.515Y-108.545
X183.515Y-114.34
X183.515Y-119.34
T4
X111.15Y-62.44G85X111.15Y-62.94
G05
X111.15Y-65.64G85X111.15Y-66.14
G05
X111.15Y-69.14G85X111.15Y-69.64
G05
X117.45Y-62.44G85X117.45Y-62.94
G05
X117.45Y-65.64G85X117.45Y-66.14
G05
X117.45Y-69.14G85X117.45Y-69.64
G05
T0
M30
