%FSLAX45Y45*%
G04 Gerber Fmt 4.5, Leading zero omitted, Abs format (unit mm)*
G04 Created by KiCad (PCBNEW 5.1.10-88a1d61d58~90~ubuntu20.04.1) date 2021-08-15 15:08:53*
%MOMM*%
%LPD*%
G01*
G04 APERTURE LIST*
%TA.AperFunction,Profile*%
%ADD10C,0.050000*%
%TD*%
%ADD11C,0.200000*%
%ADD12C,0.300000*%
G04 APERTURE END LIST*
D10*
X18900000Y-5700000D02*
G75*
G02*
X19100000Y-5900000I0J-200000D01*
G01*
X19100000Y-12000000D02*
G75*
G02*
X18900000Y-12200000I-200000J0D01*
G01*
X10800000Y-12200000D02*
G75*
G02*
X10600000Y-12000000I0J200000D01*
G01*
X10600000Y-5900000D02*
G75*
G02*
X10800000Y-5700000I200000J0D01*
G01*
X19100000Y-5900000D02*
X19100000Y-12000000D01*
X10800000Y-5700000D02*
X18900000Y-5700000D01*
X10600000Y-12000000D02*
X10600000Y-5900000D01*
X18900000Y-12200000D02*
X10800000Y-12200000D01*
X12550000Y-6350000D02*
G75*
G03*
X12550000Y-6350000I-150000J0D01*
G01*
X15950000Y-10400000D02*
G75*
G03*
X15950000Y-10400000I-150000J0D01*
G01*
D11*
X10775000Y-9759000D02*
X10815000Y-9799000D01*
X10815000Y-9759000D02*
X10775000Y-9799000D01*
X10838500Y-8171500D02*
X10878500Y-8211500D01*
X10878500Y-8171500D02*
X10838500Y-8211500D01*
X10851200Y-8666800D02*
X10891200Y-8706800D01*
X10891200Y-8666800D02*
X10851200Y-8706800D01*
X10902000Y-10521000D02*
X10942000Y-10561000D01*
X10942000Y-10521000D02*
X10902000Y-10561000D01*
X10902000Y-10902000D02*
X10942000Y-10942000D01*
X10942000Y-10902000D02*
X10902000Y-10942000D01*
X11072944Y-10852501D02*
X11112944Y-10892501D01*
X11112944Y-10852501D02*
X11072944Y-10892501D01*
X11156000Y-9949500D02*
X11196000Y-9989500D01*
X11196000Y-9949500D02*
X11156000Y-9989500D01*
X11156000Y-11283000D02*
X11196000Y-11323000D01*
X11196000Y-11283000D02*
X11156000Y-11323000D01*
X11537000Y-11727500D02*
X11577000Y-11767500D01*
X11577000Y-11727500D02*
X11537000Y-11767500D01*
X11600500Y-8870000D02*
X11640500Y-8910000D01*
X11640500Y-8870000D02*
X11600500Y-8910000D01*
X11600500Y-10013000D02*
X11640500Y-10053000D01*
X11640500Y-10013000D02*
X11600500Y-10053000D01*
X11791000Y-7600000D02*
X11831000Y-7640000D01*
X11831000Y-7600000D02*
X11791000Y-7640000D01*
X11791000Y-7790500D02*
X11831000Y-7830500D01*
X11831000Y-7790500D02*
X11791000Y-7830500D01*
X11791000Y-9251000D02*
X11831000Y-9291000D01*
X11831000Y-9251000D02*
X11791000Y-9291000D01*
X11981500Y-9695500D02*
X12021500Y-9735500D01*
X12021500Y-9695500D02*
X11981500Y-9735500D01*
X12108500Y-8679500D02*
X12148500Y-8719500D01*
X12148500Y-8679500D02*
X12108500Y-8719500D01*
X12108500Y-9187500D02*
X12148500Y-9227500D01*
X12148500Y-9187500D02*
X12108500Y-9227500D01*
X12108500Y-9568500D02*
X12148500Y-9608500D01*
X12148500Y-9568500D02*
X12108500Y-9608500D01*
X12108500Y-10013000D02*
X12148500Y-10053000D01*
X12148500Y-10013000D02*
X12108500Y-10053000D01*
X12172000Y-10584500D02*
X12212000Y-10624500D01*
X12212000Y-10584500D02*
X12172000Y-10624500D01*
X12235500Y-8171500D02*
X12275500Y-8211500D01*
X12275500Y-8171500D02*
X12235500Y-8211500D01*
X12426000Y-9695500D02*
X12466000Y-9735500D01*
X12466000Y-9695500D02*
X12426000Y-9735500D01*
X12680000Y-8171500D02*
X12720000Y-8211500D01*
X12720000Y-8171500D02*
X12680000Y-8211500D01*
X12743500Y-9695500D02*
X12783500Y-9735500D01*
X12783500Y-9695500D02*
X12743500Y-9735500D01*
X12934000Y-8425500D02*
X12974000Y-8465500D01*
X12974000Y-8425500D02*
X12934000Y-8465500D01*
X12934000Y-9251000D02*
X12974000Y-9291000D01*
X12974000Y-9251000D02*
X12934000Y-9291000D01*
X12997500Y-8806500D02*
X13037500Y-8846500D01*
X13037500Y-8806500D02*
X12997500Y-8846500D01*
X13061000Y-9378000D02*
X13101000Y-9418000D01*
X13101000Y-9378000D02*
X13061000Y-9418000D01*
X13188000Y-8362000D02*
X13228000Y-8402000D01*
X13228000Y-8362000D02*
X13188000Y-8402000D01*
X13188000Y-8870000D02*
X13228000Y-8910000D01*
X13228000Y-8870000D02*
X13188000Y-8910000D01*
X13188000Y-9124000D02*
X13228000Y-9164000D01*
X13228000Y-9124000D02*
X13188000Y-9164000D01*
X13188000Y-9632000D02*
X13228000Y-9672000D01*
X13228000Y-9632000D02*
X13188000Y-9672000D01*
X13340400Y-8616000D02*
X13380400Y-8656000D01*
X13380400Y-8616000D02*
X13340400Y-8656000D01*
X13442000Y-8362000D02*
X13482000Y-8402000D01*
X13482000Y-8362000D02*
X13442000Y-8402000D01*
X13442000Y-8870000D02*
X13482000Y-8910000D01*
X13482000Y-8870000D02*
X13442000Y-8910000D01*
X13442000Y-9124000D02*
X13482000Y-9164000D01*
X13482000Y-9124000D02*
X13442000Y-9164000D01*
X13594400Y-7904800D02*
X13634400Y-7944800D01*
X13634400Y-7904800D02*
X13594400Y-7944800D01*
X13594400Y-8616000D02*
X13634400Y-8656000D01*
X13634400Y-8616000D02*
X13594400Y-8656000D01*
X13632500Y-10203500D02*
X13672500Y-10243500D01*
X13672500Y-10203500D02*
X13632500Y-10243500D01*
X13645200Y-9936800D02*
X13685200Y-9976800D01*
X13685200Y-9936800D02*
X13645200Y-9976800D01*
X13696000Y-7409500D02*
X13736000Y-7449500D01*
X13736000Y-7409500D02*
X13696000Y-7449500D01*
X13696000Y-8108000D02*
X13736000Y-8148000D01*
X13736000Y-8108000D02*
X13696000Y-8148000D01*
X13863930Y-9057650D02*
X13903930Y-9097650D01*
X13903930Y-9057650D02*
X13863930Y-9097650D01*
X13950000Y-8108000D02*
X13990000Y-8148000D01*
X13990000Y-8108000D02*
X13950000Y-8148000D01*
X14102400Y-9987600D02*
X14142400Y-10027600D01*
X14142400Y-9987600D02*
X14102400Y-10027600D01*
X14102400Y-10190800D02*
X14142400Y-10230800D01*
X14142400Y-10190800D02*
X14102400Y-10230800D01*
X14178092Y-7535338D02*
X14218092Y-7575338D01*
X14218092Y-7535338D02*
X14178092Y-7575338D01*
X14204000Y-5949000D02*
X14244000Y-5989000D01*
X14244000Y-5949000D02*
X14204000Y-5989000D01*
X14267500Y-8044500D02*
X14307500Y-8084500D01*
X14307500Y-8044500D02*
X14267500Y-8084500D01*
X14331000Y-11029000D02*
X14371000Y-11069000D01*
X14371000Y-11029000D02*
X14331000Y-11069000D01*
X14394500Y-7917500D02*
X14434500Y-7957500D01*
X14434500Y-7917500D02*
X14394500Y-7957500D01*
X14585000Y-8235000D02*
X14625000Y-8275000D01*
X14625000Y-8235000D02*
X14585000Y-8275000D01*
X14585000Y-8362000D02*
X14625000Y-8402000D01*
X14625000Y-8362000D02*
X14585000Y-8402000D01*
X14712000Y-10394000D02*
X14752000Y-10434000D01*
X14752000Y-10394000D02*
X14712000Y-10434000D01*
X14762800Y-10089200D02*
X14802800Y-10129200D01*
X14802800Y-10089200D02*
X14762800Y-10129200D01*
X14775500Y-7028500D02*
X14815500Y-7068500D01*
X14815500Y-7028500D02*
X14775500Y-7068500D01*
X14775500Y-8044500D02*
X14815500Y-8084500D01*
X14815500Y-8044500D02*
X14775500Y-8084500D01*
X14966000Y-5885500D02*
X15006000Y-5925500D01*
X15006000Y-5885500D02*
X14966000Y-5925500D01*
X15015925Y-8868514D02*
X15055925Y-8908514D01*
X15055925Y-8868514D02*
X15015925Y-8908514D01*
X15029500Y-7282500D02*
X15069500Y-7322500D01*
X15069500Y-7282500D02*
X15029500Y-7322500D01*
X15029500Y-10013000D02*
X15069500Y-10053000D01*
X15069500Y-10013000D02*
X15029500Y-10053000D01*
X15067600Y-8362000D02*
X15107600Y-8402000D01*
X15107600Y-8362000D02*
X15067600Y-8402000D01*
X15075047Y-9200183D02*
X15115047Y-9240183D01*
X15115047Y-9200183D02*
X15075047Y-9240183D01*
X15220000Y-5885500D02*
X15260000Y-5925500D01*
X15260000Y-5885500D02*
X15220000Y-5925500D01*
X15220000Y-8616000D02*
X15260000Y-8656000D01*
X15260000Y-8616000D02*
X15220000Y-8656000D01*
X15321600Y-8362000D02*
X15361600Y-8402000D01*
X15361600Y-8362000D02*
X15321600Y-8402000D01*
X15347000Y-7028500D02*
X15387000Y-7068500D01*
X15387000Y-7028500D02*
X15347000Y-7068500D01*
X15347000Y-9251000D02*
X15387000Y-9291000D01*
X15387000Y-9251000D02*
X15347000Y-9291000D01*
X15537500Y-7346000D02*
X15577500Y-7386000D01*
X15577500Y-7346000D02*
X15537500Y-7386000D01*
X15601000Y-5885500D02*
X15641000Y-5925500D01*
X15641000Y-5885500D02*
X15601000Y-5925500D01*
X15664500Y-8616000D02*
X15704500Y-8656000D01*
X15704500Y-8616000D02*
X15664500Y-8656000D01*
X15684016Y-8953016D02*
X15724016Y-8993016D01*
X15724016Y-8953016D02*
X15684016Y-8993016D01*
X15820356Y-8986824D02*
X15860356Y-9026824D01*
X15860356Y-8986824D02*
X15820356Y-9026824D01*
X15855000Y-6139500D02*
X15895000Y-6179500D01*
X15895000Y-6139500D02*
X15855000Y-6179500D01*
X15855000Y-6647500D02*
X15895000Y-6687500D01*
X15895000Y-6647500D02*
X15855000Y-6687500D01*
X15855000Y-8616000D02*
X15895000Y-8656000D01*
X15895000Y-8616000D02*
X15855000Y-8656000D01*
X15918500Y-7282500D02*
X15958500Y-7322500D01*
X15958500Y-7282500D02*
X15918500Y-7322500D01*
X16181501Y-7282500D02*
X16221501Y-7322500D01*
X16221501Y-7282500D02*
X16181501Y-7322500D01*
X16236000Y-10089200D02*
X16276000Y-10129200D01*
X16276000Y-10089200D02*
X16236000Y-10129200D01*
X16436055Y-7433623D02*
X16476055Y-7473623D01*
X16476055Y-7433623D02*
X16436055Y-7473623D01*
X16490000Y-6177600D02*
X16530000Y-6217600D01*
X16530000Y-6177600D02*
X16490000Y-6217600D01*
X16490000Y-6990400D02*
X16530000Y-7030400D01*
X16530000Y-6990400D02*
X16490000Y-7030400D01*
X16490000Y-7244400D02*
X16530000Y-7284400D01*
X16530000Y-7244400D02*
X16490000Y-7284400D01*
X16490000Y-8006400D02*
X16530000Y-8046400D01*
X16530000Y-8006400D02*
X16490000Y-8046400D01*
X16490000Y-8362000D02*
X16530000Y-8402000D01*
X16530000Y-8362000D02*
X16490000Y-8402000D01*
X16490000Y-9124000D02*
X16530000Y-9164000D01*
X16530000Y-9124000D02*
X16490000Y-9164000D01*
X16490000Y-9378000D02*
X16530000Y-9418000D01*
X16530000Y-9378000D02*
X16490000Y-9418000D01*
X16490000Y-10203500D02*
X16530000Y-10243500D01*
X16530000Y-10203500D02*
X16490000Y-10243500D01*
X16490000Y-10444800D02*
X16530000Y-10484800D01*
X16530000Y-10444800D02*
X16490000Y-10484800D01*
X16490000Y-11219500D02*
X16530000Y-11259500D01*
X16530000Y-11219500D02*
X16490000Y-11259500D01*
X16540800Y-5872800D02*
X16580800Y-5912800D01*
X16580800Y-5872800D02*
X16540800Y-5912800D01*
X11607400Y-11125200D02*
G75*
G03*
X11607400Y-11125200I-25000J0D01*
G01*
X16700500Y-6437000D02*
X16700500Y-6517000D01*
X16660500Y-6477000D02*
X16740500Y-6477000D01*
X16700500Y-7516500D02*
X16700500Y-7596500D01*
X16660500Y-7556500D02*
X16740500Y-7556500D01*
X16700500Y-8596000D02*
X16700500Y-8676000D01*
X16660500Y-8636000D02*
X16740500Y-8636000D01*
X16700500Y-9675500D02*
X16700500Y-9755500D01*
X16660500Y-9715500D02*
X16740500Y-9715500D01*
X16700500Y-10755000D02*
X16700500Y-10835000D01*
X16660500Y-10795000D02*
X16740500Y-10795000D01*
X16700500Y-11834500D02*
X16700500Y-11914500D01*
X16660500Y-11874500D02*
X16740500Y-11874500D01*
X11150356Y-6304356D02*
X11150356Y-6233644D01*
X11079644Y-6233644D01*
X11079644Y-6304356D01*
X11150356Y-6304356D01*
X11075000Y-6244000D02*
X11075000Y-6294000D01*
X11155000Y-6244000D02*
X11155000Y-6294000D01*
X11075000Y-6294000D02*
G75*
G03*
X11155000Y-6294000I40000J0D01*
G01*
X11155000Y-6244000D02*
G75*
G03*
X11075000Y-6244000I-40000J0D01*
G01*
X11150356Y-6624356D02*
X11150356Y-6553644D01*
X11079644Y-6553644D01*
X11079644Y-6624356D01*
X11150356Y-6624356D01*
X11075000Y-6564000D02*
X11075000Y-6614000D01*
X11155000Y-6564000D02*
X11155000Y-6614000D01*
X11075000Y-6614000D02*
G75*
G03*
X11155000Y-6614000I40000J0D01*
G01*
X11155000Y-6564000D02*
G75*
G03*
X11075000Y-6564000I-40000J0D01*
G01*
X11150356Y-6974356D02*
X11150356Y-6903644D01*
X11079644Y-6903644D01*
X11079644Y-6974356D01*
X11150356Y-6974356D01*
X11075000Y-6914000D02*
X11075000Y-6964000D01*
X11155000Y-6914000D02*
X11155000Y-6964000D01*
X11075000Y-6964000D02*
G75*
G03*
X11155000Y-6964000I40000J0D01*
G01*
X11155000Y-6914000D02*
G75*
G03*
X11075000Y-6914000I-40000J0D01*
G01*
X11780356Y-6304356D02*
X11780356Y-6233644D01*
X11709644Y-6233644D01*
X11709644Y-6304356D01*
X11780356Y-6304356D01*
X11705000Y-6244000D02*
X11705000Y-6294000D01*
X11785000Y-6244000D02*
X11785000Y-6294000D01*
X11705000Y-6294000D02*
G75*
G03*
X11785000Y-6294000I40000J0D01*
G01*
X11785000Y-6244000D02*
G75*
G03*
X11705000Y-6244000I-40000J0D01*
G01*
X11780356Y-6624356D02*
X11780356Y-6553644D01*
X11709644Y-6553644D01*
X11709644Y-6624356D01*
X11780356Y-6624356D01*
X11705000Y-6564000D02*
X11705000Y-6614000D01*
X11785000Y-6564000D02*
X11785000Y-6614000D01*
X11705000Y-6614000D02*
G75*
G03*
X11785000Y-6614000I40000J0D01*
G01*
X11785000Y-6564000D02*
G75*
G03*
X11705000Y-6564000I-40000J0D01*
G01*
X11780356Y-6974356D02*
X11780356Y-6903644D01*
X11709644Y-6903644D01*
X11709644Y-6974356D01*
X11780356Y-6974356D01*
X11705000Y-6914000D02*
X11705000Y-6964000D01*
X11785000Y-6914000D02*
X11785000Y-6964000D01*
X11705000Y-6964000D02*
G75*
G03*
X11785000Y-6964000I40000J0D01*
G01*
X11785000Y-6914000D02*
G75*
G03*
X11705000Y-6914000I-40000J0D01*
G01*
X12989356Y-10766856D02*
X12989356Y-10696144D01*
X12918644Y-10696144D01*
X12918644Y-10766856D01*
X12989356Y-10766856D01*
X13179856Y-6448856D02*
X13179856Y-6378144D01*
X13109144Y-6378144D01*
X13109144Y-6448856D01*
X13179856Y-6448856D01*
X13179856Y-6702856D02*
X13179856Y-6632144D01*
X13109144Y-6632144D01*
X13109144Y-6702856D01*
X13179856Y-6702856D01*
X13179856Y-6956856D02*
X13179856Y-6886144D01*
X13109144Y-6886144D01*
X13109144Y-6956856D01*
X13179856Y-6956856D01*
X13179856Y-7210856D02*
X13179856Y-7140144D01*
X13109144Y-7140144D01*
X13109144Y-7210856D01*
X13179856Y-7210856D01*
X13489356Y-10766856D02*
X13489356Y-10696144D01*
X13418644Y-10696144D01*
X13418644Y-10766856D01*
X13489356Y-10766856D01*
X11878500Y-11502700D02*
X11938500Y-11442700D01*
X11878500Y-11382700D01*
X11818500Y-11442700D01*
X11878500Y-11502700D01*
X12378500Y-11502700D02*
X12438500Y-11442700D01*
X12378500Y-11382700D01*
X12318500Y-11442700D01*
X12378500Y-11502700D01*
X13299000Y-11572500D02*
X13359000Y-11512500D01*
X13299000Y-11452500D01*
X13239000Y-11512500D01*
X13299000Y-11572500D01*
X13299000Y-12042500D02*
X13359000Y-11982500D01*
X13299000Y-11922500D01*
X13239000Y-11982500D01*
X13299000Y-12042500D01*
X14499000Y-12042500D02*
X14559000Y-11982500D01*
X14499000Y-11922500D01*
X14439000Y-11982500D01*
X14499000Y-12042500D01*
X15149000Y-12042500D02*
X15209000Y-11982500D01*
X15149000Y-11922500D01*
X15089000Y-11982500D01*
X15149000Y-12042500D01*
X15548800Y-11515400D02*
X15608800Y-11455400D01*
X15548800Y-11395400D01*
X15488800Y-11455400D01*
X15548800Y-11515400D01*
X16048800Y-11515400D02*
X16108800Y-11455400D01*
X16048800Y-11395400D01*
X15988800Y-11455400D01*
X16048800Y-11515400D01*
X18351500Y-6096500D02*
X18411500Y-6036500D01*
X18351500Y-5976500D01*
X18291500Y-6036500D01*
X18351500Y-6096500D01*
X18351500Y-6596500D02*
X18411500Y-6536500D01*
X18351500Y-6476500D01*
X18291500Y-6536500D01*
X18351500Y-6596500D01*
X18351500Y-7176000D02*
X18411500Y-7116000D01*
X18351500Y-7056000D01*
X18291500Y-7116000D01*
X18351500Y-7176000D01*
X18351500Y-7676000D02*
X18411500Y-7616000D01*
X18351500Y-7556000D01*
X18291500Y-7616000D01*
X18351500Y-7676000D01*
X18351500Y-8255500D02*
X18411500Y-8195500D01*
X18351500Y-8135500D01*
X18291500Y-8195500D01*
X18351500Y-8255500D01*
X18351500Y-8755500D02*
X18411500Y-8695500D01*
X18351500Y-8635500D01*
X18291500Y-8695500D01*
X18351500Y-8755500D01*
X18351500Y-9335000D02*
X18411500Y-9275000D01*
X18351500Y-9215000D01*
X18291500Y-9275000D01*
X18351500Y-9335000D01*
X18351500Y-9835000D02*
X18411500Y-9775000D01*
X18351500Y-9715000D01*
X18291500Y-9775000D01*
X18351500Y-9835000D01*
X18351500Y-10414500D02*
X18411500Y-10354500D01*
X18351500Y-10294500D01*
X18291500Y-10354500D01*
X18351500Y-10414500D01*
X18351500Y-10914500D02*
X18411500Y-10854500D01*
X18351500Y-10794500D01*
X18291500Y-10854500D01*
X18351500Y-10914500D01*
X18351500Y-11494000D02*
X18411500Y-11434000D01*
X18351500Y-11374000D01*
X18291500Y-11434000D01*
X18351500Y-11494000D01*
X18351500Y-11994000D02*
X18411500Y-11934000D01*
X18351500Y-11874000D01*
X18291500Y-11934000D01*
X18351500Y-11994000D01*
D12*
X10883928Y-12668214D02*
X10883928Y-12368214D01*
X10955357Y-12368214D01*
X10998214Y-12382500D01*
X11026786Y-12411071D01*
X11041071Y-12439643D01*
X11055357Y-12496786D01*
X11055357Y-12539643D01*
X11041071Y-12596786D01*
X11026786Y-12625357D01*
X10998214Y-12653929D01*
X10955357Y-12668214D01*
X10883928Y-12668214D01*
X11183928Y-12668214D02*
X11183928Y-12468214D01*
X11183928Y-12525357D02*
X11198214Y-12496786D01*
X11212500Y-12482500D01*
X11241071Y-12468214D01*
X11269643Y-12468214D01*
X11369643Y-12668214D02*
X11369643Y-12468214D01*
X11369643Y-12368214D02*
X11355357Y-12382500D01*
X11369643Y-12396786D01*
X11383928Y-12382500D01*
X11369643Y-12368214D01*
X11369643Y-12396786D01*
X11555357Y-12668214D02*
X11526786Y-12653929D01*
X11512500Y-12625357D01*
X11512500Y-12368214D01*
X11712500Y-12668214D02*
X11683928Y-12653929D01*
X11669643Y-12625357D01*
X11669643Y-12368214D01*
X12055357Y-12668214D02*
X12055357Y-12368214D01*
X12155357Y-12582500D01*
X12255357Y-12368214D01*
X12255357Y-12668214D01*
X12526786Y-12668214D02*
X12526786Y-12511071D01*
X12512500Y-12482500D01*
X12483928Y-12468214D01*
X12426786Y-12468214D01*
X12398214Y-12482500D01*
X12526786Y-12653929D02*
X12498214Y-12668214D01*
X12426786Y-12668214D01*
X12398214Y-12653929D01*
X12383928Y-12625357D01*
X12383928Y-12596786D01*
X12398214Y-12568214D01*
X12426786Y-12553929D01*
X12498214Y-12553929D01*
X12526786Y-12539643D01*
X12669643Y-12468214D02*
X12669643Y-12768214D01*
X12669643Y-12482500D02*
X12698214Y-12468214D01*
X12755357Y-12468214D01*
X12783928Y-12482500D01*
X12798214Y-12496786D01*
X12812500Y-12525357D01*
X12812500Y-12611071D01*
X12798214Y-12639643D01*
X12783928Y-12653929D01*
X12755357Y-12668214D01*
X12698214Y-12668214D01*
X12669643Y-12653929D01*
X12941071Y-12639643D02*
X12955357Y-12653929D01*
X12941071Y-12668214D01*
X12926786Y-12653929D01*
X12941071Y-12639643D01*
X12941071Y-12668214D01*
X12941071Y-12482500D02*
X12955357Y-12496786D01*
X12941071Y-12511071D01*
X12926786Y-12496786D01*
X12941071Y-12482500D01*
X12941071Y-12511071D01*
X10557500Y-13142500D02*
X10597500Y-13182500D01*
X10597500Y-13142500D02*
X10557500Y-13182500D01*
X10941071Y-12998214D02*
X10969643Y-12998214D01*
X10998214Y-13012500D01*
X11012500Y-13026786D01*
X11026786Y-13055357D01*
X11041071Y-13112500D01*
X11041071Y-13183929D01*
X11026786Y-13241071D01*
X11012500Y-13269643D01*
X10998214Y-13283929D01*
X10969643Y-13298214D01*
X10941071Y-13298214D01*
X10912500Y-13283929D01*
X10898214Y-13269643D01*
X10883928Y-13241071D01*
X10869643Y-13183929D01*
X10869643Y-13112500D01*
X10883928Y-13055357D01*
X10898214Y-13026786D01*
X10912500Y-13012500D01*
X10941071Y-12998214D01*
X11169643Y-13269643D02*
X11183928Y-13283929D01*
X11169643Y-13298214D01*
X11155357Y-13283929D01*
X11169643Y-13269643D01*
X11169643Y-13298214D01*
X11441071Y-13098214D02*
X11441071Y-13298214D01*
X11369643Y-12983929D02*
X11298214Y-13198214D01*
X11483928Y-13198214D01*
X11655357Y-12998214D02*
X11683928Y-12998214D01*
X11712500Y-13012500D01*
X11726786Y-13026786D01*
X11741071Y-13055357D01*
X11755357Y-13112500D01*
X11755357Y-13183929D01*
X11741071Y-13241071D01*
X11726786Y-13269643D01*
X11712500Y-13283929D01*
X11683928Y-13298214D01*
X11655357Y-13298214D01*
X11626786Y-13283929D01*
X11612500Y-13269643D01*
X11598214Y-13241071D01*
X11583928Y-13183929D01*
X11583928Y-13112500D01*
X11598214Y-13055357D01*
X11612500Y-13026786D01*
X11626786Y-13012500D01*
X11655357Y-12998214D01*
X11941071Y-12998214D02*
X11969643Y-12998214D01*
X11998214Y-13012500D01*
X12012500Y-13026786D01*
X12026786Y-13055357D01*
X12041071Y-13112500D01*
X12041071Y-13183929D01*
X12026786Y-13241071D01*
X12012500Y-13269643D01*
X11998214Y-13283929D01*
X11969643Y-13298214D01*
X11941071Y-13298214D01*
X11912500Y-13283929D01*
X11898214Y-13269643D01*
X11883928Y-13241071D01*
X11869643Y-13183929D01*
X11869643Y-13112500D01*
X11883928Y-13055357D01*
X11898214Y-13026786D01*
X11912500Y-13012500D01*
X11941071Y-12998214D01*
X12169643Y-13298214D02*
X12169643Y-13098214D01*
X12169643Y-13126786D02*
X12183928Y-13112500D01*
X12212500Y-13098214D01*
X12255357Y-13098214D01*
X12283928Y-13112500D01*
X12298214Y-13141071D01*
X12298214Y-13298214D01*
X12298214Y-13141071D02*
X12312500Y-13112500D01*
X12341071Y-13098214D01*
X12383928Y-13098214D01*
X12412500Y-13112500D01*
X12426786Y-13141071D01*
X12426786Y-13298214D01*
X12569643Y-13298214D02*
X12569643Y-13098214D01*
X12569643Y-13126786D02*
X12583928Y-13112500D01*
X12612500Y-13098214D01*
X12655357Y-13098214D01*
X12683928Y-13112500D01*
X12698214Y-13141071D01*
X12698214Y-13298214D01*
X12698214Y-13141071D02*
X12712500Y-13112500D01*
X12741071Y-13098214D01*
X12783928Y-13098214D01*
X12812500Y-13112500D01*
X12826786Y-13141071D01*
X12826786Y-13298214D01*
X13412500Y-12983929D02*
X13155357Y-13369643D01*
X13798214Y-12998214D02*
X13826786Y-12998214D01*
X13855357Y-13012500D01*
X13869643Y-13026786D01*
X13883928Y-13055357D01*
X13898214Y-13112500D01*
X13898214Y-13183929D01*
X13883928Y-13241071D01*
X13869643Y-13269643D01*
X13855357Y-13283929D01*
X13826786Y-13298214D01*
X13798214Y-13298214D01*
X13769643Y-13283929D01*
X13755357Y-13269643D01*
X13741071Y-13241071D01*
X13726786Y-13183929D01*
X13726786Y-13112500D01*
X13741071Y-13055357D01*
X13755357Y-13026786D01*
X13769643Y-13012500D01*
X13798214Y-12998214D01*
X14026786Y-13269643D02*
X14041071Y-13283929D01*
X14026786Y-13298214D01*
X14012500Y-13283929D01*
X14026786Y-13269643D01*
X14026786Y-13298214D01*
X14226786Y-12998214D02*
X14255357Y-12998214D01*
X14283928Y-13012500D01*
X14298214Y-13026786D01*
X14312500Y-13055357D01*
X14326786Y-13112500D01*
X14326786Y-13183929D01*
X14312500Y-13241071D01*
X14298214Y-13269643D01*
X14283928Y-13283929D01*
X14255357Y-13298214D01*
X14226786Y-13298214D01*
X14198214Y-13283929D01*
X14183928Y-13269643D01*
X14169643Y-13241071D01*
X14155357Y-13183929D01*
X14155357Y-13112500D01*
X14169643Y-13055357D01*
X14183928Y-13026786D01*
X14198214Y-13012500D01*
X14226786Y-12998214D01*
X14612500Y-13298214D02*
X14441071Y-13298214D01*
X14526786Y-13298214D02*
X14526786Y-12998214D01*
X14498214Y-13041071D01*
X14469643Y-13069643D01*
X14441071Y-13083929D01*
X14883928Y-12998214D02*
X14741071Y-12998214D01*
X14726786Y-13141071D01*
X14741071Y-13126786D01*
X14769643Y-13112500D01*
X14841071Y-13112500D01*
X14869643Y-13126786D01*
X14883928Y-13141071D01*
X14898214Y-13169643D01*
X14898214Y-13241071D01*
X14883928Y-13269643D01*
X14869643Y-13283929D01*
X14841071Y-13298214D01*
X14769643Y-13298214D01*
X14741071Y-13283929D01*
X14726786Y-13269643D01*
X14998214Y-12998214D02*
X15198214Y-12998214D01*
X15069643Y-13298214D01*
X15298214Y-12998214D02*
X15298214Y-13055357D01*
X15412500Y-12998214D02*
X15412500Y-13055357D01*
X15855357Y-13412500D02*
X15841071Y-13398214D01*
X15812500Y-13355357D01*
X15798214Y-13326786D01*
X15783928Y-13283929D01*
X15769643Y-13212500D01*
X15769643Y-13155357D01*
X15783928Y-13083929D01*
X15798214Y-13041071D01*
X15812500Y-13012500D01*
X15841071Y-12969643D01*
X15855357Y-12955357D01*
X15983928Y-13298214D02*
X16041071Y-13298214D01*
X16069643Y-13283929D01*
X16083928Y-13269643D01*
X16112500Y-13226786D01*
X16126786Y-13169643D01*
X16126786Y-13055357D01*
X16112500Y-13026786D01*
X16098214Y-13012500D01*
X16069643Y-12998214D01*
X16012500Y-12998214D01*
X15983928Y-13012500D01*
X15969643Y-13026786D01*
X15955357Y-13055357D01*
X15955357Y-13126786D01*
X15969643Y-13155357D01*
X15983928Y-13169643D01*
X16012500Y-13183929D01*
X16069643Y-13183929D01*
X16098214Y-13169643D01*
X16112500Y-13155357D01*
X16126786Y-13126786D01*
X16412500Y-13298214D02*
X16241071Y-13298214D01*
X16326786Y-13298214D02*
X16326786Y-12998214D01*
X16298214Y-13041071D01*
X16269643Y-13069643D01*
X16241071Y-13083929D01*
X16769643Y-13298214D02*
X16769643Y-12998214D01*
X16898214Y-13298214D02*
X16898214Y-13141071D01*
X16883928Y-13112500D01*
X16855357Y-13098214D01*
X16812500Y-13098214D01*
X16783928Y-13112500D01*
X16769643Y-13126786D01*
X17083928Y-13298214D02*
X17055357Y-13283929D01*
X17041071Y-13269643D01*
X17026786Y-13241071D01*
X17026786Y-13155357D01*
X17041071Y-13126786D01*
X17055357Y-13112500D01*
X17083928Y-13098214D01*
X17126786Y-13098214D01*
X17155357Y-13112500D01*
X17169643Y-13126786D01*
X17183928Y-13155357D01*
X17183928Y-13241071D01*
X17169643Y-13269643D01*
X17155357Y-13283929D01*
X17126786Y-13298214D01*
X17083928Y-13298214D01*
X17355357Y-13298214D02*
X17326786Y-13283929D01*
X17312500Y-13255357D01*
X17312500Y-12998214D01*
X17583928Y-13283929D02*
X17555357Y-13298214D01*
X17498214Y-13298214D01*
X17469643Y-13283929D01*
X17455357Y-13255357D01*
X17455357Y-13141071D01*
X17469643Y-13112500D01*
X17498214Y-13098214D01*
X17555357Y-13098214D01*
X17583928Y-13112500D01*
X17598214Y-13141071D01*
X17598214Y-13169643D01*
X17455357Y-13198214D01*
X17712500Y-13283929D02*
X17741071Y-13298214D01*
X17798214Y-13298214D01*
X17826786Y-13283929D01*
X17841071Y-13255357D01*
X17841071Y-13241071D01*
X17826786Y-13212500D01*
X17798214Y-13198214D01*
X17755357Y-13198214D01*
X17726786Y-13183929D01*
X17712500Y-13155357D01*
X17712500Y-13141071D01*
X17726786Y-13112500D01*
X17755357Y-13098214D01*
X17798214Y-13098214D01*
X17826786Y-13112500D01*
X17941071Y-13412500D02*
X17955357Y-13398214D01*
X17983928Y-13355357D01*
X17998214Y-13326786D01*
X18012500Y-13283929D01*
X18026786Y-13212500D01*
X18026786Y-13155357D01*
X18012500Y-13083929D01*
X17998214Y-13041071D01*
X17983928Y-13012500D01*
X17955357Y-12969643D01*
X17941071Y-12955357D01*
X10597500Y-13558500D02*
G75*
G03*
X10597500Y-13558500I-25000J0D01*
G01*
X10941071Y-13394214D02*
X10969643Y-13394214D01*
X10998214Y-13408500D01*
X11012500Y-13422786D01*
X11026786Y-13451357D01*
X11041071Y-13508500D01*
X11041071Y-13579929D01*
X11026786Y-13637071D01*
X11012500Y-13665643D01*
X10998214Y-13679929D01*
X10969643Y-13694214D01*
X10941071Y-13694214D01*
X10912500Y-13679929D01*
X10898214Y-13665643D01*
X10883928Y-13637071D01*
X10869643Y-13579929D01*
X10869643Y-13508500D01*
X10883928Y-13451357D01*
X10898214Y-13422786D01*
X10912500Y-13408500D01*
X10941071Y-13394214D01*
X11169643Y-13665643D02*
X11183928Y-13679929D01*
X11169643Y-13694214D01*
X11155357Y-13679929D01*
X11169643Y-13665643D01*
X11169643Y-13694214D01*
X11455357Y-13394214D02*
X11312500Y-13394214D01*
X11298214Y-13537071D01*
X11312500Y-13522786D01*
X11341071Y-13508500D01*
X11412500Y-13508500D01*
X11441071Y-13522786D01*
X11455357Y-13537071D01*
X11469643Y-13565643D01*
X11469643Y-13637071D01*
X11455357Y-13665643D01*
X11441071Y-13679929D01*
X11412500Y-13694214D01*
X11341071Y-13694214D01*
X11312500Y-13679929D01*
X11298214Y-13665643D01*
X11655357Y-13394214D02*
X11683928Y-13394214D01*
X11712500Y-13408500D01*
X11726786Y-13422786D01*
X11741071Y-13451357D01*
X11755357Y-13508500D01*
X11755357Y-13579929D01*
X11741071Y-13637071D01*
X11726786Y-13665643D01*
X11712500Y-13679929D01*
X11683928Y-13694214D01*
X11655357Y-13694214D01*
X11626786Y-13679929D01*
X11612500Y-13665643D01*
X11598214Y-13637071D01*
X11583928Y-13579929D01*
X11583928Y-13508500D01*
X11598214Y-13451357D01*
X11612500Y-13422786D01*
X11626786Y-13408500D01*
X11655357Y-13394214D01*
X11941071Y-13394214D02*
X11969643Y-13394214D01*
X11998214Y-13408500D01*
X12012500Y-13422786D01*
X12026786Y-13451357D01*
X12041071Y-13508500D01*
X12041071Y-13579929D01*
X12026786Y-13637071D01*
X12012500Y-13665643D01*
X11998214Y-13679929D01*
X11969643Y-13694214D01*
X11941071Y-13694214D01*
X11912500Y-13679929D01*
X11898214Y-13665643D01*
X11883928Y-13637071D01*
X11869643Y-13579929D01*
X11869643Y-13508500D01*
X11883928Y-13451357D01*
X11898214Y-13422786D01*
X11912500Y-13408500D01*
X11941071Y-13394214D01*
X12169643Y-13694214D02*
X12169643Y-13494214D01*
X12169643Y-13522786D02*
X12183928Y-13508500D01*
X12212500Y-13494214D01*
X12255357Y-13494214D01*
X12283928Y-13508500D01*
X12298214Y-13537071D01*
X12298214Y-13694214D01*
X12298214Y-13537071D02*
X12312500Y-13508500D01*
X12341071Y-13494214D01*
X12383928Y-13494214D01*
X12412500Y-13508500D01*
X12426786Y-13537071D01*
X12426786Y-13694214D01*
X12569643Y-13694214D02*
X12569643Y-13494214D01*
X12569643Y-13522786D02*
X12583928Y-13508500D01*
X12612500Y-13494214D01*
X12655357Y-13494214D01*
X12683928Y-13508500D01*
X12698214Y-13537071D01*
X12698214Y-13694214D01*
X12698214Y-13537071D02*
X12712500Y-13508500D01*
X12741071Y-13494214D01*
X12783928Y-13494214D01*
X12812500Y-13508500D01*
X12826786Y-13537071D01*
X12826786Y-13694214D01*
X13412500Y-13379929D02*
X13155357Y-13765643D01*
X13798214Y-13394214D02*
X13826786Y-13394214D01*
X13855357Y-13408500D01*
X13869643Y-13422786D01*
X13883928Y-13451357D01*
X13898214Y-13508500D01*
X13898214Y-13579929D01*
X13883928Y-13637071D01*
X13869643Y-13665643D01*
X13855357Y-13679929D01*
X13826786Y-13694214D01*
X13798214Y-13694214D01*
X13769643Y-13679929D01*
X13755357Y-13665643D01*
X13741071Y-13637071D01*
X13726786Y-13579929D01*
X13726786Y-13508500D01*
X13741071Y-13451357D01*
X13755357Y-13422786D01*
X13769643Y-13408500D01*
X13798214Y-13394214D01*
X14026786Y-13665643D02*
X14041071Y-13679929D01*
X14026786Y-13694214D01*
X14012500Y-13679929D01*
X14026786Y-13665643D01*
X14026786Y-13694214D01*
X14226786Y-13394214D02*
X14255357Y-13394214D01*
X14283928Y-13408500D01*
X14298214Y-13422786D01*
X14312500Y-13451357D01*
X14326786Y-13508500D01*
X14326786Y-13579929D01*
X14312500Y-13637071D01*
X14298214Y-13665643D01*
X14283928Y-13679929D01*
X14255357Y-13694214D01*
X14226786Y-13694214D01*
X14198214Y-13679929D01*
X14183928Y-13665643D01*
X14169643Y-13637071D01*
X14155357Y-13579929D01*
X14155357Y-13508500D01*
X14169643Y-13451357D01*
X14183928Y-13422786D01*
X14198214Y-13408500D01*
X14226786Y-13394214D01*
X14612500Y-13694214D02*
X14441071Y-13694214D01*
X14526786Y-13694214D02*
X14526786Y-13394214D01*
X14498214Y-13437071D01*
X14469643Y-13465643D01*
X14441071Y-13479929D01*
X14755357Y-13694214D02*
X14812500Y-13694214D01*
X14841071Y-13679929D01*
X14855357Y-13665643D01*
X14883928Y-13622786D01*
X14898214Y-13565643D01*
X14898214Y-13451357D01*
X14883928Y-13422786D01*
X14869643Y-13408500D01*
X14841071Y-13394214D01*
X14783928Y-13394214D01*
X14755357Y-13408500D01*
X14741071Y-13422786D01*
X14726786Y-13451357D01*
X14726786Y-13522786D01*
X14741071Y-13551357D01*
X14755357Y-13565643D01*
X14783928Y-13579929D01*
X14841071Y-13579929D01*
X14869643Y-13565643D01*
X14883928Y-13551357D01*
X14898214Y-13522786D01*
X14998214Y-13394214D02*
X15198214Y-13394214D01*
X15069643Y-13694214D01*
X15298214Y-13394214D02*
X15298214Y-13451357D01*
X15412500Y-13394214D02*
X15412500Y-13451357D01*
X15855357Y-13808500D02*
X15841071Y-13794214D01*
X15812500Y-13751357D01*
X15798214Y-13722786D01*
X15783928Y-13679929D01*
X15769643Y-13608500D01*
X15769643Y-13551357D01*
X15783928Y-13479929D01*
X15798214Y-13437071D01*
X15812500Y-13408500D01*
X15841071Y-13365643D01*
X15855357Y-13351357D01*
X16126786Y-13694214D02*
X15955357Y-13694214D01*
X16041071Y-13694214D02*
X16041071Y-13394214D01*
X16012500Y-13437071D01*
X15983928Y-13465643D01*
X15955357Y-13479929D01*
X16483928Y-13694214D02*
X16483928Y-13394214D01*
X16612500Y-13694214D02*
X16612500Y-13537071D01*
X16598214Y-13508500D01*
X16569643Y-13494214D01*
X16526786Y-13494214D01*
X16498214Y-13508500D01*
X16483928Y-13522786D01*
X16798214Y-13694214D02*
X16769643Y-13679929D01*
X16755357Y-13665643D01*
X16741071Y-13637071D01*
X16741071Y-13551357D01*
X16755357Y-13522786D01*
X16769643Y-13508500D01*
X16798214Y-13494214D01*
X16841071Y-13494214D01*
X16869643Y-13508500D01*
X16883928Y-13522786D01*
X16898214Y-13551357D01*
X16898214Y-13637071D01*
X16883928Y-13665643D01*
X16869643Y-13679929D01*
X16841071Y-13694214D01*
X16798214Y-13694214D01*
X17069643Y-13694214D02*
X17041071Y-13679929D01*
X17026786Y-13651357D01*
X17026786Y-13394214D01*
X17298214Y-13679929D02*
X17269643Y-13694214D01*
X17212500Y-13694214D01*
X17183928Y-13679929D01*
X17169643Y-13651357D01*
X17169643Y-13537071D01*
X17183928Y-13508500D01*
X17212500Y-13494214D01*
X17269643Y-13494214D01*
X17298214Y-13508500D01*
X17312500Y-13537071D01*
X17312500Y-13565643D01*
X17169643Y-13594214D01*
X17412500Y-13808500D02*
X17426786Y-13794214D01*
X17455357Y-13751357D01*
X17469643Y-13722786D01*
X17483928Y-13679929D01*
X17498214Y-13608500D01*
X17498214Y-13551357D01*
X17483928Y-13479929D01*
X17469643Y-13437071D01*
X17455357Y-13408500D01*
X17426786Y-13365643D01*
X17412500Y-13351357D01*
X10557500Y-13914500D02*
X10557500Y-13994500D01*
X10517500Y-13954500D02*
X10597500Y-13954500D01*
X10941071Y-13790214D02*
X10969643Y-13790214D01*
X10998214Y-13804500D01*
X11012500Y-13818786D01*
X11026786Y-13847357D01*
X11041071Y-13904500D01*
X11041071Y-13975929D01*
X11026786Y-14033071D01*
X11012500Y-14061643D01*
X10998214Y-14075929D01*
X10969643Y-14090214D01*
X10941071Y-14090214D01*
X10912500Y-14075929D01*
X10898214Y-14061643D01*
X10883928Y-14033071D01*
X10869643Y-13975929D01*
X10869643Y-13904500D01*
X10883928Y-13847357D01*
X10898214Y-13818786D01*
X10912500Y-13804500D01*
X10941071Y-13790214D01*
X11169643Y-14061643D02*
X11183928Y-14075929D01*
X11169643Y-14090214D01*
X11155357Y-14075929D01*
X11169643Y-14061643D01*
X11169643Y-14090214D01*
X11355357Y-13918786D02*
X11326786Y-13904500D01*
X11312500Y-13890214D01*
X11298214Y-13861643D01*
X11298214Y-13847357D01*
X11312500Y-13818786D01*
X11326786Y-13804500D01*
X11355357Y-13790214D01*
X11412500Y-13790214D01*
X11441071Y-13804500D01*
X11455357Y-13818786D01*
X11469643Y-13847357D01*
X11469643Y-13861643D01*
X11455357Y-13890214D01*
X11441071Y-13904500D01*
X11412500Y-13918786D01*
X11355357Y-13918786D01*
X11326786Y-13933071D01*
X11312500Y-13947357D01*
X11298214Y-13975929D01*
X11298214Y-14033071D01*
X11312500Y-14061643D01*
X11326786Y-14075929D01*
X11355357Y-14090214D01*
X11412500Y-14090214D01*
X11441071Y-14075929D01*
X11455357Y-14061643D01*
X11469643Y-14033071D01*
X11469643Y-13975929D01*
X11455357Y-13947357D01*
X11441071Y-13933071D01*
X11412500Y-13918786D01*
X11655357Y-13790214D02*
X11683928Y-13790214D01*
X11712500Y-13804500D01*
X11726786Y-13818786D01*
X11741071Y-13847357D01*
X11755357Y-13904500D01*
X11755357Y-13975929D01*
X11741071Y-14033071D01*
X11726786Y-14061643D01*
X11712500Y-14075929D01*
X11683928Y-14090214D01*
X11655357Y-14090214D01*
X11626786Y-14075929D01*
X11612500Y-14061643D01*
X11598214Y-14033071D01*
X11583928Y-13975929D01*
X11583928Y-13904500D01*
X11598214Y-13847357D01*
X11612500Y-13818786D01*
X11626786Y-13804500D01*
X11655357Y-13790214D01*
X11941071Y-13790214D02*
X11969643Y-13790214D01*
X11998214Y-13804500D01*
X12012500Y-13818786D01*
X12026786Y-13847357D01*
X12041071Y-13904500D01*
X12041071Y-13975929D01*
X12026786Y-14033071D01*
X12012500Y-14061643D01*
X11998214Y-14075929D01*
X11969643Y-14090214D01*
X11941071Y-14090214D01*
X11912500Y-14075929D01*
X11898214Y-14061643D01*
X11883928Y-14033071D01*
X11869643Y-13975929D01*
X11869643Y-13904500D01*
X11883928Y-13847357D01*
X11898214Y-13818786D01*
X11912500Y-13804500D01*
X11941071Y-13790214D01*
X12169643Y-14090214D02*
X12169643Y-13890214D01*
X12169643Y-13918786D02*
X12183928Y-13904500D01*
X12212500Y-13890214D01*
X12255357Y-13890214D01*
X12283928Y-13904500D01*
X12298214Y-13933071D01*
X12298214Y-14090214D01*
X12298214Y-13933071D02*
X12312500Y-13904500D01*
X12341071Y-13890214D01*
X12383928Y-13890214D01*
X12412500Y-13904500D01*
X12426786Y-13933071D01*
X12426786Y-14090214D01*
X12569643Y-14090214D02*
X12569643Y-13890214D01*
X12569643Y-13918786D02*
X12583928Y-13904500D01*
X12612500Y-13890214D01*
X12655357Y-13890214D01*
X12683928Y-13904500D01*
X12698214Y-13933071D01*
X12698214Y-14090214D01*
X12698214Y-13933071D02*
X12712500Y-13904500D01*
X12741071Y-13890214D01*
X12783928Y-13890214D01*
X12812500Y-13904500D01*
X12826786Y-13933071D01*
X12826786Y-14090214D01*
X13412500Y-13775929D02*
X13155357Y-14161643D01*
X13798214Y-13790214D02*
X13826786Y-13790214D01*
X13855357Y-13804500D01*
X13869643Y-13818786D01*
X13883928Y-13847357D01*
X13898214Y-13904500D01*
X13898214Y-13975929D01*
X13883928Y-14033071D01*
X13869643Y-14061643D01*
X13855357Y-14075929D01*
X13826786Y-14090214D01*
X13798214Y-14090214D01*
X13769643Y-14075929D01*
X13755357Y-14061643D01*
X13741071Y-14033071D01*
X13726786Y-13975929D01*
X13726786Y-13904500D01*
X13741071Y-13847357D01*
X13755357Y-13818786D01*
X13769643Y-13804500D01*
X13798214Y-13790214D01*
X14026786Y-14061643D02*
X14041071Y-14075929D01*
X14026786Y-14090214D01*
X14012500Y-14075929D01*
X14026786Y-14061643D01*
X14026786Y-14090214D01*
X14226786Y-13790214D02*
X14255357Y-13790214D01*
X14283928Y-13804500D01*
X14298214Y-13818786D01*
X14312500Y-13847357D01*
X14326786Y-13904500D01*
X14326786Y-13975929D01*
X14312500Y-14033071D01*
X14298214Y-14061643D01*
X14283928Y-14075929D01*
X14255357Y-14090214D01*
X14226786Y-14090214D01*
X14198214Y-14075929D01*
X14183928Y-14061643D01*
X14169643Y-14033071D01*
X14155357Y-13975929D01*
X14155357Y-13904500D01*
X14169643Y-13847357D01*
X14183928Y-13818786D01*
X14198214Y-13804500D01*
X14226786Y-13790214D01*
X14426786Y-13790214D02*
X14612500Y-13790214D01*
X14512500Y-13904500D01*
X14555357Y-13904500D01*
X14583928Y-13918786D01*
X14598214Y-13933071D01*
X14612500Y-13961643D01*
X14612500Y-14033071D01*
X14598214Y-14061643D01*
X14583928Y-14075929D01*
X14555357Y-14090214D01*
X14469643Y-14090214D01*
X14441071Y-14075929D01*
X14426786Y-14061643D01*
X14898214Y-14090214D02*
X14726786Y-14090214D01*
X14812500Y-14090214D02*
X14812500Y-13790214D01*
X14783928Y-13833071D01*
X14755357Y-13861643D01*
X14726786Y-13875929D01*
X15169643Y-13790214D02*
X15026786Y-13790214D01*
X15012500Y-13933071D01*
X15026786Y-13918786D01*
X15055357Y-13904500D01*
X15126786Y-13904500D01*
X15155357Y-13918786D01*
X15169643Y-13933071D01*
X15183928Y-13961643D01*
X15183928Y-14033071D01*
X15169643Y-14061643D01*
X15155357Y-14075929D01*
X15126786Y-14090214D01*
X15055357Y-14090214D01*
X15026786Y-14075929D01*
X15012500Y-14061643D01*
X15298214Y-13790214D02*
X15298214Y-13847357D01*
X15412500Y-13790214D02*
X15412500Y-13847357D01*
X15855357Y-14204500D02*
X15841071Y-14190214D01*
X15812500Y-14147357D01*
X15798214Y-14118786D01*
X15783928Y-14075929D01*
X15769643Y-14004500D01*
X15769643Y-13947357D01*
X15783928Y-13875929D01*
X15798214Y-13833071D01*
X15812500Y-13804500D01*
X15841071Y-13761643D01*
X15855357Y-13747357D01*
X16098214Y-13790214D02*
X16041071Y-13790214D01*
X16012500Y-13804500D01*
X15998214Y-13818786D01*
X15969643Y-13861643D01*
X15955357Y-13918786D01*
X15955357Y-14033071D01*
X15969643Y-14061643D01*
X15983928Y-14075929D01*
X16012500Y-14090214D01*
X16069643Y-14090214D01*
X16098214Y-14075929D01*
X16112500Y-14061643D01*
X16126786Y-14033071D01*
X16126786Y-13961643D01*
X16112500Y-13933071D01*
X16098214Y-13918786D01*
X16069643Y-13904500D01*
X16012500Y-13904500D01*
X15983928Y-13918786D01*
X15969643Y-13933071D01*
X15955357Y-13961643D01*
X16483928Y-14090214D02*
X16483928Y-13790214D01*
X16612500Y-14090214D02*
X16612500Y-13933071D01*
X16598214Y-13904500D01*
X16569643Y-13890214D01*
X16526786Y-13890214D01*
X16498214Y-13904500D01*
X16483928Y-13918786D01*
X16798214Y-14090214D02*
X16769643Y-14075929D01*
X16755357Y-14061643D01*
X16741071Y-14033071D01*
X16741071Y-13947357D01*
X16755357Y-13918786D01*
X16769643Y-13904500D01*
X16798214Y-13890214D01*
X16841071Y-13890214D01*
X16869643Y-13904500D01*
X16883928Y-13918786D01*
X16898214Y-13947357D01*
X16898214Y-14033071D01*
X16883928Y-14061643D01*
X16869643Y-14075929D01*
X16841071Y-14090214D01*
X16798214Y-14090214D01*
X17069643Y-14090214D02*
X17041071Y-14075929D01*
X17026786Y-14047357D01*
X17026786Y-13790214D01*
X17298214Y-14075929D02*
X17269643Y-14090214D01*
X17212500Y-14090214D01*
X17183928Y-14075929D01*
X17169643Y-14047357D01*
X17169643Y-13933071D01*
X17183928Y-13904500D01*
X17212500Y-13890214D01*
X17269643Y-13890214D01*
X17298214Y-13904500D01*
X17312500Y-13933071D01*
X17312500Y-13961643D01*
X17169643Y-13990214D01*
X17426786Y-14075929D02*
X17455357Y-14090214D01*
X17512500Y-14090214D01*
X17541071Y-14075929D01*
X17555357Y-14047357D01*
X17555357Y-14033071D01*
X17541071Y-14004500D01*
X17512500Y-13990214D01*
X17469643Y-13990214D01*
X17441071Y-13975929D01*
X17426786Y-13947357D01*
X17426786Y-13933071D01*
X17441071Y-13904500D01*
X17469643Y-13890214D01*
X17512500Y-13890214D01*
X17541071Y-13904500D01*
X17655357Y-14204500D02*
X17669643Y-14190214D01*
X17698214Y-14147357D01*
X17712500Y-14118786D01*
X17726786Y-14075929D01*
X17741071Y-14004500D01*
X17741071Y-13947357D01*
X17726786Y-13875929D01*
X17712500Y-13833071D01*
X17698214Y-13804500D01*
X17669643Y-13761643D01*
X17655357Y-13747357D01*
X10582856Y-14385856D02*
X10582856Y-14315144D01*
X10512144Y-14315144D01*
X10512144Y-14385856D01*
X10582856Y-14385856D01*
X11041071Y-14486214D02*
X10869643Y-14486214D01*
X10955357Y-14486214D02*
X10955357Y-14186214D01*
X10926786Y-14229071D01*
X10898214Y-14257643D01*
X10869643Y-14271929D01*
X11169643Y-14457643D02*
X11183928Y-14471929D01*
X11169643Y-14486214D01*
X11155357Y-14471929D01*
X11169643Y-14457643D01*
X11169643Y-14486214D01*
X11369643Y-14186214D02*
X11398214Y-14186214D01*
X11426786Y-14200500D01*
X11441071Y-14214786D01*
X11455357Y-14243357D01*
X11469643Y-14300500D01*
X11469643Y-14371929D01*
X11455357Y-14429071D01*
X11441071Y-14457643D01*
X11426786Y-14471929D01*
X11398214Y-14486214D01*
X11369643Y-14486214D01*
X11341071Y-14471929D01*
X11326786Y-14457643D01*
X11312500Y-14429071D01*
X11298214Y-14371929D01*
X11298214Y-14300500D01*
X11312500Y-14243357D01*
X11326786Y-14214786D01*
X11341071Y-14200500D01*
X11369643Y-14186214D01*
X11655357Y-14186214D02*
X11683928Y-14186214D01*
X11712500Y-14200500D01*
X11726786Y-14214786D01*
X11741071Y-14243357D01*
X11755357Y-14300500D01*
X11755357Y-14371929D01*
X11741071Y-14429071D01*
X11726786Y-14457643D01*
X11712500Y-14471929D01*
X11683928Y-14486214D01*
X11655357Y-14486214D01*
X11626786Y-14471929D01*
X11612500Y-14457643D01*
X11598214Y-14429071D01*
X11583928Y-14371929D01*
X11583928Y-14300500D01*
X11598214Y-14243357D01*
X11612500Y-14214786D01*
X11626786Y-14200500D01*
X11655357Y-14186214D01*
X11941071Y-14186214D02*
X11969643Y-14186214D01*
X11998214Y-14200500D01*
X12012500Y-14214786D01*
X12026786Y-14243357D01*
X12041071Y-14300500D01*
X12041071Y-14371929D01*
X12026786Y-14429071D01*
X12012500Y-14457643D01*
X11998214Y-14471929D01*
X11969643Y-14486214D01*
X11941071Y-14486214D01*
X11912500Y-14471929D01*
X11898214Y-14457643D01*
X11883928Y-14429071D01*
X11869643Y-14371929D01*
X11869643Y-14300500D01*
X11883928Y-14243357D01*
X11898214Y-14214786D01*
X11912500Y-14200500D01*
X11941071Y-14186214D01*
X12169643Y-14486214D02*
X12169643Y-14286214D01*
X12169643Y-14314786D02*
X12183928Y-14300500D01*
X12212500Y-14286214D01*
X12255357Y-14286214D01*
X12283928Y-14300500D01*
X12298214Y-14329071D01*
X12298214Y-14486214D01*
X12298214Y-14329071D02*
X12312500Y-14300500D01*
X12341071Y-14286214D01*
X12383928Y-14286214D01*
X12412500Y-14300500D01*
X12426786Y-14329071D01*
X12426786Y-14486214D01*
X12569643Y-14486214D02*
X12569643Y-14286214D01*
X12569643Y-14314786D02*
X12583928Y-14300500D01*
X12612500Y-14286214D01*
X12655357Y-14286214D01*
X12683928Y-14300500D01*
X12698214Y-14329071D01*
X12698214Y-14486214D01*
X12698214Y-14329071D02*
X12712500Y-14300500D01*
X12741071Y-14286214D01*
X12783928Y-14286214D01*
X12812500Y-14300500D01*
X12826786Y-14329071D01*
X12826786Y-14486214D01*
X13412500Y-14171929D02*
X13155357Y-14557643D01*
X13798214Y-14186214D02*
X13826786Y-14186214D01*
X13855357Y-14200500D01*
X13869643Y-14214786D01*
X13883928Y-14243357D01*
X13898214Y-14300500D01*
X13898214Y-14371929D01*
X13883928Y-14429071D01*
X13869643Y-14457643D01*
X13855357Y-14471929D01*
X13826786Y-14486214D01*
X13798214Y-14486214D01*
X13769643Y-14471929D01*
X13755357Y-14457643D01*
X13741071Y-14429071D01*
X13726786Y-14371929D01*
X13726786Y-14300500D01*
X13741071Y-14243357D01*
X13755357Y-14214786D01*
X13769643Y-14200500D01*
X13798214Y-14186214D01*
X14026786Y-14457643D02*
X14041071Y-14471929D01*
X14026786Y-14486214D01*
X14012500Y-14471929D01*
X14026786Y-14457643D01*
X14026786Y-14486214D01*
X14226786Y-14186214D02*
X14255357Y-14186214D01*
X14283928Y-14200500D01*
X14298214Y-14214786D01*
X14312500Y-14243357D01*
X14326786Y-14300500D01*
X14326786Y-14371929D01*
X14312500Y-14429071D01*
X14298214Y-14457643D01*
X14283928Y-14471929D01*
X14255357Y-14486214D01*
X14226786Y-14486214D01*
X14198214Y-14471929D01*
X14183928Y-14457643D01*
X14169643Y-14429071D01*
X14155357Y-14371929D01*
X14155357Y-14300500D01*
X14169643Y-14243357D01*
X14183928Y-14214786D01*
X14198214Y-14200500D01*
X14226786Y-14186214D01*
X14426786Y-14186214D02*
X14612500Y-14186214D01*
X14512500Y-14300500D01*
X14555357Y-14300500D01*
X14583928Y-14314786D01*
X14598214Y-14329071D01*
X14612500Y-14357643D01*
X14612500Y-14429071D01*
X14598214Y-14457643D01*
X14583928Y-14471929D01*
X14555357Y-14486214D01*
X14469643Y-14486214D01*
X14441071Y-14471929D01*
X14426786Y-14457643D01*
X14755357Y-14486214D02*
X14812500Y-14486214D01*
X14841071Y-14471929D01*
X14855357Y-14457643D01*
X14883928Y-14414786D01*
X14898214Y-14357643D01*
X14898214Y-14243357D01*
X14883928Y-14214786D01*
X14869643Y-14200500D01*
X14841071Y-14186214D01*
X14783928Y-14186214D01*
X14755357Y-14200500D01*
X14741071Y-14214786D01*
X14726786Y-14243357D01*
X14726786Y-14314786D01*
X14741071Y-14343357D01*
X14755357Y-14357643D01*
X14783928Y-14371929D01*
X14841071Y-14371929D01*
X14869643Y-14357643D01*
X14883928Y-14343357D01*
X14898214Y-14314786D01*
X15155357Y-14286214D02*
X15155357Y-14486214D01*
X15083928Y-14171929D02*
X15012500Y-14386214D01*
X15198214Y-14386214D01*
X15298214Y-14186214D02*
X15298214Y-14243357D01*
X15412500Y-14186214D02*
X15412500Y-14243357D01*
X15855357Y-14600500D02*
X15841071Y-14586214D01*
X15812500Y-14543357D01*
X15798214Y-14514786D01*
X15783928Y-14471929D01*
X15769643Y-14400500D01*
X15769643Y-14343357D01*
X15783928Y-14271929D01*
X15798214Y-14229071D01*
X15812500Y-14200500D01*
X15841071Y-14157643D01*
X15855357Y-14143357D01*
X16098214Y-14186214D02*
X16041071Y-14186214D01*
X16012500Y-14200500D01*
X15998214Y-14214786D01*
X15969643Y-14257643D01*
X15955357Y-14314786D01*
X15955357Y-14429071D01*
X15969643Y-14457643D01*
X15983928Y-14471929D01*
X16012500Y-14486214D01*
X16069643Y-14486214D01*
X16098214Y-14471929D01*
X16112500Y-14457643D01*
X16126786Y-14429071D01*
X16126786Y-14357643D01*
X16112500Y-14329071D01*
X16098214Y-14314786D01*
X16069643Y-14300500D01*
X16012500Y-14300500D01*
X15983928Y-14314786D01*
X15969643Y-14329071D01*
X15955357Y-14357643D01*
X16483928Y-14486214D02*
X16483928Y-14186214D01*
X16612500Y-14486214D02*
X16612500Y-14329071D01*
X16598214Y-14300500D01*
X16569643Y-14286214D01*
X16526786Y-14286214D01*
X16498214Y-14300500D01*
X16483928Y-14314786D01*
X16798214Y-14486214D02*
X16769643Y-14471929D01*
X16755357Y-14457643D01*
X16741071Y-14429071D01*
X16741071Y-14343357D01*
X16755357Y-14314786D01*
X16769643Y-14300500D01*
X16798214Y-14286214D01*
X16841071Y-14286214D01*
X16869643Y-14300500D01*
X16883928Y-14314786D01*
X16898214Y-14343357D01*
X16898214Y-14429071D01*
X16883928Y-14457643D01*
X16869643Y-14471929D01*
X16841071Y-14486214D01*
X16798214Y-14486214D01*
X17069643Y-14486214D02*
X17041071Y-14471929D01*
X17026786Y-14443357D01*
X17026786Y-14186214D01*
X17298214Y-14471929D02*
X17269643Y-14486214D01*
X17212500Y-14486214D01*
X17183928Y-14471929D01*
X17169643Y-14443357D01*
X17169643Y-14329071D01*
X17183928Y-14300500D01*
X17212500Y-14286214D01*
X17269643Y-14286214D01*
X17298214Y-14300500D01*
X17312500Y-14329071D01*
X17312500Y-14357643D01*
X17169643Y-14386214D01*
X17426786Y-14471929D02*
X17455357Y-14486214D01*
X17512500Y-14486214D01*
X17541071Y-14471929D01*
X17555357Y-14443357D01*
X17555357Y-14429071D01*
X17541071Y-14400500D01*
X17512500Y-14386214D01*
X17469643Y-14386214D01*
X17441071Y-14371929D01*
X17426786Y-14343357D01*
X17426786Y-14329071D01*
X17441071Y-14300500D01*
X17469643Y-14286214D01*
X17512500Y-14286214D01*
X17541071Y-14300500D01*
X17912500Y-14371929D02*
X18141071Y-14371929D01*
X18026786Y-14486214D02*
X18026786Y-14257643D01*
X18641071Y-14186214D02*
X18583928Y-14186214D01*
X18555357Y-14200500D01*
X18541071Y-14214786D01*
X18512500Y-14257643D01*
X18498214Y-14314786D01*
X18498214Y-14429071D01*
X18512500Y-14457643D01*
X18526786Y-14471929D01*
X18555357Y-14486214D01*
X18612500Y-14486214D01*
X18641071Y-14471929D01*
X18655357Y-14457643D01*
X18669643Y-14429071D01*
X18669643Y-14357643D01*
X18655357Y-14329071D01*
X18641071Y-14314786D01*
X18612500Y-14300500D01*
X18555357Y-14300500D01*
X18526786Y-14314786D01*
X18512500Y-14329071D01*
X18498214Y-14357643D01*
X19012500Y-14471929D02*
X19041071Y-14486214D01*
X19098214Y-14486214D01*
X19126786Y-14471929D01*
X19141071Y-14443357D01*
X19141071Y-14429071D01*
X19126786Y-14400500D01*
X19098214Y-14386214D01*
X19055357Y-14386214D01*
X19026786Y-14371929D01*
X19012500Y-14343357D01*
X19012500Y-14329071D01*
X19026786Y-14300500D01*
X19055357Y-14286214D01*
X19098214Y-14286214D01*
X19126786Y-14300500D01*
X19312500Y-14486214D02*
X19283928Y-14471929D01*
X19269643Y-14443357D01*
X19269643Y-14186214D01*
X19469643Y-14486214D02*
X19441071Y-14471929D01*
X19426786Y-14457643D01*
X19412500Y-14429071D01*
X19412500Y-14343357D01*
X19426786Y-14314786D01*
X19441071Y-14300500D01*
X19469643Y-14286214D01*
X19512500Y-14286214D01*
X19541071Y-14300500D01*
X19555357Y-14314786D01*
X19569643Y-14343357D01*
X19569643Y-14429071D01*
X19555357Y-14457643D01*
X19541071Y-14471929D01*
X19512500Y-14486214D01*
X19469643Y-14486214D01*
X19655357Y-14286214D02*
X19769643Y-14286214D01*
X19698214Y-14186214D02*
X19698214Y-14443357D01*
X19712500Y-14471929D01*
X19741071Y-14486214D01*
X19769643Y-14486214D01*
X19855357Y-14471929D02*
X19883928Y-14486214D01*
X19941071Y-14486214D01*
X19969643Y-14471929D01*
X19983928Y-14443357D01*
X19983928Y-14429071D01*
X19969643Y-14400500D01*
X19941071Y-14386214D01*
X19898214Y-14386214D01*
X19869643Y-14371929D01*
X19855357Y-14343357D01*
X19855357Y-14329071D01*
X19869643Y-14300500D01*
X19898214Y-14286214D01*
X19941071Y-14286214D01*
X19969643Y-14300500D01*
X20083928Y-14600500D02*
X20098214Y-14586214D01*
X20126786Y-14543357D01*
X20141071Y-14514786D01*
X20155357Y-14471929D01*
X20169643Y-14400500D01*
X20169643Y-14343357D01*
X20155357Y-14271929D01*
X20141071Y-14229071D01*
X20126786Y-14200500D01*
X20098214Y-14157643D01*
X20083928Y-14143357D01*
X10537500Y-14806500D02*
X10597500Y-14746500D01*
X10537500Y-14686500D01*
X10477500Y-14746500D01*
X10537500Y-14806500D01*
X11041071Y-14882214D02*
X10869643Y-14882214D01*
X10955357Y-14882214D02*
X10955357Y-14582214D01*
X10926786Y-14625071D01*
X10898214Y-14653643D01*
X10869643Y-14667929D01*
X11169643Y-14853643D02*
X11183928Y-14867929D01*
X11169643Y-14882214D01*
X11155357Y-14867929D01*
X11169643Y-14853643D01*
X11169643Y-14882214D01*
X11298214Y-14610786D02*
X11312500Y-14596500D01*
X11341071Y-14582214D01*
X11412500Y-14582214D01*
X11441071Y-14596500D01*
X11455357Y-14610786D01*
X11469643Y-14639357D01*
X11469643Y-14667929D01*
X11455357Y-14710786D01*
X11283928Y-14882214D01*
X11469643Y-14882214D01*
X11655357Y-14582214D02*
X11683928Y-14582214D01*
X11712500Y-14596500D01*
X11726786Y-14610786D01*
X11741071Y-14639357D01*
X11755357Y-14696500D01*
X11755357Y-14767929D01*
X11741071Y-14825071D01*
X11726786Y-14853643D01*
X11712500Y-14867929D01*
X11683928Y-14882214D01*
X11655357Y-14882214D01*
X11626786Y-14867929D01*
X11612500Y-14853643D01*
X11598214Y-14825071D01*
X11583928Y-14767929D01*
X11583928Y-14696500D01*
X11598214Y-14639357D01*
X11612500Y-14610786D01*
X11626786Y-14596500D01*
X11655357Y-14582214D01*
X11941071Y-14582214D02*
X11969643Y-14582214D01*
X11998214Y-14596500D01*
X12012500Y-14610786D01*
X12026786Y-14639357D01*
X12041071Y-14696500D01*
X12041071Y-14767929D01*
X12026786Y-14825071D01*
X12012500Y-14853643D01*
X11998214Y-14867929D01*
X11969643Y-14882214D01*
X11941071Y-14882214D01*
X11912500Y-14867929D01*
X11898214Y-14853643D01*
X11883928Y-14825071D01*
X11869643Y-14767929D01*
X11869643Y-14696500D01*
X11883928Y-14639357D01*
X11898214Y-14610786D01*
X11912500Y-14596500D01*
X11941071Y-14582214D01*
X12169643Y-14882214D02*
X12169643Y-14682214D01*
X12169643Y-14710786D02*
X12183928Y-14696500D01*
X12212500Y-14682214D01*
X12255357Y-14682214D01*
X12283928Y-14696500D01*
X12298214Y-14725071D01*
X12298214Y-14882214D01*
X12298214Y-14725071D02*
X12312500Y-14696500D01*
X12341071Y-14682214D01*
X12383928Y-14682214D01*
X12412500Y-14696500D01*
X12426786Y-14725071D01*
X12426786Y-14882214D01*
X12569643Y-14882214D02*
X12569643Y-14682214D01*
X12569643Y-14710786D02*
X12583928Y-14696500D01*
X12612500Y-14682214D01*
X12655357Y-14682214D01*
X12683928Y-14696500D01*
X12698214Y-14725071D01*
X12698214Y-14882214D01*
X12698214Y-14725071D02*
X12712500Y-14696500D01*
X12741071Y-14682214D01*
X12783928Y-14682214D01*
X12812500Y-14696500D01*
X12826786Y-14725071D01*
X12826786Y-14882214D01*
X13412500Y-14567929D02*
X13155357Y-14953643D01*
X13798214Y-14582214D02*
X13826786Y-14582214D01*
X13855357Y-14596500D01*
X13869643Y-14610786D01*
X13883928Y-14639357D01*
X13898214Y-14696500D01*
X13898214Y-14767929D01*
X13883928Y-14825071D01*
X13869643Y-14853643D01*
X13855357Y-14867929D01*
X13826786Y-14882214D01*
X13798214Y-14882214D01*
X13769643Y-14867929D01*
X13755357Y-14853643D01*
X13741071Y-14825071D01*
X13726786Y-14767929D01*
X13726786Y-14696500D01*
X13741071Y-14639357D01*
X13755357Y-14610786D01*
X13769643Y-14596500D01*
X13798214Y-14582214D01*
X14026786Y-14853643D02*
X14041071Y-14867929D01*
X14026786Y-14882214D01*
X14012500Y-14867929D01*
X14026786Y-14853643D01*
X14026786Y-14882214D01*
X14226786Y-14582214D02*
X14255357Y-14582214D01*
X14283928Y-14596500D01*
X14298214Y-14610786D01*
X14312500Y-14639357D01*
X14326786Y-14696500D01*
X14326786Y-14767929D01*
X14312500Y-14825071D01*
X14298214Y-14853643D01*
X14283928Y-14867929D01*
X14255357Y-14882214D01*
X14226786Y-14882214D01*
X14198214Y-14867929D01*
X14183928Y-14853643D01*
X14169643Y-14825071D01*
X14155357Y-14767929D01*
X14155357Y-14696500D01*
X14169643Y-14639357D01*
X14183928Y-14610786D01*
X14198214Y-14596500D01*
X14226786Y-14582214D01*
X14583928Y-14682214D02*
X14583928Y-14882214D01*
X14512500Y-14567929D02*
X14441071Y-14782214D01*
X14626786Y-14782214D01*
X14712500Y-14582214D02*
X14912500Y-14582214D01*
X14783928Y-14882214D01*
X15012500Y-14610786D02*
X15026786Y-14596500D01*
X15055357Y-14582214D01*
X15126786Y-14582214D01*
X15155357Y-14596500D01*
X15169643Y-14610786D01*
X15183928Y-14639357D01*
X15183928Y-14667929D01*
X15169643Y-14710786D01*
X14998214Y-14882214D01*
X15183928Y-14882214D01*
X15298214Y-14582214D02*
X15298214Y-14639357D01*
X15412500Y-14582214D02*
X15412500Y-14639357D01*
X15855357Y-14996500D02*
X15841071Y-14982214D01*
X15812500Y-14939357D01*
X15798214Y-14910786D01*
X15783928Y-14867929D01*
X15769643Y-14796500D01*
X15769643Y-14739357D01*
X15783928Y-14667929D01*
X15798214Y-14625071D01*
X15812500Y-14596500D01*
X15841071Y-14553643D01*
X15855357Y-14539357D01*
X15955357Y-14610786D02*
X15969643Y-14596500D01*
X15998214Y-14582214D01*
X16069643Y-14582214D01*
X16098214Y-14596500D01*
X16112500Y-14610786D01*
X16126786Y-14639357D01*
X16126786Y-14667929D01*
X16112500Y-14710786D01*
X15941071Y-14882214D01*
X16126786Y-14882214D01*
X16312500Y-14582214D02*
X16341071Y-14582214D01*
X16369643Y-14596500D01*
X16383928Y-14610786D01*
X16398214Y-14639357D01*
X16412500Y-14696500D01*
X16412500Y-14767929D01*
X16398214Y-14825071D01*
X16383928Y-14853643D01*
X16369643Y-14867929D01*
X16341071Y-14882214D01*
X16312500Y-14882214D01*
X16283928Y-14867929D01*
X16269643Y-14853643D01*
X16255357Y-14825071D01*
X16241071Y-14767929D01*
X16241071Y-14696500D01*
X16255357Y-14639357D01*
X16269643Y-14610786D01*
X16283928Y-14596500D01*
X16312500Y-14582214D01*
X16769643Y-14882214D02*
X16769643Y-14582214D01*
X16898214Y-14882214D02*
X16898214Y-14725071D01*
X16883928Y-14696500D01*
X16855357Y-14682214D01*
X16812500Y-14682214D01*
X16783928Y-14696500D01*
X16769643Y-14710786D01*
X17083928Y-14882214D02*
X17055357Y-14867929D01*
X17041071Y-14853643D01*
X17026786Y-14825071D01*
X17026786Y-14739357D01*
X17041071Y-14710786D01*
X17055357Y-14696500D01*
X17083928Y-14682214D01*
X17126786Y-14682214D01*
X17155357Y-14696500D01*
X17169643Y-14710786D01*
X17183928Y-14739357D01*
X17183928Y-14825071D01*
X17169643Y-14853643D01*
X17155357Y-14867929D01*
X17126786Y-14882214D01*
X17083928Y-14882214D01*
X17355357Y-14882214D02*
X17326786Y-14867929D01*
X17312500Y-14839357D01*
X17312500Y-14582214D01*
X17583928Y-14867929D02*
X17555357Y-14882214D01*
X17498214Y-14882214D01*
X17469643Y-14867929D01*
X17455357Y-14839357D01*
X17455357Y-14725071D01*
X17469643Y-14696500D01*
X17498214Y-14682214D01*
X17555357Y-14682214D01*
X17583928Y-14696500D01*
X17598214Y-14725071D01*
X17598214Y-14753643D01*
X17455357Y-14782214D01*
X17712500Y-14867929D02*
X17741071Y-14882214D01*
X17798214Y-14882214D01*
X17826786Y-14867929D01*
X17841071Y-14839357D01*
X17841071Y-14825071D01*
X17826786Y-14796500D01*
X17798214Y-14782214D01*
X17755357Y-14782214D01*
X17726786Y-14767929D01*
X17712500Y-14739357D01*
X17712500Y-14725071D01*
X17726786Y-14696500D01*
X17755357Y-14682214D01*
X17798214Y-14682214D01*
X17826786Y-14696500D01*
X17941071Y-14996500D02*
X17955357Y-14982214D01*
X17983928Y-14939357D01*
X17998214Y-14910786D01*
X18012500Y-14867929D01*
X18026786Y-14796500D01*
X18026786Y-14739357D01*
X18012500Y-14667929D01*
X17998214Y-14625071D01*
X17983928Y-14596500D01*
X17955357Y-14553643D01*
X17941071Y-14539357D01*
M02*
