G04 #@! TF.GenerationSoftware,KiCad,Pcbnew,5.1.10-88a1d61d58~90~ubuntu20.04.1*
G04 #@! TF.CreationDate,2021-08-15T15:07:41+03:00*
G04 #@! TF.ProjectId,DepremSanat,44657072-656d-4536-916e-61742e6b6963,rev?*
G04 #@! TF.SameCoordinates,Original*
G04 #@! TF.FileFunction,Legend,Top*
G04 #@! TF.FilePolarity,Positive*
%FSLAX46Y46*%
G04 Gerber Fmt 4.6, Leading zero omitted, Abs format (unit mm)*
G04 Created by KiCad (PCBNEW 5.1.10-88a1d61d58~90~ubuntu20.04.1) date 2021-08-15 15:07:41*
%MOMM*%
%LPD*%
G01*
G04 APERTURE LIST*
%ADD10C,0.150000*%
%ADD11C,0.120000*%
%ADD12C,0.075000*%
%ADD13R,1.800000X1.400000*%
%ADD14R,1.400000X1.900000*%
%ADD15R,0.800000X1.500000*%
%ADD16R,2.000000X4.500000*%
%ADD17C,1.800000*%
%ADD18R,0.800000X0.900000*%
%ADD19R,5.800000X6.400000*%
%ADD20R,1.200000X2.200000*%
%ADD21R,0.900000X0.800000*%
%ADD22R,6.400000X5.800000*%
%ADD23R,2.200000X1.200000*%
%ADD24C,2.000000*%
%ADD25R,1.800000X1.800000*%
%ADD26O,1.700000X1.700000*%
%ADD27R,1.700000X1.700000*%
%ADD28R,0.900000X1.200000*%
%ADD29R,2.000000X2.000000*%
G04 APERTURE END LIST*
D10*
X133921571Y-63760000D02*
X133850142Y-63724285D01*
X133743000Y-63724285D01*
X133635857Y-63760000D01*
X133564428Y-63831428D01*
X133528714Y-63902857D01*
X133493000Y-64045714D01*
X133493000Y-64152857D01*
X133528714Y-64295714D01*
X133564428Y-64367142D01*
X133635857Y-64438571D01*
X133743000Y-64474285D01*
X133814428Y-64474285D01*
X133921571Y-64438571D01*
X133957285Y-64402857D01*
X133957285Y-64152857D01*
X133814428Y-64152857D01*
X134278714Y-64474285D02*
X134278714Y-63724285D01*
X134707285Y-64474285D01*
X134707285Y-63724285D01*
X135064428Y-64474285D02*
X135064428Y-63724285D01*
X135243000Y-63724285D01*
X135350142Y-63760000D01*
X135421571Y-63831428D01*
X135457285Y-63902857D01*
X135493000Y-64045714D01*
X135493000Y-64152857D01*
X135457285Y-64295714D01*
X135421571Y-64367142D01*
X135350142Y-64438571D01*
X135243000Y-64474285D01*
X135064428Y-64474285D01*
X133558571Y-66978571D02*
X133665714Y-67014285D01*
X133844285Y-67014285D01*
X133915714Y-66978571D01*
X133951428Y-66942857D01*
X133987142Y-66871428D01*
X133987142Y-66800000D01*
X133951428Y-66728571D01*
X133915714Y-66692857D01*
X133844285Y-66657142D01*
X133701428Y-66621428D01*
X133630000Y-66585714D01*
X133594285Y-66550000D01*
X133558571Y-66478571D01*
X133558571Y-66407142D01*
X133594285Y-66335714D01*
X133630000Y-66300000D01*
X133701428Y-66264285D01*
X133880000Y-66264285D01*
X133987142Y-66300000D01*
X134237142Y-66264285D02*
X134415714Y-67014285D01*
X134558571Y-66478571D01*
X134701428Y-67014285D01*
X134880000Y-66264285D01*
X135594285Y-66942857D02*
X135558571Y-66978571D01*
X135451428Y-67014285D01*
X135380000Y-67014285D01*
X135272857Y-66978571D01*
X135201428Y-66907142D01*
X135165714Y-66835714D01*
X135130000Y-66692857D01*
X135130000Y-66585714D01*
X135165714Y-66442857D01*
X135201428Y-66371428D01*
X135272857Y-66300000D01*
X135380000Y-66264285D01*
X135451428Y-66264285D01*
X135558571Y-66300000D01*
X135594285Y-66335714D01*
X136272857Y-67014285D02*
X135915714Y-67014285D01*
X135915714Y-66264285D01*
X136522857Y-67014285D02*
X136522857Y-66264285D01*
X136951428Y-67014285D02*
X136630000Y-66585714D01*
X136951428Y-66264285D02*
X136522857Y-66692857D01*
X133538714Y-69518571D02*
X133645857Y-69554285D01*
X133824428Y-69554285D01*
X133895857Y-69518571D01*
X133931571Y-69482857D01*
X133967285Y-69411428D01*
X133967285Y-69340000D01*
X133931571Y-69268571D01*
X133895857Y-69232857D01*
X133824428Y-69197142D01*
X133681571Y-69161428D01*
X133610142Y-69125714D01*
X133574428Y-69090000D01*
X133538714Y-69018571D01*
X133538714Y-68947142D01*
X133574428Y-68875714D01*
X133610142Y-68840000D01*
X133681571Y-68804285D01*
X133860142Y-68804285D01*
X133967285Y-68840000D01*
X134217285Y-68804285D02*
X134395857Y-69554285D01*
X134538714Y-69018571D01*
X134681571Y-69554285D01*
X134860142Y-68804285D01*
X135145857Y-69554285D02*
X135145857Y-68804285D01*
X135324428Y-68804285D01*
X135431571Y-68840000D01*
X135503000Y-68911428D01*
X135538714Y-68982857D01*
X135574428Y-69125714D01*
X135574428Y-69232857D01*
X135538714Y-69375714D01*
X135503000Y-69447142D01*
X135431571Y-69518571D01*
X135324428Y-69554285D01*
X135145857Y-69554285D01*
X135895857Y-69554285D02*
X135895857Y-68804285D01*
X136395857Y-68804285D02*
X136538714Y-68804285D01*
X136610142Y-68840000D01*
X136681571Y-68911428D01*
X136717285Y-69054285D01*
X136717285Y-69304285D01*
X136681571Y-69447142D01*
X136610142Y-69518571D01*
X136538714Y-69554285D01*
X136395857Y-69554285D01*
X136324428Y-69518571D01*
X136253000Y-69447142D01*
X136217285Y-69304285D01*
X136217285Y-69054285D01*
X136253000Y-68911428D01*
X136324428Y-68840000D01*
X136395857Y-68804285D01*
X133514857Y-72094285D02*
X133514857Y-71344285D01*
X133943428Y-72094285D01*
X133943428Y-71344285D01*
X134729142Y-72094285D02*
X134479142Y-71737142D01*
X134300571Y-72094285D02*
X134300571Y-71344285D01*
X134586285Y-71344285D01*
X134657714Y-71380000D01*
X134693428Y-71415714D01*
X134729142Y-71487142D01*
X134729142Y-71594285D01*
X134693428Y-71665714D01*
X134657714Y-71701428D01*
X134586285Y-71737142D01*
X134300571Y-71737142D01*
X135014857Y-72058571D02*
X135122000Y-72094285D01*
X135300571Y-72094285D01*
X135372000Y-72058571D01*
X135407714Y-72022857D01*
X135443428Y-71951428D01*
X135443428Y-71880000D01*
X135407714Y-71808571D01*
X135372000Y-71772857D01*
X135300571Y-71737142D01*
X135157714Y-71701428D01*
X135086285Y-71665714D01*
X135050571Y-71630000D01*
X135014857Y-71558571D01*
X135014857Y-71487142D01*
X135050571Y-71415714D01*
X135086285Y-71380000D01*
X135157714Y-71344285D01*
X135336285Y-71344285D01*
X135443428Y-71380000D01*
X135657714Y-71344285D02*
X136086285Y-71344285D01*
X135872000Y-72094285D02*
X135872000Y-71344285D01*
X154083285Y-120874285D02*
X154333285Y-121624285D01*
X154583285Y-120874285D01*
X154833285Y-121624285D02*
X154833285Y-120874285D01*
X155440428Y-121231428D02*
X155547571Y-121267142D01*
X155583285Y-121302857D01*
X155619000Y-121374285D01*
X155619000Y-121481428D01*
X155583285Y-121552857D01*
X155547571Y-121588571D01*
X155476142Y-121624285D01*
X155190428Y-121624285D01*
X155190428Y-120874285D01*
X155440428Y-120874285D01*
X155511857Y-120910000D01*
X155547571Y-120945714D01*
X155583285Y-121017142D01*
X155583285Y-121088571D01*
X155547571Y-121160000D01*
X155511857Y-121195714D01*
X155440428Y-121231428D01*
X155190428Y-121231428D01*
X155761857Y-121695714D02*
X156333285Y-121695714D01*
X156940428Y-121552857D02*
X156904714Y-121588571D01*
X156797571Y-121624285D01*
X156726142Y-121624285D01*
X156619000Y-121588571D01*
X156547571Y-121517142D01*
X156511857Y-121445714D01*
X156476142Y-121302857D01*
X156476142Y-121195714D01*
X156511857Y-121052857D01*
X156547571Y-120981428D01*
X156619000Y-120910000D01*
X156726142Y-120874285D01*
X156797571Y-120874285D01*
X156904714Y-120910000D01*
X156940428Y-120945714D01*
X157404714Y-120874285D02*
X157547571Y-120874285D01*
X157619000Y-120910000D01*
X157690428Y-120981428D01*
X157726142Y-121124285D01*
X157726142Y-121374285D01*
X157690428Y-121517142D01*
X157619000Y-121588571D01*
X157547571Y-121624285D01*
X157404714Y-121624285D01*
X157333285Y-121588571D01*
X157261857Y-121517142D01*
X157226142Y-121374285D01*
X157226142Y-121124285D01*
X157261857Y-120981428D01*
X157333285Y-120910000D01*
X157404714Y-120874285D01*
X158047571Y-121624285D02*
X158047571Y-120874285D01*
X158476142Y-121624285D01*
X158476142Y-120874285D01*
X158726142Y-120874285D02*
X159154714Y-120874285D01*
X158940428Y-121624285D02*
X158940428Y-120874285D01*
X159369000Y-121410000D02*
X159726142Y-121410000D01*
X159297571Y-121624285D02*
X159547571Y-120874285D01*
X159797571Y-121624285D01*
X160476142Y-121552857D02*
X160440428Y-121588571D01*
X160333285Y-121624285D01*
X160261857Y-121624285D01*
X160154714Y-121588571D01*
X160083285Y-121517142D01*
X160047571Y-121445714D01*
X160011857Y-121302857D01*
X160011857Y-121195714D01*
X160047571Y-121052857D01*
X160083285Y-120981428D01*
X160154714Y-120910000D01*
X160261857Y-120874285D01*
X160333285Y-120874285D01*
X160440428Y-120910000D01*
X160476142Y-120945714D01*
X160690428Y-120874285D02*
X161119000Y-120874285D01*
X160904714Y-121624285D02*
X160904714Y-120874285D01*
X161511857Y-120874285D02*
X161654714Y-120874285D01*
X161726142Y-120910000D01*
X161797571Y-120981428D01*
X161833285Y-121124285D01*
X161833285Y-121374285D01*
X161797571Y-121517142D01*
X161726142Y-121588571D01*
X161654714Y-121624285D01*
X161511857Y-121624285D01*
X161440428Y-121588571D01*
X161369000Y-121517142D01*
X161333285Y-121374285D01*
X161333285Y-121124285D01*
X161369000Y-120981428D01*
X161440428Y-120910000D01*
X161511857Y-120874285D01*
X162583285Y-121624285D02*
X162333285Y-121267142D01*
X162154714Y-121624285D02*
X162154714Y-120874285D01*
X162440428Y-120874285D01*
X162511857Y-120910000D01*
X162547571Y-120945714D01*
X162583285Y-121017142D01*
X162583285Y-121124285D01*
X162547571Y-121195714D01*
X162511857Y-121231428D01*
X162440428Y-121267142D01*
X162154714Y-121267142D01*
X115695714Y-121211571D02*
X116267142Y-121211571D01*
X117195714Y-121497285D02*
X117195714Y-120747285D01*
X117481428Y-120747285D01*
X117552857Y-120783000D01*
X117588571Y-120818714D01*
X117624285Y-120890142D01*
X117624285Y-120997285D01*
X117588571Y-121068714D01*
X117552857Y-121104428D01*
X117481428Y-121140142D01*
X117195714Y-121140142D01*
X118088571Y-120747285D02*
X118231428Y-120747285D01*
X118302857Y-120783000D01*
X118374285Y-120854428D01*
X118410000Y-120997285D01*
X118410000Y-121247285D01*
X118374285Y-121390142D01*
X118302857Y-121461571D01*
X118231428Y-121497285D01*
X118088571Y-121497285D01*
X118017142Y-121461571D01*
X117945714Y-121390142D01*
X117910000Y-121247285D01*
X117910000Y-120997285D01*
X117945714Y-120854428D01*
X118017142Y-120783000D01*
X118088571Y-120747285D01*
X118660000Y-120747285D02*
X118838571Y-121497285D01*
X118981428Y-120961571D01*
X119124285Y-121497285D01*
X119302857Y-120747285D01*
X119588571Y-121104428D02*
X119838571Y-121104428D01*
X119945714Y-121497285D02*
X119588571Y-121497285D01*
X119588571Y-120747285D01*
X119945714Y-120747285D01*
X120695714Y-121497285D02*
X120445714Y-121140142D01*
X120267142Y-121497285D02*
X120267142Y-120747285D01*
X120552857Y-120747285D01*
X120624285Y-120783000D01*
X120660000Y-120818714D01*
X120695714Y-120890142D01*
X120695714Y-120997285D01*
X120660000Y-121068714D01*
X120624285Y-121104428D01*
X120552857Y-121140142D01*
X120267142Y-121140142D01*
X121231428Y-121783000D02*
X121195714Y-121747285D01*
X121124285Y-121640142D01*
X121088571Y-121568714D01*
X121052857Y-121461571D01*
X121017142Y-121283000D01*
X121017142Y-121140142D01*
X121052857Y-120961571D01*
X121088571Y-120854428D01*
X121124285Y-120783000D01*
X121195714Y-120675857D01*
X121231428Y-120640142D01*
X121874285Y-120747285D02*
X121517142Y-120747285D01*
X121481428Y-121104428D01*
X121517142Y-121068714D01*
X121588571Y-121033000D01*
X121767142Y-121033000D01*
X121838571Y-121068714D01*
X121874285Y-121104428D01*
X121910000Y-121175857D01*
X121910000Y-121354428D01*
X121874285Y-121425857D01*
X121838571Y-121461571D01*
X121767142Y-121497285D01*
X121588571Y-121497285D01*
X121517142Y-121461571D01*
X121481428Y-121425857D01*
X122231428Y-121211571D02*
X122802857Y-121211571D01*
X123124285Y-120818714D02*
X123160000Y-120783000D01*
X123231428Y-120747285D01*
X123410000Y-120747285D01*
X123481428Y-120783000D01*
X123517142Y-120818714D01*
X123552857Y-120890142D01*
X123552857Y-120961571D01*
X123517142Y-121068714D01*
X123088571Y-121497285D01*
X123552857Y-121497285D01*
X124195714Y-120997285D02*
X124195714Y-121497285D01*
X124017142Y-120711571D02*
X123838571Y-121247285D01*
X124302857Y-121247285D01*
X124481428Y-120747285D02*
X124731428Y-121497285D01*
X124981428Y-120747285D01*
X125160000Y-121783000D02*
X125195714Y-121747285D01*
X125267142Y-121640142D01*
X125302857Y-121568714D01*
X125338571Y-121461571D01*
X125374285Y-121283000D01*
X125374285Y-121140142D01*
X125338571Y-120961571D01*
X125302857Y-120854428D01*
X125267142Y-120783000D01*
X125195714Y-120675857D01*
X125160000Y-120640142D01*
X126302857Y-121211571D02*
X126874285Y-121211571D01*
X126588571Y-121497285D02*
X126588571Y-120925857D01*
X137975571Y-108767142D02*
X137975571Y-108195714D01*
X138261285Y-106910000D02*
X138261285Y-107267142D01*
X137511285Y-107267142D01*
X138047000Y-106695714D02*
X138047000Y-106338571D01*
X138261285Y-106767142D02*
X137511285Y-106517142D01*
X138261285Y-106267142D01*
X138261285Y-106017142D02*
X137511285Y-106017142D01*
X138047000Y-105767142D01*
X137511285Y-105517142D01*
X138261285Y-105517142D01*
X138261285Y-105160000D02*
X137511285Y-105160000D01*
X137511285Y-104874285D01*
X137547000Y-104802857D01*
X137582714Y-104767142D01*
X137654142Y-104731428D01*
X137761285Y-104731428D01*
X137832714Y-104767142D01*
X137868428Y-104802857D01*
X137904142Y-104874285D01*
X137904142Y-105160000D01*
X138332714Y-104588571D02*
X138332714Y-104017142D01*
X137868428Y-103588571D02*
X137868428Y-103838571D01*
X138261285Y-103838571D02*
X137511285Y-103838571D01*
X137511285Y-103481428D01*
X137975571Y-102624285D02*
X137975571Y-102052857D01*
X138261285Y-102338571D02*
X137689857Y-102338571D01*
X190172571Y-66476142D02*
X190172571Y-65904714D01*
X190458285Y-64619000D02*
X190458285Y-64976142D01*
X189708285Y-64976142D01*
X190244000Y-64404714D02*
X190244000Y-64047571D01*
X190458285Y-64476142D02*
X189708285Y-64226142D01*
X190458285Y-63976142D01*
X190458285Y-63726142D02*
X189708285Y-63726142D01*
X190244000Y-63476142D01*
X189708285Y-63226142D01*
X190458285Y-63226142D01*
X190458285Y-62869000D02*
X189708285Y-62869000D01*
X189708285Y-62583285D01*
X189744000Y-62511857D01*
X189779714Y-62476142D01*
X189851142Y-62440428D01*
X189958285Y-62440428D01*
X190029714Y-62476142D01*
X190065428Y-62511857D01*
X190101142Y-62583285D01*
X190101142Y-62869000D01*
X190529714Y-62297571D02*
X190529714Y-61726142D01*
X190244000Y-61583285D02*
X190244000Y-61226142D01*
X190458285Y-61654714D02*
X189708285Y-61404714D01*
X190458285Y-61154714D01*
X190172571Y-60333285D02*
X190172571Y-59761857D01*
X190458285Y-60047571D02*
X189886857Y-60047571D01*
X190299571Y-77197714D02*
X190299571Y-76626285D01*
X190585285Y-75340571D02*
X190585285Y-75697714D01*
X189835285Y-75697714D01*
X190371000Y-75126285D02*
X190371000Y-74769142D01*
X190585285Y-75197714D02*
X189835285Y-74947714D01*
X190585285Y-74697714D01*
X190585285Y-74447714D02*
X189835285Y-74447714D01*
X190371000Y-74197714D01*
X189835285Y-73947714D01*
X190585285Y-73947714D01*
X190585285Y-73590571D02*
X189835285Y-73590571D01*
X189835285Y-73304857D01*
X189871000Y-73233428D01*
X189906714Y-73197714D01*
X189978142Y-73162000D01*
X190085285Y-73162000D01*
X190156714Y-73197714D01*
X190192428Y-73233428D01*
X190228142Y-73304857D01*
X190228142Y-73590571D01*
X190656714Y-73019142D02*
X190656714Y-72447714D01*
X190192428Y-72019142D02*
X190228142Y-71912000D01*
X190263857Y-71876285D01*
X190335285Y-71840571D01*
X190442428Y-71840571D01*
X190513857Y-71876285D01*
X190549571Y-71912000D01*
X190585285Y-71983428D01*
X190585285Y-72269142D01*
X189835285Y-72269142D01*
X189835285Y-72019142D01*
X189871000Y-71947714D01*
X189906714Y-71912000D01*
X189978142Y-71876285D01*
X190049571Y-71876285D01*
X190121000Y-71912000D01*
X190156714Y-71947714D01*
X190192428Y-72019142D01*
X190192428Y-72269142D01*
X190299571Y-70947714D02*
X190299571Y-70376285D01*
X190585285Y-70662000D02*
X190013857Y-70662000D01*
X190299571Y-87865714D02*
X190299571Y-87294285D01*
X190585285Y-86008571D02*
X190585285Y-86365714D01*
X189835285Y-86365714D01*
X190371000Y-85794285D02*
X190371000Y-85437142D01*
X190585285Y-85865714D02*
X189835285Y-85615714D01*
X190585285Y-85365714D01*
X190585285Y-85115714D02*
X189835285Y-85115714D01*
X190371000Y-84865714D01*
X189835285Y-84615714D01*
X190585285Y-84615714D01*
X190585285Y-84258571D02*
X189835285Y-84258571D01*
X189835285Y-83972857D01*
X189871000Y-83901428D01*
X189906714Y-83865714D01*
X189978142Y-83830000D01*
X190085285Y-83830000D01*
X190156714Y-83865714D01*
X190192428Y-83901428D01*
X190228142Y-83972857D01*
X190228142Y-84258571D01*
X190656714Y-83687142D02*
X190656714Y-83115714D01*
X190513857Y-82508571D02*
X190549571Y-82544285D01*
X190585285Y-82651428D01*
X190585285Y-82722857D01*
X190549571Y-82830000D01*
X190478142Y-82901428D01*
X190406714Y-82937142D01*
X190263857Y-82972857D01*
X190156714Y-82972857D01*
X190013857Y-82937142D01*
X189942428Y-82901428D01*
X189871000Y-82830000D01*
X189835285Y-82722857D01*
X189835285Y-82651428D01*
X189871000Y-82544285D01*
X189906714Y-82508571D01*
X190299571Y-81615714D02*
X190299571Y-81044285D01*
X190585285Y-81330000D02*
X190013857Y-81330000D01*
X190299571Y-98660714D02*
X190299571Y-98089285D01*
X190585285Y-96803571D02*
X190585285Y-97160714D01*
X189835285Y-97160714D01*
X190371000Y-96589285D02*
X190371000Y-96232142D01*
X190585285Y-96660714D02*
X189835285Y-96410714D01*
X190585285Y-96160714D01*
X190585285Y-95910714D02*
X189835285Y-95910714D01*
X190371000Y-95660714D01*
X189835285Y-95410714D01*
X190585285Y-95410714D01*
X190585285Y-95053571D02*
X189835285Y-95053571D01*
X189835285Y-94767857D01*
X189871000Y-94696428D01*
X189906714Y-94660714D01*
X189978142Y-94625000D01*
X190085285Y-94625000D01*
X190156714Y-94660714D01*
X190192428Y-94696428D01*
X190228142Y-94767857D01*
X190228142Y-95053571D01*
X190656714Y-94482142D02*
X190656714Y-93910714D01*
X190585285Y-93732142D02*
X189835285Y-93732142D01*
X189835285Y-93553571D01*
X189871000Y-93446428D01*
X189942428Y-93375000D01*
X190013857Y-93339285D01*
X190156714Y-93303571D01*
X190263857Y-93303571D01*
X190406714Y-93339285D01*
X190478142Y-93375000D01*
X190549571Y-93446428D01*
X190585285Y-93553571D01*
X190585285Y-93732142D01*
X190299571Y-92410714D02*
X190299571Y-91839285D01*
X190585285Y-92125000D02*
X190013857Y-92125000D01*
X190299571Y-109420000D02*
X190299571Y-108848571D01*
X190585285Y-107562857D02*
X190585285Y-107920000D01*
X189835285Y-107920000D01*
X190371000Y-107348571D02*
X190371000Y-106991428D01*
X190585285Y-107420000D02*
X189835285Y-107170000D01*
X190585285Y-106920000D01*
X190585285Y-106670000D02*
X189835285Y-106670000D01*
X190371000Y-106420000D01*
X189835285Y-106170000D01*
X190585285Y-106170000D01*
X190585285Y-105812857D02*
X189835285Y-105812857D01*
X189835285Y-105527142D01*
X189871000Y-105455714D01*
X189906714Y-105420000D01*
X189978142Y-105384285D01*
X190085285Y-105384285D01*
X190156714Y-105420000D01*
X190192428Y-105455714D01*
X190228142Y-105527142D01*
X190228142Y-105812857D01*
X190656714Y-105241428D02*
X190656714Y-104670000D01*
X190192428Y-104491428D02*
X190192428Y-104241428D01*
X190585285Y-104134285D02*
X190585285Y-104491428D01*
X189835285Y-104491428D01*
X189835285Y-104134285D01*
X190299571Y-103241428D02*
X190299571Y-102670000D01*
X190585285Y-102955714D02*
X190013857Y-102955714D01*
X190299571Y-120070142D02*
X190299571Y-119498714D01*
X190585285Y-118213000D02*
X190585285Y-118570142D01*
X189835285Y-118570142D01*
X190371000Y-117998714D02*
X190371000Y-117641571D01*
X190585285Y-118070142D02*
X189835285Y-117820142D01*
X190585285Y-117570142D01*
X190585285Y-117320142D02*
X189835285Y-117320142D01*
X190371000Y-117070142D01*
X189835285Y-116820142D01*
X190585285Y-116820142D01*
X190585285Y-116463000D02*
X189835285Y-116463000D01*
X189835285Y-116177285D01*
X189871000Y-116105857D01*
X189906714Y-116070142D01*
X189978142Y-116034428D01*
X190085285Y-116034428D01*
X190156714Y-116070142D01*
X190192428Y-116105857D01*
X190228142Y-116177285D01*
X190228142Y-116463000D01*
X190656714Y-115891571D02*
X190656714Y-115320142D01*
X190192428Y-114891571D02*
X190192428Y-115141571D01*
X190585285Y-115141571D02*
X189835285Y-115141571D01*
X189835285Y-114784428D01*
X190299571Y-113927285D02*
X190299571Y-113355857D01*
X190585285Y-113641571D02*
X190013857Y-113641571D01*
D11*
X126000000Y-63500000D02*
G75*
G03*
X126000000Y-63500000I-2000000J0D01*
G01*
X160000000Y-104000000D02*
G75*
G03*
X160000000Y-104000000I-2000000J0D01*
G01*
X156090000Y-59770000D02*
X156090000Y-56770000D01*
X156090000Y-56770000D02*
X141090000Y-56770000D01*
X141090000Y-56770000D02*
X141090000Y-59770000D01*
X124450000Y-82835000D02*
X124450000Y-95435000D01*
X129550000Y-82835000D02*
X124450000Y-82835000D01*
X129550000Y-95435000D02*
X129550000Y-82835000D01*
X131740000Y-117475000D02*
X131740000Y-113725000D01*
X131740000Y-113725000D02*
X135740000Y-113725000D01*
X107640000Y-103630000D02*
X107640000Y-102170000D01*
X110800000Y-103630000D02*
X110800000Y-101470000D01*
X110800000Y-103630000D02*
X109870000Y-103630000D01*
X107640000Y-103630000D02*
X108570000Y-103630000D01*
X117165000Y-104265000D02*
X117165000Y-102805000D01*
X120325000Y-104265000D02*
X120325000Y-102105000D01*
X120325000Y-104265000D02*
X119395000Y-104265000D01*
X117165000Y-104265000D02*
X118095000Y-104265000D01*
X108580000Y-112846000D02*
X108580000Y-111746000D01*
X108310000Y-112846000D02*
X108580000Y-112846000D01*
X108310000Y-114346000D02*
X108310000Y-112846000D01*
X114940000Y-112846000D02*
X114940000Y-110016000D01*
X115210000Y-112846000D02*
X114940000Y-112846000D01*
X115210000Y-114346000D02*
X115210000Y-112846000D01*
X110470000Y-86360000D02*
X110470000Y-89810000D01*
X110470000Y-86360000D02*
X110470000Y-84410000D01*
X115590000Y-86360000D02*
X115590000Y-88310000D01*
X115590000Y-86360000D02*
X115590000Y-84410000D01*
X137840000Y-87450000D02*
X136500000Y-87450000D01*
X137840000Y-86500000D02*
X137840000Y-87450000D01*
X138790000Y-86500000D02*
X137840000Y-86500000D01*
X148060000Y-86500000D02*
X148060000Y-87450000D01*
X147110000Y-86500000D02*
X148060000Y-86500000D01*
X137840000Y-96720000D02*
X137840000Y-95770000D01*
X138790000Y-96720000D02*
X137840000Y-96720000D01*
X148060000Y-96720000D02*
X148060000Y-95770000D01*
X147110000Y-96720000D02*
X148060000Y-96720000D01*
X148055000Y-111987064D02*
X148055000Y-111532936D01*
X146585000Y-111987064D02*
X146585000Y-111532936D01*
X114400000Y-79602064D02*
X114400000Y-79147936D01*
X112930000Y-79602064D02*
X112930000Y-79147936D01*
X112930000Y-93117936D02*
X112930000Y-93572064D01*
X114400000Y-93117936D02*
X114400000Y-93572064D01*
X114707936Y-76300000D02*
X115162064Y-76300000D01*
X114707936Y-74830000D02*
X115162064Y-74830000D01*
X114430436Y-97255000D02*
X114884564Y-97255000D01*
X114430436Y-95785000D02*
X114884564Y-95785000D01*
X160555000Y-75337936D02*
X160555000Y-75792064D01*
X162025000Y-75337936D02*
X162025000Y-75792064D01*
X156110000Y-75337936D02*
X156110000Y-75792064D01*
X157580000Y-75337936D02*
X157580000Y-75792064D01*
X151665000Y-75337936D02*
X151665000Y-75792064D01*
X153135000Y-75337936D02*
X153135000Y-75792064D01*
X147220000Y-75337936D02*
X147220000Y-75792064D01*
X148690000Y-75337936D02*
X148690000Y-75792064D01*
X144680000Y-75337936D02*
X144680000Y-75792064D01*
X146150000Y-75337936D02*
X146150000Y-75792064D01*
X140235000Y-75337936D02*
X140235000Y-75792064D01*
X141705000Y-75337936D02*
X141705000Y-75792064D01*
X139800000Y-75792064D02*
X139800000Y-75337936D01*
X138330000Y-75792064D02*
X138330000Y-75337936D01*
X144245000Y-75792064D02*
X144245000Y-75337936D01*
X142775000Y-75792064D02*
X142775000Y-75337936D01*
X150595000Y-75792064D02*
X150595000Y-75337936D01*
X149125000Y-75792064D02*
X149125000Y-75337936D01*
X155040000Y-75792064D02*
X155040000Y-75337936D01*
X153570000Y-75792064D02*
X153570000Y-75337936D01*
X159485000Y-75792064D02*
X159485000Y-75337936D01*
X158015000Y-75792064D02*
X158015000Y-75337936D01*
X163930000Y-75792064D02*
X163930000Y-75337936D01*
X162460000Y-75792064D02*
X162460000Y-75337936D01*
X167412936Y-113765000D02*
X167867064Y-113765000D01*
X167412936Y-112295000D02*
X167867064Y-112295000D01*
X167412936Y-102970000D02*
X167867064Y-102970000D01*
X167412936Y-101500000D02*
X167867064Y-101500000D01*
X167412936Y-92175000D02*
X167867064Y-92175000D01*
X167412936Y-90705000D02*
X167867064Y-90705000D01*
X167412936Y-81380000D02*
X167867064Y-81380000D01*
X167412936Y-79910000D02*
X167867064Y-79910000D01*
X167412936Y-70585000D02*
X167867064Y-70585000D01*
X167412936Y-69115000D02*
X167867064Y-69115000D01*
X167412936Y-59790000D02*
X167867064Y-59790000D01*
X167412936Y-58320000D02*
X167867064Y-58320000D01*
X138911064Y-78513000D02*
X138456936Y-78513000D01*
X138911064Y-79983000D02*
X138456936Y-79983000D01*
X132815000Y-86587064D02*
X132815000Y-86132936D01*
X131345000Y-86587064D02*
X131345000Y-86132936D01*
X143385000Y-110180000D02*
X144845000Y-110180000D01*
X143385000Y-113340000D02*
X145545000Y-113340000D01*
X143385000Y-113340000D02*
X143385000Y-112410000D01*
X143385000Y-110180000D02*
X143385000Y-111110000D01*
X168980000Y-121290000D02*
X167880000Y-121290000D01*
X168980000Y-121560000D02*
X168980000Y-121290000D01*
X170480000Y-121560000D02*
X168980000Y-121560000D01*
X168980000Y-114930000D02*
X166150000Y-114930000D01*
X168980000Y-114660000D02*
X168980000Y-114930000D01*
X170480000Y-114660000D02*
X168980000Y-114660000D01*
X168980000Y-110495000D02*
X167880000Y-110495000D01*
X168980000Y-110765000D02*
X168980000Y-110495000D01*
X170480000Y-110765000D02*
X168980000Y-110765000D01*
X168980000Y-104135000D02*
X166150000Y-104135000D01*
X168980000Y-103865000D02*
X168980000Y-104135000D01*
X170480000Y-103865000D02*
X168980000Y-103865000D01*
X168980000Y-99700000D02*
X167880000Y-99700000D01*
X168980000Y-99970000D02*
X168980000Y-99700000D01*
X170480000Y-99970000D02*
X168980000Y-99970000D01*
X168980000Y-93340000D02*
X166150000Y-93340000D01*
X168980000Y-93070000D02*
X168980000Y-93340000D01*
X170480000Y-93070000D02*
X168980000Y-93070000D01*
X168980000Y-88905000D02*
X167880000Y-88905000D01*
X168980000Y-89175000D02*
X168980000Y-88905000D01*
X170480000Y-89175000D02*
X168980000Y-89175000D01*
X168980000Y-82545000D02*
X166150000Y-82545000D01*
X168980000Y-82275000D02*
X168980000Y-82545000D01*
X170480000Y-82275000D02*
X168980000Y-82275000D01*
X168980000Y-78110000D02*
X167880000Y-78110000D01*
X168980000Y-78380000D02*
X168980000Y-78110000D01*
X170480000Y-78380000D02*
X168980000Y-78380000D01*
X168980000Y-71750000D02*
X166150000Y-71750000D01*
X168980000Y-71480000D02*
X168980000Y-71750000D01*
X170480000Y-71480000D02*
X168980000Y-71480000D01*
X168980000Y-67315000D02*
X167880000Y-67315000D01*
X168980000Y-67585000D02*
X168980000Y-67315000D01*
X170480000Y-67585000D02*
X168980000Y-67585000D01*
X168980000Y-60955000D02*
X166150000Y-60955000D01*
X168980000Y-60685000D02*
X168980000Y-60955000D01*
X170480000Y-60685000D02*
X168980000Y-60685000D01*
X163238000Y-120554000D02*
X157988000Y-120554000D01*
X163238000Y-114554000D02*
X163238000Y-120554000D01*
X126535000Y-120427000D02*
X121285000Y-120427000D01*
X126535000Y-114427000D02*
X126535000Y-120427000D01*
X111050000Y-58290000D02*
X111050000Y-61540000D01*
X117550000Y-58290000D02*
X111050000Y-58290000D01*
X117550000Y-61540000D02*
X117550000Y-58290000D01*
X189515000Y-111590000D02*
X189515000Y-116840000D01*
X183515000Y-111590000D02*
X189515000Y-111590000D01*
X189515000Y-100795000D02*
X189515000Y-106045000D01*
X183515000Y-100795000D02*
X189515000Y-100795000D01*
X189515000Y-90000000D02*
X189515000Y-95250000D01*
X183515000Y-90000000D02*
X189515000Y-90000000D01*
X189515000Y-79205000D02*
X189515000Y-84455000D01*
X183515000Y-79205000D02*
X189515000Y-79205000D01*
X189515000Y-68410000D02*
X189515000Y-73660000D01*
X183515000Y-68410000D02*
X189515000Y-68410000D01*
X189515000Y-57615000D02*
X189515000Y-62865000D01*
X183515000Y-57615000D02*
X189515000Y-57615000D01*
X130115000Y-62805000D02*
X131445000Y-62805000D01*
X130115000Y-64135000D02*
X130115000Y-62805000D01*
X130115000Y-65405000D02*
X132775000Y-65405000D01*
X132775000Y-65405000D02*
X132775000Y-73085000D01*
X130115000Y-65405000D02*
X130115000Y-73085000D01*
X130115000Y-73085000D02*
X132775000Y-73085000D01*
X136815000Y-111395000D02*
X140715000Y-111395000D01*
X136815000Y-113395000D02*
X140715000Y-113395000D01*
X136815000Y-111395000D02*
X136815000Y-113395000D01*
X176875000Y-114030000D02*
X172975000Y-114030000D01*
X176875000Y-112030000D02*
X172975000Y-112030000D01*
X176875000Y-114030000D02*
X176875000Y-112030000D01*
X176875000Y-103235000D02*
X172975000Y-103235000D01*
X176875000Y-101235000D02*
X172975000Y-101235000D01*
X176875000Y-103235000D02*
X176875000Y-101235000D01*
X176875000Y-92440000D02*
X172975000Y-92440000D01*
X176875000Y-90440000D02*
X172975000Y-90440000D01*
X176875000Y-92440000D02*
X176875000Y-90440000D01*
X176875000Y-81645000D02*
X172975000Y-81645000D01*
X176875000Y-79645000D02*
X172975000Y-79645000D01*
X176875000Y-81645000D02*
X176875000Y-79645000D01*
X176875000Y-70850000D02*
X172975000Y-70850000D01*
X176875000Y-68850000D02*
X172975000Y-68850000D01*
X176875000Y-70850000D02*
X176875000Y-68850000D01*
X176875000Y-60055000D02*
X172975000Y-60055000D01*
X176875000Y-58055000D02*
X172975000Y-58055000D01*
X176875000Y-60055000D02*
X176875000Y-58055000D01*
X108958748Y-100430000D02*
X109481252Y-100430000D01*
X108958748Y-98960000D02*
X109481252Y-98960000D01*
X118483748Y-101065000D02*
X119006252Y-101065000D01*
X118483748Y-99595000D02*
X119006252Y-99595000D01*
X121185000Y-103243748D02*
X121185000Y-103766252D01*
X122655000Y-103243748D02*
X122655000Y-103766252D01*
X113164252Y-107596000D02*
X112641748Y-107596000D01*
X113164252Y-109066000D02*
X112641748Y-109066000D01*
X127060354Y-103940000D02*
X127060354Y-104940000D01*
X126560354Y-104440000D02*
X127560354Y-104440000D01*
X137121000Y-106716000D02*
X137121000Y-107914000D01*
X137081000Y-106453000D02*
X137081000Y-108177000D01*
X137041000Y-106253000D02*
X137041000Y-108377000D01*
X137001000Y-106085000D02*
X137001000Y-108545000D01*
X136961000Y-105937000D02*
X136961000Y-108693000D01*
X136921000Y-105805000D02*
X136921000Y-108825000D01*
X136881000Y-105685000D02*
X136881000Y-108945000D01*
X136841000Y-105573000D02*
X136841000Y-109057000D01*
X136801000Y-105469000D02*
X136801000Y-109161000D01*
X136761000Y-105371000D02*
X136761000Y-109259000D01*
X136721000Y-105278000D02*
X136721000Y-109352000D01*
X136681000Y-105190000D02*
X136681000Y-109440000D01*
X136641000Y-105106000D02*
X136641000Y-109524000D01*
X136601000Y-105026000D02*
X136601000Y-109604000D01*
X136561000Y-104950000D02*
X136561000Y-109680000D01*
X136521000Y-104876000D02*
X136521000Y-109754000D01*
X136481000Y-104805000D02*
X136481000Y-109825000D01*
X136441000Y-104736000D02*
X136441000Y-109894000D01*
X136401000Y-104670000D02*
X136401000Y-109960000D01*
X136361000Y-104606000D02*
X136361000Y-110024000D01*
X136321000Y-104545000D02*
X136321000Y-110085000D01*
X136281000Y-104485000D02*
X136281000Y-110145000D01*
X136241000Y-104426000D02*
X136241000Y-110204000D01*
X136201000Y-104370000D02*
X136201000Y-110260000D01*
X136161000Y-104315000D02*
X136161000Y-110315000D01*
X136121000Y-104261000D02*
X136121000Y-110369000D01*
X136081000Y-104209000D02*
X136081000Y-110421000D01*
X136041000Y-104159000D02*
X136041000Y-110471000D01*
X136001000Y-104109000D02*
X136001000Y-110521000D01*
X135961000Y-104061000D02*
X135961000Y-110569000D01*
X135921000Y-104014000D02*
X135921000Y-110616000D01*
X135881000Y-103968000D02*
X135881000Y-110662000D01*
X135841000Y-103923000D02*
X135841000Y-110707000D01*
X135801000Y-103879000D02*
X135801000Y-110751000D01*
X135761000Y-108556000D02*
X135761000Y-110793000D01*
X135761000Y-103837000D02*
X135761000Y-106074000D01*
X135721000Y-108556000D02*
X135721000Y-110835000D01*
X135721000Y-103795000D02*
X135721000Y-106074000D01*
X135681000Y-108556000D02*
X135681000Y-110876000D01*
X135681000Y-103754000D02*
X135681000Y-106074000D01*
X135641000Y-108556000D02*
X135641000Y-110916000D01*
X135641000Y-103714000D02*
X135641000Y-106074000D01*
X135601000Y-108556000D02*
X135601000Y-110955000D01*
X135601000Y-103675000D02*
X135601000Y-106074000D01*
X135561000Y-108556000D02*
X135561000Y-110994000D01*
X135561000Y-103636000D02*
X135561000Y-106074000D01*
X135521000Y-108556000D02*
X135521000Y-111031000D01*
X135521000Y-103599000D02*
X135521000Y-106074000D01*
X135481000Y-108556000D02*
X135481000Y-111068000D01*
X135481000Y-103562000D02*
X135481000Y-106074000D01*
X135441000Y-108556000D02*
X135441000Y-111104000D01*
X135441000Y-103526000D02*
X135441000Y-106074000D01*
X135401000Y-108556000D02*
X135401000Y-111139000D01*
X135401000Y-103491000D02*
X135401000Y-106074000D01*
X135361000Y-108556000D02*
X135361000Y-111173000D01*
X135361000Y-103457000D02*
X135361000Y-106074000D01*
X135321000Y-108556000D02*
X135321000Y-111207000D01*
X135321000Y-103423000D02*
X135321000Y-106074000D01*
X135281000Y-108556000D02*
X135281000Y-111240000D01*
X135281000Y-103390000D02*
X135281000Y-106074000D01*
X135241000Y-108556000D02*
X135241000Y-111272000D01*
X135241000Y-103358000D02*
X135241000Y-106074000D01*
X135201000Y-108556000D02*
X135201000Y-111304000D01*
X135201000Y-103326000D02*
X135201000Y-106074000D01*
X135161000Y-108556000D02*
X135161000Y-111335000D01*
X135161000Y-103295000D02*
X135161000Y-106074000D01*
X135121000Y-108556000D02*
X135121000Y-111365000D01*
X135121000Y-103265000D02*
X135121000Y-106074000D01*
X135081000Y-108556000D02*
X135081000Y-111395000D01*
X135081000Y-103235000D02*
X135081000Y-106074000D01*
X135041000Y-108556000D02*
X135041000Y-111425000D01*
X135041000Y-103205000D02*
X135041000Y-106074000D01*
X135001000Y-108556000D02*
X135001000Y-111453000D01*
X135001000Y-103177000D02*
X135001000Y-106074000D01*
X134961000Y-108556000D02*
X134961000Y-111481000D01*
X134961000Y-103149000D02*
X134961000Y-106074000D01*
X134921000Y-108556000D02*
X134921000Y-111509000D01*
X134921000Y-103121000D02*
X134921000Y-106074000D01*
X134881000Y-108556000D02*
X134881000Y-111536000D01*
X134881000Y-103094000D02*
X134881000Y-106074000D01*
X134841000Y-108556000D02*
X134841000Y-111562000D01*
X134841000Y-103068000D02*
X134841000Y-106074000D01*
X134801000Y-108556000D02*
X134801000Y-111588000D01*
X134801000Y-103042000D02*
X134801000Y-106074000D01*
X134761000Y-108556000D02*
X134761000Y-111613000D01*
X134761000Y-103017000D02*
X134761000Y-106074000D01*
X134721000Y-108556000D02*
X134721000Y-111638000D01*
X134721000Y-102992000D02*
X134721000Y-106074000D01*
X134681000Y-108556000D02*
X134681000Y-111662000D01*
X134681000Y-102968000D02*
X134681000Y-106074000D01*
X134641000Y-108556000D02*
X134641000Y-111686000D01*
X134641000Y-102944000D02*
X134641000Y-106074000D01*
X134601000Y-108556000D02*
X134601000Y-111710000D01*
X134601000Y-102920000D02*
X134601000Y-106074000D01*
X134561000Y-108556000D02*
X134561000Y-111732000D01*
X134561000Y-102898000D02*
X134561000Y-106074000D01*
X134521000Y-108556000D02*
X134521000Y-111755000D01*
X134521000Y-102875000D02*
X134521000Y-106074000D01*
X134481000Y-108556000D02*
X134481000Y-111777000D01*
X134481000Y-102853000D02*
X134481000Y-106074000D01*
X134441000Y-108556000D02*
X134441000Y-111798000D01*
X134441000Y-102832000D02*
X134441000Y-106074000D01*
X134401000Y-108556000D02*
X134401000Y-111819000D01*
X134401000Y-102811000D02*
X134401000Y-106074000D01*
X134361000Y-108556000D02*
X134361000Y-111840000D01*
X134361000Y-102790000D02*
X134361000Y-106074000D01*
X134321000Y-108556000D02*
X134321000Y-111860000D01*
X134321000Y-102770000D02*
X134321000Y-106074000D01*
X134281000Y-108556000D02*
X134281000Y-111879000D01*
X134281000Y-102751000D02*
X134281000Y-106074000D01*
X134241000Y-108556000D02*
X134241000Y-111899000D01*
X134241000Y-102731000D02*
X134241000Y-106074000D01*
X134201000Y-108556000D02*
X134201000Y-111918000D01*
X134201000Y-102712000D02*
X134201000Y-106074000D01*
X134161000Y-108556000D02*
X134161000Y-111936000D01*
X134161000Y-102694000D02*
X134161000Y-106074000D01*
X134121000Y-108556000D02*
X134121000Y-111954000D01*
X134121000Y-102676000D02*
X134121000Y-106074000D01*
X134081000Y-108556000D02*
X134081000Y-111972000D01*
X134081000Y-102658000D02*
X134081000Y-106074000D01*
X134041000Y-108556000D02*
X134041000Y-111989000D01*
X134041000Y-102641000D02*
X134041000Y-106074000D01*
X134001000Y-108556000D02*
X134001000Y-112005000D01*
X134001000Y-102625000D02*
X134001000Y-106074000D01*
X133961000Y-108556000D02*
X133961000Y-112022000D01*
X133961000Y-102608000D02*
X133961000Y-106074000D01*
X133921000Y-108556000D02*
X133921000Y-112038000D01*
X133921000Y-102592000D02*
X133921000Y-106074000D01*
X133881000Y-108556000D02*
X133881000Y-112053000D01*
X133881000Y-102577000D02*
X133881000Y-106074000D01*
X133841000Y-108556000D02*
X133841000Y-112069000D01*
X133841000Y-102561000D02*
X133841000Y-106074000D01*
X133801000Y-108556000D02*
X133801000Y-112083000D01*
X133801000Y-102547000D02*
X133801000Y-106074000D01*
X133761000Y-108556000D02*
X133761000Y-112098000D01*
X133761000Y-102532000D02*
X133761000Y-106074000D01*
X133721000Y-108556000D02*
X133721000Y-112112000D01*
X133721000Y-102518000D02*
X133721000Y-106074000D01*
X133681000Y-108556000D02*
X133681000Y-112126000D01*
X133681000Y-102504000D02*
X133681000Y-106074000D01*
X133641000Y-108556000D02*
X133641000Y-112139000D01*
X133641000Y-102491000D02*
X133641000Y-106074000D01*
X133601000Y-108556000D02*
X133601000Y-112152000D01*
X133601000Y-102478000D02*
X133601000Y-106074000D01*
X133561000Y-108556000D02*
X133561000Y-112165000D01*
X133561000Y-102465000D02*
X133561000Y-106074000D01*
X133521000Y-108556000D02*
X133521000Y-112177000D01*
X133521000Y-102453000D02*
X133521000Y-106074000D01*
X133481000Y-108556000D02*
X133481000Y-112189000D01*
X133481000Y-102441000D02*
X133481000Y-106074000D01*
X133441000Y-108556000D02*
X133441000Y-112200000D01*
X133441000Y-102430000D02*
X133441000Y-106074000D01*
X133401000Y-108556000D02*
X133401000Y-112212000D01*
X133401000Y-102418000D02*
X133401000Y-106074000D01*
X133361000Y-108556000D02*
X133361000Y-112222000D01*
X133361000Y-102408000D02*
X133361000Y-106074000D01*
X133321000Y-108556000D02*
X133321000Y-112233000D01*
X133321000Y-102397000D02*
X133321000Y-106074000D01*
X133281000Y-102387000D02*
X133281000Y-112243000D01*
X133241000Y-102377000D02*
X133241000Y-112253000D01*
X133201000Y-102368000D02*
X133201000Y-112262000D01*
X133161000Y-102359000D02*
X133161000Y-112271000D01*
X133121000Y-102350000D02*
X133121000Y-112280000D01*
X133081000Y-102341000D02*
X133081000Y-112289000D01*
X133041000Y-102333000D02*
X133041000Y-112297000D01*
X133001000Y-102325000D02*
X133001000Y-112305000D01*
X132961000Y-102318000D02*
X132961000Y-112312000D01*
X132921000Y-102311000D02*
X132921000Y-112319000D01*
X132881000Y-102304000D02*
X132881000Y-112326000D01*
X132841000Y-102297000D02*
X132841000Y-112333000D01*
X132801000Y-102291000D02*
X132801000Y-112339000D01*
X132761000Y-102285000D02*
X132761000Y-112345000D01*
X132720000Y-102280000D02*
X132720000Y-112350000D01*
X132680000Y-102275000D02*
X132680000Y-112355000D01*
X132640000Y-102270000D02*
X132640000Y-112360000D01*
X132600000Y-102265000D02*
X132600000Y-112365000D01*
X132560000Y-102261000D02*
X132560000Y-112369000D01*
X132520000Y-102257000D02*
X132520000Y-112373000D01*
X132480000Y-102253000D02*
X132480000Y-112377000D01*
X132440000Y-102250000D02*
X132440000Y-112380000D01*
X132400000Y-102247000D02*
X132400000Y-112383000D01*
X132360000Y-102245000D02*
X132360000Y-112385000D01*
X132320000Y-102242000D02*
X132320000Y-112388000D01*
X132280000Y-102240000D02*
X132280000Y-112390000D01*
X132240000Y-102238000D02*
X132240000Y-112392000D01*
X132200000Y-102237000D02*
X132200000Y-112393000D01*
X132160000Y-102236000D02*
X132160000Y-112394000D01*
X132120000Y-102235000D02*
X132120000Y-112395000D01*
X132080000Y-102235000D02*
X132080000Y-112395000D01*
X132040000Y-102235000D02*
X132040000Y-112395000D01*
X137160000Y-107315000D02*
G75*
G03*
X137160000Y-107315000I-5120000J0D01*
G01*
X119280000Y-70223748D02*
X119280000Y-70746252D01*
X120750000Y-70223748D02*
X120750000Y-70746252D01*
X107850000Y-66413748D02*
X107850000Y-66936252D01*
X109320000Y-66413748D02*
X109320000Y-66936252D01*
X107850000Y-84193748D02*
X107850000Y-84716252D01*
X109320000Y-84193748D02*
X109320000Y-84716252D01*
X116940000Y-79636252D02*
X116940000Y-79113748D01*
X115470000Y-79636252D02*
X115470000Y-79113748D01*
X116940000Y-93606252D02*
X116940000Y-93083748D01*
X115470000Y-93606252D02*
X115470000Y-93083748D01*
X111860000Y-79636252D02*
X111860000Y-79113748D01*
X110390000Y-79636252D02*
X110390000Y-79113748D01*
X110390000Y-93083748D02*
X110390000Y-93606252D01*
X111860000Y-93083748D02*
X111860000Y-93606252D01*
X159485000Y-64396252D02*
X159485000Y-63873748D01*
X158015000Y-64396252D02*
X158015000Y-63873748D01*
X133885000Y-93718748D02*
X133885000Y-94241252D01*
X135355000Y-93718748D02*
X135355000Y-94241252D01*
X132815000Y-94241252D02*
X132815000Y-93718748D01*
X131345000Y-94241252D02*
X131345000Y-93718748D01*
X139326252Y-98960000D02*
X138803748Y-98960000D01*
X139326252Y-100430000D02*
X138803748Y-100430000D01*
X151865000Y-86621252D02*
X151865000Y-86098748D01*
X150395000Y-86621252D02*
X150395000Y-86098748D01*
X147693748Y-100430000D02*
X148216252Y-100430000D01*
X147693748Y-98960000D02*
X148216252Y-98960000D01*
X135355000Y-86621252D02*
X135355000Y-86098748D01*
X133885000Y-86621252D02*
X133885000Y-86098748D01*
X138168748Y-83285000D02*
X138691252Y-83285000D01*
X138168748Y-81815000D02*
X138691252Y-81815000D01*
X139326252Y-101500000D02*
X138803748Y-101500000D01*
X139326252Y-102970000D02*
X138803748Y-102970000D01*
X154405000Y-86621252D02*
X154405000Y-86098748D01*
X152935000Y-86621252D02*
X152935000Y-86098748D01*
X145315000Y-102608748D02*
X145315000Y-103131252D01*
X146785000Y-102608748D02*
X146785000Y-103131252D01*
X123671000Y-92971252D02*
X123671000Y-92448748D01*
X122201000Y-92971252D02*
X122201000Y-92448748D01*
X122201000Y-86098748D02*
X122201000Y-86621252D01*
X123671000Y-86098748D02*
X123671000Y-86621252D01*
D12*
X148423333Y-64746190D02*
X148423333Y-65103333D01*
X148399523Y-65174761D01*
X148351904Y-65222380D01*
X148280476Y-65246190D01*
X148232857Y-65246190D01*
X148732857Y-64960476D02*
X148685238Y-64936666D01*
X148661428Y-64912857D01*
X148637619Y-64865238D01*
X148637619Y-64841428D01*
X148661428Y-64793809D01*
X148685238Y-64770000D01*
X148732857Y-64746190D01*
X148828095Y-64746190D01*
X148875714Y-64770000D01*
X148899523Y-64793809D01*
X148923333Y-64841428D01*
X148923333Y-64865238D01*
X148899523Y-64912857D01*
X148875714Y-64936666D01*
X148828095Y-64960476D01*
X148732857Y-64960476D01*
X148685238Y-64984285D01*
X148661428Y-65008095D01*
X148637619Y-65055714D01*
X148637619Y-65150952D01*
X148661428Y-65198571D01*
X148685238Y-65222380D01*
X148732857Y-65246190D01*
X148828095Y-65246190D01*
X148875714Y-65222380D01*
X148899523Y-65198571D01*
X148923333Y-65150952D01*
X148923333Y-65055714D01*
X148899523Y-65008095D01*
X148875714Y-64984285D01*
X148828095Y-64960476D01*
X126988095Y-89773095D02*
X127226190Y-89773095D01*
X126726190Y-89939761D02*
X126988095Y-89773095D01*
X126726190Y-89606428D01*
X127226190Y-89177857D02*
X127226190Y-89463571D01*
X127226190Y-89320714D02*
X126726190Y-89320714D01*
X126797619Y-89368333D01*
X126845238Y-89415952D01*
X126869047Y-89463571D01*
X141859047Y-118201190D02*
X141859047Y-118605952D01*
X141882857Y-118653571D01*
X141906666Y-118677380D01*
X141954285Y-118701190D01*
X142049523Y-118701190D01*
X142097142Y-118677380D01*
X142120952Y-118653571D01*
X142144761Y-118605952D01*
X142144761Y-118201190D01*
X142597142Y-118201190D02*
X142501904Y-118201190D01*
X142454285Y-118225000D01*
X142430476Y-118248809D01*
X142382857Y-118320238D01*
X142359047Y-118415476D01*
X142359047Y-118605952D01*
X142382857Y-118653571D01*
X142406666Y-118677380D01*
X142454285Y-118701190D01*
X142549523Y-118701190D01*
X142597142Y-118677380D01*
X142620952Y-118653571D01*
X142644761Y-118605952D01*
X142644761Y-118486904D01*
X142620952Y-118439285D01*
X142597142Y-118415476D01*
X142549523Y-118391666D01*
X142454285Y-118391666D01*
X142406666Y-118415476D01*
X142382857Y-118439285D01*
X142359047Y-118486904D01*
X108839047Y-102596190D02*
X108839047Y-103000952D01*
X108862857Y-103048571D01*
X108886666Y-103072380D01*
X108934285Y-103096190D01*
X109029523Y-103096190D01*
X109077142Y-103072380D01*
X109100952Y-103048571D01*
X109124761Y-103000952D01*
X109124761Y-102596190D01*
X109600952Y-102596190D02*
X109362857Y-102596190D01*
X109339047Y-102834285D01*
X109362857Y-102810476D01*
X109410476Y-102786666D01*
X109529523Y-102786666D01*
X109577142Y-102810476D01*
X109600952Y-102834285D01*
X109624761Y-102881904D01*
X109624761Y-103000952D01*
X109600952Y-103048571D01*
X109577142Y-103072380D01*
X109529523Y-103096190D01*
X109410476Y-103096190D01*
X109362857Y-103072380D01*
X109339047Y-103048571D01*
X118364047Y-103231190D02*
X118364047Y-103635952D01*
X118387857Y-103683571D01*
X118411666Y-103707380D01*
X118459285Y-103731190D01*
X118554523Y-103731190D01*
X118602142Y-103707380D01*
X118625952Y-103683571D01*
X118649761Y-103635952D01*
X118649761Y-103231190D01*
X119102142Y-103397857D02*
X119102142Y-103731190D01*
X118983095Y-103207380D02*
X118864047Y-103564523D01*
X119173571Y-103564523D01*
X112649047Y-113391190D02*
X112649047Y-113795952D01*
X112672857Y-113843571D01*
X112696666Y-113867380D01*
X112744285Y-113891190D01*
X112839523Y-113891190D01*
X112887142Y-113867380D01*
X112910952Y-113843571D01*
X112934761Y-113795952D01*
X112934761Y-113391190D01*
X113125238Y-113391190D02*
X113434761Y-113391190D01*
X113268095Y-113581666D01*
X113339523Y-113581666D01*
X113387142Y-113605476D01*
X113410952Y-113629285D01*
X113434761Y-113676904D01*
X113434761Y-113795952D01*
X113410952Y-113843571D01*
X113387142Y-113867380D01*
X113339523Y-113891190D01*
X113196666Y-113891190D01*
X113149047Y-113867380D01*
X113125238Y-113843571D01*
X112756190Y-86740952D02*
X113160952Y-86740952D01*
X113208571Y-86717142D01*
X113232380Y-86693333D01*
X113256190Y-86645714D01*
X113256190Y-86550476D01*
X113232380Y-86502857D01*
X113208571Y-86479047D01*
X113160952Y-86455238D01*
X112756190Y-86455238D01*
X112803809Y-86240952D02*
X112780000Y-86217142D01*
X112756190Y-86169523D01*
X112756190Y-86050476D01*
X112780000Y-86002857D01*
X112803809Y-85979047D01*
X112851428Y-85955238D01*
X112899047Y-85955238D01*
X112970476Y-85979047D01*
X113256190Y-86264761D01*
X113256190Y-85955238D01*
X142569047Y-83936190D02*
X142569047Y-84340952D01*
X142592857Y-84388571D01*
X142616666Y-84412380D01*
X142664285Y-84436190D01*
X142759523Y-84436190D01*
X142807142Y-84412380D01*
X142830952Y-84388571D01*
X142854761Y-84340952D01*
X142854761Y-83936190D01*
X143354761Y-84436190D02*
X143069047Y-84436190D01*
X143211904Y-84436190D02*
X143211904Y-83936190D01*
X143164285Y-84007619D01*
X143116666Y-84055238D01*
X143069047Y-84079047D01*
X147546190Y-109541428D02*
X147308095Y-109708095D01*
X147546190Y-109827142D02*
X147046190Y-109827142D01*
X147046190Y-109636666D01*
X147070000Y-109589047D01*
X147093809Y-109565238D01*
X147141428Y-109541428D01*
X147212857Y-109541428D01*
X147260476Y-109565238D01*
X147284285Y-109589047D01*
X147308095Y-109636666D01*
X147308095Y-109827142D01*
X147093809Y-109350952D02*
X147070000Y-109327142D01*
X147046190Y-109279523D01*
X147046190Y-109160476D01*
X147070000Y-109112857D01*
X147093809Y-109089047D01*
X147141428Y-109065238D01*
X147189047Y-109065238D01*
X147260476Y-109089047D01*
X147546190Y-109374761D01*
X147546190Y-109065238D01*
X147046190Y-108612857D02*
X147046190Y-108850952D01*
X147284285Y-108874761D01*
X147260476Y-108850952D01*
X147236666Y-108803333D01*
X147236666Y-108684285D01*
X147260476Y-108636666D01*
X147284285Y-108612857D01*
X147331904Y-108589047D01*
X147450952Y-108589047D01*
X147498571Y-108612857D01*
X147522380Y-108636666D01*
X147546190Y-108684285D01*
X147546190Y-108803333D01*
X147522380Y-108850952D01*
X147498571Y-108874761D01*
X113343571Y-82141190D02*
X113176904Y-81903095D01*
X113057857Y-82141190D02*
X113057857Y-81641190D01*
X113248333Y-81641190D01*
X113295952Y-81665000D01*
X113319761Y-81688809D01*
X113343571Y-81736428D01*
X113343571Y-81807857D01*
X113319761Y-81855476D01*
X113295952Y-81879285D01*
X113248333Y-81903095D01*
X113057857Y-81903095D01*
X113534047Y-81688809D02*
X113557857Y-81665000D01*
X113605476Y-81641190D01*
X113724523Y-81641190D01*
X113772142Y-81665000D01*
X113795952Y-81688809D01*
X113819761Y-81736428D01*
X113819761Y-81784047D01*
X113795952Y-81855476D01*
X113510238Y-82141190D01*
X113819761Y-82141190D01*
X114248333Y-81807857D02*
X114248333Y-82141190D01*
X114129285Y-81617380D02*
X114010238Y-81974523D01*
X114319761Y-81974523D01*
X113343571Y-91031190D02*
X113176904Y-90793095D01*
X113057857Y-91031190D02*
X113057857Y-90531190D01*
X113248333Y-90531190D01*
X113295952Y-90555000D01*
X113319761Y-90578809D01*
X113343571Y-90626428D01*
X113343571Y-90697857D01*
X113319761Y-90745476D01*
X113295952Y-90769285D01*
X113248333Y-90793095D01*
X113057857Y-90793095D01*
X113534047Y-90578809D02*
X113557857Y-90555000D01*
X113605476Y-90531190D01*
X113724523Y-90531190D01*
X113772142Y-90555000D01*
X113795952Y-90578809D01*
X113819761Y-90626428D01*
X113819761Y-90674047D01*
X113795952Y-90745476D01*
X113510238Y-91031190D01*
X113819761Y-91031190D01*
X113986428Y-90531190D02*
X114295952Y-90531190D01*
X114129285Y-90721666D01*
X114200714Y-90721666D01*
X114248333Y-90745476D01*
X114272142Y-90769285D01*
X114295952Y-90816904D01*
X114295952Y-90935952D01*
X114272142Y-90983571D01*
X114248333Y-91007380D01*
X114200714Y-91031190D01*
X114057857Y-91031190D01*
X114010238Y-91007380D01*
X113986428Y-90983571D01*
X117701190Y-75886428D02*
X117463095Y-76053095D01*
X117701190Y-76172142D02*
X117201190Y-76172142D01*
X117201190Y-75981666D01*
X117225000Y-75934047D01*
X117248809Y-75910238D01*
X117296428Y-75886428D01*
X117367857Y-75886428D01*
X117415476Y-75910238D01*
X117439285Y-75934047D01*
X117463095Y-75981666D01*
X117463095Y-76172142D01*
X117248809Y-75695952D02*
X117225000Y-75672142D01*
X117201190Y-75624523D01*
X117201190Y-75505476D01*
X117225000Y-75457857D01*
X117248809Y-75434047D01*
X117296428Y-75410238D01*
X117344047Y-75410238D01*
X117415476Y-75434047D01*
X117701190Y-75719761D01*
X117701190Y-75410238D01*
X117248809Y-75219761D02*
X117225000Y-75195952D01*
X117201190Y-75148333D01*
X117201190Y-75029285D01*
X117225000Y-74981666D01*
X117248809Y-74957857D01*
X117296428Y-74934047D01*
X117344047Y-74934047D01*
X117415476Y-74957857D01*
X117701190Y-75243571D01*
X117701190Y-74934047D01*
X111438571Y-96746190D02*
X111271904Y-96508095D01*
X111152857Y-96746190D02*
X111152857Y-96246190D01*
X111343333Y-96246190D01*
X111390952Y-96270000D01*
X111414761Y-96293809D01*
X111438571Y-96341428D01*
X111438571Y-96412857D01*
X111414761Y-96460476D01*
X111390952Y-96484285D01*
X111343333Y-96508095D01*
X111152857Y-96508095D01*
X111629047Y-96293809D02*
X111652857Y-96270000D01*
X111700476Y-96246190D01*
X111819523Y-96246190D01*
X111867142Y-96270000D01*
X111890952Y-96293809D01*
X111914761Y-96341428D01*
X111914761Y-96389047D01*
X111890952Y-96460476D01*
X111605238Y-96746190D01*
X111914761Y-96746190D01*
X112390952Y-96746190D02*
X112105238Y-96746190D01*
X112248095Y-96746190D02*
X112248095Y-96246190D01*
X112200476Y-96317619D01*
X112152857Y-96365238D01*
X112105238Y-96389047D01*
X160968571Y-78331190D02*
X160801904Y-78093095D01*
X160682857Y-78331190D02*
X160682857Y-77831190D01*
X160873333Y-77831190D01*
X160920952Y-77855000D01*
X160944761Y-77878809D01*
X160968571Y-77926428D01*
X160968571Y-77997857D01*
X160944761Y-78045476D01*
X160920952Y-78069285D01*
X160873333Y-78093095D01*
X160682857Y-78093095D01*
X161159047Y-77878809D02*
X161182857Y-77855000D01*
X161230476Y-77831190D01*
X161349523Y-77831190D01*
X161397142Y-77855000D01*
X161420952Y-77878809D01*
X161444761Y-77926428D01*
X161444761Y-77974047D01*
X161420952Y-78045476D01*
X161135238Y-78331190D01*
X161444761Y-78331190D01*
X161754285Y-77831190D02*
X161801904Y-77831190D01*
X161849523Y-77855000D01*
X161873333Y-77878809D01*
X161897142Y-77926428D01*
X161920952Y-78021666D01*
X161920952Y-78140714D01*
X161897142Y-78235952D01*
X161873333Y-78283571D01*
X161849523Y-78307380D01*
X161801904Y-78331190D01*
X161754285Y-78331190D01*
X161706666Y-78307380D01*
X161682857Y-78283571D01*
X161659047Y-78235952D01*
X161635238Y-78140714D01*
X161635238Y-78021666D01*
X161659047Y-77926428D01*
X161682857Y-77878809D01*
X161706666Y-77855000D01*
X161754285Y-77831190D01*
X156523571Y-78331190D02*
X156356904Y-78093095D01*
X156237857Y-78331190D02*
X156237857Y-77831190D01*
X156428333Y-77831190D01*
X156475952Y-77855000D01*
X156499761Y-77878809D01*
X156523571Y-77926428D01*
X156523571Y-77997857D01*
X156499761Y-78045476D01*
X156475952Y-78069285D01*
X156428333Y-78093095D01*
X156237857Y-78093095D01*
X156999761Y-78331190D02*
X156714047Y-78331190D01*
X156856904Y-78331190D02*
X156856904Y-77831190D01*
X156809285Y-77902619D01*
X156761666Y-77950238D01*
X156714047Y-77974047D01*
X157237857Y-78331190D02*
X157333095Y-78331190D01*
X157380714Y-78307380D01*
X157404523Y-78283571D01*
X157452142Y-78212142D01*
X157475952Y-78116904D01*
X157475952Y-77926428D01*
X157452142Y-77878809D01*
X157428333Y-77855000D01*
X157380714Y-77831190D01*
X157285476Y-77831190D01*
X157237857Y-77855000D01*
X157214047Y-77878809D01*
X157190238Y-77926428D01*
X157190238Y-78045476D01*
X157214047Y-78093095D01*
X157237857Y-78116904D01*
X157285476Y-78140714D01*
X157380714Y-78140714D01*
X157428333Y-78116904D01*
X157452142Y-78093095D01*
X157475952Y-78045476D01*
X152078571Y-78331190D02*
X151911904Y-78093095D01*
X151792857Y-78331190D02*
X151792857Y-77831190D01*
X151983333Y-77831190D01*
X152030952Y-77855000D01*
X152054761Y-77878809D01*
X152078571Y-77926428D01*
X152078571Y-77997857D01*
X152054761Y-78045476D01*
X152030952Y-78069285D01*
X151983333Y-78093095D01*
X151792857Y-78093095D01*
X152554761Y-78331190D02*
X152269047Y-78331190D01*
X152411904Y-78331190D02*
X152411904Y-77831190D01*
X152364285Y-77902619D01*
X152316666Y-77950238D01*
X152269047Y-77974047D01*
X152840476Y-78045476D02*
X152792857Y-78021666D01*
X152769047Y-77997857D01*
X152745238Y-77950238D01*
X152745238Y-77926428D01*
X152769047Y-77878809D01*
X152792857Y-77855000D01*
X152840476Y-77831190D01*
X152935714Y-77831190D01*
X152983333Y-77855000D01*
X153007142Y-77878809D01*
X153030952Y-77926428D01*
X153030952Y-77950238D01*
X153007142Y-77997857D01*
X152983333Y-78021666D01*
X152935714Y-78045476D01*
X152840476Y-78045476D01*
X152792857Y-78069285D01*
X152769047Y-78093095D01*
X152745238Y-78140714D01*
X152745238Y-78235952D01*
X152769047Y-78283571D01*
X152792857Y-78307380D01*
X152840476Y-78331190D01*
X152935714Y-78331190D01*
X152983333Y-78307380D01*
X153007142Y-78283571D01*
X153030952Y-78235952D01*
X153030952Y-78140714D01*
X153007142Y-78093095D01*
X152983333Y-78069285D01*
X152935714Y-78045476D01*
X147633571Y-78331190D02*
X147466904Y-78093095D01*
X147347857Y-78331190D02*
X147347857Y-77831190D01*
X147538333Y-77831190D01*
X147585952Y-77855000D01*
X147609761Y-77878809D01*
X147633571Y-77926428D01*
X147633571Y-77997857D01*
X147609761Y-78045476D01*
X147585952Y-78069285D01*
X147538333Y-78093095D01*
X147347857Y-78093095D01*
X148109761Y-78331190D02*
X147824047Y-78331190D01*
X147966904Y-78331190D02*
X147966904Y-77831190D01*
X147919285Y-77902619D01*
X147871666Y-77950238D01*
X147824047Y-77974047D01*
X148276428Y-77831190D02*
X148609761Y-77831190D01*
X148395476Y-78331190D01*
X145093571Y-78331190D02*
X144926904Y-78093095D01*
X144807857Y-78331190D02*
X144807857Y-77831190D01*
X144998333Y-77831190D01*
X145045952Y-77855000D01*
X145069761Y-77878809D01*
X145093571Y-77926428D01*
X145093571Y-77997857D01*
X145069761Y-78045476D01*
X145045952Y-78069285D01*
X144998333Y-78093095D01*
X144807857Y-78093095D01*
X145569761Y-78331190D02*
X145284047Y-78331190D01*
X145426904Y-78331190D02*
X145426904Y-77831190D01*
X145379285Y-77902619D01*
X145331666Y-77950238D01*
X145284047Y-77974047D01*
X145998333Y-77831190D02*
X145903095Y-77831190D01*
X145855476Y-77855000D01*
X145831666Y-77878809D01*
X145784047Y-77950238D01*
X145760238Y-78045476D01*
X145760238Y-78235952D01*
X145784047Y-78283571D01*
X145807857Y-78307380D01*
X145855476Y-78331190D01*
X145950714Y-78331190D01*
X145998333Y-78307380D01*
X146022142Y-78283571D01*
X146045952Y-78235952D01*
X146045952Y-78116904D01*
X146022142Y-78069285D01*
X145998333Y-78045476D01*
X145950714Y-78021666D01*
X145855476Y-78021666D01*
X145807857Y-78045476D01*
X145784047Y-78069285D01*
X145760238Y-78116904D01*
X140648571Y-73251190D02*
X140481904Y-73013095D01*
X140362857Y-73251190D02*
X140362857Y-72751190D01*
X140553333Y-72751190D01*
X140600952Y-72775000D01*
X140624761Y-72798809D01*
X140648571Y-72846428D01*
X140648571Y-72917857D01*
X140624761Y-72965476D01*
X140600952Y-72989285D01*
X140553333Y-73013095D01*
X140362857Y-73013095D01*
X141124761Y-73251190D02*
X140839047Y-73251190D01*
X140981904Y-73251190D02*
X140981904Y-72751190D01*
X140934285Y-72822619D01*
X140886666Y-72870238D01*
X140839047Y-72894047D01*
X141577142Y-72751190D02*
X141339047Y-72751190D01*
X141315238Y-72989285D01*
X141339047Y-72965476D01*
X141386666Y-72941666D01*
X141505714Y-72941666D01*
X141553333Y-72965476D01*
X141577142Y-72989285D01*
X141600952Y-73036904D01*
X141600952Y-73155952D01*
X141577142Y-73203571D01*
X141553333Y-73227380D01*
X141505714Y-73251190D01*
X141386666Y-73251190D01*
X141339047Y-73227380D01*
X141315238Y-73203571D01*
X138743571Y-73251190D02*
X138576904Y-73013095D01*
X138457857Y-73251190D02*
X138457857Y-72751190D01*
X138648333Y-72751190D01*
X138695952Y-72775000D01*
X138719761Y-72798809D01*
X138743571Y-72846428D01*
X138743571Y-72917857D01*
X138719761Y-72965476D01*
X138695952Y-72989285D01*
X138648333Y-73013095D01*
X138457857Y-73013095D01*
X139219761Y-73251190D02*
X138934047Y-73251190D01*
X139076904Y-73251190D02*
X139076904Y-72751190D01*
X139029285Y-72822619D01*
X138981666Y-72870238D01*
X138934047Y-72894047D01*
X139648333Y-72917857D02*
X139648333Y-73251190D01*
X139529285Y-72727380D02*
X139410238Y-73084523D01*
X139719761Y-73084523D01*
X143188571Y-78331190D02*
X143021904Y-78093095D01*
X142902857Y-78331190D02*
X142902857Y-77831190D01*
X143093333Y-77831190D01*
X143140952Y-77855000D01*
X143164761Y-77878809D01*
X143188571Y-77926428D01*
X143188571Y-77997857D01*
X143164761Y-78045476D01*
X143140952Y-78069285D01*
X143093333Y-78093095D01*
X142902857Y-78093095D01*
X143664761Y-78331190D02*
X143379047Y-78331190D01*
X143521904Y-78331190D02*
X143521904Y-77831190D01*
X143474285Y-77902619D01*
X143426666Y-77950238D01*
X143379047Y-77974047D01*
X143831428Y-77831190D02*
X144140952Y-77831190D01*
X143974285Y-78021666D01*
X144045714Y-78021666D01*
X144093333Y-78045476D01*
X144117142Y-78069285D01*
X144140952Y-78116904D01*
X144140952Y-78235952D01*
X144117142Y-78283571D01*
X144093333Y-78307380D01*
X144045714Y-78331190D01*
X143902857Y-78331190D01*
X143855238Y-78307380D01*
X143831428Y-78283571D01*
X149538571Y-78331190D02*
X149371904Y-78093095D01*
X149252857Y-78331190D02*
X149252857Y-77831190D01*
X149443333Y-77831190D01*
X149490952Y-77855000D01*
X149514761Y-77878809D01*
X149538571Y-77926428D01*
X149538571Y-77997857D01*
X149514761Y-78045476D01*
X149490952Y-78069285D01*
X149443333Y-78093095D01*
X149252857Y-78093095D01*
X150014761Y-78331190D02*
X149729047Y-78331190D01*
X149871904Y-78331190D02*
X149871904Y-77831190D01*
X149824285Y-77902619D01*
X149776666Y-77950238D01*
X149729047Y-77974047D01*
X150205238Y-77878809D02*
X150229047Y-77855000D01*
X150276666Y-77831190D01*
X150395714Y-77831190D01*
X150443333Y-77855000D01*
X150467142Y-77878809D01*
X150490952Y-77926428D01*
X150490952Y-77974047D01*
X150467142Y-78045476D01*
X150181428Y-78331190D01*
X150490952Y-78331190D01*
X153983571Y-78331190D02*
X153816904Y-78093095D01*
X153697857Y-78331190D02*
X153697857Y-77831190D01*
X153888333Y-77831190D01*
X153935952Y-77855000D01*
X153959761Y-77878809D01*
X153983571Y-77926428D01*
X153983571Y-77997857D01*
X153959761Y-78045476D01*
X153935952Y-78069285D01*
X153888333Y-78093095D01*
X153697857Y-78093095D01*
X154459761Y-78331190D02*
X154174047Y-78331190D01*
X154316904Y-78331190D02*
X154316904Y-77831190D01*
X154269285Y-77902619D01*
X154221666Y-77950238D01*
X154174047Y-77974047D01*
X154935952Y-78331190D02*
X154650238Y-78331190D01*
X154793095Y-78331190D02*
X154793095Y-77831190D01*
X154745476Y-77902619D01*
X154697857Y-77950238D01*
X154650238Y-77974047D01*
X158428571Y-78331190D02*
X158261904Y-78093095D01*
X158142857Y-78331190D02*
X158142857Y-77831190D01*
X158333333Y-77831190D01*
X158380952Y-77855000D01*
X158404761Y-77878809D01*
X158428571Y-77926428D01*
X158428571Y-77997857D01*
X158404761Y-78045476D01*
X158380952Y-78069285D01*
X158333333Y-78093095D01*
X158142857Y-78093095D01*
X158904761Y-78331190D02*
X158619047Y-78331190D01*
X158761904Y-78331190D02*
X158761904Y-77831190D01*
X158714285Y-77902619D01*
X158666666Y-77950238D01*
X158619047Y-77974047D01*
X159214285Y-77831190D02*
X159261904Y-77831190D01*
X159309523Y-77855000D01*
X159333333Y-77878809D01*
X159357142Y-77926428D01*
X159380952Y-78021666D01*
X159380952Y-78140714D01*
X159357142Y-78235952D01*
X159333333Y-78283571D01*
X159309523Y-78307380D01*
X159261904Y-78331190D01*
X159214285Y-78331190D01*
X159166666Y-78307380D01*
X159142857Y-78283571D01*
X159119047Y-78235952D01*
X159095238Y-78140714D01*
X159095238Y-78021666D01*
X159119047Y-77926428D01*
X159142857Y-77878809D01*
X159166666Y-77855000D01*
X159214285Y-77831190D01*
X163421190Y-78188333D02*
X163183095Y-78355000D01*
X163421190Y-78474047D02*
X162921190Y-78474047D01*
X162921190Y-78283571D01*
X162945000Y-78235952D01*
X162968809Y-78212142D01*
X163016428Y-78188333D01*
X163087857Y-78188333D01*
X163135476Y-78212142D01*
X163159285Y-78235952D01*
X163183095Y-78283571D01*
X163183095Y-78474047D01*
X163421190Y-77950238D02*
X163421190Y-77855000D01*
X163397380Y-77807380D01*
X163373571Y-77783571D01*
X163302142Y-77735952D01*
X163206904Y-77712142D01*
X163016428Y-77712142D01*
X162968809Y-77735952D01*
X162945000Y-77759761D01*
X162921190Y-77807380D01*
X162921190Y-77902619D01*
X162945000Y-77950238D01*
X162968809Y-77974047D01*
X163016428Y-77997857D01*
X163135476Y-77997857D01*
X163183095Y-77974047D01*
X163206904Y-77950238D01*
X163230714Y-77902619D01*
X163230714Y-77807380D01*
X163206904Y-77759761D01*
X163183095Y-77735952D01*
X163135476Y-77712142D01*
X170096666Y-113256190D02*
X169930000Y-113018095D01*
X169810952Y-113256190D02*
X169810952Y-112756190D01*
X170001428Y-112756190D01*
X170049047Y-112780000D01*
X170072857Y-112803809D01*
X170096666Y-112851428D01*
X170096666Y-112922857D01*
X170072857Y-112970476D01*
X170049047Y-112994285D01*
X170001428Y-113018095D01*
X169810952Y-113018095D01*
X170382380Y-112970476D02*
X170334761Y-112946666D01*
X170310952Y-112922857D01*
X170287142Y-112875238D01*
X170287142Y-112851428D01*
X170310952Y-112803809D01*
X170334761Y-112780000D01*
X170382380Y-112756190D01*
X170477619Y-112756190D01*
X170525238Y-112780000D01*
X170549047Y-112803809D01*
X170572857Y-112851428D01*
X170572857Y-112875238D01*
X170549047Y-112922857D01*
X170525238Y-112946666D01*
X170477619Y-112970476D01*
X170382380Y-112970476D01*
X170334761Y-112994285D01*
X170310952Y-113018095D01*
X170287142Y-113065714D01*
X170287142Y-113160952D01*
X170310952Y-113208571D01*
X170334761Y-113232380D01*
X170382380Y-113256190D01*
X170477619Y-113256190D01*
X170525238Y-113232380D01*
X170549047Y-113208571D01*
X170572857Y-113160952D01*
X170572857Y-113065714D01*
X170549047Y-113018095D01*
X170525238Y-112994285D01*
X170477619Y-112970476D01*
X170096666Y-102461190D02*
X169930000Y-102223095D01*
X169810952Y-102461190D02*
X169810952Y-101961190D01*
X170001428Y-101961190D01*
X170049047Y-101985000D01*
X170072857Y-102008809D01*
X170096666Y-102056428D01*
X170096666Y-102127857D01*
X170072857Y-102175476D01*
X170049047Y-102199285D01*
X170001428Y-102223095D01*
X169810952Y-102223095D01*
X170263333Y-101961190D02*
X170596666Y-101961190D01*
X170382380Y-102461190D01*
X170096666Y-91666190D02*
X169930000Y-91428095D01*
X169810952Y-91666190D02*
X169810952Y-91166190D01*
X170001428Y-91166190D01*
X170049047Y-91190000D01*
X170072857Y-91213809D01*
X170096666Y-91261428D01*
X170096666Y-91332857D01*
X170072857Y-91380476D01*
X170049047Y-91404285D01*
X170001428Y-91428095D01*
X169810952Y-91428095D01*
X170525238Y-91166190D02*
X170430000Y-91166190D01*
X170382380Y-91190000D01*
X170358571Y-91213809D01*
X170310952Y-91285238D01*
X170287142Y-91380476D01*
X170287142Y-91570952D01*
X170310952Y-91618571D01*
X170334761Y-91642380D01*
X170382380Y-91666190D01*
X170477619Y-91666190D01*
X170525238Y-91642380D01*
X170549047Y-91618571D01*
X170572857Y-91570952D01*
X170572857Y-91451904D01*
X170549047Y-91404285D01*
X170525238Y-91380476D01*
X170477619Y-91356666D01*
X170382380Y-91356666D01*
X170334761Y-91380476D01*
X170310952Y-91404285D01*
X170287142Y-91451904D01*
X165016666Y-81506190D02*
X164850000Y-81268095D01*
X164730952Y-81506190D02*
X164730952Y-81006190D01*
X164921428Y-81006190D01*
X164969047Y-81030000D01*
X164992857Y-81053809D01*
X165016666Y-81101428D01*
X165016666Y-81172857D01*
X164992857Y-81220476D01*
X164969047Y-81244285D01*
X164921428Y-81268095D01*
X164730952Y-81268095D01*
X165469047Y-81006190D02*
X165230952Y-81006190D01*
X165207142Y-81244285D01*
X165230952Y-81220476D01*
X165278571Y-81196666D01*
X165397619Y-81196666D01*
X165445238Y-81220476D01*
X165469047Y-81244285D01*
X165492857Y-81291904D01*
X165492857Y-81410952D01*
X165469047Y-81458571D01*
X165445238Y-81482380D01*
X165397619Y-81506190D01*
X165278571Y-81506190D01*
X165230952Y-81482380D01*
X165207142Y-81458571D01*
X169588666Y-70076190D02*
X169422000Y-69838095D01*
X169302952Y-70076190D02*
X169302952Y-69576190D01*
X169493428Y-69576190D01*
X169541047Y-69600000D01*
X169564857Y-69623809D01*
X169588666Y-69671428D01*
X169588666Y-69742857D01*
X169564857Y-69790476D01*
X169541047Y-69814285D01*
X169493428Y-69838095D01*
X169302952Y-69838095D01*
X170017238Y-69742857D02*
X170017238Y-70076190D01*
X169898190Y-69552380D02*
X169779142Y-69909523D01*
X170088666Y-69909523D01*
X170096666Y-59281190D02*
X169930000Y-59043095D01*
X169810952Y-59281190D02*
X169810952Y-58781190D01*
X170001428Y-58781190D01*
X170049047Y-58805000D01*
X170072857Y-58828809D01*
X170096666Y-58876428D01*
X170096666Y-58947857D01*
X170072857Y-58995476D01*
X170049047Y-59019285D01*
X170001428Y-59043095D01*
X169810952Y-59043095D01*
X170263333Y-58781190D02*
X170572857Y-58781190D01*
X170406190Y-58971666D01*
X170477619Y-58971666D01*
X170525238Y-58995476D01*
X170549047Y-59019285D01*
X170572857Y-59066904D01*
X170572857Y-59185952D01*
X170549047Y-59233571D01*
X170525238Y-59257380D01*
X170477619Y-59281190D01*
X170334761Y-59281190D01*
X170287142Y-59257380D01*
X170263333Y-59233571D01*
X140632666Y-79474190D02*
X140466000Y-79236095D01*
X140346952Y-79474190D02*
X140346952Y-78974190D01*
X140537428Y-78974190D01*
X140585047Y-78998000D01*
X140608857Y-79021809D01*
X140632666Y-79069428D01*
X140632666Y-79140857D01*
X140608857Y-79188476D01*
X140585047Y-79212285D01*
X140537428Y-79236095D01*
X140346952Y-79236095D01*
X140823142Y-79021809D02*
X140846952Y-78998000D01*
X140894571Y-78974190D01*
X141013619Y-78974190D01*
X141061238Y-78998000D01*
X141085047Y-79021809D01*
X141108857Y-79069428D01*
X141108857Y-79117047D01*
X141085047Y-79188476D01*
X140799333Y-79474190D01*
X141108857Y-79474190D01*
X131996666Y-88618190D02*
X131830000Y-88380095D01*
X131710952Y-88618190D02*
X131710952Y-88118190D01*
X131901428Y-88118190D01*
X131949047Y-88142000D01*
X131972857Y-88165809D01*
X131996666Y-88213428D01*
X131996666Y-88284857D01*
X131972857Y-88332476D01*
X131949047Y-88356285D01*
X131901428Y-88380095D01*
X131710952Y-88380095D01*
X132472857Y-88618190D02*
X132187142Y-88618190D01*
X132330000Y-88618190D02*
X132330000Y-88118190D01*
X132282380Y-88189619D01*
X132234761Y-88237238D01*
X132187142Y-88261047D01*
X144097380Y-109493809D02*
X144049761Y-109470000D01*
X144002142Y-109422380D01*
X143930714Y-109350952D01*
X143883095Y-109327142D01*
X143835476Y-109327142D01*
X143859285Y-109446190D02*
X143811666Y-109422380D01*
X143764047Y-109374761D01*
X143740238Y-109279523D01*
X143740238Y-109112857D01*
X143764047Y-109017619D01*
X143811666Y-108970000D01*
X143859285Y-108946190D01*
X143954523Y-108946190D01*
X144002142Y-108970000D01*
X144049761Y-109017619D01*
X144073571Y-109112857D01*
X144073571Y-109279523D01*
X144049761Y-109374761D01*
X144002142Y-109422380D01*
X143954523Y-109446190D01*
X143859285Y-109446190D01*
X144240238Y-108946190D02*
X144573571Y-108946190D01*
X144359285Y-109446190D01*
X168862380Y-118383809D02*
X168814761Y-118360000D01*
X168767142Y-118312380D01*
X168695714Y-118240952D01*
X168648095Y-118217142D01*
X168600476Y-118217142D01*
X168624285Y-118336190D02*
X168576666Y-118312380D01*
X168529047Y-118264761D01*
X168505238Y-118169523D01*
X168505238Y-118002857D01*
X168529047Y-117907619D01*
X168576666Y-117860000D01*
X168624285Y-117836190D01*
X168719523Y-117836190D01*
X168767142Y-117860000D01*
X168814761Y-117907619D01*
X168838571Y-118002857D01*
X168838571Y-118169523D01*
X168814761Y-118264761D01*
X168767142Y-118312380D01*
X168719523Y-118336190D01*
X168624285Y-118336190D01*
X169267142Y-117836190D02*
X169171904Y-117836190D01*
X169124285Y-117860000D01*
X169100476Y-117883809D01*
X169052857Y-117955238D01*
X169029047Y-118050476D01*
X169029047Y-118240952D01*
X169052857Y-118288571D01*
X169076666Y-118312380D01*
X169124285Y-118336190D01*
X169219523Y-118336190D01*
X169267142Y-118312380D01*
X169290952Y-118288571D01*
X169314761Y-118240952D01*
X169314761Y-118121904D01*
X169290952Y-118074285D01*
X169267142Y-118050476D01*
X169219523Y-118026666D01*
X169124285Y-118026666D01*
X169076666Y-118050476D01*
X169052857Y-118074285D01*
X169029047Y-118121904D01*
X169497380Y-107588809D02*
X169449761Y-107565000D01*
X169402142Y-107517380D01*
X169330714Y-107445952D01*
X169283095Y-107422142D01*
X169235476Y-107422142D01*
X169259285Y-107541190D02*
X169211666Y-107517380D01*
X169164047Y-107469761D01*
X169140238Y-107374523D01*
X169140238Y-107207857D01*
X169164047Y-107112619D01*
X169211666Y-107065000D01*
X169259285Y-107041190D01*
X169354523Y-107041190D01*
X169402142Y-107065000D01*
X169449761Y-107112619D01*
X169473571Y-107207857D01*
X169473571Y-107374523D01*
X169449761Y-107469761D01*
X169402142Y-107517380D01*
X169354523Y-107541190D01*
X169259285Y-107541190D01*
X169925952Y-107041190D02*
X169687857Y-107041190D01*
X169664047Y-107279285D01*
X169687857Y-107255476D01*
X169735476Y-107231666D01*
X169854523Y-107231666D01*
X169902142Y-107255476D01*
X169925952Y-107279285D01*
X169949761Y-107326904D01*
X169949761Y-107445952D01*
X169925952Y-107493571D01*
X169902142Y-107517380D01*
X169854523Y-107541190D01*
X169735476Y-107541190D01*
X169687857Y-107517380D01*
X169664047Y-107493571D01*
X169497380Y-96793809D02*
X169449761Y-96770000D01*
X169402142Y-96722380D01*
X169330714Y-96650952D01*
X169283095Y-96627142D01*
X169235476Y-96627142D01*
X169259285Y-96746190D02*
X169211666Y-96722380D01*
X169164047Y-96674761D01*
X169140238Y-96579523D01*
X169140238Y-96412857D01*
X169164047Y-96317619D01*
X169211666Y-96270000D01*
X169259285Y-96246190D01*
X169354523Y-96246190D01*
X169402142Y-96270000D01*
X169449761Y-96317619D01*
X169473571Y-96412857D01*
X169473571Y-96579523D01*
X169449761Y-96674761D01*
X169402142Y-96722380D01*
X169354523Y-96746190D01*
X169259285Y-96746190D01*
X169902142Y-96412857D02*
X169902142Y-96746190D01*
X169783095Y-96222380D02*
X169664047Y-96579523D01*
X169973571Y-96579523D01*
X169497380Y-85998809D02*
X169449761Y-85975000D01*
X169402142Y-85927380D01*
X169330714Y-85855952D01*
X169283095Y-85832142D01*
X169235476Y-85832142D01*
X169259285Y-85951190D02*
X169211666Y-85927380D01*
X169164047Y-85879761D01*
X169140238Y-85784523D01*
X169140238Y-85617857D01*
X169164047Y-85522619D01*
X169211666Y-85475000D01*
X169259285Y-85451190D01*
X169354523Y-85451190D01*
X169402142Y-85475000D01*
X169449761Y-85522619D01*
X169473571Y-85617857D01*
X169473571Y-85784523D01*
X169449761Y-85879761D01*
X169402142Y-85927380D01*
X169354523Y-85951190D01*
X169259285Y-85951190D01*
X169640238Y-85451190D02*
X169949761Y-85451190D01*
X169783095Y-85641666D01*
X169854523Y-85641666D01*
X169902142Y-85665476D01*
X169925952Y-85689285D01*
X169949761Y-85736904D01*
X169949761Y-85855952D01*
X169925952Y-85903571D01*
X169902142Y-85927380D01*
X169854523Y-85951190D01*
X169711666Y-85951190D01*
X169664047Y-85927380D01*
X169640238Y-85903571D01*
X169497380Y-75203809D02*
X169449761Y-75180000D01*
X169402142Y-75132380D01*
X169330714Y-75060952D01*
X169283095Y-75037142D01*
X169235476Y-75037142D01*
X169259285Y-75156190D02*
X169211666Y-75132380D01*
X169164047Y-75084761D01*
X169140238Y-74989523D01*
X169140238Y-74822857D01*
X169164047Y-74727619D01*
X169211666Y-74680000D01*
X169259285Y-74656190D01*
X169354523Y-74656190D01*
X169402142Y-74680000D01*
X169449761Y-74727619D01*
X169473571Y-74822857D01*
X169473571Y-74989523D01*
X169449761Y-75084761D01*
X169402142Y-75132380D01*
X169354523Y-75156190D01*
X169259285Y-75156190D01*
X169664047Y-74703809D02*
X169687857Y-74680000D01*
X169735476Y-74656190D01*
X169854523Y-74656190D01*
X169902142Y-74680000D01*
X169925952Y-74703809D01*
X169949761Y-74751428D01*
X169949761Y-74799047D01*
X169925952Y-74870476D01*
X169640238Y-75156190D01*
X169949761Y-75156190D01*
X169497380Y-64408809D02*
X169449761Y-64385000D01*
X169402142Y-64337380D01*
X169330714Y-64265952D01*
X169283095Y-64242142D01*
X169235476Y-64242142D01*
X169259285Y-64361190D02*
X169211666Y-64337380D01*
X169164047Y-64289761D01*
X169140238Y-64194523D01*
X169140238Y-64027857D01*
X169164047Y-63932619D01*
X169211666Y-63885000D01*
X169259285Y-63861190D01*
X169354523Y-63861190D01*
X169402142Y-63885000D01*
X169449761Y-63932619D01*
X169473571Y-64027857D01*
X169473571Y-64194523D01*
X169449761Y-64289761D01*
X169402142Y-64337380D01*
X169354523Y-64361190D01*
X169259285Y-64361190D01*
X169949761Y-64361190D02*
X169664047Y-64361190D01*
X169806904Y-64361190D02*
X169806904Y-63861190D01*
X169759285Y-63932619D01*
X169711666Y-63980238D01*
X169664047Y-64004047D01*
X157583238Y-114280190D02*
X157583238Y-114637333D01*
X157559428Y-114708761D01*
X157511809Y-114756380D01*
X157440380Y-114780190D01*
X157392761Y-114780190D01*
X158083238Y-114780190D02*
X157797523Y-114780190D01*
X157940380Y-114780190D02*
X157940380Y-114280190D01*
X157892761Y-114351619D01*
X157845142Y-114399238D01*
X157797523Y-114423047D01*
X158559428Y-114780190D02*
X158273714Y-114780190D01*
X158416571Y-114780190D02*
X158416571Y-114280190D01*
X158368952Y-114351619D01*
X158321333Y-114399238D01*
X158273714Y-114423047D01*
X120880238Y-114153190D02*
X120880238Y-114510333D01*
X120856428Y-114581761D01*
X120808809Y-114629380D01*
X120737380Y-114653190D01*
X120689761Y-114653190D01*
X121380238Y-114653190D02*
X121094523Y-114653190D01*
X121237380Y-114653190D02*
X121237380Y-114153190D01*
X121189761Y-114224619D01*
X121142142Y-114272238D01*
X121094523Y-114296047D01*
X121689761Y-114153190D02*
X121737380Y-114153190D01*
X121785000Y-114177000D01*
X121808809Y-114200809D01*
X121832619Y-114248428D01*
X121856428Y-114343666D01*
X121856428Y-114462714D01*
X121832619Y-114557952D01*
X121808809Y-114605571D01*
X121785000Y-114629380D01*
X121737380Y-114653190D01*
X121689761Y-114653190D01*
X121642142Y-114629380D01*
X121618333Y-114605571D01*
X121594523Y-114557952D01*
X121570714Y-114462714D01*
X121570714Y-114343666D01*
X121594523Y-114248428D01*
X121618333Y-114200809D01*
X121642142Y-114177000D01*
X121689761Y-114153190D01*
X114133333Y-65766190D02*
X114133333Y-66123333D01*
X114109523Y-66194761D01*
X114061904Y-66242380D01*
X113990476Y-66266190D01*
X113942857Y-66266190D01*
X114395238Y-66266190D02*
X114490476Y-66266190D01*
X114538095Y-66242380D01*
X114561904Y-66218571D01*
X114609523Y-66147142D01*
X114633333Y-66051904D01*
X114633333Y-65861428D01*
X114609523Y-65813809D01*
X114585714Y-65790000D01*
X114538095Y-65766190D01*
X114442857Y-65766190D01*
X114395238Y-65790000D01*
X114371428Y-65813809D01*
X114347619Y-65861428D01*
X114347619Y-65980476D01*
X114371428Y-66028095D01*
X114395238Y-66051904D01*
X114442857Y-66075714D01*
X114538095Y-66075714D01*
X114585714Y-66051904D01*
X114609523Y-66028095D01*
X114633333Y-65980476D01*
X183241190Y-117006666D02*
X183598333Y-117006666D01*
X183669761Y-117030476D01*
X183717380Y-117078095D01*
X183741190Y-117149523D01*
X183741190Y-117197142D01*
X183241190Y-116816190D02*
X183241190Y-116482857D01*
X183741190Y-116697142D01*
X183241190Y-106211666D02*
X183598333Y-106211666D01*
X183669761Y-106235476D01*
X183717380Y-106283095D01*
X183741190Y-106354523D01*
X183741190Y-106402142D01*
X183241190Y-105759285D02*
X183241190Y-105854523D01*
X183265000Y-105902142D01*
X183288809Y-105925952D01*
X183360238Y-105973571D01*
X183455476Y-105997380D01*
X183645952Y-105997380D01*
X183693571Y-105973571D01*
X183717380Y-105949761D01*
X183741190Y-105902142D01*
X183741190Y-105806904D01*
X183717380Y-105759285D01*
X183693571Y-105735476D01*
X183645952Y-105711666D01*
X183526904Y-105711666D01*
X183479285Y-105735476D01*
X183455476Y-105759285D01*
X183431666Y-105806904D01*
X183431666Y-105902142D01*
X183455476Y-105949761D01*
X183479285Y-105973571D01*
X183526904Y-105997380D01*
X183241190Y-95416666D02*
X183598333Y-95416666D01*
X183669761Y-95440476D01*
X183717380Y-95488095D01*
X183741190Y-95559523D01*
X183741190Y-95607142D01*
X183241190Y-94940476D02*
X183241190Y-95178571D01*
X183479285Y-95202380D01*
X183455476Y-95178571D01*
X183431666Y-95130952D01*
X183431666Y-95011904D01*
X183455476Y-94964285D01*
X183479285Y-94940476D01*
X183526904Y-94916666D01*
X183645952Y-94916666D01*
X183693571Y-94940476D01*
X183717380Y-94964285D01*
X183741190Y-95011904D01*
X183741190Y-95130952D01*
X183717380Y-95178571D01*
X183693571Y-95202380D01*
X183241190Y-84621666D02*
X183598333Y-84621666D01*
X183669761Y-84645476D01*
X183717380Y-84693095D01*
X183741190Y-84764523D01*
X183741190Y-84812142D01*
X183407857Y-84169285D02*
X183741190Y-84169285D01*
X183217380Y-84288333D02*
X183574523Y-84407380D01*
X183574523Y-84097857D01*
X183241190Y-73826666D02*
X183598333Y-73826666D01*
X183669761Y-73850476D01*
X183717380Y-73898095D01*
X183741190Y-73969523D01*
X183741190Y-74017142D01*
X183241190Y-73636190D02*
X183241190Y-73326666D01*
X183431666Y-73493333D01*
X183431666Y-73421904D01*
X183455476Y-73374285D01*
X183479285Y-73350476D01*
X183526904Y-73326666D01*
X183645952Y-73326666D01*
X183693571Y-73350476D01*
X183717380Y-73374285D01*
X183741190Y-73421904D01*
X183741190Y-73564761D01*
X183717380Y-73612380D01*
X183693571Y-73636190D01*
X183241190Y-63031666D02*
X183598333Y-63031666D01*
X183669761Y-63055476D01*
X183717380Y-63103095D01*
X183741190Y-63174523D01*
X183741190Y-63222142D01*
X183288809Y-62817380D02*
X183265000Y-62793571D01*
X183241190Y-62745952D01*
X183241190Y-62626904D01*
X183265000Y-62579285D01*
X183288809Y-62555476D01*
X183336428Y-62531666D01*
X183384047Y-62531666D01*
X183455476Y-62555476D01*
X183741190Y-62841190D01*
X183741190Y-62531666D01*
X131278333Y-61531190D02*
X131278333Y-61888333D01*
X131254523Y-61959761D01*
X131206904Y-62007380D01*
X131135476Y-62031190D01*
X131087857Y-62031190D01*
X131778333Y-62031190D02*
X131492619Y-62031190D01*
X131635476Y-62031190D02*
X131635476Y-61531190D01*
X131587857Y-61602619D01*
X131540238Y-61650238D01*
X131492619Y-61674047D01*
X138695952Y-112621190D02*
X138695952Y-112121190D01*
X138815000Y-112121190D01*
X138886428Y-112145000D01*
X138934047Y-112192619D01*
X138957857Y-112240238D01*
X138981666Y-112335476D01*
X138981666Y-112406904D01*
X138957857Y-112502142D01*
X138934047Y-112549761D01*
X138886428Y-112597380D01*
X138815000Y-112621190D01*
X138695952Y-112621190D01*
X139148333Y-112121190D02*
X139481666Y-112121190D01*
X139267380Y-112621190D01*
X174255952Y-113256190D02*
X174255952Y-112756190D01*
X174375000Y-112756190D01*
X174446428Y-112780000D01*
X174494047Y-112827619D01*
X174517857Y-112875238D01*
X174541666Y-112970476D01*
X174541666Y-113041904D01*
X174517857Y-113137142D01*
X174494047Y-113184761D01*
X174446428Y-113232380D01*
X174375000Y-113256190D01*
X174255952Y-113256190D01*
X174970238Y-112756190D02*
X174875000Y-112756190D01*
X174827380Y-112780000D01*
X174803571Y-112803809D01*
X174755952Y-112875238D01*
X174732142Y-112970476D01*
X174732142Y-113160952D01*
X174755952Y-113208571D01*
X174779761Y-113232380D01*
X174827380Y-113256190D01*
X174922619Y-113256190D01*
X174970238Y-113232380D01*
X174994047Y-113208571D01*
X175017857Y-113160952D01*
X175017857Y-113041904D01*
X174994047Y-112994285D01*
X174970238Y-112970476D01*
X174922619Y-112946666D01*
X174827380Y-112946666D01*
X174779761Y-112970476D01*
X174755952Y-112994285D01*
X174732142Y-113041904D01*
X174255952Y-102461190D02*
X174255952Y-101961190D01*
X174375000Y-101961190D01*
X174446428Y-101985000D01*
X174494047Y-102032619D01*
X174517857Y-102080238D01*
X174541666Y-102175476D01*
X174541666Y-102246904D01*
X174517857Y-102342142D01*
X174494047Y-102389761D01*
X174446428Y-102437380D01*
X174375000Y-102461190D01*
X174255952Y-102461190D01*
X174994047Y-101961190D02*
X174755952Y-101961190D01*
X174732142Y-102199285D01*
X174755952Y-102175476D01*
X174803571Y-102151666D01*
X174922619Y-102151666D01*
X174970238Y-102175476D01*
X174994047Y-102199285D01*
X175017857Y-102246904D01*
X175017857Y-102365952D01*
X174994047Y-102413571D01*
X174970238Y-102437380D01*
X174922619Y-102461190D01*
X174803571Y-102461190D01*
X174755952Y-102437380D01*
X174732142Y-102413571D01*
X174255952Y-91666190D02*
X174255952Y-91166190D01*
X174375000Y-91166190D01*
X174446428Y-91190000D01*
X174494047Y-91237619D01*
X174517857Y-91285238D01*
X174541666Y-91380476D01*
X174541666Y-91451904D01*
X174517857Y-91547142D01*
X174494047Y-91594761D01*
X174446428Y-91642380D01*
X174375000Y-91666190D01*
X174255952Y-91666190D01*
X174970238Y-91332857D02*
X174970238Y-91666190D01*
X174851190Y-91142380D02*
X174732142Y-91499523D01*
X175041666Y-91499523D01*
X174255952Y-80871190D02*
X174255952Y-80371190D01*
X174375000Y-80371190D01*
X174446428Y-80395000D01*
X174494047Y-80442619D01*
X174517857Y-80490238D01*
X174541666Y-80585476D01*
X174541666Y-80656904D01*
X174517857Y-80752142D01*
X174494047Y-80799761D01*
X174446428Y-80847380D01*
X174375000Y-80871190D01*
X174255952Y-80871190D01*
X174708333Y-80371190D02*
X175017857Y-80371190D01*
X174851190Y-80561666D01*
X174922619Y-80561666D01*
X174970238Y-80585476D01*
X174994047Y-80609285D01*
X175017857Y-80656904D01*
X175017857Y-80775952D01*
X174994047Y-80823571D01*
X174970238Y-80847380D01*
X174922619Y-80871190D01*
X174779761Y-80871190D01*
X174732142Y-80847380D01*
X174708333Y-80823571D01*
X174255952Y-70076190D02*
X174255952Y-69576190D01*
X174375000Y-69576190D01*
X174446428Y-69600000D01*
X174494047Y-69647619D01*
X174517857Y-69695238D01*
X174541666Y-69790476D01*
X174541666Y-69861904D01*
X174517857Y-69957142D01*
X174494047Y-70004761D01*
X174446428Y-70052380D01*
X174375000Y-70076190D01*
X174255952Y-70076190D01*
X174732142Y-69623809D02*
X174755952Y-69600000D01*
X174803571Y-69576190D01*
X174922619Y-69576190D01*
X174970238Y-69600000D01*
X174994047Y-69623809D01*
X175017857Y-69671428D01*
X175017857Y-69719047D01*
X174994047Y-69790476D01*
X174708333Y-70076190D01*
X175017857Y-70076190D01*
X174255952Y-59281190D02*
X174255952Y-58781190D01*
X174375000Y-58781190D01*
X174446428Y-58805000D01*
X174494047Y-58852619D01*
X174517857Y-58900238D01*
X174541666Y-58995476D01*
X174541666Y-59066904D01*
X174517857Y-59162142D01*
X174494047Y-59209761D01*
X174446428Y-59257380D01*
X174375000Y-59281190D01*
X174255952Y-59281190D01*
X175017857Y-59281190D02*
X174732142Y-59281190D01*
X174875000Y-59281190D02*
X174875000Y-58781190D01*
X174827380Y-58852619D01*
X174779761Y-58900238D01*
X174732142Y-58924047D01*
X108898571Y-98603571D02*
X108874761Y-98627380D01*
X108803333Y-98651190D01*
X108755714Y-98651190D01*
X108684285Y-98627380D01*
X108636666Y-98579761D01*
X108612857Y-98532142D01*
X108589047Y-98436904D01*
X108589047Y-98365476D01*
X108612857Y-98270238D01*
X108636666Y-98222619D01*
X108684285Y-98175000D01*
X108755714Y-98151190D01*
X108803333Y-98151190D01*
X108874761Y-98175000D01*
X108898571Y-98198809D01*
X109089047Y-98198809D02*
X109112857Y-98175000D01*
X109160476Y-98151190D01*
X109279523Y-98151190D01*
X109327142Y-98175000D01*
X109350952Y-98198809D01*
X109374761Y-98246428D01*
X109374761Y-98294047D01*
X109350952Y-98365476D01*
X109065238Y-98651190D01*
X109374761Y-98651190D01*
X109827142Y-98151190D02*
X109589047Y-98151190D01*
X109565238Y-98389285D01*
X109589047Y-98365476D01*
X109636666Y-98341666D01*
X109755714Y-98341666D01*
X109803333Y-98365476D01*
X109827142Y-98389285D01*
X109850952Y-98436904D01*
X109850952Y-98555952D01*
X109827142Y-98603571D01*
X109803333Y-98627380D01*
X109755714Y-98651190D01*
X109636666Y-98651190D01*
X109589047Y-98627380D01*
X109565238Y-98603571D01*
X118423571Y-99238571D02*
X118399761Y-99262380D01*
X118328333Y-99286190D01*
X118280714Y-99286190D01*
X118209285Y-99262380D01*
X118161666Y-99214761D01*
X118137857Y-99167142D01*
X118114047Y-99071904D01*
X118114047Y-99000476D01*
X118137857Y-98905238D01*
X118161666Y-98857619D01*
X118209285Y-98810000D01*
X118280714Y-98786190D01*
X118328333Y-98786190D01*
X118399761Y-98810000D01*
X118423571Y-98833809D01*
X118614047Y-98833809D02*
X118637857Y-98810000D01*
X118685476Y-98786190D01*
X118804523Y-98786190D01*
X118852142Y-98810000D01*
X118875952Y-98833809D01*
X118899761Y-98881428D01*
X118899761Y-98929047D01*
X118875952Y-99000476D01*
X118590238Y-99286190D01*
X118899761Y-99286190D01*
X119328333Y-98952857D02*
X119328333Y-99286190D01*
X119209285Y-98762380D02*
X119090238Y-99119523D01*
X119399761Y-99119523D01*
X121598571Y-101143571D02*
X121574761Y-101167380D01*
X121503333Y-101191190D01*
X121455714Y-101191190D01*
X121384285Y-101167380D01*
X121336666Y-101119761D01*
X121312857Y-101072142D01*
X121289047Y-100976904D01*
X121289047Y-100905476D01*
X121312857Y-100810238D01*
X121336666Y-100762619D01*
X121384285Y-100715000D01*
X121455714Y-100691190D01*
X121503333Y-100691190D01*
X121574761Y-100715000D01*
X121598571Y-100738809D01*
X121789047Y-100738809D02*
X121812857Y-100715000D01*
X121860476Y-100691190D01*
X121979523Y-100691190D01*
X122027142Y-100715000D01*
X122050952Y-100738809D01*
X122074761Y-100786428D01*
X122074761Y-100834047D01*
X122050952Y-100905476D01*
X121765238Y-101191190D01*
X122074761Y-101191190D01*
X122241428Y-100691190D02*
X122550952Y-100691190D01*
X122384285Y-100881666D01*
X122455714Y-100881666D01*
X122503333Y-100905476D01*
X122527142Y-100929285D01*
X122550952Y-100976904D01*
X122550952Y-101095952D01*
X122527142Y-101143571D01*
X122503333Y-101167380D01*
X122455714Y-101191190D01*
X122312857Y-101191190D01*
X122265238Y-101167380D01*
X122241428Y-101143571D01*
X115121571Y-108509571D02*
X115097761Y-108533380D01*
X115026333Y-108557190D01*
X114978714Y-108557190D01*
X114907285Y-108533380D01*
X114859666Y-108485761D01*
X114835857Y-108438142D01*
X114812047Y-108342904D01*
X114812047Y-108271476D01*
X114835857Y-108176238D01*
X114859666Y-108128619D01*
X114907285Y-108081000D01*
X114978714Y-108057190D01*
X115026333Y-108057190D01*
X115097761Y-108081000D01*
X115121571Y-108104809D01*
X115312047Y-108104809D02*
X115335857Y-108081000D01*
X115383476Y-108057190D01*
X115502523Y-108057190D01*
X115550142Y-108081000D01*
X115573952Y-108104809D01*
X115597761Y-108152428D01*
X115597761Y-108200047D01*
X115573952Y-108271476D01*
X115288238Y-108557190D01*
X115597761Y-108557190D01*
X115788238Y-108104809D02*
X115812047Y-108081000D01*
X115859666Y-108057190D01*
X115978714Y-108057190D01*
X116026333Y-108081000D01*
X116050142Y-108104809D01*
X116073952Y-108152428D01*
X116073952Y-108200047D01*
X116050142Y-108271476D01*
X115764428Y-108557190D01*
X116073952Y-108557190D01*
X131718571Y-106858571D02*
X131694761Y-106882380D01*
X131623333Y-106906190D01*
X131575714Y-106906190D01*
X131504285Y-106882380D01*
X131456666Y-106834761D01*
X131432857Y-106787142D01*
X131409047Y-106691904D01*
X131409047Y-106620476D01*
X131432857Y-106525238D01*
X131456666Y-106477619D01*
X131504285Y-106430000D01*
X131575714Y-106406190D01*
X131623333Y-106406190D01*
X131694761Y-106430000D01*
X131718571Y-106453809D01*
X131909047Y-106453809D02*
X131932857Y-106430000D01*
X131980476Y-106406190D01*
X132099523Y-106406190D01*
X132147142Y-106430000D01*
X132170952Y-106453809D01*
X132194761Y-106501428D01*
X132194761Y-106549047D01*
X132170952Y-106620476D01*
X131885238Y-106906190D01*
X132194761Y-106906190D01*
X132670952Y-106906190D02*
X132385238Y-106906190D01*
X132528095Y-106906190D02*
X132528095Y-106406190D01*
X132480476Y-106477619D01*
X132432857Y-106525238D01*
X132385238Y-106549047D01*
X119693571Y-68123571D02*
X119669761Y-68147380D01*
X119598333Y-68171190D01*
X119550714Y-68171190D01*
X119479285Y-68147380D01*
X119431666Y-68099761D01*
X119407857Y-68052142D01*
X119384047Y-67956904D01*
X119384047Y-67885476D01*
X119407857Y-67790238D01*
X119431666Y-67742619D01*
X119479285Y-67695000D01*
X119550714Y-67671190D01*
X119598333Y-67671190D01*
X119669761Y-67695000D01*
X119693571Y-67718809D01*
X119884047Y-67718809D02*
X119907857Y-67695000D01*
X119955476Y-67671190D01*
X120074523Y-67671190D01*
X120122142Y-67695000D01*
X120145952Y-67718809D01*
X120169761Y-67766428D01*
X120169761Y-67814047D01*
X120145952Y-67885476D01*
X119860238Y-68171190D01*
X120169761Y-68171190D01*
X120479285Y-67671190D02*
X120526904Y-67671190D01*
X120574523Y-67695000D01*
X120598333Y-67718809D01*
X120622142Y-67766428D01*
X120645952Y-67861666D01*
X120645952Y-67980714D01*
X120622142Y-68075952D01*
X120598333Y-68123571D01*
X120574523Y-68147380D01*
X120526904Y-68171190D01*
X120479285Y-68171190D01*
X120431666Y-68147380D01*
X120407857Y-68123571D01*
X120384047Y-68075952D01*
X120360238Y-67980714D01*
X120360238Y-67861666D01*
X120384047Y-67766428D01*
X120407857Y-67718809D01*
X120431666Y-67695000D01*
X120479285Y-67671190D01*
X108263571Y-69393571D02*
X108239761Y-69417380D01*
X108168333Y-69441190D01*
X108120714Y-69441190D01*
X108049285Y-69417380D01*
X108001666Y-69369761D01*
X107977857Y-69322142D01*
X107954047Y-69226904D01*
X107954047Y-69155476D01*
X107977857Y-69060238D01*
X108001666Y-69012619D01*
X108049285Y-68965000D01*
X108120714Y-68941190D01*
X108168333Y-68941190D01*
X108239761Y-68965000D01*
X108263571Y-68988809D01*
X108739761Y-69441190D02*
X108454047Y-69441190D01*
X108596904Y-69441190D02*
X108596904Y-68941190D01*
X108549285Y-69012619D01*
X108501666Y-69060238D01*
X108454047Y-69084047D01*
X108977857Y-69441190D02*
X109073095Y-69441190D01*
X109120714Y-69417380D01*
X109144523Y-69393571D01*
X109192142Y-69322142D01*
X109215952Y-69226904D01*
X109215952Y-69036428D01*
X109192142Y-68988809D01*
X109168333Y-68965000D01*
X109120714Y-68941190D01*
X109025476Y-68941190D01*
X108977857Y-68965000D01*
X108954047Y-68988809D01*
X108930238Y-69036428D01*
X108930238Y-69155476D01*
X108954047Y-69203095D01*
X108977857Y-69226904D01*
X109025476Y-69250714D01*
X109120714Y-69250714D01*
X109168333Y-69226904D01*
X109192142Y-69203095D01*
X109215952Y-69155476D01*
X107366571Y-84649428D02*
X107390380Y-84673238D01*
X107414190Y-84744666D01*
X107414190Y-84792285D01*
X107390380Y-84863714D01*
X107342761Y-84911333D01*
X107295142Y-84935142D01*
X107199904Y-84958952D01*
X107128476Y-84958952D01*
X107033238Y-84935142D01*
X106985619Y-84911333D01*
X106938000Y-84863714D01*
X106914190Y-84792285D01*
X106914190Y-84744666D01*
X106938000Y-84673238D01*
X106961809Y-84649428D01*
X107414190Y-84173238D02*
X107414190Y-84458952D01*
X107414190Y-84316095D02*
X106914190Y-84316095D01*
X106985619Y-84363714D01*
X107033238Y-84411333D01*
X107057047Y-84458952D01*
X107128476Y-83887523D02*
X107104666Y-83935142D01*
X107080857Y-83958952D01*
X107033238Y-83982761D01*
X107009428Y-83982761D01*
X106961809Y-83958952D01*
X106938000Y-83935142D01*
X106914190Y-83887523D01*
X106914190Y-83792285D01*
X106938000Y-83744666D01*
X106961809Y-83720857D01*
X107009428Y-83697047D01*
X107033238Y-83697047D01*
X107080857Y-83720857D01*
X107104666Y-83744666D01*
X107128476Y-83792285D01*
X107128476Y-83887523D01*
X107152285Y-83935142D01*
X107176095Y-83958952D01*
X107223714Y-83982761D01*
X107318952Y-83982761D01*
X107366571Y-83958952D01*
X107390380Y-83935142D01*
X107414190Y-83887523D01*
X107414190Y-83792285D01*
X107390380Y-83744666D01*
X107366571Y-83720857D01*
X107318952Y-83697047D01*
X107223714Y-83697047D01*
X107176095Y-83720857D01*
X107152285Y-83744666D01*
X107128476Y-83792285D01*
X115883571Y-82093571D02*
X115859761Y-82117380D01*
X115788333Y-82141190D01*
X115740714Y-82141190D01*
X115669285Y-82117380D01*
X115621666Y-82069761D01*
X115597857Y-82022142D01*
X115574047Y-81926904D01*
X115574047Y-81855476D01*
X115597857Y-81760238D01*
X115621666Y-81712619D01*
X115669285Y-81665000D01*
X115740714Y-81641190D01*
X115788333Y-81641190D01*
X115859761Y-81665000D01*
X115883571Y-81688809D01*
X116359761Y-82141190D02*
X116074047Y-82141190D01*
X116216904Y-82141190D02*
X116216904Y-81641190D01*
X116169285Y-81712619D01*
X116121666Y-81760238D01*
X116074047Y-81784047D01*
X116526428Y-81641190D02*
X116859761Y-81641190D01*
X116645476Y-82141190D01*
X115883571Y-90983571D02*
X115859761Y-91007380D01*
X115788333Y-91031190D01*
X115740714Y-91031190D01*
X115669285Y-91007380D01*
X115621666Y-90959761D01*
X115597857Y-90912142D01*
X115574047Y-90816904D01*
X115574047Y-90745476D01*
X115597857Y-90650238D01*
X115621666Y-90602619D01*
X115669285Y-90555000D01*
X115740714Y-90531190D01*
X115788333Y-90531190D01*
X115859761Y-90555000D01*
X115883571Y-90578809D01*
X116359761Y-91031190D02*
X116074047Y-91031190D01*
X116216904Y-91031190D02*
X116216904Y-90531190D01*
X116169285Y-90602619D01*
X116121666Y-90650238D01*
X116074047Y-90674047D01*
X116788333Y-90531190D02*
X116693095Y-90531190D01*
X116645476Y-90555000D01*
X116621666Y-90578809D01*
X116574047Y-90650238D01*
X116550238Y-90745476D01*
X116550238Y-90935952D01*
X116574047Y-90983571D01*
X116597857Y-91007380D01*
X116645476Y-91031190D01*
X116740714Y-91031190D01*
X116788333Y-91007380D01*
X116812142Y-90983571D01*
X116835952Y-90935952D01*
X116835952Y-90816904D01*
X116812142Y-90769285D01*
X116788333Y-90745476D01*
X116740714Y-90721666D01*
X116645476Y-90721666D01*
X116597857Y-90745476D01*
X116574047Y-90769285D01*
X116550238Y-90816904D01*
X109623571Y-79696428D02*
X109647380Y-79720238D01*
X109671190Y-79791666D01*
X109671190Y-79839285D01*
X109647380Y-79910714D01*
X109599761Y-79958333D01*
X109552142Y-79982142D01*
X109456904Y-80005952D01*
X109385476Y-80005952D01*
X109290238Y-79982142D01*
X109242619Y-79958333D01*
X109195000Y-79910714D01*
X109171190Y-79839285D01*
X109171190Y-79791666D01*
X109195000Y-79720238D01*
X109218809Y-79696428D01*
X109671190Y-79220238D02*
X109671190Y-79505952D01*
X109671190Y-79363095D02*
X109171190Y-79363095D01*
X109242619Y-79410714D01*
X109290238Y-79458333D01*
X109314047Y-79505952D01*
X109171190Y-78767857D02*
X109171190Y-79005952D01*
X109409285Y-79029761D01*
X109385476Y-79005952D01*
X109361666Y-78958333D01*
X109361666Y-78839285D01*
X109385476Y-78791666D01*
X109409285Y-78767857D01*
X109456904Y-78744047D01*
X109575952Y-78744047D01*
X109623571Y-78767857D01*
X109647380Y-78791666D01*
X109671190Y-78839285D01*
X109671190Y-78958333D01*
X109647380Y-79005952D01*
X109623571Y-79029761D01*
X110803571Y-90983571D02*
X110779761Y-91007380D01*
X110708333Y-91031190D01*
X110660714Y-91031190D01*
X110589285Y-91007380D01*
X110541666Y-90959761D01*
X110517857Y-90912142D01*
X110494047Y-90816904D01*
X110494047Y-90745476D01*
X110517857Y-90650238D01*
X110541666Y-90602619D01*
X110589285Y-90555000D01*
X110660714Y-90531190D01*
X110708333Y-90531190D01*
X110779761Y-90555000D01*
X110803571Y-90578809D01*
X111279761Y-91031190D02*
X110994047Y-91031190D01*
X111136904Y-91031190D02*
X111136904Y-90531190D01*
X111089285Y-90602619D01*
X111041666Y-90650238D01*
X110994047Y-90674047D01*
X111708333Y-90697857D02*
X111708333Y-91031190D01*
X111589285Y-90507380D02*
X111470238Y-90864523D01*
X111779761Y-90864523D01*
X160333571Y-64313571D02*
X160309761Y-64337380D01*
X160238333Y-64361190D01*
X160190714Y-64361190D01*
X160119285Y-64337380D01*
X160071666Y-64289761D01*
X160047857Y-64242142D01*
X160024047Y-64146904D01*
X160024047Y-64075476D01*
X160047857Y-63980238D01*
X160071666Y-63932619D01*
X160119285Y-63885000D01*
X160190714Y-63861190D01*
X160238333Y-63861190D01*
X160309761Y-63885000D01*
X160333571Y-63908809D01*
X160809761Y-64361190D02*
X160524047Y-64361190D01*
X160666904Y-64361190D02*
X160666904Y-63861190D01*
X160619285Y-63932619D01*
X160571666Y-63980238D01*
X160524047Y-64004047D01*
X160976428Y-63861190D02*
X161285952Y-63861190D01*
X161119285Y-64051666D01*
X161190714Y-64051666D01*
X161238333Y-64075476D01*
X161262142Y-64099285D01*
X161285952Y-64146904D01*
X161285952Y-64265952D01*
X161262142Y-64313571D01*
X161238333Y-64337380D01*
X161190714Y-64361190D01*
X161047857Y-64361190D01*
X161000238Y-64337380D01*
X160976428Y-64313571D01*
X134298571Y-96063571D02*
X134274761Y-96087380D01*
X134203333Y-96111190D01*
X134155714Y-96111190D01*
X134084285Y-96087380D01*
X134036666Y-96039761D01*
X134012857Y-95992142D01*
X133989047Y-95896904D01*
X133989047Y-95825476D01*
X134012857Y-95730238D01*
X134036666Y-95682619D01*
X134084285Y-95635000D01*
X134155714Y-95611190D01*
X134203333Y-95611190D01*
X134274761Y-95635000D01*
X134298571Y-95658809D01*
X134774761Y-96111190D02*
X134489047Y-96111190D01*
X134631904Y-96111190D02*
X134631904Y-95611190D01*
X134584285Y-95682619D01*
X134536666Y-95730238D01*
X134489047Y-95754047D01*
X134965238Y-95658809D02*
X134989047Y-95635000D01*
X135036666Y-95611190D01*
X135155714Y-95611190D01*
X135203333Y-95635000D01*
X135227142Y-95658809D01*
X135250952Y-95706428D01*
X135250952Y-95754047D01*
X135227142Y-95825476D01*
X134941428Y-96111190D01*
X135250952Y-96111190D01*
X131758571Y-96063571D02*
X131734761Y-96087380D01*
X131663333Y-96111190D01*
X131615714Y-96111190D01*
X131544285Y-96087380D01*
X131496666Y-96039761D01*
X131472857Y-95992142D01*
X131449047Y-95896904D01*
X131449047Y-95825476D01*
X131472857Y-95730238D01*
X131496666Y-95682619D01*
X131544285Y-95635000D01*
X131615714Y-95611190D01*
X131663333Y-95611190D01*
X131734761Y-95635000D01*
X131758571Y-95658809D01*
X132234761Y-96111190D02*
X131949047Y-96111190D01*
X132091904Y-96111190D02*
X132091904Y-95611190D01*
X132044285Y-95682619D01*
X131996666Y-95730238D01*
X131949047Y-95754047D01*
X132710952Y-96111190D02*
X132425238Y-96111190D01*
X132568095Y-96111190D02*
X132568095Y-95611190D01*
X132520476Y-95682619D01*
X132472857Y-95730238D01*
X132425238Y-95754047D01*
X136330571Y-100762571D02*
X136306761Y-100786380D01*
X136235333Y-100810190D01*
X136187714Y-100810190D01*
X136116285Y-100786380D01*
X136068666Y-100738761D01*
X136044857Y-100691142D01*
X136021047Y-100595904D01*
X136021047Y-100524476D01*
X136044857Y-100429238D01*
X136068666Y-100381619D01*
X136116285Y-100334000D01*
X136187714Y-100310190D01*
X136235333Y-100310190D01*
X136306761Y-100334000D01*
X136330571Y-100357809D01*
X136806761Y-100810190D02*
X136521047Y-100810190D01*
X136663904Y-100810190D02*
X136663904Y-100310190D01*
X136616285Y-100381619D01*
X136568666Y-100429238D01*
X136521047Y-100453047D01*
X137116285Y-100310190D02*
X137163904Y-100310190D01*
X137211523Y-100334000D01*
X137235333Y-100357809D01*
X137259142Y-100405428D01*
X137282952Y-100500666D01*
X137282952Y-100619714D01*
X137259142Y-100714952D01*
X137235333Y-100762571D01*
X137211523Y-100786380D01*
X137163904Y-100810190D01*
X137116285Y-100810190D01*
X137068666Y-100786380D01*
X137044857Y-100762571D01*
X137021047Y-100714952D01*
X136997238Y-100619714D01*
X136997238Y-100500666D01*
X137021047Y-100405428D01*
X137044857Y-100357809D01*
X137068666Y-100334000D01*
X137116285Y-100310190D01*
X149776666Y-86538571D02*
X149752857Y-86562380D01*
X149681428Y-86586190D01*
X149633809Y-86586190D01*
X149562380Y-86562380D01*
X149514761Y-86514761D01*
X149490952Y-86467142D01*
X149467142Y-86371904D01*
X149467142Y-86300476D01*
X149490952Y-86205238D01*
X149514761Y-86157619D01*
X149562380Y-86110000D01*
X149633809Y-86086190D01*
X149681428Y-86086190D01*
X149752857Y-86110000D01*
X149776666Y-86133809D01*
X150014761Y-86586190D02*
X150110000Y-86586190D01*
X150157619Y-86562380D01*
X150181428Y-86538571D01*
X150229047Y-86467142D01*
X150252857Y-86371904D01*
X150252857Y-86181428D01*
X150229047Y-86133809D01*
X150205238Y-86110000D01*
X150157619Y-86086190D01*
X150062380Y-86086190D01*
X150014761Y-86110000D01*
X149990952Y-86133809D01*
X149967142Y-86181428D01*
X149967142Y-86300476D01*
X149990952Y-86348095D01*
X150014761Y-86371904D01*
X150062380Y-86395714D01*
X150157619Y-86395714D01*
X150205238Y-86371904D01*
X150229047Y-86348095D01*
X150252857Y-86300476D01*
X147871666Y-98222571D02*
X147847857Y-98246380D01*
X147776428Y-98270190D01*
X147728809Y-98270190D01*
X147657380Y-98246380D01*
X147609761Y-98198761D01*
X147585952Y-98151142D01*
X147562142Y-98055904D01*
X147562142Y-97984476D01*
X147585952Y-97889238D01*
X147609761Y-97841619D01*
X147657380Y-97794000D01*
X147728809Y-97770190D01*
X147776428Y-97770190D01*
X147847857Y-97794000D01*
X147871666Y-97817809D01*
X148157380Y-97984476D02*
X148109761Y-97960666D01*
X148085952Y-97936857D01*
X148062142Y-97889238D01*
X148062142Y-97865428D01*
X148085952Y-97817809D01*
X148109761Y-97794000D01*
X148157380Y-97770190D01*
X148252619Y-97770190D01*
X148300238Y-97794000D01*
X148324047Y-97817809D01*
X148347857Y-97865428D01*
X148347857Y-97889238D01*
X148324047Y-97936857D01*
X148300238Y-97960666D01*
X148252619Y-97984476D01*
X148157380Y-97984476D01*
X148109761Y-98008285D01*
X148085952Y-98032095D01*
X148062142Y-98079714D01*
X148062142Y-98174952D01*
X148085952Y-98222571D01*
X148109761Y-98246380D01*
X148157380Y-98270190D01*
X148252619Y-98270190D01*
X148300238Y-98246380D01*
X148324047Y-98222571D01*
X148347857Y-98174952D01*
X148347857Y-98079714D01*
X148324047Y-98032095D01*
X148300238Y-98008285D01*
X148252619Y-97984476D01*
X134536666Y-88570571D02*
X134512857Y-88594380D01*
X134441428Y-88618190D01*
X134393809Y-88618190D01*
X134322380Y-88594380D01*
X134274761Y-88546761D01*
X134250952Y-88499142D01*
X134227142Y-88403904D01*
X134227142Y-88332476D01*
X134250952Y-88237238D01*
X134274761Y-88189619D01*
X134322380Y-88142000D01*
X134393809Y-88118190D01*
X134441428Y-88118190D01*
X134512857Y-88142000D01*
X134536666Y-88165809D01*
X134703333Y-88118190D02*
X135036666Y-88118190D01*
X134822380Y-88618190D01*
X135552666Y-82982571D02*
X135528857Y-83006380D01*
X135457428Y-83030190D01*
X135409809Y-83030190D01*
X135338380Y-83006380D01*
X135290761Y-82958761D01*
X135266952Y-82911142D01*
X135243142Y-82815904D01*
X135243142Y-82744476D01*
X135266952Y-82649238D01*
X135290761Y-82601619D01*
X135338380Y-82554000D01*
X135409809Y-82530190D01*
X135457428Y-82530190D01*
X135528857Y-82554000D01*
X135552666Y-82577809D01*
X135981238Y-82530190D02*
X135886000Y-82530190D01*
X135838380Y-82554000D01*
X135814571Y-82577809D01*
X135766952Y-82649238D01*
X135743142Y-82744476D01*
X135743142Y-82934952D01*
X135766952Y-82982571D01*
X135790761Y-83006380D01*
X135838380Y-83030190D01*
X135933619Y-83030190D01*
X135981238Y-83006380D01*
X136005047Y-82982571D01*
X136028857Y-82934952D01*
X136028857Y-82815904D01*
X136005047Y-82768285D01*
X135981238Y-82744476D01*
X135933619Y-82720666D01*
X135838380Y-82720666D01*
X135790761Y-82744476D01*
X135766952Y-82768285D01*
X135743142Y-82815904D01*
X136568666Y-103302571D02*
X136544857Y-103326380D01*
X136473428Y-103350190D01*
X136425809Y-103350190D01*
X136354380Y-103326380D01*
X136306761Y-103278761D01*
X136282952Y-103231142D01*
X136259142Y-103135904D01*
X136259142Y-103064476D01*
X136282952Y-102969238D01*
X136306761Y-102921619D01*
X136354380Y-102874000D01*
X136425809Y-102850190D01*
X136473428Y-102850190D01*
X136544857Y-102874000D01*
X136568666Y-102897809D01*
X137021047Y-102850190D02*
X136782952Y-102850190D01*
X136759142Y-103088285D01*
X136782952Y-103064476D01*
X136830571Y-103040666D01*
X136949619Y-103040666D01*
X136997238Y-103064476D01*
X137021047Y-103088285D01*
X137044857Y-103135904D01*
X137044857Y-103254952D01*
X137021047Y-103302571D01*
X136997238Y-103326380D01*
X136949619Y-103350190D01*
X136830571Y-103350190D01*
X136782952Y-103326380D01*
X136759142Y-103302571D01*
X154856666Y-86538571D02*
X154832857Y-86562380D01*
X154761428Y-86586190D01*
X154713809Y-86586190D01*
X154642380Y-86562380D01*
X154594761Y-86514761D01*
X154570952Y-86467142D01*
X154547142Y-86371904D01*
X154547142Y-86300476D01*
X154570952Y-86205238D01*
X154594761Y-86157619D01*
X154642380Y-86110000D01*
X154713809Y-86086190D01*
X154761428Y-86086190D01*
X154832857Y-86110000D01*
X154856666Y-86133809D01*
X155285238Y-86252857D02*
X155285238Y-86586190D01*
X155166190Y-86062380D02*
X155047142Y-86419523D01*
X155356666Y-86419523D01*
X145966666Y-105588571D02*
X145942857Y-105612380D01*
X145871428Y-105636190D01*
X145823809Y-105636190D01*
X145752380Y-105612380D01*
X145704761Y-105564761D01*
X145680952Y-105517142D01*
X145657142Y-105421904D01*
X145657142Y-105350476D01*
X145680952Y-105255238D01*
X145704761Y-105207619D01*
X145752380Y-105160000D01*
X145823809Y-105136190D01*
X145871428Y-105136190D01*
X145942857Y-105160000D01*
X145966666Y-105183809D01*
X146133333Y-105136190D02*
X146442857Y-105136190D01*
X146276190Y-105326666D01*
X146347619Y-105326666D01*
X146395238Y-105350476D01*
X146419047Y-105374285D01*
X146442857Y-105421904D01*
X146442857Y-105540952D01*
X146419047Y-105588571D01*
X146395238Y-105612380D01*
X146347619Y-105636190D01*
X146204761Y-105636190D01*
X146157142Y-105612380D01*
X146133333Y-105588571D01*
X121844571Y-92793333D02*
X121868380Y-92817142D01*
X121892190Y-92888571D01*
X121892190Y-92936190D01*
X121868380Y-93007619D01*
X121820761Y-93055238D01*
X121773142Y-93079047D01*
X121677904Y-93102857D01*
X121606476Y-93102857D01*
X121511238Y-93079047D01*
X121463619Y-93055238D01*
X121416000Y-93007619D01*
X121392190Y-92936190D01*
X121392190Y-92888571D01*
X121416000Y-92817142D01*
X121439809Y-92793333D01*
X121439809Y-92602857D02*
X121416000Y-92579047D01*
X121392190Y-92531428D01*
X121392190Y-92412380D01*
X121416000Y-92364761D01*
X121439809Y-92340952D01*
X121487428Y-92317142D01*
X121535047Y-92317142D01*
X121606476Y-92340952D01*
X121892190Y-92626666D01*
X121892190Y-92317142D01*
X121844571Y-86443333D02*
X121868380Y-86467142D01*
X121892190Y-86538571D01*
X121892190Y-86586190D01*
X121868380Y-86657619D01*
X121820761Y-86705238D01*
X121773142Y-86729047D01*
X121677904Y-86752857D01*
X121606476Y-86752857D01*
X121511238Y-86729047D01*
X121463619Y-86705238D01*
X121416000Y-86657619D01*
X121392190Y-86586190D01*
X121392190Y-86538571D01*
X121416000Y-86467142D01*
X121439809Y-86443333D01*
X121892190Y-85967142D02*
X121892190Y-86252857D01*
X121892190Y-86110000D02*
X121392190Y-86110000D01*
X121463619Y-86157619D01*
X121511238Y-86205238D01*
X121535047Y-86252857D01*
%LPC*%
D13*
X147865000Y-71970000D03*
X153565000Y-71970000D03*
D14*
X142015000Y-57820000D03*
X155165000Y-57820000D03*
D15*
X154375000Y-60870000D03*
X153275000Y-60870000D03*
X152175000Y-60670000D03*
X151075000Y-60870000D03*
X149975000Y-60670000D03*
X148875000Y-60870000D03*
X147775000Y-61270000D03*
X146675000Y-60870000D03*
D16*
X127000000Y-93785000D03*
X127000000Y-85285000D03*
D17*
X132990000Y-119825000D03*
X151490000Y-119825000D03*
X144990000Y-119825000D03*
X132990000Y-115125000D03*
D18*
X109220000Y-103870000D03*
X108270000Y-101870000D03*
X110170000Y-101870000D03*
X118745000Y-104505000D03*
X117795000Y-102505000D03*
X119695000Y-102505000D03*
D19*
X111760000Y-117416000D03*
D20*
X109480000Y-111116000D03*
X114040000Y-111116000D03*
G36*
G01*
X111275000Y-84860000D02*
X110975000Y-84860000D01*
G75*
G02*
X110825000Y-84710000I0J150000D01*
G01*
X110825000Y-83060000D01*
G75*
G02*
X110975000Y-82910000I150000J0D01*
G01*
X111275000Y-82910000D01*
G75*
G02*
X111425000Y-83060000I0J-150000D01*
G01*
X111425000Y-84710000D01*
G75*
G02*
X111275000Y-84860000I-150000J0D01*
G01*
G37*
G36*
G01*
X112545000Y-84860000D02*
X112245000Y-84860000D01*
G75*
G02*
X112095000Y-84710000I0J150000D01*
G01*
X112095000Y-83060000D01*
G75*
G02*
X112245000Y-82910000I150000J0D01*
G01*
X112545000Y-82910000D01*
G75*
G02*
X112695000Y-83060000I0J-150000D01*
G01*
X112695000Y-84710000D01*
G75*
G02*
X112545000Y-84860000I-150000J0D01*
G01*
G37*
G36*
G01*
X113815000Y-84860000D02*
X113515000Y-84860000D01*
G75*
G02*
X113365000Y-84710000I0J150000D01*
G01*
X113365000Y-83060000D01*
G75*
G02*
X113515000Y-82910000I150000J0D01*
G01*
X113815000Y-82910000D01*
G75*
G02*
X113965000Y-83060000I0J-150000D01*
G01*
X113965000Y-84710000D01*
G75*
G02*
X113815000Y-84860000I-150000J0D01*
G01*
G37*
G36*
G01*
X115085000Y-84860000D02*
X114785000Y-84860000D01*
G75*
G02*
X114635000Y-84710000I0J150000D01*
G01*
X114635000Y-83060000D01*
G75*
G02*
X114785000Y-82910000I150000J0D01*
G01*
X115085000Y-82910000D01*
G75*
G02*
X115235000Y-83060000I0J-150000D01*
G01*
X115235000Y-84710000D01*
G75*
G02*
X115085000Y-84860000I-150000J0D01*
G01*
G37*
G36*
G01*
X115085000Y-89810000D02*
X114785000Y-89810000D01*
G75*
G02*
X114635000Y-89660000I0J150000D01*
G01*
X114635000Y-88010000D01*
G75*
G02*
X114785000Y-87860000I150000J0D01*
G01*
X115085000Y-87860000D01*
G75*
G02*
X115235000Y-88010000I0J-150000D01*
G01*
X115235000Y-89660000D01*
G75*
G02*
X115085000Y-89810000I-150000J0D01*
G01*
G37*
G36*
G01*
X113815000Y-89810000D02*
X113515000Y-89810000D01*
G75*
G02*
X113365000Y-89660000I0J150000D01*
G01*
X113365000Y-88010000D01*
G75*
G02*
X113515000Y-87860000I150000J0D01*
G01*
X113815000Y-87860000D01*
G75*
G02*
X113965000Y-88010000I0J-150000D01*
G01*
X113965000Y-89660000D01*
G75*
G02*
X113815000Y-89810000I-150000J0D01*
G01*
G37*
G36*
G01*
X112545000Y-89810000D02*
X112245000Y-89810000D01*
G75*
G02*
X112095000Y-89660000I0J150000D01*
G01*
X112095000Y-88010000D01*
G75*
G02*
X112245000Y-87860000I150000J0D01*
G01*
X112545000Y-87860000D01*
G75*
G02*
X112695000Y-88010000I0J-150000D01*
G01*
X112695000Y-89660000D01*
G75*
G02*
X112545000Y-89810000I-150000J0D01*
G01*
G37*
G36*
G01*
X111275000Y-89810000D02*
X110975000Y-89810000D01*
G75*
G02*
X110825000Y-89660000I0J150000D01*
G01*
X110825000Y-88010000D01*
G75*
G02*
X110975000Y-87860000I150000J0D01*
G01*
X111275000Y-87860000D01*
G75*
G02*
X111425000Y-88010000I0J-150000D01*
G01*
X111425000Y-89660000D01*
G75*
G02*
X111275000Y-89810000I-150000J0D01*
G01*
G37*
G36*
G01*
X139050000Y-86635000D02*
X139050000Y-85235000D01*
G75*
G02*
X139125000Y-85160000I75000J0D01*
G01*
X139275000Y-85160000D01*
G75*
G02*
X139350000Y-85235000I0J-75000D01*
G01*
X139350000Y-86635000D01*
G75*
G02*
X139275000Y-86710000I-75000J0D01*
G01*
X139125000Y-86710000D01*
G75*
G02*
X139050000Y-86635000I0J75000D01*
G01*
G37*
G36*
G01*
X139550000Y-86635000D02*
X139550000Y-85235000D01*
G75*
G02*
X139625000Y-85160000I75000J0D01*
G01*
X139775000Y-85160000D01*
G75*
G02*
X139850000Y-85235000I0J-75000D01*
G01*
X139850000Y-86635000D01*
G75*
G02*
X139775000Y-86710000I-75000J0D01*
G01*
X139625000Y-86710000D01*
G75*
G02*
X139550000Y-86635000I0J75000D01*
G01*
G37*
G36*
G01*
X140050000Y-86635000D02*
X140050000Y-85235000D01*
G75*
G02*
X140125000Y-85160000I75000J0D01*
G01*
X140275000Y-85160000D01*
G75*
G02*
X140350000Y-85235000I0J-75000D01*
G01*
X140350000Y-86635000D01*
G75*
G02*
X140275000Y-86710000I-75000J0D01*
G01*
X140125000Y-86710000D01*
G75*
G02*
X140050000Y-86635000I0J75000D01*
G01*
G37*
G36*
G01*
X140550000Y-86635000D02*
X140550000Y-85235000D01*
G75*
G02*
X140625000Y-85160000I75000J0D01*
G01*
X140775000Y-85160000D01*
G75*
G02*
X140850000Y-85235000I0J-75000D01*
G01*
X140850000Y-86635000D01*
G75*
G02*
X140775000Y-86710000I-75000J0D01*
G01*
X140625000Y-86710000D01*
G75*
G02*
X140550000Y-86635000I0J75000D01*
G01*
G37*
G36*
G01*
X141050000Y-86635000D02*
X141050000Y-85235000D01*
G75*
G02*
X141125000Y-85160000I75000J0D01*
G01*
X141275000Y-85160000D01*
G75*
G02*
X141350000Y-85235000I0J-75000D01*
G01*
X141350000Y-86635000D01*
G75*
G02*
X141275000Y-86710000I-75000J0D01*
G01*
X141125000Y-86710000D01*
G75*
G02*
X141050000Y-86635000I0J75000D01*
G01*
G37*
G36*
G01*
X141550000Y-86635000D02*
X141550000Y-85235000D01*
G75*
G02*
X141625000Y-85160000I75000J0D01*
G01*
X141775000Y-85160000D01*
G75*
G02*
X141850000Y-85235000I0J-75000D01*
G01*
X141850000Y-86635000D01*
G75*
G02*
X141775000Y-86710000I-75000J0D01*
G01*
X141625000Y-86710000D01*
G75*
G02*
X141550000Y-86635000I0J75000D01*
G01*
G37*
G36*
G01*
X142050000Y-86635000D02*
X142050000Y-85235000D01*
G75*
G02*
X142125000Y-85160000I75000J0D01*
G01*
X142275000Y-85160000D01*
G75*
G02*
X142350000Y-85235000I0J-75000D01*
G01*
X142350000Y-86635000D01*
G75*
G02*
X142275000Y-86710000I-75000J0D01*
G01*
X142125000Y-86710000D01*
G75*
G02*
X142050000Y-86635000I0J75000D01*
G01*
G37*
G36*
G01*
X142550000Y-86635000D02*
X142550000Y-85235000D01*
G75*
G02*
X142625000Y-85160000I75000J0D01*
G01*
X142775000Y-85160000D01*
G75*
G02*
X142850000Y-85235000I0J-75000D01*
G01*
X142850000Y-86635000D01*
G75*
G02*
X142775000Y-86710000I-75000J0D01*
G01*
X142625000Y-86710000D01*
G75*
G02*
X142550000Y-86635000I0J75000D01*
G01*
G37*
G36*
G01*
X143050000Y-86635000D02*
X143050000Y-85235000D01*
G75*
G02*
X143125000Y-85160000I75000J0D01*
G01*
X143275000Y-85160000D01*
G75*
G02*
X143350000Y-85235000I0J-75000D01*
G01*
X143350000Y-86635000D01*
G75*
G02*
X143275000Y-86710000I-75000J0D01*
G01*
X143125000Y-86710000D01*
G75*
G02*
X143050000Y-86635000I0J75000D01*
G01*
G37*
G36*
G01*
X143550000Y-86635000D02*
X143550000Y-85235000D01*
G75*
G02*
X143625000Y-85160000I75000J0D01*
G01*
X143775000Y-85160000D01*
G75*
G02*
X143850000Y-85235000I0J-75000D01*
G01*
X143850000Y-86635000D01*
G75*
G02*
X143775000Y-86710000I-75000J0D01*
G01*
X143625000Y-86710000D01*
G75*
G02*
X143550000Y-86635000I0J75000D01*
G01*
G37*
G36*
G01*
X144050000Y-86635000D02*
X144050000Y-85235000D01*
G75*
G02*
X144125000Y-85160000I75000J0D01*
G01*
X144275000Y-85160000D01*
G75*
G02*
X144350000Y-85235000I0J-75000D01*
G01*
X144350000Y-86635000D01*
G75*
G02*
X144275000Y-86710000I-75000J0D01*
G01*
X144125000Y-86710000D01*
G75*
G02*
X144050000Y-86635000I0J75000D01*
G01*
G37*
G36*
G01*
X144550000Y-86635000D02*
X144550000Y-85235000D01*
G75*
G02*
X144625000Y-85160000I75000J0D01*
G01*
X144775000Y-85160000D01*
G75*
G02*
X144850000Y-85235000I0J-75000D01*
G01*
X144850000Y-86635000D01*
G75*
G02*
X144775000Y-86710000I-75000J0D01*
G01*
X144625000Y-86710000D01*
G75*
G02*
X144550000Y-86635000I0J75000D01*
G01*
G37*
G36*
G01*
X145050000Y-86635000D02*
X145050000Y-85235000D01*
G75*
G02*
X145125000Y-85160000I75000J0D01*
G01*
X145275000Y-85160000D01*
G75*
G02*
X145350000Y-85235000I0J-75000D01*
G01*
X145350000Y-86635000D01*
G75*
G02*
X145275000Y-86710000I-75000J0D01*
G01*
X145125000Y-86710000D01*
G75*
G02*
X145050000Y-86635000I0J75000D01*
G01*
G37*
G36*
G01*
X145550000Y-86635000D02*
X145550000Y-85235000D01*
G75*
G02*
X145625000Y-85160000I75000J0D01*
G01*
X145775000Y-85160000D01*
G75*
G02*
X145850000Y-85235000I0J-75000D01*
G01*
X145850000Y-86635000D01*
G75*
G02*
X145775000Y-86710000I-75000J0D01*
G01*
X145625000Y-86710000D01*
G75*
G02*
X145550000Y-86635000I0J75000D01*
G01*
G37*
G36*
G01*
X146050000Y-86635000D02*
X146050000Y-85235000D01*
G75*
G02*
X146125000Y-85160000I75000J0D01*
G01*
X146275000Y-85160000D01*
G75*
G02*
X146350000Y-85235000I0J-75000D01*
G01*
X146350000Y-86635000D01*
G75*
G02*
X146275000Y-86710000I-75000J0D01*
G01*
X146125000Y-86710000D01*
G75*
G02*
X146050000Y-86635000I0J75000D01*
G01*
G37*
G36*
G01*
X146550000Y-86635000D02*
X146550000Y-85235000D01*
G75*
G02*
X146625000Y-85160000I75000J0D01*
G01*
X146775000Y-85160000D01*
G75*
G02*
X146850000Y-85235000I0J-75000D01*
G01*
X146850000Y-86635000D01*
G75*
G02*
X146775000Y-86710000I-75000J0D01*
G01*
X146625000Y-86710000D01*
G75*
G02*
X146550000Y-86635000I0J75000D01*
G01*
G37*
G36*
G01*
X147850000Y-87935000D02*
X147850000Y-87785000D01*
G75*
G02*
X147925000Y-87710000I75000J0D01*
G01*
X149325000Y-87710000D01*
G75*
G02*
X149400000Y-87785000I0J-75000D01*
G01*
X149400000Y-87935000D01*
G75*
G02*
X149325000Y-88010000I-75000J0D01*
G01*
X147925000Y-88010000D01*
G75*
G02*
X147850000Y-87935000I0J75000D01*
G01*
G37*
G36*
G01*
X147850000Y-88435000D02*
X147850000Y-88285000D01*
G75*
G02*
X147925000Y-88210000I75000J0D01*
G01*
X149325000Y-88210000D01*
G75*
G02*
X149400000Y-88285000I0J-75000D01*
G01*
X149400000Y-88435000D01*
G75*
G02*
X149325000Y-88510000I-75000J0D01*
G01*
X147925000Y-88510000D01*
G75*
G02*
X147850000Y-88435000I0J75000D01*
G01*
G37*
G36*
G01*
X147850000Y-88935000D02*
X147850000Y-88785000D01*
G75*
G02*
X147925000Y-88710000I75000J0D01*
G01*
X149325000Y-88710000D01*
G75*
G02*
X149400000Y-88785000I0J-75000D01*
G01*
X149400000Y-88935000D01*
G75*
G02*
X149325000Y-89010000I-75000J0D01*
G01*
X147925000Y-89010000D01*
G75*
G02*
X147850000Y-88935000I0J75000D01*
G01*
G37*
G36*
G01*
X147850000Y-89435000D02*
X147850000Y-89285000D01*
G75*
G02*
X147925000Y-89210000I75000J0D01*
G01*
X149325000Y-89210000D01*
G75*
G02*
X149400000Y-89285000I0J-75000D01*
G01*
X149400000Y-89435000D01*
G75*
G02*
X149325000Y-89510000I-75000J0D01*
G01*
X147925000Y-89510000D01*
G75*
G02*
X147850000Y-89435000I0J75000D01*
G01*
G37*
G36*
G01*
X147850000Y-89935000D02*
X147850000Y-89785000D01*
G75*
G02*
X147925000Y-89710000I75000J0D01*
G01*
X149325000Y-89710000D01*
G75*
G02*
X149400000Y-89785000I0J-75000D01*
G01*
X149400000Y-89935000D01*
G75*
G02*
X149325000Y-90010000I-75000J0D01*
G01*
X147925000Y-90010000D01*
G75*
G02*
X147850000Y-89935000I0J75000D01*
G01*
G37*
G36*
G01*
X147850000Y-90435000D02*
X147850000Y-90285000D01*
G75*
G02*
X147925000Y-90210000I75000J0D01*
G01*
X149325000Y-90210000D01*
G75*
G02*
X149400000Y-90285000I0J-75000D01*
G01*
X149400000Y-90435000D01*
G75*
G02*
X149325000Y-90510000I-75000J0D01*
G01*
X147925000Y-90510000D01*
G75*
G02*
X147850000Y-90435000I0J75000D01*
G01*
G37*
G36*
G01*
X147850000Y-90935000D02*
X147850000Y-90785000D01*
G75*
G02*
X147925000Y-90710000I75000J0D01*
G01*
X149325000Y-90710000D01*
G75*
G02*
X149400000Y-90785000I0J-75000D01*
G01*
X149400000Y-90935000D01*
G75*
G02*
X149325000Y-91010000I-75000J0D01*
G01*
X147925000Y-91010000D01*
G75*
G02*
X147850000Y-90935000I0J75000D01*
G01*
G37*
G36*
G01*
X147850000Y-91435000D02*
X147850000Y-91285000D01*
G75*
G02*
X147925000Y-91210000I75000J0D01*
G01*
X149325000Y-91210000D01*
G75*
G02*
X149400000Y-91285000I0J-75000D01*
G01*
X149400000Y-91435000D01*
G75*
G02*
X149325000Y-91510000I-75000J0D01*
G01*
X147925000Y-91510000D01*
G75*
G02*
X147850000Y-91435000I0J75000D01*
G01*
G37*
G36*
G01*
X147850000Y-91935000D02*
X147850000Y-91785000D01*
G75*
G02*
X147925000Y-91710000I75000J0D01*
G01*
X149325000Y-91710000D01*
G75*
G02*
X149400000Y-91785000I0J-75000D01*
G01*
X149400000Y-91935000D01*
G75*
G02*
X149325000Y-92010000I-75000J0D01*
G01*
X147925000Y-92010000D01*
G75*
G02*
X147850000Y-91935000I0J75000D01*
G01*
G37*
G36*
G01*
X147850000Y-92435000D02*
X147850000Y-92285000D01*
G75*
G02*
X147925000Y-92210000I75000J0D01*
G01*
X149325000Y-92210000D01*
G75*
G02*
X149400000Y-92285000I0J-75000D01*
G01*
X149400000Y-92435000D01*
G75*
G02*
X149325000Y-92510000I-75000J0D01*
G01*
X147925000Y-92510000D01*
G75*
G02*
X147850000Y-92435000I0J75000D01*
G01*
G37*
G36*
G01*
X147850000Y-92935000D02*
X147850000Y-92785000D01*
G75*
G02*
X147925000Y-92710000I75000J0D01*
G01*
X149325000Y-92710000D01*
G75*
G02*
X149400000Y-92785000I0J-75000D01*
G01*
X149400000Y-92935000D01*
G75*
G02*
X149325000Y-93010000I-75000J0D01*
G01*
X147925000Y-93010000D01*
G75*
G02*
X147850000Y-92935000I0J75000D01*
G01*
G37*
G36*
G01*
X147850000Y-93435000D02*
X147850000Y-93285000D01*
G75*
G02*
X147925000Y-93210000I75000J0D01*
G01*
X149325000Y-93210000D01*
G75*
G02*
X149400000Y-93285000I0J-75000D01*
G01*
X149400000Y-93435000D01*
G75*
G02*
X149325000Y-93510000I-75000J0D01*
G01*
X147925000Y-93510000D01*
G75*
G02*
X147850000Y-93435000I0J75000D01*
G01*
G37*
G36*
G01*
X147850000Y-93935000D02*
X147850000Y-93785000D01*
G75*
G02*
X147925000Y-93710000I75000J0D01*
G01*
X149325000Y-93710000D01*
G75*
G02*
X149400000Y-93785000I0J-75000D01*
G01*
X149400000Y-93935000D01*
G75*
G02*
X149325000Y-94010000I-75000J0D01*
G01*
X147925000Y-94010000D01*
G75*
G02*
X147850000Y-93935000I0J75000D01*
G01*
G37*
G36*
G01*
X147850000Y-94435000D02*
X147850000Y-94285000D01*
G75*
G02*
X147925000Y-94210000I75000J0D01*
G01*
X149325000Y-94210000D01*
G75*
G02*
X149400000Y-94285000I0J-75000D01*
G01*
X149400000Y-94435000D01*
G75*
G02*
X149325000Y-94510000I-75000J0D01*
G01*
X147925000Y-94510000D01*
G75*
G02*
X147850000Y-94435000I0J75000D01*
G01*
G37*
G36*
G01*
X147850000Y-94935000D02*
X147850000Y-94785000D01*
G75*
G02*
X147925000Y-94710000I75000J0D01*
G01*
X149325000Y-94710000D01*
G75*
G02*
X149400000Y-94785000I0J-75000D01*
G01*
X149400000Y-94935000D01*
G75*
G02*
X149325000Y-95010000I-75000J0D01*
G01*
X147925000Y-95010000D01*
G75*
G02*
X147850000Y-94935000I0J75000D01*
G01*
G37*
G36*
G01*
X147850000Y-95435000D02*
X147850000Y-95285000D01*
G75*
G02*
X147925000Y-95210000I75000J0D01*
G01*
X149325000Y-95210000D01*
G75*
G02*
X149400000Y-95285000I0J-75000D01*
G01*
X149400000Y-95435000D01*
G75*
G02*
X149325000Y-95510000I-75000J0D01*
G01*
X147925000Y-95510000D01*
G75*
G02*
X147850000Y-95435000I0J75000D01*
G01*
G37*
G36*
G01*
X146550000Y-97985000D02*
X146550000Y-96585000D01*
G75*
G02*
X146625000Y-96510000I75000J0D01*
G01*
X146775000Y-96510000D01*
G75*
G02*
X146850000Y-96585000I0J-75000D01*
G01*
X146850000Y-97985000D01*
G75*
G02*
X146775000Y-98060000I-75000J0D01*
G01*
X146625000Y-98060000D01*
G75*
G02*
X146550000Y-97985000I0J75000D01*
G01*
G37*
G36*
G01*
X146050000Y-97985000D02*
X146050000Y-96585000D01*
G75*
G02*
X146125000Y-96510000I75000J0D01*
G01*
X146275000Y-96510000D01*
G75*
G02*
X146350000Y-96585000I0J-75000D01*
G01*
X146350000Y-97985000D01*
G75*
G02*
X146275000Y-98060000I-75000J0D01*
G01*
X146125000Y-98060000D01*
G75*
G02*
X146050000Y-97985000I0J75000D01*
G01*
G37*
G36*
G01*
X145550000Y-97985000D02*
X145550000Y-96585000D01*
G75*
G02*
X145625000Y-96510000I75000J0D01*
G01*
X145775000Y-96510000D01*
G75*
G02*
X145850000Y-96585000I0J-75000D01*
G01*
X145850000Y-97985000D01*
G75*
G02*
X145775000Y-98060000I-75000J0D01*
G01*
X145625000Y-98060000D01*
G75*
G02*
X145550000Y-97985000I0J75000D01*
G01*
G37*
G36*
G01*
X145050000Y-97985000D02*
X145050000Y-96585000D01*
G75*
G02*
X145125000Y-96510000I75000J0D01*
G01*
X145275000Y-96510000D01*
G75*
G02*
X145350000Y-96585000I0J-75000D01*
G01*
X145350000Y-97985000D01*
G75*
G02*
X145275000Y-98060000I-75000J0D01*
G01*
X145125000Y-98060000D01*
G75*
G02*
X145050000Y-97985000I0J75000D01*
G01*
G37*
G36*
G01*
X144550000Y-97985000D02*
X144550000Y-96585000D01*
G75*
G02*
X144625000Y-96510000I75000J0D01*
G01*
X144775000Y-96510000D01*
G75*
G02*
X144850000Y-96585000I0J-75000D01*
G01*
X144850000Y-97985000D01*
G75*
G02*
X144775000Y-98060000I-75000J0D01*
G01*
X144625000Y-98060000D01*
G75*
G02*
X144550000Y-97985000I0J75000D01*
G01*
G37*
G36*
G01*
X144050000Y-97985000D02*
X144050000Y-96585000D01*
G75*
G02*
X144125000Y-96510000I75000J0D01*
G01*
X144275000Y-96510000D01*
G75*
G02*
X144350000Y-96585000I0J-75000D01*
G01*
X144350000Y-97985000D01*
G75*
G02*
X144275000Y-98060000I-75000J0D01*
G01*
X144125000Y-98060000D01*
G75*
G02*
X144050000Y-97985000I0J75000D01*
G01*
G37*
G36*
G01*
X143550000Y-97985000D02*
X143550000Y-96585000D01*
G75*
G02*
X143625000Y-96510000I75000J0D01*
G01*
X143775000Y-96510000D01*
G75*
G02*
X143850000Y-96585000I0J-75000D01*
G01*
X143850000Y-97985000D01*
G75*
G02*
X143775000Y-98060000I-75000J0D01*
G01*
X143625000Y-98060000D01*
G75*
G02*
X143550000Y-97985000I0J75000D01*
G01*
G37*
G36*
G01*
X143050000Y-97985000D02*
X143050000Y-96585000D01*
G75*
G02*
X143125000Y-96510000I75000J0D01*
G01*
X143275000Y-96510000D01*
G75*
G02*
X143350000Y-96585000I0J-75000D01*
G01*
X143350000Y-97985000D01*
G75*
G02*
X143275000Y-98060000I-75000J0D01*
G01*
X143125000Y-98060000D01*
G75*
G02*
X143050000Y-97985000I0J75000D01*
G01*
G37*
G36*
G01*
X142550000Y-97985000D02*
X142550000Y-96585000D01*
G75*
G02*
X142625000Y-96510000I75000J0D01*
G01*
X142775000Y-96510000D01*
G75*
G02*
X142850000Y-96585000I0J-75000D01*
G01*
X142850000Y-97985000D01*
G75*
G02*
X142775000Y-98060000I-75000J0D01*
G01*
X142625000Y-98060000D01*
G75*
G02*
X142550000Y-97985000I0J75000D01*
G01*
G37*
G36*
G01*
X142050000Y-97985000D02*
X142050000Y-96585000D01*
G75*
G02*
X142125000Y-96510000I75000J0D01*
G01*
X142275000Y-96510000D01*
G75*
G02*
X142350000Y-96585000I0J-75000D01*
G01*
X142350000Y-97985000D01*
G75*
G02*
X142275000Y-98060000I-75000J0D01*
G01*
X142125000Y-98060000D01*
G75*
G02*
X142050000Y-97985000I0J75000D01*
G01*
G37*
G36*
G01*
X141550000Y-97985000D02*
X141550000Y-96585000D01*
G75*
G02*
X141625000Y-96510000I75000J0D01*
G01*
X141775000Y-96510000D01*
G75*
G02*
X141850000Y-96585000I0J-75000D01*
G01*
X141850000Y-97985000D01*
G75*
G02*
X141775000Y-98060000I-75000J0D01*
G01*
X141625000Y-98060000D01*
G75*
G02*
X141550000Y-97985000I0J75000D01*
G01*
G37*
G36*
G01*
X141050000Y-97985000D02*
X141050000Y-96585000D01*
G75*
G02*
X141125000Y-96510000I75000J0D01*
G01*
X141275000Y-96510000D01*
G75*
G02*
X141350000Y-96585000I0J-75000D01*
G01*
X141350000Y-97985000D01*
G75*
G02*
X141275000Y-98060000I-75000J0D01*
G01*
X141125000Y-98060000D01*
G75*
G02*
X141050000Y-97985000I0J75000D01*
G01*
G37*
G36*
G01*
X140550000Y-97985000D02*
X140550000Y-96585000D01*
G75*
G02*
X140625000Y-96510000I75000J0D01*
G01*
X140775000Y-96510000D01*
G75*
G02*
X140850000Y-96585000I0J-75000D01*
G01*
X140850000Y-97985000D01*
G75*
G02*
X140775000Y-98060000I-75000J0D01*
G01*
X140625000Y-98060000D01*
G75*
G02*
X140550000Y-97985000I0J75000D01*
G01*
G37*
G36*
G01*
X140050000Y-97985000D02*
X140050000Y-96585000D01*
G75*
G02*
X140125000Y-96510000I75000J0D01*
G01*
X140275000Y-96510000D01*
G75*
G02*
X140350000Y-96585000I0J-75000D01*
G01*
X140350000Y-97985000D01*
G75*
G02*
X140275000Y-98060000I-75000J0D01*
G01*
X140125000Y-98060000D01*
G75*
G02*
X140050000Y-97985000I0J75000D01*
G01*
G37*
G36*
G01*
X139550000Y-97985000D02*
X139550000Y-96585000D01*
G75*
G02*
X139625000Y-96510000I75000J0D01*
G01*
X139775000Y-96510000D01*
G75*
G02*
X139850000Y-96585000I0J-75000D01*
G01*
X139850000Y-97985000D01*
G75*
G02*
X139775000Y-98060000I-75000J0D01*
G01*
X139625000Y-98060000D01*
G75*
G02*
X139550000Y-97985000I0J75000D01*
G01*
G37*
G36*
G01*
X139050000Y-97985000D02*
X139050000Y-96585000D01*
G75*
G02*
X139125000Y-96510000I75000J0D01*
G01*
X139275000Y-96510000D01*
G75*
G02*
X139350000Y-96585000I0J-75000D01*
G01*
X139350000Y-97985000D01*
G75*
G02*
X139275000Y-98060000I-75000J0D01*
G01*
X139125000Y-98060000D01*
G75*
G02*
X139050000Y-97985000I0J75000D01*
G01*
G37*
G36*
G01*
X136500000Y-95435000D02*
X136500000Y-95285000D01*
G75*
G02*
X136575000Y-95210000I75000J0D01*
G01*
X137975000Y-95210000D01*
G75*
G02*
X138050000Y-95285000I0J-75000D01*
G01*
X138050000Y-95435000D01*
G75*
G02*
X137975000Y-95510000I-75000J0D01*
G01*
X136575000Y-95510000D01*
G75*
G02*
X136500000Y-95435000I0J75000D01*
G01*
G37*
G36*
G01*
X136500000Y-94935000D02*
X136500000Y-94785000D01*
G75*
G02*
X136575000Y-94710000I75000J0D01*
G01*
X137975000Y-94710000D01*
G75*
G02*
X138050000Y-94785000I0J-75000D01*
G01*
X138050000Y-94935000D01*
G75*
G02*
X137975000Y-95010000I-75000J0D01*
G01*
X136575000Y-95010000D01*
G75*
G02*
X136500000Y-94935000I0J75000D01*
G01*
G37*
G36*
G01*
X136500000Y-94435000D02*
X136500000Y-94285000D01*
G75*
G02*
X136575000Y-94210000I75000J0D01*
G01*
X137975000Y-94210000D01*
G75*
G02*
X138050000Y-94285000I0J-75000D01*
G01*
X138050000Y-94435000D01*
G75*
G02*
X137975000Y-94510000I-75000J0D01*
G01*
X136575000Y-94510000D01*
G75*
G02*
X136500000Y-94435000I0J75000D01*
G01*
G37*
G36*
G01*
X136500000Y-93935000D02*
X136500000Y-93785000D01*
G75*
G02*
X136575000Y-93710000I75000J0D01*
G01*
X137975000Y-93710000D01*
G75*
G02*
X138050000Y-93785000I0J-75000D01*
G01*
X138050000Y-93935000D01*
G75*
G02*
X137975000Y-94010000I-75000J0D01*
G01*
X136575000Y-94010000D01*
G75*
G02*
X136500000Y-93935000I0J75000D01*
G01*
G37*
G36*
G01*
X136500000Y-93435000D02*
X136500000Y-93285000D01*
G75*
G02*
X136575000Y-93210000I75000J0D01*
G01*
X137975000Y-93210000D01*
G75*
G02*
X138050000Y-93285000I0J-75000D01*
G01*
X138050000Y-93435000D01*
G75*
G02*
X137975000Y-93510000I-75000J0D01*
G01*
X136575000Y-93510000D01*
G75*
G02*
X136500000Y-93435000I0J75000D01*
G01*
G37*
G36*
G01*
X136500000Y-92935000D02*
X136500000Y-92785000D01*
G75*
G02*
X136575000Y-92710000I75000J0D01*
G01*
X137975000Y-92710000D01*
G75*
G02*
X138050000Y-92785000I0J-75000D01*
G01*
X138050000Y-92935000D01*
G75*
G02*
X137975000Y-93010000I-75000J0D01*
G01*
X136575000Y-93010000D01*
G75*
G02*
X136500000Y-92935000I0J75000D01*
G01*
G37*
G36*
G01*
X136500000Y-92435000D02*
X136500000Y-92285000D01*
G75*
G02*
X136575000Y-92210000I75000J0D01*
G01*
X137975000Y-92210000D01*
G75*
G02*
X138050000Y-92285000I0J-75000D01*
G01*
X138050000Y-92435000D01*
G75*
G02*
X137975000Y-92510000I-75000J0D01*
G01*
X136575000Y-92510000D01*
G75*
G02*
X136500000Y-92435000I0J75000D01*
G01*
G37*
G36*
G01*
X136500000Y-91935000D02*
X136500000Y-91785000D01*
G75*
G02*
X136575000Y-91710000I75000J0D01*
G01*
X137975000Y-91710000D01*
G75*
G02*
X138050000Y-91785000I0J-75000D01*
G01*
X138050000Y-91935000D01*
G75*
G02*
X137975000Y-92010000I-75000J0D01*
G01*
X136575000Y-92010000D01*
G75*
G02*
X136500000Y-91935000I0J75000D01*
G01*
G37*
G36*
G01*
X136500000Y-91435000D02*
X136500000Y-91285000D01*
G75*
G02*
X136575000Y-91210000I75000J0D01*
G01*
X137975000Y-91210000D01*
G75*
G02*
X138050000Y-91285000I0J-75000D01*
G01*
X138050000Y-91435000D01*
G75*
G02*
X137975000Y-91510000I-75000J0D01*
G01*
X136575000Y-91510000D01*
G75*
G02*
X136500000Y-91435000I0J75000D01*
G01*
G37*
G36*
G01*
X136500000Y-90935000D02*
X136500000Y-90785000D01*
G75*
G02*
X136575000Y-90710000I75000J0D01*
G01*
X137975000Y-90710000D01*
G75*
G02*
X138050000Y-90785000I0J-75000D01*
G01*
X138050000Y-90935000D01*
G75*
G02*
X137975000Y-91010000I-75000J0D01*
G01*
X136575000Y-91010000D01*
G75*
G02*
X136500000Y-90935000I0J75000D01*
G01*
G37*
G36*
G01*
X136500000Y-90435000D02*
X136500000Y-90285000D01*
G75*
G02*
X136575000Y-90210000I75000J0D01*
G01*
X137975000Y-90210000D01*
G75*
G02*
X138050000Y-90285000I0J-75000D01*
G01*
X138050000Y-90435000D01*
G75*
G02*
X137975000Y-90510000I-75000J0D01*
G01*
X136575000Y-90510000D01*
G75*
G02*
X136500000Y-90435000I0J75000D01*
G01*
G37*
G36*
G01*
X136500000Y-89935000D02*
X136500000Y-89785000D01*
G75*
G02*
X136575000Y-89710000I75000J0D01*
G01*
X137975000Y-89710000D01*
G75*
G02*
X138050000Y-89785000I0J-75000D01*
G01*
X138050000Y-89935000D01*
G75*
G02*
X137975000Y-90010000I-75000J0D01*
G01*
X136575000Y-90010000D01*
G75*
G02*
X136500000Y-89935000I0J75000D01*
G01*
G37*
G36*
G01*
X136500000Y-89435000D02*
X136500000Y-89285000D01*
G75*
G02*
X136575000Y-89210000I75000J0D01*
G01*
X137975000Y-89210000D01*
G75*
G02*
X138050000Y-89285000I0J-75000D01*
G01*
X138050000Y-89435000D01*
G75*
G02*
X137975000Y-89510000I-75000J0D01*
G01*
X136575000Y-89510000D01*
G75*
G02*
X136500000Y-89435000I0J75000D01*
G01*
G37*
G36*
G01*
X136500000Y-88935000D02*
X136500000Y-88785000D01*
G75*
G02*
X136575000Y-88710000I75000J0D01*
G01*
X137975000Y-88710000D01*
G75*
G02*
X138050000Y-88785000I0J-75000D01*
G01*
X138050000Y-88935000D01*
G75*
G02*
X137975000Y-89010000I-75000J0D01*
G01*
X136575000Y-89010000D01*
G75*
G02*
X136500000Y-88935000I0J75000D01*
G01*
G37*
G36*
G01*
X136500000Y-88435000D02*
X136500000Y-88285000D01*
G75*
G02*
X136575000Y-88210000I75000J0D01*
G01*
X137975000Y-88210000D01*
G75*
G02*
X138050000Y-88285000I0J-75000D01*
G01*
X138050000Y-88435000D01*
G75*
G02*
X137975000Y-88510000I-75000J0D01*
G01*
X136575000Y-88510000D01*
G75*
G02*
X136500000Y-88435000I0J75000D01*
G01*
G37*
G36*
G01*
X136500000Y-87935000D02*
X136500000Y-87785000D01*
G75*
G02*
X136575000Y-87710000I75000J0D01*
G01*
X137975000Y-87710000D01*
G75*
G02*
X138050000Y-87785000I0J-75000D01*
G01*
X138050000Y-87935000D01*
G75*
G02*
X137975000Y-88010000I-75000J0D01*
G01*
X136575000Y-88010000D01*
G75*
G02*
X136500000Y-87935000I0J75000D01*
G01*
G37*
G36*
G01*
X147770001Y-111360000D02*
X146869999Y-111360000D01*
G75*
G02*
X146620000Y-111110001I0J249999D01*
G01*
X146620000Y-110584999D01*
G75*
G02*
X146869999Y-110335000I249999J0D01*
G01*
X147770001Y-110335000D01*
G75*
G02*
X148020000Y-110584999I0J-249999D01*
G01*
X148020000Y-111110001D01*
G75*
G02*
X147770001Y-111360000I-249999J0D01*
G01*
G37*
G36*
G01*
X147770001Y-113185000D02*
X146869999Y-113185000D01*
G75*
G02*
X146620000Y-112935001I0J249999D01*
G01*
X146620000Y-112409999D01*
G75*
G02*
X146869999Y-112160000I249999J0D01*
G01*
X147770001Y-112160000D01*
G75*
G02*
X148020000Y-112409999I0J-249999D01*
G01*
X148020000Y-112935001D01*
G75*
G02*
X147770001Y-113185000I-249999J0D01*
G01*
G37*
G36*
G01*
X114115001Y-78975000D02*
X113214999Y-78975000D01*
G75*
G02*
X112965000Y-78725001I0J249999D01*
G01*
X112965000Y-78199999D01*
G75*
G02*
X113214999Y-77950000I249999J0D01*
G01*
X114115001Y-77950000D01*
G75*
G02*
X114365000Y-78199999I0J-249999D01*
G01*
X114365000Y-78725001D01*
G75*
G02*
X114115001Y-78975000I-249999J0D01*
G01*
G37*
G36*
G01*
X114115001Y-80800000D02*
X113214999Y-80800000D01*
G75*
G02*
X112965000Y-80550001I0J249999D01*
G01*
X112965000Y-80024999D01*
G75*
G02*
X113214999Y-79775000I249999J0D01*
G01*
X114115001Y-79775000D01*
G75*
G02*
X114365000Y-80024999I0J-249999D01*
G01*
X114365000Y-80550001D01*
G75*
G02*
X114115001Y-80800000I-249999J0D01*
G01*
G37*
G36*
G01*
X113214999Y-93745000D02*
X114115001Y-93745000D01*
G75*
G02*
X114365000Y-93994999I0J-249999D01*
G01*
X114365000Y-94520001D01*
G75*
G02*
X114115001Y-94770000I-249999J0D01*
G01*
X113214999Y-94770000D01*
G75*
G02*
X112965000Y-94520001I0J249999D01*
G01*
X112965000Y-93994999D01*
G75*
G02*
X113214999Y-93745000I249999J0D01*
G01*
G37*
G36*
G01*
X113214999Y-91920000D02*
X114115001Y-91920000D01*
G75*
G02*
X114365000Y-92169999I0J-249999D01*
G01*
X114365000Y-92695001D01*
G75*
G02*
X114115001Y-92945000I-249999J0D01*
G01*
X113214999Y-92945000D01*
G75*
G02*
X112965000Y-92695001I0J249999D01*
G01*
X112965000Y-92169999D01*
G75*
G02*
X113214999Y-91920000I249999J0D01*
G01*
G37*
G36*
G01*
X115335000Y-76015001D02*
X115335000Y-75114999D01*
G75*
G02*
X115584999Y-74865000I249999J0D01*
G01*
X116110001Y-74865000D01*
G75*
G02*
X116360000Y-75114999I0J-249999D01*
G01*
X116360000Y-76015001D01*
G75*
G02*
X116110001Y-76265000I-249999J0D01*
G01*
X115584999Y-76265000D01*
G75*
G02*
X115335000Y-76015001I0J249999D01*
G01*
G37*
G36*
G01*
X113510000Y-76015001D02*
X113510000Y-75114999D01*
G75*
G02*
X113759999Y-74865000I249999J0D01*
G01*
X114285001Y-74865000D01*
G75*
G02*
X114535000Y-75114999I0J-249999D01*
G01*
X114535000Y-76015001D01*
G75*
G02*
X114285001Y-76265000I-249999J0D01*
G01*
X113759999Y-76265000D01*
G75*
G02*
X113510000Y-76015001I0J249999D01*
G01*
G37*
G36*
G01*
X115057500Y-96970001D02*
X115057500Y-96069999D01*
G75*
G02*
X115307499Y-95820000I249999J0D01*
G01*
X115832501Y-95820000D01*
G75*
G02*
X116082500Y-96069999I0J-249999D01*
G01*
X116082500Y-96970001D01*
G75*
G02*
X115832501Y-97220000I-249999J0D01*
G01*
X115307499Y-97220000D01*
G75*
G02*
X115057500Y-96970001I0J249999D01*
G01*
G37*
G36*
G01*
X113232500Y-96970001D02*
X113232500Y-96069999D01*
G75*
G02*
X113482499Y-95820000I249999J0D01*
G01*
X114007501Y-95820000D01*
G75*
G02*
X114257500Y-96069999I0J-249999D01*
G01*
X114257500Y-96970001D01*
G75*
G02*
X114007501Y-97220000I-249999J0D01*
G01*
X113482499Y-97220000D01*
G75*
G02*
X113232500Y-96970001I0J249999D01*
G01*
G37*
G36*
G01*
X160839999Y-75965000D02*
X161740001Y-75965000D01*
G75*
G02*
X161990000Y-76214999I0J-249999D01*
G01*
X161990000Y-76740001D01*
G75*
G02*
X161740001Y-76990000I-249999J0D01*
G01*
X160839999Y-76990000D01*
G75*
G02*
X160590000Y-76740001I0J249999D01*
G01*
X160590000Y-76214999D01*
G75*
G02*
X160839999Y-75965000I249999J0D01*
G01*
G37*
G36*
G01*
X160839999Y-74140000D02*
X161740001Y-74140000D01*
G75*
G02*
X161990000Y-74389999I0J-249999D01*
G01*
X161990000Y-74915001D01*
G75*
G02*
X161740001Y-75165000I-249999J0D01*
G01*
X160839999Y-75165000D01*
G75*
G02*
X160590000Y-74915001I0J249999D01*
G01*
X160590000Y-74389999D01*
G75*
G02*
X160839999Y-74140000I249999J0D01*
G01*
G37*
G36*
G01*
X156394999Y-75965000D02*
X157295001Y-75965000D01*
G75*
G02*
X157545000Y-76214999I0J-249999D01*
G01*
X157545000Y-76740001D01*
G75*
G02*
X157295001Y-76990000I-249999J0D01*
G01*
X156394999Y-76990000D01*
G75*
G02*
X156145000Y-76740001I0J249999D01*
G01*
X156145000Y-76214999D01*
G75*
G02*
X156394999Y-75965000I249999J0D01*
G01*
G37*
G36*
G01*
X156394999Y-74140000D02*
X157295001Y-74140000D01*
G75*
G02*
X157545000Y-74389999I0J-249999D01*
G01*
X157545000Y-74915001D01*
G75*
G02*
X157295001Y-75165000I-249999J0D01*
G01*
X156394999Y-75165000D01*
G75*
G02*
X156145000Y-74915001I0J249999D01*
G01*
X156145000Y-74389999D01*
G75*
G02*
X156394999Y-74140000I249999J0D01*
G01*
G37*
G36*
G01*
X151949999Y-75965000D02*
X152850001Y-75965000D01*
G75*
G02*
X153100000Y-76214999I0J-249999D01*
G01*
X153100000Y-76740001D01*
G75*
G02*
X152850001Y-76990000I-249999J0D01*
G01*
X151949999Y-76990000D01*
G75*
G02*
X151700000Y-76740001I0J249999D01*
G01*
X151700000Y-76214999D01*
G75*
G02*
X151949999Y-75965000I249999J0D01*
G01*
G37*
G36*
G01*
X151949999Y-74140000D02*
X152850001Y-74140000D01*
G75*
G02*
X153100000Y-74389999I0J-249999D01*
G01*
X153100000Y-74915001D01*
G75*
G02*
X152850001Y-75165000I-249999J0D01*
G01*
X151949999Y-75165000D01*
G75*
G02*
X151700000Y-74915001I0J249999D01*
G01*
X151700000Y-74389999D01*
G75*
G02*
X151949999Y-74140000I249999J0D01*
G01*
G37*
G36*
G01*
X147504999Y-75965000D02*
X148405001Y-75965000D01*
G75*
G02*
X148655000Y-76214999I0J-249999D01*
G01*
X148655000Y-76740001D01*
G75*
G02*
X148405001Y-76990000I-249999J0D01*
G01*
X147504999Y-76990000D01*
G75*
G02*
X147255000Y-76740001I0J249999D01*
G01*
X147255000Y-76214999D01*
G75*
G02*
X147504999Y-75965000I249999J0D01*
G01*
G37*
G36*
G01*
X147504999Y-74140000D02*
X148405001Y-74140000D01*
G75*
G02*
X148655000Y-74389999I0J-249999D01*
G01*
X148655000Y-74915001D01*
G75*
G02*
X148405001Y-75165000I-249999J0D01*
G01*
X147504999Y-75165000D01*
G75*
G02*
X147255000Y-74915001I0J249999D01*
G01*
X147255000Y-74389999D01*
G75*
G02*
X147504999Y-74140000I249999J0D01*
G01*
G37*
G36*
G01*
X144964999Y-75965000D02*
X145865001Y-75965000D01*
G75*
G02*
X146115000Y-76214999I0J-249999D01*
G01*
X146115000Y-76740001D01*
G75*
G02*
X145865001Y-76990000I-249999J0D01*
G01*
X144964999Y-76990000D01*
G75*
G02*
X144715000Y-76740001I0J249999D01*
G01*
X144715000Y-76214999D01*
G75*
G02*
X144964999Y-75965000I249999J0D01*
G01*
G37*
G36*
G01*
X144964999Y-74140000D02*
X145865001Y-74140000D01*
G75*
G02*
X146115000Y-74389999I0J-249999D01*
G01*
X146115000Y-74915001D01*
G75*
G02*
X145865001Y-75165000I-249999J0D01*
G01*
X144964999Y-75165000D01*
G75*
G02*
X144715000Y-74915001I0J249999D01*
G01*
X144715000Y-74389999D01*
G75*
G02*
X144964999Y-74140000I249999J0D01*
G01*
G37*
G36*
G01*
X140519999Y-75965000D02*
X141420001Y-75965000D01*
G75*
G02*
X141670000Y-76214999I0J-249999D01*
G01*
X141670000Y-76740001D01*
G75*
G02*
X141420001Y-76990000I-249999J0D01*
G01*
X140519999Y-76990000D01*
G75*
G02*
X140270000Y-76740001I0J249999D01*
G01*
X140270000Y-76214999D01*
G75*
G02*
X140519999Y-75965000I249999J0D01*
G01*
G37*
G36*
G01*
X140519999Y-74140000D02*
X141420001Y-74140000D01*
G75*
G02*
X141670000Y-74389999I0J-249999D01*
G01*
X141670000Y-74915001D01*
G75*
G02*
X141420001Y-75165000I-249999J0D01*
G01*
X140519999Y-75165000D01*
G75*
G02*
X140270000Y-74915001I0J249999D01*
G01*
X140270000Y-74389999D01*
G75*
G02*
X140519999Y-74140000I249999J0D01*
G01*
G37*
G36*
G01*
X139515001Y-75165000D02*
X138614999Y-75165000D01*
G75*
G02*
X138365000Y-74915001I0J249999D01*
G01*
X138365000Y-74389999D01*
G75*
G02*
X138614999Y-74140000I249999J0D01*
G01*
X139515001Y-74140000D01*
G75*
G02*
X139765000Y-74389999I0J-249999D01*
G01*
X139765000Y-74915001D01*
G75*
G02*
X139515001Y-75165000I-249999J0D01*
G01*
G37*
G36*
G01*
X139515001Y-76990000D02*
X138614999Y-76990000D01*
G75*
G02*
X138365000Y-76740001I0J249999D01*
G01*
X138365000Y-76214999D01*
G75*
G02*
X138614999Y-75965000I249999J0D01*
G01*
X139515001Y-75965000D01*
G75*
G02*
X139765000Y-76214999I0J-249999D01*
G01*
X139765000Y-76740001D01*
G75*
G02*
X139515001Y-76990000I-249999J0D01*
G01*
G37*
G36*
G01*
X143960001Y-75165000D02*
X143059999Y-75165000D01*
G75*
G02*
X142810000Y-74915001I0J249999D01*
G01*
X142810000Y-74389999D01*
G75*
G02*
X143059999Y-74140000I249999J0D01*
G01*
X143960001Y-74140000D01*
G75*
G02*
X144210000Y-74389999I0J-249999D01*
G01*
X144210000Y-74915001D01*
G75*
G02*
X143960001Y-75165000I-249999J0D01*
G01*
G37*
G36*
G01*
X143960001Y-76990000D02*
X143059999Y-76990000D01*
G75*
G02*
X142810000Y-76740001I0J249999D01*
G01*
X142810000Y-76214999D01*
G75*
G02*
X143059999Y-75965000I249999J0D01*
G01*
X143960001Y-75965000D01*
G75*
G02*
X144210000Y-76214999I0J-249999D01*
G01*
X144210000Y-76740001D01*
G75*
G02*
X143960001Y-76990000I-249999J0D01*
G01*
G37*
G36*
G01*
X150310001Y-75165000D02*
X149409999Y-75165000D01*
G75*
G02*
X149160000Y-74915001I0J249999D01*
G01*
X149160000Y-74389999D01*
G75*
G02*
X149409999Y-74140000I249999J0D01*
G01*
X150310001Y-74140000D01*
G75*
G02*
X150560000Y-74389999I0J-249999D01*
G01*
X150560000Y-74915001D01*
G75*
G02*
X150310001Y-75165000I-249999J0D01*
G01*
G37*
G36*
G01*
X150310001Y-76990000D02*
X149409999Y-76990000D01*
G75*
G02*
X149160000Y-76740001I0J249999D01*
G01*
X149160000Y-76214999D01*
G75*
G02*
X149409999Y-75965000I249999J0D01*
G01*
X150310001Y-75965000D01*
G75*
G02*
X150560000Y-76214999I0J-249999D01*
G01*
X150560000Y-76740001D01*
G75*
G02*
X150310001Y-76990000I-249999J0D01*
G01*
G37*
G36*
G01*
X154755001Y-75165000D02*
X153854999Y-75165000D01*
G75*
G02*
X153605000Y-74915001I0J249999D01*
G01*
X153605000Y-74389999D01*
G75*
G02*
X153854999Y-74140000I249999J0D01*
G01*
X154755001Y-74140000D01*
G75*
G02*
X155005000Y-74389999I0J-249999D01*
G01*
X155005000Y-74915001D01*
G75*
G02*
X154755001Y-75165000I-249999J0D01*
G01*
G37*
G36*
G01*
X154755001Y-76990000D02*
X153854999Y-76990000D01*
G75*
G02*
X153605000Y-76740001I0J249999D01*
G01*
X153605000Y-76214999D01*
G75*
G02*
X153854999Y-75965000I249999J0D01*
G01*
X154755001Y-75965000D01*
G75*
G02*
X155005000Y-76214999I0J-249999D01*
G01*
X155005000Y-76740001D01*
G75*
G02*
X154755001Y-76990000I-249999J0D01*
G01*
G37*
G36*
G01*
X159200001Y-75165000D02*
X158299999Y-75165000D01*
G75*
G02*
X158050000Y-74915001I0J249999D01*
G01*
X158050000Y-74389999D01*
G75*
G02*
X158299999Y-74140000I249999J0D01*
G01*
X159200001Y-74140000D01*
G75*
G02*
X159450000Y-74389999I0J-249999D01*
G01*
X159450000Y-74915001D01*
G75*
G02*
X159200001Y-75165000I-249999J0D01*
G01*
G37*
G36*
G01*
X159200001Y-76990000D02*
X158299999Y-76990000D01*
G75*
G02*
X158050000Y-76740001I0J249999D01*
G01*
X158050000Y-76214999D01*
G75*
G02*
X158299999Y-75965000I249999J0D01*
G01*
X159200001Y-75965000D01*
G75*
G02*
X159450000Y-76214999I0J-249999D01*
G01*
X159450000Y-76740001D01*
G75*
G02*
X159200001Y-76990000I-249999J0D01*
G01*
G37*
G36*
G01*
X163645001Y-75165000D02*
X162744999Y-75165000D01*
G75*
G02*
X162495000Y-74915001I0J249999D01*
G01*
X162495000Y-74389999D01*
G75*
G02*
X162744999Y-74140000I249999J0D01*
G01*
X163645001Y-74140000D01*
G75*
G02*
X163895000Y-74389999I0J-249999D01*
G01*
X163895000Y-74915001D01*
G75*
G02*
X163645001Y-75165000I-249999J0D01*
G01*
G37*
G36*
G01*
X163645001Y-76990000D02*
X162744999Y-76990000D01*
G75*
G02*
X162495000Y-76740001I0J249999D01*
G01*
X162495000Y-76214999D01*
G75*
G02*
X162744999Y-75965000I249999J0D01*
G01*
X163645001Y-75965000D01*
G75*
G02*
X163895000Y-76214999I0J-249999D01*
G01*
X163895000Y-76740001D01*
G75*
G02*
X163645001Y-76990000I-249999J0D01*
G01*
G37*
G36*
G01*
X168040000Y-113480001D02*
X168040000Y-112579999D01*
G75*
G02*
X168289999Y-112330000I249999J0D01*
G01*
X168815001Y-112330000D01*
G75*
G02*
X169065000Y-112579999I0J-249999D01*
G01*
X169065000Y-113480001D01*
G75*
G02*
X168815001Y-113730000I-249999J0D01*
G01*
X168289999Y-113730000D01*
G75*
G02*
X168040000Y-113480001I0J249999D01*
G01*
G37*
G36*
G01*
X166215000Y-113480001D02*
X166215000Y-112579999D01*
G75*
G02*
X166464999Y-112330000I249999J0D01*
G01*
X166990001Y-112330000D01*
G75*
G02*
X167240000Y-112579999I0J-249999D01*
G01*
X167240000Y-113480001D01*
G75*
G02*
X166990001Y-113730000I-249999J0D01*
G01*
X166464999Y-113730000D01*
G75*
G02*
X166215000Y-113480001I0J249999D01*
G01*
G37*
G36*
G01*
X168040000Y-102685001D02*
X168040000Y-101784999D01*
G75*
G02*
X168289999Y-101535000I249999J0D01*
G01*
X168815001Y-101535000D01*
G75*
G02*
X169065000Y-101784999I0J-249999D01*
G01*
X169065000Y-102685001D01*
G75*
G02*
X168815001Y-102935000I-249999J0D01*
G01*
X168289999Y-102935000D01*
G75*
G02*
X168040000Y-102685001I0J249999D01*
G01*
G37*
G36*
G01*
X166215000Y-102685001D02*
X166215000Y-101784999D01*
G75*
G02*
X166464999Y-101535000I249999J0D01*
G01*
X166990001Y-101535000D01*
G75*
G02*
X167240000Y-101784999I0J-249999D01*
G01*
X167240000Y-102685001D01*
G75*
G02*
X166990001Y-102935000I-249999J0D01*
G01*
X166464999Y-102935000D01*
G75*
G02*
X166215000Y-102685001I0J249999D01*
G01*
G37*
G36*
G01*
X168040000Y-91890001D02*
X168040000Y-90989999D01*
G75*
G02*
X168289999Y-90740000I249999J0D01*
G01*
X168815001Y-90740000D01*
G75*
G02*
X169065000Y-90989999I0J-249999D01*
G01*
X169065000Y-91890001D01*
G75*
G02*
X168815001Y-92140000I-249999J0D01*
G01*
X168289999Y-92140000D01*
G75*
G02*
X168040000Y-91890001I0J249999D01*
G01*
G37*
G36*
G01*
X166215000Y-91890001D02*
X166215000Y-90989999D01*
G75*
G02*
X166464999Y-90740000I249999J0D01*
G01*
X166990001Y-90740000D01*
G75*
G02*
X167240000Y-90989999I0J-249999D01*
G01*
X167240000Y-91890001D01*
G75*
G02*
X166990001Y-92140000I-249999J0D01*
G01*
X166464999Y-92140000D01*
G75*
G02*
X166215000Y-91890001I0J249999D01*
G01*
G37*
G36*
G01*
X168040000Y-81095001D02*
X168040000Y-80194999D01*
G75*
G02*
X168289999Y-79945000I249999J0D01*
G01*
X168815001Y-79945000D01*
G75*
G02*
X169065000Y-80194999I0J-249999D01*
G01*
X169065000Y-81095001D01*
G75*
G02*
X168815001Y-81345000I-249999J0D01*
G01*
X168289999Y-81345000D01*
G75*
G02*
X168040000Y-81095001I0J249999D01*
G01*
G37*
G36*
G01*
X166215000Y-81095001D02*
X166215000Y-80194999D01*
G75*
G02*
X166464999Y-79945000I249999J0D01*
G01*
X166990001Y-79945000D01*
G75*
G02*
X167240000Y-80194999I0J-249999D01*
G01*
X167240000Y-81095001D01*
G75*
G02*
X166990001Y-81345000I-249999J0D01*
G01*
X166464999Y-81345000D01*
G75*
G02*
X166215000Y-81095001I0J249999D01*
G01*
G37*
G36*
G01*
X168040000Y-70300001D02*
X168040000Y-69399999D01*
G75*
G02*
X168289999Y-69150000I249999J0D01*
G01*
X168815001Y-69150000D01*
G75*
G02*
X169065000Y-69399999I0J-249999D01*
G01*
X169065000Y-70300001D01*
G75*
G02*
X168815001Y-70550000I-249999J0D01*
G01*
X168289999Y-70550000D01*
G75*
G02*
X168040000Y-70300001I0J249999D01*
G01*
G37*
G36*
G01*
X166215000Y-70300001D02*
X166215000Y-69399999D01*
G75*
G02*
X166464999Y-69150000I249999J0D01*
G01*
X166990001Y-69150000D01*
G75*
G02*
X167240000Y-69399999I0J-249999D01*
G01*
X167240000Y-70300001D01*
G75*
G02*
X166990001Y-70550000I-249999J0D01*
G01*
X166464999Y-70550000D01*
G75*
G02*
X166215000Y-70300001I0J249999D01*
G01*
G37*
G36*
G01*
X168040000Y-59505001D02*
X168040000Y-58604999D01*
G75*
G02*
X168289999Y-58355000I249999J0D01*
G01*
X168815001Y-58355000D01*
G75*
G02*
X169065000Y-58604999I0J-249999D01*
G01*
X169065000Y-59505001D01*
G75*
G02*
X168815001Y-59755000I-249999J0D01*
G01*
X168289999Y-59755000D01*
G75*
G02*
X168040000Y-59505001I0J249999D01*
G01*
G37*
G36*
G01*
X166215000Y-59505001D02*
X166215000Y-58604999D01*
G75*
G02*
X166464999Y-58355000I249999J0D01*
G01*
X166990001Y-58355000D01*
G75*
G02*
X167240000Y-58604999I0J-249999D01*
G01*
X167240000Y-59505001D01*
G75*
G02*
X166990001Y-59755000I-249999J0D01*
G01*
X166464999Y-59755000D01*
G75*
G02*
X166215000Y-59505001I0J249999D01*
G01*
G37*
G36*
G01*
X138284000Y-78797999D02*
X138284000Y-79698001D01*
G75*
G02*
X138034001Y-79948000I-249999J0D01*
G01*
X137508999Y-79948000D01*
G75*
G02*
X137259000Y-79698001I0J249999D01*
G01*
X137259000Y-78797999D01*
G75*
G02*
X137508999Y-78548000I249999J0D01*
G01*
X138034001Y-78548000D01*
G75*
G02*
X138284000Y-78797999I0J-249999D01*
G01*
G37*
G36*
G01*
X140109000Y-78797999D02*
X140109000Y-79698001D01*
G75*
G02*
X139859001Y-79948000I-249999J0D01*
G01*
X139333999Y-79948000D01*
G75*
G02*
X139084000Y-79698001I0J249999D01*
G01*
X139084000Y-78797999D01*
G75*
G02*
X139333999Y-78548000I249999J0D01*
G01*
X139859001Y-78548000D01*
G75*
G02*
X140109000Y-78797999I0J-249999D01*
G01*
G37*
G36*
G01*
X132530001Y-85960000D02*
X131629999Y-85960000D01*
G75*
G02*
X131380000Y-85710001I0J249999D01*
G01*
X131380000Y-85184999D01*
G75*
G02*
X131629999Y-84935000I249999J0D01*
G01*
X132530001Y-84935000D01*
G75*
G02*
X132780000Y-85184999I0J-249999D01*
G01*
X132780000Y-85710001D01*
G75*
G02*
X132530001Y-85960000I-249999J0D01*
G01*
G37*
G36*
G01*
X132530001Y-87785000D02*
X131629999Y-87785000D01*
G75*
G02*
X131380000Y-87535001I0J249999D01*
G01*
X131380000Y-87009999D01*
G75*
G02*
X131629999Y-86760000I249999J0D01*
G01*
X132530001Y-86760000D01*
G75*
G02*
X132780000Y-87009999I0J-249999D01*
G01*
X132780000Y-87535001D01*
G75*
G02*
X132530001Y-87785000I-249999J0D01*
G01*
G37*
D21*
X143145000Y-111760000D03*
X145145000Y-110810000D03*
X145145000Y-112710000D03*
D22*
X173550000Y-118110000D03*
D23*
X167250000Y-120390000D03*
X167250000Y-115830000D03*
D22*
X173550000Y-107315000D03*
D23*
X167250000Y-109595000D03*
X167250000Y-105035000D03*
D22*
X173550000Y-96520000D03*
D23*
X167250000Y-98800000D03*
X167250000Y-94240000D03*
D22*
X173550000Y-85725000D03*
D23*
X167250000Y-88005000D03*
X167250000Y-83445000D03*
D22*
X173550000Y-74930000D03*
D23*
X167250000Y-77210000D03*
X167250000Y-72650000D03*
D22*
X173550000Y-64135000D03*
D23*
X167250000Y-66415000D03*
X167250000Y-61855000D03*
D24*
X155488000Y-114554000D03*
X160488000Y-114554000D03*
X118785000Y-114427000D03*
X123785000Y-114427000D03*
D25*
X111150000Y-69390000D03*
X111150000Y-65890000D03*
X117450000Y-69390000D03*
X117450000Y-65890000D03*
X111150000Y-62690000D03*
X117450000Y-62690000D03*
D24*
X183515000Y-119340000D03*
X183515000Y-114340000D03*
X183515000Y-108545000D03*
X183515000Y-103545000D03*
X183515000Y-97750000D03*
X183515000Y-92750000D03*
X183515000Y-86955000D03*
X183515000Y-81955000D03*
X183515000Y-76160000D03*
X183515000Y-71160000D03*
X183515000Y-65365000D03*
X183515000Y-60365000D03*
D26*
X131445000Y-71755000D03*
X131445000Y-69215000D03*
X131445000Y-66675000D03*
D27*
X131445000Y-64135000D03*
D28*
X140715000Y-112395000D03*
X137415000Y-112395000D03*
X172975000Y-113030000D03*
X176275000Y-113030000D03*
X172975000Y-102235000D03*
X176275000Y-102235000D03*
X172975000Y-91440000D03*
X176275000Y-91440000D03*
X172975000Y-80645000D03*
X176275000Y-80645000D03*
X172975000Y-69850000D03*
X176275000Y-69850000D03*
X172975000Y-59055000D03*
X176275000Y-59055000D03*
G36*
G01*
X109670000Y-100170000D02*
X109670000Y-99220000D01*
G75*
G02*
X109920000Y-98970000I250000J0D01*
G01*
X110420000Y-98970000D01*
G75*
G02*
X110670000Y-99220000I0J-250000D01*
G01*
X110670000Y-100170000D01*
G75*
G02*
X110420000Y-100420000I-250000J0D01*
G01*
X109920000Y-100420000D01*
G75*
G02*
X109670000Y-100170000I0J250000D01*
G01*
G37*
G36*
G01*
X107770000Y-100170000D02*
X107770000Y-99220000D01*
G75*
G02*
X108020000Y-98970000I250000J0D01*
G01*
X108520000Y-98970000D01*
G75*
G02*
X108770000Y-99220000I0J-250000D01*
G01*
X108770000Y-100170000D01*
G75*
G02*
X108520000Y-100420000I-250000J0D01*
G01*
X108020000Y-100420000D01*
G75*
G02*
X107770000Y-100170000I0J250000D01*
G01*
G37*
G36*
G01*
X119195000Y-100805000D02*
X119195000Y-99855000D01*
G75*
G02*
X119445000Y-99605000I250000J0D01*
G01*
X119945000Y-99605000D01*
G75*
G02*
X120195000Y-99855000I0J-250000D01*
G01*
X120195000Y-100805000D01*
G75*
G02*
X119945000Y-101055000I-250000J0D01*
G01*
X119445000Y-101055000D01*
G75*
G02*
X119195000Y-100805000I0J250000D01*
G01*
G37*
G36*
G01*
X117295000Y-100805000D02*
X117295000Y-99855000D01*
G75*
G02*
X117545000Y-99605000I250000J0D01*
G01*
X118045000Y-99605000D01*
G75*
G02*
X118295000Y-99855000I0J-250000D01*
G01*
X118295000Y-100805000D01*
G75*
G02*
X118045000Y-101055000I-250000J0D01*
G01*
X117545000Y-101055000D01*
G75*
G02*
X117295000Y-100805000I0J250000D01*
G01*
G37*
G36*
G01*
X121445000Y-103955000D02*
X122395000Y-103955000D01*
G75*
G02*
X122645000Y-104205000I0J-250000D01*
G01*
X122645000Y-104705000D01*
G75*
G02*
X122395000Y-104955000I-250000J0D01*
G01*
X121445000Y-104955000D01*
G75*
G02*
X121195000Y-104705000I0J250000D01*
G01*
X121195000Y-104205000D01*
G75*
G02*
X121445000Y-103955000I250000J0D01*
G01*
G37*
G36*
G01*
X121445000Y-102055000D02*
X122395000Y-102055000D01*
G75*
G02*
X122645000Y-102305000I0J-250000D01*
G01*
X122645000Y-102805000D01*
G75*
G02*
X122395000Y-103055000I-250000J0D01*
G01*
X121445000Y-103055000D01*
G75*
G02*
X121195000Y-102805000I0J250000D01*
G01*
X121195000Y-102305000D01*
G75*
G02*
X121445000Y-102055000I250000J0D01*
G01*
G37*
G36*
G01*
X112453000Y-107856000D02*
X112453000Y-108806000D01*
G75*
G02*
X112203000Y-109056000I-250000J0D01*
G01*
X111703000Y-109056000D01*
G75*
G02*
X111453000Y-108806000I0J250000D01*
G01*
X111453000Y-107856000D01*
G75*
G02*
X111703000Y-107606000I250000J0D01*
G01*
X112203000Y-107606000D01*
G75*
G02*
X112453000Y-107856000I0J-250000D01*
G01*
G37*
G36*
G01*
X114353000Y-107856000D02*
X114353000Y-108806000D01*
G75*
G02*
X114103000Y-109056000I-250000J0D01*
G01*
X113603000Y-109056000D01*
G75*
G02*
X113353000Y-108806000I0J250000D01*
G01*
X113353000Y-107856000D01*
G75*
G02*
X113603000Y-107606000I250000J0D01*
G01*
X114103000Y-107606000D01*
G75*
G02*
X114353000Y-107856000I0J-250000D01*
G01*
G37*
D24*
X134540000Y-107315000D03*
D29*
X129540000Y-107315000D03*
G36*
G01*
X119540000Y-70935000D02*
X120490000Y-70935000D01*
G75*
G02*
X120740000Y-71185000I0J-250000D01*
G01*
X120740000Y-71685000D01*
G75*
G02*
X120490000Y-71935000I-250000J0D01*
G01*
X119540000Y-71935000D01*
G75*
G02*
X119290000Y-71685000I0J250000D01*
G01*
X119290000Y-71185000D01*
G75*
G02*
X119540000Y-70935000I250000J0D01*
G01*
G37*
G36*
G01*
X119540000Y-69035000D02*
X120490000Y-69035000D01*
G75*
G02*
X120740000Y-69285000I0J-250000D01*
G01*
X120740000Y-69785000D01*
G75*
G02*
X120490000Y-70035000I-250000J0D01*
G01*
X119540000Y-70035000D01*
G75*
G02*
X119290000Y-69785000I0J250000D01*
G01*
X119290000Y-69285000D01*
G75*
G02*
X119540000Y-69035000I250000J0D01*
G01*
G37*
G36*
G01*
X108110000Y-67125000D02*
X109060000Y-67125000D01*
G75*
G02*
X109310000Y-67375000I0J-250000D01*
G01*
X109310000Y-67875000D01*
G75*
G02*
X109060000Y-68125000I-250000J0D01*
G01*
X108110000Y-68125000D01*
G75*
G02*
X107860000Y-67875000I0J250000D01*
G01*
X107860000Y-67375000D01*
G75*
G02*
X108110000Y-67125000I250000J0D01*
G01*
G37*
G36*
G01*
X108110000Y-65225000D02*
X109060000Y-65225000D01*
G75*
G02*
X109310000Y-65475000I0J-250000D01*
G01*
X109310000Y-65975000D01*
G75*
G02*
X109060000Y-66225000I-250000J0D01*
G01*
X108110000Y-66225000D01*
G75*
G02*
X107860000Y-65975000I0J250000D01*
G01*
X107860000Y-65475000D01*
G75*
G02*
X108110000Y-65225000I250000J0D01*
G01*
G37*
G36*
G01*
X108110000Y-84905000D02*
X109060000Y-84905000D01*
G75*
G02*
X109310000Y-85155000I0J-250000D01*
G01*
X109310000Y-85655000D01*
G75*
G02*
X109060000Y-85905000I-250000J0D01*
G01*
X108110000Y-85905000D01*
G75*
G02*
X107860000Y-85655000I0J250000D01*
G01*
X107860000Y-85155000D01*
G75*
G02*
X108110000Y-84905000I250000J0D01*
G01*
G37*
G36*
G01*
X108110000Y-83005000D02*
X109060000Y-83005000D01*
G75*
G02*
X109310000Y-83255000I0J-250000D01*
G01*
X109310000Y-83755000D01*
G75*
G02*
X109060000Y-84005000I-250000J0D01*
G01*
X108110000Y-84005000D01*
G75*
G02*
X107860000Y-83755000I0J250000D01*
G01*
X107860000Y-83255000D01*
G75*
G02*
X108110000Y-83005000I250000J0D01*
G01*
G37*
G36*
G01*
X116680000Y-78925000D02*
X115730000Y-78925000D01*
G75*
G02*
X115480000Y-78675000I0J250000D01*
G01*
X115480000Y-78175000D01*
G75*
G02*
X115730000Y-77925000I250000J0D01*
G01*
X116680000Y-77925000D01*
G75*
G02*
X116930000Y-78175000I0J-250000D01*
G01*
X116930000Y-78675000D01*
G75*
G02*
X116680000Y-78925000I-250000J0D01*
G01*
G37*
G36*
G01*
X116680000Y-80825000D02*
X115730000Y-80825000D01*
G75*
G02*
X115480000Y-80575000I0J250000D01*
G01*
X115480000Y-80075000D01*
G75*
G02*
X115730000Y-79825000I250000J0D01*
G01*
X116680000Y-79825000D01*
G75*
G02*
X116930000Y-80075000I0J-250000D01*
G01*
X116930000Y-80575000D01*
G75*
G02*
X116680000Y-80825000I-250000J0D01*
G01*
G37*
G36*
G01*
X116680000Y-92895000D02*
X115730000Y-92895000D01*
G75*
G02*
X115480000Y-92645000I0J250000D01*
G01*
X115480000Y-92145000D01*
G75*
G02*
X115730000Y-91895000I250000J0D01*
G01*
X116680000Y-91895000D01*
G75*
G02*
X116930000Y-92145000I0J-250000D01*
G01*
X116930000Y-92645000D01*
G75*
G02*
X116680000Y-92895000I-250000J0D01*
G01*
G37*
G36*
G01*
X116680000Y-94795000D02*
X115730000Y-94795000D01*
G75*
G02*
X115480000Y-94545000I0J250000D01*
G01*
X115480000Y-94045000D01*
G75*
G02*
X115730000Y-93795000I250000J0D01*
G01*
X116680000Y-93795000D01*
G75*
G02*
X116930000Y-94045000I0J-250000D01*
G01*
X116930000Y-94545000D01*
G75*
G02*
X116680000Y-94795000I-250000J0D01*
G01*
G37*
G36*
G01*
X111600000Y-78925000D02*
X110650000Y-78925000D01*
G75*
G02*
X110400000Y-78675000I0J250000D01*
G01*
X110400000Y-78175000D01*
G75*
G02*
X110650000Y-77925000I250000J0D01*
G01*
X111600000Y-77925000D01*
G75*
G02*
X111850000Y-78175000I0J-250000D01*
G01*
X111850000Y-78675000D01*
G75*
G02*
X111600000Y-78925000I-250000J0D01*
G01*
G37*
G36*
G01*
X111600000Y-80825000D02*
X110650000Y-80825000D01*
G75*
G02*
X110400000Y-80575000I0J250000D01*
G01*
X110400000Y-80075000D01*
G75*
G02*
X110650000Y-79825000I250000J0D01*
G01*
X111600000Y-79825000D01*
G75*
G02*
X111850000Y-80075000I0J-250000D01*
G01*
X111850000Y-80575000D01*
G75*
G02*
X111600000Y-80825000I-250000J0D01*
G01*
G37*
G36*
G01*
X110650000Y-93795000D02*
X111600000Y-93795000D01*
G75*
G02*
X111850000Y-94045000I0J-250000D01*
G01*
X111850000Y-94545000D01*
G75*
G02*
X111600000Y-94795000I-250000J0D01*
G01*
X110650000Y-94795000D01*
G75*
G02*
X110400000Y-94545000I0J250000D01*
G01*
X110400000Y-94045000D01*
G75*
G02*
X110650000Y-93795000I250000J0D01*
G01*
G37*
G36*
G01*
X110650000Y-91895000D02*
X111600000Y-91895000D01*
G75*
G02*
X111850000Y-92145000I0J-250000D01*
G01*
X111850000Y-92645000D01*
G75*
G02*
X111600000Y-92895000I-250000J0D01*
G01*
X110650000Y-92895000D01*
G75*
G02*
X110400000Y-92645000I0J250000D01*
G01*
X110400000Y-92145000D01*
G75*
G02*
X110650000Y-91895000I250000J0D01*
G01*
G37*
G36*
G01*
X159225000Y-63685000D02*
X158275000Y-63685000D01*
G75*
G02*
X158025000Y-63435000I0J250000D01*
G01*
X158025000Y-62935000D01*
G75*
G02*
X158275000Y-62685000I250000J0D01*
G01*
X159225000Y-62685000D01*
G75*
G02*
X159475000Y-62935000I0J-250000D01*
G01*
X159475000Y-63435000D01*
G75*
G02*
X159225000Y-63685000I-250000J0D01*
G01*
G37*
G36*
G01*
X159225000Y-65585000D02*
X158275000Y-65585000D01*
G75*
G02*
X158025000Y-65335000I0J250000D01*
G01*
X158025000Y-64835000D01*
G75*
G02*
X158275000Y-64585000I250000J0D01*
G01*
X159225000Y-64585000D01*
G75*
G02*
X159475000Y-64835000I0J-250000D01*
G01*
X159475000Y-65335000D01*
G75*
G02*
X159225000Y-65585000I-250000J0D01*
G01*
G37*
G36*
G01*
X134145000Y-94430000D02*
X135095000Y-94430000D01*
G75*
G02*
X135345000Y-94680000I0J-250000D01*
G01*
X135345000Y-95180000D01*
G75*
G02*
X135095000Y-95430000I-250000J0D01*
G01*
X134145000Y-95430000D01*
G75*
G02*
X133895000Y-95180000I0J250000D01*
G01*
X133895000Y-94680000D01*
G75*
G02*
X134145000Y-94430000I250000J0D01*
G01*
G37*
G36*
G01*
X134145000Y-92530000D02*
X135095000Y-92530000D01*
G75*
G02*
X135345000Y-92780000I0J-250000D01*
G01*
X135345000Y-93280000D01*
G75*
G02*
X135095000Y-93530000I-250000J0D01*
G01*
X134145000Y-93530000D01*
G75*
G02*
X133895000Y-93280000I0J250000D01*
G01*
X133895000Y-92780000D01*
G75*
G02*
X134145000Y-92530000I250000J0D01*
G01*
G37*
G36*
G01*
X132555000Y-93530000D02*
X131605000Y-93530000D01*
G75*
G02*
X131355000Y-93280000I0J250000D01*
G01*
X131355000Y-92780000D01*
G75*
G02*
X131605000Y-92530000I250000J0D01*
G01*
X132555000Y-92530000D01*
G75*
G02*
X132805000Y-92780000I0J-250000D01*
G01*
X132805000Y-93280000D01*
G75*
G02*
X132555000Y-93530000I-250000J0D01*
G01*
G37*
G36*
G01*
X132555000Y-95430000D02*
X131605000Y-95430000D01*
G75*
G02*
X131355000Y-95180000I0J250000D01*
G01*
X131355000Y-94680000D01*
G75*
G02*
X131605000Y-94430000I250000J0D01*
G01*
X132555000Y-94430000D01*
G75*
G02*
X132805000Y-94680000I0J-250000D01*
G01*
X132805000Y-95180000D01*
G75*
G02*
X132555000Y-95430000I-250000J0D01*
G01*
G37*
G36*
G01*
X138615000Y-99220000D02*
X138615000Y-100170000D01*
G75*
G02*
X138365000Y-100420000I-250000J0D01*
G01*
X137865000Y-100420000D01*
G75*
G02*
X137615000Y-100170000I0J250000D01*
G01*
X137615000Y-99220000D01*
G75*
G02*
X137865000Y-98970000I250000J0D01*
G01*
X138365000Y-98970000D01*
G75*
G02*
X138615000Y-99220000I0J-250000D01*
G01*
G37*
G36*
G01*
X140515000Y-99220000D02*
X140515000Y-100170000D01*
G75*
G02*
X140265000Y-100420000I-250000J0D01*
G01*
X139765000Y-100420000D01*
G75*
G02*
X139515000Y-100170000I0J250000D01*
G01*
X139515000Y-99220000D01*
G75*
G02*
X139765000Y-98970000I250000J0D01*
G01*
X140265000Y-98970000D01*
G75*
G02*
X140515000Y-99220000I0J-250000D01*
G01*
G37*
G36*
G01*
X151605000Y-85910000D02*
X150655000Y-85910000D01*
G75*
G02*
X150405000Y-85660000I0J250000D01*
G01*
X150405000Y-85160000D01*
G75*
G02*
X150655000Y-84910000I250000J0D01*
G01*
X151605000Y-84910000D01*
G75*
G02*
X151855000Y-85160000I0J-250000D01*
G01*
X151855000Y-85660000D01*
G75*
G02*
X151605000Y-85910000I-250000J0D01*
G01*
G37*
G36*
G01*
X151605000Y-87810000D02*
X150655000Y-87810000D01*
G75*
G02*
X150405000Y-87560000I0J250000D01*
G01*
X150405000Y-87060000D01*
G75*
G02*
X150655000Y-86810000I250000J0D01*
G01*
X151605000Y-86810000D01*
G75*
G02*
X151855000Y-87060000I0J-250000D01*
G01*
X151855000Y-87560000D01*
G75*
G02*
X151605000Y-87810000I-250000J0D01*
G01*
G37*
G36*
G01*
X148405000Y-100170000D02*
X148405000Y-99220000D01*
G75*
G02*
X148655000Y-98970000I250000J0D01*
G01*
X149155000Y-98970000D01*
G75*
G02*
X149405000Y-99220000I0J-250000D01*
G01*
X149405000Y-100170000D01*
G75*
G02*
X149155000Y-100420000I-250000J0D01*
G01*
X148655000Y-100420000D01*
G75*
G02*
X148405000Y-100170000I0J250000D01*
G01*
G37*
G36*
G01*
X146505000Y-100170000D02*
X146505000Y-99220000D01*
G75*
G02*
X146755000Y-98970000I250000J0D01*
G01*
X147255000Y-98970000D01*
G75*
G02*
X147505000Y-99220000I0J-250000D01*
G01*
X147505000Y-100170000D01*
G75*
G02*
X147255000Y-100420000I-250000J0D01*
G01*
X146755000Y-100420000D01*
G75*
G02*
X146505000Y-100170000I0J250000D01*
G01*
G37*
G36*
G01*
X135095000Y-85910000D02*
X134145000Y-85910000D01*
G75*
G02*
X133895000Y-85660000I0J250000D01*
G01*
X133895000Y-85160000D01*
G75*
G02*
X134145000Y-84910000I250000J0D01*
G01*
X135095000Y-84910000D01*
G75*
G02*
X135345000Y-85160000I0J-250000D01*
G01*
X135345000Y-85660000D01*
G75*
G02*
X135095000Y-85910000I-250000J0D01*
G01*
G37*
G36*
G01*
X135095000Y-87810000D02*
X134145000Y-87810000D01*
G75*
G02*
X133895000Y-87560000I0J250000D01*
G01*
X133895000Y-87060000D01*
G75*
G02*
X134145000Y-86810000I250000J0D01*
G01*
X135095000Y-86810000D01*
G75*
G02*
X135345000Y-87060000I0J-250000D01*
G01*
X135345000Y-87560000D01*
G75*
G02*
X135095000Y-87810000I-250000J0D01*
G01*
G37*
G36*
G01*
X138880000Y-83025000D02*
X138880000Y-82075000D01*
G75*
G02*
X139130000Y-81825000I250000J0D01*
G01*
X139630000Y-81825000D01*
G75*
G02*
X139880000Y-82075000I0J-250000D01*
G01*
X139880000Y-83025000D01*
G75*
G02*
X139630000Y-83275000I-250000J0D01*
G01*
X139130000Y-83275000D01*
G75*
G02*
X138880000Y-83025000I0J250000D01*
G01*
G37*
G36*
G01*
X136980000Y-83025000D02*
X136980000Y-82075000D01*
G75*
G02*
X137230000Y-81825000I250000J0D01*
G01*
X137730000Y-81825000D01*
G75*
G02*
X137980000Y-82075000I0J-250000D01*
G01*
X137980000Y-83025000D01*
G75*
G02*
X137730000Y-83275000I-250000J0D01*
G01*
X137230000Y-83275000D01*
G75*
G02*
X136980000Y-83025000I0J250000D01*
G01*
G37*
G36*
G01*
X138615000Y-101760000D02*
X138615000Y-102710000D01*
G75*
G02*
X138365000Y-102960000I-250000J0D01*
G01*
X137865000Y-102960000D01*
G75*
G02*
X137615000Y-102710000I0J250000D01*
G01*
X137615000Y-101760000D01*
G75*
G02*
X137865000Y-101510000I250000J0D01*
G01*
X138365000Y-101510000D01*
G75*
G02*
X138615000Y-101760000I0J-250000D01*
G01*
G37*
G36*
G01*
X140515000Y-101760000D02*
X140515000Y-102710000D01*
G75*
G02*
X140265000Y-102960000I-250000J0D01*
G01*
X139765000Y-102960000D01*
G75*
G02*
X139515000Y-102710000I0J250000D01*
G01*
X139515000Y-101760000D01*
G75*
G02*
X139765000Y-101510000I250000J0D01*
G01*
X140265000Y-101510000D01*
G75*
G02*
X140515000Y-101760000I0J-250000D01*
G01*
G37*
G36*
G01*
X154145000Y-85910000D02*
X153195000Y-85910000D01*
G75*
G02*
X152945000Y-85660000I0J250000D01*
G01*
X152945000Y-85160000D01*
G75*
G02*
X153195000Y-84910000I250000J0D01*
G01*
X154145000Y-84910000D01*
G75*
G02*
X154395000Y-85160000I0J-250000D01*
G01*
X154395000Y-85660000D01*
G75*
G02*
X154145000Y-85910000I-250000J0D01*
G01*
G37*
G36*
G01*
X154145000Y-87810000D02*
X153195000Y-87810000D01*
G75*
G02*
X152945000Y-87560000I0J250000D01*
G01*
X152945000Y-87060000D01*
G75*
G02*
X153195000Y-86810000I250000J0D01*
G01*
X154145000Y-86810000D01*
G75*
G02*
X154395000Y-87060000I0J-250000D01*
G01*
X154395000Y-87560000D01*
G75*
G02*
X154145000Y-87810000I-250000J0D01*
G01*
G37*
G36*
G01*
X145575000Y-103320000D02*
X146525000Y-103320000D01*
G75*
G02*
X146775000Y-103570000I0J-250000D01*
G01*
X146775000Y-104070000D01*
G75*
G02*
X146525000Y-104320000I-250000J0D01*
G01*
X145575000Y-104320000D01*
G75*
G02*
X145325000Y-104070000I0J250000D01*
G01*
X145325000Y-103570000D01*
G75*
G02*
X145575000Y-103320000I250000J0D01*
G01*
G37*
G36*
G01*
X145575000Y-101420000D02*
X146525000Y-101420000D01*
G75*
G02*
X146775000Y-101670000I0J-250000D01*
G01*
X146775000Y-102170000D01*
G75*
G02*
X146525000Y-102420000I-250000J0D01*
G01*
X145575000Y-102420000D01*
G75*
G02*
X145325000Y-102170000I0J250000D01*
G01*
X145325000Y-101670000D01*
G75*
G02*
X145575000Y-101420000I250000J0D01*
G01*
G37*
G36*
G01*
X123411000Y-92260000D02*
X122461000Y-92260000D01*
G75*
G02*
X122211000Y-92010000I0J250000D01*
G01*
X122211000Y-91510000D01*
G75*
G02*
X122461000Y-91260000I250000J0D01*
G01*
X123411000Y-91260000D01*
G75*
G02*
X123661000Y-91510000I0J-250000D01*
G01*
X123661000Y-92010000D01*
G75*
G02*
X123411000Y-92260000I-250000J0D01*
G01*
G37*
G36*
G01*
X123411000Y-94160000D02*
X122461000Y-94160000D01*
G75*
G02*
X122211000Y-93910000I0J250000D01*
G01*
X122211000Y-93410000D01*
G75*
G02*
X122461000Y-93160000I250000J0D01*
G01*
X123411000Y-93160000D01*
G75*
G02*
X123661000Y-93410000I0J-250000D01*
G01*
X123661000Y-93910000D01*
G75*
G02*
X123411000Y-94160000I-250000J0D01*
G01*
G37*
G36*
G01*
X122461000Y-86810000D02*
X123411000Y-86810000D01*
G75*
G02*
X123661000Y-87060000I0J-250000D01*
G01*
X123661000Y-87560000D01*
G75*
G02*
X123411000Y-87810000I-250000J0D01*
G01*
X122461000Y-87810000D01*
G75*
G02*
X122211000Y-87560000I0J250000D01*
G01*
X122211000Y-87060000D01*
G75*
G02*
X122461000Y-86810000I250000J0D01*
G01*
G37*
G36*
G01*
X122461000Y-84910000D02*
X123411000Y-84910000D01*
G75*
G02*
X123661000Y-85160000I0J-250000D01*
G01*
X123661000Y-85660000D01*
G75*
G02*
X123411000Y-85910000I-250000J0D01*
G01*
X122461000Y-85910000D01*
G75*
G02*
X122211000Y-85660000I0J250000D01*
G01*
X122211000Y-85160000D01*
G75*
G02*
X122461000Y-84910000I250000J0D01*
G01*
G37*
M02*
