G04 #@! TF.GenerationSoftware,KiCad,Pcbnew,5.1.10-88a1d61d58~90~ubuntu20.04.1*
G04 #@! TF.CreationDate,2021-08-15T15:07:41+03:00*
G04 #@! TF.ProjectId,DepremSanat,44657072-656d-4536-916e-61742e6b6963,rev?*
G04 #@! TF.SameCoordinates,Original*
G04 #@! TF.FileFunction,Copper,L2,Inr*
G04 #@! TF.FilePolarity,Positive*
%FSLAX46Y46*%
G04 Gerber Fmt 4.6, Leading zero omitted, Abs format (unit mm)*
G04 Created by KiCad (PCBNEW 5.1.10-88a1d61d58~90~ubuntu20.04.1) date 2021-08-15 15:07:41*
%MOMM*%
%LPD*%
G01*
G04 APERTURE LIST*
G04 #@! TA.AperFunction,ComponentPad*
%ADD10C,1.800000*%
G04 #@! TD*
G04 #@! TA.AperFunction,ComponentPad*
%ADD11C,2.000000*%
G04 #@! TD*
G04 #@! TA.AperFunction,ComponentPad*
%ADD12R,1.800000X1.800000*%
G04 #@! TD*
G04 #@! TA.AperFunction,ComponentPad*
%ADD13O,1.700000X1.700000*%
G04 #@! TD*
G04 #@! TA.AperFunction,ComponentPad*
%ADD14R,1.700000X1.700000*%
G04 #@! TD*
G04 #@! TA.AperFunction,ComponentPad*
%ADD15R,2.000000X2.000000*%
G04 #@! TD*
G04 #@! TA.AperFunction,ViaPad*
%ADD16C,0.800000*%
G04 #@! TD*
G04 #@! TA.AperFunction,ViaPad*
%ADD17C,1.400000*%
G04 #@! TD*
G04 #@! TA.AperFunction,ViaPad*
%ADD18C,1.000000*%
G04 #@! TD*
G04 #@! TA.AperFunction,Conductor*
%ADD19C,0.254000*%
G04 #@! TD*
G04 #@! TA.AperFunction,Conductor*
%ADD20C,0.100000*%
G04 #@! TD*
G04 APERTURE END LIST*
D10*
X132990000Y-119825000D03*
X151490000Y-119825000D03*
X144990000Y-119825000D03*
X132990000Y-115125000D03*
D11*
X155488000Y-114554000D03*
X160488000Y-114554000D03*
X118785000Y-114427000D03*
X123785000Y-114427000D03*
D12*
X111150000Y-69390000D03*
X111150000Y-65890000D03*
X117450000Y-69390000D03*
X117450000Y-65890000D03*
X111150000Y-62690000D03*
X117450000Y-62690000D03*
D11*
X183515000Y-119340000D03*
X183515000Y-114340000D03*
X183515000Y-108545000D03*
X183515000Y-103545000D03*
X183515000Y-97750000D03*
X183515000Y-92750000D03*
X183515000Y-86955000D03*
X183515000Y-81955000D03*
X183515000Y-76160000D03*
X183515000Y-71160000D03*
X183515000Y-65365000D03*
X183515000Y-60365000D03*
D13*
X131445000Y-71755000D03*
X131445000Y-69215000D03*
X131445000Y-66675000D03*
D14*
X131445000Y-64135000D03*
D11*
X134540000Y-107315000D03*
D15*
X129540000Y-107315000D03*
D16*
X132080000Y-91440000D03*
X134620000Y-88900000D03*
X118110000Y-78105000D03*
X118110000Y-92710000D03*
X116205000Y-88900000D03*
X111760000Y-99695000D03*
X121285000Y-100330000D03*
X147320000Y-104140000D03*
X150495000Y-100330000D03*
X136525000Y-102235000D03*
X136652000Y-99568000D03*
X134620000Y-83820000D03*
X139700000Y-81280000D03*
X150876000Y-83820000D03*
X153416000Y-83820000D03*
X108712000Y-86868000D03*
X136144000Y-79248000D03*
D17*
X167005000Y-118745000D03*
X167005000Y-107950000D03*
X167005000Y-97155000D03*
X167005000Y-86360000D03*
X167005000Y-75565000D03*
X167005000Y-64770000D03*
D16*
X110929437Y-108725010D03*
X142240000Y-59690000D03*
X156210000Y-59055000D03*
X153670000Y-70485000D03*
X147955000Y-70485000D03*
X152400000Y-59055000D03*
X158750000Y-66675000D03*
X115570000Y-117475000D03*
X111760000Y-113030000D03*
X143510000Y-110490000D03*
X132080000Y-88900000D03*
X130175000Y-88265000D03*
X129540000Y-84455000D03*
X127000000Y-81915000D03*
X122555000Y-81915000D03*
X121285000Y-86995000D03*
X121285000Y-92075000D03*
X121285000Y-95885000D03*
X124460000Y-97155000D03*
X127635000Y-97155000D03*
X129540000Y-92710000D03*
X134620000Y-91440000D03*
X130810000Y-93980000D03*
X116205000Y-100330000D03*
X141224000Y-100076000D03*
X141224000Y-102108000D03*
X147828000Y-101092000D03*
X136144000Y-86360000D03*
X137160000Y-81280000D03*
X132080000Y-83820000D03*
X162015010Y-73025000D03*
X159385000Y-73025000D03*
X155575000Y-73660000D03*
X150495000Y-73025000D03*
X137160000Y-74295000D03*
X141980925Y-75553377D03*
X149860000Y-59055000D03*
X158750000Y-61595000D03*
X152400000Y-86360000D03*
X108585000Y-81915000D03*
X107950000Y-97790000D03*
X132080000Y-96520000D03*
D18*
X115824000Y-111252000D03*
D16*
X165608000Y-58928000D03*
X165100000Y-70104000D03*
X165100000Y-80264000D03*
X165100000Y-91440000D03*
X165100000Y-102235000D03*
X165100000Y-112395000D03*
X121920000Y-106045000D03*
X109220000Y-109220000D03*
X109220000Y-105410000D03*
X133604000Y-86360000D03*
X138839303Y-90776496D03*
X150359255Y-88885141D03*
X147955000Y-80645000D03*
X165100000Y-61976000D03*
X165100000Y-72644000D03*
X164560552Y-74536226D03*
X165100000Y-83820000D03*
X158403563Y-90068244D03*
X165100000Y-93980000D03*
X157040160Y-89730160D03*
X165100000Y-104648000D03*
X162560000Y-101092000D03*
X153670000Y-92710000D03*
X158750000Y-86360000D03*
X156845000Y-86360000D03*
X150950467Y-92201828D03*
X146050000Y-82550000D03*
X144145000Y-79375000D03*
X146050000Y-83820000D03*
X142875000Y-80645000D03*
X120015000Y-97155000D03*
X118110000Y-76200000D03*
D19*
X189259659Y-57688625D02*
X189509429Y-57764035D01*
X189739792Y-57886522D01*
X189941980Y-58051422D01*
X190108286Y-58252450D01*
X190232378Y-58481954D01*
X190309531Y-58731195D01*
X190340000Y-59021088D01*
X190340001Y-119967711D01*
X190311375Y-120259660D01*
X190235965Y-120509429D01*
X190113477Y-120739794D01*
X189948579Y-120941979D01*
X189747546Y-121108288D01*
X189518046Y-121232378D01*
X189268805Y-121309531D01*
X188978911Y-121340000D01*
X151741731Y-121340000D01*
X151937743Y-121301011D01*
X152217095Y-121185299D01*
X152468505Y-121017312D01*
X152682312Y-120803505D01*
X152850299Y-120552095D01*
X152966011Y-120272743D01*
X153025000Y-119976184D01*
X153025000Y-119673816D01*
X152966011Y-119377257D01*
X152883877Y-119178967D01*
X181880000Y-119178967D01*
X181880000Y-119501033D01*
X181942832Y-119816912D01*
X182066082Y-120114463D01*
X182245013Y-120382252D01*
X182472748Y-120609987D01*
X182740537Y-120788918D01*
X183038088Y-120912168D01*
X183353967Y-120975000D01*
X183676033Y-120975000D01*
X183991912Y-120912168D01*
X184289463Y-120788918D01*
X184557252Y-120609987D01*
X184784987Y-120382252D01*
X184963918Y-120114463D01*
X185087168Y-119816912D01*
X185150000Y-119501033D01*
X185150000Y-119178967D01*
X185087168Y-118863088D01*
X184963918Y-118565537D01*
X184784987Y-118297748D01*
X184557252Y-118070013D01*
X184289463Y-117891082D01*
X183991912Y-117767832D01*
X183676033Y-117705000D01*
X183353967Y-117705000D01*
X183038088Y-117767832D01*
X182740537Y-117891082D01*
X182472748Y-118070013D01*
X182245013Y-118297748D01*
X182066082Y-118565537D01*
X181942832Y-118863088D01*
X181880000Y-119178967D01*
X152883877Y-119178967D01*
X152850299Y-119097905D01*
X152682312Y-118846495D01*
X152468505Y-118632688D01*
X152217095Y-118464701D01*
X151937743Y-118348989D01*
X151641184Y-118290000D01*
X151338816Y-118290000D01*
X151042257Y-118348989D01*
X150762905Y-118464701D01*
X150511495Y-118632688D01*
X150297688Y-118846495D01*
X150129701Y-119097905D01*
X150013989Y-119377257D01*
X149955000Y-119673816D01*
X149955000Y-119976184D01*
X150013989Y-120272743D01*
X150129701Y-120552095D01*
X150297688Y-120803505D01*
X150511495Y-121017312D01*
X150762905Y-121185299D01*
X151042257Y-121301011D01*
X151238269Y-121340000D01*
X145241731Y-121340000D01*
X145437743Y-121301011D01*
X145717095Y-121185299D01*
X145968505Y-121017312D01*
X146182312Y-120803505D01*
X146350299Y-120552095D01*
X146466011Y-120272743D01*
X146525000Y-119976184D01*
X146525000Y-119673816D01*
X146466011Y-119377257D01*
X146350299Y-119097905D01*
X146182312Y-118846495D01*
X145968505Y-118632688D01*
X145717095Y-118464701D01*
X145437743Y-118348989D01*
X145141184Y-118290000D01*
X144838816Y-118290000D01*
X144542257Y-118348989D01*
X144262905Y-118464701D01*
X144011495Y-118632688D01*
X143797688Y-118846495D01*
X143629701Y-119097905D01*
X143513989Y-119377257D01*
X143455000Y-119673816D01*
X143455000Y-119976184D01*
X143513989Y-120272743D01*
X143629701Y-120552095D01*
X143797688Y-120803505D01*
X144011495Y-121017312D01*
X144262905Y-121185299D01*
X144542257Y-121301011D01*
X144738269Y-121340000D01*
X133241731Y-121340000D01*
X133437743Y-121301011D01*
X133717095Y-121185299D01*
X133968505Y-121017312D01*
X134182312Y-120803505D01*
X134350299Y-120552095D01*
X134466011Y-120272743D01*
X134525000Y-119976184D01*
X134525000Y-119673816D01*
X134466011Y-119377257D01*
X134350299Y-119097905D01*
X134182312Y-118846495D01*
X133968505Y-118632688D01*
X133717095Y-118464701D01*
X133437743Y-118348989D01*
X133141184Y-118290000D01*
X132838816Y-118290000D01*
X132542257Y-118348989D01*
X132262905Y-118464701D01*
X132011495Y-118632688D01*
X131797688Y-118846495D01*
X131629701Y-119097905D01*
X131513989Y-119377257D01*
X131455000Y-119673816D01*
X131455000Y-119976184D01*
X131513989Y-120272743D01*
X131629701Y-120552095D01*
X131797688Y-120803505D01*
X132011495Y-121017312D01*
X132262905Y-121185299D01*
X132542257Y-121301011D01*
X132738269Y-121340000D01*
X108032279Y-121340000D01*
X107740340Y-121311375D01*
X107490571Y-121235965D01*
X107260206Y-121113477D01*
X107058021Y-120948579D01*
X106891712Y-120747546D01*
X106767622Y-120518046D01*
X106690469Y-120268805D01*
X106660000Y-119978911D01*
X106660000Y-115562413D01*
X117829192Y-115562413D01*
X117924956Y-115826814D01*
X118214571Y-115967704D01*
X118526108Y-116049384D01*
X118847595Y-116068718D01*
X119166675Y-116024961D01*
X119471088Y-115919795D01*
X119645044Y-115826814D01*
X119740808Y-115562413D01*
X118785000Y-114606605D01*
X117829192Y-115562413D01*
X106660000Y-115562413D01*
X106660000Y-114489595D01*
X117143282Y-114489595D01*
X117187039Y-114808675D01*
X117292205Y-115113088D01*
X117385186Y-115287044D01*
X117649587Y-115382808D01*
X118605395Y-114427000D01*
X118964605Y-114427000D01*
X119920413Y-115382808D01*
X120184814Y-115287044D01*
X120325704Y-114997429D01*
X120407384Y-114685892D01*
X120426718Y-114364405D01*
X120413219Y-114265967D01*
X122150000Y-114265967D01*
X122150000Y-114588033D01*
X122212832Y-114903912D01*
X122336082Y-115201463D01*
X122515013Y-115469252D01*
X122742748Y-115696987D01*
X123010537Y-115875918D01*
X123308088Y-115999168D01*
X123623967Y-116062000D01*
X123946033Y-116062000D01*
X124261912Y-115999168D01*
X124559463Y-115875918D01*
X124827252Y-115696987D01*
X125054987Y-115469252D01*
X125233918Y-115201463D01*
X125328212Y-114973816D01*
X131455000Y-114973816D01*
X131455000Y-115276184D01*
X131513989Y-115572743D01*
X131629701Y-115852095D01*
X131797688Y-116103505D01*
X132011495Y-116317312D01*
X132262905Y-116485299D01*
X132542257Y-116601011D01*
X132838816Y-116660000D01*
X133141184Y-116660000D01*
X133437743Y-116601011D01*
X133717095Y-116485299D01*
X133968505Y-116317312D01*
X134182312Y-116103505D01*
X134350299Y-115852095D01*
X134466011Y-115572743D01*
X134525000Y-115276184D01*
X134525000Y-114973816D01*
X134466011Y-114677257D01*
X134350299Y-114397905D01*
X134347000Y-114392967D01*
X153853000Y-114392967D01*
X153853000Y-114715033D01*
X153915832Y-115030912D01*
X154039082Y-115328463D01*
X154218013Y-115596252D01*
X154445748Y-115823987D01*
X154713537Y-116002918D01*
X155011088Y-116126168D01*
X155326967Y-116189000D01*
X155649033Y-116189000D01*
X155964912Y-116126168D01*
X156262463Y-116002918D01*
X156530252Y-115823987D01*
X156757987Y-115596252D01*
X156936918Y-115328463D01*
X157060168Y-115030912D01*
X157123000Y-114715033D01*
X157123000Y-114392967D01*
X158853000Y-114392967D01*
X158853000Y-114715033D01*
X158915832Y-115030912D01*
X159039082Y-115328463D01*
X159218013Y-115596252D01*
X159445748Y-115823987D01*
X159713537Y-116002918D01*
X160011088Y-116126168D01*
X160326967Y-116189000D01*
X160649033Y-116189000D01*
X160964912Y-116126168D01*
X161262463Y-116002918D01*
X161530252Y-115823987D01*
X161757987Y-115596252D01*
X161936918Y-115328463D01*
X162060168Y-115030912D01*
X162123000Y-114715033D01*
X162123000Y-114392967D01*
X162080433Y-114178967D01*
X181880000Y-114178967D01*
X181880000Y-114501033D01*
X181942832Y-114816912D01*
X182066082Y-115114463D01*
X182245013Y-115382252D01*
X182472748Y-115609987D01*
X182740537Y-115788918D01*
X183038088Y-115912168D01*
X183353967Y-115975000D01*
X183676033Y-115975000D01*
X183991912Y-115912168D01*
X184289463Y-115788918D01*
X184557252Y-115609987D01*
X184784987Y-115382252D01*
X184963918Y-115114463D01*
X185087168Y-114816912D01*
X185150000Y-114501033D01*
X185150000Y-114178967D01*
X185087168Y-113863088D01*
X184963918Y-113565537D01*
X184784987Y-113297748D01*
X184557252Y-113070013D01*
X184289463Y-112891082D01*
X183991912Y-112767832D01*
X183676033Y-112705000D01*
X183353967Y-112705000D01*
X183038088Y-112767832D01*
X182740537Y-112891082D01*
X182472748Y-113070013D01*
X182245013Y-113297748D01*
X182066082Y-113565537D01*
X181942832Y-113863088D01*
X181880000Y-114178967D01*
X162080433Y-114178967D01*
X162060168Y-114077088D01*
X161936918Y-113779537D01*
X161757987Y-113511748D01*
X161530252Y-113284013D01*
X161262463Y-113105082D01*
X160964912Y-112981832D01*
X160649033Y-112919000D01*
X160326967Y-112919000D01*
X160011088Y-112981832D01*
X159713537Y-113105082D01*
X159445748Y-113284013D01*
X159218013Y-113511748D01*
X159039082Y-113779537D01*
X158915832Y-114077088D01*
X158853000Y-114392967D01*
X157123000Y-114392967D01*
X157060168Y-114077088D01*
X156936918Y-113779537D01*
X156757987Y-113511748D01*
X156530252Y-113284013D01*
X156262463Y-113105082D01*
X155964912Y-112981832D01*
X155649033Y-112919000D01*
X155326967Y-112919000D01*
X155011088Y-112981832D01*
X154713537Y-113105082D01*
X154445748Y-113284013D01*
X154218013Y-113511748D01*
X154039082Y-113779537D01*
X153915832Y-114077088D01*
X153853000Y-114392967D01*
X134347000Y-114392967D01*
X134182312Y-114146495D01*
X133968505Y-113932688D01*
X133717095Y-113764701D01*
X133437743Y-113648989D01*
X133141184Y-113590000D01*
X132838816Y-113590000D01*
X132542257Y-113648989D01*
X132262905Y-113764701D01*
X132011495Y-113932688D01*
X131797688Y-114146495D01*
X131629701Y-114397905D01*
X131513989Y-114677257D01*
X131455000Y-114973816D01*
X125328212Y-114973816D01*
X125357168Y-114903912D01*
X125420000Y-114588033D01*
X125420000Y-114265967D01*
X125357168Y-113950088D01*
X125233918Y-113652537D01*
X125054987Y-113384748D01*
X124827252Y-113157013D01*
X124559463Y-112978082D01*
X124261912Y-112854832D01*
X123946033Y-112792000D01*
X123623967Y-112792000D01*
X123308088Y-112854832D01*
X123010537Y-112978082D01*
X122742748Y-113157013D01*
X122515013Y-113384748D01*
X122336082Y-113652537D01*
X122212832Y-113950088D01*
X122150000Y-114265967D01*
X120413219Y-114265967D01*
X120382961Y-114045325D01*
X120277795Y-113740912D01*
X120184814Y-113566956D01*
X119920413Y-113471192D01*
X118964605Y-114427000D01*
X118605395Y-114427000D01*
X117649587Y-113471192D01*
X117385186Y-113566956D01*
X117244296Y-113856571D01*
X117162616Y-114168108D01*
X117143282Y-114489595D01*
X106660000Y-114489595D01*
X106660000Y-113291587D01*
X117829192Y-113291587D01*
X118785000Y-114247395D01*
X119740808Y-113291587D01*
X119645044Y-113027186D01*
X119355429Y-112886296D01*
X119043892Y-112804616D01*
X118722405Y-112785282D01*
X118403325Y-112829039D01*
X118098912Y-112934205D01*
X117924956Y-113027186D01*
X117829192Y-113291587D01*
X106660000Y-113291587D01*
X106660000Y-111140212D01*
X114689000Y-111140212D01*
X114689000Y-111363788D01*
X114732617Y-111583067D01*
X114818176Y-111789624D01*
X114942388Y-111975520D01*
X115100480Y-112133612D01*
X115286376Y-112257824D01*
X115492933Y-112343383D01*
X115712212Y-112387000D01*
X115935788Y-112387000D01*
X116155067Y-112343383D01*
X116276554Y-112293061D01*
X164065000Y-112293061D01*
X164065000Y-112496939D01*
X164104774Y-112696898D01*
X164182795Y-112885256D01*
X164296063Y-113054774D01*
X164440226Y-113198937D01*
X164609744Y-113312205D01*
X164798102Y-113390226D01*
X164998061Y-113430000D01*
X165201939Y-113430000D01*
X165401898Y-113390226D01*
X165590256Y-113312205D01*
X165759774Y-113198937D01*
X165903937Y-113054774D01*
X166017205Y-112885256D01*
X166095226Y-112696898D01*
X166135000Y-112496939D01*
X166135000Y-112293061D01*
X166095226Y-112093102D01*
X166017205Y-111904744D01*
X165903937Y-111735226D01*
X165759774Y-111591063D01*
X165590256Y-111477795D01*
X165401898Y-111399774D01*
X165201939Y-111360000D01*
X164998061Y-111360000D01*
X164798102Y-111399774D01*
X164609744Y-111477795D01*
X164440226Y-111591063D01*
X164296063Y-111735226D01*
X164182795Y-111904744D01*
X164104774Y-112093102D01*
X164065000Y-112293061D01*
X116276554Y-112293061D01*
X116361624Y-112257824D01*
X116547520Y-112133612D01*
X116705612Y-111975520D01*
X116829824Y-111789624D01*
X116915383Y-111583067D01*
X116959000Y-111363788D01*
X116959000Y-111140212D01*
X116915383Y-110920933D01*
X116829824Y-110714376D01*
X116705612Y-110528480D01*
X116547520Y-110370388D01*
X116361624Y-110246176D01*
X116155067Y-110160617D01*
X115935788Y-110117000D01*
X115712212Y-110117000D01*
X115492933Y-110160617D01*
X115286376Y-110246176D01*
X115100480Y-110370388D01*
X114942388Y-110528480D01*
X114818176Y-110714376D01*
X114732617Y-110920933D01*
X114689000Y-111140212D01*
X106660000Y-111140212D01*
X106660000Y-109118061D01*
X108185000Y-109118061D01*
X108185000Y-109321939D01*
X108224774Y-109521898D01*
X108302795Y-109710256D01*
X108416063Y-109879774D01*
X108560226Y-110023937D01*
X108729744Y-110137205D01*
X108918102Y-110215226D01*
X109118061Y-110255000D01*
X109321939Y-110255000D01*
X109521898Y-110215226D01*
X109710256Y-110137205D01*
X109879774Y-110023937D01*
X110023937Y-109879774D01*
X110137205Y-109710256D01*
X110215226Y-109521898D01*
X110255000Y-109321939D01*
X110255000Y-109118061D01*
X110215226Y-108918102D01*
X110137205Y-108729744D01*
X110023937Y-108560226D01*
X109879774Y-108416063D01*
X109710256Y-108302795D01*
X109521898Y-108224774D01*
X109321939Y-108185000D01*
X109118061Y-108185000D01*
X108918102Y-108224774D01*
X108729744Y-108302795D01*
X108560226Y-108416063D01*
X108416063Y-108560226D01*
X108302795Y-108729744D01*
X108224774Y-108918102D01*
X108185000Y-109118061D01*
X106660000Y-109118061D01*
X106660000Y-105308061D01*
X108185000Y-105308061D01*
X108185000Y-105511939D01*
X108224774Y-105711898D01*
X108302795Y-105900256D01*
X108416063Y-106069774D01*
X108560226Y-106213937D01*
X108729744Y-106327205D01*
X108918102Y-106405226D01*
X109118061Y-106445000D01*
X109321939Y-106445000D01*
X109521898Y-106405226D01*
X109710256Y-106327205D01*
X109879774Y-106213937D01*
X110023937Y-106069774D01*
X110108603Y-105943061D01*
X120885000Y-105943061D01*
X120885000Y-106146939D01*
X120924774Y-106346898D01*
X121002795Y-106535256D01*
X121116063Y-106704774D01*
X121260226Y-106848937D01*
X121429744Y-106962205D01*
X121618102Y-107040226D01*
X121818061Y-107080000D01*
X122021939Y-107080000D01*
X122221898Y-107040226D01*
X122410256Y-106962205D01*
X122579774Y-106848937D01*
X122723937Y-106704774D01*
X122837205Y-106535256D01*
X122915226Y-106346898D01*
X122921570Y-106315000D01*
X127901928Y-106315000D01*
X127901928Y-108315000D01*
X127914188Y-108439482D01*
X127950498Y-108559180D01*
X128009463Y-108669494D01*
X128088815Y-108766185D01*
X128185506Y-108845537D01*
X128295820Y-108904502D01*
X128415518Y-108940812D01*
X128540000Y-108953072D01*
X130540000Y-108953072D01*
X130664482Y-108940812D01*
X130784180Y-108904502D01*
X130894494Y-108845537D01*
X130991185Y-108766185D01*
X131070537Y-108669494D01*
X131129502Y-108559180D01*
X131162496Y-108450413D01*
X133584192Y-108450413D01*
X133679956Y-108714814D01*
X133969571Y-108855704D01*
X134281108Y-108937384D01*
X134602595Y-108956718D01*
X134921675Y-108912961D01*
X135226088Y-108807795D01*
X135400044Y-108714814D01*
X135495808Y-108450413D01*
X135429362Y-108383967D01*
X181880000Y-108383967D01*
X181880000Y-108706033D01*
X181942832Y-109021912D01*
X182066082Y-109319463D01*
X182245013Y-109587252D01*
X182472748Y-109814987D01*
X182740537Y-109993918D01*
X183038088Y-110117168D01*
X183353967Y-110180000D01*
X183676033Y-110180000D01*
X183991912Y-110117168D01*
X184289463Y-109993918D01*
X184557252Y-109814987D01*
X184784987Y-109587252D01*
X184963918Y-109319463D01*
X185087168Y-109021912D01*
X185150000Y-108706033D01*
X185150000Y-108383967D01*
X185087168Y-108068088D01*
X184963918Y-107770537D01*
X184784987Y-107502748D01*
X184557252Y-107275013D01*
X184289463Y-107096082D01*
X183991912Y-106972832D01*
X183676033Y-106910000D01*
X183353967Y-106910000D01*
X183038088Y-106972832D01*
X182740537Y-107096082D01*
X182472748Y-107275013D01*
X182245013Y-107502748D01*
X182066082Y-107770537D01*
X181942832Y-108068088D01*
X181880000Y-108383967D01*
X135429362Y-108383967D01*
X134540000Y-107494605D01*
X133584192Y-108450413D01*
X131162496Y-108450413D01*
X131165812Y-108439482D01*
X131178072Y-108315000D01*
X131178072Y-107377595D01*
X132898282Y-107377595D01*
X132942039Y-107696675D01*
X133047205Y-108001088D01*
X133140186Y-108175044D01*
X133404587Y-108270808D01*
X134360395Y-107315000D01*
X134719605Y-107315000D01*
X135675413Y-108270808D01*
X135939814Y-108175044D01*
X136080704Y-107885429D01*
X136162384Y-107573892D01*
X136181718Y-107252405D01*
X136137961Y-106933325D01*
X136032795Y-106628912D01*
X135939814Y-106454956D01*
X135675413Y-106359192D01*
X134719605Y-107315000D01*
X134360395Y-107315000D01*
X133404587Y-106359192D01*
X133140186Y-106454956D01*
X132999296Y-106744571D01*
X132917616Y-107056108D01*
X132898282Y-107377595D01*
X131178072Y-107377595D01*
X131178072Y-106315000D01*
X131165812Y-106190518D01*
X131162497Y-106179587D01*
X133584192Y-106179587D01*
X134540000Y-107135395D01*
X135495808Y-106179587D01*
X135400044Y-105915186D01*
X135110429Y-105774296D01*
X134798892Y-105692616D01*
X134477405Y-105673282D01*
X134158325Y-105717039D01*
X133853912Y-105822205D01*
X133679956Y-105915186D01*
X133584192Y-106179587D01*
X131162497Y-106179587D01*
X131129502Y-106070820D01*
X131070537Y-105960506D01*
X130991185Y-105863815D01*
X130894494Y-105784463D01*
X130784180Y-105725498D01*
X130664482Y-105689188D01*
X130540000Y-105676928D01*
X128540000Y-105676928D01*
X128415518Y-105689188D01*
X128295820Y-105725498D01*
X128185506Y-105784463D01*
X128088815Y-105863815D01*
X128009463Y-105960506D01*
X127950498Y-106070820D01*
X127914188Y-106190518D01*
X127901928Y-106315000D01*
X122921570Y-106315000D01*
X122955000Y-106146939D01*
X122955000Y-105943061D01*
X122915226Y-105743102D01*
X122837205Y-105554744D01*
X122723937Y-105385226D01*
X122579774Y-105241063D01*
X122410256Y-105127795D01*
X122221898Y-105049774D01*
X122021939Y-105010000D01*
X121818061Y-105010000D01*
X121618102Y-105049774D01*
X121429744Y-105127795D01*
X121260226Y-105241063D01*
X121116063Y-105385226D01*
X121002795Y-105554744D01*
X120924774Y-105743102D01*
X120885000Y-105943061D01*
X110108603Y-105943061D01*
X110137205Y-105900256D01*
X110215226Y-105711898D01*
X110255000Y-105511939D01*
X110255000Y-105308061D01*
X110215226Y-105108102D01*
X110137205Y-104919744D01*
X110023937Y-104750226D01*
X109879774Y-104606063D01*
X109710256Y-104492795D01*
X109521898Y-104414774D01*
X109321939Y-104375000D01*
X109118061Y-104375000D01*
X108918102Y-104414774D01*
X108729744Y-104492795D01*
X108560226Y-104606063D01*
X108416063Y-104750226D01*
X108302795Y-104919744D01*
X108224774Y-105108102D01*
X108185000Y-105308061D01*
X106660000Y-105308061D01*
X106660000Y-103786323D01*
X155830497Y-103786323D01*
X155830497Y-104213677D01*
X155913870Y-104632821D01*
X156077412Y-105027645D01*
X156314837Y-105382977D01*
X156617023Y-105685163D01*
X156972355Y-105922588D01*
X157367179Y-106086130D01*
X157786323Y-106169503D01*
X158213677Y-106169503D01*
X158632821Y-106086130D01*
X159027645Y-105922588D01*
X159382977Y-105685163D01*
X159685163Y-105382977D01*
X159922588Y-105027645D01*
X160086130Y-104632821D01*
X160103387Y-104546061D01*
X164065000Y-104546061D01*
X164065000Y-104749939D01*
X164104774Y-104949898D01*
X164182795Y-105138256D01*
X164296063Y-105307774D01*
X164440226Y-105451937D01*
X164609744Y-105565205D01*
X164798102Y-105643226D01*
X164998061Y-105683000D01*
X165201939Y-105683000D01*
X165401898Y-105643226D01*
X165590256Y-105565205D01*
X165759774Y-105451937D01*
X165903937Y-105307774D01*
X166017205Y-105138256D01*
X166095226Y-104949898D01*
X166135000Y-104749939D01*
X166135000Y-104546061D01*
X166095226Y-104346102D01*
X166017205Y-104157744D01*
X165903937Y-103988226D01*
X165759774Y-103844063D01*
X165590256Y-103730795D01*
X165401898Y-103652774D01*
X165201939Y-103613000D01*
X164998061Y-103613000D01*
X164798102Y-103652774D01*
X164609744Y-103730795D01*
X164440226Y-103844063D01*
X164296063Y-103988226D01*
X164182795Y-104157744D01*
X164104774Y-104346102D01*
X164065000Y-104546061D01*
X160103387Y-104546061D01*
X160169503Y-104213677D01*
X160169503Y-103786323D01*
X160089470Y-103383967D01*
X181880000Y-103383967D01*
X181880000Y-103706033D01*
X181942832Y-104021912D01*
X182066082Y-104319463D01*
X182245013Y-104587252D01*
X182472748Y-104814987D01*
X182740537Y-104993918D01*
X183038088Y-105117168D01*
X183353967Y-105180000D01*
X183676033Y-105180000D01*
X183991912Y-105117168D01*
X184289463Y-104993918D01*
X184557252Y-104814987D01*
X184784987Y-104587252D01*
X184963918Y-104319463D01*
X185087168Y-104021912D01*
X185150000Y-103706033D01*
X185150000Y-103383967D01*
X185087168Y-103068088D01*
X184963918Y-102770537D01*
X184784987Y-102502748D01*
X184557252Y-102275013D01*
X184289463Y-102096082D01*
X183991912Y-101972832D01*
X183676033Y-101910000D01*
X183353967Y-101910000D01*
X183038088Y-101972832D01*
X182740537Y-102096082D01*
X182472748Y-102275013D01*
X182245013Y-102502748D01*
X182066082Y-102770537D01*
X181942832Y-103068088D01*
X181880000Y-103383967D01*
X160089470Y-103383967D01*
X160086130Y-103367179D01*
X159922588Y-102972355D01*
X159685163Y-102617023D01*
X159382977Y-102314837D01*
X159110930Y-102133061D01*
X164065000Y-102133061D01*
X164065000Y-102336939D01*
X164104774Y-102536898D01*
X164182795Y-102725256D01*
X164296063Y-102894774D01*
X164440226Y-103038937D01*
X164609744Y-103152205D01*
X164798102Y-103230226D01*
X164998061Y-103270000D01*
X165201939Y-103270000D01*
X165401898Y-103230226D01*
X165590256Y-103152205D01*
X165759774Y-103038937D01*
X165903937Y-102894774D01*
X166017205Y-102725256D01*
X166095226Y-102536898D01*
X166135000Y-102336939D01*
X166135000Y-102133061D01*
X166095226Y-101933102D01*
X166017205Y-101744744D01*
X165903937Y-101575226D01*
X165759774Y-101431063D01*
X165590256Y-101317795D01*
X165401898Y-101239774D01*
X165201939Y-101200000D01*
X164998061Y-101200000D01*
X164798102Y-101239774D01*
X164609744Y-101317795D01*
X164440226Y-101431063D01*
X164296063Y-101575226D01*
X164182795Y-101744744D01*
X164104774Y-101933102D01*
X164065000Y-102133061D01*
X159110930Y-102133061D01*
X159027645Y-102077412D01*
X158632821Y-101913870D01*
X158213677Y-101830497D01*
X157786323Y-101830497D01*
X157367179Y-101913870D01*
X156972355Y-102077412D01*
X156617023Y-102314837D01*
X156314837Y-102617023D01*
X156077412Y-102972355D01*
X155913870Y-103367179D01*
X155830497Y-103786323D01*
X106660000Y-103786323D01*
X106660000Y-100228061D01*
X115170000Y-100228061D01*
X115170000Y-100431939D01*
X115209774Y-100631898D01*
X115287795Y-100820256D01*
X115401063Y-100989774D01*
X115545226Y-101133937D01*
X115714744Y-101247205D01*
X115903102Y-101325226D01*
X116103061Y-101365000D01*
X116306939Y-101365000D01*
X116506898Y-101325226D01*
X116695256Y-101247205D01*
X116864774Y-101133937D01*
X117008937Y-100989774D01*
X117122205Y-100820256D01*
X117200226Y-100631898D01*
X117240000Y-100431939D01*
X117240000Y-100228061D01*
X117200226Y-100028102D01*
X117177842Y-99974061D01*
X140189000Y-99974061D01*
X140189000Y-100177939D01*
X140228774Y-100377898D01*
X140306795Y-100566256D01*
X140420063Y-100735774D01*
X140564226Y-100879937D01*
X140733744Y-100993205D01*
X140922102Y-101071226D01*
X141026541Y-101092000D01*
X140922102Y-101112774D01*
X140733744Y-101190795D01*
X140564226Y-101304063D01*
X140420063Y-101448226D01*
X140306795Y-101617744D01*
X140228774Y-101806102D01*
X140189000Y-102006061D01*
X140189000Y-102209939D01*
X140228774Y-102409898D01*
X140306795Y-102598256D01*
X140420063Y-102767774D01*
X140564226Y-102911937D01*
X140733744Y-103025205D01*
X140922102Y-103103226D01*
X141122061Y-103143000D01*
X141325939Y-103143000D01*
X141525898Y-103103226D01*
X141714256Y-103025205D01*
X141883774Y-102911937D01*
X142027937Y-102767774D01*
X142141205Y-102598256D01*
X142219226Y-102409898D01*
X142259000Y-102209939D01*
X142259000Y-102006061D01*
X142219226Y-101806102D01*
X142141205Y-101617744D01*
X142027937Y-101448226D01*
X141883774Y-101304063D01*
X141714256Y-101190795D01*
X141525898Y-101112774D01*
X141421459Y-101092000D01*
X141525898Y-101071226D01*
X141714256Y-100993205D01*
X141718961Y-100990061D01*
X146793000Y-100990061D01*
X146793000Y-101193939D01*
X146832774Y-101393898D01*
X146910795Y-101582256D01*
X147024063Y-101751774D01*
X147168226Y-101895937D01*
X147337744Y-102009205D01*
X147526102Y-102087226D01*
X147726061Y-102127000D01*
X147929939Y-102127000D01*
X148129898Y-102087226D01*
X148318256Y-102009205D01*
X148487774Y-101895937D01*
X148631937Y-101751774D01*
X148745205Y-101582256D01*
X148823226Y-101393898D01*
X148863000Y-101193939D01*
X148863000Y-100990061D01*
X161525000Y-100990061D01*
X161525000Y-101193939D01*
X161564774Y-101393898D01*
X161642795Y-101582256D01*
X161756063Y-101751774D01*
X161900226Y-101895937D01*
X162069744Y-102009205D01*
X162258102Y-102087226D01*
X162458061Y-102127000D01*
X162661939Y-102127000D01*
X162861898Y-102087226D01*
X163050256Y-102009205D01*
X163219774Y-101895937D01*
X163363937Y-101751774D01*
X163477205Y-101582256D01*
X163555226Y-101393898D01*
X163595000Y-101193939D01*
X163595000Y-100990061D01*
X163555226Y-100790102D01*
X163477205Y-100601744D01*
X163363937Y-100432226D01*
X163219774Y-100288063D01*
X163050256Y-100174795D01*
X162861898Y-100096774D01*
X162661939Y-100057000D01*
X162458061Y-100057000D01*
X162258102Y-100096774D01*
X162069744Y-100174795D01*
X161900226Y-100288063D01*
X161756063Y-100432226D01*
X161642795Y-100601744D01*
X161564774Y-100790102D01*
X161525000Y-100990061D01*
X148863000Y-100990061D01*
X148823226Y-100790102D01*
X148745205Y-100601744D01*
X148631937Y-100432226D01*
X148487774Y-100288063D01*
X148318256Y-100174795D01*
X148129898Y-100096774D01*
X147929939Y-100057000D01*
X147726061Y-100057000D01*
X147526102Y-100096774D01*
X147337744Y-100174795D01*
X147168226Y-100288063D01*
X147024063Y-100432226D01*
X146910795Y-100601744D01*
X146832774Y-100790102D01*
X146793000Y-100990061D01*
X141718961Y-100990061D01*
X141883774Y-100879937D01*
X142027937Y-100735774D01*
X142141205Y-100566256D01*
X142219226Y-100377898D01*
X142259000Y-100177939D01*
X142259000Y-99974061D01*
X142219226Y-99774102D01*
X142141205Y-99585744D01*
X142027937Y-99416226D01*
X141883774Y-99272063D01*
X141714256Y-99158795D01*
X141525898Y-99080774D01*
X141325939Y-99041000D01*
X141122061Y-99041000D01*
X140922102Y-99080774D01*
X140733744Y-99158795D01*
X140564226Y-99272063D01*
X140420063Y-99416226D01*
X140306795Y-99585744D01*
X140228774Y-99774102D01*
X140189000Y-99974061D01*
X117177842Y-99974061D01*
X117122205Y-99839744D01*
X117008937Y-99670226D01*
X116864774Y-99526063D01*
X116695256Y-99412795D01*
X116506898Y-99334774D01*
X116306939Y-99295000D01*
X116103061Y-99295000D01*
X115903102Y-99334774D01*
X115714744Y-99412795D01*
X115545226Y-99526063D01*
X115401063Y-99670226D01*
X115287795Y-99839744D01*
X115209774Y-100028102D01*
X115170000Y-100228061D01*
X106660000Y-100228061D01*
X106660000Y-97688061D01*
X106915000Y-97688061D01*
X106915000Y-97891939D01*
X106954774Y-98091898D01*
X107032795Y-98280256D01*
X107146063Y-98449774D01*
X107290226Y-98593937D01*
X107459744Y-98707205D01*
X107648102Y-98785226D01*
X107848061Y-98825000D01*
X108051939Y-98825000D01*
X108251898Y-98785226D01*
X108440256Y-98707205D01*
X108609774Y-98593937D01*
X108753937Y-98449774D01*
X108867205Y-98280256D01*
X108945226Y-98091898D01*
X108985000Y-97891939D01*
X108985000Y-97688061D01*
X108945226Y-97488102D01*
X108867205Y-97299744D01*
X108753937Y-97130226D01*
X108676772Y-97053061D01*
X118980000Y-97053061D01*
X118980000Y-97256939D01*
X119019774Y-97456898D01*
X119097795Y-97645256D01*
X119211063Y-97814774D01*
X119355226Y-97958937D01*
X119524744Y-98072205D01*
X119713102Y-98150226D01*
X119913061Y-98190000D01*
X120116939Y-98190000D01*
X120316898Y-98150226D01*
X120505256Y-98072205D01*
X120674774Y-97958937D01*
X120818937Y-97814774D01*
X120932205Y-97645256D01*
X120955520Y-97588967D01*
X181880000Y-97588967D01*
X181880000Y-97911033D01*
X181942832Y-98226912D01*
X182066082Y-98524463D01*
X182245013Y-98792252D01*
X182472748Y-99019987D01*
X182740537Y-99198918D01*
X183038088Y-99322168D01*
X183353967Y-99385000D01*
X183676033Y-99385000D01*
X183991912Y-99322168D01*
X184289463Y-99198918D01*
X184557252Y-99019987D01*
X184784987Y-98792252D01*
X184963918Y-98524463D01*
X185087168Y-98226912D01*
X185150000Y-97911033D01*
X185150000Y-97588967D01*
X185087168Y-97273088D01*
X184963918Y-96975537D01*
X184784987Y-96707748D01*
X184557252Y-96480013D01*
X184289463Y-96301082D01*
X183991912Y-96177832D01*
X183676033Y-96115000D01*
X183353967Y-96115000D01*
X183038088Y-96177832D01*
X182740537Y-96301082D01*
X182472748Y-96480013D01*
X182245013Y-96707748D01*
X182066082Y-96975537D01*
X181942832Y-97273088D01*
X181880000Y-97588967D01*
X120955520Y-97588967D01*
X121010226Y-97456898D01*
X121050000Y-97256939D01*
X121050000Y-97053061D01*
X121010226Y-96853102D01*
X120932205Y-96664744D01*
X120818937Y-96495226D01*
X120741772Y-96418061D01*
X131045000Y-96418061D01*
X131045000Y-96621939D01*
X131084774Y-96821898D01*
X131162795Y-97010256D01*
X131276063Y-97179774D01*
X131420226Y-97323937D01*
X131589744Y-97437205D01*
X131778102Y-97515226D01*
X131978061Y-97555000D01*
X132181939Y-97555000D01*
X132381898Y-97515226D01*
X132570256Y-97437205D01*
X132739774Y-97323937D01*
X132883937Y-97179774D01*
X132997205Y-97010256D01*
X133075226Y-96821898D01*
X133115000Y-96621939D01*
X133115000Y-96418061D01*
X133075226Y-96218102D01*
X132997205Y-96029744D01*
X132883937Y-95860226D01*
X132739774Y-95716063D01*
X132570256Y-95602795D01*
X132381898Y-95524774D01*
X132181939Y-95485000D01*
X131978061Y-95485000D01*
X131778102Y-95524774D01*
X131589744Y-95602795D01*
X131420226Y-95716063D01*
X131276063Y-95860226D01*
X131162795Y-96029744D01*
X131084774Y-96218102D01*
X131045000Y-96418061D01*
X120741772Y-96418061D01*
X120674774Y-96351063D01*
X120505256Y-96237795D01*
X120316898Y-96159774D01*
X120116939Y-96120000D01*
X119913061Y-96120000D01*
X119713102Y-96159774D01*
X119524744Y-96237795D01*
X119355226Y-96351063D01*
X119211063Y-96495226D01*
X119097795Y-96664744D01*
X119019774Y-96853102D01*
X118980000Y-97053061D01*
X108676772Y-97053061D01*
X108609774Y-96986063D01*
X108440256Y-96872795D01*
X108251898Y-96794774D01*
X108051939Y-96755000D01*
X107848061Y-96755000D01*
X107648102Y-96794774D01*
X107459744Y-96872795D01*
X107290226Y-96986063D01*
X107146063Y-97130226D01*
X107032795Y-97299744D01*
X106954774Y-97488102D01*
X106915000Y-97688061D01*
X106660000Y-97688061D01*
X106660000Y-93878061D01*
X164065000Y-93878061D01*
X164065000Y-94081939D01*
X164104774Y-94281898D01*
X164182795Y-94470256D01*
X164296063Y-94639774D01*
X164440226Y-94783937D01*
X164609744Y-94897205D01*
X164798102Y-94975226D01*
X164998061Y-95015000D01*
X165201939Y-95015000D01*
X165401898Y-94975226D01*
X165590256Y-94897205D01*
X165759774Y-94783937D01*
X165903937Y-94639774D01*
X166017205Y-94470256D01*
X166095226Y-94281898D01*
X166135000Y-94081939D01*
X166135000Y-93878061D01*
X166095226Y-93678102D01*
X166017205Y-93489744D01*
X165903937Y-93320226D01*
X165759774Y-93176063D01*
X165590256Y-93062795D01*
X165401898Y-92984774D01*
X165201939Y-92945000D01*
X164998061Y-92945000D01*
X164798102Y-92984774D01*
X164609744Y-93062795D01*
X164440226Y-93176063D01*
X164296063Y-93320226D01*
X164182795Y-93489744D01*
X164104774Y-93678102D01*
X164065000Y-93878061D01*
X106660000Y-93878061D01*
X106660000Y-92099889D01*
X149915467Y-92099889D01*
X149915467Y-92303767D01*
X149955241Y-92503726D01*
X150033262Y-92692084D01*
X150146530Y-92861602D01*
X150290693Y-93005765D01*
X150460211Y-93119033D01*
X150648569Y-93197054D01*
X150848528Y-93236828D01*
X151052406Y-93236828D01*
X151252365Y-93197054D01*
X151440723Y-93119033D01*
X151610241Y-93005765D01*
X151754404Y-92861602D01*
X151867672Y-92692084D01*
X151902475Y-92608061D01*
X152635000Y-92608061D01*
X152635000Y-92811939D01*
X152674774Y-93011898D01*
X152752795Y-93200256D01*
X152866063Y-93369774D01*
X153010226Y-93513937D01*
X153179744Y-93627205D01*
X153368102Y-93705226D01*
X153568061Y-93745000D01*
X153771939Y-93745000D01*
X153971898Y-93705226D01*
X154160256Y-93627205D01*
X154329774Y-93513937D01*
X154473937Y-93369774D01*
X154587205Y-93200256D01*
X154665226Y-93011898D01*
X154705000Y-92811939D01*
X154705000Y-92608061D01*
X154701202Y-92588967D01*
X181880000Y-92588967D01*
X181880000Y-92911033D01*
X181942832Y-93226912D01*
X182066082Y-93524463D01*
X182245013Y-93792252D01*
X182472748Y-94019987D01*
X182740537Y-94198918D01*
X183038088Y-94322168D01*
X183353967Y-94385000D01*
X183676033Y-94385000D01*
X183991912Y-94322168D01*
X184289463Y-94198918D01*
X184557252Y-94019987D01*
X184784987Y-93792252D01*
X184963918Y-93524463D01*
X185087168Y-93226912D01*
X185150000Y-92911033D01*
X185150000Y-92588967D01*
X185087168Y-92273088D01*
X184963918Y-91975537D01*
X184784987Y-91707748D01*
X184557252Y-91480013D01*
X184289463Y-91301082D01*
X183991912Y-91177832D01*
X183676033Y-91115000D01*
X183353967Y-91115000D01*
X183038088Y-91177832D01*
X182740537Y-91301082D01*
X182472748Y-91480013D01*
X182245013Y-91707748D01*
X182066082Y-91975537D01*
X181942832Y-92273088D01*
X181880000Y-92588967D01*
X154701202Y-92588967D01*
X154665226Y-92408102D01*
X154587205Y-92219744D01*
X154473937Y-92050226D01*
X154329774Y-91906063D01*
X154160256Y-91792795D01*
X153971898Y-91714774D01*
X153771939Y-91675000D01*
X153568061Y-91675000D01*
X153368102Y-91714774D01*
X153179744Y-91792795D01*
X153010226Y-91906063D01*
X152866063Y-92050226D01*
X152752795Y-92219744D01*
X152674774Y-92408102D01*
X152635000Y-92608061D01*
X151902475Y-92608061D01*
X151945693Y-92503726D01*
X151985467Y-92303767D01*
X151985467Y-92099889D01*
X151945693Y-91899930D01*
X151867672Y-91711572D01*
X151754404Y-91542054D01*
X151610241Y-91397891D01*
X151520699Y-91338061D01*
X164065000Y-91338061D01*
X164065000Y-91541939D01*
X164104774Y-91741898D01*
X164182795Y-91930256D01*
X164296063Y-92099774D01*
X164440226Y-92243937D01*
X164609744Y-92357205D01*
X164798102Y-92435226D01*
X164998061Y-92475000D01*
X165201939Y-92475000D01*
X165401898Y-92435226D01*
X165590256Y-92357205D01*
X165759774Y-92243937D01*
X165903937Y-92099774D01*
X166017205Y-91930256D01*
X166095226Y-91741898D01*
X166135000Y-91541939D01*
X166135000Y-91338061D01*
X166095226Y-91138102D01*
X166017205Y-90949744D01*
X165903937Y-90780226D01*
X165759774Y-90636063D01*
X165590256Y-90522795D01*
X165401898Y-90444774D01*
X165201939Y-90405000D01*
X164998061Y-90405000D01*
X164798102Y-90444774D01*
X164609744Y-90522795D01*
X164440226Y-90636063D01*
X164296063Y-90780226D01*
X164182795Y-90949744D01*
X164104774Y-91138102D01*
X164065000Y-91338061D01*
X151520699Y-91338061D01*
X151440723Y-91284623D01*
X151252365Y-91206602D01*
X151052406Y-91166828D01*
X150848528Y-91166828D01*
X150648569Y-91206602D01*
X150460211Y-91284623D01*
X150290693Y-91397891D01*
X150146530Y-91542054D01*
X150033262Y-91711572D01*
X149955241Y-91899930D01*
X149915467Y-92099889D01*
X106660000Y-92099889D01*
X106660000Y-90674557D01*
X137804303Y-90674557D01*
X137804303Y-90878435D01*
X137844077Y-91078394D01*
X137922098Y-91266752D01*
X138035366Y-91436270D01*
X138179529Y-91580433D01*
X138349047Y-91693701D01*
X138537405Y-91771722D01*
X138737364Y-91811496D01*
X138941242Y-91811496D01*
X139141201Y-91771722D01*
X139329559Y-91693701D01*
X139499077Y-91580433D01*
X139643240Y-91436270D01*
X139756508Y-91266752D01*
X139834529Y-91078394D01*
X139874303Y-90878435D01*
X139874303Y-90674557D01*
X139834529Y-90474598D01*
X139756508Y-90286240D01*
X139643240Y-90116722D01*
X139499077Y-89972559D01*
X139329559Y-89859291D01*
X139141201Y-89781270D01*
X138941242Y-89741496D01*
X138737364Y-89741496D01*
X138537405Y-89781270D01*
X138349047Y-89859291D01*
X138179529Y-89972559D01*
X138035366Y-90116722D01*
X137922098Y-90286240D01*
X137844077Y-90474598D01*
X137804303Y-90674557D01*
X106660000Y-90674557D01*
X106660000Y-88783202D01*
X149324255Y-88783202D01*
X149324255Y-88987080D01*
X149364029Y-89187039D01*
X149442050Y-89375397D01*
X149555318Y-89544915D01*
X149699481Y-89689078D01*
X149868999Y-89802346D01*
X150057357Y-89880367D01*
X150257316Y-89920141D01*
X150461194Y-89920141D01*
X150661153Y-89880367D01*
X150849511Y-89802346D01*
X151019029Y-89689078D01*
X151079886Y-89628221D01*
X156005160Y-89628221D01*
X156005160Y-89832099D01*
X156044934Y-90032058D01*
X156122955Y-90220416D01*
X156236223Y-90389934D01*
X156380386Y-90534097D01*
X156549904Y-90647365D01*
X156738262Y-90725386D01*
X156938221Y-90765160D01*
X157142099Y-90765160D01*
X157342058Y-90725386D01*
X157530416Y-90647365D01*
X157541007Y-90640288D01*
X157599626Y-90728018D01*
X157743789Y-90872181D01*
X157913307Y-90985449D01*
X158101665Y-91063470D01*
X158301624Y-91103244D01*
X158505502Y-91103244D01*
X158705461Y-91063470D01*
X158893819Y-90985449D01*
X159063337Y-90872181D01*
X159207500Y-90728018D01*
X159320768Y-90558500D01*
X159398789Y-90370142D01*
X159438563Y-90170183D01*
X159438563Y-89966305D01*
X159398789Y-89766346D01*
X159320768Y-89577988D01*
X159207500Y-89408470D01*
X159063337Y-89264307D01*
X158893819Y-89151039D01*
X158705461Y-89073018D01*
X158505502Y-89033244D01*
X158301624Y-89033244D01*
X158101665Y-89073018D01*
X157913307Y-89151039D01*
X157902716Y-89158116D01*
X157844097Y-89070386D01*
X157699934Y-88926223D01*
X157530416Y-88812955D01*
X157342058Y-88734934D01*
X157142099Y-88695160D01*
X156938221Y-88695160D01*
X156738262Y-88734934D01*
X156549904Y-88812955D01*
X156380386Y-88926223D01*
X156236223Y-89070386D01*
X156122955Y-89239904D01*
X156044934Y-89428262D01*
X156005160Y-89628221D01*
X151079886Y-89628221D01*
X151163192Y-89544915D01*
X151276460Y-89375397D01*
X151354481Y-89187039D01*
X151394255Y-88987080D01*
X151394255Y-88783202D01*
X151354481Y-88583243D01*
X151276460Y-88394885D01*
X151163192Y-88225367D01*
X151019029Y-88081204D01*
X150849511Y-87967936D01*
X150661153Y-87889915D01*
X150461194Y-87850141D01*
X150257316Y-87850141D01*
X150057357Y-87889915D01*
X149868999Y-87967936D01*
X149699481Y-88081204D01*
X149555318Y-88225367D01*
X149442050Y-88394885D01*
X149364029Y-88583243D01*
X149324255Y-88783202D01*
X106660000Y-88783202D01*
X106660000Y-86258061D01*
X132569000Y-86258061D01*
X132569000Y-86461939D01*
X132608774Y-86661898D01*
X132686795Y-86850256D01*
X132800063Y-87019774D01*
X132944226Y-87163937D01*
X133113744Y-87277205D01*
X133302102Y-87355226D01*
X133502061Y-87395000D01*
X133705939Y-87395000D01*
X133905898Y-87355226D01*
X134094256Y-87277205D01*
X134263774Y-87163937D01*
X134407937Y-87019774D01*
X134521205Y-86850256D01*
X134599226Y-86661898D01*
X134639000Y-86461939D01*
X134639000Y-86258061D01*
X135109000Y-86258061D01*
X135109000Y-86461939D01*
X135148774Y-86661898D01*
X135226795Y-86850256D01*
X135340063Y-87019774D01*
X135484226Y-87163937D01*
X135653744Y-87277205D01*
X135842102Y-87355226D01*
X136042061Y-87395000D01*
X136245939Y-87395000D01*
X136445898Y-87355226D01*
X136634256Y-87277205D01*
X136803774Y-87163937D01*
X136947937Y-87019774D01*
X137061205Y-86850256D01*
X137139226Y-86661898D01*
X137179000Y-86461939D01*
X137179000Y-86258061D01*
X151365000Y-86258061D01*
X151365000Y-86461939D01*
X151404774Y-86661898D01*
X151482795Y-86850256D01*
X151596063Y-87019774D01*
X151740226Y-87163937D01*
X151909744Y-87277205D01*
X152098102Y-87355226D01*
X152298061Y-87395000D01*
X152501939Y-87395000D01*
X152701898Y-87355226D01*
X152890256Y-87277205D01*
X153059774Y-87163937D01*
X153203937Y-87019774D01*
X153317205Y-86850256D01*
X153395226Y-86661898D01*
X153435000Y-86461939D01*
X153435000Y-86258061D01*
X155810000Y-86258061D01*
X155810000Y-86461939D01*
X155849774Y-86661898D01*
X155927795Y-86850256D01*
X156041063Y-87019774D01*
X156185226Y-87163937D01*
X156354744Y-87277205D01*
X156543102Y-87355226D01*
X156743061Y-87395000D01*
X156946939Y-87395000D01*
X157146898Y-87355226D01*
X157335256Y-87277205D01*
X157504774Y-87163937D01*
X157648937Y-87019774D01*
X157762205Y-86850256D01*
X157797500Y-86765047D01*
X157832795Y-86850256D01*
X157946063Y-87019774D01*
X158090226Y-87163937D01*
X158259744Y-87277205D01*
X158448102Y-87355226D01*
X158648061Y-87395000D01*
X158851939Y-87395000D01*
X159051898Y-87355226D01*
X159240256Y-87277205D01*
X159409774Y-87163937D01*
X159553937Y-87019774D01*
X159667205Y-86850256D01*
X159690520Y-86793967D01*
X181880000Y-86793967D01*
X181880000Y-87116033D01*
X181942832Y-87431912D01*
X182066082Y-87729463D01*
X182245013Y-87997252D01*
X182472748Y-88224987D01*
X182740537Y-88403918D01*
X183038088Y-88527168D01*
X183353967Y-88590000D01*
X183676033Y-88590000D01*
X183991912Y-88527168D01*
X184289463Y-88403918D01*
X184557252Y-88224987D01*
X184784987Y-87997252D01*
X184963918Y-87729463D01*
X185087168Y-87431912D01*
X185150000Y-87116033D01*
X185150000Y-86793967D01*
X185087168Y-86478088D01*
X184963918Y-86180537D01*
X184784987Y-85912748D01*
X184557252Y-85685013D01*
X184289463Y-85506082D01*
X183991912Y-85382832D01*
X183676033Y-85320000D01*
X183353967Y-85320000D01*
X183038088Y-85382832D01*
X182740537Y-85506082D01*
X182472748Y-85685013D01*
X182245013Y-85912748D01*
X182066082Y-86180537D01*
X181942832Y-86478088D01*
X181880000Y-86793967D01*
X159690520Y-86793967D01*
X159745226Y-86661898D01*
X159785000Y-86461939D01*
X159785000Y-86258061D01*
X159745226Y-86058102D01*
X159667205Y-85869744D01*
X159553937Y-85700226D01*
X159409774Y-85556063D01*
X159240256Y-85442795D01*
X159051898Y-85364774D01*
X158851939Y-85325000D01*
X158648061Y-85325000D01*
X158448102Y-85364774D01*
X158259744Y-85442795D01*
X158090226Y-85556063D01*
X157946063Y-85700226D01*
X157832795Y-85869744D01*
X157797500Y-85954953D01*
X157762205Y-85869744D01*
X157648937Y-85700226D01*
X157504774Y-85556063D01*
X157335256Y-85442795D01*
X157146898Y-85364774D01*
X156946939Y-85325000D01*
X156743061Y-85325000D01*
X156543102Y-85364774D01*
X156354744Y-85442795D01*
X156185226Y-85556063D01*
X156041063Y-85700226D01*
X155927795Y-85869744D01*
X155849774Y-86058102D01*
X155810000Y-86258061D01*
X153435000Y-86258061D01*
X153395226Y-86058102D01*
X153317205Y-85869744D01*
X153203937Y-85700226D01*
X153059774Y-85556063D01*
X152890256Y-85442795D01*
X152701898Y-85364774D01*
X152501939Y-85325000D01*
X152298061Y-85325000D01*
X152098102Y-85364774D01*
X151909744Y-85442795D01*
X151740226Y-85556063D01*
X151596063Y-85700226D01*
X151482795Y-85869744D01*
X151404774Y-86058102D01*
X151365000Y-86258061D01*
X137179000Y-86258061D01*
X137139226Y-86058102D01*
X137061205Y-85869744D01*
X136947937Y-85700226D01*
X136803774Y-85556063D01*
X136634256Y-85442795D01*
X136445898Y-85364774D01*
X136245939Y-85325000D01*
X136042061Y-85325000D01*
X135842102Y-85364774D01*
X135653744Y-85442795D01*
X135484226Y-85556063D01*
X135340063Y-85700226D01*
X135226795Y-85869744D01*
X135148774Y-86058102D01*
X135109000Y-86258061D01*
X134639000Y-86258061D01*
X134599226Y-86058102D01*
X134521205Y-85869744D01*
X134407937Y-85700226D01*
X134263774Y-85556063D01*
X134094256Y-85442795D01*
X133905898Y-85364774D01*
X133705939Y-85325000D01*
X133502061Y-85325000D01*
X133302102Y-85364774D01*
X133113744Y-85442795D01*
X132944226Y-85556063D01*
X132800063Y-85700226D01*
X132686795Y-85869744D01*
X132608774Y-86058102D01*
X132569000Y-86258061D01*
X106660000Y-86258061D01*
X106660000Y-83718061D01*
X131045000Y-83718061D01*
X131045000Y-83921939D01*
X131084774Y-84121898D01*
X131162795Y-84310256D01*
X131276063Y-84479774D01*
X131420226Y-84623937D01*
X131589744Y-84737205D01*
X131778102Y-84815226D01*
X131978061Y-84855000D01*
X132181939Y-84855000D01*
X132381898Y-84815226D01*
X132570256Y-84737205D01*
X132739774Y-84623937D01*
X132883937Y-84479774D01*
X132997205Y-84310256D01*
X133075226Y-84121898D01*
X133115000Y-83921939D01*
X133115000Y-83718061D01*
X133075226Y-83518102D01*
X132997205Y-83329744D01*
X132883937Y-83160226D01*
X132739774Y-83016063D01*
X132570256Y-82902795D01*
X132381898Y-82824774D01*
X132181939Y-82785000D01*
X131978061Y-82785000D01*
X131778102Y-82824774D01*
X131589744Y-82902795D01*
X131420226Y-83016063D01*
X131276063Y-83160226D01*
X131162795Y-83329744D01*
X131084774Y-83518102D01*
X131045000Y-83718061D01*
X106660000Y-83718061D01*
X106660000Y-81813061D01*
X107550000Y-81813061D01*
X107550000Y-82016939D01*
X107589774Y-82216898D01*
X107667795Y-82405256D01*
X107781063Y-82574774D01*
X107925226Y-82718937D01*
X108094744Y-82832205D01*
X108283102Y-82910226D01*
X108483061Y-82950000D01*
X108686939Y-82950000D01*
X108886898Y-82910226D01*
X109075256Y-82832205D01*
X109244774Y-82718937D01*
X109388937Y-82574774D01*
X109473603Y-82448061D01*
X145015000Y-82448061D01*
X145015000Y-82651939D01*
X145054774Y-82851898D01*
X145132795Y-83040256D01*
X145229510Y-83185000D01*
X145132795Y-83329744D01*
X145054774Y-83518102D01*
X145015000Y-83718061D01*
X145015000Y-83921939D01*
X145054774Y-84121898D01*
X145132795Y-84310256D01*
X145246063Y-84479774D01*
X145390226Y-84623937D01*
X145559744Y-84737205D01*
X145748102Y-84815226D01*
X145948061Y-84855000D01*
X146151939Y-84855000D01*
X146351898Y-84815226D01*
X146540256Y-84737205D01*
X146709774Y-84623937D01*
X146853937Y-84479774D01*
X146967205Y-84310256D01*
X147045226Y-84121898D01*
X147085000Y-83921939D01*
X147085000Y-83718061D01*
X164065000Y-83718061D01*
X164065000Y-83921939D01*
X164104774Y-84121898D01*
X164182795Y-84310256D01*
X164296063Y-84479774D01*
X164440226Y-84623937D01*
X164609744Y-84737205D01*
X164798102Y-84815226D01*
X164998061Y-84855000D01*
X165201939Y-84855000D01*
X165401898Y-84815226D01*
X165590256Y-84737205D01*
X165759774Y-84623937D01*
X165903937Y-84479774D01*
X166017205Y-84310256D01*
X166095226Y-84121898D01*
X166135000Y-83921939D01*
X166135000Y-83718061D01*
X166095226Y-83518102D01*
X166017205Y-83329744D01*
X165903937Y-83160226D01*
X165759774Y-83016063D01*
X165590256Y-82902795D01*
X165401898Y-82824774D01*
X165201939Y-82785000D01*
X164998061Y-82785000D01*
X164798102Y-82824774D01*
X164609744Y-82902795D01*
X164440226Y-83016063D01*
X164296063Y-83160226D01*
X164182795Y-83329744D01*
X164104774Y-83518102D01*
X164065000Y-83718061D01*
X147085000Y-83718061D01*
X147045226Y-83518102D01*
X146967205Y-83329744D01*
X146870490Y-83185000D01*
X146967205Y-83040256D01*
X147045226Y-82851898D01*
X147085000Y-82651939D01*
X147085000Y-82448061D01*
X147045226Y-82248102D01*
X146967205Y-82059744D01*
X146853937Y-81890226D01*
X146757678Y-81793967D01*
X181880000Y-81793967D01*
X181880000Y-82116033D01*
X181942832Y-82431912D01*
X182066082Y-82729463D01*
X182245013Y-82997252D01*
X182472748Y-83224987D01*
X182740537Y-83403918D01*
X183038088Y-83527168D01*
X183353967Y-83590000D01*
X183676033Y-83590000D01*
X183991912Y-83527168D01*
X184289463Y-83403918D01*
X184557252Y-83224987D01*
X184784987Y-82997252D01*
X184963918Y-82729463D01*
X185087168Y-82431912D01*
X185150000Y-82116033D01*
X185150000Y-81793967D01*
X185087168Y-81478088D01*
X184963918Y-81180537D01*
X184784987Y-80912748D01*
X184557252Y-80685013D01*
X184289463Y-80506082D01*
X183991912Y-80382832D01*
X183676033Y-80320000D01*
X183353967Y-80320000D01*
X183038088Y-80382832D01*
X182740537Y-80506082D01*
X182472748Y-80685013D01*
X182245013Y-80912748D01*
X182066082Y-81180537D01*
X181942832Y-81478088D01*
X181880000Y-81793967D01*
X146757678Y-81793967D01*
X146709774Y-81746063D01*
X146540256Y-81632795D01*
X146351898Y-81554774D01*
X146151939Y-81515000D01*
X145948061Y-81515000D01*
X145748102Y-81554774D01*
X145559744Y-81632795D01*
X145390226Y-81746063D01*
X145246063Y-81890226D01*
X145132795Y-82059744D01*
X145054774Y-82248102D01*
X145015000Y-82448061D01*
X109473603Y-82448061D01*
X109502205Y-82405256D01*
X109580226Y-82216898D01*
X109620000Y-82016939D01*
X109620000Y-81813061D01*
X109580226Y-81613102D01*
X109502205Y-81424744D01*
X109388937Y-81255226D01*
X109311772Y-81178061D01*
X136125000Y-81178061D01*
X136125000Y-81381939D01*
X136164774Y-81581898D01*
X136242795Y-81770256D01*
X136356063Y-81939774D01*
X136500226Y-82083937D01*
X136669744Y-82197205D01*
X136858102Y-82275226D01*
X137058061Y-82315000D01*
X137261939Y-82315000D01*
X137461898Y-82275226D01*
X137650256Y-82197205D01*
X137819774Y-82083937D01*
X137963937Y-81939774D01*
X138077205Y-81770256D01*
X138155226Y-81581898D01*
X138195000Y-81381939D01*
X138195000Y-81178061D01*
X138155226Y-80978102D01*
X138077205Y-80789744D01*
X137963937Y-80620226D01*
X137886772Y-80543061D01*
X141840000Y-80543061D01*
X141840000Y-80746939D01*
X141879774Y-80946898D01*
X141957795Y-81135256D01*
X142071063Y-81304774D01*
X142215226Y-81448937D01*
X142384744Y-81562205D01*
X142573102Y-81640226D01*
X142773061Y-81680000D01*
X142976939Y-81680000D01*
X143176898Y-81640226D01*
X143365256Y-81562205D01*
X143534774Y-81448937D01*
X143678937Y-81304774D01*
X143792205Y-81135256D01*
X143870226Y-80946898D01*
X143910000Y-80746939D01*
X143910000Y-80543061D01*
X146920000Y-80543061D01*
X146920000Y-80746939D01*
X146959774Y-80946898D01*
X147037795Y-81135256D01*
X147151063Y-81304774D01*
X147295226Y-81448937D01*
X147464744Y-81562205D01*
X147653102Y-81640226D01*
X147853061Y-81680000D01*
X148056939Y-81680000D01*
X148256898Y-81640226D01*
X148445256Y-81562205D01*
X148614774Y-81448937D01*
X148758937Y-81304774D01*
X148872205Y-81135256D01*
X148950226Y-80946898D01*
X148990000Y-80746939D01*
X148990000Y-80543061D01*
X148950226Y-80343102D01*
X148875236Y-80162061D01*
X164065000Y-80162061D01*
X164065000Y-80365939D01*
X164104774Y-80565898D01*
X164182795Y-80754256D01*
X164296063Y-80923774D01*
X164440226Y-81067937D01*
X164609744Y-81181205D01*
X164798102Y-81259226D01*
X164998061Y-81299000D01*
X165201939Y-81299000D01*
X165401898Y-81259226D01*
X165590256Y-81181205D01*
X165759774Y-81067937D01*
X165903937Y-80923774D01*
X166017205Y-80754256D01*
X166095226Y-80565898D01*
X166135000Y-80365939D01*
X166135000Y-80162061D01*
X166095226Y-79962102D01*
X166017205Y-79773744D01*
X165903937Y-79604226D01*
X165759774Y-79460063D01*
X165590256Y-79346795D01*
X165401898Y-79268774D01*
X165201939Y-79229000D01*
X164998061Y-79229000D01*
X164798102Y-79268774D01*
X164609744Y-79346795D01*
X164440226Y-79460063D01*
X164296063Y-79604226D01*
X164182795Y-79773744D01*
X164104774Y-79962102D01*
X164065000Y-80162061D01*
X148875236Y-80162061D01*
X148872205Y-80154744D01*
X148758937Y-79985226D01*
X148614774Y-79841063D01*
X148445256Y-79727795D01*
X148256898Y-79649774D01*
X148056939Y-79610000D01*
X147853061Y-79610000D01*
X147653102Y-79649774D01*
X147464744Y-79727795D01*
X147295226Y-79841063D01*
X147151063Y-79985226D01*
X147037795Y-80154744D01*
X146959774Y-80343102D01*
X146920000Y-80543061D01*
X143910000Y-80543061D01*
X143876961Y-80376961D01*
X144043061Y-80410000D01*
X144246939Y-80410000D01*
X144446898Y-80370226D01*
X144635256Y-80292205D01*
X144804774Y-80178937D01*
X144948937Y-80034774D01*
X145062205Y-79865256D01*
X145140226Y-79676898D01*
X145180000Y-79476939D01*
X145180000Y-79273061D01*
X145140226Y-79073102D01*
X145062205Y-78884744D01*
X144948937Y-78715226D01*
X144804774Y-78571063D01*
X144635256Y-78457795D01*
X144446898Y-78379774D01*
X144246939Y-78340000D01*
X144043061Y-78340000D01*
X143843102Y-78379774D01*
X143654744Y-78457795D01*
X143485226Y-78571063D01*
X143341063Y-78715226D01*
X143227795Y-78884744D01*
X143149774Y-79073102D01*
X143110000Y-79273061D01*
X143110000Y-79476939D01*
X143143039Y-79643039D01*
X142976939Y-79610000D01*
X142773061Y-79610000D01*
X142573102Y-79649774D01*
X142384744Y-79727795D01*
X142215226Y-79841063D01*
X142071063Y-79985226D01*
X141957795Y-80154744D01*
X141879774Y-80343102D01*
X141840000Y-80543061D01*
X137886772Y-80543061D01*
X137819774Y-80476063D01*
X137650256Y-80362795D01*
X137461898Y-80284774D01*
X137261939Y-80245000D01*
X137058061Y-80245000D01*
X136858102Y-80284774D01*
X136669744Y-80362795D01*
X136500226Y-80476063D01*
X136356063Y-80620226D01*
X136242795Y-80789744D01*
X136164774Y-80978102D01*
X136125000Y-81178061D01*
X109311772Y-81178061D01*
X109244774Y-81111063D01*
X109075256Y-80997795D01*
X108886898Y-80919774D01*
X108686939Y-80880000D01*
X108483061Y-80880000D01*
X108283102Y-80919774D01*
X108094744Y-80997795D01*
X107925226Y-81111063D01*
X107781063Y-81255226D01*
X107667795Y-81424744D01*
X107589774Y-81613102D01*
X107550000Y-81813061D01*
X106660000Y-81813061D01*
X106660000Y-76098061D01*
X117075000Y-76098061D01*
X117075000Y-76301939D01*
X117114774Y-76501898D01*
X117192795Y-76690256D01*
X117306063Y-76859774D01*
X117450226Y-77003937D01*
X117619744Y-77117205D01*
X117808102Y-77195226D01*
X118008061Y-77235000D01*
X118211939Y-77235000D01*
X118411898Y-77195226D01*
X118600256Y-77117205D01*
X118769774Y-77003937D01*
X118913937Y-76859774D01*
X119027205Y-76690256D01*
X119105226Y-76501898D01*
X119145000Y-76301939D01*
X119145000Y-76098061D01*
X119105226Y-75898102D01*
X119027205Y-75709744D01*
X118913937Y-75540226D01*
X118825149Y-75451438D01*
X140945925Y-75451438D01*
X140945925Y-75655316D01*
X140985699Y-75855275D01*
X141063720Y-76043633D01*
X141176988Y-76213151D01*
X141321151Y-76357314D01*
X141490669Y-76470582D01*
X141679027Y-76548603D01*
X141878986Y-76588377D01*
X142082864Y-76588377D01*
X142282823Y-76548603D01*
X142471181Y-76470582D01*
X142640699Y-76357314D01*
X142784862Y-76213151D01*
X142898130Y-76043633D01*
X142916631Y-75998967D01*
X181880000Y-75998967D01*
X181880000Y-76321033D01*
X181942832Y-76636912D01*
X182066082Y-76934463D01*
X182245013Y-77202252D01*
X182472748Y-77429987D01*
X182740537Y-77608918D01*
X183038088Y-77732168D01*
X183353967Y-77795000D01*
X183676033Y-77795000D01*
X183991912Y-77732168D01*
X184289463Y-77608918D01*
X184557252Y-77429987D01*
X184784987Y-77202252D01*
X184963918Y-76934463D01*
X185087168Y-76636912D01*
X185150000Y-76321033D01*
X185150000Y-75998967D01*
X185087168Y-75683088D01*
X184963918Y-75385537D01*
X184784987Y-75117748D01*
X184557252Y-74890013D01*
X184289463Y-74711082D01*
X183991912Y-74587832D01*
X183676033Y-74525000D01*
X183353967Y-74525000D01*
X183038088Y-74587832D01*
X182740537Y-74711082D01*
X182472748Y-74890013D01*
X182245013Y-75117748D01*
X182066082Y-75385537D01*
X181942832Y-75683088D01*
X181880000Y-75998967D01*
X142916631Y-75998967D01*
X142976151Y-75855275D01*
X143015925Y-75655316D01*
X143015925Y-75451438D01*
X142976151Y-75251479D01*
X142898130Y-75063121D01*
X142784862Y-74893603D01*
X142640699Y-74749440D01*
X142471181Y-74636172D01*
X142282823Y-74558151D01*
X142082864Y-74518377D01*
X141878986Y-74518377D01*
X141679027Y-74558151D01*
X141490669Y-74636172D01*
X141321151Y-74749440D01*
X141176988Y-74893603D01*
X141063720Y-75063121D01*
X140985699Y-75251479D01*
X140945925Y-75451438D01*
X118825149Y-75451438D01*
X118769774Y-75396063D01*
X118600256Y-75282795D01*
X118411898Y-75204774D01*
X118211939Y-75165000D01*
X118008061Y-75165000D01*
X117808102Y-75204774D01*
X117619744Y-75282795D01*
X117450226Y-75396063D01*
X117306063Y-75540226D01*
X117192795Y-75709744D01*
X117114774Y-75898102D01*
X117075000Y-76098061D01*
X106660000Y-76098061D01*
X106660000Y-74193061D01*
X136125000Y-74193061D01*
X136125000Y-74396939D01*
X136164774Y-74596898D01*
X136242795Y-74785256D01*
X136356063Y-74954774D01*
X136500226Y-75098937D01*
X136669744Y-75212205D01*
X136858102Y-75290226D01*
X137058061Y-75330000D01*
X137261939Y-75330000D01*
X137461898Y-75290226D01*
X137650256Y-75212205D01*
X137819774Y-75098937D01*
X137963937Y-74954774D01*
X138077205Y-74785256D01*
X138155226Y-74596898D01*
X138195000Y-74396939D01*
X138195000Y-74193061D01*
X138155226Y-73993102D01*
X138077205Y-73804744D01*
X137963937Y-73635226D01*
X137819774Y-73491063D01*
X137650256Y-73377795D01*
X137461898Y-73299774D01*
X137261939Y-73260000D01*
X137058061Y-73260000D01*
X136858102Y-73299774D01*
X136669744Y-73377795D01*
X136500226Y-73491063D01*
X136356063Y-73635226D01*
X136242795Y-73804744D01*
X136164774Y-73993102D01*
X136125000Y-74193061D01*
X106660000Y-74193061D01*
X106660000Y-68490000D01*
X109611928Y-68490000D01*
X109611928Y-70290000D01*
X109624188Y-70414482D01*
X109660498Y-70534180D01*
X109719463Y-70644494D01*
X109798815Y-70741185D01*
X109895506Y-70820537D01*
X110005820Y-70879502D01*
X110125518Y-70915812D01*
X110250000Y-70928072D01*
X112050000Y-70928072D01*
X112174482Y-70915812D01*
X112294180Y-70879502D01*
X112404494Y-70820537D01*
X112501185Y-70741185D01*
X112580537Y-70644494D01*
X112639502Y-70534180D01*
X112675812Y-70414482D01*
X112688072Y-70290000D01*
X112688072Y-68490000D01*
X115911928Y-68490000D01*
X115911928Y-70290000D01*
X115924188Y-70414482D01*
X115960498Y-70534180D01*
X116019463Y-70644494D01*
X116098815Y-70741185D01*
X116195506Y-70820537D01*
X116305820Y-70879502D01*
X116425518Y-70915812D01*
X116550000Y-70928072D01*
X118350000Y-70928072D01*
X118474482Y-70915812D01*
X118594180Y-70879502D01*
X118704494Y-70820537D01*
X118801185Y-70741185D01*
X118880537Y-70644494D01*
X118939502Y-70534180D01*
X118975812Y-70414482D01*
X118988072Y-70290000D01*
X118988072Y-68490000D01*
X118975812Y-68365518D01*
X118939502Y-68245820D01*
X118880537Y-68135506D01*
X118801185Y-68038815D01*
X118704494Y-67959463D01*
X118594180Y-67900498D01*
X118474482Y-67864188D01*
X118350000Y-67851928D01*
X116550000Y-67851928D01*
X116425518Y-67864188D01*
X116305820Y-67900498D01*
X116195506Y-67959463D01*
X116098815Y-68038815D01*
X116019463Y-68135506D01*
X115960498Y-68245820D01*
X115924188Y-68365518D01*
X115911928Y-68490000D01*
X112688072Y-68490000D01*
X112675812Y-68365518D01*
X112639502Y-68245820D01*
X112580537Y-68135506D01*
X112501185Y-68038815D01*
X112404494Y-67959463D01*
X112294180Y-67900498D01*
X112174482Y-67864188D01*
X112050000Y-67851928D01*
X110250000Y-67851928D01*
X110125518Y-67864188D01*
X110005820Y-67900498D01*
X109895506Y-67959463D01*
X109798815Y-68038815D01*
X109719463Y-68135506D01*
X109660498Y-68245820D01*
X109624188Y-68365518D01*
X109611928Y-68490000D01*
X106660000Y-68490000D01*
X106660000Y-64990000D01*
X109611928Y-64990000D01*
X109611928Y-66790000D01*
X109624188Y-66914482D01*
X109660498Y-67034180D01*
X109719463Y-67144494D01*
X109798815Y-67241185D01*
X109895506Y-67320537D01*
X110005820Y-67379502D01*
X110125518Y-67415812D01*
X110250000Y-67428072D01*
X112050000Y-67428072D01*
X112174482Y-67415812D01*
X112294180Y-67379502D01*
X112404494Y-67320537D01*
X112501185Y-67241185D01*
X112580537Y-67144494D01*
X112639502Y-67034180D01*
X112675812Y-66914482D01*
X112688072Y-66790000D01*
X112688072Y-64990000D01*
X115911928Y-64990000D01*
X115911928Y-66790000D01*
X115924188Y-66914482D01*
X115960498Y-67034180D01*
X116019463Y-67144494D01*
X116098815Y-67241185D01*
X116195506Y-67320537D01*
X116305820Y-67379502D01*
X116425518Y-67415812D01*
X116550000Y-67428072D01*
X118350000Y-67428072D01*
X118474482Y-67415812D01*
X118594180Y-67379502D01*
X118704494Y-67320537D01*
X118801185Y-67241185D01*
X118880537Y-67144494D01*
X118939502Y-67034180D01*
X118975812Y-66914482D01*
X118988072Y-66790000D01*
X118988072Y-64990000D01*
X118975812Y-64865518D01*
X118939502Y-64745820D01*
X118880537Y-64635506D01*
X118801185Y-64538815D01*
X118704494Y-64459463D01*
X118594180Y-64400498D01*
X118474482Y-64364188D01*
X118350000Y-64351928D01*
X116550000Y-64351928D01*
X116425518Y-64364188D01*
X116305820Y-64400498D01*
X116195506Y-64459463D01*
X116098815Y-64538815D01*
X116019463Y-64635506D01*
X115960498Y-64745820D01*
X115924188Y-64865518D01*
X115911928Y-64990000D01*
X112688072Y-64990000D01*
X112675812Y-64865518D01*
X112639502Y-64745820D01*
X112580537Y-64635506D01*
X112501185Y-64538815D01*
X112404494Y-64459463D01*
X112294180Y-64400498D01*
X112174482Y-64364188D01*
X112050000Y-64351928D01*
X110250000Y-64351928D01*
X110125518Y-64364188D01*
X110005820Y-64400498D01*
X109895506Y-64459463D01*
X109798815Y-64538815D01*
X109719463Y-64635506D01*
X109660498Y-64745820D01*
X109624188Y-64865518D01*
X109611928Y-64990000D01*
X106660000Y-64990000D01*
X106660000Y-63590000D01*
X109611928Y-63590000D01*
X109624188Y-63714482D01*
X109660498Y-63834180D01*
X109719463Y-63944494D01*
X109798815Y-64041185D01*
X109895506Y-64120537D01*
X110005820Y-64179502D01*
X110125518Y-64215812D01*
X110250000Y-64228072D01*
X110864250Y-64225000D01*
X111023000Y-64066250D01*
X111023000Y-62817000D01*
X111277000Y-62817000D01*
X111277000Y-64066250D01*
X111435750Y-64225000D01*
X112050000Y-64228072D01*
X112174482Y-64215812D01*
X112294180Y-64179502D01*
X112404494Y-64120537D01*
X112501185Y-64041185D01*
X112580537Y-63944494D01*
X112639502Y-63834180D01*
X112675812Y-63714482D01*
X112688072Y-63590000D01*
X115911928Y-63590000D01*
X115924188Y-63714482D01*
X115960498Y-63834180D01*
X116019463Y-63944494D01*
X116098815Y-64041185D01*
X116195506Y-64120537D01*
X116305820Y-64179502D01*
X116425518Y-64215812D01*
X116550000Y-64228072D01*
X117164250Y-64225000D01*
X117323000Y-64066250D01*
X117323000Y-62817000D01*
X117577000Y-62817000D01*
X117577000Y-64066250D01*
X117735750Y-64225000D01*
X118350000Y-64228072D01*
X118474482Y-64215812D01*
X118594180Y-64179502D01*
X118704494Y-64120537D01*
X118801185Y-64041185D01*
X118880537Y-63944494D01*
X118939502Y-63834180D01*
X118975812Y-63714482D01*
X118988072Y-63590000D01*
X118986554Y-63286323D01*
X121830497Y-63286323D01*
X121830497Y-63713677D01*
X121913870Y-64132821D01*
X122077412Y-64527645D01*
X122314837Y-64882977D01*
X122617023Y-65185163D01*
X122972355Y-65422588D01*
X123367179Y-65586130D01*
X123786323Y-65669503D01*
X124213677Y-65669503D01*
X124632821Y-65586130D01*
X125027645Y-65422588D01*
X125382977Y-65185163D01*
X125583140Y-64985000D01*
X129956928Y-64985000D01*
X129969188Y-65109482D01*
X130005498Y-65229180D01*
X130064463Y-65339494D01*
X130143815Y-65436185D01*
X130240506Y-65515537D01*
X130350820Y-65574502D01*
X130423380Y-65596513D01*
X130291525Y-65728368D01*
X130129010Y-65971589D01*
X130017068Y-66241842D01*
X129960000Y-66528740D01*
X129960000Y-66821260D01*
X130017068Y-67108158D01*
X130129010Y-67378411D01*
X130291525Y-67621632D01*
X130498368Y-67828475D01*
X130672760Y-67945000D01*
X130498368Y-68061525D01*
X130291525Y-68268368D01*
X130129010Y-68511589D01*
X130017068Y-68781842D01*
X129960000Y-69068740D01*
X129960000Y-69361260D01*
X130017068Y-69648158D01*
X130129010Y-69918411D01*
X130291525Y-70161632D01*
X130498368Y-70368475D01*
X130672760Y-70485000D01*
X130498368Y-70601525D01*
X130291525Y-70808368D01*
X130129010Y-71051589D01*
X130017068Y-71321842D01*
X129960000Y-71608740D01*
X129960000Y-71901260D01*
X130017068Y-72188158D01*
X130129010Y-72458411D01*
X130291525Y-72701632D01*
X130498368Y-72908475D01*
X130741589Y-73070990D01*
X131011842Y-73182932D01*
X131298740Y-73240000D01*
X131591260Y-73240000D01*
X131878158Y-73182932D01*
X132148411Y-73070990D01*
X132369802Y-72923061D01*
X149460000Y-72923061D01*
X149460000Y-73126939D01*
X149499774Y-73326898D01*
X149577795Y-73515256D01*
X149691063Y-73684774D01*
X149835226Y-73828937D01*
X150004744Y-73942205D01*
X150193102Y-74020226D01*
X150393061Y-74060000D01*
X150596939Y-74060000D01*
X150796898Y-74020226D01*
X150985256Y-73942205D01*
X151154774Y-73828937D01*
X151298937Y-73684774D01*
X151383603Y-73558061D01*
X154540000Y-73558061D01*
X154540000Y-73761939D01*
X154579774Y-73961898D01*
X154657795Y-74150256D01*
X154771063Y-74319774D01*
X154915226Y-74463937D01*
X155084744Y-74577205D01*
X155273102Y-74655226D01*
X155473061Y-74695000D01*
X155676939Y-74695000D01*
X155876898Y-74655226D01*
X156065256Y-74577205D01*
X156234774Y-74463937D01*
X156264424Y-74434287D01*
X163525552Y-74434287D01*
X163525552Y-74638165D01*
X163565326Y-74838124D01*
X163643347Y-75026482D01*
X163756615Y-75196000D01*
X163900778Y-75340163D01*
X164070296Y-75453431D01*
X164258654Y-75531452D01*
X164458613Y-75571226D01*
X164662491Y-75571226D01*
X164862450Y-75531452D01*
X165050808Y-75453431D01*
X165220326Y-75340163D01*
X165364489Y-75196000D01*
X165477757Y-75026482D01*
X165555778Y-74838124D01*
X165595552Y-74638165D01*
X165595552Y-74434287D01*
X165555778Y-74234328D01*
X165477757Y-74045970D01*
X165364489Y-73876452D01*
X165220326Y-73732289D01*
X165140573Y-73679000D01*
X165201939Y-73679000D01*
X165401898Y-73639226D01*
X165590256Y-73561205D01*
X165759774Y-73447937D01*
X165903937Y-73303774D01*
X166017205Y-73134256D01*
X166095226Y-72945898D01*
X166135000Y-72745939D01*
X166135000Y-72542061D01*
X166095226Y-72342102D01*
X166017205Y-72153744D01*
X165903937Y-71984226D01*
X165759774Y-71840063D01*
X165590256Y-71726795D01*
X165401898Y-71648774D01*
X165201939Y-71609000D01*
X164998061Y-71609000D01*
X164798102Y-71648774D01*
X164609744Y-71726795D01*
X164440226Y-71840063D01*
X164296063Y-71984226D01*
X164182795Y-72153744D01*
X164104774Y-72342102D01*
X164065000Y-72542061D01*
X164065000Y-72745939D01*
X164104774Y-72945898D01*
X164182795Y-73134256D01*
X164296063Y-73303774D01*
X164440226Y-73447937D01*
X164519979Y-73501226D01*
X164458613Y-73501226D01*
X164258654Y-73541000D01*
X164070296Y-73619021D01*
X163900778Y-73732289D01*
X163756615Y-73876452D01*
X163643347Y-74045970D01*
X163565326Y-74234328D01*
X163525552Y-74434287D01*
X156264424Y-74434287D01*
X156378937Y-74319774D01*
X156492205Y-74150256D01*
X156570226Y-73961898D01*
X156610000Y-73761939D01*
X156610000Y-73558061D01*
X156570226Y-73358102D01*
X156492205Y-73169744D01*
X156378937Y-73000226D01*
X156301772Y-72923061D01*
X158350000Y-72923061D01*
X158350000Y-73126939D01*
X158389774Y-73326898D01*
X158467795Y-73515256D01*
X158581063Y-73684774D01*
X158725226Y-73828937D01*
X158894744Y-73942205D01*
X159083102Y-74020226D01*
X159283061Y-74060000D01*
X159486939Y-74060000D01*
X159686898Y-74020226D01*
X159875256Y-73942205D01*
X160044774Y-73828937D01*
X160188937Y-73684774D01*
X160302205Y-73515256D01*
X160380226Y-73326898D01*
X160420000Y-73126939D01*
X160420000Y-72923061D01*
X160980010Y-72923061D01*
X160980010Y-73126939D01*
X161019784Y-73326898D01*
X161097805Y-73515256D01*
X161211073Y-73684774D01*
X161355236Y-73828937D01*
X161524754Y-73942205D01*
X161713112Y-74020226D01*
X161913071Y-74060000D01*
X162116949Y-74060000D01*
X162316908Y-74020226D01*
X162505266Y-73942205D01*
X162674784Y-73828937D01*
X162818947Y-73684774D01*
X162932215Y-73515256D01*
X163010236Y-73326898D01*
X163050010Y-73126939D01*
X163050010Y-72923061D01*
X163010236Y-72723102D01*
X162932215Y-72534744D01*
X162818947Y-72365226D01*
X162674784Y-72221063D01*
X162505266Y-72107795D01*
X162316908Y-72029774D01*
X162116949Y-71990000D01*
X161913071Y-71990000D01*
X161713112Y-72029774D01*
X161524754Y-72107795D01*
X161355236Y-72221063D01*
X161211073Y-72365226D01*
X161097805Y-72534744D01*
X161019784Y-72723102D01*
X160980010Y-72923061D01*
X160420000Y-72923061D01*
X160380226Y-72723102D01*
X160302205Y-72534744D01*
X160188937Y-72365226D01*
X160044774Y-72221063D01*
X159875256Y-72107795D01*
X159686898Y-72029774D01*
X159486939Y-71990000D01*
X159283061Y-71990000D01*
X159083102Y-72029774D01*
X158894744Y-72107795D01*
X158725226Y-72221063D01*
X158581063Y-72365226D01*
X158467795Y-72534744D01*
X158389774Y-72723102D01*
X158350000Y-72923061D01*
X156301772Y-72923061D01*
X156234774Y-72856063D01*
X156065256Y-72742795D01*
X155876898Y-72664774D01*
X155676939Y-72625000D01*
X155473061Y-72625000D01*
X155273102Y-72664774D01*
X155084744Y-72742795D01*
X154915226Y-72856063D01*
X154771063Y-73000226D01*
X154657795Y-73169744D01*
X154579774Y-73358102D01*
X154540000Y-73558061D01*
X151383603Y-73558061D01*
X151412205Y-73515256D01*
X151490226Y-73326898D01*
X151530000Y-73126939D01*
X151530000Y-72923061D01*
X151490226Y-72723102D01*
X151412205Y-72534744D01*
X151298937Y-72365226D01*
X151154774Y-72221063D01*
X150985256Y-72107795D01*
X150796898Y-72029774D01*
X150596939Y-71990000D01*
X150393061Y-71990000D01*
X150193102Y-72029774D01*
X150004744Y-72107795D01*
X149835226Y-72221063D01*
X149691063Y-72365226D01*
X149577795Y-72534744D01*
X149499774Y-72723102D01*
X149460000Y-72923061D01*
X132369802Y-72923061D01*
X132391632Y-72908475D01*
X132598475Y-72701632D01*
X132760990Y-72458411D01*
X132872932Y-72188158D01*
X132930000Y-71901260D01*
X132930000Y-71608740D01*
X132872932Y-71321842D01*
X132760990Y-71051589D01*
X132598475Y-70808368D01*
X132391632Y-70601525D01*
X132217240Y-70485000D01*
X132391632Y-70368475D01*
X132598475Y-70161632D01*
X132705096Y-70002061D01*
X164065000Y-70002061D01*
X164065000Y-70205939D01*
X164104774Y-70405898D01*
X164182795Y-70594256D01*
X164296063Y-70763774D01*
X164440226Y-70907937D01*
X164609744Y-71021205D01*
X164798102Y-71099226D01*
X164998061Y-71139000D01*
X165201939Y-71139000D01*
X165401898Y-71099226D01*
X165590256Y-71021205D01*
X165623537Y-70998967D01*
X181880000Y-70998967D01*
X181880000Y-71321033D01*
X181942832Y-71636912D01*
X182066082Y-71934463D01*
X182245013Y-72202252D01*
X182472748Y-72429987D01*
X182740537Y-72608918D01*
X183038088Y-72732168D01*
X183353967Y-72795000D01*
X183676033Y-72795000D01*
X183991912Y-72732168D01*
X184289463Y-72608918D01*
X184557252Y-72429987D01*
X184784987Y-72202252D01*
X184963918Y-71934463D01*
X185087168Y-71636912D01*
X185150000Y-71321033D01*
X185150000Y-70998967D01*
X185087168Y-70683088D01*
X184963918Y-70385537D01*
X184784987Y-70117748D01*
X184557252Y-69890013D01*
X184289463Y-69711082D01*
X183991912Y-69587832D01*
X183676033Y-69525000D01*
X183353967Y-69525000D01*
X183038088Y-69587832D01*
X182740537Y-69711082D01*
X182472748Y-69890013D01*
X182245013Y-70117748D01*
X182066082Y-70385537D01*
X181942832Y-70683088D01*
X181880000Y-70998967D01*
X165623537Y-70998967D01*
X165759774Y-70907937D01*
X165903937Y-70763774D01*
X166017205Y-70594256D01*
X166095226Y-70405898D01*
X166135000Y-70205939D01*
X166135000Y-70002061D01*
X166095226Y-69802102D01*
X166017205Y-69613744D01*
X165903937Y-69444226D01*
X165759774Y-69300063D01*
X165590256Y-69186795D01*
X165401898Y-69108774D01*
X165201939Y-69069000D01*
X164998061Y-69069000D01*
X164798102Y-69108774D01*
X164609744Y-69186795D01*
X164440226Y-69300063D01*
X164296063Y-69444226D01*
X164182795Y-69613744D01*
X164104774Y-69802102D01*
X164065000Y-70002061D01*
X132705096Y-70002061D01*
X132760990Y-69918411D01*
X132872932Y-69648158D01*
X132930000Y-69361260D01*
X132930000Y-69068740D01*
X132872932Y-68781842D01*
X132760990Y-68511589D01*
X132598475Y-68268368D01*
X132391632Y-68061525D01*
X132217240Y-67945000D01*
X132391632Y-67828475D01*
X132598475Y-67621632D01*
X132760990Y-67378411D01*
X132872932Y-67108158D01*
X132930000Y-66821260D01*
X132930000Y-66528740D01*
X132872932Y-66241842D01*
X132760990Y-65971589D01*
X132598475Y-65728368D01*
X132466620Y-65596513D01*
X132539180Y-65574502D01*
X132649494Y-65515537D01*
X132746185Y-65436185D01*
X132825537Y-65339494D01*
X132884502Y-65229180D01*
X132892150Y-65203967D01*
X181880000Y-65203967D01*
X181880000Y-65526033D01*
X181942832Y-65841912D01*
X182066082Y-66139463D01*
X182245013Y-66407252D01*
X182472748Y-66634987D01*
X182740537Y-66813918D01*
X183038088Y-66937168D01*
X183353967Y-67000000D01*
X183676033Y-67000000D01*
X183991912Y-66937168D01*
X184289463Y-66813918D01*
X184557252Y-66634987D01*
X184784987Y-66407252D01*
X184963918Y-66139463D01*
X185087168Y-65841912D01*
X185150000Y-65526033D01*
X185150000Y-65203967D01*
X185087168Y-64888088D01*
X184963918Y-64590537D01*
X184784987Y-64322748D01*
X184557252Y-64095013D01*
X184289463Y-63916082D01*
X183991912Y-63792832D01*
X183676033Y-63730000D01*
X183353967Y-63730000D01*
X183038088Y-63792832D01*
X182740537Y-63916082D01*
X182472748Y-64095013D01*
X182245013Y-64322748D01*
X182066082Y-64590537D01*
X181942832Y-64888088D01*
X181880000Y-65203967D01*
X132892150Y-65203967D01*
X132920812Y-65109482D01*
X132933072Y-64985000D01*
X132930000Y-64420750D01*
X132771250Y-64262000D01*
X131572000Y-64262000D01*
X131572000Y-64282000D01*
X131318000Y-64282000D01*
X131318000Y-64262000D01*
X130118750Y-64262000D01*
X129960000Y-64420750D01*
X129956928Y-64985000D01*
X125583140Y-64985000D01*
X125685163Y-64882977D01*
X125922588Y-64527645D01*
X126086130Y-64132821D01*
X126169503Y-63713677D01*
X126169503Y-63286323D01*
X126169240Y-63285000D01*
X129956928Y-63285000D01*
X129960000Y-63849250D01*
X130118750Y-64008000D01*
X131318000Y-64008000D01*
X131318000Y-62808750D01*
X131572000Y-62808750D01*
X131572000Y-64008000D01*
X132771250Y-64008000D01*
X132930000Y-63849250D01*
X132933072Y-63285000D01*
X132920812Y-63160518D01*
X132884502Y-63040820D01*
X132825537Y-62930506D01*
X132746185Y-62833815D01*
X132649494Y-62754463D01*
X132539180Y-62695498D01*
X132419482Y-62659188D01*
X132295000Y-62646928D01*
X131730750Y-62650000D01*
X131572000Y-62808750D01*
X131318000Y-62808750D01*
X131159250Y-62650000D01*
X130595000Y-62646928D01*
X130470518Y-62659188D01*
X130350820Y-62695498D01*
X130240506Y-62754463D01*
X130143815Y-62833815D01*
X130064463Y-62930506D01*
X130005498Y-63040820D01*
X129969188Y-63160518D01*
X129956928Y-63285000D01*
X126169240Y-63285000D01*
X126086130Y-62867179D01*
X125922588Y-62472355D01*
X125685163Y-62117023D01*
X125382977Y-61814837D01*
X125027645Y-61577412D01*
X124824005Y-61493061D01*
X157715000Y-61493061D01*
X157715000Y-61696939D01*
X157754774Y-61896898D01*
X157832795Y-62085256D01*
X157946063Y-62254774D01*
X158090226Y-62398937D01*
X158259744Y-62512205D01*
X158448102Y-62590226D01*
X158648061Y-62630000D01*
X158851939Y-62630000D01*
X159051898Y-62590226D01*
X159240256Y-62512205D01*
X159409774Y-62398937D01*
X159553937Y-62254774D01*
X159667205Y-62085256D01*
X159745226Y-61896898D01*
X159749768Y-61874061D01*
X164065000Y-61874061D01*
X164065000Y-62077939D01*
X164104774Y-62277898D01*
X164182795Y-62466256D01*
X164296063Y-62635774D01*
X164440226Y-62779937D01*
X164609744Y-62893205D01*
X164798102Y-62971226D01*
X164998061Y-63011000D01*
X165201939Y-63011000D01*
X165401898Y-62971226D01*
X165590256Y-62893205D01*
X165759774Y-62779937D01*
X165903937Y-62635774D01*
X166017205Y-62466256D01*
X166095226Y-62277898D01*
X166135000Y-62077939D01*
X166135000Y-61874061D01*
X166095226Y-61674102D01*
X166017205Y-61485744D01*
X165903937Y-61316226D01*
X165759774Y-61172063D01*
X165590256Y-61058795D01*
X165401898Y-60980774D01*
X165201939Y-60941000D01*
X164998061Y-60941000D01*
X164798102Y-60980774D01*
X164609744Y-61058795D01*
X164440226Y-61172063D01*
X164296063Y-61316226D01*
X164182795Y-61485744D01*
X164104774Y-61674102D01*
X164065000Y-61874061D01*
X159749768Y-61874061D01*
X159785000Y-61696939D01*
X159785000Y-61493061D01*
X159745226Y-61293102D01*
X159667205Y-61104744D01*
X159553937Y-60935226D01*
X159409774Y-60791063D01*
X159240256Y-60677795D01*
X159051898Y-60599774D01*
X158851939Y-60560000D01*
X158648061Y-60560000D01*
X158448102Y-60599774D01*
X158259744Y-60677795D01*
X158090226Y-60791063D01*
X157946063Y-60935226D01*
X157832795Y-61104744D01*
X157754774Y-61293102D01*
X157715000Y-61493061D01*
X124824005Y-61493061D01*
X124632821Y-61413870D01*
X124213677Y-61330497D01*
X123786323Y-61330497D01*
X123367179Y-61413870D01*
X122972355Y-61577412D01*
X122617023Y-61814837D01*
X122314837Y-62117023D01*
X122077412Y-62472355D01*
X121913870Y-62867179D01*
X121830497Y-63286323D01*
X118986554Y-63286323D01*
X118985000Y-62975750D01*
X118826250Y-62817000D01*
X117577000Y-62817000D01*
X117323000Y-62817000D01*
X116073750Y-62817000D01*
X115915000Y-62975750D01*
X115911928Y-63590000D01*
X112688072Y-63590000D01*
X112685000Y-62975750D01*
X112526250Y-62817000D01*
X111277000Y-62817000D01*
X111023000Y-62817000D01*
X109773750Y-62817000D01*
X109615000Y-62975750D01*
X109611928Y-63590000D01*
X106660000Y-63590000D01*
X106660000Y-61790000D01*
X109611928Y-61790000D01*
X109615000Y-62404250D01*
X109773750Y-62563000D01*
X111023000Y-62563000D01*
X111023000Y-61313750D01*
X111277000Y-61313750D01*
X111277000Y-62563000D01*
X112526250Y-62563000D01*
X112685000Y-62404250D01*
X112688072Y-61790000D01*
X115911928Y-61790000D01*
X115915000Y-62404250D01*
X116073750Y-62563000D01*
X117323000Y-62563000D01*
X117323000Y-61313750D01*
X117577000Y-61313750D01*
X117577000Y-62563000D01*
X118826250Y-62563000D01*
X118985000Y-62404250D01*
X118988072Y-61790000D01*
X118975812Y-61665518D01*
X118939502Y-61545820D01*
X118880537Y-61435506D01*
X118801185Y-61338815D01*
X118704494Y-61259463D01*
X118594180Y-61200498D01*
X118474482Y-61164188D01*
X118350000Y-61151928D01*
X117735750Y-61155000D01*
X117577000Y-61313750D01*
X117323000Y-61313750D01*
X117164250Y-61155000D01*
X116550000Y-61151928D01*
X116425518Y-61164188D01*
X116305820Y-61200498D01*
X116195506Y-61259463D01*
X116098815Y-61338815D01*
X116019463Y-61435506D01*
X115960498Y-61545820D01*
X115924188Y-61665518D01*
X115911928Y-61790000D01*
X112688072Y-61790000D01*
X112675812Y-61665518D01*
X112639502Y-61545820D01*
X112580537Y-61435506D01*
X112501185Y-61338815D01*
X112404494Y-61259463D01*
X112294180Y-61200498D01*
X112174482Y-61164188D01*
X112050000Y-61151928D01*
X111435750Y-61155000D01*
X111277000Y-61313750D01*
X111023000Y-61313750D01*
X110864250Y-61155000D01*
X110250000Y-61151928D01*
X110125518Y-61164188D01*
X110005820Y-61200498D01*
X109895506Y-61259463D01*
X109798815Y-61338815D01*
X109719463Y-61435506D01*
X109660498Y-61545820D01*
X109624188Y-61665518D01*
X109611928Y-61790000D01*
X106660000Y-61790000D01*
X106660000Y-60203967D01*
X181880000Y-60203967D01*
X181880000Y-60526033D01*
X181942832Y-60841912D01*
X182066082Y-61139463D01*
X182245013Y-61407252D01*
X182472748Y-61634987D01*
X182740537Y-61813918D01*
X183038088Y-61937168D01*
X183353967Y-62000000D01*
X183676033Y-62000000D01*
X183991912Y-61937168D01*
X184289463Y-61813918D01*
X184557252Y-61634987D01*
X184784987Y-61407252D01*
X184963918Y-61139463D01*
X185087168Y-60841912D01*
X185150000Y-60526033D01*
X185150000Y-60203967D01*
X185087168Y-59888088D01*
X184963918Y-59590537D01*
X184784987Y-59322748D01*
X184557252Y-59095013D01*
X184289463Y-58916082D01*
X183991912Y-58792832D01*
X183676033Y-58730000D01*
X183353967Y-58730000D01*
X183038088Y-58792832D01*
X182740537Y-58916082D01*
X182472748Y-59095013D01*
X182245013Y-59322748D01*
X182066082Y-59590537D01*
X181942832Y-59888088D01*
X181880000Y-60203967D01*
X106660000Y-60203967D01*
X106660000Y-59032279D01*
X106667767Y-58953061D01*
X148825000Y-58953061D01*
X148825000Y-59156939D01*
X148864774Y-59356898D01*
X148942795Y-59545256D01*
X149056063Y-59714774D01*
X149200226Y-59858937D01*
X149369744Y-59972205D01*
X149558102Y-60050226D01*
X149758061Y-60090000D01*
X149961939Y-60090000D01*
X150161898Y-60050226D01*
X150350256Y-59972205D01*
X150519774Y-59858937D01*
X150663937Y-59714774D01*
X150777205Y-59545256D01*
X150855226Y-59356898D01*
X150895000Y-59156939D01*
X150895000Y-58953061D01*
X150869739Y-58826061D01*
X164573000Y-58826061D01*
X164573000Y-59029939D01*
X164612774Y-59229898D01*
X164690795Y-59418256D01*
X164804063Y-59587774D01*
X164948226Y-59731937D01*
X165117744Y-59845205D01*
X165306102Y-59923226D01*
X165506061Y-59963000D01*
X165709939Y-59963000D01*
X165909898Y-59923226D01*
X166098256Y-59845205D01*
X166267774Y-59731937D01*
X166411937Y-59587774D01*
X166525205Y-59418256D01*
X166603226Y-59229898D01*
X166643000Y-59029939D01*
X166643000Y-58826061D01*
X166603226Y-58626102D01*
X166525205Y-58437744D01*
X166411937Y-58268226D01*
X166267774Y-58124063D01*
X166098256Y-58010795D01*
X165909898Y-57932774D01*
X165709939Y-57893000D01*
X165506061Y-57893000D01*
X165306102Y-57932774D01*
X165117744Y-58010795D01*
X164948226Y-58124063D01*
X164804063Y-58268226D01*
X164690795Y-58437744D01*
X164612774Y-58626102D01*
X164573000Y-58826061D01*
X150869739Y-58826061D01*
X150855226Y-58753102D01*
X150777205Y-58564744D01*
X150663937Y-58395226D01*
X150519774Y-58251063D01*
X150350256Y-58137795D01*
X150161898Y-58059774D01*
X149961939Y-58020000D01*
X149758061Y-58020000D01*
X149558102Y-58059774D01*
X149369744Y-58137795D01*
X149200226Y-58251063D01*
X149056063Y-58395226D01*
X148942795Y-58564744D01*
X148864774Y-58753102D01*
X148825000Y-58953061D01*
X106667767Y-58953061D01*
X106688625Y-58740341D01*
X106764035Y-58490571D01*
X106886522Y-58260208D01*
X107051422Y-58058020D01*
X107252450Y-57891714D01*
X107481954Y-57767622D01*
X107731195Y-57690469D01*
X108021088Y-57660000D01*
X188967721Y-57660000D01*
X189259659Y-57688625D01*
G04 #@! TA.AperFunction,Conductor*
D20*
G36*
X189259659Y-57688625D02*
G01*
X189509429Y-57764035D01*
X189739792Y-57886522D01*
X189941980Y-58051422D01*
X190108286Y-58252450D01*
X190232378Y-58481954D01*
X190309531Y-58731195D01*
X190340000Y-59021088D01*
X190340001Y-119967711D01*
X190311375Y-120259660D01*
X190235965Y-120509429D01*
X190113477Y-120739794D01*
X189948579Y-120941979D01*
X189747546Y-121108288D01*
X189518046Y-121232378D01*
X189268805Y-121309531D01*
X188978911Y-121340000D01*
X151741731Y-121340000D01*
X151937743Y-121301011D01*
X152217095Y-121185299D01*
X152468505Y-121017312D01*
X152682312Y-120803505D01*
X152850299Y-120552095D01*
X152966011Y-120272743D01*
X153025000Y-119976184D01*
X153025000Y-119673816D01*
X152966011Y-119377257D01*
X152883877Y-119178967D01*
X181880000Y-119178967D01*
X181880000Y-119501033D01*
X181942832Y-119816912D01*
X182066082Y-120114463D01*
X182245013Y-120382252D01*
X182472748Y-120609987D01*
X182740537Y-120788918D01*
X183038088Y-120912168D01*
X183353967Y-120975000D01*
X183676033Y-120975000D01*
X183991912Y-120912168D01*
X184289463Y-120788918D01*
X184557252Y-120609987D01*
X184784987Y-120382252D01*
X184963918Y-120114463D01*
X185087168Y-119816912D01*
X185150000Y-119501033D01*
X185150000Y-119178967D01*
X185087168Y-118863088D01*
X184963918Y-118565537D01*
X184784987Y-118297748D01*
X184557252Y-118070013D01*
X184289463Y-117891082D01*
X183991912Y-117767832D01*
X183676033Y-117705000D01*
X183353967Y-117705000D01*
X183038088Y-117767832D01*
X182740537Y-117891082D01*
X182472748Y-118070013D01*
X182245013Y-118297748D01*
X182066082Y-118565537D01*
X181942832Y-118863088D01*
X181880000Y-119178967D01*
X152883877Y-119178967D01*
X152850299Y-119097905D01*
X152682312Y-118846495D01*
X152468505Y-118632688D01*
X152217095Y-118464701D01*
X151937743Y-118348989D01*
X151641184Y-118290000D01*
X151338816Y-118290000D01*
X151042257Y-118348989D01*
X150762905Y-118464701D01*
X150511495Y-118632688D01*
X150297688Y-118846495D01*
X150129701Y-119097905D01*
X150013989Y-119377257D01*
X149955000Y-119673816D01*
X149955000Y-119976184D01*
X150013989Y-120272743D01*
X150129701Y-120552095D01*
X150297688Y-120803505D01*
X150511495Y-121017312D01*
X150762905Y-121185299D01*
X151042257Y-121301011D01*
X151238269Y-121340000D01*
X145241731Y-121340000D01*
X145437743Y-121301011D01*
X145717095Y-121185299D01*
X145968505Y-121017312D01*
X146182312Y-120803505D01*
X146350299Y-120552095D01*
X146466011Y-120272743D01*
X146525000Y-119976184D01*
X146525000Y-119673816D01*
X146466011Y-119377257D01*
X146350299Y-119097905D01*
X146182312Y-118846495D01*
X145968505Y-118632688D01*
X145717095Y-118464701D01*
X145437743Y-118348989D01*
X145141184Y-118290000D01*
X144838816Y-118290000D01*
X144542257Y-118348989D01*
X144262905Y-118464701D01*
X144011495Y-118632688D01*
X143797688Y-118846495D01*
X143629701Y-119097905D01*
X143513989Y-119377257D01*
X143455000Y-119673816D01*
X143455000Y-119976184D01*
X143513989Y-120272743D01*
X143629701Y-120552095D01*
X143797688Y-120803505D01*
X144011495Y-121017312D01*
X144262905Y-121185299D01*
X144542257Y-121301011D01*
X144738269Y-121340000D01*
X133241731Y-121340000D01*
X133437743Y-121301011D01*
X133717095Y-121185299D01*
X133968505Y-121017312D01*
X134182312Y-120803505D01*
X134350299Y-120552095D01*
X134466011Y-120272743D01*
X134525000Y-119976184D01*
X134525000Y-119673816D01*
X134466011Y-119377257D01*
X134350299Y-119097905D01*
X134182312Y-118846495D01*
X133968505Y-118632688D01*
X133717095Y-118464701D01*
X133437743Y-118348989D01*
X133141184Y-118290000D01*
X132838816Y-118290000D01*
X132542257Y-118348989D01*
X132262905Y-118464701D01*
X132011495Y-118632688D01*
X131797688Y-118846495D01*
X131629701Y-119097905D01*
X131513989Y-119377257D01*
X131455000Y-119673816D01*
X131455000Y-119976184D01*
X131513989Y-120272743D01*
X131629701Y-120552095D01*
X131797688Y-120803505D01*
X132011495Y-121017312D01*
X132262905Y-121185299D01*
X132542257Y-121301011D01*
X132738269Y-121340000D01*
X108032279Y-121340000D01*
X107740340Y-121311375D01*
X107490571Y-121235965D01*
X107260206Y-121113477D01*
X107058021Y-120948579D01*
X106891712Y-120747546D01*
X106767622Y-120518046D01*
X106690469Y-120268805D01*
X106660000Y-119978911D01*
X106660000Y-115562413D01*
X117829192Y-115562413D01*
X117924956Y-115826814D01*
X118214571Y-115967704D01*
X118526108Y-116049384D01*
X118847595Y-116068718D01*
X119166675Y-116024961D01*
X119471088Y-115919795D01*
X119645044Y-115826814D01*
X119740808Y-115562413D01*
X118785000Y-114606605D01*
X117829192Y-115562413D01*
X106660000Y-115562413D01*
X106660000Y-114489595D01*
X117143282Y-114489595D01*
X117187039Y-114808675D01*
X117292205Y-115113088D01*
X117385186Y-115287044D01*
X117649587Y-115382808D01*
X118605395Y-114427000D01*
X118964605Y-114427000D01*
X119920413Y-115382808D01*
X120184814Y-115287044D01*
X120325704Y-114997429D01*
X120407384Y-114685892D01*
X120426718Y-114364405D01*
X120413219Y-114265967D01*
X122150000Y-114265967D01*
X122150000Y-114588033D01*
X122212832Y-114903912D01*
X122336082Y-115201463D01*
X122515013Y-115469252D01*
X122742748Y-115696987D01*
X123010537Y-115875918D01*
X123308088Y-115999168D01*
X123623967Y-116062000D01*
X123946033Y-116062000D01*
X124261912Y-115999168D01*
X124559463Y-115875918D01*
X124827252Y-115696987D01*
X125054987Y-115469252D01*
X125233918Y-115201463D01*
X125328212Y-114973816D01*
X131455000Y-114973816D01*
X131455000Y-115276184D01*
X131513989Y-115572743D01*
X131629701Y-115852095D01*
X131797688Y-116103505D01*
X132011495Y-116317312D01*
X132262905Y-116485299D01*
X132542257Y-116601011D01*
X132838816Y-116660000D01*
X133141184Y-116660000D01*
X133437743Y-116601011D01*
X133717095Y-116485299D01*
X133968505Y-116317312D01*
X134182312Y-116103505D01*
X134350299Y-115852095D01*
X134466011Y-115572743D01*
X134525000Y-115276184D01*
X134525000Y-114973816D01*
X134466011Y-114677257D01*
X134350299Y-114397905D01*
X134347000Y-114392967D01*
X153853000Y-114392967D01*
X153853000Y-114715033D01*
X153915832Y-115030912D01*
X154039082Y-115328463D01*
X154218013Y-115596252D01*
X154445748Y-115823987D01*
X154713537Y-116002918D01*
X155011088Y-116126168D01*
X155326967Y-116189000D01*
X155649033Y-116189000D01*
X155964912Y-116126168D01*
X156262463Y-116002918D01*
X156530252Y-115823987D01*
X156757987Y-115596252D01*
X156936918Y-115328463D01*
X157060168Y-115030912D01*
X157123000Y-114715033D01*
X157123000Y-114392967D01*
X158853000Y-114392967D01*
X158853000Y-114715033D01*
X158915832Y-115030912D01*
X159039082Y-115328463D01*
X159218013Y-115596252D01*
X159445748Y-115823987D01*
X159713537Y-116002918D01*
X160011088Y-116126168D01*
X160326967Y-116189000D01*
X160649033Y-116189000D01*
X160964912Y-116126168D01*
X161262463Y-116002918D01*
X161530252Y-115823987D01*
X161757987Y-115596252D01*
X161936918Y-115328463D01*
X162060168Y-115030912D01*
X162123000Y-114715033D01*
X162123000Y-114392967D01*
X162080433Y-114178967D01*
X181880000Y-114178967D01*
X181880000Y-114501033D01*
X181942832Y-114816912D01*
X182066082Y-115114463D01*
X182245013Y-115382252D01*
X182472748Y-115609987D01*
X182740537Y-115788918D01*
X183038088Y-115912168D01*
X183353967Y-115975000D01*
X183676033Y-115975000D01*
X183991912Y-115912168D01*
X184289463Y-115788918D01*
X184557252Y-115609987D01*
X184784987Y-115382252D01*
X184963918Y-115114463D01*
X185087168Y-114816912D01*
X185150000Y-114501033D01*
X185150000Y-114178967D01*
X185087168Y-113863088D01*
X184963918Y-113565537D01*
X184784987Y-113297748D01*
X184557252Y-113070013D01*
X184289463Y-112891082D01*
X183991912Y-112767832D01*
X183676033Y-112705000D01*
X183353967Y-112705000D01*
X183038088Y-112767832D01*
X182740537Y-112891082D01*
X182472748Y-113070013D01*
X182245013Y-113297748D01*
X182066082Y-113565537D01*
X181942832Y-113863088D01*
X181880000Y-114178967D01*
X162080433Y-114178967D01*
X162060168Y-114077088D01*
X161936918Y-113779537D01*
X161757987Y-113511748D01*
X161530252Y-113284013D01*
X161262463Y-113105082D01*
X160964912Y-112981832D01*
X160649033Y-112919000D01*
X160326967Y-112919000D01*
X160011088Y-112981832D01*
X159713537Y-113105082D01*
X159445748Y-113284013D01*
X159218013Y-113511748D01*
X159039082Y-113779537D01*
X158915832Y-114077088D01*
X158853000Y-114392967D01*
X157123000Y-114392967D01*
X157060168Y-114077088D01*
X156936918Y-113779537D01*
X156757987Y-113511748D01*
X156530252Y-113284013D01*
X156262463Y-113105082D01*
X155964912Y-112981832D01*
X155649033Y-112919000D01*
X155326967Y-112919000D01*
X155011088Y-112981832D01*
X154713537Y-113105082D01*
X154445748Y-113284013D01*
X154218013Y-113511748D01*
X154039082Y-113779537D01*
X153915832Y-114077088D01*
X153853000Y-114392967D01*
X134347000Y-114392967D01*
X134182312Y-114146495D01*
X133968505Y-113932688D01*
X133717095Y-113764701D01*
X133437743Y-113648989D01*
X133141184Y-113590000D01*
X132838816Y-113590000D01*
X132542257Y-113648989D01*
X132262905Y-113764701D01*
X132011495Y-113932688D01*
X131797688Y-114146495D01*
X131629701Y-114397905D01*
X131513989Y-114677257D01*
X131455000Y-114973816D01*
X125328212Y-114973816D01*
X125357168Y-114903912D01*
X125420000Y-114588033D01*
X125420000Y-114265967D01*
X125357168Y-113950088D01*
X125233918Y-113652537D01*
X125054987Y-113384748D01*
X124827252Y-113157013D01*
X124559463Y-112978082D01*
X124261912Y-112854832D01*
X123946033Y-112792000D01*
X123623967Y-112792000D01*
X123308088Y-112854832D01*
X123010537Y-112978082D01*
X122742748Y-113157013D01*
X122515013Y-113384748D01*
X122336082Y-113652537D01*
X122212832Y-113950088D01*
X122150000Y-114265967D01*
X120413219Y-114265967D01*
X120382961Y-114045325D01*
X120277795Y-113740912D01*
X120184814Y-113566956D01*
X119920413Y-113471192D01*
X118964605Y-114427000D01*
X118605395Y-114427000D01*
X117649587Y-113471192D01*
X117385186Y-113566956D01*
X117244296Y-113856571D01*
X117162616Y-114168108D01*
X117143282Y-114489595D01*
X106660000Y-114489595D01*
X106660000Y-113291587D01*
X117829192Y-113291587D01*
X118785000Y-114247395D01*
X119740808Y-113291587D01*
X119645044Y-113027186D01*
X119355429Y-112886296D01*
X119043892Y-112804616D01*
X118722405Y-112785282D01*
X118403325Y-112829039D01*
X118098912Y-112934205D01*
X117924956Y-113027186D01*
X117829192Y-113291587D01*
X106660000Y-113291587D01*
X106660000Y-111140212D01*
X114689000Y-111140212D01*
X114689000Y-111363788D01*
X114732617Y-111583067D01*
X114818176Y-111789624D01*
X114942388Y-111975520D01*
X115100480Y-112133612D01*
X115286376Y-112257824D01*
X115492933Y-112343383D01*
X115712212Y-112387000D01*
X115935788Y-112387000D01*
X116155067Y-112343383D01*
X116276554Y-112293061D01*
X164065000Y-112293061D01*
X164065000Y-112496939D01*
X164104774Y-112696898D01*
X164182795Y-112885256D01*
X164296063Y-113054774D01*
X164440226Y-113198937D01*
X164609744Y-113312205D01*
X164798102Y-113390226D01*
X164998061Y-113430000D01*
X165201939Y-113430000D01*
X165401898Y-113390226D01*
X165590256Y-113312205D01*
X165759774Y-113198937D01*
X165903937Y-113054774D01*
X166017205Y-112885256D01*
X166095226Y-112696898D01*
X166135000Y-112496939D01*
X166135000Y-112293061D01*
X166095226Y-112093102D01*
X166017205Y-111904744D01*
X165903937Y-111735226D01*
X165759774Y-111591063D01*
X165590256Y-111477795D01*
X165401898Y-111399774D01*
X165201939Y-111360000D01*
X164998061Y-111360000D01*
X164798102Y-111399774D01*
X164609744Y-111477795D01*
X164440226Y-111591063D01*
X164296063Y-111735226D01*
X164182795Y-111904744D01*
X164104774Y-112093102D01*
X164065000Y-112293061D01*
X116276554Y-112293061D01*
X116361624Y-112257824D01*
X116547520Y-112133612D01*
X116705612Y-111975520D01*
X116829824Y-111789624D01*
X116915383Y-111583067D01*
X116959000Y-111363788D01*
X116959000Y-111140212D01*
X116915383Y-110920933D01*
X116829824Y-110714376D01*
X116705612Y-110528480D01*
X116547520Y-110370388D01*
X116361624Y-110246176D01*
X116155067Y-110160617D01*
X115935788Y-110117000D01*
X115712212Y-110117000D01*
X115492933Y-110160617D01*
X115286376Y-110246176D01*
X115100480Y-110370388D01*
X114942388Y-110528480D01*
X114818176Y-110714376D01*
X114732617Y-110920933D01*
X114689000Y-111140212D01*
X106660000Y-111140212D01*
X106660000Y-109118061D01*
X108185000Y-109118061D01*
X108185000Y-109321939D01*
X108224774Y-109521898D01*
X108302795Y-109710256D01*
X108416063Y-109879774D01*
X108560226Y-110023937D01*
X108729744Y-110137205D01*
X108918102Y-110215226D01*
X109118061Y-110255000D01*
X109321939Y-110255000D01*
X109521898Y-110215226D01*
X109710256Y-110137205D01*
X109879774Y-110023937D01*
X110023937Y-109879774D01*
X110137205Y-109710256D01*
X110215226Y-109521898D01*
X110255000Y-109321939D01*
X110255000Y-109118061D01*
X110215226Y-108918102D01*
X110137205Y-108729744D01*
X110023937Y-108560226D01*
X109879774Y-108416063D01*
X109710256Y-108302795D01*
X109521898Y-108224774D01*
X109321939Y-108185000D01*
X109118061Y-108185000D01*
X108918102Y-108224774D01*
X108729744Y-108302795D01*
X108560226Y-108416063D01*
X108416063Y-108560226D01*
X108302795Y-108729744D01*
X108224774Y-108918102D01*
X108185000Y-109118061D01*
X106660000Y-109118061D01*
X106660000Y-105308061D01*
X108185000Y-105308061D01*
X108185000Y-105511939D01*
X108224774Y-105711898D01*
X108302795Y-105900256D01*
X108416063Y-106069774D01*
X108560226Y-106213937D01*
X108729744Y-106327205D01*
X108918102Y-106405226D01*
X109118061Y-106445000D01*
X109321939Y-106445000D01*
X109521898Y-106405226D01*
X109710256Y-106327205D01*
X109879774Y-106213937D01*
X110023937Y-106069774D01*
X110108603Y-105943061D01*
X120885000Y-105943061D01*
X120885000Y-106146939D01*
X120924774Y-106346898D01*
X121002795Y-106535256D01*
X121116063Y-106704774D01*
X121260226Y-106848937D01*
X121429744Y-106962205D01*
X121618102Y-107040226D01*
X121818061Y-107080000D01*
X122021939Y-107080000D01*
X122221898Y-107040226D01*
X122410256Y-106962205D01*
X122579774Y-106848937D01*
X122723937Y-106704774D01*
X122837205Y-106535256D01*
X122915226Y-106346898D01*
X122921570Y-106315000D01*
X127901928Y-106315000D01*
X127901928Y-108315000D01*
X127914188Y-108439482D01*
X127950498Y-108559180D01*
X128009463Y-108669494D01*
X128088815Y-108766185D01*
X128185506Y-108845537D01*
X128295820Y-108904502D01*
X128415518Y-108940812D01*
X128540000Y-108953072D01*
X130540000Y-108953072D01*
X130664482Y-108940812D01*
X130784180Y-108904502D01*
X130894494Y-108845537D01*
X130991185Y-108766185D01*
X131070537Y-108669494D01*
X131129502Y-108559180D01*
X131162496Y-108450413D01*
X133584192Y-108450413D01*
X133679956Y-108714814D01*
X133969571Y-108855704D01*
X134281108Y-108937384D01*
X134602595Y-108956718D01*
X134921675Y-108912961D01*
X135226088Y-108807795D01*
X135400044Y-108714814D01*
X135495808Y-108450413D01*
X135429362Y-108383967D01*
X181880000Y-108383967D01*
X181880000Y-108706033D01*
X181942832Y-109021912D01*
X182066082Y-109319463D01*
X182245013Y-109587252D01*
X182472748Y-109814987D01*
X182740537Y-109993918D01*
X183038088Y-110117168D01*
X183353967Y-110180000D01*
X183676033Y-110180000D01*
X183991912Y-110117168D01*
X184289463Y-109993918D01*
X184557252Y-109814987D01*
X184784987Y-109587252D01*
X184963918Y-109319463D01*
X185087168Y-109021912D01*
X185150000Y-108706033D01*
X185150000Y-108383967D01*
X185087168Y-108068088D01*
X184963918Y-107770537D01*
X184784987Y-107502748D01*
X184557252Y-107275013D01*
X184289463Y-107096082D01*
X183991912Y-106972832D01*
X183676033Y-106910000D01*
X183353967Y-106910000D01*
X183038088Y-106972832D01*
X182740537Y-107096082D01*
X182472748Y-107275013D01*
X182245013Y-107502748D01*
X182066082Y-107770537D01*
X181942832Y-108068088D01*
X181880000Y-108383967D01*
X135429362Y-108383967D01*
X134540000Y-107494605D01*
X133584192Y-108450413D01*
X131162496Y-108450413D01*
X131165812Y-108439482D01*
X131178072Y-108315000D01*
X131178072Y-107377595D01*
X132898282Y-107377595D01*
X132942039Y-107696675D01*
X133047205Y-108001088D01*
X133140186Y-108175044D01*
X133404587Y-108270808D01*
X134360395Y-107315000D01*
X134719605Y-107315000D01*
X135675413Y-108270808D01*
X135939814Y-108175044D01*
X136080704Y-107885429D01*
X136162384Y-107573892D01*
X136181718Y-107252405D01*
X136137961Y-106933325D01*
X136032795Y-106628912D01*
X135939814Y-106454956D01*
X135675413Y-106359192D01*
X134719605Y-107315000D01*
X134360395Y-107315000D01*
X133404587Y-106359192D01*
X133140186Y-106454956D01*
X132999296Y-106744571D01*
X132917616Y-107056108D01*
X132898282Y-107377595D01*
X131178072Y-107377595D01*
X131178072Y-106315000D01*
X131165812Y-106190518D01*
X131162497Y-106179587D01*
X133584192Y-106179587D01*
X134540000Y-107135395D01*
X135495808Y-106179587D01*
X135400044Y-105915186D01*
X135110429Y-105774296D01*
X134798892Y-105692616D01*
X134477405Y-105673282D01*
X134158325Y-105717039D01*
X133853912Y-105822205D01*
X133679956Y-105915186D01*
X133584192Y-106179587D01*
X131162497Y-106179587D01*
X131129502Y-106070820D01*
X131070537Y-105960506D01*
X130991185Y-105863815D01*
X130894494Y-105784463D01*
X130784180Y-105725498D01*
X130664482Y-105689188D01*
X130540000Y-105676928D01*
X128540000Y-105676928D01*
X128415518Y-105689188D01*
X128295820Y-105725498D01*
X128185506Y-105784463D01*
X128088815Y-105863815D01*
X128009463Y-105960506D01*
X127950498Y-106070820D01*
X127914188Y-106190518D01*
X127901928Y-106315000D01*
X122921570Y-106315000D01*
X122955000Y-106146939D01*
X122955000Y-105943061D01*
X122915226Y-105743102D01*
X122837205Y-105554744D01*
X122723937Y-105385226D01*
X122579774Y-105241063D01*
X122410256Y-105127795D01*
X122221898Y-105049774D01*
X122021939Y-105010000D01*
X121818061Y-105010000D01*
X121618102Y-105049774D01*
X121429744Y-105127795D01*
X121260226Y-105241063D01*
X121116063Y-105385226D01*
X121002795Y-105554744D01*
X120924774Y-105743102D01*
X120885000Y-105943061D01*
X110108603Y-105943061D01*
X110137205Y-105900256D01*
X110215226Y-105711898D01*
X110255000Y-105511939D01*
X110255000Y-105308061D01*
X110215226Y-105108102D01*
X110137205Y-104919744D01*
X110023937Y-104750226D01*
X109879774Y-104606063D01*
X109710256Y-104492795D01*
X109521898Y-104414774D01*
X109321939Y-104375000D01*
X109118061Y-104375000D01*
X108918102Y-104414774D01*
X108729744Y-104492795D01*
X108560226Y-104606063D01*
X108416063Y-104750226D01*
X108302795Y-104919744D01*
X108224774Y-105108102D01*
X108185000Y-105308061D01*
X106660000Y-105308061D01*
X106660000Y-103786323D01*
X155830497Y-103786323D01*
X155830497Y-104213677D01*
X155913870Y-104632821D01*
X156077412Y-105027645D01*
X156314837Y-105382977D01*
X156617023Y-105685163D01*
X156972355Y-105922588D01*
X157367179Y-106086130D01*
X157786323Y-106169503D01*
X158213677Y-106169503D01*
X158632821Y-106086130D01*
X159027645Y-105922588D01*
X159382977Y-105685163D01*
X159685163Y-105382977D01*
X159922588Y-105027645D01*
X160086130Y-104632821D01*
X160103387Y-104546061D01*
X164065000Y-104546061D01*
X164065000Y-104749939D01*
X164104774Y-104949898D01*
X164182795Y-105138256D01*
X164296063Y-105307774D01*
X164440226Y-105451937D01*
X164609744Y-105565205D01*
X164798102Y-105643226D01*
X164998061Y-105683000D01*
X165201939Y-105683000D01*
X165401898Y-105643226D01*
X165590256Y-105565205D01*
X165759774Y-105451937D01*
X165903937Y-105307774D01*
X166017205Y-105138256D01*
X166095226Y-104949898D01*
X166135000Y-104749939D01*
X166135000Y-104546061D01*
X166095226Y-104346102D01*
X166017205Y-104157744D01*
X165903937Y-103988226D01*
X165759774Y-103844063D01*
X165590256Y-103730795D01*
X165401898Y-103652774D01*
X165201939Y-103613000D01*
X164998061Y-103613000D01*
X164798102Y-103652774D01*
X164609744Y-103730795D01*
X164440226Y-103844063D01*
X164296063Y-103988226D01*
X164182795Y-104157744D01*
X164104774Y-104346102D01*
X164065000Y-104546061D01*
X160103387Y-104546061D01*
X160169503Y-104213677D01*
X160169503Y-103786323D01*
X160089470Y-103383967D01*
X181880000Y-103383967D01*
X181880000Y-103706033D01*
X181942832Y-104021912D01*
X182066082Y-104319463D01*
X182245013Y-104587252D01*
X182472748Y-104814987D01*
X182740537Y-104993918D01*
X183038088Y-105117168D01*
X183353967Y-105180000D01*
X183676033Y-105180000D01*
X183991912Y-105117168D01*
X184289463Y-104993918D01*
X184557252Y-104814987D01*
X184784987Y-104587252D01*
X184963918Y-104319463D01*
X185087168Y-104021912D01*
X185150000Y-103706033D01*
X185150000Y-103383967D01*
X185087168Y-103068088D01*
X184963918Y-102770537D01*
X184784987Y-102502748D01*
X184557252Y-102275013D01*
X184289463Y-102096082D01*
X183991912Y-101972832D01*
X183676033Y-101910000D01*
X183353967Y-101910000D01*
X183038088Y-101972832D01*
X182740537Y-102096082D01*
X182472748Y-102275013D01*
X182245013Y-102502748D01*
X182066082Y-102770537D01*
X181942832Y-103068088D01*
X181880000Y-103383967D01*
X160089470Y-103383967D01*
X160086130Y-103367179D01*
X159922588Y-102972355D01*
X159685163Y-102617023D01*
X159382977Y-102314837D01*
X159110930Y-102133061D01*
X164065000Y-102133061D01*
X164065000Y-102336939D01*
X164104774Y-102536898D01*
X164182795Y-102725256D01*
X164296063Y-102894774D01*
X164440226Y-103038937D01*
X164609744Y-103152205D01*
X164798102Y-103230226D01*
X164998061Y-103270000D01*
X165201939Y-103270000D01*
X165401898Y-103230226D01*
X165590256Y-103152205D01*
X165759774Y-103038937D01*
X165903937Y-102894774D01*
X166017205Y-102725256D01*
X166095226Y-102536898D01*
X166135000Y-102336939D01*
X166135000Y-102133061D01*
X166095226Y-101933102D01*
X166017205Y-101744744D01*
X165903937Y-101575226D01*
X165759774Y-101431063D01*
X165590256Y-101317795D01*
X165401898Y-101239774D01*
X165201939Y-101200000D01*
X164998061Y-101200000D01*
X164798102Y-101239774D01*
X164609744Y-101317795D01*
X164440226Y-101431063D01*
X164296063Y-101575226D01*
X164182795Y-101744744D01*
X164104774Y-101933102D01*
X164065000Y-102133061D01*
X159110930Y-102133061D01*
X159027645Y-102077412D01*
X158632821Y-101913870D01*
X158213677Y-101830497D01*
X157786323Y-101830497D01*
X157367179Y-101913870D01*
X156972355Y-102077412D01*
X156617023Y-102314837D01*
X156314837Y-102617023D01*
X156077412Y-102972355D01*
X155913870Y-103367179D01*
X155830497Y-103786323D01*
X106660000Y-103786323D01*
X106660000Y-100228061D01*
X115170000Y-100228061D01*
X115170000Y-100431939D01*
X115209774Y-100631898D01*
X115287795Y-100820256D01*
X115401063Y-100989774D01*
X115545226Y-101133937D01*
X115714744Y-101247205D01*
X115903102Y-101325226D01*
X116103061Y-101365000D01*
X116306939Y-101365000D01*
X116506898Y-101325226D01*
X116695256Y-101247205D01*
X116864774Y-101133937D01*
X117008937Y-100989774D01*
X117122205Y-100820256D01*
X117200226Y-100631898D01*
X117240000Y-100431939D01*
X117240000Y-100228061D01*
X117200226Y-100028102D01*
X117177842Y-99974061D01*
X140189000Y-99974061D01*
X140189000Y-100177939D01*
X140228774Y-100377898D01*
X140306795Y-100566256D01*
X140420063Y-100735774D01*
X140564226Y-100879937D01*
X140733744Y-100993205D01*
X140922102Y-101071226D01*
X141026541Y-101092000D01*
X140922102Y-101112774D01*
X140733744Y-101190795D01*
X140564226Y-101304063D01*
X140420063Y-101448226D01*
X140306795Y-101617744D01*
X140228774Y-101806102D01*
X140189000Y-102006061D01*
X140189000Y-102209939D01*
X140228774Y-102409898D01*
X140306795Y-102598256D01*
X140420063Y-102767774D01*
X140564226Y-102911937D01*
X140733744Y-103025205D01*
X140922102Y-103103226D01*
X141122061Y-103143000D01*
X141325939Y-103143000D01*
X141525898Y-103103226D01*
X141714256Y-103025205D01*
X141883774Y-102911937D01*
X142027937Y-102767774D01*
X142141205Y-102598256D01*
X142219226Y-102409898D01*
X142259000Y-102209939D01*
X142259000Y-102006061D01*
X142219226Y-101806102D01*
X142141205Y-101617744D01*
X142027937Y-101448226D01*
X141883774Y-101304063D01*
X141714256Y-101190795D01*
X141525898Y-101112774D01*
X141421459Y-101092000D01*
X141525898Y-101071226D01*
X141714256Y-100993205D01*
X141718961Y-100990061D01*
X146793000Y-100990061D01*
X146793000Y-101193939D01*
X146832774Y-101393898D01*
X146910795Y-101582256D01*
X147024063Y-101751774D01*
X147168226Y-101895937D01*
X147337744Y-102009205D01*
X147526102Y-102087226D01*
X147726061Y-102127000D01*
X147929939Y-102127000D01*
X148129898Y-102087226D01*
X148318256Y-102009205D01*
X148487774Y-101895937D01*
X148631937Y-101751774D01*
X148745205Y-101582256D01*
X148823226Y-101393898D01*
X148863000Y-101193939D01*
X148863000Y-100990061D01*
X161525000Y-100990061D01*
X161525000Y-101193939D01*
X161564774Y-101393898D01*
X161642795Y-101582256D01*
X161756063Y-101751774D01*
X161900226Y-101895937D01*
X162069744Y-102009205D01*
X162258102Y-102087226D01*
X162458061Y-102127000D01*
X162661939Y-102127000D01*
X162861898Y-102087226D01*
X163050256Y-102009205D01*
X163219774Y-101895937D01*
X163363937Y-101751774D01*
X163477205Y-101582256D01*
X163555226Y-101393898D01*
X163595000Y-101193939D01*
X163595000Y-100990061D01*
X163555226Y-100790102D01*
X163477205Y-100601744D01*
X163363937Y-100432226D01*
X163219774Y-100288063D01*
X163050256Y-100174795D01*
X162861898Y-100096774D01*
X162661939Y-100057000D01*
X162458061Y-100057000D01*
X162258102Y-100096774D01*
X162069744Y-100174795D01*
X161900226Y-100288063D01*
X161756063Y-100432226D01*
X161642795Y-100601744D01*
X161564774Y-100790102D01*
X161525000Y-100990061D01*
X148863000Y-100990061D01*
X148823226Y-100790102D01*
X148745205Y-100601744D01*
X148631937Y-100432226D01*
X148487774Y-100288063D01*
X148318256Y-100174795D01*
X148129898Y-100096774D01*
X147929939Y-100057000D01*
X147726061Y-100057000D01*
X147526102Y-100096774D01*
X147337744Y-100174795D01*
X147168226Y-100288063D01*
X147024063Y-100432226D01*
X146910795Y-100601744D01*
X146832774Y-100790102D01*
X146793000Y-100990061D01*
X141718961Y-100990061D01*
X141883774Y-100879937D01*
X142027937Y-100735774D01*
X142141205Y-100566256D01*
X142219226Y-100377898D01*
X142259000Y-100177939D01*
X142259000Y-99974061D01*
X142219226Y-99774102D01*
X142141205Y-99585744D01*
X142027937Y-99416226D01*
X141883774Y-99272063D01*
X141714256Y-99158795D01*
X141525898Y-99080774D01*
X141325939Y-99041000D01*
X141122061Y-99041000D01*
X140922102Y-99080774D01*
X140733744Y-99158795D01*
X140564226Y-99272063D01*
X140420063Y-99416226D01*
X140306795Y-99585744D01*
X140228774Y-99774102D01*
X140189000Y-99974061D01*
X117177842Y-99974061D01*
X117122205Y-99839744D01*
X117008937Y-99670226D01*
X116864774Y-99526063D01*
X116695256Y-99412795D01*
X116506898Y-99334774D01*
X116306939Y-99295000D01*
X116103061Y-99295000D01*
X115903102Y-99334774D01*
X115714744Y-99412795D01*
X115545226Y-99526063D01*
X115401063Y-99670226D01*
X115287795Y-99839744D01*
X115209774Y-100028102D01*
X115170000Y-100228061D01*
X106660000Y-100228061D01*
X106660000Y-97688061D01*
X106915000Y-97688061D01*
X106915000Y-97891939D01*
X106954774Y-98091898D01*
X107032795Y-98280256D01*
X107146063Y-98449774D01*
X107290226Y-98593937D01*
X107459744Y-98707205D01*
X107648102Y-98785226D01*
X107848061Y-98825000D01*
X108051939Y-98825000D01*
X108251898Y-98785226D01*
X108440256Y-98707205D01*
X108609774Y-98593937D01*
X108753937Y-98449774D01*
X108867205Y-98280256D01*
X108945226Y-98091898D01*
X108985000Y-97891939D01*
X108985000Y-97688061D01*
X108945226Y-97488102D01*
X108867205Y-97299744D01*
X108753937Y-97130226D01*
X108676772Y-97053061D01*
X118980000Y-97053061D01*
X118980000Y-97256939D01*
X119019774Y-97456898D01*
X119097795Y-97645256D01*
X119211063Y-97814774D01*
X119355226Y-97958937D01*
X119524744Y-98072205D01*
X119713102Y-98150226D01*
X119913061Y-98190000D01*
X120116939Y-98190000D01*
X120316898Y-98150226D01*
X120505256Y-98072205D01*
X120674774Y-97958937D01*
X120818937Y-97814774D01*
X120932205Y-97645256D01*
X120955520Y-97588967D01*
X181880000Y-97588967D01*
X181880000Y-97911033D01*
X181942832Y-98226912D01*
X182066082Y-98524463D01*
X182245013Y-98792252D01*
X182472748Y-99019987D01*
X182740537Y-99198918D01*
X183038088Y-99322168D01*
X183353967Y-99385000D01*
X183676033Y-99385000D01*
X183991912Y-99322168D01*
X184289463Y-99198918D01*
X184557252Y-99019987D01*
X184784987Y-98792252D01*
X184963918Y-98524463D01*
X185087168Y-98226912D01*
X185150000Y-97911033D01*
X185150000Y-97588967D01*
X185087168Y-97273088D01*
X184963918Y-96975537D01*
X184784987Y-96707748D01*
X184557252Y-96480013D01*
X184289463Y-96301082D01*
X183991912Y-96177832D01*
X183676033Y-96115000D01*
X183353967Y-96115000D01*
X183038088Y-96177832D01*
X182740537Y-96301082D01*
X182472748Y-96480013D01*
X182245013Y-96707748D01*
X182066082Y-96975537D01*
X181942832Y-97273088D01*
X181880000Y-97588967D01*
X120955520Y-97588967D01*
X121010226Y-97456898D01*
X121050000Y-97256939D01*
X121050000Y-97053061D01*
X121010226Y-96853102D01*
X120932205Y-96664744D01*
X120818937Y-96495226D01*
X120741772Y-96418061D01*
X131045000Y-96418061D01*
X131045000Y-96621939D01*
X131084774Y-96821898D01*
X131162795Y-97010256D01*
X131276063Y-97179774D01*
X131420226Y-97323937D01*
X131589744Y-97437205D01*
X131778102Y-97515226D01*
X131978061Y-97555000D01*
X132181939Y-97555000D01*
X132381898Y-97515226D01*
X132570256Y-97437205D01*
X132739774Y-97323937D01*
X132883937Y-97179774D01*
X132997205Y-97010256D01*
X133075226Y-96821898D01*
X133115000Y-96621939D01*
X133115000Y-96418061D01*
X133075226Y-96218102D01*
X132997205Y-96029744D01*
X132883937Y-95860226D01*
X132739774Y-95716063D01*
X132570256Y-95602795D01*
X132381898Y-95524774D01*
X132181939Y-95485000D01*
X131978061Y-95485000D01*
X131778102Y-95524774D01*
X131589744Y-95602795D01*
X131420226Y-95716063D01*
X131276063Y-95860226D01*
X131162795Y-96029744D01*
X131084774Y-96218102D01*
X131045000Y-96418061D01*
X120741772Y-96418061D01*
X120674774Y-96351063D01*
X120505256Y-96237795D01*
X120316898Y-96159774D01*
X120116939Y-96120000D01*
X119913061Y-96120000D01*
X119713102Y-96159774D01*
X119524744Y-96237795D01*
X119355226Y-96351063D01*
X119211063Y-96495226D01*
X119097795Y-96664744D01*
X119019774Y-96853102D01*
X118980000Y-97053061D01*
X108676772Y-97053061D01*
X108609774Y-96986063D01*
X108440256Y-96872795D01*
X108251898Y-96794774D01*
X108051939Y-96755000D01*
X107848061Y-96755000D01*
X107648102Y-96794774D01*
X107459744Y-96872795D01*
X107290226Y-96986063D01*
X107146063Y-97130226D01*
X107032795Y-97299744D01*
X106954774Y-97488102D01*
X106915000Y-97688061D01*
X106660000Y-97688061D01*
X106660000Y-93878061D01*
X164065000Y-93878061D01*
X164065000Y-94081939D01*
X164104774Y-94281898D01*
X164182795Y-94470256D01*
X164296063Y-94639774D01*
X164440226Y-94783937D01*
X164609744Y-94897205D01*
X164798102Y-94975226D01*
X164998061Y-95015000D01*
X165201939Y-95015000D01*
X165401898Y-94975226D01*
X165590256Y-94897205D01*
X165759774Y-94783937D01*
X165903937Y-94639774D01*
X166017205Y-94470256D01*
X166095226Y-94281898D01*
X166135000Y-94081939D01*
X166135000Y-93878061D01*
X166095226Y-93678102D01*
X166017205Y-93489744D01*
X165903937Y-93320226D01*
X165759774Y-93176063D01*
X165590256Y-93062795D01*
X165401898Y-92984774D01*
X165201939Y-92945000D01*
X164998061Y-92945000D01*
X164798102Y-92984774D01*
X164609744Y-93062795D01*
X164440226Y-93176063D01*
X164296063Y-93320226D01*
X164182795Y-93489744D01*
X164104774Y-93678102D01*
X164065000Y-93878061D01*
X106660000Y-93878061D01*
X106660000Y-92099889D01*
X149915467Y-92099889D01*
X149915467Y-92303767D01*
X149955241Y-92503726D01*
X150033262Y-92692084D01*
X150146530Y-92861602D01*
X150290693Y-93005765D01*
X150460211Y-93119033D01*
X150648569Y-93197054D01*
X150848528Y-93236828D01*
X151052406Y-93236828D01*
X151252365Y-93197054D01*
X151440723Y-93119033D01*
X151610241Y-93005765D01*
X151754404Y-92861602D01*
X151867672Y-92692084D01*
X151902475Y-92608061D01*
X152635000Y-92608061D01*
X152635000Y-92811939D01*
X152674774Y-93011898D01*
X152752795Y-93200256D01*
X152866063Y-93369774D01*
X153010226Y-93513937D01*
X153179744Y-93627205D01*
X153368102Y-93705226D01*
X153568061Y-93745000D01*
X153771939Y-93745000D01*
X153971898Y-93705226D01*
X154160256Y-93627205D01*
X154329774Y-93513937D01*
X154473937Y-93369774D01*
X154587205Y-93200256D01*
X154665226Y-93011898D01*
X154705000Y-92811939D01*
X154705000Y-92608061D01*
X154701202Y-92588967D01*
X181880000Y-92588967D01*
X181880000Y-92911033D01*
X181942832Y-93226912D01*
X182066082Y-93524463D01*
X182245013Y-93792252D01*
X182472748Y-94019987D01*
X182740537Y-94198918D01*
X183038088Y-94322168D01*
X183353967Y-94385000D01*
X183676033Y-94385000D01*
X183991912Y-94322168D01*
X184289463Y-94198918D01*
X184557252Y-94019987D01*
X184784987Y-93792252D01*
X184963918Y-93524463D01*
X185087168Y-93226912D01*
X185150000Y-92911033D01*
X185150000Y-92588967D01*
X185087168Y-92273088D01*
X184963918Y-91975537D01*
X184784987Y-91707748D01*
X184557252Y-91480013D01*
X184289463Y-91301082D01*
X183991912Y-91177832D01*
X183676033Y-91115000D01*
X183353967Y-91115000D01*
X183038088Y-91177832D01*
X182740537Y-91301082D01*
X182472748Y-91480013D01*
X182245013Y-91707748D01*
X182066082Y-91975537D01*
X181942832Y-92273088D01*
X181880000Y-92588967D01*
X154701202Y-92588967D01*
X154665226Y-92408102D01*
X154587205Y-92219744D01*
X154473937Y-92050226D01*
X154329774Y-91906063D01*
X154160256Y-91792795D01*
X153971898Y-91714774D01*
X153771939Y-91675000D01*
X153568061Y-91675000D01*
X153368102Y-91714774D01*
X153179744Y-91792795D01*
X153010226Y-91906063D01*
X152866063Y-92050226D01*
X152752795Y-92219744D01*
X152674774Y-92408102D01*
X152635000Y-92608061D01*
X151902475Y-92608061D01*
X151945693Y-92503726D01*
X151985467Y-92303767D01*
X151985467Y-92099889D01*
X151945693Y-91899930D01*
X151867672Y-91711572D01*
X151754404Y-91542054D01*
X151610241Y-91397891D01*
X151520699Y-91338061D01*
X164065000Y-91338061D01*
X164065000Y-91541939D01*
X164104774Y-91741898D01*
X164182795Y-91930256D01*
X164296063Y-92099774D01*
X164440226Y-92243937D01*
X164609744Y-92357205D01*
X164798102Y-92435226D01*
X164998061Y-92475000D01*
X165201939Y-92475000D01*
X165401898Y-92435226D01*
X165590256Y-92357205D01*
X165759774Y-92243937D01*
X165903937Y-92099774D01*
X166017205Y-91930256D01*
X166095226Y-91741898D01*
X166135000Y-91541939D01*
X166135000Y-91338061D01*
X166095226Y-91138102D01*
X166017205Y-90949744D01*
X165903937Y-90780226D01*
X165759774Y-90636063D01*
X165590256Y-90522795D01*
X165401898Y-90444774D01*
X165201939Y-90405000D01*
X164998061Y-90405000D01*
X164798102Y-90444774D01*
X164609744Y-90522795D01*
X164440226Y-90636063D01*
X164296063Y-90780226D01*
X164182795Y-90949744D01*
X164104774Y-91138102D01*
X164065000Y-91338061D01*
X151520699Y-91338061D01*
X151440723Y-91284623D01*
X151252365Y-91206602D01*
X151052406Y-91166828D01*
X150848528Y-91166828D01*
X150648569Y-91206602D01*
X150460211Y-91284623D01*
X150290693Y-91397891D01*
X150146530Y-91542054D01*
X150033262Y-91711572D01*
X149955241Y-91899930D01*
X149915467Y-92099889D01*
X106660000Y-92099889D01*
X106660000Y-90674557D01*
X137804303Y-90674557D01*
X137804303Y-90878435D01*
X137844077Y-91078394D01*
X137922098Y-91266752D01*
X138035366Y-91436270D01*
X138179529Y-91580433D01*
X138349047Y-91693701D01*
X138537405Y-91771722D01*
X138737364Y-91811496D01*
X138941242Y-91811496D01*
X139141201Y-91771722D01*
X139329559Y-91693701D01*
X139499077Y-91580433D01*
X139643240Y-91436270D01*
X139756508Y-91266752D01*
X139834529Y-91078394D01*
X139874303Y-90878435D01*
X139874303Y-90674557D01*
X139834529Y-90474598D01*
X139756508Y-90286240D01*
X139643240Y-90116722D01*
X139499077Y-89972559D01*
X139329559Y-89859291D01*
X139141201Y-89781270D01*
X138941242Y-89741496D01*
X138737364Y-89741496D01*
X138537405Y-89781270D01*
X138349047Y-89859291D01*
X138179529Y-89972559D01*
X138035366Y-90116722D01*
X137922098Y-90286240D01*
X137844077Y-90474598D01*
X137804303Y-90674557D01*
X106660000Y-90674557D01*
X106660000Y-88783202D01*
X149324255Y-88783202D01*
X149324255Y-88987080D01*
X149364029Y-89187039D01*
X149442050Y-89375397D01*
X149555318Y-89544915D01*
X149699481Y-89689078D01*
X149868999Y-89802346D01*
X150057357Y-89880367D01*
X150257316Y-89920141D01*
X150461194Y-89920141D01*
X150661153Y-89880367D01*
X150849511Y-89802346D01*
X151019029Y-89689078D01*
X151079886Y-89628221D01*
X156005160Y-89628221D01*
X156005160Y-89832099D01*
X156044934Y-90032058D01*
X156122955Y-90220416D01*
X156236223Y-90389934D01*
X156380386Y-90534097D01*
X156549904Y-90647365D01*
X156738262Y-90725386D01*
X156938221Y-90765160D01*
X157142099Y-90765160D01*
X157342058Y-90725386D01*
X157530416Y-90647365D01*
X157541007Y-90640288D01*
X157599626Y-90728018D01*
X157743789Y-90872181D01*
X157913307Y-90985449D01*
X158101665Y-91063470D01*
X158301624Y-91103244D01*
X158505502Y-91103244D01*
X158705461Y-91063470D01*
X158893819Y-90985449D01*
X159063337Y-90872181D01*
X159207500Y-90728018D01*
X159320768Y-90558500D01*
X159398789Y-90370142D01*
X159438563Y-90170183D01*
X159438563Y-89966305D01*
X159398789Y-89766346D01*
X159320768Y-89577988D01*
X159207500Y-89408470D01*
X159063337Y-89264307D01*
X158893819Y-89151039D01*
X158705461Y-89073018D01*
X158505502Y-89033244D01*
X158301624Y-89033244D01*
X158101665Y-89073018D01*
X157913307Y-89151039D01*
X157902716Y-89158116D01*
X157844097Y-89070386D01*
X157699934Y-88926223D01*
X157530416Y-88812955D01*
X157342058Y-88734934D01*
X157142099Y-88695160D01*
X156938221Y-88695160D01*
X156738262Y-88734934D01*
X156549904Y-88812955D01*
X156380386Y-88926223D01*
X156236223Y-89070386D01*
X156122955Y-89239904D01*
X156044934Y-89428262D01*
X156005160Y-89628221D01*
X151079886Y-89628221D01*
X151163192Y-89544915D01*
X151276460Y-89375397D01*
X151354481Y-89187039D01*
X151394255Y-88987080D01*
X151394255Y-88783202D01*
X151354481Y-88583243D01*
X151276460Y-88394885D01*
X151163192Y-88225367D01*
X151019029Y-88081204D01*
X150849511Y-87967936D01*
X150661153Y-87889915D01*
X150461194Y-87850141D01*
X150257316Y-87850141D01*
X150057357Y-87889915D01*
X149868999Y-87967936D01*
X149699481Y-88081204D01*
X149555318Y-88225367D01*
X149442050Y-88394885D01*
X149364029Y-88583243D01*
X149324255Y-88783202D01*
X106660000Y-88783202D01*
X106660000Y-86258061D01*
X132569000Y-86258061D01*
X132569000Y-86461939D01*
X132608774Y-86661898D01*
X132686795Y-86850256D01*
X132800063Y-87019774D01*
X132944226Y-87163937D01*
X133113744Y-87277205D01*
X133302102Y-87355226D01*
X133502061Y-87395000D01*
X133705939Y-87395000D01*
X133905898Y-87355226D01*
X134094256Y-87277205D01*
X134263774Y-87163937D01*
X134407937Y-87019774D01*
X134521205Y-86850256D01*
X134599226Y-86661898D01*
X134639000Y-86461939D01*
X134639000Y-86258061D01*
X135109000Y-86258061D01*
X135109000Y-86461939D01*
X135148774Y-86661898D01*
X135226795Y-86850256D01*
X135340063Y-87019774D01*
X135484226Y-87163937D01*
X135653744Y-87277205D01*
X135842102Y-87355226D01*
X136042061Y-87395000D01*
X136245939Y-87395000D01*
X136445898Y-87355226D01*
X136634256Y-87277205D01*
X136803774Y-87163937D01*
X136947937Y-87019774D01*
X137061205Y-86850256D01*
X137139226Y-86661898D01*
X137179000Y-86461939D01*
X137179000Y-86258061D01*
X151365000Y-86258061D01*
X151365000Y-86461939D01*
X151404774Y-86661898D01*
X151482795Y-86850256D01*
X151596063Y-87019774D01*
X151740226Y-87163937D01*
X151909744Y-87277205D01*
X152098102Y-87355226D01*
X152298061Y-87395000D01*
X152501939Y-87395000D01*
X152701898Y-87355226D01*
X152890256Y-87277205D01*
X153059774Y-87163937D01*
X153203937Y-87019774D01*
X153317205Y-86850256D01*
X153395226Y-86661898D01*
X153435000Y-86461939D01*
X153435000Y-86258061D01*
X155810000Y-86258061D01*
X155810000Y-86461939D01*
X155849774Y-86661898D01*
X155927795Y-86850256D01*
X156041063Y-87019774D01*
X156185226Y-87163937D01*
X156354744Y-87277205D01*
X156543102Y-87355226D01*
X156743061Y-87395000D01*
X156946939Y-87395000D01*
X157146898Y-87355226D01*
X157335256Y-87277205D01*
X157504774Y-87163937D01*
X157648937Y-87019774D01*
X157762205Y-86850256D01*
X157797500Y-86765047D01*
X157832795Y-86850256D01*
X157946063Y-87019774D01*
X158090226Y-87163937D01*
X158259744Y-87277205D01*
X158448102Y-87355226D01*
X158648061Y-87395000D01*
X158851939Y-87395000D01*
X159051898Y-87355226D01*
X159240256Y-87277205D01*
X159409774Y-87163937D01*
X159553937Y-87019774D01*
X159667205Y-86850256D01*
X159690520Y-86793967D01*
X181880000Y-86793967D01*
X181880000Y-87116033D01*
X181942832Y-87431912D01*
X182066082Y-87729463D01*
X182245013Y-87997252D01*
X182472748Y-88224987D01*
X182740537Y-88403918D01*
X183038088Y-88527168D01*
X183353967Y-88590000D01*
X183676033Y-88590000D01*
X183991912Y-88527168D01*
X184289463Y-88403918D01*
X184557252Y-88224987D01*
X184784987Y-87997252D01*
X184963918Y-87729463D01*
X185087168Y-87431912D01*
X185150000Y-87116033D01*
X185150000Y-86793967D01*
X185087168Y-86478088D01*
X184963918Y-86180537D01*
X184784987Y-85912748D01*
X184557252Y-85685013D01*
X184289463Y-85506082D01*
X183991912Y-85382832D01*
X183676033Y-85320000D01*
X183353967Y-85320000D01*
X183038088Y-85382832D01*
X182740537Y-85506082D01*
X182472748Y-85685013D01*
X182245013Y-85912748D01*
X182066082Y-86180537D01*
X181942832Y-86478088D01*
X181880000Y-86793967D01*
X159690520Y-86793967D01*
X159745226Y-86661898D01*
X159785000Y-86461939D01*
X159785000Y-86258061D01*
X159745226Y-86058102D01*
X159667205Y-85869744D01*
X159553937Y-85700226D01*
X159409774Y-85556063D01*
X159240256Y-85442795D01*
X159051898Y-85364774D01*
X158851939Y-85325000D01*
X158648061Y-85325000D01*
X158448102Y-85364774D01*
X158259744Y-85442795D01*
X158090226Y-85556063D01*
X157946063Y-85700226D01*
X157832795Y-85869744D01*
X157797500Y-85954953D01*
X157762205Y-85869744D01*
X157648937Y-85700226D01*
X157504774Y-85556063D01*
X157335256Y-85442795D01*
X157146898Y-85364774D01*
X156946939Y-85325000D01*
X156743061Y-85325000D01*
X156543102Y-85364774D01*
X156354744Y-85442795D01*
X156185226Y-85556063D01*
X156041063Y-85700226D01*
X155927795Y-85869744D01*
X155849774Y-86058102D01*
X155810000Y-86258061D01*
X153435000Y-86258061D01*
X153395226Y-86058102D01*
X153317205Y-85869744D01*
X153203937Y-85700226D01*
X153059774Y-85556063D01*
X152890256Y-85442795D01*
X152701898Y-85364774D01*
X152501939Y-85325000D01*
X152298061Y-85325000D01*
X152098102Y-85364774D01*
X151909744Y-85442795D01*
X151740226Y-85556063D01*
X151596063Y-85700226D01*
X151482795Y-85869744D01*
X151404774Y-86058102D01*
X151365000Y-86258061D01*
X137179000Y-86258061D01*
X137139226Y-86058102D01*
X137061205Y-85869744D01*
X136947937Y-85700226D01*
X136803774Y-85556063D01*
X136634256Y-85442795D01*
X136445898Y-85364774D01*
X136245939Y-85325000D01*
X136042061Y-85325000D01*
X135842102Y-85364774D01*
X135653744Y-85442795D01*
X135484226Y-85556063D01*
X135340063Y-85700226D01*
X135226795Y-85869744D01*
X135148774Y-86058102D01*
X135109000Y-86258061D01*
X134639000Y-86258061D01*
X134599226Y-86058102D01*
X134521205Y-85869744D01*
X134407937Y-85700226D01*
X134263774Y-85556063D01*
X134094256Y-85442795D01*
X133905898Y-85364774D01*
X133705939Y-85325000D01*
X133502061Y-85325000D01*
X133302102Y-85364774D01*
X133113744Y-85442795D01*
X132944226Y-85556063D01*
X132800063Y-85700226D01*
X132686795Y-85869744D01*
X132608774Y-86058102D01*
X132569000Y-86258061D01*
X106660000Y-86258061D01*
X106660000Y-83718061D01*
X131045000Y-83718061D01*
X131045000Y-83921939D01*
X131084774Y-84121898D01*
X131162795Y-84310256D01*
X131276063Y-84479774D01*
X131420226Y-84623937D01*
X131589744Y-84737205D01*
X131778102Y-84815226D01*
X131978061Y-84855000D01*
X132181939Y-84855000D01*
X132381898Y-84815226D01*
X132570256Y-84737205D01*
X132739774Y-84623937D01*
X132883937Y-84479774D01*
X132997205Y-84310256D01*
X133075226Y-84121898D01*
X133115000Y-83921939D01*
X133115000Y-83718061D01*
X133075226Y-83518102D01*
X132997205Y-83329744D01*
X132883937Y-83160226D01*
X132739774Y-83016063D01*
X132570256Y-82902795D01*
X132381898Y-82824774D01*
X132181939Y-82785000D01*
X131978061Y-82785000D01*
X131778102Y-82824774D01*
X131589744Y-82902795D01*
X131420226Y-83016063D01*
X131276063Y-83160226D01*
X131162795Y-83329744D01*
X131084774Y-83518102D01*
X131045000Y-83718061D01*
X106660000Y-83718061D01*
X106660000Y-81813061D01*
X107550000Y-81813061D01*
X107550000Y-82016939D01*
X107589774Y-82216898D01*
X107667795Y-82405256D01*
X107781063Y-82574774D01*
X107925226Y-82718937D01*
X108094744Y-82832205D01*
X108283102Y-82910226D01*
X108483061Y-82950000D01*
X108686939Y-82950000D01*
X108886898Y-82910226D01*
X109075256Y-82832205D01*
X109244774Y-82718937D01*
X109388937Y-82574774D01*
X109473603Y-82448061D01*
X145015000Y-82448061D01*
X145015000Y-82651939D01*
X145054774Y-82851898D01*
X145132795Y-83040256D01*
X145229510Y-83185000D01*
X145132795Y-83329744D01*
X145054774Y-83518102D01*
X145015000Y-83718061D01*
X145015000Y-83921939D01*
X145054774Y-84121898D01*
X145132795Y-84310256D01*
X145246063Y-84479774D01*
X145390226Y-84623937D01*
X145559744Y-84737205D01*
X145748102Y-84815226D01*
X145948061Y-84855000D01*
X146151939Y-84855000D01*
X146351898Y-84815226D01*
X146540256Y-84737205D01*
X146709774Y-84623937D01*
X146853937Y-84479774D01*
X146967205Y-84310256D01*
X147045226Y-84121898D01*
X147085000Y-83921939D01*
X147085000Y-83718061D01*
X164065000Y-83718061D01*
X164065000Y-83921939D01*
X164104774Y-84121898D01*
X164182795Y-84310256D01*
X164296063Y-84479774D01*
X164440226Y-84623937D01*
X164609744Y-84737205D01*
X164798102Y-84815226D01*
X164998061Y-84855000D01*
X165201939Y-84855000D01*
X165401898Y-84815226D01*
X165590256Y-84737205D01*
X165759774Y-84623937D01*
X165903937Y-84479774D01*
X166017205Y-84310256D01*
X166095226Y-84121898D01*
X166135000Y-83921939D01*
X166135000Y-83718061D01*
X166095226Y-83518102D01*
X166017205Y-83329744D01*
X165903937Y-83160226D01*
X165759774Y-83016063D01*
X165590256Y-82902795D01*
X165401898Y-82824774D01*
X165201939Y-82785000D01*
X164998061Y-82785000D01*
X164798102Y-82824774D01*
X164609744Y-82902795D01*
X164440226Y-83016063D01*
X164296063Y-83160226D01*
X164182795Y-83329744D01*
X164104774Y-83518102D01*
X164065000Y-83718061D01*
X147085000Y-83718061D01*
X147045226Y-83518102D01*
X146967205Y-83329744D01*
X146870490Y-83185000D01*
X146967205Y-83040256D01*
X147045226Y-82851898D01*
X147085000Y-82651939D01*
X147085000Y-82448061D01*
X147045226Y-82248102D01*
X146967205Y-82059744D01*
X146853937Y-81890226D01*
X146757678Y-81793967D01*
X181880000Y-81793967D01*
X181880000Y-82116033D01*
X181942832Y-82431912D01*
X182066082Y-82729463D01*
X182245013Y-82997252D01*
X182472748Y-83224987D01*
X182740537Y-83403918D01*
X183038088Y-83527168D01*
X183353967Y-83590000D01*
X183676033Y-83590000D01*
X183991912Y-83527168D01*
X184289463Y-83403918D01*
X184557252Y-83224987D01*
X184784987Y-82997252D01*
X184963918Y-82729463D01*
X185087168Y-82431912D01*
X185150000Y-82116033D01*
X185150000Y-81793967D01*
X185087168Y-81478088D01*
X184963918Y-81180537D01*
X184784987Y-80912748D01*
X184557252Y-80685013D01*
X184289463Y-80506082D01*
X183991912Y-80382832D01*
X183676033Y-80320000D01*
X183353967Y-80320000D01*
X183038088Y-80382832D01*
X182740537Y-80506082D01*
X182472748Y-80685013D01*
X182245013Y-80912748D01*
X182066082Y-81180537D01*
X181942832Y-81478088D01*
X181880000Y-81793967D01*
X146757678Y-81793967D01*
X146709774Y-81746063D01*
X146540256Y-81632795D01*
X146351898Y-81554774D01*
X146151939Y-81515000D01*
X145948061Y-81515000D01*
X145748102Y-81554774D01*
X145559744Y-81632795D01*
X145390226Y-81746063D01*
X145246063Y-81890226D01*
X145132795Y-82059744D01*
X145054774Y-82248102D01*
X145015000Y-82448061D01*
X109473603Y-82448061D01*
X109502205Y-82405256D01*
X109580226Y-82216898D01*
X109620000Y-82016939D01*
X109620000Y-81813061D01*
X109580226Y-81613102D01*
X109502205Y-81424744D01*
X109388937Y-81255226D01*
X109311772Y-81178061D01*
X136125000Y-81178061D01*
X136125000Y-81381939D01*
X136164774Y-81581898D01*
X136242795Y-81770256D01*
X136356063Y-81939774D01*
X136500226Y-82083937D01*
X136669744Y-82197205D01*
X136858102Y-82275226D01*
X137058061Y-82315000D01*
X137261939Y-82315000D01*
X137461898Y-82275226D01*
X137650256Y-82197205D01*
X137819774Y-82083937D01*
X137963937Y-81939774D01*
X138077205Y-81770256D01*
X138155226Y-81581898D01*
X138195000Y-81381939D01*
X138195000Y-81178061D01*
X138155226Y-80978102D01*
X138077205Y-80789744D01*
X137963937Y-80620226D01*
X137886772Y-80543061D01*
X141840000Y-80543061D01*
X141840000Y-80746939D01*
X141879774Y-80946898D01*
X141957795Y-81135256D01*
X142071063Y-81304774D01*
X142215226Y-81448937D01*
X142384744Y-81562205D01*
X142573102Y-81640226D01*
X142773061Y-81680000D01*
X142976939Y-81680000D01*
X143176898Y-81640226D01*
X143365256Y-81562205D01*
X143534774Y-81448937D01*
X143678937Y-81304774D01*
X143792205Y-81135256D01*
X143870226Y-80946898D01*
X143910000Y-80746939D01*
X143910000Y-80543061D01*
X146920000Y-80543061D01*
X146920000Y-80746939D01*
X146959774Y-80946898D01*
X147037795Y-81135256D01*
X147151063Y-81304774D01*
X147295226Y-81448937D01*
X147464744Y-81562205D01*
X147653102Y-81640226D01*
X147853061Y-81680000D01*
X148056939Y-81680000D01*
X148256898Y-81640226D01*
X148445256Y-81562205D01*
X148614774Y-81448937D01*
X148758937Y-81304774D01*
X148872205Y-81135256D01*
X148950226Y-80946898D01*
X148990000Y-80746939D01*
X148990000Y-80543061D01*
X148950226Y-80343102D01*
X148875236Y-80162061D01*
X164065000Y-80162061D01*
X164065000Y-80365939D01*
X164104774Y-80565898D01*
X164182795Y-80754256D01*
X164296063Y-80923774D01*
X164440226Y-81067937D01*
X164609744Y-81181205D01*
X164798102Y-81259226D01*
X164998061Y-81299000D01*
X165201939Y-81299000D01*
X165401898Y-81259226D01*
X165590256Y-81181205D01*
X165759774Y-81067937D01*
X165903937Y-80923774D01*
X166017205Y-80754256D01*
X166095226Y-80565898D01*
X166135000Y-80365939D01*
X166135000Y-80162061D01*
X166095226Y-79962102D01*
X166017205Y-79773744D01*
X165903937Y-79604226D01*
X165759774Y-79460063D01*
X165590256Y-79346795D01*
X165401898Y-79268774D01*
X165201939Y-79229000D01*
X164998061Y-79229000D01*
X164798102Y-79268774D01*
X164609744Y-79346795D01*
X164440226Y-79460063D01*
X164296063Y-79604226D01*
X164182795Y-79773744D01*
X164104774Y-79962102D01*
X164065000Y-80162061D01*
X148875236Y-80162061D01*
X148872205Y-80154744D01*
X148758937Y-79985226D01*
X148614774Y-79841063D01*
X148445256Y-79727795D01*
X148256898Y-79649774D01*
X148056939Y-79610000D01*
X147853061Y-79610000D01*
X147653102Y-79649774D01*
X147464744Y-79727795D01*
X147295226Y-79841063D01*
X147151063Y-79985226D01*
X147037795Y-80154744D01*
X146959774Y-80343102D01*
X146920000Y-80543061D01*
X143910000Y-80543061D01*
X143876961Y-80376961D01*
X144043061Y-80410000D01*
X144246939Y-80410000D01*
X144446898Y-80370226D01*
X144635256Y-80292205D01*
X144804774Y-80178937D01*
X144948937Y-80034774D01*
X145062205Y-79865256D01*
X145140226Y-79676898D01*
X145180000Y-79476939D01*
X145180000Y-79273061D01*
X145140226Y-79073102D01*
X145062205Y-78884744D01*
X144948937Y-78715226D01*
X144804774Y-78571063D01*
X144635256Y-78457795D01*
X144446898Y-78379774D01*
X144246939Y-78340000D01*
X144043061Y-78340000D01*
X143843102Y-78379774D01*
X143654744Y-78457795D01*
X143485226Y-78571063D01*
X143341063Y-78715226D01*
X143227795Y-78884744D01*
X143149774Y-79073102D01*
X143110000Y-79273061D01*
X143110000Y-79476939D01*
X143143039Y-79643039D01*
X142976939Y-79610000D01*
X142773061Y-79610000D01*
X142573102Y-79649774D01*
X142384744Y-79727795D01*
X142215226Y-79841063D01*
X142071063Y-79985226D01*
X141957795Y-80154744D01*
X141879774Y-80343102D01*
X141840000Y-80543061D01*
X137886772Y-80543061D01*
X137819774Y-80476063D01*
X137650256Y-80362795D01*
X137461898Y-80284774D01*
X137261939Y-80245000D01*
X137058061Y-80245000D01*
X136858102Y-80284774D01*
X136669744Y-80362795D01*
X136500226Y-80476063D01*
X136356063Y-80620226D01*
X136242795Y-80789744D01*
X136164774Y-80978102D01*
X136125000Y-81178061D01*
X109311772Y-81178061D01*
X109244774Y-81111063D01*
X109075256Y-80997795D01*
X108886898Y-80919774D01*
X108686939Y-80880000D01*
X108483061Y-80880000D01*
X108283102Y-80919774D01*
X108094744Y-80997795D01*
X107925226Y-81111063D01*
X107781063Y-81255226D01*
X107667795Y-81424744D01*
X107589774Y-81613102D01*
X107550000Y-81813061D01*
X106660000Y-81813061D01*
X106660000Y-76098061D01*
X117075000Y-76098061D01*
X117075000Y-76301939D01*
X117114774Y-76501898D01*
X117192795Y-76690256D01*
X117306063Y-76859774D01*
X117450226Y-77003937D01*
X117619744Y-77117205D01*
X117808102Y-77195226D01*
X118008061Y-77235000D01*
X118211939Y-77235000D01*
X118411898Y-77195226D01*
X118600256Y-77117205D01*
X118769774Y-77003937D01*
X118913937Y-76859774D01*
X119027205Y-76690256D01*
X119105226Y-76501898D01*
X119145000Y-76301939D01*
X119145000Y-76098061D01*
X119105226Y-75898102D01*
X119027205Y-75709744D01*
X118913937Y-75540226D01*
X118825149Y-75451438D01*
X140945925Y-75451438D01*
X140945925Y-75655316D01*
X140985699Y-75855275D01*
X141063720Y-76043633D01*
X141176988Y-76213151D01*
X141321151Y-76357314D01*
X141490669Y-76470582D01*
X141679027Y-76548603D01*
X141878986Y-76588377D01*
X142082864Y-76588377D01*
X142282823Y-76548603D01*
X142471181Y-76470582D01*
X142640699Y-76357314D01*
X142784862Y-76213151D01*
X142898130Y-76043633D01*
X142916631Y-75998967D01*
X181880000Y-75998967D01*
X181880000Y-76321033D01*
X181942832Y-76636912D01*
X182066082Y-76934463D01*
X182245013Y-77202252D01*
X182472748Y-77429987D01*
X182740537Y-77608918D01*
X183038088Y-77732168D01*
X183353967Y-77795000D01*
X183676033Y-77795000D01*
X183991912Y-77732168D01*
X184289463Y-77608918D01*
X184557252Y-77429987D01*
X184784987Y-77202252D01*
X184963918Y-76934463D01*
X185087168Y-76636912D01*
X185150000Y-76321033D01*
X185150000Y-75998967D01*
X185087168Y-75683088D01*
X184963918Y-75385537D01*
X184784987Y-75117748D01*
X184557252Y-74890013D01*
X184289463Y-74711082D01*
X183991912Y-74587832D01*
X183676033Y-74525000D01*
X183353967Y-74525000D01*
X183038088Y-74587832D01*
X182740537Y-74711082D01*
X182472748Y-74890013D01*
X182245013Y-75117748D01*
X182066082Y-75385537D01*
X181942832Y-75683088D01*
X181880000Y-75998967D01*
X142916631Y-75998967D01*
X142976151Y-75855275D01*
X143015925Y-75655316D01*
X143015925Y-75451438D01*
X142976151Y-75251479D01*
X142898130Y-75063121D01*
X142784862Y-74893603D01*
X142640699Y-74749440D01*
X142471181Y-74636172D01*
X142282823Y-74558151D01*
X142082864Y-74518377D01*
X141878986Y-74518377D01*
X141679027Y-74558151D01*
X141490669Y-74636172D01*
X141321151Y-74749440D01*
X141176988Y-74893603D01*
X141063720Y-75063121D01*
X140985699Y-75251479D01*
X140945925Y-75451438D01*
X118825149Y-75451438D01*
X118769774Y-75396063D01*
X118600256Y-75282795D01*
X118411898Y-75204774D01*
X118211939Y-75165000D01*
X118008061Y-75165000D01*
X117808102Y-75204774D01*
X117619744Y-75282795D01*
X117450226Y-75396063D01*
X117306063Y-75540226D01*
X117192795Y-75709744D01*
X117114774Y-75898102D01*
X117075000Y-76098061D01*
X106660000Y-76098061D01*
X106660000Y-74193061D01*
X136125000Y-74193061D01*
X136125000Y-74396939D01*
X136164774Y-74596898D01*
X136242795Y-74785256D01*
X136356063Y-74954774D01*
X136500226Y-75098937D01*
X136669744Y-75212205D01*
X136858102Y-75290226D01*
X137058061Y-75330000D01*
X137261939Y-75330000D01*
X137461898Y-75290226D01*
X137650256Y-75212205D01*
X137819774Y-75098937D01*
X137963937Y-74954774D01*
X138077205Y-74785256D01*
X138155226Y-74596898D01*
X138195000Y-74396939D01*
X138195000Y-74193061D01*
X138155226Y-73993102D01*
X138077205Y-73804744D01*
X137963937Y-73635226D01*
X137819774Y-73491063D01*
X137650256Y-73377795D01*
X137461898Y-73299774D01*
X137261939Y-73260000D01*
X137058061Y-73260000D01*
X136858102Y-73299774D01*
X136669744Y-73377795D01*
X136500226Y-73491063D01*
X136356063Y-73635226D01*
X136242795Y-73804744D01*
X136164774Y-73993102D01*
X136125000Y-74193061D01*
X106660000Y-74193061D01*
X106660000Y-68490000D01*
X109611928Y-68490000D01*
X109611928Y-70290000D01*
X109624188Y-70414482D01*
X109660498Y-70534180D01*
X109719463Y-70644494D01*
X109798815Y-70741185D01*
X109895506Y-70820537D01*
X110005820Y-70879502D01*
X110125518Y-70915812D01*
X110250000Y-70928072D01*
X112050000Y-70928072D01*
X112174482Y-70915812D01*
X112294180Y-70879502D01*
X112404494Y-70820537D01*
X112501185Y-70741185D01*
X112580537Y-70644494D01*
X112639502Y-70534180D01*
X112675812Y-70414482D01*
X112688072Y-70290000D01*
X112688072Y-68490000D01*
X115911928Y-68490000D01*
X115911928Y-70290000D01*
X115924188Y-70414482D01*
X115960498Y-70534180D01*
X116019463Y-70644494D01*
X116098815Y-70741185D01*
X116195506Y-70820537D01*
X116305820Y-70879502D01*
X116425518Y-70915812D01*
X116550000Y-70928072D01*
X118350000Y-70928072D01*
X118474482Y-70915812D01*
X118594180Y-70879502D01*
X118704494Y-70820537D01*
X118801185Y-70741185D01*
X118880537Y-70644494D01*
X118939502Y-70534180D01*
X118975812Y-70414482D01*
X118988072Y-70290000D01*
X118988072Y-68490000D01*
X118975812Y-68365518D01*
X118939502Y-68245820D01*
X118880537Y-68135506D01*
X118801185Y-68038815D01*
X118704494Y-67959463D01*
X118594180Y-67900498D01*
X118474482Y-67864188D01*
X118350000Y-67851928D01*
X116550000Y-67851928D01*
X116425518Y-67864188D01*
X116305820Y-67900498D01*
X116195506Y-67959463D01*
X116098815Y-68038815D01*
X116019463Y-68135506D01*
X115960498Y-68245820D01*
X115924188Y-68365518D01*
X115911928Y-68490000D01*
X112688072Y-68490000D01*
X112675812Y-68365518D01*
X112639502Y-68245820D01*
X112580537Y-68135506D01*
X112501185Y-68038815D01*
X112404494Y-67959463D01*
X112294180Y-67900498D01*
X112174482Y-67864188D01*
X112050000Y-67851928D01*
X110250000Y-67851928D01*
X110125518Y-67864188D01*
X110005820Y-67900498D01*
X109895506Y-67959463D01*
X109798815Y-68038815D01*
X109719463Y-68135506D01*
X109660498Y-68245820D01*
X109624188Y-68365518D01*
X109611928Y-68490000D01*
X106660000Y-68490000D01*
X106660000Y-64990000D01*
X109611928Y-64990000D01*
X109611928Y-66790000D01*
X109624188Y-66914482D01*
X109660498Y-67034180D01*
X109719463Y-67144494D01*
X109798815Y-67241185D01*
X109895506Y-67320537D01*
X110005820Y-67379502D01*
X110125518Y-67415812D01*
X110250000Y-67428072D01*
X112050000Y-67428072D01*
X112174482Y-67415812D01*
X112294180Y-67379502D01*
X112404494Y-67320537D01*
X112501185Y-67241185D01*
X112580537Y-67144494D01*
X112639502Y-67034180D01*
X112675812Y-66914482D01*
X112688072Y-66790000D01*
X112688072Y-64990000D01*
X115911928Y-64990000D01*
X115911928Y-66790000D01*
X115924188Y-66914482D01*
X115960498Y-67034180D01*
X116019463Y-67144494D01*
X116098815Y-67241185D01*
X116195506Y-67320537D01*
X116305820Y-67379502D01*
X116425518Y-67415812D01*
X116550000Y-67428072D01*
X118350000Y-67428072D01*
X118474482Y-67415812D01*
X118594180Y-67379502D01*
X118704494Y-67320537D01*
X118801185Y-67241185D01*
X118880537Y-67144494D01*
X118939502Y-67034180D01*
X118975812Y-66914482D01*
X118988072Y-66790000D01*
X118988072Y-64990000D01*
X118975812Y-64865518D01*
X118939502Y-64745820D01*
X118880537Y-64635506D01*
X118801185Y-64538815D01*
X118704494Y-64459463D01*
X118594180Y-64400498D01*
X118474482Y-64364188D01*
X118350000Y-64351928D01*
X116550000Y-64351928D01*
X116425518Y-64364188D01*
X116305820Y-64400498D01*
X116195506Y-64459463D01*
X116098815Y-64538815D01*
X116019463Y-64635506D01*
X115960498Y-64745820D01*
X115924188Y-64865518D01*
X115911928Y-64990000D01*
X112688072Y-64990000D01*
X112675812Y-64865518D01*
X112639502Y-64745820D01*
X112580537Y-64635506D01*
X112501185Y-64538815D01*
X112404494Y-64459463D01*
X112294180Y-64400498D01*
X112174482Y-64364188D01*
X112050000Y-64351928D01*
X110250000Y-64351928D01*
X110125518Y-64364188D01*
X110005820Y-64400498D01*
X109895506Y-64459463D01*
X109798815Y-64538815D01*
X109719463Y-64635506D01*
X109660498Y-64745820D01*
X109624188Y-64865518D01*
X109611928Y-64990000D01*
X106660000Y-64990000D01*
X106660000Y-63590000D01*
X109611928Y-63590000D01*
X109624188Y-63714482D01*
X109660498Y-63834180D01*
X109719463Y-63944494D01*
X109798815Y-64041185D01*
X109895506Y-64120537D01*
X110005820Y-64179502D01*
X110125518Y-64215812D01*
X110250000Y-64228072D01*
X110864250Y-64225000D01*
X111023000Y-64066250D01*
X111023000Y-62817000D01*
X111277000Y-62817000D01*
X111277000Y-64066250D01*
X111435750Y-64225000D01*
X112050000Y-64228072D01*
X112174482Y-64215812D01*
X112294180Y-64179502D01*
X112404494Y-64120537D01*
X112501185Y-64041185D01*
X112580537Y-63944494D01*
X112639502Y-63834180D01*
X112675812Y-63714482D01*
X112688072Y-63590000D01*
X115911928Y-63590000D01*
X115924188Y-63714482D01*
X115960498Y-63834180D01*
X116019463Y-63944494D01*
X116098815Y-64041185D01*
X116195506Y-64120537D01*
X116305820Y-64179502D01*
X116425518Y-64215812D01*
X116550000Y-64228072D01*
X117164250Y-64225000D01*
X117323000Y-64066250D01*
X117323000Y-62817000D01*
X117577000Y-62817000D01*
X117577000Y-64066250D01*
X117735750Y-64225000D01*
X118350000Y-64228072D01*
X118474482Y-64215812D01*
X118594180Y-64179502D01*
X118704494Y-64120537D01*
X118801185Y-64041185D01*
X118880537Y-63944494D01*
X118939502Y-63834180D01*
X118975812Y-63714482D01*
X118988072Y-63590000D01*
X118986554Y-63286323D01*
X121830497Y-63286323D01*
X121830497Y-63713677D01*
X121913870Y-64132821D01*
X122077412Y-64527645D01*
X122314837Y-64882977D01*
X122617023Y-65185163D01*
X122972355Y-65422588D01*
X123367179Y-65586130D01*
X123786323Y-65669503D01*
X124213677Y-65669503D01*
X124632821Y-65586130D01*
X125027645Y-65422588D01*
X125382977Y-65185163D01*
X125583140Y-64985000D01*
X129956928Y-64985000D01*
X129969188Y-65109482D01*
X130005498Y-65229180D01*
X130064463Y-65339494D01*
X130143815Y-65436185D01*
X130240506Y-65515537D01*
X130350820Y-65574502D01*
X130423380Y-65596513D01*
X130291525Y-65728368D01*
X130129010Y-65971589D01*
X130017068Y-66241842D01*
X129960000Y-66528740D01*
X129960000Y-66821260D01*
X130017068Y-67108158D01*
X130129010Y-67378411D01*
X130291525Y-67621632D01*
X130498368Y-67828475D01*
X130672760Y-67945000D01*
X130498368Y-68061525D01*
X130291525Y-68268368D01*
X130129010Y-68511589D01*
X130017068Y-68781842D01*
X129960000Y-69068740D01*
X129960000Y-69361260D01*
X130017068Y-69648158D01*
X130129010Y-69918411D01*
X130291525Y-70161632D01*
X130498368Y-70368475D01*
X130672760Y-70485000D01*
X130498368Y-70601525D01*
X130291525Y-70808368D01*
X130129010Y-71051589D01*
X130017068Y-71321842D01*
X129960000Y-71608740D01*
X129960000Y-71901260D01*
X130017068Y-72188158D01*
X130129010Y-72458411D01*
X130291525Y-72701632D01*
X130498368Y-72908475D01*
X130741589Y-73070990D01*
X131011842Y-73182932D01*
X131298740Y-73240000D01*
X131591260Y-73240000D01*
X131878158Y-73182932D01*
X132148411Y-73070990D01*
X132369802Y-72923061D01*
X149460000Y-72923061D01*
X149460000Y-73126939D01*
X149499774Y-73326898D01*
X149577795Y-73515256D01*
X149691063Y-73684774D01*
X149835226Y-73828937D01*
X150004744Y-73942205D01*
X150193102Y-74020226D01*
X150393061Y-74060000D01*
X150596939Y-74060000D01*
X150796898Y-74020226D01*
X150985256Y-73942205D01*
X151154774Y-73828937D01*
X151298937Y-73684774D01*
X151383603Y-73558061D01*
X154540000Y-73558061D01*
X154540000Y-73761939D01*
X154579774Y-73961898D01*
X154657795Y-74150256D01*
X154771063Y-74319774D01*
X154915226Y-74463937D01*
X155084744Y-74577205D01*
X155273102Y-74655226D01*
X155473061Y-74695000D01*
X155676939Y-74695000D01*
X155876898Y-74655226D01*
X156065256Y-74577205D01*
X156234774Y-74463937D01*
X156264424Y-74434287D01*
X163525552Y-74434287D01*
X163525552Y-74638165D01*
X163565326Y-74838124D01*
X163643347Y-75026482D01*
X163756615Y-75196000D01*
X163900778Y-75340163D01*
X164070296Y-75453431D01*
X164258654Y-75531452D01*
X164458613Y-75571226D01*
X164662491Y-75571226D01*
X164862450Y-75531452D01*
X165050808Y-75453431D01*
X165220326Y-75340163D01*
X165364489Y-75196000D01*
X165477757Y-75026482D01*
X165555778Y-74838124D01*
X165595552Y-74638165D01*
X165595552Y-74434287D01*
X165555778Y-74234328D01*
X165477757Y-74045970D01*
X165364489Y-73876452D01*
X165220326Y-73732289D01*
X165140573Y-73679000D01*
X165201939Y-73679000D01*
X165401898Y-73639226D01*
X165590256Y-73561205D01*
X165759774Y-73447937D01*
X165903937Y-73303774D01*
X166017205Y-73134256D01*
X166095226Y-72945898D01*
X166135000Y-72745939D01*
X166135000Y-72542061D01*
X166095226Y-72342102D01*
X166017205Y-72153744D01*
X165903937Y-71984226D01*
X165759774Y-71840063D01*
X165590256Y-71726795D01*
X165401898Y-71648774D01*
X165201939Y-71609000D01*
X164998061Y-71609000D01*
X164798102Y-71648774D01*
X164609744Y-71726795D01*
X164440226Y-71840063D01*
X164296063Y-71984226D01*
X164182795Y-72153744D01*
X164104774Y-72342102D01*
X164065000Y-72542061D01*
X164065000Y-72745939D01*
X164104774Y-72945898D01*
X164182795Y-73134256D01*
X164296063Y-73303774D01*
X164440226Y-73447937D01*
X164519979Y-73501226D01*
X164458613Y-73501226D01*
X164258654Y-73541000D01*
X164070296Y-73619021D01*
X163900778Y-73732289D01*
X163756615Y-73876452D01*
X163643347Y-74045970D01*
X163565326Y-74234328D01*
X163525552Y-74434287D01*
X156264424Y-74434287D01*
X156378937Y-74319774D01*
X156492205Y-74150256D01*
X156570226Y-73961898D01*
X156610000Y-73761939D01*
X156610000Y-73558061D01*
X156570226Y-73358102D01*
X156492205Y-73169744D01*
X156378937Y-73000226D01*
X156301772Y-72923061D01*
X158350000Y-72923061D01*
X158350000Y-73126939D01*
X158389774Y-73326898D01*
X158467795Y-73515256D01*
X158581063Y-73684774D01*
X158725226Y-73828937D01*
X158894744Y-73942205D01*
X159083102Y-74020226D01*
X159283061Y-74060000D01*
X159486939Y-74060000D01*
X159686898Y-74020226D01*
X159875256Y-73942205D01*
X160044774Y-73828937D01*
X160188937Y-73684774D01*
X160302205Y-73515256D01*
X160380226Y-73326898D01*
X160420000Y-73126939D01*
X160420000Y-72923061D01*
X160980010Y-72923061D01*
X160980010Y-73126939D01*
X161019784Y-73326898D01*
X161097805Y-73515256D01*
X161211073Y-73684774D01*
X161355236Y-73828937D01*
X161524754Y-73942205D01*
X161713112Y-74020226D01*
X161913071Y-74060000D01*
X162116949Y-74060000D01*
X162316908Y-74020226D01*
X162505266Y-73942205D01*
X162674784Y-73828937D01*
X162818947Y-73684774D01*
X162932215Y-73515256D01*
X163010236Y-73326898D01*
X163050010Y-73126939D01*
X163050010Y-72923061D01*
X163010236Y-72723102D01*
X162932215Y-72534744D01*
X162818947Y-72365226D01*
X162674784Y-72221063D01*
X162505266Y-72107795D01*
X162316908Y-72029774D01*
X162116949Y-71990000D01*
X161913071Y-71990000D01*
X161713112Y-72029774D01*
X161524754Y-72107795D01*
X161355236Y-72221063D01*
X161211073Y-72365226D01*
X161097805Y-72534744D01*
X161019784Y-72723102D01*
X160980010Y-72923061D01*
X160420000Y-72923061D01*
X160380226Y-72723102D01*
X160302205Y-72534744D01*
X160188937Y-72365226D01*
X160044774Y-72221063D01*
X159875256Y-72107795D01*
X159686898Y-72029774D01*
X159486939Y-71990000D01*
X159283061Y-71990000D01*
X159083102Y-72029774D01*
X158894744Y-72107795D01*
X158725226Y-72221063D01*
X158581063Y-72365226D01*
X158467795Y-72534744D01*
X158389774Y-72723102D01*
X158350000Y-72923061D01*
X156301772Y-72923061D01*
X156234774Y-72856063D01*
X156065256Y-72742795D01*
X155876898Y-72664774D01*
X155676939Y-72625000D01*
X155473061Y-72625000D01*
X155273102Y-72664774D01*
X155084744Y-72742795D01*
X154915226Y-72856063D01*
X154771063Y-73000226D01*
X154657795Y-73169744D01*
X154579774Y-73358102D01*
X154540000Y-73558061D01*
X151383603Y-73558061D01*
X151412205Y-73515256D01*
X151490226Y-73326898D01*
X151530000Y-73126939D01*
X151530000Y-72923061D01*
X151490226Y-72723102D01*
X151412205Y-72534744D01*
X151298937Y-72365226D01*
X151154774Y-72221063D01*
X150985256Y-72107795D01*
X150796898Y-72029774D01*
X150596939Y-71990000D01*
X150393061Y-71990000D01*
X150193102Y-72029774D01*
X150004744Y-72107795D01*
X149835226Y-72221063D01*
X149691063Y-72365226D01*
X149577795Y-72534744D01*
X149499774Y-72723102D01*
X149460000Y-72923061D01*
X132369802Y-72923061D01*
X132391632Y-72908475D01*
X132598475Y-72701632D01*
X132760990Y-72458411D01*
X132872932Y-72188158D01*
X132930000Y-71901260D01*
X132930000Y-71608740D01*
X132872932Y-71321842D01*
X132760990Y-71051589D01*
X132598475Y-70808368D01*
X132391632Y-70601525D01*
X132217240Y-70485000D01*
X132391632Y-70368475D01*
X132598475Y-70161632D01*
X132705096Y-70002061D01*
X164065000Y-70002061D01*
X164065000Y-70205939D01*
X164104774Y-70405898D01*
X164182795Y-70594256D01*
X164296063Y-70763774D01*
X164440226Y-70907937D01*
X164609744Y-71021205D01*
X164798102Y-71099226D01*
X164998061Y-71139000D01*
X165201939Y-71139000D01*
X165401898Y-71099226D01*
X165590256Y-71021205D01*
X165623537Y-70998967D01*
X181880000Y-70998967D01*
X181880000Y-71321033D01*
X181942832Y-71636912D01*
X182066082Y-71934463D01*
X182245013Y-72202252D01*
X182472748Y-72429987D01*
X182740537Y-72608918D01*
X183038088Y-72732168D01*
X183353967Y-72795000D01*
X183676033Y-72795000D01*
X183991912Y-72732168D01*
X184289463Y-72608918D01*
X184557252Y-72429987D01*
X184784987Y-72202252D01*
X184963918Y-71934463D01*
X185087168Y-71636912D01*
X185150000Y-71321033D01*
X185150000Y-70998967D01*
X185087168Y-70683088D01*
X184963918Y-70385537D01*
X184784987Y-70117748D01*
X184557252Y-69890013D01*
X184289463Y-69711082D01*
X183991912Y-69587832D01*
X183676033Y-69525000D01*
X183353967Y-69525000D01*
X183038088Y-69587832D01*
X182740537Y-69711082D01*
X182472748Y-69890013D01*
X182245013Y-70117748D01*
X182066082Y-70385537D01*
X181942832Y-70683088D01*
X181880000Y-70998967D01*
X165623537Y-70998967D01*
X165759774Y-70907937D01*
X165903937Y-70763774D01*
X166017205Y-70594256D01*
X166095226Y-70405898D01*
X166135000Y-70205939D01*
X166135000Y-70002061D01*
X166095226Y-69802102D01*
X166017205Y-69613744D01*
X165903937Y-69444226D01*
X165759774Y-69300063D01*
X165590256Y-69186795D01*
X165401898Y-69108774D01*
X165201939Y-69069000D01*
X164998061Y-69069000D01*
X164798102Y-69108774D01*
X164609744Y-69186795D01*
X164440226Y-69300063D01*
X164296063Y-69444226D01*
X164182795Y-69613744D01*
X164104774Y-69802102D01*
X164065000Y-70002061D01*
X132705096Y-70002061D01*
X132760990Y-69918411D01*
X132872932Y-69648158D01*
X132930000Y-69361260D01*
X132930000Y-69068740D01*
X132872932Y-68781842D01*
X132760990Y-68511589D01*
X132598475Y-68268368D01*
X132391632Y-68061525D01*
X132217240Y-67945000D01*
X132391632Y-67828475D01*
X132598475Y-67621632D01*
X132760990Y-67378411D01*
X132872932Y-67108158D01*
X132930000Y-66821260D01*
X132930000Y-66528740D01*
X132872932Y-66241842D01*
X132760990Y-65971589D01*
X132598475Y-65728368D01*
X132466620Y-65596513D01*
X132539180Y-65574502D01*
X132649494Y-65515537D01*
X132746185Y-65436185D01*
X132825537Y-65339494D01*
X132884502Y-65229180D01*
X132892150Y-65203967D01*
X181880000Y-65203967D01*
X181880000Y-65526033D01*
X181942832Y-65841912D01*
X182066082Y-66139463D01*
X182245013Y-66407252D01*
X182472748Y-66634987D01*
X182740537Y-66813918D01*
X183038088Y-66937168D01*
X183353967Y-67000000D01*
X183676033Y-67000000D01*
X183991912Y-66937168D01*
X184289463Y-66813918D01*
X184557252Y-66634987D01*
X184784987Y-66407252D01*
X184963918Y-66139463D01*
X185087168Y-65841912D01*
X185150000Y-65526033D01*
X185150000Y-65203967D01*
X185087168Y-64888088D01*
X184963918Y-64590537D01*
X184784987Y-64322748D01*
X184557252Y-64095013D01*
X184289463Y-63916082D01*
X183991912Y-63792832D01*
X183676033Y-63730000D01*
X183353967Y-63730000D01*
X183038088Y-63792832D01*
X182740537Y-63916082D01*
X182472748Y-64095013D01*
X182245013Y-64322748D01*
X182066082Y-64590537D01*
X181942832Y-64888088D01*
X181880000Y-65203967D01*
X132892150Y-65203967D01*
X132920812Y-65109482D01*
X132933072Y-64985000D01*
X132930000Y-64420750D01*
X132771250Y-64262000D01*
X131572000Y-64262000D01*
X131572000Y-64282000D01*
X131318000Y-64282000D01*
X131318000Y-64262000D01*
X130118750Y-64262000D01*
X129960000Y-64420750D01*
X129956928Y-64985000D01*
X125583140Y-64985000D01*
X125685163Y-64882977D01*
X125922588Y-64527645D01*
X126086130Y-64132821D01*
X126169503Y-63713677D01*
X126169503Y-63286323D01*
X126169240Y-63285000D01*
X129956928Y-63285000D01*
X129960000Y-63849250D01*
X130118750Y-64008000D01*
X131318000Y-64008000D01*
X131318000Y-62808750D01*
X131572000Y-62808750D01*
X131572000Y-64008000D01*
X132771250Y-64008000D01*
X132930000Y-63849250D01*
X132933072Y-63285000D01*
X132920812Y-63160518D01*
X132884502Y-63040820D01*
X132825537Y-62930506D01*
X132746185Y-62833815D01*
X132649494Y-62754463D01*
X132539180Y-62695498D01*
X132419482Y-62659188D01*
X132295000Y-62646928D01*
X131730750Y-62650000D01*
X131572000Y-62808750D01*
X131318000Y-62808750D01*
X131159250Y-62650000D01*
X130595000Y-62646928D01*
X130470518Y-62659188D01*
X130350820Y-62695498D01*
X130240506Y-62754463D01*
X130143815Y-62833815D01*
X130064463Y-62930506D01*
X130005498Y-63040820D01*
X129969188Y-63160518D01*
X129956928Y-63285000D01*
X126169240Y-63285000D01*
X126086130Y-62867179D01*
X125922588Y-62472355D01*
X125685163Y-62117023D01*
X125382977Y-61814837D01*
X125027645Y-61577412D01*
X124824005Y-61493061D01*
X157715000Y-61493061D01*
X157715000Y-61696939D01*
X157754774Y-61896898D01*
X157832795Y-62085256D01*
X157946063Y-62254774D01*
X158090226Y-62398937D01*
X158259744Y-62512205D01*
X158448102Y-62590226D01*
X158648061Y-62630000D01*
X158851939Y-62630000D01*
X159051898Y-62590226D01*
X159240256Y-62512205D01*
X159409774Y-62398937D01*
X159553937Y-62254774D01*
X159667205Y-62085256D01*
X159745226Y-61896898D01*
X159749768Y-61874061D01*
X164065000Y-61874061D01*
X164065000Y-62077939D01*
X164104774Y-62277898D01*
X164182795Y-62466256D01*
X164296063Y-62635774D01*
X164440226Y-62779937D01*
X164609744Y-62893205D01*
X164798102Y-62971226D01*
X164998061Y-63011000D01*
X165201939Y-63011000D01*
X165401898Y-62971226D01*
X165590256Y-62893205D01*
X165759774Y-62779937D01*
X165903937Y-62635774D01*
X166017205Y-62466256D01*
X166095226Y-62277898D01*
X166135000Y-62077939D01*
X166135000Y-61874061D01*
X166095226Y-61674102D01*
X166017205Y-61485744D01*
X165903937Y-61316226D01*
X165759774Y-61172063D01*
X165590256Y-61058795D01*
X165401898Y-60980774D01*
X165201939Y-60941000D01*
X164998061Y-60941000D01*
X164798102Y-60980774D01*
X164609744Y-61058795D01*
X164440226Y-61172063D01*
X164296063Y-61316226D01*
X164182795Y-61485744D01*
X164104774Y-61674102D01*
X164065000Y-61874061D01*
X159749768Y-61874061D01*
X159785000Y-61696939D01*
X159785000Y-61493061D01*
X159745226Y-61293102D01*
X159667205Y-61104744D01*
X159553937Y-60935226D01*
X159409774Y-60791063D01*
X159240256Y-60677795D01*
X159051898Y-60599774D01*
X158851939Y-60560000D01*
X158648061Y-60560000D01*
X158448102Y-60599774D01*
X158259744Y-60677795D01*
X158090226Y-60791063D01*
X157946063Y-60935226D01*
X157832795Y-61104744D01*
X157754774Y-61293102D01*
X157715000Y-61493061D01*
X124824005Y-61493061D01*
X124632821Y-61413870D01*
X124213677Y-61330497D01*
X123786323Y-61330497D01*
X123367179Y-61413870D01*
X122972355Y-61577412D01*
X122617023Y-61814837D01*
X122314837Y-62117023D01*
X122077412Y-62472355D01*
X121913870Y-62867179D01*
X121830497Y-63286323D01*
X118986554Y-63286323D01*
X118985000Y-62975750D01*
X118826250Y-62817000D01*
X117577000Y-62817000D01*
X117323000Y-62817000D01*
X116073750Y-62817000D01*
X115915000Y-62975750D01*
X115911928Y-63590000D01*
X112688072Y-63590000D01*
X112685000Y-62975750D01*
X112526250Y-62817000D01*
X111277000Y-62817000D01*
X111023000Y-62817000D01*
X109773750Y-62817000D01*
X109615000Y-62975750D01*
X109611928Y-63590000D01*
X106660000Y-63590000D01*
X106660000Y-61790000D01*
X109611928Y-61790000D01*
X109615000Y-62404250D01*
X109773750Y-62563000D01*
X111023000Y-62563000D01*
X111023000Y-61313750D01*
X111277000Y-61313750D01*
X111277000Y-62563000D01*
X112526250Y-62563000D01*
X112685000Y-62404250D01*
X112688072Y-61790000D01*
X115911928Y-61790000D01*
X115915000Y-62404250D01*
X116073750Y-62563000D01*
X117323000Y-62563000D01*
X117323000Y-61313750D01*
X117577000Y-61313750D01*
X117577000Y-62563000D01*
X118826250Y-62563000D01*
X118985000Y-62404250D01*
X118988072Y-61790000D01*
X118975812Y-61665518D01*
X118939502Y-61545820D01*
X118880537Y-61435506D01*
X118801185Y-61338815D01*
X118704494Y-61259463D01*
X118594180Y-61200498D01*
X118474482Y-61164188D01*
X118350000Y-61151928D01*
X117735750Y-61155000D01*
X117577000Y-61313750D01*
X117323000Y-61313750D01*
X117164250Y-61155000D01*
X116550000Y-61151928D01*
X116425518Y-61164188D01*
X116305820Y-61200498D01*
X116195506Y-61259463D01*
X116098815Y-61338815D01*
X116019463Y-61435506D01*
X115960498Y-61545820D01*
X115924188Y-61665518D01*
X115911928Y-61790000D01*
X112688072Y-61790000D01*
X112675812Y-61665518D01*
X112639502Y-61545820D01*
X112580537Y-61435506D01*
X112501185Y-61338815D01*
X112404494Y-61259463D01*
X112294180Y-61200498D01*
X112174482Y-61164188D01*
X112050000Y-61151928D01*
X111435750Y-61155000D01*
X111277000Y-61313750D01*
X111023000Y-61313750D01*
X110864250Y-61155000D01*
X110250000Y-61151928D01*
X110125518Y-61164188D01*
X110005820Y-61200498D01*
X109895506Y-61259463D01*
X109798815Y-61338815D01*
X109719463Y-61435506D01*
X109660498Y-61545820D01*
X109624188Y-61665518D01*
X109611928Y-61790000D01*
X106660000Y-61790000D01*
X106660000Y-60203967D01*
X181880000Y-60203967D01*
X181880000Y-60526033D01*
X181942832Y-60841912D01*
X182066082Y-61139463D01*
X182245013Y-61407252D01*
X182472748Y-61634987D01*
X182740537Y-61813918D01*
X183038088Y-61937168D01*
X183353967Y-62000000D01*
X183676033Y-62000000D01*
X183991912Y-61937168D01*
X184289463Y-61813918D01*
X184557252Y-61634987D01*
X184784987Y-61407252D01*
X184963918Y-61139463D01*
X185087168Y-60841912D01*
X185150000Y-60526033D01*
X185150000Y-60203967D01*
X185087168Y-59888088D01*
X184963918Y-59590537D01*
X184784987Y-59322748D01*
X184557252Y-59095013D01*
X184289463Y-58916082D01*
X183991912Y-58792832D01*
X183676033Y-58730000D01*
X183353967Y-58730000D01*
X183038088Y-58792832D01*
X182740537Y-58916082D01*
X182472748Y-59095013D01*
X182245013Y-59322748D01*
X182066082Y-59590537D01*
X181942832Y-59888088D01*
X181880000Y-60203967D01*
X106660000Y-60203967D01*
X106660000Y-59032279D01*
X106667767Y-58953061D01*
X148825000Y-58953061D01*
X148825000Y-59156939D01*
X148864774Y-59356898D01*
X148942795Y-59545256D01*
X149056063Y-59714774D01*
X149200226Y-59858937D01*
X149369744Y-59972205D01*
X149558102Y-60050226D01*
X149758061Y-60090000D01*
X149961939Y-60090000D01*
X150161898Y-60050226D01*
X150350256Y-59972205D01*
X150519774Y-59858937D01*
X150663937Y-59714774D01*
X150777205Y-59545256D01*
X150855226Y-59356898D01*
X150895000Y-59156939D01*
X150895000Y-58953061D01*
X150869739Y-58826061D01*
X164573000Y-58826061D01*
X164573000Y-59029939D01*
X164612774Y-59229898D01*
X164690795Y-59418256D01*
X164804063Y-59587774D01*
X164948226Y-59731937D01*
X165117744Y-59845205D01*
X165306102Y-59923226D01*
X165506061Y-59963000D01*
X165709939Y-59963000D01*
X165909898Y-59923226D01*
X166098256Y-59845205D01*
X166267774Y-59731937D01*
X166411937Y-59587774D01*
X166525205Y-59418256D01*
X166603226Y-59229898D01*
X166643000Y-59029939D01*
X166643000Y-58826061D01*
X166603226Y-58626102D01*
X166525205Y-58437744D01*
X166411937Y-58268226D01*
X166267774Y-58124063D01*
X166098256Y-58010795D01*
X165909898Y-57932774D01*
X165709939Y-57893000D01*
X165506061Y-57893000D01*
X165306102Y-57932774D01*
X165117744Y-58010795D01*
X164948226Y-58124063D01*
X164804063Y-58268226D01*
X164690795Y-58437744D01*
X164612774Y-58626102D01*
X164573000Y-58826061D01*
X150869739Y-58826061D01*
X150855226Y-58753102D01*
X150777205Y-58564744D01*
X150663937Y-58395226D01*
X150519774Y-58251063D01*
X150350256Y-58137795D01*
X150161898Y-58059774D01*
X149961939Y-58020000D01*
X149758061Y-58020000D01*
X149558102Y-58059774D01*
X149369744Y-58137795D01*
X149200226Y-58251063D01*
X149056063Y-58395226D01*
X148942795Y-58564744D01*
X148864774Y-58753102D01*
X148825000Y-58953061D01*
X106667767Y-58953061D01*
X106688625Y-58740341D01*
X106764035Y-58490571D01*
X106886522Y-58260208D01*
X107051422Y-58058020D01*
X107252450Y-57891714D01*
X107481954Y-57767622D01*
X107731195Y-57690469D01*
X108021088Y-57660000D01*
X188967721Y-57660000D01*
X189259659Y-57688625D01*
G37*
G04 #@! TD.AperFunction*
M02*
